<?xml version="1.0" encoding="utf-8"?>
<!-- Generator: Adobe Illustrator 24.2.0, SVG Export Plug-In . SVG Version: 6.00 Build 0)  -->
<svg version="1.1" id="Layer_1" xmlns="http://www.w3.org/2000/svg" xmlns:xlink="http://www.w3.org/1999/xlink" x="0px" y="0px"
	 viewBox="0 0 546.2 420.5" style="enable-background:new 0 0 546.2 420.5;" xml:space="preserve">
<style type="text/css">
	.st0{fill:#0089D6;}
</style>
<path class="st0" d="M254.3,383.9l118.4-20.9l1.1-0.3l-60.9-72.4c-20.4-24.2-40.7-48.4-60.9-72.8c0-0.4,62.9-173.5,63.2-174.1
	c0.1-0.2,42.9,73.7,103.7,179l104.3,180.8l0.8,1.4l-193.5,0l-193.5,0L254.3,383.9L254.3,383.9z M22.1,361.8
	c0-0.1,28.7-49.9,63.8-110.7l63.8-110.5l74.3-62.4c40.9-34.3,74.4-62.4,74.5-62.4c-0.3,1-0.7,2.1-1.2,3l-80.7,173l-79.2,169.9
	l-57.6,0.1C48.1,361.9,22.1,361.9,22.1,361.8L22.1,361.8z"/>
</svg>
