<?xml version="1.0" encoding="utf-8"?>
<!-- Generator: Adobe Illustrator 23.0.3, SVG Export Plug-In . SVG Version: 6.00 Build 0)  -->
<svg version="1.1" id="Layer_1" xmlns="http://www.w3.org/2000/svg" xmlns:xlink="http://www.w3.org/1999/xlink" x="0px" y="0px"
	 viewBox="0 0 84 84" style="enable-background:new 0 0 84 84;" xml:space="preserve">
<style type="text/css">
	.st0{fill:#3C3C41;}
	.st1{fill:#52AD02;}
	.st2{fill:#FFF8EB;}
</style>
<title>app-ser-Customer-Service</title>
<g id="customer-service-03">
	<circle class="st0" cx="42" cy="42" r="35.5"/>
</g>
<path class="st1" d="M42,50l4.7-6.1c0.8-1.1,1.3-2.4,1.3-3.7c0-3.3-2.7-6.1-6-6.1s-6,2.7-6,6.1c0,1.5,0.5,2.8,1.3,3.7L42,50z"/>
<path class="st2" d="M42,18c-13.2,0-24,10.8-24,24s10.8,24,24,24s24-10.8,24-24S55.2,18,42,18z M60.5,31.3c1.6,2.8,2.7,6,2.8,9.3
	h-6.7c-0.1-3.3-0.9-6.4-2.3-9.3H60.5z M58.7,28.7H53c-1.9-3.1-4.4-5.6-7.5-7.7C50.8,21.9,55.5,24.7,58.7,28.7z M43.3,22.8
	c2.5,1.6,4.7,3.6,6.4,5.9h-6.4V22.8z M38.5,20.9c-3.1,2.1-5.6,4.7-7.5,7.7h-5.7C28.5,24.7,33.2,21.9,38.5,20.9z M40.7,22.8v5.9h-6.4
	C36,26.4,38.1,24.4,40.7,22.8z M23.5,31.3h6.1c-1.2,2.9-2,6-2.3,9.3h-6.6C20.9,37.3,21.9,34.1,23.5,31.3z M23.6,52.7
	c-1.6-2.8-2.7-6-2.8-9.3h6.7c0.1,3.3,0.9,6.4,2.3,9.3H23.6z M25.3,55.3H31c1.9,3.1,4.4,5.6,7.5,7.7C33.2,62.1,28.5,59.3,25.3,55.3z
	 M40.7,61.2c-2.5-1.6-4.7-3.6-6.4-5.9h6.4V61.2z M32.7,52.7C30.9,49.5,30,45.9,30,42s0.9-7.5,2.7-10.7h18.7C53.1,34.5,54,38.1,54,42
	s-0.9,7.5-2.7,10.7H32.7z M43.3,55.3h6.4c-1.7,2.3-3.9,4.3-6.4,5.9V55.3z M45.5,63.1c3.1-2,5.6-4.7,7.5-7.7h5.7
	C55.5,59.3,50.8,62.1,45.5,63.1z M60.5,52.7h-6.1c1.2-2.9,2-6,2.3-9.3h6.7C63.1,46.7,62.1,49.9,60.5,52.7z"/>
</svg>
