<?xml version="1.0" encoding="utf-8"?>
<!-- Generator: Adobe Illustrator 23.0.3, SVG Export Plug-In . SVG Version: 6.00 Build 0)  -->
<svg version="1.1" id="Layer_1" xmlns="http://www.w3.org/2000/svg" xmlns:xlink="http://www.w3.org/1999/xlink" x="0px" y="0px"
	 viewBox="0 0 84 84" style="enable-background:new 0 0 84 84;" xml:space="preserve">
<style type="text/css">
	.st0{fill:#3C3C41;}
	.st1{fill:#FFF8EB;}
	.st2{fill:#52AD02;}
</style>
<title>app-ser-Customer-Service</title>
<g id="customer-service-03">
	<circle class="st0" cx="42" cy="42" r="35.5"/>
</g>
<path class="st1" d="M61.5,23.4H46.3l-19,19l1.6,1.6h12v12l1.6,1.6l19-19L61.5,23.4z M56.9,32.2c-1.2,1.2-3,1.2-4.2,0
	c-1.2-1.2-1.2-3,0-4.2c1.2-1.2,3-1.2,4.2,0C58.1,29.2,58.1,31.1,56.9,32.2z"/>
<path class="st2" d="M38.7,46.2v12.3h-4.3v-4.9l-9,8.9l-3-3l8.9-8.9h-4.9v-4.4H38.7z"/>
</svg>
