<svg id="Power Apps-01" xmlns="http://www.w3.org/2000/svg" viewBox="0 0 524.68 394.16"><defs><style>.cls-1{fill:#0e0e0e;}.cls-2,.cls-3{fill:none;stroke:#d2d2d2;stroke-linecap:round;stroke-linejoin:round;}.cls-2{stroke-width:3px;}.cls-3{stroke-width:30px;}.cls-11,.cls-4,.cls-5,.cls-6{font-size:16.95px;}.cls-4,.cls-5,.cls-6,.cls-7{fill:#262262;}.cls-12,.cls-13,.cls-4,.cls-5,.cls-6{font-family:SegoeUI-Semibold, Segoe UI;font-weight:600;}.cls-11,.cls-4{letter-spacing:0.01em;}.cls-5{letter-spacing:0.01em;}.cls-6{letter-spacing:-0.02em;}.cls-7,.cls-8{fill-rule:evenodd;}.cls-8,.cls-9{fill:#fff;}.cls-10{fill:#54ad47;}.cls-11{fill:#2172b9;font-family:SegoeUI, Segoe UI;}.cls-12,.cls-13{font-size:11.86px;fill:#2b3990;}.cls-12{letter-spacing:0.01em;}.cls-13{letter-spacing:0.01em;}</style></defs><title>sol-powerapps</title><polygon class="cls-1" points="13.37 177.48 13.91 176.19 15.31 176.15 15.91 177.41 15.38 178.7 13.97 178.73 13.37 177.48"/><polygon class="cls-1" points="13.24 172.39 13.78 171.1 15.18 171.07 15.79 172.32 15.25 173.61 13.84 173.65 13.24 172.39"/><polygon class="cls-1" points="13.35 167.24 13.95 165.98 15.35 166.02 15.89 167.3 15.29 168.56 13.88 168.53 13.35 167.24"/><polygon class="cls-1" points="13.56 162.1 14.23 160.87 15.63 160.98 16.1 162.29 15.43 163.51 14.03 163.41 13.56 162.1"/><polygon class="cls-1" points="13.95 157.02 14.61 155.8 16.01 155.9 16.48 157.22 15.82 158.44 14.42 158.34 13.95 157.02"/><polygon class="cls-1" points="14.53 151.91 15.26 150.72 16.65 150.89 17.05 152.23 16.33 153.42 14.93 153.24 14.53 151.91"/><polygon class="cls-1" points="15.23 146.81 16.01 145.65 17.39 145.9 17.73 147.25 16.95 148.4 15.56 148.16 15.23 146.81"/><polygon class="cls-1" points="16.12 141.8 16.91 140.64 18.29 140.89 18.63 142.24 17.84 143.4 16.46 143.15 16.12 141.8"/><polygon class="cls-1" points="17.19 136.76 18.03 135.65 19.4 135.96 19.67 137.33 18.83 138.44 17.46 138.13 17.19 136.76"/><polygon class="cls-1" points="18.38 131.75 19.27 130.68 20.62 131.06 20.82 132.44 19.93 133.51 18.57 133.13 18.38 131.75"/><polygon class="cls-1" points="19.76 126.86 20.66 125.79 22.01 126.17 22.21 127.55 21.32 128.62 19.96 128.23 19.76 126.86"/><polygon class="cls-1" points="21.31 121.95 22.26 120.92 23.59 121.37 23.72 122.76 22.77 123.78 21.45 123.33 21.31 121.95"/><polygon class="cls-1" points="22.98 117.08 23.98 116.1 25.28 116.61 25.35 118 24.35 118.98 23.04 118.47 22.98 117.08"/><polygon class="cls-1" points="24.84 112.34 25.84 111.37 27.15 111.88 27.21 113.27 26.22 114.25 24.91 113.73 24.84 112.34"/><polygon class="cls-1" points="26.86 107.61 27.91 106.68 29.19 107.26 29.18 108.65 28.14 109.58 26.86 109 26.86 107.61"/><polygon class="cls-1" points="29 102.92 30.09 102.05 31.34 102.69 31.26 104.08 30.17 104.95 28.93 104.31 29 102.92"/><polygon class="cls-1" points="31.32 98.39 32.41 97.52 33.65 98.16 33.58 99.55 32.49 100.43 31.24 99.78 31.32 98.39"/><polygon class="cls-1" points="33.86 93.89 35.01 93.09 36.21 93.82 36.03 95.21 34.89 96 33.69 95.27 33.86 93.89"/><polygon class="cls-1" points="36.5 89.54 37.65 88.75 38.85 89.48 38.67 90.86 37.53 91.65 36.33 90.92 36.5 89.54"/><polygon class="cls-1" points="39.14 85.19 40.29 84.4 41.49 85.13 41.32 86.51 40.17 87.3 38.97 86.57 39.14 85.19"/><polygon class="cls-1" points="42.09 80.9 43.3 80.22 44.43 81.06 44.12 82.42 42.91 83.1 41.78 82.26 42.09 80.9"/><polygon class="cls-1" points="45.13 76.83 46.35 76.15 47.48 76.99 47.17 78.35 45.95 79.03 44.83 78.19 45.13 76.83"/><polygon class="cls-1" points="48.18 72.75 49.4 72.08 50.52 72.92 50.22 74.28 49 74.95 47.87 74.11 48.18 72.75"/><polygon class="cls-1" points="51.53 68.77 52.81 68.22 53.85 69.16 53.41 70.48 52.13 71.04 51.1 70.1 51.53 68.77"/><polygon class="cls-1" points="54.95 65.01 56.23 64.45 57.27 65.39 56.83 66.72 55.56 67.28 54.52 66.33 54.95 65.01"/><polygon class="cls-1" points="58.37 61.25 59.65 60.69 60.69 61.63 60.26 62.95 58.98 63.51 57.94 62.57 58.37 61.25"/><polygon class="cls-1" points="62.1 57.62 63.42 57.18 64.37 58.22 63.81 59.49 62.48 59.93 61.54 58.89 62.1 57.62"/><polygon class="cls-1" points="65.86 54.2 67.19 53.76 68.13 54.8 67.58 56.07 66.25 56.51 65.31 55.47 65.86 54.2"/><polygon class="cls-1" points="69.63 50.77 70.95 50.34 71.9 51.38 71.34 52.65 70.01 53.09 69.07 52.05 69.63 50.77"/><polygon class="cls-1" points="73.69 47.53 75.06 47.22 75.9 48.34 75.22 49.56 73.86 49.87 73.02 48.74 73.69 47.53"/><polygon class="cls-1" points="77.77 44.48 79.13 44.17 79.97 45.3 79.29 46.52 77.93 46.82 77.09 45.7 77.77 44.48"/><polygon class="cls-1" points="81.84 41.44 83.2 41.13 84.04 42.25 83.37 43.47 82.01 43.78 81.17 42.65 81.84 41.44"/><polygon class="cls-1" points="86.21 38.61 87.59 38.43 88.32 39.63 87.53 40.78 86.15 40.95 85.42 39.75 86.21 38.61"/><polygon class="cls-1" points="90.56 35.97 91.94 35.79 92.67 36.99 91.88 38.14 90.5 38.31 89.77 37.11 90.56 35.97"/><polygon class="cls-1" points="94.9 33.33 96.29 33.15 97.02 34.35 96.23 35.49 94.84 35.67 94.11 34.47 94.9 33.33"/><polygon class="cls-1" points="99.46 30.87 100.86 30.8 101.5 32.05 100.62 33.13 99.23 33.21 98.59 31.96 99.46 30.87"/><polygon class="cls-1" points="104.07 28.58 105.47 28.57 106.04 29.85 105.12 30.89 103.72 30.9 103.15 29.62 104.07 28.58"/><polygon class="cls-1" points="108.71 26.48 110.1 26.48 110.68 27.75 109.75 28.8 108.36 28.8 107.78 27.52 108.71 26.48"/><polygon class="cls-1" points="113.47 24.53 114.86 24.59 115.38 25.9 114.4 26.89 113.01 26.83 112.5 25.52 113.47 24.53"/><polygon class="cls-1" points="118.28 22.69 119.67 22.82 120.12 24.15 119.09 25.1 117.71 24.97 117.26 23.64 118.28 22.69"/><polygon class="cls-1" points="123.1 21.06 124.48 21.19 124.94 22.52 123.91 23.47 122.52 23.34 122.08 22.01 123.1 21.06"/><polygon class="cls-1" points="128.03 19.58 129.41 19.78 129.79 21.13 128.72 22.03 127.34 21.83 126.96 20.48 128.03 19.58"/><polygon class="cls-1" points="132.99 18.22 134.36 18.49 134.68 19.86 133.57 20.7 132.2 20.43 131.88 19.06 132.99 18.22"/><polygon class="cls-1" points="137.95 17.07 139.32 17.34 139.63 18.71 138.52 19.55 137.16 19.28 136.84 17.91 137.95 17.07"/><polygon class="cls-1" points="143 16.08 144.35 16.41 144.6 17.8 143.45 18.58 142.1 18.24 141.85 16.86 143 16.08"/><polygon class="cls-1" points="148.07 15.2 149.41 15.6 149.59 17 148.4 17.72 147.06 17.32 146.89 15.92 148.07 15.2"/><polygon class="cls-1" points="153.12 14.56 154.46 14.96 154.63 16.35 153.44 17.08 152.11 16.68 151.93 15.28 153.12 14.56"/><polygon class="cls-1" points="158.25 14.05 159.56 14.52 159.66 15.92 158.44 16.58 157.13 16.11 157.02 14.71 158.25 14.05"/><polygon class="cls-1" points="163.32 13.66 164.63 14.13 164.74 15.53 163.51 16.2 162.2 15.72 162.09 14.32 163.32 13.66"/><polygon class="cls-1" points="168.47 13.52 169.75 14.06 169.79 15.46 168.53 16.06 167.25 15.53 167.21 14.12 168.47 13.52"/><polygon class="cls-1" points="173.62 13.49 174.88 14.09 174.84 15.49 173.55 16.03 172.29 15.43 172.33 14.02 173.62 13.49"/><polygon class="cls-1" points="178.7 13.62 179.96 14.22 179.92 15.62 178.64 16.16 177.38 15.56 177.42 14.15 178.7 13.62"/><polygon class="cls-1" points="183.84 13.95 185.07 14.61 184.96 16.01 183.65 16.48 182.42 15.82 182.53 14.42 183.84 13.95"/><polygon class="cls-1" points="188.97 14.39 190.16 15.12 189.99 16.51 188.65 16.92 187.46 16.19 187.64 14.8 188.97 14.39"/><polygon class="cls-1" points="194.02 15.04 195.21 15.76 195.03 17.15 193.7 17.56 192.51 16.83 192.68 15.44 194.02 15.04"/><polygon class="cls-1" points="199.1 15.85 200.25 16.64 200.01 18.02 198.66 18.35 197.5 17.57 197.75 16.19 199.1 15.85"/><polygon class="cls-1" points="204.17 16.78 205.28 17.63 204.96 18.99 203.6 19.26 202.48 18.42 202.8 17.05 204.17 16.78"/><polygon class="cls-1" points="209.12 17.93 210.24 18.77 209.92 20.14 208.55 20.41 207.44 19.56 207.76 18.2 209.12 17.93"/><polygon class="cls-1" points="214.1 19.23 215.17 20.12 214.79 21.47 213.41 21.67 212.34 20.78 212.72 19.43 214.1 19.23"/><polygon class="cls-1" points="219.06 20.65 220.08 21.59 219.63 22.92 218.24 23.05 217.22 22.11 217.67 20.78 219.06 20.65"/><polygon class="cls-1" points="223.87 22.28 224.9 23.23 224.45 24.55 223.06 24.68 222.04 23.74 222.49 22.41 223.87 22.28"/><polygon class="cls-1" points="228.7 24.05 229.68 25.05 229.17 26.36 227.78 26.42 226.8 25.42 227.31 24.12 228.7 24.05"/><polygon class="cls-1" points="233.49 25.95 234.42 26.99 233.84 28.27 232.45 28.27 231.52 27.22 232.1 25.94 233.49 25.95"/><polygon class="cls-1" points="238.13 28.04 239.05 29.09 238.47 30.36 237.08 30.36 236.16 29.32 236.73 28.04 238.13 28.04"/><polygon class="cls-1" points="242.76 30.28 243.64 31.37 243 32.62 241.61 32.55 240.73 31.46 241.37 30.21 242.76 30.28"/><polygon class="cls-1" points="247.37 32.65 248.16 33.8 247.43 35 246.05 34.83 245.25 33.68 245.99 32.48 247.37 32.65"/><polygon class="cls-1" points="251.71 35.29 252.51 36.44 251.78 37.64 250.4 37.47 249.6 36.32 250.33 35.12 251.71 35.29"/><polygon class="cls-1" points="256.06 37.94 256.85 39.08 256.12 40.28 254.74 40.11 253.95 38.96 254.68 37.76 256.06 37.94"/><polygon class="cls-1" points="260.5 40.66 261.18 41.88 260.34 43 258.98 42.7 258.3 41.48 259.14 40.35 260.5 40.66"/><polygon class="cls-1" points="264.57 43.71 265.25 44.92 264.41 46.05 263.05 45.74 262.37 44.52 263.21 43.4 264.57 43.71"/><polygon class="cls-1" points="268.65 46.75 269.32 47.97 268.48 49.1 267.13 48.79 266.45 47.57 267.29 46.45 268.65 46.75"/><polygon class="cls-1" points="272.79 49.9 273.35 51.18 272.41 52.22 271.08 51.79 270.52 50.51 271.47 49.47 272.79 49.9"/><polygon class="cls-1" points="276.56 53.32 277.12 54.6 276.17 55.64 274.85 55.21 274.29 53.93 275.23 52.89 276.56 53.32"/><polygon class="cls-1" points="280.32 56.74 280.88 58.02 279.94 59.06 278.61 58.63 278.05 57.35 279 56.31 280.32 56.74"/><polygon class="cls-1" points="284.13 60.29 284.57 61.61 283.53 62.56 282.26 62 281.82 60.68 282.86 59.73 284.13 60.29"/><polygon class="cls-1" points="287.55 64.05 287.99 65.37 286.96 66.32 285.68 65.77 285.24 64.44 286.28 63.49 287.55 64.05"/><polygon class="cls-1" points="290.97 67.81 291.41 69.14 290.38 70.08 289.1 69.53 288.66 68.21 289.7 67.26 290.97 67.81"/><polygon class="cls-1" points="294.42 71.72 294.73 73.08 293.6 73.92 292.39 73.24 292.08 71.88 293.21 71.04 294.42 71.72"/><polygon class="cls-1" points="297.47 75.79 297.78 77.15 296.66 77.99 295.44 77.32 295.13 75.96 296.25 75.11 297.47 75.79"/><polygon class="cls-1" points="300.51 79.86 300.82 81.22 299.7 82.07 298.48 81.39 298.17 80.03 299.29 79.19 300.51 79.86"/><polygon class="cls-1" points="303.56 84.08 303.74 85.46 302.55 86.2 301.39 85.42 301.21 84.03 302.41 83.3 303.56 84.08"/><polygon class="cls-1" points="306.2 88.43 306.38 89.81 305.19 90.55 304.04 89.76 303.85 88.38 305.05 87.64 306.2 88.43"/><polygon class="cls-1" points="308.84 92.78 309.02 94.16 307.83 94.89 306.68 94.11 306.49 92.73 307.69 91.99 308.84 92.78"/><polygon class="cls-1" points="311.47 97.24 311.55 98.63 310.3 99.28 309.21 98.41 309.13 97.02 310.38 96.37 311.47 97.24"/><polygon class="cls-1" points="313.79 101.77 313.87 103.16 312.62 103.8 311.53 102.94 311.45 101.54 312.7 100.9 313.79 101.77"/><polygon class="cls-1" points="315.98 106.43 315.98 107.83 314.7 108.4 313.66 107.47 313.66 106.08 314.94 105.5 315.98 106.43"/><polygon class="cls-1" points="318.06 111.14 317.99 112.53 316.69 113.05 315.69 112.07 315.75 110.68 317.06 110.17 318.06 111.14"/><polygon class="cls-1" points="319.92 115.87 319.86 117.26 318.55 117.78 317.56 116.81 317.62 115.41 318.93 114.9 319.92 115.87"/><polygon class="cls-1" points="321.65 120.73 321.51 122.11 320.18 122.56 319.24 121.53 319.38 120.14 320.71 119.7 321.65 120.73"/><polygon class="cls-1" points="323.26 125.61 323.06 126.99 321.71 127.38 320.81 126.31 321.01 124.93 322.36 124.54 323.26 125.61"/><polygon class="cls-1" points="324.65 130.5 324.45 131.88 323.1 132.27 322.2 131.2 322.4 129.82 323.75 129.44 324.65 130.5"/><polygon class="cls-1" points="325.9 135.5 325.63 136.87 324.26 137.18 323.42 136.07 323.69 134.7 325.06 134.39 325.9 135.5"/><polygon class="cls-1" points="327.03 140.53 326.69 141.88 325.3 142.12 324.52 140.97 324.87 139.62 326.25 139.38 327.03 140.53"/><polygon class="cls-1" points="327.92 145.54 327.58 146.89 326.2 147.13 325.42 145.97 325.76 144.62 327.14 144.38 327.92 145.54"/><polygon class="cls-1" points="328.68 150.62 328.29 151.95 326.89 152.14 326.16 150.95 326.56 149.62 327.95 149.43 328.68 150.62"/><polygon class="cls-1" points="329.33 155.73 328.86 157.04 327.46 157.16 326.8 155.93 327.26 154.62 328.66 154.51 329.33 155.73"/><polygon class="cls-1" points="329.72 160.8 329.25 162.12 327.85 162.23 327.18 161 327.65 159.69 329.05 159.58 329.72 160.8"/><polygon class="cls-1" points="330 165.95 329.46 167.23 328.06 167.27 327.45 166.02 327.99 164.73 329.39 164.69 330 165.95"/><polygon class="cls-1" points="330.12 171.03 329.59 172.32 328.19 172.36 327.58 171.1 328.12 169.81 329.52 169.78 330.12 171.03"/><polygon class="cls-1" points="330.04 176.18 329.44 177.44 328.03 177.41 327.5 176.12 328.1 174.86 329.5 174.9 330.04 176.18"/><polygon class="cls-1" points="329.84 181.33 329.18 182.56 327.77 182.45 327.31 181.13 327.98 179.91 329.38 180.02 329.84 181.33"/><polygon class="cls-1" points="329.46 186.4 328.79 187.63 327.39 187.52 326.92 186.21 327.59 184.98 328.99 185.09 329.46 186.4"/><polygon class="cls-1" points="328.89 191.53 328.16 192.71 326.77 192.53 326.37 191.19 327.1 190.01 328.5 190.19 328.89 191.53"/><polygon class="cls-1" points="328.21 196.62 327.44 197.78 326.05 197.53 325.71 196.19 326.49 195.03 327.87 195.27 328.21 196.62"/><polygon class="cls-1" points="327.32 201.63 326.54 202.78 325.16 202.54 324.81 201.19 325.59 200.04 326.98 200.28 327.32 201.63"/><polygon class="cls-1" points="326.27 206.67 325.43 207.78 324.06 207.47 323.79 206.1 324.63 204.99 326 205.31 326.27 206.67"/><polygon class="cls-1" points="325.1 211.69 324.2 212.76 322.86 212.37 322.66 210.99 323.55 209.93 324.9 210.31 325.1 211.69"/><polygon class="cls-1" points="323.71 216.58 322.82 217.65 321.47 217.27 321.27 215.89 322.17 214.82 323.51 215.21 323.71 216.58"/><polygon class="cls-1" points="322.18 221.49 321.24 222.52 319.91 222.07 319.77 220.69 320.71 219.66 322.05 220.1 322.18 221.49"/><polygon class="cls-1" points="320.55 226.31 319.61 227.34 318.28 226.89 318.14 225.51 319.08 224.48 320.42 224.92 320.55 226.31"/><polygon class="cls-1" points="318.67 231.11 317.67 232.08 316.36 231.57 316.3 230.18 317.3 229.2 318.6 229.72 318.67 231.11"/><polygon class="cls-1" points="316.67 235.84 315.63 236.78 314.35 236.2 314.35 234.81 315.38 233.88 316.67 234.45 316.67 235.84"/><polygon class="cls-1" points="314.57 240.48 313.53 241.41 312.25 240.84 312.25 239.44 313.29 238.51 314.57 239.09 314.57 240.48"/><polygon class="cls-1" points="312.23 245.07 311.14 245.94 309.89 245.3 309.96 243.91 311.05 243.04 312.3 243.68 312.23 245.07"/><polygon class="cls-1" points="309.7 249.6 308.55 250.38 307.36 249.65 307.54 248.27 308.69 247.48 309.89 248.22 309.7 249.6"/><polygon class="cls-1" points="307.06 253.94 305.91 254.73 304.71 253.99 304.9 252.61 306.05 251.83 307.24 252.56 307.06 253.94"/><polygon class="cls-1" points="304.42 258.29 303.27 259.08 302.07 258.34 302.26 256.96 303.41 256.17 304.6 256.91 304.42 258.29"/><polygon class="cls-1" points="301.51 262.6 300.29 263.27 299.17 262.43 299.48 261.07 300.7 260.4 301.82 261.24 301.51 262.6"/><polygon class="cls-1" points="298.46 266.67 297.24 267.35 296.12 266.5 296.43 265.14 297.65 264.47 298.77 265.32 298.46 266.67"/><polygon class="cls-1" points="295.42 270.75 294.19 271.42 293.07 270.58 293.38 269.22 294.61 268.54 295.73 269.39 295.42 270.75"/><polygon class="cls-1" points="292.1 274.75 290.82 275.3 289.78 274.36 290.21 273.04 291.49 272.48 292.53 273.42 292.1 274.75"/><polygon class="cls-1" points="288.67 278.51 287.39 279.07 286.36 278.12 286.79 276.8 288.07 276.24 289.11 277.19 288.67 278.51"/><polygon class="cls-1" points="285.25 282.27 283.97 282.83 282.94 281.89 283.37 280.56 284.65 280.01 285.69 280.95 285.25 282.27"/><polygon class="cls-1" points="281.55 285.93 280.23 286.37 279.28 285.33 279.84 284.05 281.16 283.61 282.11 284.65 281.55 285.93"/><polygon class="cls-1" points="277.79 289.35 276.46 289.79 275.52 288.75 276.07 287.47 277.4 287.03 278.35 288.07 277.79 289.35"/><polygon class="cls-1" points="274.02 292.77 272.7 293.21 271.75 292.17 272.31 290.89 273.63 290.46 274.58 291.49 274.02 292.77"/><polygon class="cls-1" points="269.98 296.04 268.62 296.35 267.78 295.23 268.45 294.01 269.81 293.7 270.65 294.82 269.98 296.04"/><polygon class="cls-1" points="265.91 299.09 264.55 299.4 263.7 298.28 264.38 297.06 265.74 296.75 266.58 297.87 265.91 299.09"/><polygon class="cls-1" points="261.83 302.13 260.48 302.45 259.63 301.32 260.3 300.11 261.66 299.79 262.51 300.91 261.83 302.13"/><polygon class="cls-1" points="257.49 304.99 256.11 305.17 255.37 303.98 256.15 302.83 257.54 302.64 258.27 303.84 257.49 304.99"/><polygon class="cls-1" points="253.14 307.63 251.76 307.81 251.02 306.62 251.81 305.47 253.19 305.29 253.93 306.48 253.14 307.63"/><polygon class="cls-1" points="248.79 310.27 247.41 310.46 246.68 309.26 247.46 308.11 248.84 307.93 249.58 309.12 248.79 310.27"/><polygon class="cls-1" points="244.25 312.75 242.85 312.83 242.21 311.58 243.08 310.49 244.47 310.42 245.12 311.66 244.25 312.75"/><polygon class="cls-1" points="239.64 315.07 238.24 315.07 237.67 313.78 238.6 312.75 239.99 312.75 240.57 314.03 239.64 315.07"/><polygon class="cls-1" points="235 317.16 233.61 317.16 233.03 315.88 233.96 314.84 235.36 314.84 235.93 316.13 235 317.16"/><polygon class="cls-1" points="230.25 319.13 228.86 319.07 228.34 317.76 229.32 316.77 230.71 316.83 231.23 318.13 230.25 319.13"/><polygon class="cls-1" points="225.44 320.99 224.06 320.85 223.61 319.52 224.64 318.57 226.03 318.71 226.47 320.04 225.44 320.99"/><polygon class="cls-1" points="220.63 322.62 219.24 322.48 218.79 321.15 219.82 320.2 221.21 320.34 221.65 321.67 220.63 322.62"/><polygon class="cls-1" points="215.71 324.11 214.33 323.91 213.94 322.56 215.01 321.67 216.39 321.86 216.77 323.21 215.71 324.11"/><polygon class="cls-1" points="210.74 325.49 209.37 325.22 209.06 323.85 210.17 323.01 211.54 323.28 211.85 324.65 210.74 325.49"/><polygon class="cls-1" points="205.79 326.63 204.42 326.37 204.1 325 205.21 324.16 206.58 324.43 206.9 325.8 205.79 326.63"/><polygon class="cls-1" points="200.73 327.65 199.38 327.31 199.14 325.92 200.3 325.15 201.65 325.49 201.89 326.87 200.73 327.65"/><polygon class="cls-1" points="195.67 328.55 194.34 328.15 194.15 326.76 195.34 326.03 196.68 326.42 196.86 327.82 195.67 328.55"/><polygon class="cls-1" points="190.63 329.19 189.29 328.79 189.11 327.4 190.29 326.67 191.63 327.06 191.81 328.46 190.63 329.19"/><polygon class="cls-1" points="185.5 329.72 184.19 329.25 184.08 327.85 185.3 327.18 186.62 327.65 186.72 329.05 185.5 329.72"/><polygon class="cls-1" points="180.43 330.1 179.12 329.64 179.01 328.24 180.23 327.57 181.54 328.04 181.65 329.44 180.43 330.1"/><polygon class="cls-1" points="175.28 330.26 173.99 329.73 173.96 328.32 175.21 327.72 176.5 328.26 176.54 329.66 175.28 330.26"/><polygon class="cls-1" points="170.13 330.31 168.87 329.71 168.91 328.31 170.19 327.77 171.45 328.38 171.41 329.78 170.13 330.31"/><polygon class="cls-1" points="165.04 330.19 163.79 329.58 163.82 328.18 165.11 327.64 166.37 328.25 166.33 329.65 165.04 330.19"/><polygon class="cls-1" points="159.9 329.87 158.68 329.2 158.79 327.8 160.1 327.34 161.32 328 161.21 329.4 159.9 329.87"/><polygon class="cls-1" points="154.77 329.44 153.58 328.71 153.76 327.32 155.1 326.92 156.28 327.65 156.1 329.05 154.77 329.44"/><polygon class="cls-1" points="149.72 328.8 148.53 328.07 148.72 326.68 150.05 326.28 151.24 327.01 151.05 328.41 149.72 328.8"/><polygon class="cls-1" points="144.65 328.01 143.49 327.23 143.73 325.85 145.08 325.5 146.24 326.28 146 327.67 144.65 328.01"/><polygon class="cls-1" points="139.57 327.09 138.46 326.25 138.77 324.88 140.14 324.61 141.25 325.45 140.94 326.82 139.57 327.09"/><polygon class="cls-1" points="134.62 325.95 133.5 325.11 133.82 323.74 135.18 323.47 136.3 324.31 135.98 325.68 134.62 325.95"/><polygon class="cls-1" points="129.63 324.67 128.56 323.77 128.94 322.42 130.32 322.22 131.39 323.12 131 324.47 129.63 324.67"/><polygon class="cls-1" points="124.73 323.28 123.66 322.38 124.05 321.03 125.43 320.83 126.5 321.73 126.11 323.08 124.73 323.28"/><polygon class="cls-1" points="119.86 321.64 118.83 320.69 119.27 319.36 120.66 319.22 121.69 320.17 121.25 321.5 119.86 321.64"/><polygon class="cls-1" points="115.02 319.88 114.04 318.88 114.56 317.57 115.95 317.51 116.92 318.51 116.41 319.81 115.02 319.88"/><polygon class="cls-1" points="110.28 318.01 109.31 317.01 109.82 315.71 111.21 315.64 112.19 316.64 111.67 317.95 110.28 318.01"/><polygon class="cls-1" points="105.59 315.9 104.66 314.87 105.23 313.58 106.63 313.58 107.56 314.62 106.98 315.9 105.59 315.9"/><polygon class="cls-1" points="100.94 313.68 100.07 312.59 100.71 311.34 102.1 311.42 102.97 312.51 102.33 313.76 100.94 313.68"/><polygon class="cls-1" points="96.41 311.36 95.54 310.27 96.19 309.02 97.58 309.1 98.45 310.19 97.8 311.44 96.41 311.36"/><polygon class="cls-1" points="91.97 308.69 91.19 307.54 91.92 306.34 93.3 306.52 94.09 307.67 93.35 308.87 91.97 308.69"/><polygon class="cls-1" points="87.63 306.05 86.84 304.89 87.58 303.7 88.96 303.88 89.74 305.03 89.01 306.23 87.63 306.05"/><polygon class="cls-1" points="83.28 303.41 82.49 302.25 83.23 301.06 84.61 301.24 85.39 302.39 84.66 303.59 83.28 303.41"/><polygon class="cls-1" points="79.1 300.31 78.42 299.08 79.27 297.96 80.63 298.27 81.3 299.5 80.45 300.62 79.1 300.31"/><polygon class="cls-1" points="75.02 297.26 74.35 296.04 75.19 294.92 76.55 295.23 77.23 296.45 76.38 297.57 75.02 297.26"/><polygon class="cls-1" points="70.95 294.22 70.27 293 71.11 291.87 72.47 292.18 73.15 293.39 72.31 294.52 70.95 294.22"/><polygon class="cls-1" points="67.09 290.71 66.54 289.44 67.48 288.4 68.81 288.84 69.36 290.12 68.41 291.15 67.09 290.71"/><polygon class="cls-1" points="63.33 287.29 62.77 286.01 63.72 284.98 65.04 285.42 65.6 286.69 64.65 287.73 63.33 287.29"/><polygon class="cls-1" points="59.49 283.78 59.06 282.45 60.1 281.51 61.37 282.07 61.81 283.39 60.77 284.34 59.49 283.78"/><polygon class="cls-1" points="56.07 280.01 55.63 278.69 56.67 277.74 57.95 278.3 58.38 279.63 57.34 280.57 56.07 280.01"/><polygon class="cls-1" points="52.65 276.25 52.21 274.92 53.25 273.98 54.53 274.54 54.96 275.87 53.92 276.81 52.65 276.25"/><polygon class="cls-1" points="49.17 272.37 48.87 271.01 49.99 270.17 51.21 270.85 51.52 272.21 50.39 273.05 49.17 272.37"/><polygon class="cls-1" points="46.13 268.3 45.82 266.94 46.95 266.1 48.16 266.77 48.47 268.13 47.35 268.98 46.13 268.3"/><polygon class="cls-1" points="43.08 264.22 42.77 262.86 43.9 262.02 45.12 262.7 45.42 264.06 44.3 264.9 43.08 264.22"/><polygon class="cls-1" points="40.01 260.02 39.83 258.64 41.03 257.91 42.18 258.7 42.35 260.08 41.15 260.81 40.01 260.02"/><polygon class="cls-1" points="37.37 255.68 37.19 254.29 38.39 253.56 39.54 254.35 39.71 255.74 38.51 256.47 37.37 255.68"/><polygon class="cls-1" points="34.73 251.33 34.55 249.94 35.75 249.22 36.9 250 37.07 251.39 35.87 252.12 34.73 251.33"/><polygon class="cls-1" points="32.08 246.88 32 245.49 33.25 244.85 34.34 245.72 34.41 247.11 33.16 247.75 32.08 246.88"/><polygon class="cls-1" points="29.76 242.35 29.68 240.96 30.93 240.32 32.02 241.19 32.09 242.59 30.84 243.22 29.76 242.35"/><polygon class="cls-1" points="27.55 237.7 27.54 236.31 28.82 235.73 29.86 236.65 29.87 238.05 28.59 238.63 27.55 237.7"/><polygon class="cls-1" points="25.46 233 25.52 231.6 26.82 231.09 27.82 232.06 27.76 233.46 26.45 233.97 25.46 233"/><polygon class="cls-1" points="23.59 228.26 23.65 226.87 24.96 226.36 25.95 227.33 25.89 228.73 24.59 229.24 23.59 228.26"/><polygon class="cls-1" points="21.85 223.42 21.98 222.03 23.31 221.58 24.25 222.6 24.12 223.99 22.79 224.44 21.85 223.42"/><polygon class="cls-1" points="20.22 218.54 20.42 217.16 21.77 216.77 22.66 217.84 22.46 219.22 21.11 219.6 20.22 218.54"/><polygon class="cls-1" points="18.83 213.64 19.03 212.26 20.38 211.88 21.27 212.95 21.07 214.33 19.72 214.71 18.83 213.64"/><polygon class="cls-1" points="17.56 208.65 17.83 207.28 19.2 206.97 20.04 208.08 19.77 209.45 18.41 209.76 17.56 208.65"/><polygon class="cls-1" points="16.41 203.63 16.75 202.28 18.13 202.03 18.92 203.18 18.58 204.54 17.2 204.78 16.41 203.63"/><polygon class="cls-1" points="15.52 198.63 15.86 197.27 17.24 197.03 18.02 198.18 17.69 199.53 16.3 199.78 15.52 198.63"/><polygon class="cls-1" points="14.74 193.54 15.14 192.2 16.54 192.02 17.26 193.21 16.86 194.55 15.46 194.72 14.74 193.54"/><polygon class="cls-1" points="14.1 188.49 14.5 187.16 15.89 186.98 16.62 188.17 16.22 189.5 14.82 189.68 14.1 188.49"/><polygon class="cls-1" points="13.69 183.36 14.16 182.04 15.56 181.94 16.22 183.16 15.75 184.47 14.35 184.58 13.69 183.36"/><line class="cls-2" x1="300.06" y1="171.47" x2="362.29" y2="171.47"/><line class="cls-2" x1="362.77" y1="96.06" x2="362.77" y2="247.44"/><ellipse class="cls-3" cx="171.26" cy="171.47" rx="113.97" ry="113.12"/><circle class="cls-3" cx="171.26" cy="171.47" r="127.53"/><text class="cls-4" transform="translate(383.96 111.73)">Dynamics 365</text><text class="cls-5" transform="translate(383.96 176.13)">Office 365</text><text class="cls-6" transform="translate(383.96 241.38)">Standalone Apps</text><path class="cls-7" d="M109.43,210.88l1.26,2.1a72.51,72.51,0,0,0,121.42,0l1-1.71,40.24,34.79-4.78,6.47a124.88,124.88,0,0,1-194.39,0l-5-6.84Z"/><path class="cls-8" d="M132.85,256.5l3.29,1.48a4.78,4.78,0,0,1,2.5,2.16,3.35,3.35,0,0,1-.07,2.91,3.72,3.72,0,0,1-2.23,2.1,4.44,4.44,0,0,1-3.35-.3l-1.44-.64-1.77,3.92-1.79-.8Zm1.13,2.29-1.78,3.95,1.16.52a2.84,2.84,0,0,0,2,.26,2.12,2.12,0,0,0,1.29-1.24c.57-1.28.11-2.24-1.37-2.91Z"/><path class="cls-8" d="M143.72,264.32a4.05,4.05,0,0,1,2.58,2.07,4.5,4.5,0,0,1,0,3.42,4.43,4.43,0,0,1-2.15,2.71,4.3,4.3,0,0,1-3.43.17,4.19,4.19,0,0,1-2.61-2.1,4.31,4.31,0,0,1-.14-3.36,4.19,4.19,0,0,1,5.7-2.91Zm-.59,1.42a2.17,2.17,0,0,0-1.93.19,3.32,3.32,0,0,0-1.3,1.86,3.14,3.14,0,0,0,0,2.2,2.22,2.22,0,0,0,1.45,1.28,2.14,2.14,0,0,0,1.89-.18,4.11,4.11,0,0,0,1.33-4.09A2.08,2.08,0,0,0,143.13,265.74Z"/><path class="cls-8" d="M147.9,266l1.94.39.33,6.29a3.27,3.27,0,0,1,0,.73h.06a3.85,3.85,0,0,1,.27-.7l2.86-5.65,1.77.35.31,6.31a4,4,0,0,1,0,.74h.06a4.07,4.07,0,0,1,.26-.69l2.66-5.73,1.8.36-4.09,7.83-2-.39-.4-5.93a3.33,3.33,0,0,1,0-.76h0a3.06,3.06,0,0,1-.28.68l-2.76,5.33-1.93-.38Z"/><path class="cls-8" d="M164.62,268.46a3.36,3.36,0,0,1,2.59,1.33,4.63,4.63,0,0,1,.7,3.17l0,.73-5.76-.45a2.42,2.42,0,0,0,.58,1.86,2.66,2.66,0,0,0,1.84.78,4.14,4.14,0,0,0,2.55-.61l-.12,1.54a5.64,5.64,0,0,1-3.11.49,3.81,3.81,0,0,1-2.84-1.38,4.64,4.64,0,0,1-.8-3.32,4.45,4.45,0,0,1,1.42-3.12A3.82,3.82,0,0,1,164.62,268.46Zm-.14,1.41a1.9,1.9,0,0,0-1.45.49,2.79,2.79,0,0,0-.83,1.52l3.91.31a2.45,2.45,0,0,0-.36-1.64A1.62,1.62,0,0,0,164.48,269.87Z"/><path class="cls-8" d="M173.89,268.77a1.72,1.72,0,0,1,.8.15v1.82a1.61,1.61,0,0,0-1-.27,1.72,1.72,0,0,0-1.42.78,3.43,3.43,0,0,0-.57,2.09v4.06h-1.92l0-8.47h1.92v1.75h0a2.91,2.91,0,0,1,.86-1.4A2,2,0,0,1,173.89,268.77Z"/><path class="cls-8" d="M182.8,264.79l2.19-.33,6.11,11.09-2.14.32-1.5-2.83-4.62.68-.57,3.14-2.13.32Zm1.29,1.59a5,5,0,0,1-.05.76l-.92,4.92,3.59-.53-2.32-4.44a7.42,7.42,0,0,1-.27-.72Z"/><path class="cls-8" d="M190.64,266.93l1.86-.5,1.25,4.7c.4,1.47,1.16,2.05,2.3,1.75a1.79,1.79,0,0,0,1.19-1,2.41,2.41,0,0,0,.11-1.73l-1.26-4.71,1.85-.5,2.19,8.19-1.85.49-.35-1.29h0a2.78,2.78,0,0,1-2.11,2.16q-2.91.77-3.84-2.71Z"/><path class="cls-8" d="M201.4,261.07l.86,2.36,1.9-.69.52,1.41-1.91.69,1.44,4a1.62,1.62,0,0,0,.63.91,1.13,1.13,0,0,0,1,0,1.31,1.31,0,0,0,.7-.56l.52,1.44a3.39,3.39,0,0,1-1.3.77A2.14,2.14,0,0,1,202.6,270L201,265.5l-1.33.48-.51-1.42,1.33-.48-.67-1.84Z"/><path class="cls-8" d="M208.85,260.46a4.11,4.11,0,0,1,3.3-.24,4.51,4.51,0,0,1,2.36,2.47,4.44,4.44,0,0,1,.29,3.45,4.33,4.33,0,0,1-2.41,2.46,4.2,4.2,0,0,1-3.34.24,4.29,4.29,0,0,1-2.38-2.36,4.19,4.19,0,0,1,2.18-6Zm.54,1.44a2.22,2.22,0,0,0-1.29,1.46,3.36,3.36,0,0,0,.32,2.24,3.12,3.12,0,0,0,1.49,1.63,2.22,2.22,0,0,0,1.93-.05,2.13,2.13,0,0,0,1.26-1.42,3.32,3.32,0,0,0-.35-2.2,3.4,3.4,0,0,0-1.46-1.7A2.09,2.09,0,0,0,209.39,261.9Z"/><path class="cls-8" d="M217.78,255.7a2.58,2.58,0,0,1,1.55-.42,2.44,2.44,0,0,1,1.44.59,3,3,0,0,1,1.43-3c1.57-1,3-.54,4.22,1.4l2.81,4.4-1.62,1-2.49-3.9a3.78,3.78,0,0,0-1.35-1.42,1.38,1.38,0,0,0-1.39.18,1.5,1.5,0,0,0-.67,1.33,3.07,3.07,0,0,0,.52,1.8l2.47,3.86-1.63,1-2.56-4c-.85-1.33-1.75-1.7-2.69-1.1a1.51,1.51,0,0,0-.69,1.29,3.06,3.06,0,0,0,.57,1.82l2.47,3.87-1.62,1L214,258.36l1.62-1,.72,1.13,0,0A2.92,2.92,0,0,1,217.78,255.7Z"/><path class="cls-8" d="M228.49,248q2.46-2.07,4.49.36l3.54,4.23-1.43,1.19-.85-1,0,0a2.81,2.81,0,0,1-1,2.82,2.71,2.71,0,0,1-1.94.73,2.38,2.38,0,0,1-1.7-.92c-1-1.23-.91-2.53.33-3.92l1.7-1.89a1.56,1.56,0,0,0-2.48-.28,4.14,4.14,0,0,0-1.43,2.55l-1.07-1.29A5.86,5.86,0,0,1,228.49,248Zm3.93,2.59-1.2,1.33a2.8,2.8,0,0,0-.7,1.1,1.18,1.18,0,0,0,.34,1.06,1.11,1.11,0,0,0,.86.43,1.47,1.47,0,0,0,1-.4,1.88,1.88,0,0,0,.72-1.4,2.19,2.19,0,0,0-.55-1.56Z"/><path class="cls-8" d="M232.51,241.2l1.76,1.79,1.45-1.42,1.05,1.07-1.45,1.43,3,3a1.64,1.64,0,0,0,1,.57,1.14,1.14,0,0,0,.88-.4,1.31,1.31,0,0,0,.4-.8l1.07,1.09a3.21,3.21,0,0,1-.86,1.24,2.14,2.14,0,0,1-3.42,0L234,245.41l-1,1-1.06-1.07,1-1-1.37-1.4Z"/><path class="cls-8" d="M238.77,237.86a3.34,3.34,0,0,1,2.6-1.31,4.67,4.67,0,0,1,3,1.31l.55.48-3.77,4.37a2.41,2.41,0,0,0,1.84.64,2.71,2.71,0,0,0,1.73-1,4.24,4.24,0,0,0,1-2.42l1.17,1a5.69,5.69,0,0,1-1.45,2.8,3.77,3.77,0,0,1-2.79,1.46,5.27,5.27,0,0,1-4.83-4.31A3.8,3.8,0,0,1,238.77,237.86Zm1.06.94a1.85,1.85,0,0,0-.46,1.46,2.74,2.74,0,0,0,.73,1.56l2.56-3a2.45,2.45,0,0,0-1.53-.69A1.64,1.64,0,0,0,239.83,238.8Z"/><path class="cls-7" d="M170,43.94V97l-5.94.31c-37,3.81-65.81,35.49-65.81,74a75,75,0,0,0,8.85,35.46l.8,1.33-40.56,35-.36-.49a127.79,127.79,0,0,1-21.54-71.26c0-66,49.63-120.28,113.22-126.81Z"/><path class="cls-8" d="M67.19,176.27l0-3.6a4.74,4.74,0,0,1,.92-3.17,3.31,3.31,0,0,1,2.67-1.15,3.68,3.68,0,0,1,2.84,1.15,4.46,4.46,0,0,1,1.13,3.17v1.58l4.31,0v2Zm1.6-2,4.34,0V173a2.82,2.82,0,0,0-.61-1.93,2.09,2.09,0,0,0-1.66-.64c-1.39,0-2.08.83-2.07,2.45Z"/><path class="cls-8" d="M70.85,161.77a4.06,4.06,0,0,1,1.46-3,4.49,4.49,0,0,1,3.33-.78,4.4,4.4,0,0,1,3.11,1.51,4.21,4.21,0,0,1,.9,3.31,4.15,4.15,0,0,1-1.49,3,4.26,4.26,0,0,1-3.24.86,4.18,4.18,0,0,1-4.07-4.93Zm1.51.26a2.17,2.17,0,0,0,.61,1.85,3.23,3.23,0,0,0,2.09.86,3.08,3.08,0,0,0,2.15-.45,2.25,2.25,0,0,0,.94-1.69,2.11,2.11,0,0,0-.58-1.8,3.29,3.29,0,0,0-2.08-.82,3.33,3.33,0,0,0-2.2.4A2.06,2.06,0,0,0,72.36,162Z"/><path class="cls-8" d="M71.61,155.81l.44-1.93,6.29-.17a3.57,3.57,0,0,1,.74.06v-.05a4.09,4.09,0,0,1-.7-.3l-5.57-3,.4-1.76,6.31-.14a4.16,4.16,0,0,1,.74,0v-.06a3.51,3.51,0,0,1-.68-.28l-5.66-2.81.4-1.78,7.72,4.29-.43,2-5.95.25a4.1,4.1,0,0,1-.75,0v0a3.26,3.26,0,0,1,.67.3l5.26,2.89-.43,1.93Z"/><path class="cls-8" d="M76.13,138a3.32,3.32,0,0,1,1.94-2.17,4.63,4.63,0,0,1,3.24.13l.7.24-1.91,5.45a2.45,2.45,0,0,0,2-.08A2.76,2.76,0,0,0,83.28,140a4.16,4.16,0,0,0,.06-2.61l1.46.51a5.72,5.72,0,0,1-.33,3.13,3.75,3.75,0,0,1-2.06,2.38,4.57,4.57,0,0,1-3.41-.06,4.52,4.52,0,0,1-2.66-2.18A3.85,3.85,0,0,1,76.13,138Zm1.33.49a1.84,1.84,0,0,0,.1,1.52,2.76,2.76,0,0,0,1.26,1.19l1.3-3.7a2.46,2.46,0,0,0-1.68-.07A1.6,1.6,0,0,0,77.46,138.5Z"/><path class="cls-8" d="M80.07,128.47a1.55,1.55,0,0,1,.46-.66l1.67.74a1.6,1.6,0,0,0-.66.8,1.72,1.72,0,0,0,.13,1.62,3.44,3.44,0,0,0,1.68,1.37l3.7,1.64-.78,1.76-7.74-3.44.78-1.76,1.59.71,0,0a3,3,0,0,1-.93-1.35A2,2,0,0,1,80.07,128.47Z"/><path class="cls-8" d="M80.05,121.39l1.08-1.93,12.51,2-1.06,1.88-3.16-.55-2.28,4.07,2.13,2.37-1.06,1.88Zm2,0a5.44,5.44,0,0,1,.57.51L86,125.59l1.78-3.16-4.94-.89a5,5,0,0,1-.72-.22Z"/><path class="cls-8" d="M90.3,111.26a3,3,0,0,1,2.39-1.37,4.79,4.79,0,0,1,3,1.06,5.25,5.25,0,0,1,2.15,2.81,3.39,3.39,0,0,1-.6,3A2.78,2.78,0,0,1,94.62,118l0,0,4.16,3-1.12,1.55-10-7.26,1.13-1.56,1.2.88,0,0A3.16,3.16,0,0,1,90.3,111.26Zm.85,1.43a2.06,2.06,0,0,0-.38,1.76A2.73,2.73,0,0,0,91.88,116l.85.61a2.24,2.24,0,0,0,1.62.45,2.09,2.09,0,0,0,1.72-2.68,3.88,3.88,0,0,0-1.53-1.86,3,3,0,0,0-1.91-.69A1.88,1.88,0,0,0,91.15,112.69Z"/><path class="cls-8" d="M97.35,102.72a3,3,0,0,1,2.53-1.1,4.75,4.75,0,0,1,2.86,1.38,5.22,5.22,0,0,1,1.83,3,3.36,3.36,0,0,1-.92,2.91,2.75,2.75,0,0,1-2.73.9l0,0,3.82,3.45-1.29,1.42-9.17-8.3L95.54,105l1.1,1,0,0A3.16,3.16,0,0,1,97.35,102.72Zm.69,1.52a2,2,0,0,0-.57,1.71,2.67,2.67,0,0,0,.93,1.68l.78.71a2.29,2.29,0,0,0,1.57.62,2.09,2.09,0,0,0,2-2.48,3.86,3.86,0,0,0-1.31-2,3.09,3.09,0,0,0-1.83-.9A1.89,1.89,0,0,0,98,104.24Z"/><path class="cls-8" d="M103.79,96.33a6,6,0,0,1,1.8-1.16l1.13,1.24a3.55,3.55,0,0,0-1.93.94,2.44,2.44,0,0,0-.43.5,1.66,1.66,0,0,0-.23.49,1,1,0,0,0,0,.45.72.72,0,0,0,.19.38.84.84,0,0,0,.4.26.92.92,0,0,0,.47,0,3.16,3.16,0,0,0,.59-.17l.71-.31c.37-.13.72-.24,1-.32a3.28,3.28,0,0,1,.9-.12,2,2,0,0,1,.81.19,2.3,2.3,0,0,1,.74.56,2.11,2.11,0,0,1,.54,1,2.5,2.5,0,0,1,0,1.12,3.68,3.68,0,0,1-.53,1.12,5.85,5.85,0,0,1-.91,1,5.76,5.76,0,0,1-2.08,1.28l-1.21-1.31a3.8,3.8,0,0,0,2.31-1c.85-.78,1-1.42.59-1.93a.81.81,0,0,0-.44-.26,1.63,1.63,0,0,0-.54,0,3.5,3.5,0,0,0-.63.2l-.76.31a10,10,0,0,1-1,.31,2.93,2.93,0,0,1-.86.08,2,2,0,0,1-.76-.21,2.41,2.41,0,0,1-.69-.54,2,2,0,0,1-.52-1,2.57,2.57,0,0,1,0-1.1,3.87,3.87,0,0,1,.5-1.1A5.19,5.19,0,0,1,103.79,96.33Z"/><path class="cls-7" d="M172.54,43.94l11.41.58c64,6.55,114,61,114,127.12a127.78,127.78,0,0,1-21.69,71.44l-.63.84-40.8-35,1-1.72a74.89,74.89,0,0,0,8.91-35.55c0-38.62-29.05-70.38-66.26-74.19l-6-.31Z"/><path class="cls-8" d="M243.82,96.44l2.5,2.6a4.74,4.74,0,0,1,1.5,2.94,3.33,3.33,0,0,1-1.15,2.67,3.7,3.7,0,0,1-2.86,1.11,4.39,4.39,0,0,1-3-1.53l-1.1-1.14-3.1,3-1.36-1.41ZM244,99l-3.13,3,.88.92a2.81,2.81,0,0,0,1.76,1,2.11,2.11,0,0,0,1.66-.66c1-1,.95-2-.18-3.21Z"/><path class="cls-8" d="M251.12,109.5a4.08,4.08,0,0,1,1,3.16,4.54,4.54,0,0,1-1.89,2.86,4.47,4.47,0,0,1-3.3,1,4.8,4.8,0,0,1-3.91-5,4.32,4.32,0,0,1,1.78-2.85,4.44,4.44,0,0,1,3.38-1.08A4.55,4.55,0,0,1,251.12,109.5Zm-1.29.84a2.19,2.19,0,0,0-1.71-.92,3.22,3.22,0,0,0-2.11.81,3.13,3.13,0,0,0-1.26,1.8,2.24,2.24,0,0,0,.48,1.87,2.1,2.1,0,0,0,1.66.92A3.33,3.33,0,0,0,249,114a3.41,3.41,0,0,0,1.34-1.8A2.11,2.11,0,0,0,249.83,110.34Z"/><path class="cls-8" d="M254.64,114.36l1,1.7-4.47,4.45a3.42,3.42,0,0,1-.57.45l0,.05a3.65,3.65,0,0,1,.71-.26l6.11-1.64.92,1.55-4.5,4.44a4.46,4.46,0,0,1-.57.47l0,.05a3.31,3.31,0,0,1,.69-.27l6-1.84.94,1.57-8.56,2.18-1-1.72,4.15-4.26a3.15,3.15,0,0,1,.58-.48l0,0a2.8,2.8,0,0,1-.7.24l-5.8,1.51-1-1.69Z"/><path class="cls-8" d="M263.58,130.4a3.32,3.32,0,0,1,.08,2.91,4.63,4.63,0,0,1-2.44,2.14l-.68.3-2.35-5.28a2.44,2.44,0,0,0-1.36,1.4,2.7,2.7,0,0,0,.19,2,4.23,4.23,0,0,0,1.76,1.94l-1.42.63a5.78,5.78,0,0,1-1.91-2.5,3.8,3.8,0,0,1-.14-3.15,4.61,4.61,0,0,1,2.53-2.29,4.52,4.52,0,0,1,3.42-.25A3.82,3.82,0,0,1,263.58,130.4Zm-1.3.56a1.86,1.86,0,0,0-1.12-1,2.76,2.76,0,0,0-1.73,0l1.6,3.58a2.47,2.47,0,0,0,1.27-1.1A1.62,1.62,0,0,0,262.28,131Z"/><path class="cls-8" d="M267.27,140a1.67,1.67,0,0,1,.12.8l-1.72.61a1.61,1.61,0,0,0-.08-1,1.72,1.72,0,0,0-1.2-1.09,3.52,3.52,0,0,0-2.16.16l-3.82,1.35-.64-1.81,8-2.82.64,1.81-1.65.58v0a2.9,2.9,0,0,1,1.6.36A1.92,1.92,0,0,1,267.27,140Z"/><path class="cls-8" d="M272.71,147.17l.75,3.69a4.43,4.43,0,0,1-.19,2.82,2.36,2.36,0,0,1-1.72,1.37,2.75,2.75,0,0,1-1.84-.21,3.09,3.09,0,0,1-1.35-1.33h0a3.12,3.12,0,0,1-.5,2.1,2.78,2.78,0,0,1-1.81,1.12,3,3,0,0,1-2.65-.69,4.7,4.7,0,0,1-1.53-2.78l-.76-3.73Zm-1.16,2.23-3.31.68.26,1.24a2.44,2.44,0,0,0,.79,1.49,1.7,1.7,0,0,0,1.46.29c1-.2,1.36-1,1.09-2.29Zm-4.85,1-3.69.75.34,1.65a2.51,2.51,0,0,0,.84,1.56,1.71,1.71,0,0,0,1.49.31c1.21-.25,1.64-1.2,1.3-2.87Z"/><rect class="cls-9" x="262.99" y="158.94" width="11.87" height="2.03" transform="translate(-17.1 33.09) rotate(-6.82)"/><ellipse class="cls-10" cx="102.2" cy="266.38" rx="23.73" ry="24.15"/><path class="cls-8" d="M91.31,267.88v-7.62a1.82,1.82,0,0,1,1.83-1.82h18.13a1.82,1.82,0,0,1,1.83,1.82V270a1.8,1.8,0,0,1-1.83,1.82H102.9v1h8.37a2.79,2.79,0,0,0,2.8-2.77v-9.7a2.79,2.79,0,0,0-2.8-2.78H93.14a2.79,2.79,0,0,0-2.8,2.78v7.62Z"/><path class="cls-8" d="M94.41,273.84H91.7V271h2.71Zm8.27-8.08a.84.84,0,0,0,.82.87h3.82a.84.84,0,0,0,.82-.87v-4a.84.84,0,0,0-.82-.86H103.5a.84.84,0,0,0-.82.86V263h-1.55a1.53,1.53,0,0,0-1.42,1.07l-2.33,7.48a.13.13,0,0,1-.13.1H95.8v-1.3a.86.86,0,0,0-.82-.86H91.16a.84.84,0,0,0-.82.86v4a.82.82,0,0,0,.82.86H95a.83.83,0,0,0,.82-.86v-1.3h1.45a1.54,1.54,0,0,0,1.42-1.06l2.34-7.49c0-.06.06-.1.12-.1h1.55Z"/><ellipse class="cls-10" cx="132.71" cy="60.47" rx="23.73" ry="24.15"/><path class="cls-8" d="M136.13,64.54a.63.63,0,0,0-.91,0l-1.4,1.38a.69.69,0,0,0,0,1l1.4,1.41a.69.69,0,0,0,.91,0l1.4-1.41a.69.69,0,0,0,0-1Z"/><path class="cls-8" d="M139.19,61.21a.75.75,0,0,0-1.1,0l-1.68,1.65a.83.83,0,0,0,0,1.15l1.68,1.69a.83.83,0,0,0,1.1,0L140.87,64a.83.83,0,0,0,0-1.15Z"/><path class="cls-8" d="M128.86,65.31l-1.06-1-.36-.37a.67.67,0,0,1,0-1l1.42-1.39a.64.64,0,0,1,.92,0L131.2,63a.67.67,0,0,1,0,1l-.36.37-1.06,1a.64.64,0,0,1-.92,0M134.14,63l-.46-.46-3.9-3.88a.64.64,0,0,0-.92,0L125,62.49l-.46.46a.69.69,0,0,0,0,1l.46.47,3.9,3.87a.62.62,0,0,0,.92,0l3.9-3.87.46-.47a.69.69,0,0,0,0-1"/><path class="cls-8" d="M136.13,62.36l1.4-1.42a.68.68,0,0,0,0-.95l-1.4-1.38a.63.63,0,0,0-.91,0L133.82,60a.68.68,0,0,0,0,.95l1.4,1.42a.69.69,0,0,0,.91,0"/><path class="cls-8" d="M141.1,66.82h-.45V66h.45a1.74,1.74,0,0,0,1.73-1.74V55a1.71,1.71,0,0,0-1.73-1.71H124.28A1.71,1.71,0,0,0,122.56,55v9.18A1.74,1.74,0,0,0,124.28,66h.45v.87h-.45a2.58,2.58,0,0,1-2.59-2.61V55a2.59,2.59,0,0,1,2.59-2.61H141.1A2.63,2.63,0,0,1,143.73,55v9.18a2.61,2.61,0,0,1-2.63,2.61"/><circle class="cls-10" cx="283.96" cy="204.52" r="24.15"/><path class="cls-8" d="M292,210.88h-.46V210H292a1.72,1.72,0,0,0,1.71-1.73v-9.16a1.73,1.73,0,0,0-1.71-1.73H275.13a1.73,1.73,0,0,0-1.72,1.73v9.16a1.72,1.72,0,0,0,1.72,1.73h.42v.9h-.42a2.62,2.62,0,0,1-2.61-2.63v-9.16a2.61,2.61,0,0,1,2.61-2.62H292a2.61,2.61,0,0,1,2.6,2.62v9.16a2.62,2.62,0,0,1-2.6,2.63"/><path class="cls-8" d="M278.05,213.42a1.32,1.32,0,0,1-1.29-1.37v-3.2a1.32,1.32,0,0,1,1.29-1.36h0a1.28,1.28,0,0,1,1.25,1.36v3.2A1.29,1.29,0,0,1,278.05,213.42Z"/><path class="cls-8" d="M282.29,213.42a1.28,1.28,0,0,1-1.29-1.27v-7.6a1.3,1.3,0,0,1,1.29-1.3,1.27,1.27,0,0,1,1.25,1.3v7.6a1.25,1.25,0,0,1-1.25,1.27"/><path class="cls-8" d="M289.91,213.42a1.29,1.29,0,0,1-1.29-1.3v-11a1.28,1.28,0,1,1,2.55,0v11a1.28,1.28,0,0,1-1.26,1.3"/><path class="cls-8" d="M285.67,213.42a1.29,1.29,0,0,1-1.28-1.31v-5.82a1.27,1.27,0,1,1,2.54,0v5.82a1.27,1.27,0,0,1-1.26,1.31"/><text class="cls-11" transform="translate(149.61 177.83)">Azure</text><path class="cls-1" d="M173.38,349.43h0a1.27,1.27,0,1,1-2.54,0h0a1.27,1.27,0,0,1,2.54,0Zm0-5.09h0a1.27,1.27,0,1,1-2.54,0h0a1.27,1.27,0,0,1,2.54,0Zm0-5.08h0a1.27,1.27,0,1,1-2.54,0h0a1.27,1.27,0,0,1,2.54,0Zm0-5.09h0a1.27,1.27,0,1,1-2.54,0h0a1.27,1.27,0,0,1,2.54,0Zm0-5.09h0a1.27,1.27,0,0,1-2.54,0h0a1.27,1.27,0,0,1,2.54,0Z"/><text class="cls-12" transform="translate(74.05 366.79)">Common Data Service for Apps and</text><text class="cls-13" transform="translate(126.84 381.2)">Data Connectors</text></svg>