<svg xmlns="http://www.w3.org/2000/svg" viewBox="0 0 859 581.9"><defs><style>.cls-1,.cls-12{fill:#ffbe9d;}.cls-1{opacity:0.25;}.cls-2{fill:#f5f5f5;}.cls-3{fill:#e0e0e0;}.cls-4{fill:#ebebeb;}.cls-5{fill:#263238;}.cls-6{fill:#e8505b;}.cls-7{opacity:0.2;}.cls-8{fill:#fafafa;}.cls-9{fill:#455a64;}.cls-10{fill:#fff;}.cls-11{fill:none;}.cls-13{fill:#eb996e;}</style></defs><title>09</title><g id="Background_Simple" data-name="Background Simple"><path class="cls-1" d="M922.17,96.81C881.63,41.48,810.11,7,742.86,20.53,654,38.43,597.44,128.26,513.32,162c-82.81,33.18-176.81,6.79-265.4,17.34-38.6,4.59-78.22,17.52-104.18,46.46-25,27.9-34,67.09-33.79,104.57.53,102.75,72,221.47,167.72,258.72l15.7,2.74c85.79,10.87,268.75,9.79,354.62-.46s191-68.9,247.84-134.08c39.79-45.62,63-104.38,70.56-164.45C974.9,224.72,962.72,152.15,922.17,96.81Z" transform="translate(-109.95 -17.58)"/></g><g id="Character"><rect class="cls-2" x="243.59" y="77.76" width="64.07" height="87.67"/><rect class="cls-3" x="227.35" y="88.8" width="64.07" height="87.67"/><path class="cls-4" d="M703.34,226.27l-.41,0h-1.24l-4.83,0-18.1.07-62.47.09h-.17l0-.16a15.51,15.51,0,0,1,15.31-19.87l-.23.3a13.1,13.1,0,0,1-.48-4.19,13.83,13.83,0,0,1,7.15-11.66,14.19,14.19,0,0,1,13.24.07l-.33.12a20.62,20.62,0,0,1,12.13-11.29,19.33,19.33,0,0,1,15.37.72,21,21,0,0,1,9.51,10.4,19.83,19.83,0,0,1,1.17,12.46l-.17-.2a14.8,14.8,0,0,1,7.23,1,15,15,0,0,1,5.36,3.67,9.58,9.58,0,0,1,1.69,2.43,13.36,13.36,0,0,1,.9,2.57,22.6,22.6,0,0,1,.62,4.7,26.84,26.84,0,0,1-.56,6.5,16.24,16.24,0,0,1-.45,1.63c-.13.37-.2.54-.2.54" transform="translate(-109.95 -17.58)"/><path class="cls-4" d="M869.92,184.6a16,16,0,1,0,18.54,16.86h0l4.38-.73,2.34-4.92,3.41,4,5.49-.91,2.33-4.92,3.42,4,4.71-.79,1.43-3,2.08,2.42,2.74-.46,3-4-5.17-5.68L886,191.83A16,16,0,0,0,869.92,184.6ZM861,202.26a4.58,4.58,0,1,1,5.27,3.77A4.58,4.58,0,0,1,861,202.26Z" transform="translate(-109.95 -17.58)"/><path class="cls-4" d="M853.73,306.6l2,36.16a2.44,2.44,0,0,0,2.42,2.31l65.06.48a2.45,2.45,0,0,0,2.46-2.43l.21-28.14a2.44,2.44,0,0,0-2.44-2.46l-40,0a2.44,2.44,0,0,1-1.73-.71l-6.9-6.9a2.46,2.46,0,0,0-1.71-.72L856.18,304A2.43,2.43,0,0,0,853.73,306.6Z" transform="translate(-109.95 -17.58)"/><rect class="cls-2" x="854.64" y="308" width="71.09" height="42.48" transform="matrix(1, 0.01, -0.01, 1, -107.52, -24.1)"/><path class="cls-4" d="M849.12,311.51l5.1,44.34a1.56,1.56,0,0,0,1.55,1.39l69.28.51a1.56,1.56,0,0,0,1.57-1.43L930.44,312a1.58,1.58,0,0,0-1.56-1.7l-78.19-.57A1.56,1.56,0,0,0,849.12,311.51Z" transform="translate(-109.95 -17.58)"/><path class="cls-4" d="M845.51,506.25c-16.49-11.52-20.23-32.91-19.58-52.14.11-3.2-.24-6.59,1.29-9.4s5.08-4.74,8-3.39c2.38,1.12,3.42,3.89,4.75,6.19a18.78,18.78,0,0,0,7.53,7.18c2,1.06,4.57,1.71,6.59.6,2.77-1.53,3.09-5.35,3.07-8.54q0-8.92-.11-17.85c0-3.19,0-6.45,1-9.48s3.19-5.84,6.23-6.69,6.79.9,7.43,4a29.28,29.28,0,0,1,.09,4c.09,1.32.71,2.79,2,3.16s2.56-.54,3.51-1.47c3.29-3.22,5.53-7.37,7.62-11.5s4.12-8.36,7.11-11.87,7.12-6.3,11.69-6.56,9.44,2.56,10.6,7.05-1.47,9.06-4.33,12.71a71.28,71.28,0,0,1-14.83,14.14,5.79,5.79,0,0,0-2.48,2.66c-.7,2.13,1.32,4.25,3.42,4.94,2.38.8,5,.55,7.45.84s5.19,1.39,6.13,3.75c1.3,3.26-1.42,6.68-4.11,8.92a60.83,60.83,0,0,1-18.06,10.42c-2.35.86-4.82,1.62-6.71,3.27s-3,4.52-1.9,6.76,4.09,3,6.54,2.52,4.66-1.79,7-2.68c4.38-1.65,10-1.35,12.86,2.44a10.07,10.07,0,0,1,1.07,8.93,23.25,23.25,0,0,1-4.83,7.89,61.36,61.36,0,0,1-26.21,18.42c-10.17,3.52-19.6,4.48-29.72.78" transform="translate(-109.95 -17.58)"/><path class="cls-3" d="M845.26,520.5a140.3,140.3,0,0,1,5.22-26.3,285.87,285.87,0,0,1,11.35-30.79c1.14-2.68,2.28-5.32,3.39-7.92s2.23-5.17,3.47-7.62a140.54,140.54,0,0,1,7.94-13.68c2.73-4.23,5.48-8.14,8.08-11.78s5.1-7,7.5-9.93a113.65,113.65,0,0,1,12.36-13.07c1.57-1.42,2.83-2.48,3.69-3.19l1-.8a1.78,1.78,0,0,1,.35-.26,2.87,2.87,0,0,1-.31.3l-.95.85c-.84.74-2.07,1.83-3.62,3.27a121.05,121.05,0,0,0-12.19,13.16c-2.38,3-4.84,6.31-7.43,9.95s-5.31,7.57-8,11.8a143.25,143.25,0,0,0-7.88,13.64c-1.23,2.44-2.32,5-3.44,7.59l-3.39,7.92A292.12,292.12,0,0,0,851,494.35a142.65,142.65,0,0,0-5.31,26.19" transform="translate(-109.95 -17.58)"/><path class="cls-3" d="M868.86,447.84a6.2,6.2,0,0,1-.31-1.36c-.17-.88-.37-2.16-.6-3.75-.45-3.18-.92-7.59-1.43-12.46s-1-9.25-1.53-12.42c-.25-1.58-.46-2.86-.61-3.74a5.83,5.83,0,0,1-.18-1.38,6.1,6.1,0,0,1,.4,1.33c.22.87.5,2.14.8,3.72.6,3.16,1.2,7.56,1.71,12.43s.92,9.14,1.26,12.46c.16,1.5.29,2.76.4,3.78A6.89,6.89,0,0,1,868.86,447.84Z" transform="translate(-109.95 -17.58)"/><path class="cls-3" d="M909.89,440.17a8.88,8.88,0,0,1-1.63.2c-1.06.09-2.58.22-4.46.44-3.76.4-8.93,1.15-14.6,2.21s-10.76,2.28-14.42,3.25c-1.83.47-3.3.89-4.32,1.18a8.54,8.54,0,0,1-1.6.39,8.61,8.61,0,0,1,1.53-.61c1-.36,2.46-.84,4.28-1.37,3.64-1.07,8.74-2.34,14.42-3.42a145.38,145.38,0,0,1,14.67-2.05c1.89-.16,3.43-.23,4.49-.25A8.67,8.67,0,0,1,909.89,440.17Z" transform="translate(-109.95 -17.58)"/><path class="cls-3" d="M851,493.44a2.07,2.07,0,0,1-.28-.5l-.7-1.48c-.6-1.29-1.43-3.19-2.42-5.54-2-4.7-4.51-11.28-7.2-18.58s-5.16-13.89-7-18.63c-.92-2.3-1.68-4.19-2.24-5.6-.25-.61-.44-1.11-.61-1.53a2,2,0,0,1-.17-.55,1.93,1.93,0,0,1,.28.5l.7,1.49c.61,1.29,1.43,3.18,2.42,5.53,2,4.7,4.51,11.28,7.21,18.58s5.16,13.9,7,18.63c.92,2.3,1.67,4.2,2.24,5.61l.6,1.52A2.23,2.23,0,0,1,851,493.44Z" transform="translate(-109.95 -17.58)"/><path class="cls-3" d="M905.51,475.87a2.28,2.28,0,0,1-.54.22l-1.58.53-5.84,1.89c-4.93,1.6-11.72,3.89-19.21,6.43S864,489.7,859.07,491.2c-2.48.75-4.5,1.33-5.9,1.71l-1.61.43a1.9,1.9,0,0,1-.58.1,2.57,2.57,0,0,1,.54-.22l1.59-.53L859,490.8c4.93-1.6,11.71-3.89,19.21-6.43s14.3-4.76,19.27-6.26c2.48-.75,4.49-1.33,5.89-1.71l1.62-.42A2.25,2.25,0,0,1,905.51,475.87Z" transform="translate(-109.95 -17.58)"/><path class="cls-5" d="M912.61,520.54c0,.16-152.47.28-340.51.28s-340.54-.12-340.54-.28,152.44-.27,340.54-.27S912.61,520.39,912.61,520.54Z" transform="translate(-109.95 -17.58)"/><path class="cls-6" d="M834.06,483.52c1.85,2.38,5.17,1.4,6.65-.19s2-3.8,2.52-5.91c1.13-4.83,2.26-9.89,1-14.69a8.16,8.16,0,0,0-2.07-3.87,4.25,4.25,0,0,0-4.08-1.13c-1.67.53-2.64,2.24-3.32,3.86a34.89,34.89,0,0,0-2.69,15.1,12.09,12.09,0,0,0,2,6.83" transform="translate(-109.95 -17.58)"/><g class="cls-7"><path d="M834.06,483.52c1.85,2.38,5.17,1.4,6.65-.19s2-3.8,2.52-5.91c1.13-4.83,2.26-9.89,1-14.69a8.16,8.16,0,0,0-2.07-3.87,4.25,4.25,0,0,0-4.08-1.13c-1.67.53-2.64,2.24-3.32,3.86a34.89,34.89,0,0,0-2.69,15.1,12.09,12.09,0,0,0,2,6.83" transform="translate(-109.95 -17.58)"/></g><path class="cls-6" d="M841.16,495.7a15,15,0,0,1,9.24-1.6,7.74,7.74,0,0,1,4.69,1.81c1.21,1.21,1.54,3.43.28,4.59a4.44,4.44,0,0,1-2.85.88c-2.46.09-5.21-.2-7.1,1.37-1.08.9-1.75,2.34-3.07,2.83a3.17,3.17,0,0,1-3.56-1.38,5.41,5.41,0,0,1-.59-4A6.08,6.08,0,0,1,841.16,495.7Z" transform="translate(-109.95 -17.58)"/><path class="cls-6" d="M829.49,487.3a9,9,0,0,0,1-8.33,16,16,0,0,0-5.26-6.86,26.45,26.45,0,0,0-9-4.73,9.51,9.51,0,0,0-4-.47,4.16,4.16,0,0,0-3.21,2.17c-.83,1.81.16,3.9,1.2,5.59a67.79,67.79,0,0,0,6.21,8.48c1.83,2.14,3.92,4.23,6.6,5.1s5.41.62,6.71-1.27" transform="translate(-109.95 -17.58)"/><path class="cls-5" d="M835.82,520.77a5.26,5.26,0,0,0,.1-1.13c0-.82.09-1.85.14-3.08a43.24,43.24,0,0,1,.47-4.52,33.78,33.78,0,0,1,1.36-5.39,19.75,19.75,0,0,1,2.46-4.93,10.31,10.31,0,0,1,3.28-3,9.72,9.72,0,0,1,2.84-1,5.59,5.59,0,0,0,1.11-.22,6.16,6.16,0,0,0-1.14,0,8.88,8.88,0,0,0-3,.94,10,10,0,0,0-3.46,3.05,19,19,0,0,0-2.56,5A33.49,33.49,0,0,0,836.1,512a37.44,37.44,0,0,0-.36,4.58c0,1.3,0,2.36,0,3.09A5.46,5.46,0,0,0,835.82,520.77Z" transform="translate(-109.95 -17.58)"/><path class="cls-5" d="M835.91,518.4a1.89,1.89,0,0,0,0-.52c0-.39,0-.89-.08-1.49-.07-1.29-.17-3.16-.21-5.47-.12-4.62,0-11,.37-18.06s1.12-13.4,1.83-18c.16-1.14.33-2.18.5-3.08s.28-1.69.42-2.32L839,468a2.89,2.89,0,0,0,.07-.52,2.1,2.1,0,0,0-.16.5q-.13.57-.36,1.44c-.16.63-.32,1.41-.5,2.31s-.38,1.93-.57,3.08a169,169,0,0,0-2,18c-.41,7.06-.43,13.47-.23,18.1.09,2.31.23,4.18.36,5.47.06.61.12,1.1.16,1.49A3.43,3.43,0,0,0,835.91,518.4Z" transform="translate(-109.95 -17.58)"/><path class="cls-5" d="M835.32,506.07a10,10,0,0,0-.09-1.55c-.11-1-.32-2.44-.69-4.19a56.55,56.55,0,0,0-1.68-6.07,55.22,55.22,0,0,0-2.93-7.13,39,39,0,0,0-8.13-11.36,19,19,0,0,0-1.86-1.55c-.28-.22-.53-.44-.79-.61l-.71-.44a10.85,10.85,0,0,0-1.35-.77,46.46,46.46,0,0,1,4.48,3.61,40.75,40.75,0,0,1,7.94,11.32,58.48,58.48,0,0,1,3,7.07c.78,2.22,1.34,4.27,1.76,6s.67,3.16.83,4.14A9.74,9.74,0,0,0,835.32,506.07Z" transform="translate(-109.95 -17.58)"/><rect class="cls-8" x="105.29" y="264.91" width="119.9" height="80.3"/><path class="cls-5" d="M302.58,331.19h-3.2V312a8.37,8.37,0,0,0-16.74,0v19.22h-3.2V312a11.57,11.57,0,1,1,23.14,0Z" transform="translate(-109.95 -17.58)"/><rect class="cls-5" x="165.24" y="305.06" width="31.63" height="20.29" rx="3.6"/><path class="cls-9" d="M291,332.79a2.65,2.65,0,1,1,2.64-2.65,2.65,2.65,0,0,1-2.64,2.65" transform="translate(-109.95 -17.58)"/><rect class="cls-9" x="180.34" y="313.61" width="1.44" height="5.44"/><path class="cls-6" d="M274.41,331A12.78,12.78,0,0,0,282,319.12c0-7.07-5.32-12.83-11.95-12.86s-12,5.68-12.06,12.75A12.78,12.78,0,0,0,265.67,331C247.2,333.74,248,353.82,248,353.82l43.68.2S292.72,333.73,274.41,331Z" transform="translate(-109.95 -17.58)"/><path class="cls-5" d="M335.14,362.79s0-.51,0-1.47,0-2.39,0-4.24c0-3.72,0-9.17-.06-16.15,0-14-.07-34-.12-58.44l.22.22-119.88.05h0l.27-.27c0,28.61,0,55.81,0,80.3l-.25-.25,86.36.12,24.68.07,6.57,0,1.7,0h.58l-.55,0h-1.67l-6.52,0-24.63.07-86.52.12H215v-.25c0-24.49,0-51.69,0-80.3v-.28h.29l119.88.06h.22v.22c0,24.49-.08,44.59-.11,58.57,0,7,0,12.4-.06,16.11,0,1.83,0,3.24,0,4.2S335.14,362.79,335.14,362.79Z" transform="translate(-109.95 -17.58)"/><path class="cls-5" d="M335.12,292.13c0,.16-26.83.28-59.91.28s-59.91-.12-59.91-.28,26.82-.27,59.91-.27S335.12,292,335.12,292.13Z" transform="translate(-109.95 -17.58)"/><path class="cls-5" d="M223.14,287.32a1.24,1.24,0,1,1-1.24-1.24A1.24,1.24,0,0,1,223.14,287.32Z" transform="translate(-109.95 -17.58)"/><path class="cls-5" d="M227.2,287.32a1.24,1.24,0,1,1-1.24-1.24A1.24,1.24,0,0,1,227.2,287.32Z" transform="translate(-109.95 -17.58)"/><path class="cls-5" d="M231.56,287.32a1.24,1.24,0,1,1-1.24-1.24A1.24,1.24,0,0,1,231.56,287.32Z" transform="translate(-109.95 -17.58)"/><path class="cls-5" d="M335.14,362.79s0-.51,0-1.47,0-2.39,0-4.24c0-3.72,0-9.17-.06-16.15,0-14-.07-34-.12-58.44l.22.22-119.88.05h0l.27-.27c0,28.61,0,55.81,0,80.3l-.25-.25,86.36.12,24.68.07,6.57,0,1.7,0h.58l-.55,0h-1.67l-6.52,0-24.63.07-86.52.12H215v-.25c0-24.49,0-51.69,0-80.3v-.28h.29l119.88.06h.22v.22c0,24.49-.08,44.59-.11,58.57,0,7,0,12.4-.06,16.11,0,1.83,0,3.24,0,4.2S335.14,362.79,335.14,362.79Z" transform="translate(-109.95 -17.58)"/><path class="cls-5" d="M274.42,365.44c-.15,0-.28-.59-.28-1.32s.13-1.33.28-1.33.28.59.28,1.33S274.57,365.44,274.42,365.44Z" transform="translate(-109.95 -17.58)"/><path class="cls-5" d="M274.42,377a15.16,15.16,0,0,1,0-5.8,15.16,15.16,0,0,1,0,5.8Z" transform="translate(-109.95 -17.58)"/><path class="cls-5" d="M274.42,388.65a15.16,15.16,0,0,1,0-5.8,15.16,15.16,0,0,1,0,5.8Z" transform="translate(-109.95 -17.58)"/><path class="cls-5" d="M274.42,400.25a15.16,15.16,0,0,1,0-5.8,15.16,15.16,0,0,1,0,5.8Z" transform="translate(-109.95 -17.58)"/><path class="cls-5" d="M274.42,411.85a15.16,15.16,0,0,1,0-5.8,15.16,15.16,0,0,1,0,5.8Z" transform="translate(-109.95 -17.58)"/><path class="cls-5" d="M277.07,420.3a6.38,6.38,0,0,1-2.65.28l-.28-.28h0v-.52l0-.5c0-.31,0-.6.06-.84,0-.48.11-.78.19-.78s.15.3.2.78c0,.24,0,.53.06.84v1h0c-.13-.12.27.28-.28-.27A6.69,6.69,0,0,1,277.07,420.3Z" transform="translate(-109.95 -17.58)"/><path class="cls-5" d="M287.49,420.3a6.16,6.16,0,0,1-2.6.28,6.23,6.23,0,0,1-2.61-.28,6.53,6.53,0,0,1,2.61-.27A6.46,6.46,0,0,1,287.49,420.3Z" transform="translate(-109.95 -17.58)"/><path class="cls-5" d="M297.91,420.3a6.16,6.16,0,0,1-2.6.28,6.23,6.23,0,0,1-2.61-.28,6.53,6.53,0,0,1,2.61-.27A6.46,6.46,0,0,1,297.91,420.3Z" transform="translate(-109.95 -17.58)"/><path class="cls-5" d="M308.34,420.3a6.23,6.23,0,0,1-2.61.28,6.16,6.16,0,0,1-2.6-.28,6.46,6.46,0,0,1,2.6-.27A6.53,6.53,0,0,1,308.34,420.3Z" transform="translate(-109.95 -17.58)"/><path class="cls-5" d="M318.76,420.3a6.23,6.23,0,0,1-2.61.28,6.16,6.16,0,0,1-2.6-.28,6.46,6.46,0,0,1,2.6-.27A6.53,6.53,0,0,1,318.76,420.3Z" transform="translate(-109.95 -17.58)"/><path class="cls-5" d="M329.18,420.3a6.23,6.23,0,0,1-2.61.28,6.16,6.16,0,0,1-2.6-.28,6.46,6.46,0,0,1,2.6-.27A6.53,6.53,0,0,1,329.18,420.3Z" transform="translate(-109.95 -17.58)"/><path class="cls-5" d="M339.6,420.3a12.26,12.26,0,0,1-5.21,0,12.7,12.7,0,0,1,5.21,0Z" transform="translate(-109.95 -17.58)"/><path class="cls-5" d="M350,420.3a12.26,12.26,0,0,1-5.21,0,12.7,12.7,0,0,1,5.21,0Z" transform="translate(-109.95 -17.58)"/><path class="cls-5" d="M360.44,420.3a6.16,6.16,0,0,1-2.6.28,6.23,6.23,0,0,1-2.61-.28,6.53,6.53,0,0,1,2.61-.27A6.46,6.46,0,0,1,360.44,420.3Z" transform="translate(-109.95 -17.58)"/><path class="cls-5" d="M370.86,420.3a6.16,6.16,0,0,1-2.6.28,6.23,6.23,0,0,1-2.61-.28,6.53,6.53,0,0,1,2.61-.27A6.46,6.46,0,0,1,370.86,420.3Z" transform="translate(-109.95 -17.58)"/><path class="cls-5" d="M381.29,420.3a12.3,12.3,0,0,1-5.22,0,12.75,12.75,0,0,1,5.22,0Z" transform="translate(-109.95 -17.58)"/><path class="cls-5" d="M389.15,420.3c0,.16-.6.28-1.33.28s-1.32-.12-1.32-.28.59-.27,1.32-.27S389.15,420.15,389.15,420.3Z" transform="translate(-109.95 -17.58)"/><rect class="cls-10" x="216.37" y="102.26" width="64.07" height="87.67"/><path class="cls-5" d="M390.43,207.49s0-.15,0-.43,0-.71,0-1.24c0-1.11,0-2.71,0-4.79,0-4.2-.05-10.3-.09-18,0-15.43-.11-37.31-.19-63.2l.29.29-64.06.08h0l.32-.32c0,32.74,0,63.06,0,87.67l-.26-.26,46.52.1,12.95.06,3.41,0,1.19,0-1.13,0-3.37,0-12.89.07-46.68.17h-.26v-.26c0-24.61-.08-54.93-.13-87.67v-.32h.33l64.06,0h.29v.29c0,26-.07,47.91-.09,63.39,0,7.69-.05,13.76-.07,17.94q0,3.09,0,4.74c0,.52,0,.91,0,1.21S390.43,207.5,390.43,207.49Z" transform="translate(-109.95 -17.58)"/><path class="cls-5" d="M365.49,137.46c0,.18-7,.32-15.57.33s-15.57-.13-15.57-.31,7-.32,15.57-.33S365.49,137.28,365.49,137.46Z" transform="translate(-109.95 -17.58)"/><path class="cls-5" d="M382.33,145.07c0,.17-10.74.32-24,.33s-24-.12-24-.3,10.74-.33,24-.34S382.33,144.89,382.33,145.07Z" transform="translate(-109.95 -17.58)"/><path class="cls-5" d="M382.34,153c0,.18-10.74.33-24,.34s-24-.13-24-.3,10.73-.33,24-.34S382.34,152.84,382.34,153Z" transform="translate(-109.95 -17.58)"/><path class="cls-5" d="M382.35,161c0,.18-10.74.33-24,.34s-24-.13-24-.3,10.74-.33,24-.34S382.35,160.78,382.35,161Z" transform="translate(-109.95 -17.58)"/><path class="cls-5" d="M382.35,168.91c0,.18-10.74.33-24,.34s-24-.13-24-.31,10.73-.32,24-.33S382.35,168.73,382.35,168.91Z" transform="translate(-109.95 -17.58)"/><path class="cls-5" d="M382.36,176.86c0,.17-10.74.32-24,.33s-24-.12-24-.3,10.74-.33,24-.34S382.36,176.68,382.36,176.86Z" transform="translate(-109.95 -17.58)"/><path class="cls-5" d="M382.36,184.8c0,.18-10.74.33-24,.34s-24-.12-24-.3,10.74-.33,24-.34S382.36,184.63,382.36,184.8Z" transform="translate(-109.95 -17.58)"/><path class="cls-5" d="M360.18,192.77c0,.18-5.77.32-12.89.33s-12.9-.14-12.9-.31,5.78-.33,12.9-.33S360.18,192.59,360.18,192.77Z" transform="translate(-109.95 -17.58)"/><circle class="cls-6" cx="274.87" cy="183.27" r="13.01"/><path class="cls-3" d="M392.29,195.84c.55.52-2,4.16-5.71,8.13-.6.64-1.19,1.25-1.75,1.81l-.9.89-.89-.75c-3.24-2.72-5.36-5-5-5.56s3.17,1,6.6,3.45l-1.79.14c.52-.59,1.08-1.22,1.68-1.86C388.27,198.11,391.73,195.32,392.29,195.84Z" transform="translate(-109.95 -17.58)"/><path class="cls-5" d="M353.51,212.3a13.19,13.19,0,0,1,0-5.31,12.73,12.73,0,0,1,0,5.31Z" transform="translate(-109.95 -17.58)"/><path class="cls-5" d="M353.51,222.9a13.14,13.14,0,0,1,0-5.3,12.68,12.68,0,0,1,0,5.3Z" transform="translate(-109.95 -17.58)"/><path class="cls-5" d="M353.51,233.51a13.19,13.19,0,0,1,0-5.31,12.73,12.73,0,0,1,0,5.31Z" transform="translate(-109.95 -17.58)"/><path class="cls-5" d="M353.51,244.11a13.14,13.14,0,0,1,0-5.3,12.68,12.68,0,0,1,0,5.3Z" transform="translate(-109.95 -17.58)"/><path class="cls-5" d="M353.51,254.72a13.19,13.19,0,0,1,0-5.31,12.73,12.73,0,0,1,0,5.31Z" transform="translate(-109.95 -17.58)"/><path class="cls-5" d="M353.51,265.32a13.14,13.14,0,0,1,0-5.3,12.68,12.68,0,0,1,0,5.3Z" transform="translate(-109.95 -17.58)"/><path class="cls-5" d="M353.51,275.93a13.19,13.19,0,0,1,0-5.31,12.73,12.73,0,0,1,0,5.31Z" transform="translate(-109.95 -17.58)"/><path class="cls-5" d="M353.51,286.53a13.14,13.14,0,0,1,0-5.3,12.68,12.68,0,0,1,0,5.3Z" transform="translate(-109.95 -17.58)"/><path class="cls-5" d="M358.63,292a6.73,6.73,0,0,1-2.65.27,12.86,12.86,0,0,1-2.47-.17l-.12,0,0-.07c0-.12.07-.19.1-.19s.07.07.1.19l-.1-.1a12.62,12.62,0,0,1,2.47-.18A6.62,6.62,0,0,1,358.63,292Z" transform="translate(-109.95 -17.58)"/><path class="cls-5" d="M369.23,292a13.14,13.14,0,0,1-5.3,0,12.68,12.68,0,0,1,5.3,0Z" transform="translate(-109.95 -17.58)"/><path class="cls-5" d="M379.84,292a13.14,13.14,0,0,1-5.3,0,12.68,12.68,0,0,1,5.3,0Z" transform="translate(-109.95 -17.58)"/><path class="cls-5" d="M390.44,292a13.14,13.14,0,0,1-5.3,0,12.68,12.68,0,0,1,5.3,0Z" transform="translate(-109.95 -17.58)"/><path class="cls-5" d="M401.05,292a13.14,13.14,0,0,1-5.3,0,12.68,12.68,0,0,1,5.3,0Z" transform="translate(-109.95 -17.58)"/><path class="cls-5" d="M577.68,196.09a12.68,12.68,0,0,1,0-5.3,13.14,13.14,0,0,1,0,5.3Z" transform="translate(-109.95 -17.58)"/><path class="cls-5" d="M577.68,206.69a12.68,12.68,0,0,1,0-5.3,13.14,13.14,0,0,1,0,5.3Z" transform="translate(-109.95 -17.58)"/><path class="cls-5" d="M577.68,217.29a12.68,12.68,0,0,1,0-5.3,13.14,13.14,0,0,1,0,5.3Z" transform="translate(-109.95 -17.58)"/><path class="cls-5" d="M577.68,227.89a12.68,12.68,0,0,1,0-5.3,13.14,13.14,0,0,1,0,5.3Z" transform="translate(-109.95 -17.58)"/><path class="cls-5" d="M577.68,238.5a12.73,12.73,0,0,1,0-5.31,13.19,13.19,0,0,1,0,5.31Z" transform="translate(-109.95 -17.58)"/><path class="cls-5" d="M577.68,249.11a12.68,12.68,0,0,1,0-5.3,13.14,13.14,0,0,1,0,5.3Z" transform="translate(-109.95 -17.58)"/><path class="cls-5" d="M577.68,259.72a12.73,12.73,0,0,1,0-5.31,13.19,13.19,0,0,1,0,5.31Z" transform="translate(-109.95 -17.58)"/><path class="cls-5" d="M577.68,270.32a12.68,12.68,0,0,1,0-5.3,13.14,13.14,0,0,1,0,5.3Z" transform="translate(-109.95 -17.58)"/><path class="cls-6" d="M649.7,202.89s-.21,0-.63,0l-1.87,0-7.31.05-27.41.1-94.58.14h-.26l-.07-.24a23.49,23.49,0,0,1,23.19-30.09l-.35.45a19.74,19.74,0,0,1-.73-6.35c.29-7.31,4.44-14.37,10.83-17.64a21.4,21.4,0,0,1,20,.11l-.49.17a31.17,31.17,0,0,1,18.36-17.09c7.8-2.84,16.46-2.47,23.26,1.09a31.77,31.77,0,0,1,14.41,15.74,30,30,0,0,1,1.77,18.87l-.26-.3a23,23,0,0,1,19.07,7.14,14.42,14.42,0,0,1,2.56,3.66,20.15,20.15,0,0,1,1.36,3.9,34.14,34.14,0,0,1,.93,7.11,40.3,40.3,0,0,1-.85,9.84,20.13,20.13,0,0,1-.68,2.48c-.19.55-.29.81-.29.81" transform="translate(-109.95 -17.58)"/><path class="cls-3" d="M637.7,166.57h-4.09V142a10.7,10.7,0,0,0-21.4,0v24.56h-4.08V142a14.79,14.79,0,1,1,29.57,0Z" transform="translate(-109.95 -17.58)"/><rect class="cls-3" x="492.75" y="138.06" width="40.42" height="25.93" rx="3.6"/><path class="cls-9" d="M622.91,168.61a3.38,3.38,0,1,1,3.38-3.38,3.37,3.37,0,0,1-3.38,3.38" transform="translate(-109.95 -17.58)"/><rect class="cls-9" x="512.04" y="148.99" width="1.84" height="6.95"/><path class="cls-5" d="M871.48,158.42a22.12,22.12,0,1,0-34.32-5.25l-4.5,4.2,1.08,7.47-7-2-5.63,5.25,1.08,7.47-7-1.95-4.84,4.51.65,4.55-4.25-1.19L804,184.15l-.42,6.92,10.32,2.59,33.47-31.23A22.13,22.13,0,0,0,871.48,158.42Zm-3.27-27.2a6.35,6.35,0,1,1-9-.31A6.35,6.35,0,0,1,868.21,131.22Z" transform="translate(-109.95 -17.58)"/><path class="cls-11" d="M871.48,158.42a22.12,22.12,0,1,0-34.32-5.25l-4.5,4.2,1.08,7.47-7-2-5.63,5.25,1.08,7.47-7-1.95-4.84,4.51.65,4.55-4.25-1.19L804,184.15l-.42,6.92,10.32,2.59,33.47-31.23A22.13,22.13,0,0,0,871.48,158.42Zm-3.27-27.2a6.35,6.35,0,1,1-9-.31A6.35,6.35,0,0,1,868.21,131.22Z" transform="translate(-109.95 -17.58)"/><path class="cls-5" d="M868.21,131.22c0,.05-.42-.38-1.26-.9a6.31,6.31,0,0,0-4-.88,6.11,6.11,0,1,0,6.67,7.15,6.27,6.27,0,0,0-.6-4.05c-.46-.88-.86-1.28-.81-1.32s.11.08.3.28a4.81,4.81,0,0,1,.7.94,6.3,6.3,0,0,1,.8,4.21,6.53,6.53,0,0,1-7.67,5.39,6.54,6.54,0,0,1-5.33-5.71,6.43,6.43,0,0,1,.69-3.78,6.51,6.51,0,0,1,5.22-3.5,6.28,6.28,0,0,1,4.14,1.09,4.44,4.44,0,0,1,.89.76A1.57,1.57,0,0,1,868.21,131.22Z" transform="translate(-109.95 -17.58)"/><path class="cls-5" d="M871.48,158.42s-.1.11-.32.31l-1,.86a22.13,22.13,0,0,1-22.92,3l.19,0L814,193.84l-.09.1-.14,0-10.32-2.58-.2-.06v-.21c.13-2.16.27-4.52.42-6.92V184l.08-.07,2.81-2.63.11-.11.15,0,4.25,1.19-.33.3c-.21-1.42-.43-3-.66-4.55l0-.14.1-.1,4.84-4.51.11-.11.15,0,7,2-.34.3-1.08-7.47,0-.14.11-.1,1.49-1.39,4.14-3.86.11-.11.15.05,7,1.95-.34.31c-.37-2.52-.72-5-1.08-7.47l0-.14.11-.1L837,153l-.05.34a22.53,22.53,0,0,1-2.88-10.07,21.29,21.29,0,0,1,.37-5.12,21.8,21.8,0,0,1,1.47-4.81,22.32,22.32,0,0,1,40.48-.93,22.28,22.28,0,0,1-.3,20.13l-.41.78-.46.71c-.3.44-.55.88-.84,1.25-.59.72-1.05,1.37-1.5,1.81l-1,1-.35.33s.1-.13.32-.37l1-1.05c.43-.46.88-1.11,1.46-1.83.28-.37.52-.81.81-1.26l.44-.7.4-.79a21.93,21.93,0,1,0-39.54-18.91,21.66,21.66,0,0,0-1.43,4.7,20.88,20.88,0,0,0-.35,5A22,22,0,0,0,837.4,153l.1.19-.15.14q-2.24,2.07-4.5,4.2l.08-.24q.54,3.69,1.08,7.47l.06.42-.41-.12-7-1.95.26-.07-4.13,3.86-1.5,1.4.09-.24c.37,2.56.73,5.1,1.07,7.46l.06.42-.41-.11-7-2,.26-.06-4.84,4.51.09-.24c.22,1.57.44,3.13.65,4.55l.06.41L811,183l-4.26-1.19.26-.06c-1,.9-2,1.81-2.82,2.62l.08-.18c-.14,2.4-.29,4.76-.42,6.92l-.2-.27,10.32,2.61-.23.06,33.53-31.17.08-.08.1.05a22.14,22.14,0,0,0,18.43-.13,24.62,24.62,0,0,0,4.3-2.63l1-.83C871.35,158.51,871.48,158.42,871.48,158.42Z" transform="translate(-109.95 -17.58)"/><path class="cls-3" d="M870.74,155.91a22.12,22.12,0,1,0-34.32-5.25h0l-4.49,4.19,1.08,7.47-7-2-5.63,5.25,1.08,7.47-7-2-4.84,4.51.65,4.55L806,179l-2.82,2.63-.42,6.92,10.31,2.59,33.48-31.23A22.13,22.13,0,0,0,870.74,155.91Zm-3.27-27.2a6.35,6.35,0,1,1-9-.31A6.35,6.35,0,0,1,867.47,128.71Z" transform="translate(-109.95 -17.58)"/><path class="cls-11" d="M870.74,155.91a22.12,22.12,0,1,0-34.32-5.25h0l-4.49,4.19,1.08,7.47-7-2-5.63,5.25,1.08,7.47-7-2-4.84,4.51.65,4.55L806,179l-2.82,2.63-.42,6.92,10.31,2.59,33.48-31.23A22.13,22.13,0,0,0,870.74,155.91Zm-3.27-27.2a6.35,6.35,0,1,1-9-.31A6.35,6.35,0,0,1,867.47,128.71Z" transform="translate(-109.95 -17.58)"/><path class="cls-5" d="M867.47,128.71s-.42-.38-1.26-.9a6.31,6.31,0,0,0-4-.88,6.11,6.11,0,1,0,6.67,7.15,6.34,6.34,0,0,0-.6-4.05c-.46-.88-.86-1.28-.81-1.32s.11.08.3.28a4.81,4.81,0,0,1,.7.94,6.3,6.3,0,0,1,.8,4.21,6.56,6.56,0,0,1-13-.32A6.43,6.43,0,0,1,857,130a6.51,6.51,0,0,1,5.21-3.5,6.23,6.23,0,0,1,4.15,1.09,4.76,4.76,0,0,1,.89.76A1.57,1.57,0,0,1,867.47,128.71Z" transform="translate(-109.95 -17.58)"/><path class="cls-5" d="M870.74,155.91l-.32.31c-.24.2-.56.49-1,.86a22.14,22.14,0,0,1-22.92,3l.18,0c-8.62,8.08-20.1,18.83-33.42,31.29l-.09.1-.14,0-10.32-2.58-.2-.06v-.21c.13-2.16.27-4.52.41-6.92v-.1l.08-.07,2.81-2.63.11-.11.15,0,4.25,1.19-.34.3c-.2-1.42-.43-3-.65-4.55l0-.14.1-.1,4.84-4.51.11-.11.15,0,7,2-.34.3c-.35-2.36-.71-4.91-1.08-7.47l0-.14.1-.1,1.5-1.39,4.13-3.86.12-.11.15.05,7,1.95-.35.31c-.36-2.52-.71-5-1.07-7.47l0-.14.11-.1,4.5-4.2,0,.34a22.53,22.53,0,0,1-2.88-10.07,22.69,22.69,0,0,1,1.84-9.93,22.28,22.28,0,0,1,42.66,10.68,22,22,0,0,1-2.48,8.52l-.41.78-.46.71c-.3.44-.55.88-.84,1.25-.59.72-1,1.36-1.5,1.81l-1,1-.35.33s.1-.13.32-.37l1-1c.44-.46.89-1.11,1.47-1.83.28-.37.52-.82.81-1.26l.44-.7.4-.79A21.93,21.93,0,1,0,835.62,131a21.66,21.66,0,0,0-1.43,4.7,20.88,20.88,0,0,0-.35,5,22,22,0,0,0,2.82,9.83l.1.18-.16.15-4.49,4.2.08-.24q.54,3.69,1.08,7.47l.06.42-.41-.12-7-2,.26-.07-4.14,3.86-1.49,1.4.09-.24c.36,2.56.73,5.1,1.07,7.46l.06.42-.41-.11-7-2,.26-.06-4.84,4.51.08-.24c.23,1.57.45,3.13.66,4.55l.06.41-.4-.11L806,179.27l.26-.06c-1,.9-2,1.81-2.82,2.62l.08-.18c-.15,2.4-.29,4.76-.43,6.92l-.19-.27,10.31,2.61-.23.06,33.54-31.17.08-.08.1.05a22.14,22.14,0,0,0,18.43-.13,24.62,24.62,0,0,0,4.3-2.63l1-.83C870.61,156,870.74,155.91,870.74,155.91Z" transform="translate(-109.95 -17.58)"/><path class="cls-5" d="M868.71,154.18a29.94,29.94,0,0,0,3-3.74,18.82,18.82,0,0,0,2.27-5.09,19.24,19.24,0,0,0-9.8-22.5,18,18,0,0,0-5.22-1.76,20.57,20.57,0,0,0-2.84-.33,21.81,21.81,0,0,0-2.91.14,19.11,19.11,0,0,0-16.6,15.48,23.9,23.9,0,0,0-.35,2.9,22.4,22.4,0,0,0,.13,2.85,18.2,18.2,0,0,0,1.4,5.34,19.3,19.3,0,0,0,21.77,11.33,18.66,18.66,0,0,0,5.23-1.91,31.89,31.89,0,0,0,4-2.71,1.3,1.3,0,0,1-.23.23l-.69.62a8.39,8.39,0,0,1-1.19.93,13.35,13.35,0,0,1-1.73,1.12,18.55,18.55,0,0,1-5.28,2,19.61,19.61,0,0,1-15.83-3.29,19.67,19.67,0,0,1-6.46-8.14,18.48,18.48,0,0,1-1.46-5.48,21.87,21.87,0,0,1-.14-2.93,21.61,21.61,0,0,1,.35-3,19.61,19.61,0,0,1,17.06-15.91,17.54,17.54,0,0,1,5.91.2,18.63,18.63,0,0,1,5.37,1.83,19.61,19.61,0,0,1,9.86,23,18.41,18.41,0,0,1-2.39,5.12,15.26,15.26,0,0,1-1.23,1.66,9.16,9.16,0,0,1-1,1.12l-.67.65Z" transform="translate(-109.95 -17.58)"/><path class="cls-5" d="M867.81,138.49s.46-.48,1.08-1.47a7.4,7.4,0,0,0,1-4.69,7.3,7.3,0,0,0-1.11-3.14,7.39,7.39,0,0,0-2.82-2.53,7.18,7.18,0,0,0-10.3,5.06,7.09,7.09,0,0,0,.43,4.15,7.37,7.37,0,0,0,2.33,3,7.28,7.28,0,0,0,3,1.32,7.46,7.46,0,0,0,4.76-.71c1-.55,1.5-1,1.54-1a1.92,1.92,0,0,1-.33.35,5.49,5.49,0,0,1-1.11.81,7.37,7.37,0,0,1-4.92.92,7.55,7.55,0,0,1-3.26-1.35,7.63,7.63,0,0,1-2.53-3.16,7.55,7.55,0,0,1-.49-4.44,7.62,7.62,0,0,1,6.66-6.21,7.62,7.62,0,0,1,8.49,6.88,7.42,7.42,0,0,1-1.25,4.85,6.36,6.36,0,0,1-.89,1.05A1.79,1.79,0,0,1,867.81,138.49Z" transform="translate(-109.95 -17.58)"/><path class="cls-5" d="M810.41,189.93c-.1-.11,7.43-7.32,16.84-16.09s17.11-15.79,17.21-15.68-7.43,7.31-16.84,16.09S810.51,190,810.41,189.93Z" transform="translate(-109.95 -17.58)"/><path class="cls-5" d="M777.84,285.73a12.73,12.73,0,0,1-5.31,0,12.73,12.73,0,0,1,5.31,0Z" transform="translate(-109.95 -17.58)"/><path class="cls-5" d="M788.44,285.73a12.68,12.68,0,0,1-5.3,0,12.68,12.68,0,0,1,5.3,0Z" transform="translate(-109.95 -17.58)"/><path class="cls-5" d="M799.05,285.73a12.73,12.73,0,0,1-5.31,0,12.73,12.73,0,0,1,5.31,0Z" transform="translate(-109.95 -17.58)"/><path class="cls-5" d="M809.65,285.73a12.68,12.68,0,0,1-5.3,0,12.68,12.68,0,0,1,5.3,0Z" transform="translate(-109.95 -17.58)"/><path class="cls-5" d="M820.26,285.73a12.73,12.73,0,0,1-5.31,0,12.73,12.73,0,0,1,5.31,0Z" transform="translate(-109.95 -17.58)"/><path class="cls-5" d="M830.86,285.73a12.68,12.68,0,0,1-5.3,0,12.68,12.68,0,0,1,5.3,0Z" transform="translate(-109.95 -17.58)"/><path class="cls-5" d="M839.86,284.12c.11,0,.21.66.25,1.61V286h-.26q-.48,0-1.05,0a6.62,6.62,0,0,1-2.65-.28,6.62,6.62,0,0,1,2.65-.28q.57,0,1.05,0l-.26.25C839.65,284.78,839.74,284.12,839.86,284.12Z" transform="translate(-109.95 -17.58)"/><path class="cls-5" d="M839.86,273.52a13.14,13.14,0,0,1,0,5.3,12.68,12.68,0,0,1,0-5.3Z" transform="translate(-109.95 -17.58)"/><path class="cls-5" d="M839.86,262.91a13.14,13.14,0,0,1,0,5.3,12.68,12.68,0,0,1,0-5.3Z" transform="translate(-109.95 -17.58)"/><path class="cls-5" d="M839.86,252.31a13.14,13.14,0,0,1,0,5.3,12.68,12.68,0,0,1,0-5.3Z" transform="translate(-109.95 -17.58)"/><path class="cls-5" d="M839.86,241.7a13.14,13.14,0,0,1,0,5.3,12.68,12.68,0,0,1,0-5.3Z" transform="translate(-109.95 -17.58)"/><path class="cls-5" d="M839.86,231.1a13.14,13.14,0,0,1,0,5.3,12.68,12.68,0,0,1,0-5.3Z" transform="translate(-109.95 -17.58)"/><path class="cls-5" d="M839.86,220.49a13.14,13.14,0,0,1,0,5.3,12.68,12.68,0,0,1,0-5.3Z" transform="translate(-109.95 -17.58)"/><path class="cls-5" d="M839.86,209.89a13.14,13.14,0,0,1,0,5.3,12.68,12.68,0,0,1,0-5.3Z" transform="translate(-109.95 -17.58)"/><path class="cls-5" d="M839.86,199.28a13.19,13.19,0,0,1,0,5.31,12.73,12.73,0,0,1,0-5.31Z" transform="translate(-109.95 -17.58)"/><path class="cls-5" d="M839.86,188.68a13.14,13.14,0,0,1,0,5.3,12.68,12.68,0,0,1,0-5.3Z" transform="translate(-109.95 -17.58)"/><path class="cls-5" d="M839.86,178.07a13.19,13.19,0,0,1,0,5.31,12.73,12.73,0,0,1,0-5.31Z" transform="translate(-109.95 -17.58)"/><path class="cls-5" d="M760.35,391.43a12.73,12.73,0,0,1-5.31,0,13.19,13.19,0,0,1,5.31,0Z" transform="translate(-109.95 -17.58)"/><path class="cls-5" d="M771,391.43a12.68,12.68,0,0,1-5.3,0,13.14,13.14,0,0,1,5.3,0Z" transform="translate(-109.95 -17.58)"/><path class="cls-5" d="M781.56,391.43a12.73,12.73,0,0,1-5.31,0,13.19,13.19,0,0,1,5.31,0Z" transform="translate(-109.95 -17.58)"/><path class="cls-5" d="M792.16,391.43a12.68,12.68,0,0,1-5.3,0,13.14,13.14,0,0,1,5.3,0Z" transform="translate(-109.95 -17.58)"/><path class="cls-5" d="M802.76,391.43a12.68,12.68,0,0,1-5.3,0,13.14,13.14,0,0,1,5.3,0Z" transform="translate(-109.95 -17.58)"/><path class="cls-5" d="M813.37,391.43a12.68,12.68,0,0,1-5.3,0,13.14,13.14,0,0,1,5.3,0Z" transform="translate(-109.95 -17.58)"/><path class="cls-5" d="M824,391.43a12.68,12.68,0,0,1-5.3,0,13.14,13.14,0,0,1,5.3,0Z" transform="translate(-109.95 -17.58)"/><path class="cls-5" d="M834.58,391.43a12.68,12.68,0,0,1-5.3,0,13.14,13.14,0,0,1,5.3,0Z" transform="translate(-109.95 -17.58)"/><path class="cls-5" d="M845.18,391.43a12.68,12.68,0,0,1-5.3,0,13.14,13.14,0,0,1,5.3,0Z" transform="translate(-109.95 -17.58)"/><path class="cls-5" d="M855.79,391.43a12.68,12.68,0,0,1-5.3,0,13.14,13.14,0,0,1,5.3,0Z" transform="translate(-109.95 -17.58)"/><path class="cls-5" d="M865.41,390.44c.09,0,.16.39.21,1v.2l-.23,0c-.45,0-1,.06-1.66.06a6.62,6.62,0,0,1-2.65-.28,6.73,6.73,0,0,1,2.65-.27c.63,0,1.21,0,1.66.06l-.21.21C865.24,390.82,865.32,390.44,865.41,390.44Z" transform="translate(-109.95 -17.58)"/><path class="cls-5" d="M865.52,379.84a6.74,6.74,0,0,1,.25,2.65,6.52,6.52,0,0,1-.31,2.65,6.77,6.77,0,0,1-.25-2.66A6.41,6.41,0,0,1,865.52,379.84Z" transform="translate(-109.95 -17.58)"/><path class="cls-5" d="M865.62,369.23a12.91,12.91,0,0,1,0,5.3,6.52,6.52,0,0,1-.25-2.65A6.62,6.62,0,0,1,865.62,369.23Z" transform="translate(-109.95 -17.58)"/><path class="cls-5" d="M865.73,358.63a6.74,6.74,0,0,1,.25,2.65,6.52,6.52,0,0,1-.31,2.65,6.77,6.77,0,0,1-.25-2.66A6.41,6.41,0,0,1,865.73,358.63Z" transform="translate(-109.95 -17.58)"/><path class="cls-6" d="M830.63,325.39l2,35.84a2.42,2.42,0,0,0,2.4,2.29l64.49.47a2.42,2.42,0,0,0,2.44-2.4l.2-27.9a2.43,2.43,0,0,0-2.42-2.44l-39.66,0a2.45,2.45,0,0,1-1.71-.71l-6.84-6.84a2.45,2.45,0,0,0-1.69-.71l-16.72-.12A2.43,2.43,0,0,0,830.63,325.39Z" transform="translate(-109.95 -17.58)"/><rect class="cls-2" x="831.54" y="326.78" width="70.47" height="42.11" transform="translate(-107.38 -23.92) rotate(0.42)"/><path class="cls-6" d="M826.06,330.26l5.06,43.95a1.56,1.56,0,0,0,1.54,1.38l68.67.5a1.56,1.56,0,0,0,1.56-1.42l3.78-43.89a1.56,1.56,0,0,0-1.54-1.69l-77.51-.56A1.56,1.56,0,0,0,826.06,330.26Z" transform="translate(-109.95 -17.58)"/><rect class="cls-5" x="288.17" y="244.35" width="385.84" height="255.15" rx="15.45"/><path class="cls-5" d="M272,480.64h418a0,0,0,0,1,0,0v3.45A18.87,18.87,0,0,1,671.2,503H290.91A18.87,18.87,0,0,1,272,484.09v-3.45A0,0,0,0,1,272,480.64Z"/><rect class="cls-9" x="298.53" y="254.49" width="364.05" height="215.47"/><polygon class="cls-9" points="443.06 480.64 448.25 488.89 521.24 488.89 526.06 480.64 443.06 480.64"/><rect class="cls-4" x="306.03" y="261.79" width="349.8" height="207.49" rx="3.47"/><rect class="cls-8" x="306.03" y="276.99" width="349.8" height="192.29"/><path class="cls-5" d="M444.67,287.38a2.8,2.8,0,1,1-2.79-2.79A2.79,2.79,0,0,1,444.67,287.38Z" transform="translate(-109.95 -17.58)"/><path class="cls-5" d="M427.74,287.38a2.8,2.8,0,1,1-2.8-2.79A2.79,2.79,0,0,1,427.74,287.38Z" transform="translate(-109.95 -17.58)"/><path class="cls-5" d="M435.87,287.38a2.8,2.8,0,1,1-2.8-2.79A2.79,2.79,0,0,1,435.87,287.38Z" transform="translate(-109.95 -17.58)"/><path class="cls-9" d="M780.65,498.22c0,.14-85.64.25-191.25.25s-191.27-.11-191.27-.25S483.75,498,589.4,498,780.65,498.08,780.65,498.22Z" transform="translate(-109.95 -17.58)"/><rect class="cls-3" x="330.27" y="373.85" width="79.82" height="5.34"/><rect class="cls-3" x="433.37" y="299.72" width="79.82" height="5.34"/><path class="cls-3" d="M741.87,337.19c0,.13-44.45.25-99.27.25s-99.27-.12-99.27-.25,44.44-.25,99.27-.25S741.87,337.05,741.87,337.19Z" transform="translate(-109.95 -17.58)"/><path class="cls-3" d="M741.87,348.85c0,.13-44.45.25-99.27.25s-99.27-.12-99.27-.25,44.44-.25,99.27-.25S741.87,348.71,741.87,348.85Z" transform="translate(-109.95 -17.58)"/><path class="cls-3" d="M741.87,360.51c0,.13-44.45.25-99.27.25s-99.27-.12-99.27-.25,44.44-.25,99.27-.25S741.87,360.37,741.87,360.51Z" transform="translate(-109.95 -17.58)"/><path class="cls-3" d="M741.87,372.17c0,.13-44.45.25-99.27.25s-99.27-.12-99.27-.25,44.44-.25,99.27-.25S741.87,372,741.87,372.17Z" transform="translate(-109.95 -17.58)"/><path class="cls-3" d="M741.87,383.83c0,.13-44.45.25-99.27.25s-99.27-.12-99.27-.25,44.44-.25,99.27-.25S741.87,383.69,741.87,383.83Z" transform="translate(-109.95 -17.58)"/><path class="cls-3" d="M620.83,395.49c0,.13-17.35.25-38.75.25s-38.75-.12-38.75-.25,17.34-.25,38.75-.25S620.83,395.35,620.83,395.49Z" transform="translate(-109.95 -17.58)"/><path class="cls-3" d="M740.42,418.12c0,.13-29.22.25-65.25.25s-65.25-.12-65.25-.25,29.21-.25,65.25-.25S740.42,418,740.42,418.12Z" transform="translate(-109.95 -17.58)"/><path class="cls-3" d="M740.42,430.49c0,.14-29.22.25-65.25.25s-65.25-.11-65.25-.25,29.21-.25,65.25-.25S740.42,430.35,740.42,430.49Z" transform="translate(-109.95 -17.58)"/><path class="cls-3" d="M740.42,442.87c0,.14-29.22.25-65.25.25s-65.25-.11-65.25-.25,29.21-.25,65.25-.25S740.42,442.73,740.42,442.87Z" transform="translate(-109.95 -17.58)"/><path class="cls-3" d="M740.42,455.25c0,.13-29.22.25-65.25.25s-65.25-.12-65.25-.25,29.21-.25,65.25-.25S740.42,455.11,740.42,455.25Z" transform="translate(-109.95 -17.58)"/><path class="cls-3" d="M520.25,416.93c0,.14-17.42.25-38.9.25s-38.89-.11-38.89-.25,17.41-.25,38.89-.25S520.25,416.79,520.25,416.93Z" transform="translate(-109.95 -17.58)"/><path class="cls-3" d="M520.25,426.65c0,.14-17.42.25-38.9.25s-38.89-.11-38.89-.25,17.41-.25,38.89-.25S520.25,426.51,520.25,426.65Z" transform="translate(-109.95 -17.58)"/><path class="cls-3" d="M520.25,436.37c0,.14-17.42.25-38.9.25s-38.89-.11-38.89-.25,17.41-.25,38.89-.25S520.25,436.23,520.25,436.37Z" transform="translate(-109.95 -17.58)"/><path class="cls-3" d="M520.25,446.09c0,.14-17.42.25-38.9.25s-38.89-.11-38.89-.25,17.41-.25,38.89-.25S520.25,446,520.25,446.09Z" transform="translate(-109.95 -17.58)"/><path class="cls-3" d="M520.25,455.81c0,.14-17.42.25-38.9.25s-38.89-.11-38.89-.25,17.41-.25,38.89-.25S520.25,455.67,520.25,455.81Z" transform="translate(-109.95 -17.58)"/><rect class="cls-2" x="433.33" y="394.63" width="56.63" height="54.79"/><polygon class="cls-4" points="437.72 444.73 453.38 416.54 466.2 434.56 473.99 424.99 485.57 444.73 437.72 444.73"/><path class="cls-4" d="M581.61,428.63a4.08,4.08,0,1,1-4.08-4.07A4.08,4.08,0,0,1,581.61,428.63Z" transform="translate(-109.95 -17.58)"/><path class="cls-4" d="M595.52,462.47s0-.08,0-.23,0-.37,0-.64q0-.87,0-2.46c0-2.18,0-5.32-.06-9.31,0-8-.07-19.4-.12-33.08l.23.23-47.85,0,.27-.27v12.31c0,4,0,8,0,11.8,0,7.68,0,14.93,0,21.61l-.23-.24,34.6.12,9.76.06,2.58,0h.68a1,1,0,0,1,.23,0h-.85l-2.55,0-9.7.06-34.75.12h-.24v-.23c0-6.68,0-13.93,0-21.61,0-3.84,0-7.78,0-11.8V416.75l.27-.27,47.85,0h.23v.23c0,13.74-.09,25.19-.12,33.23,0,4,0,7.09-.06,9.25,0,1,0,1.85,0,2.42,0,.26,0,.46,0,.62A.63.63,0,0,1,595.52,462.47Z" transform="translate(-109.95 -17.58)"/><rect class="cls-2" x="331.78" y="290.6" width="76.81" height="74.32"/><polygon class="cls-3" points="337.73 358.56 358.98 320.31 376.36 344.76 386.92 331.78 402.63 358.56 337.73 358.56"/><path class="cls-3" d="M493.72,330.46a5.53,5.53,0,1,1-5.53-5.53A5.54,5.54,0,0,1,493.72,330.46Z" transform="translate(-109.95 -17.58)"/><path class="cls-3" d="M512.59,376.35a2.08,2.08,0,0,1,0-.31c0-.22,0-.5,0-.87,0-.79,0-1.9,0-3.34,0-2.95,0-7.21-.08-12.62,0-10.86-.09-26.31-.16-44.87l.32.31-64.9.05.36-.35h0V331c0,5.46,0,10.81,0,16,0,10.41,0,20.25,0,29.3l-.32-.31,46.93.16,13.24.08,3.51,0,.91,0a1.27,1.27,0,0,1,.32,0h-.29l-.87,0-3.45,0-13.17.08-47.13.16h-.31v-.33c0-9,0-18.89,0-29.3,0-5.2,0-10.55,0-16V314.36h0c-.33.32.44-.46.37-.38l64.9,0h.31v.32c-.07,18.64-.12,34.17-.16,45.07,0,5.38-.06,9.62-.08,12.55,0,1.41,0,2.51,0,3.28,0,.35,0,.62,0,.84S512.59,376.35,512.59,376.35Z" transform="translate(-109.95 -17.58)"/><polygon class="cls-6" points="418.88 318.84 422.68 326.53 431.17 327.76 425.02 333.75 426.48 342.2 418.88 338.21 411.3 342.2 412.75 333.75 406.61 327.76 415.09 326.53 418.88 318.84"/><polygon class="cls-6" points="445.61 292.12 449.41 299.8 457.89 301.04 451.75 307.02 453.2 315.47 445.61 311.48 438.02 315.47 439.47 307.02 433.33 301.04 441.82 299.8 445.61 292.12"/><polygon class="cls-6" points="481.33 281.62 485.13 289.31 493.61 290.55 487.47 296.53 488.92 304.98 481.33 300.99 473.74 304.98 475.19 296.53 469.05 290.55 477.54 289.31 481.33 281.62"/><polygon class="cls-6" points="518.3 292.37 522.09 300.05 530.58 301.29 524.44 307.27 525.89 315.72 518.3 311.73 510.71 315.72 512.16 307.27 506.02 301.29 514.5 300.05 518.3 292.37"/><polygon class="cls-6" points="543.77 317.84 547.57 325.53 556.05 326.76 549.91 332.75 551.36 341.2 543.77 337.21 536.19 341.2 537.63 332.75 531.5 326.76 539.98 325.53 543.77 317.84"/><polygon class="cls-6" points="553.02 354.81 556.81 362.5 565.3 363.73 559.16 369.72 560.61 378.17 553.02 374.18 545.43 378.17 546.88 369.72 540.74 363.73 549.22 362.5 553.02 354.81"/><polygon class="cls-6" points="544.02 391.53 547.82 399.22 556.3 400.45 550.16 406.43 551.61 414.88 544.02 410.89 536.43 414.88 537.88 406.43 531.75 400.45 540.23 399.22 544.02 391.53"/><polygon class="cls-6" points="516.97 417 520.76 424.69 529.25 425.93 523.11 431.91 524.56 440.36 516.97 436.37 509.38 440.36 510.83 431.91 504.69 425.93 513.17 424.69 516.97 417"/><polygon class="cls-6" points="480.61 427.51 484.41 435.2 492.89 436.43 486.75 442.41 488.2 450.86 480.61 446.87 473.02 450.86 474.47 442.41 468.33 436.43 476.82 435.2 480.61 427.51"/><polygon class="cls-6" points="445.89 417.02 449.69 424.7 458.17 425.94 452.03 431.92 453.48 440.37 445.89 436.38 438.3 440.37 439.75 431.92 433.61 425.94 442.1 424.7 445.89 417.02"/><polygon class="cls-6" points="418.42 390.86 422.21 398.55 430.7 399.78 424.56 405.77 426.01 414.22 418.42 410.23 410.83 414.22 412.28 405.77 406.14 399.78 414.62 398.55 418.42 390.86"/><polygon class="cls-6" points="409.18 354.85 412.97 362.54 421.45 363.77 415.31 369.76 416.76 378.21 409.18 374.22 401.58 378.21 403.04 369.76 396.89 363.77 405.38 362.54 409.18 354.85"/><path class="cls-5" d="M617.47,398.81h-7.42V358.4a17.25,17.25,0,0,0-34.5,0v40.41h-7.42V358.4a24.67,24.67,0,0,1,49.34,0Z" transform="translate(-109.95 -17.58)"/><rect class="cls-6" x="449.6" y="363.25" width="66.5" height="42.66" rx="6.16"/><path class="cls-5" d="M598.36,396.6a5.56,5.56,0,1,1-5.56-5.55A5.56,5.56,0,0,1,598.36,396.6Z" transform="translate(-109.95 -17.58)"/><rect class="cls-5" x="481.33" y="381.22" width="3.03" height="11.43"/><path class="cls-8" d="M563.1,419.45c-.16,0-.28-7.12-.28-15.89s.12-15.89.28-15.89.27,7.11.27,15.89S563.25,419.45,563.1,419.45Z" transform="translate(-109.95 -17.58)"/><path class="cls-8" d="M588.45,403.73s-.26-.09-.66-.37a6.82,6.82,0,0,1-1.43-1.46,7.79,7.79,0,0,1,2.77-11.69,6.74,6.74,0,0,1,1.93-.66,1.73,1.73,0,0,1,.75,0,19.72,19.72,0,0,0-2.49,1,7.71,7.71,0,0,0-2.64,11.13A16,16,0,0,0,588.45,403.73Z" transform="translate(-109.95 -17.58)"/><path class="cls-5" d="M358.9,361.89a11.64,11.64,0,0,0,.17,7.44,35,35,0,0,0,3.35,6.77,124.67,124.67,0,0,0,4.51-13c.25-1,.44-2.15-.25-2.88a2.72,2.72,0,0,0-2.14-.59,9.87,9.87,0,0,0-6.07,2.59" transform="translate(-109.95 -17.58)"/><polygon class="cls-5" points="155.43 463.26 138.08 502.93 161.96 502.93 178.97 462.95 155.43 463.26"/><path class="cls-9" d="M368.55,520c23.41-7.75,7.35-38.71,7.35-38.71l-102.3,9.62a14.81,14.81,0,0,0-14.9,14.8h0a14.8,14.8,0,0,0,14.8,14.8l95.05-.51" transform="translate(-109.95 -17.58)"/><path class="cls-9" d="M391.82,520.54c22.8-7.69,7.77-39.23,7.77-39.23l-99.73,9.41c-9.74.12-14.5,4.82-14.5,14.76h0c0,8.17,3,15.06,14.46,14.83l92,.23" transform="translate(-109.95 -17.58)"/><path class="cls-5" d="M369.35,486.55a1,1,0,0,0-.29,0l-.83,0-3.19.13-11.74.58-38.7,2.12c-1.88.09-3.75.25-5.59.28s-3.67.11-5.45.21-3.54.24-5.25.43a19,19,0,0,0-5,1,12.06,12.06,0,0,0-4.15,2.66,11.05,11.05,0,0,0-2.51,4,20.7,20.7,0,0,0-1,4.36,31.06,31.06,0,0,0-.27,4.12,17.47,17.47,0,0,0,1.32,7,11.26,11.26,0,0,0,3.1,4.22,8.38,8.38,0,0,0,2.82,1.6c.71.22.72.15,0-.1a8.75,8.75,0,0,1-2.74-1.66,11.41,11.41,0,0,1-3-4.19,17.39,17.39,0,0,1-1.22-6.82,28.84,28.84,0,0,1,.31-4.06,19.54,19.54,0,0,1,1-4.26,10.69,10.69,0,0,1,2.43-3.86,11.7,11.7,0,0,1,4-2.53,18.38,18.38,0,0,1,4.88-1c1.7-.18,3.45-.3,5.23-.41s3.59-.18,5.43-.2,3.71-.19,5.6-.28l38.7-2.28,11.73-.75,3.19-.24.82-.07Z" transform="translate(-109.95 -17.58)"/><path class="cls-5" d="M391.87,496.31a2.35,2.35,0,0,1-.81.4,8.5,8.5,0,0,1-2.43.5,9.45,9.45,0,0,1-10.13-10.4,8.36,8.36,0,0,1,.55-2.41,2.68,2.68,0,0,1,.42-.8,18,18,0,0,0-.59,3.24,9.38,9.38,0,0,0,9.74,10A17.92,17.92,0,0,0,391.87,496.31Z" transform="translate(-109.95 -17.58)"/><polygon class="cls-12" points="231.18 416.03 221.71 448.41 186.69 452.16 186.69 458.38 238.15 459.09 245.16 416.93 231.18 416.03"/><path class="cls-6" d="M386.8,399.78c6.22,0,23.05,3.18,24.53,14.53,1.33,10.24,3.33,21.86,3.33,21.86l-22.15.6,7.55,2,3.23,47.81-57.33-2L349,460l2.5-24.57h0l-12.53-1s4.29-21.39,11.76-28a30.38,30.38,0,0,1,16.5-6.65,172.29,172.29,0,0,1,19.57,0" transform="translate(-109.95 -17.58)"/><path class="cls-5" d="M353.55,419.55c.14,0-.74,8.66-1.95,19.3s-2.3,19.27-2.44,19.25.74-8.65,2-19.3S353.42,419.54,353.55,419.55Z" transform="translate(-109.95 -17.58)"/><path class="cls-5" d="M388.52,399.85a2.23,2.23,0,0,1,.06.4c0,.27.05.66.06,1.16a12.9,12.9,0,0,1-.62,4.24,12.51,12.51,0,0,1-3.25,5.51,9.48,9.48,0,0,1-3.32,2.06,13.1,13.1,0,0,1-4.17.66,23.17,23.17,0,0,1-4.2-.28,8.68,8.68,0,0,1-3.64-1.48,9.53,9.53,0,0,1-3.45-5.38,13.9,13.9,0,0,1-.48-4.25c0-.5.06-.89.09-1.16a1.69,1.69,0,0,1,.07-.4,14.59,14.59,0,0,1,0,1.56,15.28,15.28,0,0,0,.61,4.17,9.38,9.38,0,0,0,3.4,5.13,8.32,8.32,0,0,0,3.46,1.38,23,23,0,0,0,4.11.27,13.23,13.23,0,0,0,4-.63,9.08,9.08,0,0,0,3.17-1.94,12.43,12.43,0,0,0,3.24-5.32,13.92,13.92,0,0,0,.75-4.14A12.93,12.93,0,0,1,388.52,399.85Z" transform="translate(-109.95 -17.58)"/><g class="cls-7"><path d="M391.59,419.56c-2.12,10.14-4.89,20.57-7,30.71a15.4,15.4,0,0,1-2.25,6.16,14.85,14.85,0,0,1-3,2.78,53.24,53.24,0,0,1-13.51,7.87,121.79,121.79,0,0,0,21-3.66,5.74,5.74,0,0,0,3.16-1.63,5.84,5.84,0,0,0,.94-3c1.53-13,1.09-26.13.67-39.22" transform="translate(-109.95 -17.58)"/></g><path class="cls-5" d="M415,436.34a9.9,9.9,0,0,1-1.67.13l-4.54.17c-3.84.12-9.14.25-15,.37l-1.88,0h-.24v-.23c-.21-5.44-.11-10.27,0-13.75.06-1.74.12-3.14.18-4.1a9.39,9.39,0,0,1,.14-1.49,10.21,10.21,0,0,1,0,1.49c0,1,0,2.43,0,4.1,0,3.48-.06,8.31.17,13.72l-.25-.23,1.88,0c5.86-.11,11.16-.19,15-.22l4.55,0A12.43,12.43,0,0,1,415,436.34Z" transform="translate(-109.95 -17.58)"/><path class="cls-3" d="M252.76,438.67l19.57,38.47H334l-2.5-5-17.87-.54-14.56-32.43a5.62,5.62,0,0,0-5.13-3.31H254.5A2,2,0,0,0,252.76,438.67Z" transform="translate(-109.95 -17.58)"/><circle class="cls-5" cx="171.34" cy="438.32" r="2.36"/><path class="cls-12" d="M388.82,370.79l-2.21,31.3a9.75,9.75,0,0,1-9.73,9.07h0a9.76,9.76,0,0,1-9.74-10.39c.19-3,.37-5.42.37-5.42s-7.56-1.18-7.67-8.76c0-3.57.42-10.63,1-17.27a14.9,14.9,0,0,1,14.86-13.73h0A14,14,0,0,1,388.82,370.79Z" transform="translate(-109.95 -17.58)"/><path class="cls-13" d="M367.46,395.71a17.61,17.61,0,0,0,9.88-2.81s-2.33,5.46-9.89,4.77Z" transform="translate(-109.95 -17.58)"/><path class="cls-5" d="M363.16,374.24a1.08,1.08,0,0,0,1,1.09,1,1,0,0,0,1.11-1,1.08,1.08,0,0,0-1-1.1A1,1,0,0,0,363.16,374.24Z" transform="translate(-109.95 -17.58)"/><path class="cls-5" d="M362.49,372.75c.14.14,1-.47,2.12-.46s2,.58,2.14.44-.07-.32-.44-.59a3,3,0,0,0-1.72-.53,2.84,2.84,0,0,0-1.68.55C362.55,372.43,362.43,372.69,362.49,372.75Z" transform="translate(-109.95 -17.58)"/><path class="cls-5" d="M374.13,374.55a1.08,1.08,0,0,0,1,1.09,1,1,0,0,0,1.12-1,1.08,1.08,0,0,0-1-1.09A1,1,0,0,0,374.13,374.55Z" transform="translate(-109.95 -17.58)"/><path class="cls-5" d="M373.94,373c.13.14.95-.47,2.12-.47s2,.59,2.14.45-.07-.32-.45-.59a3,3,0,0,0-1.71-.53,2.85,2.85,0,0,0-1.69.54C374,372.65,373.87,372.9,373.94,373Z" transform="translate(-109.95 -17.58)"/><path class="cls-5" d="M369.71,381.6a8.09,8.09,0,0,0-1.89-.34c-.3,0-.58-.09-.63-.29a1.53,1.53,0,0,1,.2-.88l.88-2.27a38.52,38.52,0,0,0,2-5.92,39.46,39.46,0,0,0-2.44,5.75q-.45,1.19-.84,2.28a1.67,1.67,0,0,0-.16,1.16.73.73,0,0,0,.49.44,2,2,0,0,0,.51.07A7.38,7.38,0,0,0,369.71,381.6Z" transform="translate(-109.95 -17.58)"/><path class="cls-5" d="M373.14,382.41c-.19,0-.19,1.25-1.27,2.15s-2.43.75-2.44.93.3.25.87.26a3.14,3.14,0,0,0,2-.71,2.77,2.77,0,0,0,1-1.8C373.37,382.71,373.23,382.4,373.14,382.41Z" transform="translate(-109.95 -17.58)"/><path class="cls-5" d="M373.64,368.4c.11.32,1.27.17,2.64.33s2.47.54,2.65.26-.11-.44-.55-.74a4.42,4.42,0,0,0-2-.69,4.47,4.47,0,0,0-2.07.24C373.84,368,373.59,368.25,373.64,368.4Z" transform="translate(-109.95 -17.58)"/><path class="cls-5" d="M362.92,369.38c.21.26,1,0,2,0s1.78.17,2-.1,0-.4-.4-.65a2.72,2.72,0,0,0-1.6-.44,2.82,2.82,0,0,0-1.58.54C362.94,369,362.83,369.25,362.92,369.38Z" transform="translate(-109.95 -17.58)"/><path class="cls-12" d="M386.27,377c.13-.06,5.2-1.54,5,3.64s-5.33,4-5.34,3.8S386.27,377,386.27,377Z" transform="translate(-109.95 -17.58)"/><path class="cls-13" d="M387.62,382.47s.08.07.23.15a1,1,0,0,0,.68,0,2.25,2.25,0,0,0,1.1-2,3,3,0,0,0-.22-1.3,1,1,0,0,0-.65-.71.45.45,0,0,0-.54.23c-.08.14-.05.24-.07.25s-.11-.09-.06-.3a.54.54,0,0,1,.21-.32.7.7,0,0,1,.5-.12,1.29,1.29,0,0,1,.92.84,3.08,3.08,0,0,1,.27,1.45,2.38,2.38,0,0,1-1.39,2.2,1,1,0,0,1-.82-.17C387.62,382.6,387.6,382.48,387.62,382.47Z" transform="translate(-109.95 -17.58)"/><rect class="cls-5" x="155.23" y="459.62" width="75.41" height="3.68"/><polygon class="cls-5" points="207.42 461.46 230.35 502.96 250.89 502.96 230.64 463.3 207.42 461.46"/><path class="cls-9" d="M340.6,480.88c0,.15-16.9.36-37.75.47s-37.75.06-37.75-.09,16.89-.36,37.75-.47S340.6,480.73,340.6,480.88Z" transform="translate(-109.95 -17.58)"/><path class="cls-5" d="M358.71,365.92a5.16,5.16,0,0,0,4.26-.3,1.2,1.2,0,0,0,.21,1.8,3.06,3.06,0,0,0,2,.45,15.39,15.39,0,0,0,10.05-4.3,3.34,3.34,0,0,0,2.32,2.88,6.8,6.8,0,0,0,3.87,0,14.77,14.77,0,0,0-.24,5.84,5.05,5.05,0,0,0,3.81,4,9.71,9.71,0,0,1,.24,3.06c.07,1,.67,2.21,1.7,2.24s1.59-.91,1.71-1.81-.41-2.73.23-4.19.42-1.29,1.12-2.88,1.09-3.77,1.63-5.41a7.61,7.61,0,0,0,.14-5.09,4.2,4.2,0,0,0-4-2.81,4.16,4.16,0,0,0-6.12-5s-5.9-4-12.43-1.8-7.49,8.14-8.91,8.32-5.73-2.15-5-.67,2,2.89,2.59,2.95-4.93-2.28-3-.18A11.85,11.85,0,0,0,358.71,365.92Z" transform="translate(-109.95 -17.58)"/><path class="cls-8" d="M410.69,416.41a12,12,0,0,0-2-2,12.13,12.13,0,0,0-7.28-2.15c-3.28,0-7,1.42-10.72,3.68s-7.48,5.31-12.16,7.35a19,19,0,0,1-7.23,1.64,18.77,18.77,0,0,1-6.81-1.13,19.42,19.42,0,0,1-5.42-3.09c-1.55-1.19-2.9-2.38-4.22-3.35a13,13,0,0,0-7.05-2.88,9.3,9.3,0,0,0-2.81.38l.17-.09a4.86,4.86,0,0,1,.52-.2,7.05,7.05,0,0,1,2.12-.3,12.89,12.89,0,0,1,7.27,2.77c2.72,1.88,5.48,4.86,9.59,6.29a18.33,18.33,0,0,0,13.65-.55c4.59-2,8.34-5.07,12.12-7.28s7.6-3.69,11-3.63a12,12,0,0,1,7.4,2.37,8.22,8.22,0,0,1,1.52,1.51A3.19,3.19,0,0,1,410.69,416.41Z" transform="translate(-109.95 -17.58)"/><path class="cls-8" d="M391.82,444.28s-.51-.33-1.46-.88a15,15,0,0,0-4.29-1.65,14.34,14.34,0,0,0-6.75.12,84.08,84.08,0,0,0-7.9,3,19.26,19.26,0,0,1-15.16-.67,17.17,17.17,0,0,1-3.93-2.56,10.8,10.8,0,0,1-.93-.88c-.2-.21-.3-.32-.28-.34s.48.39,1.35,1.05a18.65,18.65,0,0,0,4,2.37,20.21,20.21,0,0,0,6.6,1.69,18.72,18.72,0,0,0,8.2-1.18,78.27,78.27,0,0,1,8-3,14.44,14.44,0,0,1,7,0,13.75,13.75,0,0,1,4.31,1.85,9.07,9.07,0,0,1,1,.75A1.65,1.65,0,0,1,391.82,444.28Z" transform="translate(-109.95 -17.58)"/><path class="cls-8" d="M400.17,462.11a18.28,18.28,0,0,0-2.05-.65,11.45,11.45,0,0,0-5.75.51,23.46,23.46,0,0,0-3.72,1.59c-1.29.68-2.64,1.49-4.1,2.28a24,24,0,0,1-4.8,2.06,11.73,11.73,0,0,1-5.63.23c-3.84-.83-6.88-3.06-9.69-4.73s-5.53-3-8-3.14a9.1,9.1,0,0,0-5.59,1.2,10.32,10.32,0,0,0-1.65,1.37,2.57,2.57,0,0,1,.32-.47,5.8,5.8,0,0,1,1.22-1.08,9.07,9.07,0,0,1,5.73-1.41c2.57.13,5.41,1.39,8.23,3.09s5.86,3.84,9.54,4.63a11.34,11.34,0,0,0,5.38-.21,24.5,24.5,0,0,0,4.7-2c1.46-.77,2.81-1.57,4.13-2.24a23,23,0,0,1,3.81-1.55,11.19,11.19,0,0,1,5.92-.35,7.09,7.09,0,0,1,1.52.56Q400.18,462.08,400.17,462.11Z" transform="translate(-109.95 -17.58)"/><path class="cls-8" d="M402.88,482.37a1.69,1.69,0,0,1-.54.22,6.08,6.08,0,0,1-1.65.28,14.84,14.84,0,0,1-6-1.24,32.48,32.48,0,0,0-4-1.29,15.47,15.47,0,0,0-4.71-.27c-3.36.28-6.89,1.55-10.66,2.63a32,32,0,0,1-5.64,1.16,24.57,24.57,0,0,1-5.37-.08,36.61,36.61,0,0,1-8.75-2.33c-2.4-.95-4.27-1.87-5.55-2.52-.64-.32-1.13-.59-1.46-.78a2.56,2.56,0,0,1-.49-.3,2,2,0,0,1,.54.21l1.5.68c1.31.59,3.2,1.45,5.6,2.34a38,38,0,0,0,8.67,2.2,24.82,24.82,0,0,0,5.25,0,32.25,32.25,0,0,0,5.55-1.15c3.75-1.07,7.32-2.34,10.76-2.61a15.85,15.85,0,0,1,4.87.33,32.47,32.47,0,0,1,4,1.37,15.78,15.78,0,0,0,5.83,1.4A11.06,11.06,0,0,0,402.88,482.37Z" transform="translate(-109.95 -17.58)"/><path class="cls-8" d="M413.75,431s-.18.29-.64.68a8.46,8.46,0,0,1-2.19,1.34,9.41,9.41,0,0,1-3.75.73,10.45,10.45,0,0,1-4.5-1.2c-1.49-.71-2.83-1.48-4.13-1.94a7.58,7.58,0,0,0-3.58-.4,4.56,4.56,0,0,0-2.23.92c-.44.38-.63.66-.67.63a1.78,1.78,0,0,1,.53-.78,4.37,4.37,0,0,1,2.3-1.16,7.69,7.69,0,0,1,3.82.31A36.65,36.65,0,0,1,402.9,432a10.46,10.46,0,0,0,4.29,1.18,9.69,9.69,0,0,0,3.59-.58A15.83,15.83,0,0,0,413.75,431Z" transform="translate(-109.95 -17.58)"/><path class="cls-8" d="M352.17,430.45s-.08.19-.35.37a2.24,2.24,0,0,1-1.34.35,4,4,0,0,1-2-.56c-.67-.37-1.31-.88-2-1.33a5.37,5.37,0,0,0-4-.8c-1.06.2-1.64.59-1.69.5a2.9,2.9,0,0,1,1.61-.88,5.29,5.29,0,0,1,4.34.72c.74.47,1.35,1,2,1.35a4.11,4.11,0,0,0,1.73.61A3.22,3.22,0,0,0,352.17,430.45Z" transform="translate(-109.95 -17.58)"/><path class="cls-12" d="M323.35,464.7l15.43-1.86L349.66,470l41.57-10,1.22-23.21,18.66-.46-.43,27.23A15.81,15.81,0,0,1,394.44,479l-60.89-1.69L331,472.17l-13.06-.39Z" transform="translate(-109.95 -17.58)"/><path class="cls-13" d="M390.71,460s-.27.09-.78.23l-2.27.59-8.34,2.08-27.57,6.68-2.56.62-.11,0-.08-.06c-3.85-2.52-7.51-4.93-10.86-7.14l.14,0-15.43,1.79.1-.06L318.87,470l-1.1,1.36a3.48,3.48,0,0,1-.4.45,3.09,3.09,0,0,1,.33-.5l1-1.41,4-5.26,0-.05h.07l15.42-1.93h.08l.07.05,10.88,7.11-.19,0,2.57-.62,27.6-6.54,8.38-1.93,2.28-.5A4.35,4.35,0,0,1,390.71,460Z" transform="translate(-109.95 -17.58)"/><path class="cls-13" d="M331.78,469.12a37.93,37.93,0,0,1-6,.24h-1.1l.16-.06a28,28,0,0,1-3.89,3,29.09,29.09,0,0,1,3.58-3.35l.07-.06h1.18A36.54,36.54,0,0,1,331.78,469.12Z" transform="translate(-109.95 -17.58)"/><path class="cls-13" d="M398.36,464.65a11.11,11.11,0,0,0-3-3.16,11.47,11.47,0,0,0-4.17-1.36,2.77,2.77,0,0,1,1.35-.11,7.14,7.14,0,0,1,5.36,3.38C398.3,464.12,398.42,464.64,398.36,464.65Z" transform="translate(-109.95 -17.58)"/></g></svg>