<svg xmlns="http://www.w3.org/2000/svg" viewBox="0 0 988.89 620"><defs><style>.cls-1,.cls-13{fill:#fff;}.cls-2{fill:#fae5ee;}.cls-10,.cls-11,.cls-12,.cls-13,.cls-14,.cls-15,.cls-16,.cls-17,.cls-18,.cls-19,.cls-2,.cls-20,.cls-21,.cls-22,.cls-23,.cls-24,.cls-27,.cls-3,.cls-30,.cls-31,.cls-32,.cls-33,.cls-4,.cls-5,.cls-6,.cls-7,.cls-8{fill-rule:evenodd;}.cls-3{fill:#f0eef6;}.cls-4{fill:#e85d96;}.cls-5{fill:#dd4586;}.cls-34,.cls-6{fill:#ef92a3;}.cls-7{fill:#f3c4d2;}.cls-8{fill:#0c1332;}.cls-10,.cls-9{fill:#dcd7eb;}.cls-11{fill:#cfc4e0;}.cls-12{fill:#242b5c;}.cls-14{fill:#151f42;}.cls-15{fill:#e74862;}.cls-16,.cls-26{fill:#7a72b3;}.cls-17{fill:#f6d6e0;}.cls-18{fill:#382982;}.cls-19,.cls-25{fill:#4a3b93;}.cls-20{fill:#f2b9c7;}.cls-21{fill:#ed859c;}.cls-22{fill:#18214c;}.cls-23,.cls-28{fill:#ea8cad;}.cls-24{fill:#1a274c;}.cls-27{fill:#e76b9b;}.cls-29{fill:#dce7f5;}.cls-30{fill:#bd3f65;}.cls-31{fill:#01051a;}.cls-32{fill:#f1a1b0;}.cls-33{fill:#f5d2dd;}</style></defs><title>10</title><g id="BACKGROUND"><rect class="cls-1" x="128.21" y="57.07" width="750" height="500"/></g><g id="OBJECTS"><path class="cls-2" d="M419.83,514.22s-2.39.41-2.56,2.21-.22,2.34-.34,3.59,2.57,2.68,6.55,3.06,12.15.61,19.55-4.27S471.36,486,480.61,470c0,0,1.24-3.5-1-5.64a20.24,20.24,0,0,0-3.76-3.12,4.42,4.42,0,0,0-2.31-.1s1.78,1.12-.63,5-11.24,20.35-16.78,30.53-15.39,18.53-24.79,19.6-11.66.11-11.66.11A4,4,0,0,1,419.83,514.22Z" transform="translate(-60.29 -68.59)"/><path class="cls-3" d="M863.23,659.7C1093.71,477.23,824.53,279,710.77,400.58,825.46,8.45,110.35-21.49,272.45,394.82c0,0-274.43,9.21-106.73,251.06L863.23,659.7ZM210.73,294.63c13.09,64.45-37.33,97.05-73.89,98-23,.62-35.19-12.12-36.61-27.36-2.71-29.12,21.44-40.3,44.25-46.61,11.75-3.25,23.34-7.79,27.94-21.32,10.17-29.85,31-38.6,38.31-2.73ZM888,650.92s85.12-46.79,78.15-153.32c0,0-.25-2.74,1.62-2.86s31.48,85.87-31.24,149.58Z" transform="translate(-60.29 -68.59)"/><path class="cls-4" d="M274.1,403.15c-30.2-30.75-52.66,8.31-49.52,47.51,3,37.16,35,164.69,29.07,218.34h12.27C295.92,600.21,312.75,442.5,274.1,403.15Z" transform="translate(-60.29 -68.59)"/><path class="cls-5" d="M261.41,669c29.2-108.43-7.77-258.32-7.9-258.83a1.73,1.73,0,0,0-2.09-1.28,1.75,1.75,0,0,0-1.28,2.1c.13.5,37.15,150.57,7.72,258Z" transform="translate(-60.29 -68.59)"/><path class="cls-6" d="M199.61,470.9c-31.82-16.86-39.85,19.92-27.44,50.36C182.45,546.48,227.86,621.08,245,669h16.17C262.58,602.77,237.16,490.8,199.61,470.9Z" transform="translate(-60.29 -68.59)"/><path class="cls-7" d="M255.3,669C244.78,579.42,185.2,482.05,185,481.69a1.45,1.45,0,0,0-2.47,1.51c.21.35,59.4,97.09,69.92,185.8Z" transform="translate(-60.29 -68.59)"/><path class="cls-7" d="M334.09,513.42c30.84-13.47,35.73,21.37,22,48.86-9.27,18.59-42.68,66.22-65.18,106.72H265.26C274,607.72,302.21,527.34,334.09,513.42Z" transform="translate(-60.29 -68.59)"/><path class="cls-6" d="M274.43,669c21.9-74.24,72.32-144.21,72.53-144.5a1.35,1.35,0,0,1,2.2,1.58c-.2.28-50.09,69.52-71.94,142.92Z" transform="translate(-60.29 -68.59)"/><path class="cls-4" d="M784,466.1c26.4-20.92,44.3,7.07,40.55,34.57-3.56,26.07-34.24,115-30.72,152.89l-10.37-.29C760.05,604.18,750.25,492.88,784,466.1Z" transform="translate(-60.29 -68.59)"/><path class="cls-5" d="M787.31,653.38c-21.65-77,13.82-181.5,13.94-181.86a1.53,1.53,0,0,1,1.81-.85,1.21,1.21,0,0,1,1,1.5c-.12.36-35.64,105-13.76,181.29Z" transform="translate(-60.29 -68.59)"/><path class="cls-6" d="M845.13,515.49c27.38-11.11,33.14,15,21.79,36.06-9.4,17.49-49.9,68.9-65.76,102.21l-13.68-.38C788.18,606.77,812.81,528.61,845.13,515.49Z" transform="translate(-60.29 -68.59)"/><path class="cls-7" d="M792.48,653.52c11.41-62.76,64.52-129.85,64.71-130.09a1.37,1.37,0,0,1,1.7-.3.92.92,0,0,1,.36,1.41c-.19.24-53,66.9-64.34,129.05Z" transform="translate(-60.29 -68.59)"/><path class="cls-7" d="M730.22,542.26c-25.7-10.2-30.82,14.19-20,33.84,7.31,13.3,34.23,47.57,52.12,76.59l21.71.6C778.35,610,756.78,552.79,730.22,542.26Z" transform="translate(-60.29 -68.59)"/><path class="cls-6" d="M776.3,653.07C759.87,600.34,719.19,550,719,549.75a1.29,1.29,0,0,0-1.59-.26.86.86,0,0,0-.31,1.32c.16.2,40.41,50.06,56.82,102.2Z" transform="translate(-60.29 -68.59)"/><path class="cls-8" d="M108.66,641.7H982.44a10.46,10.46,0,0,1,10.43,10.42h0a10.45,10.45,0,0,1-10.43,10.42H947.28a5.81,5.81,0,0,0-5.79,5.79h0a5.81,5.81,0,0,0,5.79,5.79h12.87a7.26,7.26,0,0,1,7.23,7.24h0a7.25,7.25,0,0,1-7.23,7.23h-828a7.26,7.26,0,0,1-7.24-7.23h0a7.26,7.26,0,0,1,7.24-7.24h10.13a5.81,5.81,0,0,0,5.79-5.79h0a5.81,5.81,0,0,0-5.79-5.79H108.66a10.45,10.45,0,0,1-10.42-10.42h0a10.45,10.45,0,0,1,10.42-10.42Zm5.43,46.89a7,7,0,0,0,6.94-6.94v-.58a7,7,0,0,0-6.94-7h0a7,7,0,0,0-7,7v.58a7,7,0,0,0,7,6.94Z" transform="translate(-60.29 -68.59)"/><rect class="cls-9" x="678.84" y="260.4" width="16.04" height="28.37" rx="8.02"/><path class="cls-10" d="M733.55,329h27.19a6.44,6.44,0,0,1,6.42,6.42h0a6.43,6.43,0,0,1-6.42,6.41H733.55a6.42,6.42,0,0,1-6.41-6.41h0A6.43,6.43,0,0,1,733.55,329Z" transform="translate(-60.29 -68.59)"/><path class="cls-11" d="M750.59,458.26a54.81,54.81,0,1,0-54.8-54.81A54.91,54.91,0,0,0,750.59,458.26Z" transform="translate(-60.29 -68.59)"/><path class="cls-8" d="M777.65,342.68h0a5,5,0,0,1,1.81,6.76l-3.8,6.59a5,5,0,0,1-6.76,1.81h0a5,5,0,0,1-1.81-6.76l3.8-6.59A5,5,0,0,1,777.65,342.68Z" transform="translate(-60.29 -68.59)"/><path class="cls-12" d="M770.39,338.49l14.53,8.38a4,4,0,0,1,1.45,5.41h0a4,4,0,0,1-5.41,1.45l-14.53-8.39a4,4,0,0,1-1.45-5.41h0A4,4,0,0,1,770.39,338.49Z" transform="translate(-60.29 -68.59)"/><path class="cls-8" d="M708.24,342.68h0a5,5,0,0,0-1.81,6.76l3.8,6.59a5,5,0,0,0,6.76,1.81h0a5,5,0,0,0,1.81-6.76l-3.8-6.59A5,5,0,0,0,708.24,342.68Z" transform="translate(-60.29 -68.59)"/><path class="cls-12" d="M715.5,338.49,701,346.87a4,4,0,0,0-1.45,5.41h0a4,4,0,0,0,5.41,1.45l14.53-8.39a4,4,0,0,0,1.45-5.41h0A4,4,0,0,0,715.5,338.49Z" transform="translate(-60.29 -68.59)"/><path class="cls-8" d="M743,328.67h0a7.17,7.17,0,0,1,7.15,7.15v11A7.17,7.17,0,0,1,743,354h0a7.18,7.18,0,0,1-7.16-7.15v-11A7.18,7.18,0,0,1,743,328.67Z" transform="translate(-60.29 -68.59)"/><path class="cls-12" d="M743,454.57a54.81,54.81,0,1,0-54.81-54.81A54.91,54.91,0,0,0,743,454.57Z" transform="translate(-60.29 -68.59)"/><path class="cls-13" d="M743,442.65a42.89,42.89,0,1,0-42.89-42.89A43,43,0,0,0,743,442.65Z" transform="translate(-60.29 -68.59)"/><path class="cls-12" d="M730.82,328.67h24.25a5.74,5.74,0,0,1,5.73,5.72h0a5.75,5.75,0,0,1-5.73,5.73H730.82a5.75,5.75,0,0,1-5.73-5.73h0A5.74,5.74,0,0,1,730.82,328.67Z" transform="translate(-60.29 -68.59)"/><path class="cls-14" d="M743,361.32h0a1.58,1.58,0,0,1,1.57,1.58v2.5A1.57,1.57,0,0,1,743,367h0a1.57,1.57,0,0,1-1.58-1.57v-2.5A1.58,1.58,0,0,1,743,361.32Z" transform="translate(-60.29 -68.59)"/><path class="cls-14" d="M743,432.55h0a1.58,1.58,0,0,1,1.57,1.58v2.5a1.58,1.58,0,0,1-1.57,1.58h0a1.58,1.58,0,0,1-1.58-1.58v-2.5A1.58,1.58,0,0,1,743,432.55Z" transform="translate(-60.29 -68.59)"/><path class="cls-14" d="M770.13,372.58h0a1.59,1.59,0,0,1,0,2.23l-1.77,1.77a1.59,1.59,0,0,1-2.23,0h0a1.59,1.59,0,0,1,0-2.23l1.77-1.77A1.59,1.59,0,0,1,770.13,372.58Z" transform="translate(-60.29 -68.59)"/><path class="cls-14" d="M719.76,423h0a1.57,1.57,0,0,1,0,2.23L718,427a1.59,1.59,0,0,1-2.23,0h0a1.59,1.59,0,0,1,0-2.23l1.77-1.77A1.57,1.57,0,0,1,719.76,423Z" transform="translate(-60.29 -68.59)"/><path class="cls-14" d="M781.39,399.76h0a1.58,1.58,0,0,1-1.58,1.58h-2.5a1.58,1.58,0,0,1-1.58-1.58h0a1.57,1.57,0,0,1,1.58-1.57h2.5A1.57,1.57,0,0,1,781.39,399.76Z" transform="translate(-60.29 -68.59)"/><path class="cls-14" d="M710.16,399.76h0a1.58,1.58,0,0,1-1.58,1.58h-2.5a1.58,1.58,0,0,1-1.58-1.58h0a1.57,1.57,0,0,1,1.58-1.57h2.5A1.57,1.57,0,0,1,710.16,399.76Z" transform="translate(-60.29 -68.59)"/><path class="cls-14" d="M770.13,427h0a1.59,1.59,0,0,1-2.23,0l-1.77-1.77a1.59,1.59,0,0,1,0-2.23h0a1.57,1.57,0,0,1,2.23,0l1.77,1.77A1.59,1.59,0,0,1,770.13,427Z" transform="translate(-60.29 -68.59)"/><path class="cls-14" d="M719.76,376.58h0a1.59,1.59,0,0,1-2.23,0l-1.77-1.77a1.59,1.59,0,0,1,0-2.23h0a1.59,1.59,0,0,1,2.23,0l1.77,1.77A1.57,1.57,0,0,1,719.76,376.58Z" transform="translate(-60.29 -68.59)"/><path class="cls-15" d="M743,372.93h0a1.58,1.58,0,0,1,1.57,1.58v25a1.58,1.58,0,0,1-1.57,1.58h0a1.58,1.58,0,0,1-1.58-1.58v-25A1.58,1.58,0,0,1,743,372.93Z" transform="translate(-60.29 -68.59)"/><path class="cls-15" d="M724,418.74h0a1.59,1.59,0,0,1,0-2.23l17.67-17.67a1.59,1.59,0,0,1,2.23,0h0a1.59,1.59,0,0,1,0,2.23L726.2,418.74A1.59,1.59,0,0,1,724,418.74Z" transform="translate(-60.29 -68.59)"/><path class="cls-3" d="M739,138H639.07a13.23,13.23,0,0,0-13.19,13.19v101.7a1.47,1.47,0,0,0,2.51,1l22.49-22.48H739a13.24,13.24,0,0,0,13.2-13.2V151.15A13.23,13.23,0,0,0,739,138Z" transform="translate(-60.29 -68.59)"/><path class="cls-6" d="M733.33,133.72H633.4a13.24,13.24,0,0,0-13.19,13.2v101.7a1.48,1.48,0,0,0,2.52,1l22.48-22.49h88.12A13.23,13.23,0,0,0,746.52,214V146.92A13.24,13.24,0,0,0,733.33,133.72Z" transform="translate(-60.29 -68.59)"/><path class="cls-13" d="M683.37,148.84A30.22,30.22,0,1,1,662,157.69a30.13,30.13,0,0,1,21.38-8.85Zm19.51,10.71A27.58,27.58,0,1,0,711,179.06,27.48,27.48,0,0,0,702.88,159.55Z" transform="translate(-60.29 -68.59)"/><path class="cls-13" d="M683.37,157.48a.82.82,0,0,1-.82-.81v-1.42a.82.82,0,0,1,.82-.82.82.82,0,0,1,.81.82v1.42a.81.81,0,0,1-.81.81Zm0,46.21a.82.82,0,0,1-.82-.82v-1.42a.82.82,0,0,1,.82-.81.81.81,0,0,1,.81.81v1.42a.82.82,0,0,1-.81.82Zm10.78-43.32a.81.81,0,0,1-.29-1.11l.71-1.23a.81.81,0,1,1,1.41.81l-.71,1.24a.83.83,0,0,1-1.12.29Zm-23.1,40a.81.81,0,0,1-.3-1.11l.71-1.23a.82.82,0,0,1,1.42.81l-.71,1.23a.82.82,0,0,1-1.12.3Zm31-32.12a.81.81,0,0,1,.3-1.11l1.23-.71a.82.82,0,1,1,.82,1.41l-1.23.71a.82.82,0,0,1-1.12-.3Zm-40,23.11a.83.83,0,0,1,.29-1.12l1.24-.71a.81.81,0,1,1,.81,1.41l-1.23.71a.81.81,0,0,1-1.11-.29Zm42.9-12.32a.82.82,0,0,1,.82-.82h1.42a.82.82,0,0,1,0,1.64h-1.42a.82.82,0,0,1-.82-.82Zm-46.2,0a.82.82,0,0,1,.81-.82H661a.82.82,0,1,1,0,1.64h-1.42a.82.82,0,0,1-.81-.82Zm43.31,10.79a.83.83,0,0,1,1.12-.3l1.23.71a.82.82,0,1,1-.82,1.41l-1.23-.71a.81.81,0,0,1-.3-1.11Zm-40-23.1a.81.81,0,0,1,1.11-.3l1.23.71a.81.81,0,1,1-.81,1.41l-1.24-.71a.81.81,0,0,1-.29-1.11Zm32.11,31a.82.82,0,0,1,1.12.3l.71,1.23a.81.81,0,0,1-.3,1.11.81.81,0,0,1-1.11-.3l-.71-1.23a.81.81,0,0,1,.29-1.11Zm-23.1-40a.83.83,0,0,1,1.12.3l.71,1.23a.81.81,0,0,1-.3,1.11.83.83,0,0,1-1.12-.29l-.71-1.23A.83.83,0,0,1,671.05,157.73Z" transform="translate(-60.29 -68.59)"/><path class="cls-13" d="M683.37,180.16h0a1.1,1.1,0,0,0,1.1-1.1V160.33a1.1,1.1,0,0,0-1.1-1.1h0a1.11,1.11,0,0,0-1.11,1.1v18.73A1.11,1.11,0,0,0,683.37,180.16Z" transform="translate(-60.29 -68.59)"/><path class="cls-13" d="M682.59,178.28h0a1.1,1.1,0,0,0,0,1.56l9.71,9.71a1.09,1.09,0,0,0,1.55,0h0a1.1,1.1,0,0,0,0-1.56l-9.71-9.71A1.09,1.09,0,0,0,682.59,178.28Z" transform="translate(-60.29 -68.59)"/><path class="cls-10" d="M813.2,286.47Zm5.51-21A10.59,10.59,0,1,1,815.6,273a10.58,10.58,0,0,1,3.11-7.49ZM821,255a18.6,18.6,0,0,0-7.8,4.52.66.66,0,0,1-.78.09l-4.92-2.84,0,0a1.24,1.24,0,0,0-.9-.1,1.2,1.2,0,0,0-.74.57l0,0-3.46,6a1.22,1.22,0,0,0,.45,1.67l0,0,4.89,2.82a.64.64,0,0,1,.3.71h0a20,20,0,0,0-.41,2.23,20.15,20.15,0,0,0,0,4.57,20.57,20.57,0,0,0,.41,2.24.63.63,0,0,1-.34.73l-4.88,2.82h0a1.22,1.22,0,0,0-.45,1.67l3.49,6h0a1.22,1.22,0,0,0,1.66.45l0,0,4.89-2.82a.65.65,0,0,1,.77.09,19.13,19.13,0,0,0,3.64,2.75A18.62,18.62,0,0,0,821,291a.67.67,0,0,1,.48.63v5.68a1.19,1.19,0,0,0,.36.86,1.2,1.2,0,0,0,.85.36h7a1.21,1.21,0,0,0,.86-.36,1.23,1.23,0,0,0,.36-.86v-5.68a.64.64,0,0,1,.5-.63,19.14,19.14,0,0,0,4.15-1.77,18.88,18.88,0,0,0,3.65-2.75.65.65,0,0,1,.8-.07l4.89,2.82a1.22,1.22,0,0,0,1.67-.45l0,0,3.47-6h0a1.26,1.26,0,0,0,.11-.93,1.21,1.21,0,0,0-.56-.74l-4.92-2.84a.64.64,0,0,1-.31-.71h0a20.59,20.59,0,0,0,.42-2.24,20.15,20.15,0,0,0,0-4.57,20,20,0,0,0-.42-2.23.65.65,0,0,1,.35-.74l4.88-2.82a1.21,1.21,0,0,0,.56-.74,1.26,1.26,0,0,0-.11-.93l0,0-3.47-6h0a1.22,1.22,0,0,0-1.67-.45h0L840,259.61a.65.65,0,0,1-.79-.11,18.65,18.65,0,0,0-3.63-2.73,18.43,18.43,0,0,0-4.18-1.77.67.67,0,0,1-.47-.63v-5.68a1.23,1.23,0,0,0-.36-.86,1.21,1.21,0,0,0-.86-.36h-7a1.2,1.2,0,0,0-.85.36,1.19,1.19,0,0,0-.36.86v5.68A.65.65,0,0,1,821,255Z" transform="translate(-60.29 -68.59)"/><path class="cls-10" d="M885.4,155.16a30.57,30.57,0,1,1-6.67,10,30.58,30.58,0,0,1,6.67-10Zm11-4A28.11,28.11,0,1,0,907.1,149a27.87,27.87,0,0,0-10.66,2.1Zm-3.39-22.58a49.27,49.27,0,0,0-5.65,2,50.18,50.18,0,0,0-5.44,2.72,50.29,50.29,0,0,0-9.79,7.38,3.27,3.27,0,0,1-1.84.88,3.21,3.21,0,0,1-2-.42c-4.51-2.6-9.25-5.17-13.66-7.89a2,2,0,0,0-.66-.2,2,2,0,0,0-.76.06,1.79,1.79,0,0,0-.69.34,1.93,1.93,0,0,0-.5.56c-3.28,5-6.58,11.4-9.62,16.67a1.93,1.93,0,0,0-.24.71,1.83,1.83,0,0,0,0,.77,2.12,2.12,0,0,0,.34.69,1.84,1.84,0,0,0,.57.5c4.05,2.68,9.28,5.37,13.57,7.85a3.17,3.17,0,0,1,1.36,1.52,3,3,0,0,1,.2.67l.28.09-.31,1.27c-.25,1-.46,2-.65,3s-.33,2-.45,3-.22,2.05-.28,3.05-.09,2-.09,3.09,0,2.1.09,3.08.15,2,.28,3.06.28,2.06.45,3,.4,2,.65,3a3.23,3.23,0,0,1-1.66,3.63l-12,6.94h0l-1.42.83a2,2,0,0,0-.57.49,2.22,2.22,0,0,0-.34.69,1.89,1.89,0,0,0,0,.78,1.93,1.93,0,0,0,.24.71l8.9,15.42h0l.72,1.25a2.07,2.07,0,0,0,.5.56,1.94,1.94,0,0,0,.69.34,2,2,0,0,0,.77.06,1.93,1.93,0,0,0,.71-.24c4.31-2.71,9.16-5.29,13.61-7.86a3.24,3.24,0,0,1,3.82.46h0a51.1,51.1,0,0,0,9.79,7.38,49.91,49.91,0,0,0,11.23,4.77,3.15,3.15,0,0,1,1.68,1.15,3.19,3.19,0,0,1,.65,1.94V244a2,2,0,0,0,.14.74,2.12,2.12,0,0,0,.43.64,1.83,1.83,0,0,0,.64.42,1.78,1.78,0,0,0,.74.15h19.25a1.85,1.85,0,0,0,.74-.15,2,2,0,0,0,.63-.42,2.12,2.12,0,0,0,.43-.64,2,2,0,0,0,.14-.74V228.32a3.24,3.24,0,0,1,2.48-3.13,47.5,47.5,0,0,0,5.65-2,48.35,48.35,0,0,0,5.44-2.71,50.29,50.29,0,0,0,9.79-7.38,3.24,3.24,0,0,1,4-.37l13.44,7.76a1.81,1.81,0,0,0,.71.24,2,2,0,0,0,.77-.06,2,2,0,0,0,1.19-.9c3.19-5.57,6.43-11.11,9.63-16.67a2.38,2.38,0,0,0,.24-.71,2.08,2.08,0,0,0-.06-.78,1.94,1.94,0,0,0-.34-.69,1.62,1.62,0,0,0-.55-.49l-13.59-7.85a3.22,3.22,0,0,1-1.36-1.52,4.51,4.51,0,0,1-.17-.52l-.35-.07.35-1.44c.25-1,.47-2,.65-3s.33-2,.46-3,.22-2.05.28-3.06.09-2,.09-3.08,0-2.1-.09-3.08-.16-2-.28-3.06-.29-2.08-.46-3-.4-2-.65-3a3.22,3.22,0,0,1,.21-2.13,3.27,3.27,0,0,1,1.44-1.5l13.46-7.77a1.76,1.76,0,0,0,.56-.49,1.9,1.9,0,0,0,.34-.7,2,2,0,0,0,.06-.77,2.38,2.38,0,0,0-.24-.71c-3.29-4.89-6.58-11.41-9.63-16.67a2,2,0,0,0-1.19-.9,2,2,0,0,0-.77-.06,1.93,1.93,0,0,0-.71.24l-13.6,7.85a3.17,3.17,0,0,1-2,.41,3.25,3.25,0,0,1-1.84-.91,50,50,0,0,0-4.65-4,50.53,50.53,0,0,0-5.1-3.37,48.92,48.92,0,0,0-5.47-2.73,49.68,49.68,0,0,0-5.76-2,3.25,3.25,0,0,1-1.68-1.16,3.15,3.15,0,0,1-.65-1.94V109.7a1.94,1.94,0,0,0-.14-.73,2.12,2.12,0,0,0-.43-.64,2.08,2.08,0,0,0-.63-.43,2,2,0,0,0-.74-.14H897.48a2,2,0,0,0-.74.14,2,2,0,0,0-.64.43,2,2,0,0,0-.57,1.37v15.69a3.23,3.23,0,0,1-.69,2,3.29,3.29,0,0,1-1.79,1.14Zm-6.77-.6a56.89,56.89,0,0,0-5.74,2.87,55,55,0,0,0-5.41,3.58,53.31,53.31,0,0,0-4.93,4.22.41.41,0,0,1-.21.1.47.47,0,0,1-.24,0q-6.86-4-13.71-7.92a4.92,4.92,0,0,0-1.72-.54,4.91,4.91,0,0,0-3.48,1,4.62,4.62,0,0,0-1.23,1.4c-3.31,5.37-6.46,11.18-9.63,16.67a4.63,4.63,0,0,0-.59,1.77,4.89,4.89,0,0,0,.12,1.87,4.8,4.8,0,0,0,.83,1.68,4.73,4.73,0,0,0,1.4,1.22c4.37,2.71,9.11,5.27,13.58,7.85a.35.35,0,0,1,.16.18.39.39,0,0,1,0,.24l-.31,1.27h0c-.14.62-.27,1.24-.38,1.88-.2,1.09-.37,2.16-.5,3.21s-.22,2.11-.29,3.22-.1,2.19-.1,3.25,0,2.14.1,3.25.17,2.18.29,3.22.3,2.12.5,3.21.42,2.13.67,3.15a.43.43,0,0,1,0,.25.42.42,0,0,1-.17.18c-5,2.67-10.06,5.8-15,8.65l.18.22-.16.19a5,5,0,0,0-.82,1.68,4.88,4.88,0,0,0-.12,1.87,4.63,4.63,0,0,0,.59,1.77l10.35,17.92.19-.12.32.27a4.8,4.8,0,0,0,5.26.38c4.53-2.4,9.19-5.3,13.66-7.88a.34.34,0,0,1,.23,0,.37.37,0,0,1,.22.1,54.77,54.77,0,0,0,4.93,4.21,52,52,0,0,0,5.4,3.57,52.81,52.81,0,0,0,5.78,2.89,53.66,53.66,0,0,0,6.09,2.16.39.39,0,0,1,.2.13.43.43,0,0,1,.08.23V244a4.85,4.85,0,0,0,.36,1.83,4.93,4.93,0,0,0,1.05,1.56,4.73,4.73,0,0,0,3.38,1.4h19.25a4.8,4.8,0,0,0,1.82-.36,5,5,0,0,0,1.56-1,4.9,4.9,0,0,0,1-1.56,4.67,4.67,0,0,0,.37-1.83V228.32a.35.35,0,0,1,.07-.23.41.41,0,0,1,.22-.13l.06,0a53.37,53.37,0,0,0,6-2.14,55.86,55.86,0,0,0,5.74-2.87,55,55,0,0,0,5.41-3.58,53.31,53.31,0,0,0,4.93-4.22.32.32,0,0,1,.22-.1.37.37,0,0,1,.25.06l13.59,7.84a4.55,4.55,0,0,0,1.76.6,4.89,4.89,0,0,0,3.54-1,4.66,4.66,0,0,0,1.21-1.36c3.57-5.74,6.94-12,10.35-17.93l-.19-.1a3.73,3.73,0,0,0,.09-.46,5,5,0,0,0-.13-1.86,5,5,0,0,0-.82-1.68,4.87,4.87,0,0,0-1.4-1.23l-13.59-7.84a.4.4,0,0,1-.16-.18.42.42,0,0,1,0-.25l.35-1.43h0c.13-.56.24-1.12.35-1.7.19-1.09.36-2.16.49-3.21s.22-2.12.29-3.22.1-2.19.1-3.25,0-2.14-.1-3.25-.17-2.18-.29-3.23-.29-2.11-.49-3.21-.43-2.12-.68-3.14a.37.37,0,0,1,0-.25.33.33,0,0,1,.17-.18l13.57-7.84a4.62,4.62,0,0,0,1.4-1.23,4.85,4.85,0,0,0,1-3.53,4.84,4.84,0,0,0-.58-1.74c-3.23-6-6.94-12-10.36-18l-.2.12a2.69,2.69,0,0,0-.32-.27,4.62,4.62,0,0,0-1.68-.82,4.83,4.83,0,0,0-1.86-.13,4.7,4.7,0,0,0-1.76.59l-1,.58h0l-12.6,7.27a.42.42,0,0,1-.24,0,.39.39,0,0,1-.22-.11l0,0a52,52,0,0,0-4.92-4.19,54.5,54.5,0,0,0-5.38-3.57,52.74,52.74,0,0,0-5.78-2.88,51.78,51.78,0,0,0-6.09-2.16.41.41,0,0,1-.2-.14.33.33,0,0,1-.07-.23V109.7a4.62,4.62,0,0,0-.37-1.82,4.77,4.77,0,0,0-1-1.56,4.86,4.86,0,0,0-1.55-1,4.8,4.8,0,0,0-1.82-.36H897.48a4.85,4.85,0,0,0-1.83.36,5,5,0,0,0-1.56,1,4.81,4.81,0,0,0-1.4,3.38v15.69a.43.43,0,0,1-.08.24.42.42,0,0,1-.21.13l-.06,0A55.6,55.6,0,0,0,886.28,127.93Z" transform="translate(-60.29 -68.59)"/><path class="cls-10" d="M944.84,318.72a1.9,1.9,0,1,1,3.8,0v8.55a1.9,1.9,0,1,1-3.8,0v-8.55Zm-13,6.94a1.9,1.9,0,0,1,2.69-2.69l6,6a1.9,1.9,0,1,1-2.69,2.68l-6-6Zm-4.25,14.06a1.9,1.9,0,1,1,0-3.8h8.55a1.9,1.9,0,1,1,0,3.8Zm6.94,12.95a1.9,1.9,0,1,1-2.69-2.68l6-6.05a1.9,1.9,0,1,1,2.69,2.69l-6,6Zm14.07,4.26a1.9,1.9,0,1,1-3.8,0v-8.55a1.9,1.9,0,1,1,3.8,0v8.55Zm13-6.94a1.9,1.9,0,1,1-2.69,2.68l-6-6a1.9,1.9,0,0,1,2.68-2.69l6.05,6.05Zm4.25-14.07a1.9,1.9,0,0,1,0,3.8h-8.55a1.9,1.9,0,1,1,0-3.8ZM958.9,323a1.9,1.9,0,0,1,2.69,2.69l-6.05,6a1.9,1.9,0,0,1-2.68-2.68Z" transform="translate(-60.29 -68.59)"/><path class="cls-10" d="M153.37,123.8a1.9,1.9,0,1,1,3.8,0v8.55a1.9,1.9,0,1,1-3.8,0V123.8Zm-13,6.94a1.9,1.9,0,1,1,2.69-2.69l6,6a1.9,1.9,0,0,1-2.68,2.69l-6.05-6Zm-4.25,14.06a1.9,1.9,0,1,1,0-3.8h8.55a1.9,1.9,0,0,1,0,3.8Zm6.94,12.95a1.9,1.9,0,1,1-2.69-2.68l6.05-6a1.9,1.9,0,0,1,2.68,2.69l-6,6ZM157.17,162a1.9,1.9,0,0,1-3.8,0v-8.54a1.9,1.9,0,1,1,3.8,0V162Zm13-6.93a1.9,1.9,0,0,1-2.68,2.68l-6.05-6a1.9,1.9,0,0,1,2.69-2.69l6,6ZM174.38,141a1.9,1.9,0,0,1,0,3.8h-8.55a1.9,1.9,0,0,1,0-3.8Zm-6.94-12.95a1.9,1.9,0,0,1,2.68,2.69l-6,6a1.9,1.9,0,0,1-2.69-2.69Z" transform="translate(-60.29 -68.59)"/><path class="cls-10" d="M318.4,365.74a1.9,1.9,0,1,1,3.8,0v8.55a1.9,1.9,0,1,1-3.8,0v-8.55Zm-12.95,6.94a1.9,1.9,0,0,1,2.69-2.69l6,6a1.9,1.9,0,1,1-2.68,2.69l-6.05-6Zm-4.25,14.06a1.9,1.9,0,1,1,0-3.8h8.55a1.9,1.9,0,0,1,0,3.8Zm6.94,12.95a1.9,1.9,0,1,1-2.69-2.69l6.05-6a1.9,1.9,0,1,1,2.68,2.69l-6,6Zm14.06,4.25a1.9,1.9,0,1,1-3.8,0V395.4a1.9,1.9,0,1,1,3.8,0v8.54ZM335.15,397a1.9,1.9,0,1,1-2.68,2.69l-6.05-6a1.9,1.9,0,1,1,2.69-2.69l6,6Zm4.26-14.06a1.9,1.9,0,0,1,0,3.8h-8.55a1.9,1.9,0,0,1,0-3.8ZM332.47,370a1.9,1.9,0,0,1,2.68,2.69l-6,6a1.9,1.9,0,1,1-2.69-2.69Z" transform="translate(-60.29 -68.59)"/><path class="cls-10" d="M866.16,437.79a23.42,23.42,0,0,1,8.15,1.46,6.24,6.24,0,0,1,7.06-1.57,10.45,10.45,0,0,1,16.77-7.5,6.21,6.21,0,0,1,5-2.56,6.8,6.8,0,0,1,1,.08,13.48,13.48,0,0,1,12.4-18.79,13.8,13.8,0,0,1,4,.59,6.12,6.12,0,0,1,5.55-3.52h.18c0-.49,0-1,0-1.47a24.25,24.25,0,0,1,48.5,0c0,.19,0,.37,0,.56a14.68,14.68,0,0,1,3.66-.46,14.86,14.86,0,0,1,6.94,1.72,19.43,19.43,0,0,1,34.14,17.51h.59a9.56,9.56,0,0,1,9.56,9.56,9.94,9.94,0,0,1-.17,1.82h.2a5.51,5.51,0,0,1,5.51,5.33,13.55,13.55,0,0,1,2.56-.24,13,13,0,0,1,9,3.4c6.21,5.87-.57,7.4-7.11,7.4H859c-6.81,0-16.55,1.12-9.79-6A23.33,23.33,0,0,1,866.16,437.79Z" transform="translate(-60.29 -68.59)"/><path class="cls-10" d="M161,229.6a23.28,23.28,0,0,1,8.12,1.45,6.22,6.22,0,0,1,4.63-2.05,6.07,6.07,0,0,1,2.41.49A10.41,10.41,0,0,1,192.91,222a6.16,6.16,0,0,1,5-2.55,6.66,6.66,0,0,1,1,.08,13.46,13.46,0,0,1,16.35-18.14,6.1,6.1,0,0,1,5.53-3.52H221c0-.48,0-1,0-1.46a24.17,24.17,0,0,1,48.34,0V197a14.58,14.58,0,0,1,3.64-.45,14.81,14.81,0,0,1,6.93,1.71,19.37,19.37,0,0,1,34,17.45h.58a9.53,9.53,0,0,1,9.54,9.53,9.83,9.83,0,0,1-.17,1.81h.2a5.49,5.49,0,0,1,5.49,5.31,13.44,13.44,0,0,1,2.55-.24,13,13,0,0,1,9,3.39c6.2,5.85-.57,7.38-7.08,7.38H153.87c-6.8,0-16.5,1.11-9.76-6A23.25,23.25,0,0,1,161,229.6Z" transform="translate(-60.29 -68.59)"/><rect class="cls-9" x="321.19" y="479.89" width="8.25" height="8.25" rx="1.65"/><rect class="cls-9" x="338.1" y="479.89" width="8.25" height="8.25" rx="1.65"/><rect class="cls-9" x="355.02" y="479.89" width="8.25" height="8.25" rx="1.65"/><rect class="cls-9" x="371.93" y="479.89" width="8.25" height="8.25" rx="1.65"/><path class="cls-16" d="M398.38,201.16h0c.42,0,.83,0,1.24,0h20.9V176.75a22.19,22.19,0,0,0-10.25-18.66h0l-.69-.42c-7.31-4.61-7.32-8.93,0-13.54l.7-.42h0A22.19,22.19,0,0,0,420.52,125V100.65h-20.9c-.41,0-.82,0-1.24,0h0c-.41,0-.83,0-1.24,0h-20.9V125a22.19,22.19,0,0,0,10.25,18.66h0l.69.42c7.31,4.61,7.31,8.93,0,13.54l-.68.42h0a22.19,22.19,0,0,0-10.25,18.66v24.38h20.9C397.55,201.15,398,201.16,398.38,201.16Z" transform="translate(-60.29 -68.59)"/><path class="cls-17" d="M389.34,192.12h6.08c3.91,0,4.07-3.54,6.81-3.54H414.5a4,4,0,0,1,4,3.11V196H399.51c-.38,0-.75,0-1.13,0s-.75,0-1.12,0h-7.92Z" transform="translate(-60.29 -68.59)"/><path class="cls-17" d="M381.27,130.36a20,20,0,0,1-3-10.47c0-17.89,12.11,1.24,24.44,2.21a16.93,16.93,0,0,0,6.33-.62,14,14,0,0,1,.78,2.5c0,1.07-10.51,9-12.34,9.43s-11.15,1-15-2C382.1,131.07,381.69,130.72,381.27,130.36Z" transform="translate(-60.29 -68.59)"/><path class="cls-13" d="M402,151.3c-.21-3,1.93-6.08,6.45-8.92l0,0h0l.63-.39h0A20.12,20.12,0,0,0,418.46,125c0-17.88-12.11,1.25-24.43,2.22a15,15,0,0,1-15.73-9.55V125A20.12,20.12,0,0,0,387.59,142h0l.65.4h0l0,0c4.51,2.84,6.66,5.89,6.44,8.92h0v12.26a3.64,3.64,0,0,0,3.63,3.63h0a3.63,3.63,0,0,0,3.62-3.63V151.3Zm-3.63,29h0a3.63,3.63,0,0,0,3.62-3.62V174a3.63,3.63,0,0,0-3.62-3.63h0a3.64,3.64,0,0,0-3.63,3.63v2.72A3.63,3.63,0,0,0,398.39,180.35Z" transform="translate(-60.29 -68.59)"/><path class="cls-13" d="M418.46,199.07v-7.38a3.5,3.5,0,0,1-3.76,3.54H401.35c-3.92,0-4.08-3.54-6.81-3.54H382.26a4,4,0,0,0-4,3.11v4.27h19c.37,0,.75,0,1.12,0s.75,0,1.13,0h18.95Z" transform="translate(-60.29 -68.59)"/><path class="cls-18" d="M376.89,98.19h43a2.78,2.78,0,0,1,2.77,2.77h0a2.78,2.78,0,0,1-2.77,2.78h-43a2.79,2.79,0,0,1-2.78-2.78h0A2.78,2.78,0,0,1,376.89,98.19Z" transform="translate(-60.29 -68.59)"/><path class="cls-18" d="M376.89,203.59h43a2.78,2.78,0,0,0,2.77-2.77h0a2.78,2.78,0,0,0-2.77-2.78h-43a2.79,2.79,0,0,0-2.78,2.78h0A2.78,2.78,0,0,0,376.89,203.59Z" transform="translate(-60.29 -68.59)"/><path class="cls-8" d="M407.45,98.19h12.43a2.78,2.78,0,0,1,2.77,2.77h0a2.78,2.78,0,0,1-2.77,2.78H407.45a2.78,2.78,0,0,1-2.77-2.78h0A2.78,2.78,0,0,1,407.45,98.19Z" transform="translate(-60.29 -68.59)"/><path class="cls-8" d="M407.45,203.59h12.43a2.78,2.78,0,0,0,2.77-2.77h0a2.78,2.78,0,0,0-2.77-2.78H407.45a2.78,2.78,0,0,0-2.77,2.78h0A2.78,2.78,0,0,0,407.45,203.59Z" transform="translate(-60.29 -68.59)"/><path class="cls-19" d="M506.28,199.17a11.08,11.08,0,0,1,7.17-4.76c4.67-.69,22-.55,27,2.61s2.26,9.34,2.26,9.34Z" transform="translate(-60.29 -68.59)"/><path class="cls-20" d="M421.44,222.32s-4-7.65-4.33-9.71-.58-9.48-1.49-11.19-7-9.65-7.65-10.84-3.71,2.56-1.94,6.62,2.74,4.56,2.74,4.56l-.06,1.83H391.53s1.71,5.54,9,9.36,12.27,19.64,12.27,19.64l10.51-6.33Z" transform="translate(-60.29 -68.59)"/><path class="cls-12" d="M503.13,199.92s-17.83,4.64-26.58,10.8S445.42,246,443,248c0,0-21.06-31.56-22.3-33.66-1.78-3-15.37,4.46-15.43,4.7-.66,2.55,3,6.93,5.38,12.69,3.42,8.42,14.81,30.12,18.19,35.64s11.14,11.24,23.34,4.19,29.33-24.8,29.33-24.8Z" transform="translate(-60.29 -68.59)"/><path class="cls-21" d="M535,169.18l-.35,8v19c0,1.86,1.57,4.79,4.36,4.83,7,8.88-.74,17.72-6,18.53s-30.47-5.27-32.16-6.72c-1.18-1,6.38-10.17,5.69-13.11.54-.15-.08,0,.47-.17a8.71,8.71,0,0,0,3.67-2.11c2.75-3,2.63-16.39-.13-19.89S535,169.18,535,169.18Z" transform="translate(-60.29 -68.59)"/><path class="cls-12" d="M503.13,199.92c1.67-.42,4.95-1.32,6.34-1.47,1.95,10.19,12.52,20.39,28.1,1.6,8.86,1.52,36.06,9.24,37.66,19.24,0,32.45-11.82,54.21-11.82,93.52,0,18,6.66,46.19,6.48,71.05-15.4-1.87-83.17-14.19-94.4-.54-.85-.78-2.24-4.15-1.06-9.28,6.78-29.61,3.45-67.66,3.19-100.82l-.25.79c0-5.36.16-10.39.37-15.09a180.52,180.52,0,0,1,1.79-21.78c2.32-19.23,5.69-28.83,5.69-28.83h0a161.62,161.62,0,0,1,15-7.2v0a30.22,30.22,0,0,1,2.91-1.23Z" transform="translate(-60.29 -68.59)"/><path class="cls-22" d="M564.65,209.06a26.43,26.43,0,0,0-2.29,3.71c-3.93,33.46-9.84,52.4-44.28,52.4H477.52c-.08,2.85-.14,5.78-.15,8.84l.25-.79c.05,6.2.2,12.57.38,19,31,10.38,61.62,19.73,85.44,22.16,0-.53,0-1.08,0-1.59,0-39.31,11.82-61.07,11.82-93.52C574.62,215.47,570.28,212,564.65,209.06Z" transform="translate(-60.29 -68.59)"/><path class="cls-19" d="M506.25,199.18a25.81,25.81,0,0,1,3.22-.73c1.35,9.76,12.41,18.5,28.1,1.6a34.12,34.12,0,0,1,5.79,1.27C531,222,505,223.65,506.18,199.55,506.18,199.52,506.21,199.37,506.25,199.18Z" transform="translate(-60.29 -68.59)"/><path class="cls-13" d="M523.2,213.62a.65.65,0,1,1,1.07.73c-5.65,8.2-2.58,13.38.69,18.92,2.57,4.35,5.27,8.92,4.36,15.29a.65.65,0,0,1-1.28-.18c.84-5.92-1.74-10.29-4.2-14.45C520.35,228,517.09,222.5,523.2,213.62Z" transform="translate(-60.29 -68.59)"/><path class="cls-13" d="M515.12,213.65a.64.64,0,0,1,.64-.65.63.63,0,0,1,.65.63c0,.07.57,24.13-15.25,23.05a.65.65,0,0,1-.6-.69.64.64,0,0,1,.69-.6C515.65,236.37,515.12,213.71,515.12,213.65Z" transform="translate(-60.29 -68.59)"/><path class="cls-23" d="M467.7,583.88l13.22.93a3.88,3.88,0,0,1,3.61,4.14l-1.8,25.8a3.9,3.9,0,0,1-4.15,3.6l-13.23-.92a3.9,3.9,0,0,1-3.6-4.15l1.8-25.79A3.9,3.9,0,0,1,467.7,583.88Z" transform="translate(-60.29 -68.59)"/><polygon class="cls-24" points="407.38 349.12 400.19 524.13 425.95 524.13 453.38 345.19 407.38 349.12"/><path class="cls-8" d="M464.76,488.67l-1.28,31.13h12.16c9,0,14.07,4.19,13.08,10.66s-7,46-7,46-.37,6.55-20.83,6.75l-.39,9.55h25.77l15.06-98.3C488.46,492.3,475.09,490.23,464.76,488.67Z" transform="translate(-60.29 -68.59)"/><path class="cls-8" d="M479.22,592.73h1.06L493.21,508a.53.53,0,0,0-.45-.6.52.52,0,0,0-.59.44Z" transform="translate(-60.29 -68.59)"/><polygon class="cls-24" points="460.76 354.78 520.66 529.51 545.5 518.23 510.07 351.58 460.76 354.78"/><path class="cls-8" d="M536.94,469.71,581,598.1l24.84-11.28-2-9.38c-5.46,1.77-13.53,4.22-16.59,4.38-4.82.25-6.55-1.6-7-3s-12.23-38.18-14.58-47.32,3.83-12.11,11.12-12.11h14.76l-8.85-41.64C568.56,473.35,549.41,469.81,536.94,469.71Z" transform="translate(-60.29 -68.59)"/><path class="cls-8" d="M601.55,588.75l1-.44-18.64-81.72a.52.52,0,0,0-.62-.4.53.53,0,0,0-.4.63Z" transform="translate(-60.29 -68.59)"/><rect class="cls-25" x="397.54" y="520.64" width="32.96" height="13.96" rx="2.58"/><path class="cls-18" d="M461.18,637.35s-38.25,1-39.73-2.15c0,0,0-2.54,0-4.23s1.75-4.12,6.5-5.7,14.91-4.63,18-5.74,12.05-12.4,13.32-13.77,7.19,3.07,8.45,3.81.42,2.54-.21,4.65S461.18,637.35,461.18,637.35Z" transform="translate(-60.29 -68.59)"/><path class="cls-19" d="M421.45,641.64l61.18.07a1.32,1.32,0,0,0,1.32-1.32v-3.81a1.33,1.33,0,0,0-1.32-1.32l-61.19-.06a1.33,1.33,0,0,0-1.32,1.32v3.81A1.32,1.32,0,0,0,421.45,641.64Z" transform="translate(-60.29 -68.59)"/><path class="cls-19" d="M421.45,641.65l20.79,0a1.33,1.33,0,0,0,1.32-1.32v-3.81a1.33,1.33,0,0,0-1.32-1.32l-20.79,0a1.33,1.33,0,0,0-1.32,1.32v3.81A1.33,1.33,0,0,0,421.45,641.65Z" transform="translate(-60.29 -68.59)"/><path class="cls-24" d="M448.52,620.91c.21.74,2.11,4.44.79,5.34s-5.55,4.11-7.93,4.11l-13.69,0c-6.28,0-4.83-2.19-4.83-2.19a4.18,4.18,0,0,0-1.4,2.82c0,1.69,0,4.23,0,4.23l61.19.06s2.59-3,2.6-10.09.35-11.14-.68-12.28-1.74-.56-1.74-.56c-4.76,4.12-10.52,1.15-13.53-.49-.32-.17-.62-.35-.91-.52-2.44-1.46-3.94-2.77-6.11-1.55-2.43,1.38-11,7.44-12.37,8.39S448.31,620.17,448.52,620.91Z" transform="translate(-60.29 -68.59)"/><path class="cls-8" d="M421.46,632v3.18l61.19.06s2.59-3,2.6-10.09.35-11.14-.68-12.28c.14,2.27-1.07,4.81-3.18,4.8H469.19c-4.48,0-5.38,2.39-5.38,2.39s-2.27,4.47-3.9,7.63-4.34,5.32-6.33,5.32l-29.42,0A3.55,3.55,0,0,1,421.46,632Z" transform="translate(-60.29 -68.59)"/><path class="cls-23" d="M599.58,586l-12.81,3.42a3.9,3.9,0,0,0-2.75,4.75l6.65,25a3.9,3.9,0,0,0,4.76,2.75l12.81-3.41a3.9,3.9,0,0,0,2.76-4.75l-6.66-25A3.9,3.9,0,0,0,599.58,586Z" transform="translate(-60.29 -68.59)"/><path class="cls-8" d="M602,635.3H590.14a2.23,2.23,0,0,1-2.32-2.11V612.51a2.23,2.23,0,0,1,2.32-2.11H602a2.23,2.23,0,0,1,2.32,2.11v20.68A2.23,2.23,0,0,1,602,635.3Z" transform="translate(-60.29 -68.59)"/><path class="cls-18" d="M593,610.11l-1.33-3.72c-.2-.55-.82-2.6,2.23-2.6h7.4c2,0,5.14.64,6.37,4.07l4.18,11.65c.75,2.1,11.52,7.28,13.12,8.86a6,6,0,0,1,2,3.72c-.09.36-21.52,2.56-24.5,1.31s-6.28-13.15-6.28-13.15Z" transform="translate(-60.29 -68.59)"/><path class="cls-24" d="M602.64,636l-2.17-.73a4.32,4.32,0,0,1-1.53-2c-.48-1.33-1.19-3.32-1.57-4.39s-1.69-1.24-2.37-3.13-3.83-10.66-4.7-13.08,1.87-3.89,3.51-5.33,5.1-.1,6.11,2.73,2.16,6,3,8.38.76,3.42-.63,4.58-2.36,2.06-2.79,2.37.38,1.82,1.46,3,4.3,3.73,9.75,3.73h10.59c2.72,0,3.23-1.57,2.43-3.8s-11.84-3.91-13.66-9-3.06-8.52-3.47-9.66.45-1.51.81-1.78,1.22,0,3.44,2.05,2.33,3.58,3.59,7.1,4.69,6.65,8.66,9.06,7.57,4.34,9.3,9.16S606.38,640.91,602.64,636Z" transform="translate(-60.29 -68.59)"/><path class="cls-8" d="M594.46,624.26l-4.16-11.58c-.87-2.43,1.87-3.89,3.51-5.33a2.09,2.09,0,0,1,.39-.27s-1.05,1-.3,3.08,1.57,4.34,2.47,6.85,1,4.57-1.91,7.25Zm14.83-15.61a20,20,0,0,1,1.58,1.33c2.22,2,2.33,3.58,3.59,7.1a13.94,13.94,0,0,0,3.42,5h0s-4.68-3.92-5.56-5.36a78.85,78.85,0,0,1-3-8.12Zm17.65,19.88a13.5,13.5,0,0,1,5.48,6.77c1.52,4.25-19.78,5.37-27.48,2.25l6,1-3.87-2.69s.15-2.37,2-2.37h15.36C626.52,633.46,628.41,632.64,626.94,628.53Z" transform="translate(-60.29 -68.59)"/><path class="cls-19" d="M602.77,641.69h31.94a.93.93,0,0,0,1-1.3l-1.36-3.78a2.15,2.15,0,0,0-1.9-1.31H600.47a.93.93,0,0,0-1,1.31l1.35,3.78A2.16,2.16,0,0,0,602.77,641.69Z" transform="translate(-60.29 -68.59)"/><path class="cls-19" d="M590.47,641.69h22.1a.93.93,0,0,0,1-1.3l-1.35-3.78a2.17,2.17,0,0,0-1.91-1.31h-22.1a.93.93,0,0,0-1,1.31l1.35,3.78A2.16,2.16,0,0,0,590.47,641.69Z" transform="translate(-60.29 -68.59)"/><path class="cls-13" d="M608.3,609.88c.27-.08.33-.33.14-.56a.85.85,0,0,0-.82-.26l-4.07,1.27-5-1.27c-.32-.08-.6,0-.63.26s.22.48.54.56l3.58.91-2.93.91c-.26.08-.32.33-.14.56a.84.84,0,0,0,.82.26l4.08-1.26,5,1.26c.33.08.61,0,.64-.26s-.22-.48-.54-.56l-3.58-.91,2.92-.91Zm-6.69,7.67c-.33-.09-.61,0-.63.26s.21.47.54.56l3.57.9-2.92.91c-.27.08-.33.33-.14.56a.83.83,0,0,0,.82.26l4.08-1.26,5,1.26c.32.08.6,0,.63-.26s-.22-.48-.54-.56l-3.58-.91,2.93-.9a.32.32,0,0,0,.14-.56.82.82,0,0,0-.82-.26l-4.08,1.26-5-1.26Zm-1.53-4.25c-.32-.08-.6,0-.63.27s.22.47.54.55l3.58.91-2.92.91c-.27.08-.33.33-.14.56a.82.82,0,0,0,.82.26l4.07-1.26,5,1.26c.32.08.6,0,.63-.26s-.22-.48-.54-.56L606.9,615l2.93-.91a.31.31,0,0,0,.13-.55.82.82,0,0,0-.81-.27l-4.08,1.27Z" transform="translate(-60.29 -68.59)"/><path class="cls-19" d="M578.87,590.33l26.84-7.24a2.58,2.58,0,0,1,3.16,1.81l2.29,8.5a2.59,2.59,0,0,1-1.81,3.16l-26.85,7.25a2.59,2.59,0,0,1-3.16-1.82l-2.29-8.49A2.6,2.6,0,0,1,578.87,590.33Z" transform="translate(-60.29 -68.59)"/><rect class="cls-26" x="313.11" y="204.39" width="266.9" height="241.92" rx="12.99"/><path class="cls-13" d="M392.3,289.2H618.06a9.83,9.83,0,0,1,9.8,9.8V470.64a25.3,25.3,0,0,1-25.22,25.22H578.15c-13.87,0-28-11.63-25.22-25.22l2.36-11.51h-163a9.82,9.82,0,0,1-9.79-9.79V299A9.83,9.83,0,0,1,392.3,289.2Z" transform="translate(-60.29 -68.59)"/><path class="cls-27" d="M392.3,294.06a5,5,0,0,0-4.93,4.94v31.22a5,5,0,0,0,4.93,4.94H618.06a5,5,0,0,0,4.94-4.94V299a5,5,0,0,0-4.94-4.94Z" transform="translate(-60.29 -68.59)"/><path class="cls-10" d="M412.87,445.36v.31H570.06a9.83,9.83,0,0,1,7.36,9.48v15.49a25.3,25.3,0,0,0,25.22,25.22h-215a25.3,25.3,0,0,1-25.22-25.22V455.15a9.82,9.82,0,0,1,9.79-9.79Z" transform="translate(-60.29 -68.59)"/><rect class="cls-28" x="327.07" y="273.44" width="38.66" height="38.66" rx="6.65"/><rect class="cls-29" x="376.32" y="273.44" width="38.66" height="38.66" rx="6.65"/><rect class="cls-29" x="425.56" y="273.44" width="38.66" height="38.66" rx="6.65"/><rect class="cls-29" x="474.8" y="273.44" width="38.66" height="38.66" rx="6.65"/><rect class="cls-29" x="524.04" y="273.44" width="38.66" height="38.66" rx="6.65"/><rect class="cls-29" x="327.07" y="321.68" width="38.66" height="38.66" rx="6.65"/><rect class="cls-29" x="376.32" y="321.68" width="38.66" height="38.66" rx="6.65"/><path class="cls-30" d="M604.45,303.18a5.55,5.55,0,1,1-5.56,5.55A5.55,5.55,0,0,1,604.45,303.18Z" transform="translate(-60.29 -68.59)"/><path class="cls-31" d="M604.45,305.75a3,3,0,0,1,0,6,13.25,13.25,0,0,1-13.23-13.23v-26a13.23,13.23,0,0,1,26.46,0V273h-6v-.47a7.27,7.27,0,0,0-14.54,0v26a7.31,7.31,0,0,0,7.27,7.27Z" transform="translate(-60.29 -68.59)"/><rect class="cls-28" x="425.56" y="321.68" width="38.66" height="38.66" rx="6.65"/><rect class="cls-29" x="474.8" y="321.68" width="38.66" height="38.66" rx="6.65"/><rect class="cls-29" x="524.04" y="321.68" width="38.66" height="38.66" rx="6.65"/><path class="cls-30" d="M412.76,303.18a5.55,5.55,0,1,1-5.55,5.55A5.55,5.55,0,0,1,412.76,303.18Z" transform="translate(-60.29 -68.59)"/><path class="cls-31" d="M412.76,305.75a3,3,0,1,1,0,6,13.25,13.25,0,0,1-13.23-13.23v-26a13.23,13.23,0,0,1,26.46,0V273h-6v-.47a7.27,7.27,0,0,0-14.54,0v26a7.29,7.29,0,0,0,7.27,7.27Z" transform="translate(-60.29 -68.59)"/><path class="cls-21" d="M491.44,156.34c-.21,0-.42.07-.62.12h0a8.49,8.49,0,1,0,7.1,1.61c.25,2.5-.11,5.61-3.3,6l0-4.89A2.92,2.92,0,0,0,491.44,156.34Z" transform="translate(-60.29 -68.59)"/><path class="cls-21" d="M552.64,155.55l.62.1h0a8.49,8.49,0,1,1-7.06,1.8c-.18,2.5.26,5.6,3.46,5.87l-.16-4.89A2.92,2.92,0,0,1,552.64,155.55Z" transform="translate(-60.29 -68.59)"/><path class="cls-20" d="M521.5,113.59h0A29.12,29.12,0,0,0,492.84,143l.34,26.4a29.12,29.12,0,0,0,29.41,28.66h0a29.11,29.11,0,0,0,28.65-29.41l-.34-26.4A29.13,29.13,0,0,0,521.5,113.59Z" transform="translate(-60.29 -68.59)"/><path class="cls-32" d="M522.59,198.06a29.11,29.11,0,0,0,28.65-29.41l-.34-26.4A29.07,29.07,0,0,0,537,117.88c-15,.42-28,1-29.18,1-2.6,0-13.22,19.33-13.22,19.33l4.14,4.76h17.85c3.33,0,4.94,3,8,3h11.67c2.47,0,6.12,2.23,6.12,8.59s3.52,9.27,3.52,9.27v9.82C545.87,177.79,542.69,192.67,522.59,198.06Z" transform="translate(-60.29 -68.59)"/><path class="cls-13" d="M513.84,182.45a7.51,7.51,0,1,0,15,.39h0a1.3,1.3,0,0,0-1.26-1.33l-12.4-.33a1.31,1.31,0,0,0-1.34,1.27Z" transform="translate(-60.29 -68.59)"/><path class="cls-13" d="M516.49,188.37a7.51,7.51,0,0,0,4.66,1.79,7.68,7.68,0,0,0,4-1,5,5,0,0,0-8.67-.76Z" transform="translate(-60.29 -68.59)"/><path class="cls-13" d="M527.75,181.53l-11.65-.31a2.64,2.64,0,0,0,1.2,2.91c1.05.37,9.49.37,10.1-.27A4.38,4.38,0,0,0,527.75,181.53Z" transform="translate(-60.29 -68.59)"/><path class="cls-21" d="M537.7,175.68a3.82,3.82,0,1,0,3.79,3.84A3.83,3.83,0,0,0,537.7,175.68Z" transform="translate(-60.29 -68.59)"/><path class="cls-21" d="M504.85,175.48a3.82,3.82,0,1,0,3.79,3.84A3.82,3.82,0,0,0,504.85,175.48Z" transform="translate(-60.29 -68.59)"/><path class="cls-8" d="M503.07,162a1,1,0,1,1-.95-1.83,9.65,9.65,0,0,1,9.07-.08,1,1,0,0,1-1,1.78A7.55,7.55,0,0,0,503.07,162Z" transform="translate(-60.29 -68.59)"/><path class="cls-8" d="M540.14,161.49a7.57,7.57,0,0,0-7.09.06,1,1,0,1,1-1.08-1.76,9.63,9.63,0,0,1,9.06-.15,1,1,0,1,1-.89,1.85Z" transform="translate(-60.29 -68.59)"/><path class="cls-8" d="M537,165h0a2.53,2.53,0,0,1,2.54,2.48l0,3.27a2.52,2.52,0,0,1-2.48,2.54h0a2.52,2.52,0,0,1-2.54-2.48l0-3.27A2.52,2.52,0,0,1,537,165Z" transform="translate(-60.29 -68.59)"/><path class="cls-8" d="M506.27,165.4h0a2.52,2.52,0,0,0-2.48,2.54l0,3.27a2.5,2.5,0,0,0,2.54,2.47h0a2.51,2.51,0,0,0,2.47-2.54l0-3.26A2.52,2.52,0,0,0,506.27,165.4Z" transform="translate(-60.29 -68.59)"/><path class="cls-8" d="M503.36,137.17a6.82,6.82,0,0,0-2.51,5.66c.08,6.24-1,11.2-5,11.26,0,0,0,2.15.06,4.89s-.19,5.51-2.78,5.55c-.07-5.89-1.9-8.18-1.9-8.18s-.1-7.88-.19-14.77,1.73-16.17,10.69-22.64a35,35,0,0,1,39.7-.51c9.12,6.23,11.18,15.46,11.27,22.35s.19,14.77.19,14.77-1.76,2.34-1.69,8.23c-2.58,0-2.88-2.74-2.92-5.47s-.06-4.9-.06-4.9c-4,.05-5.24-4.88-5.31-11.13a6.86,6.86,0,0,0-2.73-5.65c2,3.64,1.07,6.48-4,2,3.36,6.39-8,6.52-11.44.5,0,0-.93,3.38-2.66,2.82s-1.88-4.56-1.88-4.56c-2.77,5.89-10.92,6.58-11.57.35C506.48,141.57,501.45,141.4,503.36,137.17Z" transform="translate(-60.29 -68.59)"/><path class="cls-24" d="M503.36,137.17a6.67,6.67,0,0,0-.93.91h0a3,3,0,0,1-4.93-.72c-1-1.63-1.58-8.33-1.86-12.29a25.49,25.49,0,0,1,6.07-6.13,35,35,0,0,1,39.7-.51,24.81,24.81,0,0,1,7.77,8.37c.59,5.41-4.14,13-5.1,13.27s-1.87-.95-1.87-.95h0a6.7,6.7,0,0,0-2-2.49c2,3.64,1.07,6.48-4,2,3.36,6.39-8,6.52-11.44.5,0,0-.93,3.38-2.66,2.82s-1.88-4.56-1.88-4.56c-2.77,5.89-10.92,6.58-11.57.35C506.48,141.57,501.45,141.4,503.36,137.17Z" transform="translate(-60.29 -68.59)"/><path class="cls-12" d="M497.59,122.62a26.07,26.07,0,0,1,4.12-3.68,33.22,33.22,0,0,1,2.9-1.87c3.78,15.1,34,9.44,39.78,3.71a26.26,26.26,0,0,1,2,2.08C532.35,133.62,505.49,136.29,497.59,122.62Z" transform="translate(-60.29 -68.59)"/><path class="cls-20" d="M562.43,356.25c-4,2.65-.24,1.91-3.71,4.76-1.7,1.4-8.43,3.05-9.32,4.41s-5.6,7.72-6.78,9.23,2.77,1.86,5.13,1.13c0,0-4.87,10.18-6,12.75s.85,3.14,2.57,2.48,5.4-7.37,5.4-7.37,3.46,1.12,5.33.42c0,0,3.65,1.23,4.85,1.1a16,16,0,0,0,2.85-.69A10.13,10.13,0,0,0,568,383c2.32-1.54,3.69-14.3,4.09-15.38s-.57-4.36-.57-4.36Z" transform="translate(-60.29 -68.59)"/><path class="cls-32" d="M560.52,357.9c-.51.88.64,1.1-1.8,3.11a11.56,11.56,0,0,1-2.75,1.37c6.8,6.92,10.35,7.86,12.78,8.67.91.3,1.61,1.6,2.13,3.4.61-3.27,1-6.31,1.19-6.82.39-1.08-.57-4.36-.57-4.36L565,358.2A30,30,0,0,0,560.52,357.9Z" transform="translate(-60.29 -68.59)"/><path class="cls-12" d="M564.91,209.19s8.38,7.3,11.85,10.64,6.85,11.31,10.39,24.38c15.42,56.84,16.19,74.18-12.34,126,0,0-.26.9-2,.58S557,363.31,556.15,360a3.21,3.21,0,0,1,.7-2.7c12.49-18.36,16.62-66,6.72-88.23C560,261,554.37,230.24,564.91,209.19Z" transform="translate(-60.29 -68.59)"/><path class="cls-33" d="M517.33,174.66c-.74.94-2,2.61-1.79,3.22.25.87,2.22,1.11,3.27.74.66-.23.54-2.11.36-3.5C518.94,173.31,518.56,173.12,517.33,174.66Z" transform="translate(-60.29 -68.59)"/><rect class="cls-9" x="360.76" y="74.31" width="8.25" height="8.25" rx="1.65"/><rect class="cls-9" x="377.67" y="74.31" width="8.25" height="8.25" rx="1.65"/><rect class="cls-9" x="394.58" y="74.31" width="8.25" height="8.25" rx="1.65"/><rect class="cls-9" x="411.5" y="74.31" width="8.25" height="8.25" rx="1.65"/><path class="cls-10" d="M664.77,556.35a1.9,1.9,0,0,1,3.8,0v8.55a1.9,1.9,0,0,1-3.8,0v-8.55Zm-12.95,6.94a1.9,1.9,0,0,1,2.69-2.68l6,6a1.9,1.9,0,0,1-2.69,2.69l-6-6.05Zm-4.25,14.07a1.9,1.9,0,0,1,0-3.8h8.54a1.9,1.9,0,0,1,0,3.8Zm6.94,12.95a1.9,1.9,0,0,1-2.69-2.69l6-6a1.9,1.9,0,0,1,2.69,2.68l-6,6Zm14.06,4.25a1.9,1.9,0,0,1-3.8,0V586a1.9,1.9,0,0,1,3.8,0v8.55Zm12.95-6.94a1.9,1.9,0,0,1-2.69,2.69l-6-6a1.9,1.9,0,0,1,2.69-2.68l6,6Zm4.25-14.06a1.9,1.9,0,0,1,0,3.8h-8.55a1.9,1.9,0,1,1,0-3.8Zm-6.94-12.95a1.9,1.9,0,0,1,2.69,2.68l-6,6.05a1.9,1.9,0,0,1-2.69-2.69Z" transform="translate(-60.29 -68.59)"/><rect class="cls-34" x="546.93" y="379.65" width="86.25" height="86.25" rx="14.84"/><path class="cls-13" d="M649.48,479.35a10.78,10.78,0,0,1-2.19,6.78,12.31,12.31,0,0,1-6.34,4.11v.18q9.67,1.32,9.66,10.06a11.28,11.28,0,0,1-4.26,9.33q-4.27,3.42-11.84,3.41a31.47,31.47,0,0,1-5.77-.5,27.61,27.61,0,0,1-5.74-1.81v-9.53a21.79,21.79,0,0,0,5.16,2.1,19.19,19.19,0,0,0,4.85.69,9.2,9.2,0,0,0,5-1.06,3.76,3.76,0,0,0,1.57-3.34,4,4,0,0,0-.82-2.69,5.2,5.2,0,0,0-2.64-1.42,19.18,19.18,0,0,0-4.75-.48H629v-8.63h2.43q8,0,8-4.49a2.87,2.87,0,0,0-1.17-2.5,5.51,5.51,0,0,0-3.17-.81,13.59,13.59,0,0,0-7.65,2.73l-4.33-7.66a20.45,20.45,0,0,1,6.27-3.31,25,25,0,0,1,7.36-1q6,0,9.39,2.62a8.58,8.58,0,0,1,3.41,7.21Zm28.22,33.27H667.11v-22.5c0-2.74.06-5.24.16-7.5a23.1,23.1,0,0,1-2.43,2.73l-4.38,4L655.05,482l13.25-11.89h9.4Z" transform="translate(-60.29 -68.59)"/><path class="cls-10" d="M105.51,266.52a4.45,4.45,0,1,0-4.45-4.45A4.46,4.46,0,0,0,105.51,266.52Z" transform="translate(-60.29 -68.59)"/><path class="cls-10" d="M254.51,116a4.45,4.45,0,1,0-4.45-4.45A4.46,4.46,0,0,0,254.51,116Z" transform="translate(-60.29 -68.59)"/><path class="cls-10" d="M712.63,77.49A4.45,4.45,0,1,0,708.18,73,4.46,4.46,0,0,0,712.63,77.49Z" transform="translate(-60.29 -68.59)"/><path class="cls-10" d="M994.32,248a4.45,4.45,0,1,0-4.45-4.45A4.46,4.46,0,0,0,994.32,248Z" transform="translate(-60.29 -68.59)"/><path class="cls-10" d="M1012.11,589a4.45,4.45,0,1,0-4.45-4.45A4.46,4.46,0,0,0,1012.11,589Z" transform="translate(-60.29 -68.59)"/><path class="cls-10" d="M680,314.7a4.45,4.45,0,1,0-4.45-4.45A4.46,4.46,0,0,0,680,314.7Z" transform="translate(-60.29 -68.59)"/><path class="cls-10" d="M333.09,470.37a4.45,4.45,0,1,0-4.45-4.44A4.46,4.46,0,0,0,333.09,470.37Z" transform="translate(-60.29 -68.59)"/><path class="cls-10" d="M152.21,589a4.45,4.45,0,1,0-4.44-4.45A4.46,4.46,0,0,0,152.21,589Z" transform="translate(-60.29 -68.59)"/><path class="cls-10" d="M64.74,557.85a4.45,4.45,0,1,0-4.45-4.45A4.46,4.46,0,0,0,64.74,557.85Z" transform="translate(-60.29 -68.59)"/><path class="cls-10" d="M816.41,119a4.45,4.45,0,1,0-4.45-4.45A4.46,4.46,0,0,0,816.41,119Z" transform="translate(-60.29 -68.59)"/></g></svg>