<?xml version="1.0" encoding="utf-8"?>
<!-- Generator: Adobe Illustrator 23.0.3, SVG Export Plug-In . SVG Version: 6.00 Build 0)  -->
<svg version="1.1" id="Layer_2" xmlns="http://www.w3.org/2000/svg" xmlns:xlink="http://www.w3.org/1999/xlink" x="0px" y="0px"
	 viewBox="0 0 988.9 620" style="enable-background:new 0 0 988.9 620;" xml:space="preserve">
<style type="text/css">
	.st0{fill:#F5F5F5;}
	.st1{fill:#E7E7E7;}
	.st2{fill:#00DFBF;}
	.st3{fill:#FFFFFF;}
	.st4{fill:#ECECEC;}
	.st5{fill:#375A64;}
	.st6{fill:#2B454E;}
	.st7{fill:#E1E1E1;}
	.st8{opacity:0.5;}
	.st9{fill:#F0F0F0;}
	.st10{fill:#1A2E35;}
	.st11{fill:#FFAAA8;}
	.st12{opacity:0.1;}
	.st13{opacity:0.2;}
	.st14{fill:#FF9090;}
</style>
<path class="st0" d="M237.8,537.5c130,67.9,340.9,67.9,470.9,0c130-67.9,130-178.1,0-246c-130-67.9-340.9-67.9-470.9,0
	C107.7,359.4,107.7,469.6,237.8,537.5z"/>
<path class="st1" d="M554.1,509.1L247.1,331.9c-2.1-1.2-2.1-3.2,0-4.5L427,223.6c2.1-1.2,5.6-1.2,7.7,0l307,177.2
	c2.1,1.2,2.1,3.2,0,4.5L561.8,509.1C559.7,510.3,556.2,510.3,554.1,509.1z"/>
<g id="XMLID_16391_">
	<g id="XMLID_16395_">
		<path class="st2" d="M490.3,253.6c3.8,0.1,10-4.8,11-10.9c0.9-6.1,2.8-10.9,11.4-14.2c8.7-3.3,13.5-4.8,16.3-12.3
			c2.8-7.5-1.6-16-2.7-22.5c-1.1-6.4,4.7-13.9,13.5-21c8.7-7.1,13.7-14.5,5.9-19c-7.8-4.5-17.3-2.6-25.8,2.8
			c-8.4,5.4-15,12.5-25.4,11.6c-10.3-0.9-16.1,3.5-18.2,11.6c-2,8.1,0.9,18.4-6.8,21v34.5L490.3,253.6z"/>
	</g>
	<g id="XMLID_16394_">
		<path class="st3" d="M474.6,238.1c-0.1,0-0.1,0-0.2,0c-0.4-0.1-0.7-0.5-0.6-0.9c7.9-34.1,43.5-71.9,62.7-79.7c0.4-0.2,0.8,0,1,0.4
			c0.2,0.4,0,0.8-0.4,1c-18.9,7.7-54,45-61.8,78.7C475.3,237.9,475,238.1,474.6,238.1z"/>
	</g>
	<g id="XMLID_16393_">
		<path class="st3" d="M494.5,197.3c-0.4,0-0.7-0.3-0.7-0.6c-1.5-9.2-6-16.4-6.1-16.4c-0.2-0.3-0.1-0.8,0.2-1c0.3-0.2,0.8-0.1,1,0.2
			c0.2,0.3,4.7,7.5,6.3,17c0.1,0.4-0.2,0.8-0.6,0.9C494.5,197.3,494.5,197.3,494.5,197.3z"/>
	</g>
	<g id="XMLID_16392_">
		<path class="st3" d="M488.3,207.7c-0.3,0-0.6-0.2-0.7-0.6c-0.1-0.4,0.1-0.8,0.5-0.9c11.7-3.1,26.5-0.1,27.1,0
			c0.4,0.1,0.7,0.5,0.6,0.9c-0.1,0.4-0.5,0.7-0.9,0.6c-0.2,0-15.1-3-26.4,0C488.4,207.7,488.4,207.7,488.3,207.7z"/>
	</g>
</g>
<g id="XMLID_16493_">
	<g id="XMLID_16497_">
		<path class="st4" d="M608.6,103.1l9.4,3.6V86c0-16.4,13-20.3,27.2-12.1l0,0c14.2,8.2,25.7,28.1,25.7,44.4v3
			c3.2-1.3,7.4-0.8,11.9,1.8l0,0c10.2,5.9,18.5,20.2,18.5,32v1.4l13.1,7.5c6.7,3.9,12.2,13.3,12.2,21.1c0,7.8-5.4,10.9-12.2,7
			l-105.7-61c-6.7-3.9-12.2-13.3-12.2-21.1S601.9,99.2,608.6,103.1z"/>
	</g>
	<g id="XMLID_16494_">
		<path class="st4" d="M714.6,109.9l17,9.8c-0.1-0.8-0.1-1.5-0.1-2.2v-4.9c0-8.8,6.1-12.3,13.7-7.9c3.1,1.8,5.9,4.6,8.2,7.9
			c1.2-11,9.9-15.1,20.4-9.1c11.3,6.5,20.5,22.5,20.5,35.6v7.4c0,3.4-0.6,6.2-1.7,8.5l14.1,8.1c4.2,2.4,7.6,8.3,7.6,13.2
			c0,4.9-3.4,6.8-7.6,4.4l-92-53.1c-4.2-2.4-7.6-8.3-7.6-13.2C707,109.4,710.4,107.5,714.6,109.9z"/>
	</g>
</g>
<g id="XMLID_16334_">
	<g id="XMLID_16330_">
		<g id="XMLID_16311_">
			<polygon class="st5" points="473.3,61.9 527.7,30.5 539.8,37.5 527.7,58.5 473.3,89.9 			"/>
		</g>
		<g id="XMLID_16326_">
			<polygon class="st6" points="527.7,30.5 521.6,27 467.2,58.5 473.3,61.9 			"/>
		</g>
	</g>
	<g id="XMLID_16331_">
		<g id="XMLID_16333_">
			<polygon class="st5" points="467,93.3 412.7,61.9 400.6,68.9 412.7,89.9 467,121.3 			"/>
		</g>
		<g id="XMLID_16332_">
			<polygon class="st6" points="412.7,61.9 418.7,58.4 473.2,89.9 467,93.3 			"/>
		</g>
	</g>
	<g id="XMLID_16328_">
		<path class="st5" d="M473.3,32.9c0-0.9-0.6-1.8-1.8-2.5c-2.4-1.4-6.3-1.4-8.7,0c-1.2,0.7-1.8,1.6-1.8,2.5h0v328h12.3L473.3,32.9
			L473.3,32.9z"/>
	</g>
</g>
<g>
	<g id="XMLID_15771_">
		<path class="st5" d="M582.2,280.7l-72.6-21l-75.3-63.5c-1.9-1.6-5.1-1.9-7.3-0.6L247.1,299.5c-2.1,1.2-2.3,3.5-0.5,5.1l75.3,63.5
			l72.6,21l78.7,66.4l80.5,26.5c2.3,0.8,6,0.4,8.1-0.8l8.2-4.8l171.6-99.1c2.1-1.2,2-2.9-0.4-3.6l-80.5-26.5L582.2,280.7z"/>
	</g>
	<g id="XMLID_15774_">
		<polygon class="st5" points="509.5,259.8 321.9,368.1 394.5,389.1 582.2,280.7 		"/>
	</g>
	<g id="XMLID_15772_">
		<path class="st5" d="M473.2,455.4l80.5,26.5c2.3,0.8,6,0.4,8.1-0.8l179.9-103.8c2.1-1.2,2-2.9-0.4-3.6l-80.5-26.5L473.2,455.4z"/>
	</g>
	<g id="XMLID_15524_">
		<g id="XMLID_15768_">
			<polygon class="st7" points="497.4,266.8 428.6,208.7 265.2,303 334,361.1 			"/>
		</g>
		<g id="XMLID_15769_">
			<polygon class="st7" points="570.1,287.7 406.7,382.1 334,361.1 497.4,266.8 			"/>
		</g>
		<g id="XMLID_16258_" class="st8">
			<polygon class="st7" points="570.1,287.7 406.7,382.1 334,361.1 497.4,266.8 			"/>
		</g>
		<g id="XMLID_15778_">
			<polygon class="st7" points="648.7,354.1 485.3,448.5 406.7,382.1 570.1,287.7 			"/>
		</g>
		<g id="XMLID_15781_">
			<polygon class="st7" points="718,377 554.6,471.3 485.3,448.5 648.7,354.1 			"/>
		</g>
		<g id="XMLID_16265_" class="st8">
			<polygon class="st7" points="718,377 554.6,471.3 485.3,448.5 648.7,354.1 			"/>
		</g>
	</g>
	<g id="XMLID_15827_">
		<g id="XMLID_15536_">
			<polygon class="st9" points="305,336.6 328,322.7 291.7,287.7 265.2,303 			"/>
		</g>
		<g id="XMLID_15822_">
			<g id="XMLID_15678_">
				<polygon class="st9" points="334,319.2 297.7,284.2 352.2,252.7 388.5,287.7 				"/>
			</g>
			<g id="XMLID_15737_">
				<polygon class="st9" points="358.2,249.3 394.5,284.2 412.7,273.7 406.6,221.3 				"/>
			</g>
			<g id="XMLID_15739_">
				<polygon class="st9" points="418.7,270.3 412.7,217.8 428.6,208.7 487.6,258.5 				"/>
			</g>
			<g id="XMLID_15762_">
				<polygon class="st9" points="355.2,348.9 337,331.4 314.4,344.5 334,361.1 				"/>
			</g>
			<g id="XMLID_15763_">
				<polygon class="st9" points="343.1,327.9 361.3,345.4 415.7,314 397.5,296.5 				"/>
			</g>
			<g id="XMLID_15783_">
				<polygon class="st9" points="421.8,310.4 403.6,293 420.2,283.4 455.1,277.2 455.1,291.2 				"/>
			</g>
			<g id="XMLID_15786_">
				<polygon class="st9" points="461.1,287.7 461.1,276.2 489.9,271.1 				"/>
			</g>
		</g>
	</g>
	<g id="XMLID_15826_">
		<g id="XMLID_15749_">
			<path class="st1" d="M491.4,298.2c-6.7-1.9-16.2-1.1-21.2,1.7s-3.7,6.8,3,8.7c6.7,1.9,16.2,1.1,21.2-1.7
				C499.4,304,498.1,300.1,491.4,298.2z"/>
		</g>
		<g id="XMLID_15821_">
			<g id="XMLID_16031_">
				<path class="st1" d="M471.7,294.4c-1.4,0.5-2.7,1-3.8,1.7c-5.3,3-5.4,7-5.2,8.6c0.1,0.7,0.3,1.6,0.8,2.6l-14.6,8.4l-27.2-5.2
					l33.3-19.2L471.7,294.4z"/>
			</g>
			<g id="XMLID_15784_">
				<polygon class="st1" points="461.1,287.7 479.8,290.9 489.3,292.3 521.6,273.7 497.4,266.8 				"/>
			</g>
			<g id="XMLID_16028_">
				<path class="st1" d="M570,287.7L524.6,314l-27.1-3.7c4.4-2.9,4.5-6.5,4.3-8c-0.1-0.7-0.3-1.6-0.8-2.6l36.8-21.2L570,287.7z"/>
			</g>
			<g id="XMLID_15967_">
				<path class="st1" d="M519.1,317.1l-21.7,12.5l-36.4-7l15.2-8.7c0,0,0.1,0,0.1-0.1c0,0,0,0,0,0c1.6,0.2,3.4,0.3,5.1,0.3
					c3.7,0,7.3-0.5,10.4-1.4h0L519.1,317.1z"/>
			</g>
			<g id="XMLID_882_">
				<g id="XMLID_889_">
					<polygon class="st1" points="415.7,314 361.3,345.4 388.5,350.6 442.9,319.2 					"/>
				</g>
				<g id="XMLID_891_">
					<polygon class="st1" points="497.4,329.7 461,322.7 406.6,354.1 443,361.1 					"/>
				</g>
				<g id="XMLID_881_">
					<g id="XMLID_890_">
						<polygon class="st1" points="355.2,348.9 334,361.1 358.2,368.1 382.4,354.1 						"/>
					</g>
					<g id="XMLID_894_">
						<polygon class="st1" points="436.9,364.6 400.6,357.6 374.4,372.7 406.7,382.1 						"/>
					</g>
				</g>
			</g>
		</g>
	</g>
	<g id="XMLID_15825_">
		<g id="XMLID_896_">
			<polygon class="st9" points="533.7,329.7 554,366.9 606.4,336.6 557.9,315.7 			"/>
		</g>
		<g id="XMLID_15794_">
			<g id="XMLID_892_">
				<polygon class="st9" points="436.9,364.6 443,375.1 441.1,411.1 406.7,382.1 				"/>
			</g>
			<g id="XMLID_893_">
				<polygon class="st9" points="443,361.1 449,371.6 524.9,327.8 519.1,317.1 				"/>
			</g>
			<g id="XMLID_895_">
				<polygon class="st9" points="524.6,314 530.7,324.4 579.9,296 570.1,287.7 				"/>
			</g>
			<g id="XMLID_897_">
				<polygon class="st9" points="527.7,333.1 452,376.8 450.1,418.7 455.8,423.6 548,370.4 				"/>
			</g>
			<g id="XMLID_14700_">
				<polygon class="st9" points="564,312.2 584.8,300.2 619.2,329.2 612.4,333.1 				"/>
			</g>
			<g id="XMLID_14725_">
				<polygon class="st9" points="465.7,431.9 491.4,417 503.5,438 485.3,448.5 				"/>
			</g>
			<g id="XMLID_14731_">
				<rect x="501.6" y="404.9" transform="matrix(0.866 -0.5 0.5 0.866 -139.4272 313.66)" class="st9" width="28" height="24.2"/>
			</g>
			<g id="XMLID_14733_">
				<polygon class="st9" points="527.7,396 553.8,381 565.3,402.3 539.8,417 				"/>
			</g>
			<g id="XMLID_14735_">
				<polygon class="st9" points="571.3,398.8 559.7,377.5 612.4,347.1 638.9,345.8 648.7,354.1 				"/>
			</g>
			<g id="XMLID_14734_">
				<polygon class="st9" points="624.1,333.4 612.4,340.1 631.3,339.4 				"/>
			</g>
		</g>
	</g>
	<g id="XMLID_15823_">
		<g id="XMLID_15407_">
			<path class="st1" d="M600.7,410.2c-6.7-1.9-16.2-1.1-21.2,1.7c-5,2.9-3.7,6.8,3,8.7c6.7,1.9,16.2,1.1,21.2-1.7
				C608.7,416.1,607.4,412.2,600.7,410.2z"/>
		</g>
		<g id="XMLID_15790_">
			<g id="XMLID_14732_">
				<polygon class="st1" points="503.5,438 527.7,445 508.4,456.1 485.3,448.5 				"/>
			</g>
			<g id="XMLID_15411_">
				<polygon class="st1" points="509.5,434.5 533.7,441.5 557.9,427.5 533.7,420.5 				"/>
			</g>
			<g id="XMLID_15412_">
				<path class="st1" d="M539.8,417l24.2,7l8.1-4.7c0,0-3.8-8.6,7.5-12.1l-14.2-5L539.8,417z"/>
			</g>
			<g id="XMLID_15413_">
				<path class="st1" d="M571.3,398.8l14.9,5.4c0,0,4.8-0.8,12.1,0l44.4-25.6l-24.2-7L571.3,398.8z"/>
			</g>
			<g id="XMLID_15432_">
				<polygon class="st1" points="624.5,368.1 648.7,375.1 671.8,361.7 648.7,354.1 				"/>
			</g>
			<g id="XMLID_15433_">
				<polygon class="st1" points="687.2,366.8 648.7,389.1 679,399.5 718,377 				"/>
			</g>
			<g id="XMLID_15748_">
				<path class="st1" d="M642.7,392.5l-31.8,18.4c0,0,3.9,6.1-1.1,10.9l20.8,5.7l42.4-24.5L643.4,393"/>
			</g>
			<g id="XMLID_15789_">
				<path class="st1" d="M624.5,431l-21.5-5.4c0,0-10.4,4.1-19.1,0.9L551.9,445l-6.1,23.5l8.8,2.9L624.5,431z"/>
			</g>
			<g id="XMLID_15793_">
				<polygon class="st1" points="545.8,448.5 540.8,466.7 523.8,461.2 				"/>
			</g>
		</g>
	</g>
</g>
<g id="XMLID_30_">
	<g id="XMLID_16337_">
		<g id="XMLID_16231_">
			<g id="XMLID_16234_">
				<g id="XMLID_16262_">
					<g id="XMLID_16263_">
						<path class="st10" d="M422.3,251.1C422.3,251,422.3,251,422.3,251.1l-2.4-1.4c-0.5-0.4-1.2-0.5-1.8-0.5
							c-0.8,0-1.7,0.3-2.7,0.8c-3.5,2-6.4,7.2-6.4,11.6v1c0,4.4,5.9,9.1,5.9,9.1l2.4,1.3c0,0,0,0,0,0c-0.1-0.1-1.4-1.6-1.3-2
							c1.6-3.2,5.8-12.3,5.8-15.9v-1c0-0.8-0.1-1.5-0.3-2.1l0.3,0.2L422.3,251.1z M417.9,262.5c-1.6,0.9-2.9,0.4-3.2-1.2
							c-1.5,0.5-2.6-0.3-2.6-2.1c1-0.2,3.3-4.2,3.2-5.6c1.6-0.9,2.9-0.4,3.1,1.2c1.5-0.5,2.6,0.3,2.6,2.1
							C421.1,259,419.7,261.5,417.9,262.5z"/>
					</g>
				</g>
				<g id="XMLID_16235_">
					<g id="XMLID_16236_">
						<path class="st5" d="M422.3,251.1C422.3,251,422.3,251,422.3,251.1c-1.2-0.7-2.8-0.6-4.4,0.4c-2.5,1.5-4.7,4.5-5.8,7.8
							c-0.4,1.3-0.6,2.6-0.6,3.8v1c0,3.4,3.8,7.3,5.6,8.9c0,0,0.1,0.1,0.1,0.1c0,0,0,0,0,0c0.4,0.3,1,0.1,1.2-0.4
							c1.5-3.1,5.9-12.4,5.9-16v-1C424.3,253.4,423.6,251.8,422.3,251.1z M414.8,261.3c0-0.2-0.1-0.4-0.1-0.6c0-2,1.4-4.5,3.2-5.6
							c0.2-0.1,0.4-0.2,0.6-0.3c1.5-0.5,2.6,0.3,2.6,2.1c0,2-1.4,4.5-3.2,5.6C416.3,263.4,415,262.9,414.8,261.3z"/>
					</g>
					<g id="XMLID_16257_">
						<path class="st10" d="M419,254c-0.2,0.1-0.5,0.2-0.7,0.3c-2.1,1.2-3.9,4.2-3.9,6.7c0,0.3,0,0.5,0.1,0.8
							c0.3,1.9,1.9,2.6,3.8,1.5c2.1-1.2,3.9-4.2,3.9-6.7C422.1,254.4,420.8,253.4,419,254z"/>
					</g>
				</g>
			</g>
		</g>
		<g id="XMLID_16336_">
			<path class="st2" d="M418.5,255l0.7,1.4c0,0.1,0.1,0.1,0.2,0.1l1.5-0.6c0.2-0.1,0.3,0.2,0.2,0.6l-1.1,2c-0.1,0.1-0.1,0.3-0.1,0.4
				l0.2,1.8c0,0.3-0.2,0.7-0.4,0.6l-1.3-0.2c-0.1,0-0.2,0-0.3,0.2l-1.3,1.7c-0.2,0.3-0.4,0.2-0.4-0.2l0.2-2.1c0-0.1,0-0.2-0.1-0.3
				l-1.1-0.8c-0.2-0.1-0.1-0.6,0.2-0.7l1.5-1.1c0.1-0.1,0.2-0.2,0.2-0.3l0.7-2.1C418.1,255,418.4,254.8,418.5,255z"/>
		</g>
	</g>
	<g id="XMLID_16376_">
		<g id="XMLID_16339_">
			<g id="XMLID_16341_">
				<g id="XMLID_16342_">
					<g id="XMLID_16351_">
						<g id="XMLID_16352_">
							<path class="st10" d="M552.4,420.1C552.4,420.1,552.4,420.1,552.4,420.1l-3-1.8c-0.7-0.4-1.4-0.7-2.3-0.7c-1,0-2.2,0.3-3.4,1
								c-4.4,2.6-8,9-8,14.5v1.2c0,5.5,7.3,11.4,7.3,11.4l3,1.7c0,0,0,0,0,0c-0.1-0.1-1.8-2.1-1.6-2.5c2-4,7.3-15.4,7.3-19.9V424
								c0-1-0.1-1.9-0.3-2.7l0.3,0.2L552.4,420.1z M546.9,434.4c-2,1.1-3.6,0.5-3.9-1.5c-1.9,0.7-3.3-0.4-3.3-2.7
								c1.2-0.2,4.2-5.3,4-6.9c2-1.1,3.6-0.5,3.9,1.5c1.9-0.7,3.3,0.4,3.3,2.7C550.9,430.1,549.1,433.2,546.9,434.4z"/>
						</g>
					</g>
					<g id="XMLID_16343_">
						<g id="XMLID_16345_">
							<path class="st5" d="M552.4,420.1C552.4,420.1,552.4,420.1,552.4,420.1c-1.5-0.9-3.4-0.8-5.5,0.5c-3.2,1.8-5.9,5.7-7.2,9.7
								c-0.5,1.6-0.8,3.2-0.8,4.8v1.2c0,4.2,4.8,9.1,6.9,11.1c0.1,0,0.1,0.1,0.2,0.1c0,0,0,0,0,0c0.5,0.3,1.2,0.1,1.5-0.4
								c1.9-3.9,7.4-15.5,7.4-20v-1.2C554.9,423,554,421,552.4,420.1z M543,432.9c0-0.2-0.1-0.5-0.1-0.8c0-2.6,1.8-5.7,4-6.9
								c0.2-0.1,0.5-0.3,0.7-0.3c1.9-0.7,3.3,0.4,3.3,2.7c0,2.6-1.8,5.7-4,6.9C544.9,435.6,543.3,434.9,543,432.9z"/>
						</g>
						<g id="XMLID_16344_">
							<path class="st10" d="M548.2,423.8c-0.3,0.1-0.6,0.2-0.9,0.4c-2.7,1.5-4.8,5.3-4.8,8.4c0,0.3,0,0.7,0.1,1
								c0.4,2.4,2.4,3.2,4.8,1.8c2.7-1.5,4.8-5.3,4.8-8.4C552.2,424.3,550.5,423,548.2,423.8z"/>
						</g>
					</g>
				</g>
			</g>
		</g>
		<g id="XMLID_16363_">
			<polygon class="st2" points="551.4,427 547.5,425.9 543.7,431.4 544.7,430.8 544.7,434 546.9,432.7 546.9,430.9 548.1,430.2 
				548.1,432 550.4,430.7 550.4,427.5 			"/>
		</g>
	</g>
	<g id="XMLID_16338_">
		<g id="XMLID_16340_">
			<g id="XMLID_16356_">
				<g id="XMLID_16357_">
					<g id="XMLID_16365_">
						<g id="XMLID_16370_">
							<path class="st10" d="M562.6,291.3C562.6,291.3,562.6,291.3,562.6,291.3l-2.6-1.5c-0.6-0.4-1.2-0.6-2-0.6
								c-0.9,0-1.9,0.3-2.9,0.9c-3.8,2.2-6.9,7.8-6.9,12.6v1.1c0,4.7,6.3,9.9,6.3,9.9l2.6,1.5c0,0,0,0,0,0c-0.1-0.1-1.6-1.8-1.4-2.1
								c1.7-3.5,6.3-13.4,6.3-17.2v-1.1c0-0.9-0.1-1.6-0.3-2.3l0.3,0.2L562.6,291.3z M557.8,303.7c-1.7,1-3.1,0.4-3.4-1.3
								c-1.6,0.6-2.8-0.3-2.8-2.3c1-0.2,3.6-4.6,3.5-6c1.7-1,3.1-0.4,3.4,1.3c1.6-0.6,2.8,0.3,2.8,2.3
								C561.3,299.9,559.7,302.6,557.8,303.7z"/>
						</g>
					</g>
					<g id="XMLID_16358_">
						<g id="XMLID_16360_">
							<path class="st5" d="M562.6,291.3C562.6,291.3,562.6,291.3,562.6,291.3c-1.3-0.7-3-0.7-4.8,0.4c-2.7,1.6-5.1,4.9-6.3,8.4
								c-0.4,1.4-0.7,2.8-0.7,4.1v1.1c0,3.6,4.1,7.9,6,9.6c0,0,0.1,0.1,0.1,0.1c0,0,0,0,0,0c0.5,0.3,1.1,0.1,1.3-0.4
								c1.6-3.4,6.4-13.4,6.4-17.4v-1.1C564.8,293.8,563.9,292.1,562.6,291.3z M554.4,302.4c0-0.2-0.1-0.5-0.1-0.7
								c0-2.2,1.6-4.9,3.5-6c0.2-0.1,0.4-0.2,0.6-0.3c1.6-0.6,2.8,0.3,2.8,2.3c0,2.2-1.6,4.9-3.5,6
								C556.1,304.7,554.7,304.1,554.4,302.4z"/>
						</g>
						<g id="XMLID_16359_">
							<path class="st10" d="M559,294.5c-0.2,0.1-0.5,0.2-0.8,0.4c-2.3,1.3-4.2,4.6-4.2,7.3c0,0.3,0,0.6,0.1,0.8
								c0.4,2.1,2.1,2.8,4.1,1.6c2.3-1.3,4.2-4.6,4.2-7.3C562.4,294.9,560.9,293.8,559,294.5z"/>
						</g>
					</g>
				</g>
			</g>
		</g>
		<g id="XMLID_16375_">
			<path class="st2" d="M558.2,296.6c0.8-0.5,1.4-0.1,1.4,0.8c0,0.9-0.6,2-1.4,2.5s-1.4,0.1-1.4-0.8
				C556.7,298.2,557.4,297.1,558.2,296.6z"/>
		</g>
		<g id="XMLID_16378_">
			<path class="st2" d="M555.4,305c0.7,0.3,1.7,0.2,2.8-0.4c1.1-0.6,2-1.6,2.8-2.8v-0.2c0-1.5-1.1-2.1-2.4-1.4l-0.8,0.5
				c-1.3,0.8-2.4,2.6-2.4,4.1V305z"/>
		</g>
	</g>
</g>
<g id="XMLID_16491_">
	<g id="XMLID_16431_">
		<g id="XMLID_16433_">
			<path class="st10" d="M235.6,159c-10.3,0.5-17.7,2.9-25.1,10.4c-5.5,5.5-17.2,37.3-12.1,63c3.9,19.8,25.1,30,43,20.9
				c14.1-7.2,16.9-29.5,16.5-42.6C257.5,197.7,235.6,159,235.6,159z"/>
		</g>
		<g id="XMLID_16432_">
			<path class="st6" d="M222.8,168.6c0,0-2.8-3.7-9.3-1.6c0,0-6.8,8.3-12.1,23.8c0,0-1.7-0.1-0.6-4.4c1.1-4.4,5.4-14.9,8.1-18.6
				c2.8-3.7,6.6-6.8,25.3-13.6c16.4-6,11.1,9,11.1,9L222.8,168.6z"/>
		</g>
	</g>
	<g id="XMLID_16423_">
		<g id="XMLID_16421_">
			<g id="XMLID_16462_">
				<path class="st10" d="M190.9,380.5c-2.2-1.1-3.6,1.7-5.6,3.9c-1.4,1.6-3.6,4-3.9,5.8c-0.5,2.6,1.9,6.8,4.5,9.1
					c2.6,2.3,5.7,3.9,6.6,8.9c1,5,2.9,8,8.1,10.2c5.7,2.5,13.3,1.7,15.9,0c3.1-2,0.3-4.2-4-10.3c-5.6-8-10-13.7-10-21.2L190.9,380.5
					z"/>
			</g>
			<g id="XMLID_16461_">
				<path class="st11" d="M195.4,374l-4.6,6.7c-2,2.9-1.4,7,1.6,9c0,0,0.1,0.1,0.1,0.1c2.8,1.8,6.6,1.1,8.8-1.4l7.2-7.8L195.4,374z"
					/>
			</g>
			<g id="XMLID_16460_">
				<path class="st6" d="M281.1,244.4c0.3,8.6-1.2,41.5-7.4,57.9c-5.9,15.4-11.2,23.6-13.1,26.8c-1.9,3.2-55.7,55.6-55.7,55.6
					s-9.1-0.7-10.6-9.5c0,0,22.1-37.5,26.8-45.2c4.8-7.7,21.7-19.5,21.7-19.5l-1.5-72.1L281.1,244.4z"/>
			</g>
			<g id="XMLID_16459_">
				
					<rect x="266" y="407.4" transform="matrix(-0.9751 0.2217 -0.2217 -0.9751 629.1564 761.1808)" class="st11" width="11.7" height="17"/>
			</g>
			<g id="XMLID_16458_">
				<path class="st6" d="M259.2,272.2c0,0,4.4-3.7,10.4-12c8.7-12,7.4-22.7,7.4-22.7h-3.6l-52.4,6.9c-0.9,5-1.9,13.1,0.6,25.7
					c4.6,23.2,23.3,62.9,23.3,62.9c-0.3,3.2-1.6,16.7,1.4,28.6c4.8,18.9,18,50.8,18,50.8s8.2,1.2,12.3-3.6c0,0-7.3-64.8-9.2-81.4
					C265.3,309.5,259.2,272.2,259.2,272.2z"/>
			</g>
			<g id="XMLID_16456_">
				<path class="st10" d="M278.2,417.3l-0.4-1.6c1.2,0.2,6.3,8.7,11.4,12.4c5.6,4,10.4,6.4,12.9,8.2c3.3,2.4-1.5,7.4-9.7,7.9
					c-3.6,0.2-7.9-0.3-11.2-1.9c-3.6-1.7-5.7-4.9-8.4-7.6c-2-2-5-3.5-6.5-5.9c-0.7-1.1-0.8-3.8-0.7-6.1c0.1-2.1,0.1-4.5,0.9-4.4
					c0.1,0.2,0.3,1.2,0.3,1.2c1,0.7,4.3,1.7,6.9,1.5C275.5,420.9,279.1,420.5,278.2,417.3z"/>
			</g>
			<g id="XMLID_16455_">
				<path class="st10" d="M265.9,316.5c0,0-5.5-39-6.8-44.3c0,0,9.7-3.7,12.6-7.1c0,0-2.1,4.7-9,8.9L265.9,316.5z"/>
			</g>
			<g id="XMLID_16424_">
				<path class="st10" d="M244.9,333c-2.4-3.2-8.2-17.7-8.2-17.7l6,18.8c-1.5,5.6-1.4,14.9-1.4,14.9l3.1-2.7
					C244.3,344.1,244.9,333,244.9,333z"/>
			</g>
			<g id="XMLID_16453_">
				<path class="st6" d="M229.5,309.5"/>
			</g>
		</g>
		<g id="XMLID_15745_">
			<g id="XMLID_16425_">
				<path class="st11" d="M275.2,228.1c-7.6-25.5-6-47.1-7.4-53.8l19.5,27.5c0,0,1.4,15.8,3.9,26.9c2.2,9.8,5.3,21.9,9,29.5
					c0.7,1.3,1.8,2.4,3.2,2.9c3.7,1.5,5.4,3.4,8.4,5.7c2.3,1.7,4.1,2,3.9,2.7c-0.2,0.9-1.4,2.5-3.9,2.2c-1.3-0.2-3-0.8-5.2-1.8
					c0,0,2.1,3.9,6.3,7.5c5.7,5,6.5,8.4-3,10.1c-5.9,1.1-11.3-1.8-18-14.1c-1.9-3.5-4.9-9.2-6.7-14
					C280.9,247,277.5,235.8,275.2,228.1z"/>
			</g>
			<g id="XMLID_16418_">
				<path class="st2" d="M261.2,162.9c9.2,0.1,18.3,2.2,21.4,12c3,9.6,7,37.3,7,37.3s-3.9,5.1-16.8,4.3L261.2,162.9z"/>
			</g>
			<g>
				<g id="XMLID_16_">
					<path class="st2" d="M261.2,162.9c9.2,0.1,18.3,2.2,21.4,12c3,9.6,7,37.3,7,37.3s-3.9,5.1-16.8,4.3L261.2,162.9z"/>
				</g>
				<g id="XMLID_17_" class="st12">
					<path d="M261.2,162.9c9.2,0.1,18.3,2.2,21.4,12c3,9.6,7,37.3,7,37.3s-3.9,5.1-16.8,4.3L261.2,162.9z"/>
				</g>
			</g>
			<g id="XMLID_16416_">
				<path class="st2" d="M242.3,163.5c-6.5,1.6-13.9,2.8-20.2,5.9c-4.4,2.1,1.9,38.2,1.9,38.2l-3.1,36.8c8.6,9.3,41.4,13.7,60.2,0
					c0,0,0-50.1,0-59.6c0-9.5-5.3-21-19.9-21.8L242.3,163.5z"/>
			</g>
			<g id="XMLID_16415_">
				<polygon class="st2" points="224,206.9 229.6,191.2 223,219.3 				"/>
				<polygon class="st13" points="224,206.9 229.6,191.2 223,219.3 				"/>
			</g>
			<g id="XMLID_15829_">
				<g id="XMLID_16046_">
					<g id="XMLID_16414_">
						<path class="st10" d="M232.1,130.3l4.1,16c0.9,3.4,4,5.8,7.5,5.8h4.7v-22.3L232.1,130.3z"/>
					</g>
					<g id="XMLID_16413_">
						
							<ellipse transform="matrix(0.9925 -0.1225 0.1225 0.9925 -13.2569 33.3668)" class="st10" cx="264.7" cy="124.5" rx="17.1" ry="17.1"/>
					</g>
					<g id="XMLID_16412_">
						<path class="st10" d="M238.2,114.7c0,0-3-0.5-5.4,1.9c-2.3,2.4-1.8,6.8,0,16.8l7.2,0.8L238.2,114.7z"/>
					</g>
					<g id="XMLID_16411_">
						<path class="st11" d="M241.5,134.3c-1.1,0.6-2.6-1.4-3.9-2.8c-1.3-1.4-5.6-3.2-7.7,1.3c-2.2,4.6,1.2,10.6,4.5,12
							c4.6,1.9,6.6-2.1,6.6-2.1l1.3,20.9c0,0,3.8,9.3,14.1,10.7c10.3,1.4,8.2-7.1,4.8-11.2l0-6.4c0,0,5.3,0.9,7.8,0.4
							c3.8-0.7,5.6-4.2,7.4-8.6c2.6-6.7,4.3-16.1,2-28c-3-15.8-20.5-16.2-30.6-9.8C237.7,116.8,241.5,134.3,241.5,134.3z"/>
					</g>
					<g id="XMLID_16410_">
						<path class="st10" d="M241.5,136.1c-0.5,0-2.6-3.4-3.9-4.6c-1.8-1.7,0.5-16.8,0.5-16.8c0.9-12.4,19.2-13.3,24.2-13.7
							c11.6-0.8,19.4,5.6,16.3,13.6c-2.1,3.7-6.4,4.7-10.4,5.2c-6.8,0.8-18.4-2.8-19.8-3c-2-0.3-2.4,1.6-3.5,6.9
							C244.1,128.3,243.3,136,241.5,136.1z"/>
					</g>
					<g id="XMLID_16409_">
						<path class="st10" d="M238.2,115.9l-6.4-3.4c0.9-1.8,3.1-2.6,4.9-1.6C238.4,111.8,239.1,114.1,238.2,115.9z"/>
					</g>
					<g id="XMLID_16049_">
						<path class="st14" d="M261.2,156.6c0,0-9.5-1.9-12.9-3.7c-2.2-1.2-4.1-3.2-4.6-4.6c0,0,0.6,2.8,2.6,5.4
							c2.4,3.1,14.9,5.4,14.9,5.4V156.6z"/>
					</g>
				</g>
				<g id="XMLID_15830_">
					<g id="XMLID_16045_">
						<path class="st10" d="M261.5,133.9c0,1.1-0.9,2-1.9,2c-1.1,0-1.9-0.9-1.9-2c0-1.1,0.9-2,1.9-2
							C260.6,131.9,261.5,132.8,261.5,133.9z"/>
					</g>
					<g id="XMLID_16042_">
						<path class="st10" d="M259.5,126.7l-4.1,2.3c-0.6-1.2-0.2-2.6,1-3.3C257.4,125.1,258.9,125.6,259.5,126.7z"/>
					</g>
					<g id="XMLID_16034_">
						<path class="st14" d="M260.3,146.7l4.4,1.6c-0.4,1.2-1.8,1.9-3,1.4C260.5,149.3,259.9,148,260.3,146.7z"/>
					</g>
					<g id="XMLID_16032_">
						<path class="st10" d="M277.5,128.3l-3.7-2.9c0.8-1.1,2.2-1.3,3.2-0.5C278.1,125.7,278.3,127.2,277.5,128.3z"/>
					</g>
					<g id="XMLID_16030_">
						<path class="st10" d="M276.4,132.8c0,1.1-0.9,2-1.9,2c-1.1,0-1.9-0.9-1.9-2c0-1.1,0.9-2,1.9-2
							C275.5,130.8,276.4,131.7,276.4,132.8z"/>
					</g>
					<g id="XMLID_16029_">
						<polygon class="st14" points="268.4,133.2 266.6,144.5 272.9,143.8 						"/>
					</g>
				</g>
			</g>
			<g id="XMLID_15787_">
				<path class="st6" d="M228.2,314.8"/>
			</g>
		</g>
	</g>
	<g id="XMLID_16430_">
		<path class="st6" d="M236,163.1c0,0,14.4,6.4,16,28.6c3.3,46.4-31.7,57.1-31.7,57.1c-3-5.9-0.6-13.8,1.9-19.4
			c0,0,18.5-10.7,17.4-34.4c-0.8-16.9-9.2-26.4-13.4-27.7C226.1,167.3,230.2,164.3,236,163.1z"/>
	</g>
	<g id="XMLID_16427_">
		<path class="st11" d="M208.9,250.2c6.3-2.2,7.8-3,15.7-9.3c8.1-6.5,14.5-14.8,20.8-23.2c0.7-1,1.6-1.9,2.5-2.7
			c0.9-0.8,2.7-2.4,4.3-4.8c2.8-4.2,2.8-6.9,3.1-11.9c0.3-5-0.6-10-2.1-14.8c-0.2-0.5-0.3-1.1-0.7-1.5c-0.4-0.4-0.9-0.7-1.5-0.5
			c-0.5,0.1-0.8,0.6-1,1c-1.8,2.7-3,5.7-4.7,8.4c-0.8,1.2-1.3,1.7-2.1,3c-0.1,0.2-1.5,1.6-1.8,1c-0.3-0.7,0.6-2.6,0.3-5.7
			c-0.3-3-1.2-4.3-2.1-4.5c-1.5-0.4-1.5,1.3-2.2,3.8c-0.8,3-1.9,5.4-1.8,9.9c0.1,3.9-0.5,5.5-1.3,8.9c-0.8,3.4-4.7,11.1-14.4,17
			c-2.1,1.3-2.8,1.5-1.6-3.5c3.2-13.2,6-20.8,9-27.6c3.9-8.7,6.5-15.4,2.9-19c-6.2-6.1-14.8-2.6-19.6,7.8
			c-5.6,12-8.6,21.1-10.8,43.2C199,234.4,198.1,253.9,208.9,250.2z"/>
	</g>
	<g id="XMLID_16426_">
		<path class="st2" d="M226.8,167.6c-7.3,0.3-12.1,3.3-16.9,12.8c-4.7,9.3-8.5,26.1-8.5,26.1s6.8,7.3,20.1,6.9
			c0,0,8.3-21.9,9.9-27.8C233.2,179.2,231.7,169.8,226.8,167.6z"/>
	</g>
</g>
</svg>
