<?xml version="1.0" encoding="utf-8"?>
<!-- Generator: Adobe Illustrator 23.0.3, SVG Export Plug-In . SVG Version: 6.00 Build 0)  -->
<svg version="1.1" id="Layer_2" xmlns="http://www.w3.org/2000/svg" xmlns:xlink="http://www.w3.org/1999/xlink" x="0px" y="0px"
	 viewBox="0 0 988.9 620" style="enable-background:new 0 0 988.9 620;" xml:space="preserve">
<style type="text/css">
	.st0{opacity:0.2;fill:#E695F4;}
	.st1{opacity:0.5;fill:#2096BA;}
	.st2{fill:#292A75;}
	.st3{fill:#C5F1FC;}
	.st4{fill:#F7C139;}
	.st5{fill:#B3E3EF;}
	.st6{fill:#33A6D2;}
	.st7{opacity:0.4;fill:#B3E3EF;}
	.st8{fill:#50BFE2;}
	.st9{fill:#0E5A98;}
	.st10{fill:#E8E8E8;}
	.st11{fill:#FFC2A4;}
	.st12{fill:#1B1B66;}
	.st13{fill:#FC412D;}
	.st14{fill:#071F27;}
</style>
<path class="st0" d="M986,38V574c-16.6,18.8-39.8,34.3-73.6,47.5H215.4c-64.3-53.2-46-126.2-0.1-156.1
	c82.7-54.1,103.1-165.2-36.2-210.2C26.8,206,163.7-62.1,364,27.7c174.8,78.3,327.3,68.5,500,5.1C918.4,12.9,957.8,17.5,986,38z"/>
<path class="st1" d="M388.3,534c0,0,275.9,37.1,525.4,4.4c0,0-60-17-266.2-18.7C441.2,518,388.3,534,388.3,534z"/>
<g>
	<path class="st2" d="M869.7,509.4c0,0-2,23.7,2.6,23.7c4.6,0,6.4-36.9,6.4-36.9L869.7,509.4z"/>
	<g>
		<path class="st3" d="M791.1,215.5v261.1H441.7V215.5c0-3.4,2.8-6.2,6.2-6.2h337.1C788.3,209.3,791.1,212,791.1,215.5z"/>
		<g>
			<path class="st4" d="M655.2,187.2c4-7.3,13.3-10,20.6-6c7.3,4,10,13.3,6,20.6c-4,7.3-13.3,10-20.6,6
				C653.9,203.8,651.2,194.6,655.2,187.2z"/>
		</g>
		<path class="st5" d="M776,257.3V455c0,3.4-2.8,6.2-6.2,6.2H463c-3.4,0-6.2-2.8-6.2-6.2V257.3c0-1.6,0.6-3,1.6-4.1
			c1.1-1.2,2.8-2,4.6-2h306.7C773.2,251.1,776,253.8,776,257.3z"/>
		<path class="st6" d="M622.6,220.1c0,3.4-2.8,6.2-6.2,6.2c-3.4,0-6.2-2.8-6.2-6.2s2.8-6.2,6.2-6.2
			C619.8,213.9,622.6,216.7,622.6,220.1z"/>
		<g>
			<path class="st6" d="M649.8,236.2h-70.7c-0.9,0-1.5-0.7-1.5-1.5c0-0.9,0.7-1.6,1.5-1.6h70.7c0.9,0,1.5,0.7,1.5,1.6
				C651.3,235.6,650.7,236.2,649.8,236.2z"/>
		</g>
		<path class="st7" d="M776,257.3V455c0,3.4-2.8,6.2-6.2,6.2H647.8l-189.4-208c1.1-1.2,2.8-2,4.6-2h306.7
			C773.2,251.1,776,253.8,776,257.3z"/>
		<polygon class="st5" points="791.1,476.6 791.1,476.6 441.7,476.6 441.7,476.6 397.6,524.1 835.2,524.1 		"/>
		<rect x="397.6" y="524.1" class="st3" width="437.7" height="9"/>
		<path class="st8" d="M768,474.3v2.3H464.8v-2.3c0-3.4,2.8-6.2,6.2-6.2h290.8C765.2,468.1,768,470.9,768,474.3z"/>
		<polygon class="st8" points="461.9,482.8 441.7,509.2 793.4,509.2 771,482.8 		"/>
		<g>
			<path class="st9" d="M624.3,342.7c-12,0-23.3,2.3-32.9,6.2c-2-6.6-6-19.6-6.8-19c-0.8,0.7-4.7,18.9-6.2,26
				c-7.8,5.5-13.6,12.3-16.4,20h-10.8c-2.6,0-4.8,6.4-4.8,14.3c0,7.9,2.1,14.3,4.8,14.3h14.3c4.4,6.8,11.2,12.7,19.7,17.1v22.9
				c0,2.3,1.8,4.1,4.1,4.1h4.9c2.3,0,4.1-1.8,4.1-4.1v-17.6c7.9,2.4,16.7,3.7,25.9,3.7c6.2,0,12.1-0.6,17.7-1.7v15.5
				c0,2.3,1.8,4.1,4.1,4.1h4.9c2.3,0,4.1-1.8,4.1-4.1v-19.2c19.9-7.5,33.4-21.9,33.4-38.5C688.6,362.4,659.8,342.7,624.3,342.7z"/>
			<path class="st4" d="M636.1,270.3c0-8.4,6.8-15.2,15.2-15.2c8.4,0,15.2,6.8,15.2,15.2c0,8.4-6.8,15.2-15.2,15.2
				C642.8,285.5,636.1,278.7,636.1,270.3z"/>
			<path class="st4" d="M642.1,342.6c0,2.5-0.5,4.8-1.5,6.9c-11.7-3.4-23.4-2.6-31.6-1.1c-0.7-1.8-1-3.8-1-5.9
				c0-9.4,7.6-17.1,17.1-17.1C634.5,325.6,642.1,333.2,642.1,342.6z"/>
			<polygon class="st2" points="570.4,362.8 572.4,334.6 580.3,347.2 578.5,355.9 			"/>
			<path class="st2" d="M577.9,370.3c0,1.5-1.2,2.7-2.7,2.7c-1.5,0-2.7-1.2-2.7-2.7c0-1.5,1.2-2.7,2.7-2.7
				C576.7,367.6,577.9,368.8,577.9,370.3z"/>
			<g>
				<path class="st2" d="M648.6,353c-0.1,0-0.1,0-0.2,0c-2.5-1.2-5.1-2.2-7.9-3c-11.8-3.5-23.6-2.5-31.4-1.1
					c-6.7,1.2-11.1,2.9-11.2,2.9c-0.2,0.1-0.4,0-0.5-0.2c-0.1-0.2,0-0.4,0.2-0.5c0,0,4.5-1.7,11.3-2.9c7.9-1.4,19.8-2.4,31.8,1.1
					c2.8,0.8,5.4,1.8,8,3c0.2,0.1,0.3,0.3,0.2,0.5C648.9,352.9,648.7,353,648.6,353z"/>
			</g>
			<g>
				<path class="st4" d="M598.1,299.2c0-8.4,6.8-15.2,15.2-15.2c8.4,0,15.2,6.8,15.2,15.2c0,8.4-6.8,15.2-15.2,15.2
					C604.9,314.4,598.1,307.6,598.1,299.2z"/>
				<g>
					<path class="st10" d="M613.3,312.3c-7.2,0-13.1-5.9-13.1-13.1c0-7.2,5.9-13.1,13.1-13.1c7.2,0,13.1,5.9,13.1,13.1
						C626.4,306.4,620.5,312.3,613.3,312.3z M613.3,286.9c-6.8,0-12.3,5.5-12.3,12.3c0,6.8,5.5,12.3,12.3,12.3
						c6.8,0,12.3-5.5,12.3-12.3C625.6,292.4,620.1,286.9,613.3,286.9z"/>
				</g>
			</g>
		</g>
		<path class="st11" d="M841.1,122.3c-0.2,1.9-0.5,2.9-0.4,2c0.1-1.7-3.7-10.8-11.4-11.7c-7.7-0.9-13.7,5.1-18.1,8.6
			c-1.7,1.3-3.7,1.2-5.6,0.2c-0.7,0.5-1.4,1.4-2,3.2c-1.7,5.6,2.7,11.4,5.8,10.6c0,0,3.2,12.5,12.3,14.6c1.2,0.3,2.5,0.4,3.9,0.3
			c2.5-0.2,4.5-1.1,6.2-2.2c6.7-4.6,7.9-14.4,7.9-14.4s3.9,0.6,5-4.5C846,124.3,843.5,120.8,841.1,122.3z"/>
		<path class="st4" d="M863.3,466.1c0,0,3.1-42.1,4.4-71.2c0.8-16.4,1-39.3,0.5-59.8c0-0.7,0-1.3,0-2c0,0,0,0,0,0
			c-0.4-15.2-1.1-28.9-2.3-37.3c0,0-2.9,0.8-7.6,1.8c-0.2,0.1-0.4,0.1-0.7,0.2c-7.6,1.7-19.4,3.8-30.3,4c-0.3,0-0.5,0-0.8,0
			c-1.3,0-2.6,0-3.8-0.1c-1.2-0.1-2.4-0.1-3.7-0.2c-0.3,0-0.5,0-0.8,0c-7.9-0.4-15.9-0.9-22.2-1.4c-0.2,0-0.5,0-0.7-0.1
			c-7.3-0.5-12.4-0.9-12.4-0.9s-1.4,9.8-2.9,23.5c0,0.3-0.1,0.7-0.1,1c-2.4,21.4-5,51.7-3.4,69.4c2.6,29.4,12.1,37.2,28.1,54.7
			c16,17.5,27.6,25.8,27.6,25.8l7,53.7c0,0,13.7,0.8,18.3,0l1-28.7l11.2,10.8c0,0,6.7-9,9-13.2L863.3,466.1z M828.7,418
			c-3.9-5.1-9.3-21.4-10.3-38.7c-1.1-17.3,2.3-40.3,4.6-41c2.3-0.8,3.1,5.4,4.4,21.7C828.7,376.2,829.1,418.7,828.7,418z"/>
		<path class="st11" d="M690.5,181.4c-2.3-3.7-8.7-8.9-13-6.6c-4.3,2.3-9.3,8.3-8.3,10.3c1,1.9,5-3.1,5-3.1s-4.3,4.3-2.9,5.8
			c1.4,1.5,4.1-2.7,4.1-2.7s-2.9,5-1.9,5.8c1,0.8,4.5-3.7,4.5-3.7s-1,8.3,3.1,7.2c0,0,3.5-4.1,5.8-8.3
			C689.1,181.8,690.5,181.4,690.5,181.4z"/>
		<path class="st2" d="M839.2,527.2c0,0-1.8,4.4,4.6,7c6.4,2.6,27.4,9,28.4,5.7c1-3.4-14.7-12.6-14.7-12.6H839.2z"/>
		<g>
			<path class="st12" d="M808.6,131.8c-0.2,0-0.3-0.1-0.4-0.3c-0.5-2.6-2.2-4.1-2.2-4.1c-0.2-0.1-0.2-0.4-0.1-0.5
				c0.1-0.2,0.4-0.2,0.5,0c0.1,0.1,2,1.7,2.5,4.6C809,131.5,808.9,131.7,808.6,131.8C808.7,131.8,808.6,131.8,808.6,131.8z"/>
		</g>
		<g>
			<path class="st12" d="M840.4,130.7C840.4,130.7,840.4,130.7,840.4,130.7c-0.2,0-0.4-0.2-0.4-0.4c0.1-1.9,1.6-3.9,1.6-4
				c0.1-0.2,0.4-0.2,0.5-0.1c0.2,0.1,0.2,0.4,0.1,0.5c0,0-1.4,1.9-1.5,3.6C840.8,130.6,840.6,130.7,840.4,130.7z"/>
		</g>
		<g>
			<path class="st12" d="M812.7,122.6c-0.1,0-0.1,0-0.2-0.1c-0.2-0.1-0.2-0.4-0.1-0.5c0.2-0.3,2.1-1.8,4.5-2
				c1.7-0.1,3.2,0.5,4.5,1.9c0.1,0.2,0.1,0.4,0,0.5c-0.2,0.1-0.4,0.1-0.5,0c-1-1.1-2.2-1.7-3.5-1.7c0,0,0,0,0,0
				c-2.2,0-4,1.5-4.2,1.7C812.9,122.5,812.8,122.6,812.7,122.6z"/>
		</g>
		<g>
			<path class="st12" d="M828.3,122.6C828.3,122.6,828.2,122.6,828.3,122.6c-0.3,0-0.4-0.3-0.4-0.5c0.1-0.5,1-1.4,2.3-1.9
				c1.2-0.5,3.7-1.1,6.4,0.8c0.2,0.1,0.2,0.4,0.1,0.5c-0.1,0.2-0.4,0.2-0.5,0.1c-2.1-1.4-3.9-1.3-5.1-0.9c-1.4,0.4-2.4,1.4-2.5,1.6
				C828.6,122.5,828.5,122.6,828.3,122.6z"/>
		</g>
		<g>
			<path class="st12" d="M821.1,139c-0.1,0-0.1,0-0.2,0c-0.5-0.2-0.9-0.3,0.4-14.2l0-0.1c0-0.2,0.2-0.4,0.4-0.3
				c0.2,0,0.4,0.2,0.3,0.4l0,0.1c-0.8,9.1-0.9,12.3-0.8,13.3c0.6-0.5,1.8-2,2.7-3.3c0.1-0.2,0.4-0.2,0.5-0.1
				c0.2,0.1,0.2,0.4,0.1,0.5C822.2,138.5,821.4,139,821.1,139z"/>
		</g>
		<g>
			<path class="st12" d="M823.8,144.5c-1.6,0-2.9-0.6-3-0.7c-0.2-0.1-0.3-0.3-0.2-0.5c0.1-0.2,0.3-0.3,0.5-0.2c0,0,2.7,1.3,4.8,0
				c0.2-0.1,0.4-0.1,0.5,0.1c0.1,0.2,0.1,0.4-0.1,0.5C825.6,144.4,824.7,144.5,823.8,144.5z"/>
		</g>
		<g>
			<path class="st12" d="M796.1,300.1c-1.8,6-6.2,16.6-16.1,23.5c0-0.3,0.1-0.7,0.1-1c9.3-6.7,13.5-16.8,15.3-22.6
				C795.6,300,795.8,300,796.1,300.1z"/>
		</g>
		<g>
			<path class="st12" d="M827.3,301.7l-0.4,14.6c0,0.2-0.2,0.3-0.3,0.4c-0.1,0-0.4,0.1-1,0.1c-1.4,0-4.2-0.3-5.9-2.5
				c-1.5-1.9-1.6-8.4-1.5-12.7c0.3,0,0.5,0,0.8,0c-0.1,4.2-0.1,10.5,1.3,12.2c1.7,2.3,4.8,2.3,5.8,2.2l0.4-14.2
				C826.8,301.7,827.1,301.7,827.3,301.7z"/>
		</g>
		<g>
			<path class="st12" d="M868.2,335c-4.2-8.6-9-29.6-10.6-37.4c0.2,0,0.5-0.1,0.7-0.2c1.5,7.1,5.9,26.3,9.9,35.5c0,0,0,0,0,0
				C868.1,333.7,868.2,334.4,868.2,335z"/>
		</g>
		<path class="st12" d="M815.7,126.5c0-0.9,0.7-1.5,1.6-1.5c0.9,0,1.5,0.7,1.5,1.5c0,0.9-0.7,1.6-1.5,1.6
			C816.4,128,815.7,127.3,815.7,126.5z"/>
		<path class="st12" d="M828.2,126.2c0-0.9,0.7-1.5,1.5-1.5c0.9,0,1.5,0.7,1.5,1.5c0,0.9-0.7,1.5-1.5,1.5
			C828.9,127.7,828.2,127,828.2,126.2z"/>
		<path class="st13" d="M893.7,194.5c-7.5-15.2-19-38.7-36.1-39.2c-17.1-0.5-33.3,0-33.3,0c-16.8,1.3-41.1-1.9-50.7,10.1
			c-5.5,6.9-26.7,51.4-37.1,57.5c-10.3,6.2-24-4-46.1-41.5c0,0-7.7,8.7-9.5,13c0,0,12.7,37,32.3,52.3c19.6,15.2,51.6-1.8,69.2-39.8
			c0,0,0.3,89.8,0.5,92.1c0,0,18.3,2.1,39.7,2.6c21.4,0.5,43.1-5.9,43.1-5.9s-2.3,5-5.2,8.5c0,0,1.9,7.4,9.1,10.2
			c0,0,37.2-29.4,42.8-48.8C918.2,246.2,901.2,209.7,893.7,194.5z M885.5,252.4c-1.3,15.5-18.6,42.6-18.6,42.6
			c1.1-16.4-3.9-93.2-3.9-93.2C871,213.9,886.7,236.9,885.5,252.4z"/>
		<path class="st11" d="M860.6,304.2c0,0-8.5,0-8.5,2.5c0,2.5,5.6,1,5.6,1s-10.6,5-10.3,7.4c0.4,2.3,8.1-3.5,7.5-2.9
			c-0.6,0.6-8.9,6-7.6,8.1c1.4,2.1,11-6.4,10.3-5.6c-0.8,0.8-7,6.2-6,7.6c1,1.4,9.9-4.7,8.9-4.3c-1,0.4-6.2,5.2-4.8,6.6
			c1.3,1.4,14.7-10.5,13.9-10.2c-0.8,0.3-4.1-3.2-6.6-5.5C860.6,306.5,860.6,304.2,860.6,304.2z"/>
		<path class="st11" d="M821.8,149.8c0.4,2.7,1.3,16.1,4.9,15.6c4.1-0.6,5.2-17.5,5.2-17.5l0,0c-1.7,1.2-3.7,2-6.2,2.2
			C824.3,150.2,823,150.1,821.8,149.8z"/>
		<g>
			<path class="st12" d="M730.3,252.8c-4.8,0-8.9-1.2-12.1-2.6c-7.2-3.3-11.1-8.4-11.2-8.6c-0.2-0.2-0.1-0.5,0.1-0.7
				c0.2-0.2,0.5-0.1,0.7,0.1c0,0,3.9,5.1,10.9,8.3c9.3,4.2,19.3,3.2,29.8-3c0.2-0.1,0.6-0.1,0.7,0.2c0.1,0.2,0.1,0.6-0.2,0.7
				C741.9,251.3,735.6,252.8,730.3,252.8z"/>
		</g>
		<g>
			<path class="st12" d="M859.2,499.8c-0.1,0-0.3-0.1-0.4-0.2c-5.8-6-35.4-32.6-35.7-32.9c-0.2-0.2-0.2-0.5,0-0.7
				c0.2-0.2,0.5-0.2,0.7,0c0.3,0.3,30,27,35.7,33c0.2,0.2,0.2,0.5,0,0.7C859.5,499.7,859.4,499.8,859.2,499.8z"/>
		</g>
		<g>
			<path class="st12" d="M869.3,478.3c-0.2,0-0.4-0.1-0.5-0.3c-7.8-16.1-42.8-63.4-43.2-63.8c-0.2-0.2-0.1-0.5,0.1-0.7
				c0.2-0.2,0.6-0.1,0.7,0.1c0.4,0.5,35.5,47.8,43.3,64c0.1,0.3,0,0.6-0.2,0.7C869.5,478.3,869.4,478.3,869.3,478.3z"/>
		</g>
		<g>
			<path class="st12" d="M824.7,150.5c-0.9,0-1.5-0.1-1.5-0.1c-0.2,0-0.4-0.2-0.3-0.4c0-0.2,0.2-0.4,0.5-0.3
				c0.3,0.1,8.4,1.3,12.8-6.7c0.1-0.2,0.3-0.3,0.5-0.1c0.2,0.1,0.3,0.3,0.2,0.5C833.2,149.7,827.4,150.5,824.7,150.5z"/>
		</g>
		<path class="st14" d="M840,109.9c-2.7-5.9-11.2-15.5-23.2-13.3c-12,2.2-17.3,9.5-16.9,15.5c0.2,3.7,2.8,7.6,5.8,9.2
			c1.9,1,3.9,1.2,5.6-0.2c4.4-3.5,10.3-9.5,18.1-8.6c7.7,0.9,11.6,10.1,11.4,11.7c-0.1,0.8,0.2-0.2,0.4-2
			C841.5,119.2,841.7,113.6,840,109.9z"/>
	</g>
</g>
</svg>
