<?xml version="1.0" encoding="utf-8"?>
<!-- Generator: Adobe Illustrator 24.2.0, SVG Export Plug-In . SVG Version: 6.00 Build 0)  -->
<svg version="1.1" id="Layer_1" xmlns="http://www.w3.org/2000/svg" xmlns:xlink="http://www.w3.org/1999/xlink" x="0px" y="0px"
	 viewBox="0 0 1137 800" style="enable-background:new 0 0 1137 800;" xml:space="preserve">
<style type="text/css">
	.st0{fill:#EBEFF2;}
	.st1{fill:#D8DEE8;}
	.st2{opacity:0.3;fill:url(#SVGID_1_);enable-background:new    ;}
	.st3{opacity:0.24;fill:url(#SVGID_2_);enable-background:new    ;}
	.st4{opacity:0.24;fill:url(#SVGID_3_);enable-background:new    ;}
	.st5{opacity:0.3;fill:url(#SVGID_4_);enable-background:new    ;}
	.st6{opacity:0.53;fill:url(#SVGID_5_);enable-background:new    ;}
	.st7{opacity:0.24;fill:url(#SVGID_6_);enable-background:new    ;}
	.st8{fill:url(#SVGID_7_);}
	.st9{opacity:0.16;fill:#FFFFFF;enable-background:new    ;}
	.st10{fill:url(#SVGID_8_);}
	.st11{fill:url(#SVGID_9_);}
	.st12{fill:url(#SVGID_10_);}
	.st13{opacity:0.74;fill:#FFFFFF;enable-background:new    ;}
	.st14{fill:url(#SVGID_11_);}
	.st15{fill:url(#SVGID_12_);}
	.st16{fill:url(#SVGID_13_);}
	.st17{fill:url(#SVGID_14_);}
	.st18{opacity:0.25;fill:url(#SVGID_15_);enable-background:new    ;}
	.st19{opacity:0.25;fill:url(#SVGID_16_);enable-background:new    ;}
	.st20{fill:url(#SVGID_17_);}
	.st21{opacity:0.25;fill:url(#SVGID_18_);enable-background:new    ;}
	.st22{opacity:0.25;fill:url(#SVGID_19_);enable-background:new    ;}
	.st23{fill:url(#SVGID_20_);}
	.st24{fill:url(#SVGID_21_);}
	.st25{fill:url(#SVGID_22_);}
	.st26{fill:url(#SVGID_23_);}
	.st27{fill:#97A6B7;}
	.st28{fill:url(#SVGID_24_);}
	.st29{fill:#FFFFFF;}
	.st30{opacity:0.3;fill:#D8DEE8;enable-background:new    ;}
	.st31{fill:url(#SVGID_25_);}
	.st32{opacity:0.6;fill:#FFFFFF;enable-background:new    ;}
	.st33{opacity:0.36;fill:#FFFFFF;enable-background:new    ;}
	.st34{fill:url(#SVGID_26_);}
	.st35{opacity:0.5;fill:url(#SVGID_27_);enable-background:new    ;}
	.st36{opacity:0.5;fill:url(#SVGID_28_);enable-background:new    ;}
	.st37{opacity:0.5;fill:url(#SVGID_29_);enable-background:new    ;}
	.st38{fill:url(#SVGID_30_);}
	.st39{opacity:0.5;fill:url(#SVGID_31_);enable-background:new    ;}
	.st40{opacity:0.5;fill:url(#SVGID_32_);enable-background:new    ;}
	.st41{opacity:0.5;fill:url(#SVGID_33_);enable-background:new    ;}
	.st42{opacity:0.5;fill:url(#SVGID_34_);enable-background:new    ;}
	.st43{fill:url(#SVGID_35_);}
	.st44{opacity:0.5;fill:url(#SVGID_36_);enable-background:new    ;}
	.st45{opacity:0.5;fill:url(#SVGID_37_);enable-background:new    ;}
	.st46{opacity:0.5;fill:url(#SVGID_38_);enable-background:new    ;}
	.st47{opacity:0.5;fill:url(#SVGID_39_);enable-background:new    ;}
	.st48{opacity:0.5;fill:url(#SVGID_40_);enable-background:new    ;}
	.st49{fill:url(#SVGID_41_);}
	.st50{opacity:0.5;fill:url(#SVGID_42_);enable-background:new    ;}
	.st51{opacity:0.5;fill:url(#SVGID_43_);enable-background:new    ;}
	.st52{opacity:0.5;fill:url(#SVGID_44_);enable-background:new    ;}
	.st53{fill:url(#SVGID_45_);}
	.st54{fill:url(#SVGID_46_);}
	.st55{opacity:0.3;}
	.st56{opacity:0.3;fill:url(#SVGID_47_);enable-background:new    ;}
	.st57{opacity:0.68;fill:#FFFFFF;enable-background:new    ;}
	.st58{fill:url(#SVGID_48_);}
	.st59{fill:url(#SVGID_49_);}
	.st60{fill:url(#SVGID_50_);}
	.st61{fill:url(#SVGID_51_);}
	.st62{fill:url(#SVGID_52_);}
	.st63{opacity:0.3;fill:url(#SVGID_53_);enable-background:new    ;}
	.st64{fill:#999999;}
	.st65{fill:#C2C2C2;}
	.st66{opacity:0.57;fill:url(#SVGID_54_);enable-background:new    ;}
	.st67{opacity:0.7;fill:url(#SVGID_55_);enable-background:new    ;}
	.st68{opacity:0.7;fill:url(#SVGID_56_);enable-background:new    ;}
	.st69{opacity:0.7;fill:url(#SVGID_57_);enable-background:new    ;}
	.st70{opacity:0.7;fill:url(#SVGID_58_);enable-background:new    ;}
	.st71{opacity:0.7;fill:url(#SVGID_59_);enable-background:new    ;}
	.st72{fill:url(#SVGID_60_);}
	.st73{fill:url(#SVGID_61_);}
	.st74{fill:url(#SVGID_62_);}
	.st75{fill:url(#SVGID_63_);}
	.st76{fill:url(#SVGID_64_);}
	.st77{fill:url(#SVGID_65_);}
	.st78{fill:url(#SVGID_66_);}
	.st79{fill:url(#SVGID_67_);}
	.st80{fill:url(#SVGID_68_);}
	.st81{fill:url(#SVGID_69_);}
	.st82{fill:url(#SVGID_70_);}
	.st83{fill:#26264F;}
	.st84{fill:url(#SVGID_71_);}
	.st85{fill:#9B305E;}
	.st86{fill:url(#SVGID_72_);}
	.st87{fill:url(#SVGID_73_);}
	.st88{fill:url(#SVGID_74_);}
	.st89{fill:url(#SVGID_75_);}
	.st90{fill:url(#SVGID_76_);}
	.st91{fill:url(#SVGID_77_);}
	.st92{opacity:0.3;fill:url(#SVGID_78_);enable-background:new    ;}
	.st93{fill:url(#SVGID_79_);}
	.st94{fill:url(#SVGID_80_);}
	.st95{fill:url(#SVGID_81_);}
	.st96{fill:url(#SVGID_82_);}
	.st97{fill:url(#SVGID_83_);}
	.st98{fill:url(#SVGID_84_);}
	.st99{opacity:0.3;fill:url(#SVGID_85_);enable-background:new    ;}
	.st100{opacity:0.3;fill:url(#SVGID_86_);enable-background:new    ;}
	.st101{fill:url(#SVGID_87_);}
	.st102{fill:url(#SVGID_88_);}
	.st103{fill:url(#SVGID_89_);}
	.st104{fill:url(#SVGID_90_);}
	.st105{fill:url(#SVGID_91_);}
	.st106{fill:url(#SVGID_92_);}
	.st107{fill:url(#SVGID_93_);}
	.st108{fill:url(#SVGID_94_);}
	.st109{fill:url(#SVGID_95_);}
	.st110{fill:url(#SVGID_96_);}
	.st111{fill:url(#SVGID_97_);}
	.st112{fill:url(#SVGID_98_);}
	.st113{fill:url(#SVGID_99_);}
	.st114{fill:url(#SVGID_100_);}
	.st115{opacity:0.49;}
	.st116{opacity:0.49;fill:#FFFFFF;enable-background:new    ;}
	.st117{fill:url(#SVGID_101_);}
	.st118{fill:url(#SVGID_102_);}
	.st119{fill:url(#SVGID_103_);}
	.st120{fill:url(#SVGID_104_);}
	.st121{fill:url(#SVGID_105_);}
	.st122{fill:url(#SVGID_106_);}
	.st123{fill:#444B8C;}
	.st124{fill:url(#SVGID_107_);}
	.st125{opacity:0.3;fill:url(#SVGID_108_);enable-background:new    ;}
	.st126{fill:url(#SVGID_109_);}
	.st127{fill:url(#SVGID_110_);}
	.st128{fill:url(#SVGID_111_);}
	.st129{fill:url(#SVGID_112_);}
	.st130{fill:url(#SVGID_113_);}
	.st131{fill:url(#SVGID_114_);}
	.st132{fill:url(#SVGID_115_);}
	.st133{opacity:0.3;fill:url(#SVGID_116_);enable-background:new    ;}
	.st134{fill:url(#SVGID_117_);}
	.st135{fill:url(#SVGID_118_);}
	.st136{fill:url(#SVGID_119_);}
	.st137{fill:url(#SVGID_120_);}
	.st138{fill:url(#SVGID_121_);}
	.st139{fill:url(#SVGID_122_);}
	.st140{opacity:0.3;fill:url(#SVGID_123_);enable-background:new    ;}
	.st141{fill:url(#SVGID_124_);}
	.st142{fill:url(#SVGID_125_);}
	.st143{fill:url(#SVGID_126_);}
	.st144{fill:url(#SVGID_127_);}
	.st145{fill:url(#SVGID_128_);}
	.st146{fill:url(#SVGID_129_);}
	.st147{fill:url(#SVGID_130_);}
	.st148{opacity:0.3;fill:url(#SVGID_131_);enable-background:new    ;}
	.st149{fill:url(#SVGID_132_);}
</style>
<g>
	<path class="st0" d="M508.4,590.9c-76,2.4-130.4,8.9-199.9,17.4c-58.6,7.1-264.9,32.3-264.1,54.3C45.1,681,190.1,686.4,190,706
		c0,10.4-40.6,14.5-40.2,21.7c0.6,12,114.5,23.6,255.4,16.3c138.9-7.2,165.2-25.5,326-44.6c207.4-24.6,313.5-11.8,315.1-28.2
		c2-20.8-165.6-58.1-304.3-72.8C719.6,596.1,628.9,587,508.4,590.9z"/>
	<path class="st1" d="M513.8,601.7c-16.9,2.4-42.4,7.3-84.8,11.4c-18.6,1.8-62.1,5.6-107.6,9.8c-32.1,3-49.9,4.7-50,7.6
		c-0.1,5,52.2,8,52.2,12c-0.2,8-210.4,1.3-212.4,21.2c-1,9.8,48.9,24.4,88.6,31c61.9,10.3,109.5,2.9,186.9-9.8
		c144.7-23.7,140.5-24.1,176.6-29.3C712.8,633.9,784.4,642,785,632.7C785.8,619,631.3,584.8,513.8,601.7z"/>
	<path class="st1" d="M296,707.1c-3.4-12.8-90-8-91.8,4.9c-1,7.3,24.7,21.3,50.5,18.5C276.2,728.1,297.8,714,296,707.1z"/>
	<path class="st1" d="M683.4,666.9c-31.5-9.1-69.9-0.6-70.1,7.6c-0.2,7.2,28.9,15.9,54.3,13.6c14-1.3,32-6.4,32.1-12
		C699.7,671.7,687.9,668.2,683.4,666.9z"/>
	<path class="st1" d="M825.2,659.9c-33.5-2.7-69.7,5.1-69.5,11.4c0.1,6.5,38.2,12.3,71.2,9.8c14.8-1.1,39.6-4.7,39.7-9.8
		C866.6,666.4,843.3,661.3,825.2,659.9z"/>
	
		<linearGradient id="SVGID_1_" gradientUnits="userSpaceOnUse" x1="606.7928" y1="483.467" x2="225.8055" y2="19.6269" gradientTransform="matrix(1 0 0 -1 0 802)">
		<stop  offset="0" style="stop-color:#FF9085"/>
		<stop  offset="1" style="stop-color:#FB6FBB"/>
	</linearGradient>
	<path class="st2" d="M797.5,519.6L70.1,563.5L140,453.6l700.5-19.7L797.5,519.6z"/>
	
		<linearGradient id="SVGID_2_" gradientUnits="userSpaceOnUse" x1="417.7637" y1="570.9695" x2="129.4661" y2="219.9767" gradientTransform="matrix(1 0 0 -1 0 802)">
		<stop  offset="0" style="stop-color:#AA80F9"/>
		<stop  offset="0.9964" style="stop-color:#6165D7"/>
	</linearGradient>
	<path class="st3" d="M537.5,409.3l-523.5,9l74.4-110.2l502.9,7.5L537.5,409.3z"/>
	
		<linearGradient id="SVGID_3_" gradientUnits="userSpaceOnUse" x1="926.9832" y1="672.6736" x2="640.5901" y2="324.0058" gradientTransform="matrix(1 0 0 -1 0 802)">
		<stop  offset="0" style="stop-color:#AA80F9"/>
		<stop  offset="0.9964" style="stop-color:#6165D7"/>
	</linearGradient>
	<path class="st4" d="M1088.4,308.5l-585.9-12.3l55-92.7l566.5,30.1L1088.4,308.5z"/>
	
		<linearGradient id="SVGID_4_" gradientUnits="userSpaceOnUse" x1="900.5002" y1="733.2424" x2="698.3995" y2="487.1896" gradientTransform="matrix(1 0 0 -1 0 802)">
		<stop  offset="0" style="stop-color:#FF9085"/>
		<stop  offset="1" style="stop-color:#FB6FBB"/>
	</linearGradient>
	<path class="st5" d="M1021.2,205.7L591.8,179l38.2-64.9l419,36L1021.2,205.7z"/>
	
		<linearGradient id="SVGID_5_" gradientUnits="userSpaceOnUse" x1="894.6269" y1="535.0392" x2="658.8223" y2="247.9558" gradientTransform="matrix(1 0 0 -1 0 802)">
		<stop  offset="0" style="stop-color:#FF9085"/>
		<stop  offset="1" style="stop-color:#FB6FBB"/>
	</linearGradient>
	<path class="st6" d="M1016.8,405.4l-460.2,8.3L598,341l448.2,3.1L1016.8,405.4z"/>
	
		<linearGradient id="SVGID_6_" gradientUnits="userSpaceOnUse" x1="1041.9226" y1="408.9659" x2="937.825" y2="282.2305" gradientTransform="matrix(1 0 0 -1 0 802)">
		<stop  offset="0" style="stop-color:#AA80F9"/>
		<stop  offset="0.9964" style="stop-color:#6165D7"/>
	</linearGradient>
	<path class="st7" d="M1089.5,451.4l-190.4,11.7l15.7-31.5l188.2-9.3L1089.5,451.4z"/>
	
		<linearGradient id="SVGID_7_" gradientUnits="userSpaceOnUse" x1="1072.7017" y1="356.085" x2="807.9755" y2="356.085" gradientTransform="matrix(1 0 0 -1 0 802)">
		<stop  offset="3.597120e-03" style="stop-color:#E38DDD"/>
		<stop  offset="1" style="stop-color:#9571F6"/>
	</linearGradient>
	<path class="st8" d="M860.5,618.3c-10.3-3.6-27.6-9.5-39.7-26.1c-22-30.2-12.5-75.8,4.8-104.5c14.8-24.6,41.2-39.9,93.8-70.6
		c49.6-28.9,66.3-31.8,71.1-50.4c6.9-26.5-20-47.4-7.3-77.2c1.5-3.6,6.8-15.8,18.3-20.1c19.7-7.3,44.1,14,55.3,29.4
		c10.8,14.9,22,41.8,12,62.9c-7.2,15.3-19.5,14.5-22.6,28.6c-3.1,14.3,8.3,19.4,12.8,43.2c1.8,9.5,5.4,28.6-3.6,44.6
		c-11.6,20.7-33.7,17.4-38.4,34.8c-3.4,12.6,7,18.4,6.2,33c-1,19.3-20.4,32.7-36.6,43.7C967.6,602.6,916.1,637.5,860.5,618.3z"/>
	<path class="st9" d="M1008.6,277.9c-10.6,7.3,19.7,40.3,10.7,83.4c-9.7,46.4-58.9,76.3-81.6,90.1c-38.8,23.6-55.2,18.4-80.3,45.1
		c-9.9,10.6-30.6,32.6-28.6,63.3c0.2,2.9,2.8,34.7,27.2,50c27.7,17.3,62.4,0.1,92.3-14.7c18.1-9,54.2-26.9,51.8-46.8
		c-1.5-12.2-17.1-22.4-29.9-25.4c-18.3-4.3-33.6,5.4-35.2,2.2c-1.5-2.9,9.5-13.6,24.5-21.4c30-15.7,45.5-4.1,67.8-18.7
		c2.7-1.8,23.9-16.2,24.5-38.4c0.3-12.8-6.2-28.5-16.5-31.2c-11.7-3-23.2,11.9-25.9,9.4c-2.6-2.4,6.4-17.6,17.4-31.2
		c16.2-20.1,23.4-20.3,29.4-33c9.2-19.5,2.4-39.9,1.3-42.8C1048,290.2,1017.7,271.6,1008.6,277.9z"/>
	
		<linearGradient id="SVGID_8_" gradientUnits="userSpaceOnUse" x1="859.7044" y1="314.9861" x2="909.1099" y2="50.5826" gradientTransform="matrix(1 0 0 -1 0 802)">
		<stop  offset="3.597120e-03" style="stop-color:#E38DDD"/>
		<stop  offset="1" style="stop-color:#9571F6"/>
	</linearGradient>
	<path class="st10" d="M867.1,626.6c-5.4,6.3-46.2-0.5-68.9-21.8c-4.6-4.3-12.8-12-14.6-23.2c-2.2-13.7,7.6-17.1,6.4-31.7
		c-1.1-13.5-9.6-13.6-11.5-30.2c-0.7-6.2-2.1-18.9,7.5-25.4c5.6-3.8,10.1-2.3,12.8-5.8c4.7-6.3-8.5-12.8-8.7-25.9
		c-0.1-7.1,3.8-12.4,11.7-22.9c7.1-9.6,11.2-15,18.5-16.3c10.7-1.8,16.5,7.3,23.8,5.4c11.7-3.2,1.2-28.5,18.4-40.1
		c10.9-7.4,27.4-5.4,30.3-4.9c31.6,4.5,58.9,40.7,49.3,65.6c-7.6,19.7-35.3,25-34.2,45.1c0.4,6.9,4,10.3,2.3,19.2
		c-2.1,11.4-10.6,19.5-15.1,23.6c-17.1,15.9-32.7,14.9-35.4,25.4c-1.7,6.7,4.3,7.9,3.6,18.7c-0.6,9.8-5.7,11.5-6.5,19.7
		C855.3,615.4,870.7,622.4,867.1,626.6z"/>
	<path class="st9" d="M913.7,399.8c11.2,3.1,18.5,17.1,20.1,27.7c2.2,15.1-5.9,32-18.7,40.1c-20,12.7-42.2-1.5-50.9,10.7
		c-4.6,6.4-3.5,17.6,1.8,22.8c9.3,9.1,28.7-2.8,33.9,4.5c3.7,5.2-1.3,18.1-10.3,25.4c-17.9,14.7-46,2.7-49.5,11.6
		c-0.8,2.1,2.6,8.5,9.4,21.4c5.1,9.7,6.2,10.7,6.2,13.8c0.1,9.5-9.8,11.7-10.7,21c-1,10.7,11.1,18.3,9.4,20.5
		c-1.8,2.4-17.4-3.1-27.2-12.9c-23.4-23.4-12.4-69.1-8.5-85.2C834.3,456.2,885.1,392,913.7,399.8z"/>
	
		<linearGradient id="SVGID_9_" gradientUnits="userSpaceOnUse" x1="216.4558" y1="480.8796" x2="69.6156" y2="569.8458" gradientTransform="matrix(1 0 0 -1 0 802)">
		<stop  offset="0" style="stop-color:#FF9085"/>
		<stop  offset="1" style="stop-color:#FB6FBB"/>
	</linearGradient>
	<path class="st11" d="M210,287.8l-4.4,0c-0.4-2-0.9-4-1.6-5.8l3.8-2.2c1.1-0.6,1.4-1.9,0.8-3l-3.8-6.6c-0.6-1.1-2-1.4-3-0.8
		l-3.9,2.2c-1.3-1.6-2.7-3-4.3-4.3l2.3-3.9c0.6-1,0.2-2.4-0.8-3l-6.6-3.9c-1.1-0.6-2.4-0.3-3,0.8l-2.3,3.9c-1.9-0.7-3.8-1.3-5.9-1.6
		v-4.5c0-1.2-1-2.2-2.2-2.2l-7.7-0.1c-1.2,0-2.2,1-2.2,2.2v4.6c-2,0.3-4,0.8-5.9,1.5l-2.3-4c-0.6-1.1-2-1.5-3.1-0.9l-6.8,3.7
		c-1.1,0.6-1.5,2-0.8,3l2.3,4c-1.6,1.3-3.1,2.7-4.4,4.2l-4-2.3c-1.1-0.6-2.5-0.3-3.1,0.8l-3.9,6.6c-0.6,1.1-0.3,2.4,0.8,3.1l4,2.3
		c-0.7,1.9-1.3,3.9-1.6,5.9l-4.6,0c-1.3,0-2.3,1-2.3,2.2v7.7c0,1.2,1,2.2,2.3,2.3l4.6,0c0.4,2.1,0.9,4,1.6,6l-3.9,2.2
		c-1.1,0.6-1.5,2-0.8,3l3.9,6.7c0.6,1.1,2,1.4,3.1,0.8l3.9-2.2c1.3,1.6,2.8,3,4.4,4.4l-2.2,3.8c-0.6,1.1-0.3,2.4,0.8,3l6.8,3.8
		c1.1,0.6,2.5,0.2,3.1-0.8l2.2-3.8c1.9,0.7,4,1.2,6,1.6v4.4c0,1.2,1,2.2,2.2,2.2l7.7,0c1.2,0,2.2-1,2.2-2.2v-4.3
		c2.1-0.4,4.1-0.9,6-1.6l2.2,3.7c0.6,1.1,2,1.4,3,0.8l6.6-3.8c1.1-0.6,1.4-2,0.8-3l-2.2-3.8c1.6-1.3,3-2.8,4.3-4.3l3.8,2.2
		c1.1,0.6,2.4,0.2,3-0.8l3.8-6.6c0.6-1,0.2-2.4-0.8-3l-3.8-2.2c0.7-1.9,1.2-3.8,1.5-5.9l4.4,0c1.2,0,2.2-1,2.2-2.2V290
		C212.2,288.8,211.3,287.8,210,287.8z M171.3,271.2c12.4,0.2,22.5,10.2,22.5,22.5c0,12.3-10,22.2-22.5,22.2
		c-12.5,0-22.7-10.1-22.7-22.5C148.6,281,158.8,271.1,171.3,271.2z"/>
	
		<linearGradient id="SVGID_10_" gradientUnits="userSpaceOnUse" x1="268.4173" y1="711.4652" x2="230.4669" y2="490.856" gradientTransform="matrix(1 0 0 -1 0 802)">
		<stop  offset="0" style="stop-color:#FF9085"/>
		<stop  offset="1" style="stop-color:#FB6FBB"/>
	</linearGradient>
	<path class="st12" d="M319.6,148.4l-7-0.2c-0.6-3.1-1.4-6.1-2.5-9l6.1-3.2c1.7-0.9,2.2-2.9,1.3-4.6l-6-10.3c-1-1.6-3.1-2.3-4.7-1.4
		l-6.2,3.2c-2.1-2.4-4.3-4.7-6.8-6.8l3.6-5.9c1-1.6,0.4-3.7-1.3-4.7l-10.5-6.2c-1.7-1-3.8-0.5-4.8,1.1l-3.6,5.9
		c-3-1.2-6.1-2.1-9.3-2.7v-7c0-1.9-1.6-3.5-3.5-3.5L252,92.6c-2-0.1-3.6,1.4-3.6,3.3v7c-3.3,0.4-6.4,1.1-9.5,2l-3.7-6.2
		c-1-1.7-3.2-2.3-4.9-1.4l-10.8,5.5c-1.7,0.9-2.3,3-1.3,4.7l3.7,6.2c-2.5,1.9-4.9,4.1-7,6.4l-6.4-3.7c-1.7-1-4-0.5-5,1.1l-6.3,10.1
		c-1,1.6-0.4,3.8,1.3,4.8l6.4,3.7c-1.1,2.9-2,6-2.6,9.1L195,145c-2-0.1-3.7,1.5-3.7,3.4v12c0,1.9,1.6,3.5,3.7,3.6l7.3,0.2
		c0.6,3.2,1.4,6.3,2.6,9.3l-6.3,3.3c-1.8,0.9-2.3,3-1.3,4.7l6.3,10.5c1,1.7,3.2,2.3,5,1.3l6.2-3.3c2.2,2.5,4.5,4.8,7.1,6.9l-3.6,5.8
		c-1,1.6-0.4,3.7,1.3,4.7l10.8,6.1c1.7,1,3.9,0.4,4.9-1.2l3.5-5.8c3.1,1.1,6.3,2,9.6,2.6v6.7c0,1.9,1.6,3.4,3.6,3.5l12.3,0.1
		c2,0,3.5-1.5,3.5-3.4v-6.7c3.3-0.5,6.4-1.3,9.5-2.3l3.5,5.8c1,1.6,3.1,2.2,4.8,1.3l10.5-5.7c1.7-0.9,2.2-3,1.3-4.6l-3.5-5.8
		c2.5-2,4.8-4.2,6.8-6.5l6,3.4c1.7,1,3.8,0.4,4.7-1.2l6-10c0.9-1.6,0.4-3.7-1.3-4.6l-6-3.5c1.1-2.9,1.9-5.9,2.4-8.9l6.9,0.2
		c1.9,0,3.5-1.4,3.5-3.3v-11.6C323,150,321.5,148.5,319.6,148.4z M258.2,121.7c19.7,0.7,35.6,16.5,35.6,35.4
		c0,18.9-15.9,33.9-35.6,33.6c-19.9-0.3-36.2-16.2-36.2-35.4C222,136.1,238.2,121,258.2,121.7z"/>
	<path class="st13" d="M258.2,51.6c-61-3-111.7,42.5-111.7,101.7c0,59.2,50.7,107.3,111.7,107.3c59.3,0,106.2-45.5,106.2-101.8
		C364.4,102.4,317.5,54.5,258.2,51.6z M258.2,235.5c-46.3-0.3-84.5-36.9-84.5-81.6s38.2-79.4,84.5-77.4c45.3,2,81.3,38.5,81.3,81.5
		S303.5,235.8,258.2,235.5z"/>
	
		<linearGradient id="SVGID_11_" gradientUnits="userSpaceOnUse" x1="152.5999" y1="759.5014" x2="201.7788" y2="509.5598" gradientTransform="matrix(1 0 0 -1 0 802)">
		<stop  offset="0" style="stop-color:#FFC444"/>
		<stop  offset="0.9964" style="stop-color:#F36F56"/>
	</linearGradient>
	<path class="st14" d="M184.1,192.7l-23.5,12.4c9.1,15.7,22.2,28.9,37.9,38.5l13.4-21.9C200.4,214.4,190.8,204.5,184.1,192.7z"/>
	
		<linearGradient id="SVGID_12_" gradientUnits="userSpaceOnUse" x1="308.1638" y1="781.9342" x2="356.245" y2="537.5548" gradientTransform="matrix(1 0 0 -1 0 802)">
		<stop  offset="0" style="stop-color:#FFC444"/>
		<stop  offset="0.9964" style="stop-color:#F36F56"/>
	</linearGradient>
	<path class="st15" d="M325,112.9l21.8-11.5c-8.9-13.4-21-24.9-35.1-33.5L299,88.8C309.4,95,318.3,103.2,325,112.9z"/>
	
		<linearGradient id="SVGID_13_" gradientUnits="userSpaceOnUse" x1="181.1454" y1="762.834" x2="229.1637" y2="518.7919" gradientTransform="matrix(1 0 0 -1 0 802)">
		<stop  offset="0" style="stop-color:#FFC444"/>
		<stop  offset="0.9964" style="stop-color:#F36F56"/>
	</linearGradient>
	<path class="st16" d="M189.2,108c7.2-9.4,16.6-17.2,27.4-22.7l-13.3-22.5c-15,7.5-27.8,18.3-37.5,31.5L189.2,108z"/>
	
		<linearGradient id="SVGID_14_" gradientUnits="userSpaceOnUse" x1="137.9971" y1="759.0219" x2="187.6954" y2="506.4424" gradientTransform="matrix(1 0 0 -1 0 802)">
		<stop  offset="0" style="stop-color:#FFC444"/>
		<stop  offset="0.9964" style="stop-color:#F36F56"/>
	</linearGradient>
	<path class="st17" d="M173.7,153.9c0-1,0-1.9,0.1-2.9l-27.3-0.7c0,1,0,1.9,0,2.9c0,17,4.2,33.2,11.8,47.6l23.6-12.4
		C176.6,177.9,173.7,166.2,173.7,153.9z"/>
	
		<linearGradient id="SVGID_15_" gradientUnits="userSpaceOnUse" x1="317.885" y1="782.2463" x2="365.3465" y2="541.0186" gradientTransform="matrix(1 0 0 -1 0 802)">
		<stop  offset="0" style="stop-color:#FFC444"/>
		<stop  offset="0.9964" style="stop-color:#F36F56"/>
	</linearGradient>
	<path class="st18" d="M339.4,158.1c0,11.8-2.7,22.9-7.5,32.9l21.7,12.6c6.8-13.5,10.7-28.7,10.7-44.9c0-0.9,0-1.8,0-2.7l-24.9-0.6
		C339.4,156.3,339.4,157.2,339.4,158.1z"/>
	
		<linearGradient id="SVGID_16_" gradientUnits="userSpaceOnUse" x1="290.2314" y1="776.1991" x2="337.4299" y2="536.3283" gradientTransform="matrix(1 0 0 -1 0 802)">
		<stop  offset="0" style="stop-color:#FFC444"/>
		<stop  offset="0.9964" style="stop-color:#F36F56"/>
	</linearGradient>
	<path class="st19" d="M329.8,195.1c-6.3,11.1-15.3,20.6-26.3,27.6l12.7,21.5c14.7-9.2,26.9-21.7,35.3-36.5L329.8,195.1z"/>
	
		<linearGradient id="SVGID_17_" gradientUnits="userSpaceOnUse" x1="323.6275" y1="782.869" x2="371.1734" y2="541.2373" gradientTransform="matrix(1 0 0 -1 0 802)">
		<stop  offset="0" style="stop-color:#FFC444"/>
		<stop  offset="0.9964" style="stop-color:#F36F56"/>
	</linearGradient>
	<path class="st20" d="M327.7,116.9c6.2,10.1,10.3,21.6,11.4,33.8l25,0.7c-1.2-16.6-6.4-32.2-14.7-45.9L327.7,116.9z"/>
	
		<linearGradient id="SVGID_18_" gradientUnits="userSpaceOnUse" x1="189.0669" y1="765.5317" x2="238.0703" y2="516.4822" gradientTransform="matrix(1 0 0 -1 0 802)">
		<stop  offset="0" style="stop-color:#FFC444"/>
		<stop  offset="0.9964" style="stop-color:#F36F56"/>
	</linearGradient>
	<path class="st21" d="M255.7,235.5c-14.3-0.5-27.8-4.5-39.6-11.1l-13.3,21.8c15.7,8.7,33.8,13.9,52.9,14.3V235.5z"/>
	
		<linearGradient id="SVGID_19_" gradientUnits="userSpaceOnUse" x1="243.1401" y1="768.2627" x2="290.5545" y2="527.2725" gradientTransform="matrix(1 0 0 -1 0 802)">
		<stop  offset="0" style="stop-color:#FFC444"/>
		<stop  offset="0.9964" style="stop-color:#F36F56"/>
	</linearGradient>
	<path class="st22" d="M299.4,225.1c-11.4,6.3-24.6,10-38.7,10.3v25c18.9-0.4,36.4-5.4,51.5-13.8L299.4,225.1z"/>
	
		<linearGradient id="SVGID_20_" gradientUnits="userSpaceOnUse" x1="226.9805" y1="769.8517" x2="274.3368" y2="529.1911" gradientTransform="matrix(1 0 0 -1 0 802)">
		<stop  offset="0" style="stop-color:#FFC444"/>
		<stop  offset="0.9964" style="stop-color:#F36F56"/>
	</linearGradient>
	<path class="st23" d="M221,83.3c10.6-4.6,22.3-7,34.7-6.8v-25c-17.2-0.5-33.5,2.9-48,9.3L221,83.3z"/>
	
		<linearGradient id="SVGID_21_" gradientUnits="userSpaceOnUse" x1="149.4734" y1="760.1025" x2="199.1191" y2="507.7879" gradientTransform="matrix(1 0 0 -1 0 802)">
		<stop  offset="0" style="stop-color:#FFC444"/>
		<stop  offset="0.9964" style="stop-color:#F36F56"/>
	</linearGradient>
	<path class="st24" d="M174.1,146.2c1.3-12.6,5.6-24.2,12.3-34.3l-23.5-13.6c-9.1,13.7-14.8,29.8-16.2,47.1L174.1,146.2z"/>
	
		<linearGradient id="SVGID_22_" gradientUnits="userSpaceOnUse" x1="274.6161" y1="779.0543" x2="324.7258" y2="524.4098" gradientTransform="matrix(1 0 0 -1 0 802)">
		<stop  offset="0" style="stop-color:#FFC444"/>
		<stop  offset="0.9964" style="stop-color:#F36F56"/>
	</linearGradient>
	<path class="st25" d="M260.7,76.7c12.3,0.9,23.8,4.3,34.1,9.7l12.8-20.9c-14-7.7-29.9-12.6-46.9-13.8V76.7L260.7,76.7z"/>
	
		<linearGradient id="SVGID_23_" gradientUnits="userSpaceOnUse" x1="120.6242" y1="610.431" x2="102.3543" y2="504.2306" gradientTransform="matrix(1 0 0 -1 0 802)">
		<stop  offset="0" style="stop-color:#FFC444"/>
		<stop  offset="0.9964" style="stop-color:#F36F56"/>
	</linearGradient>
	<path class="st26" d="M145.2,218.4l-3.4,0c-0.3-1.5-0.7-2.9-1.2-4.3l3-1.7c0.8-0.5,1.1-1.5,0.6-2.2l-2.9-4.9
		c-0.5-0.8-1.5-1-2.3-0.6l-3,1.7c-1-1.1-2.1-2.2-3.3-3.1l1.7-2.9c0.5-0.8,0.2-1.8-0.6-2.2l-5.1-2.8c-0.8-0.4-1.9-0.2-2.3,0.6
		l-1.7,2.9c-1.4-0.5-3-0.9-4.5-1.1v-3.4c0-0.9-0.8-1.6-1.7-1.6l-5.9,0c-0.9,0-1.7,0.7-1.7,1.6v3.4c-1.6,0.3-3.1,0.7-4.5,1.2
		l-1.8-2.9c-0.5-0.8-1.5-1.1-2.3-0.6l-5.2,2.9c-0.8,0.5-1.1,1.5-0.6,2.3l1.8,2.9c-1.2,1-2.3,2-3.3,3.2l-3.1-1.7
		c-0.8-0.5-1.9-0.2-2.4,0.6l-3,4.9c-0.5,0.8-0.2,1.8,0.6,2.2l3,1.6c-0.5,1.4-1,2.9-1.2,4.4l-3.5,0c-1,0-1.7,0.8-1.7,1.7v5.7
		c0,0.9,0.8,1.6,1.7,1.6l3.5,0c0.3,1.5,0.7,3,1.2,4.4l-3,1.7c-0.8,0.5-1.1,1.5-0.6,2.3l3,4.9c0.5,0.8,1.5,1,2.4,0.6l3-1.7
		c1,1.2,2.2,2.2,3.4,3.2l-1.7,2.8c-0.5,0.8-0.2,1.8,0.6,2.2l5.2,2.8c0.8,0.4,1.9,0.2,2.3-0.6l1.7-2.8c1.5,0.5,3,0.9,4.6,1.1v3.2
		c0,0.9,0.8,1.6,1.7,1.6l5.9-0.1c0.9,0,1.7-0.8,1.7-1.7v-3.2c1.6-0.3,3.1-0.7,4.6-1.2l1.7,2.8c0.5,0.8,1.5,1,2.3,0.6l5.1-2.9
		c0.8-0.5,1.1-1.5,0.6-2.2l-1.7-2.8c1.2-1,2.3-2.1,3.3-3.2l2.9,1.6c0.8,0.4,1.8,0.2,2.3-0.6l2.9-4.9c0.5-0.8,0.2-1.8-0.6-2.2
		l-2.9-1.6c0.5-1.4,0.9-2.9,1.2-4.4l3.4,0c0.9,0,1.7-0.7,1.7-1.6V220C146.9,219.1,146.1,218.4,145.2,218.4z M115.4,206.6
		c9.5-0.1,17.2,7.3,17.2,16.4c0,9.1-7.7,16.6-17.2,16.7c-9.6,0.1-17.3-7.2-17.3-16.4C98.1,214.1,105.9,206.7,115.4,206.6z"/>
	<path class="st27" d="M645.7,610.3c-9.4-3.1-16.5-11.1-18.5-21l-13.7-68L496,525.6l-14.5,70.8c-2,9.9,6.1,19.9,15.4,23.5l49.2,19.2
		c9.1,3.6,19,5,28.7,4.2l103.9-8.9c3-0.3,5.5-2.6,5.8-5.7s2.5-6.5-0.4-7.5L645.7,610.3z"/>
	
		<linearGradient id="SVGID_24_" gradientUnits="userSpaceOnUse" x1="585.432" y1="254.0992" x2="585.432" y2="188.5942" gradientTransform="matrix(1 0 0 -1 0 802)">
		<stop  offset="0.494" style="stop-color:#EBEFF2"/>
		<stop  offset="1" style="stop-color:#FFFFFF"/>
	</linearGradient>
	<path class="st28" d="M646.8,606.2c-9.4-3.1-16.5-11-18.5-20.7l-13.7-67.1L500,522.5l-14.4,69.9c-2,9.8,3.3,19.6,12.7,23.2l49.1,19
		c9.1,3.5,19,4.9,28.7,4.1l103.8-8.8c3-0.3,5.5-2.6,5.8-5.6c0.4-3-1.5-5.9-4.4-6.8L646.8,606.2z"/>
	<path class="st27" d="M255.9,566.6c-12.7,0.8-23.2-7.5-23.2-18.4V154.5c0-10.9,10.4-19.4,23.2-18.8l591.7,41
		c9.4,0.4,14.4-7.1,14.4,2.1v334.8c0,9.3-7.6,17.3-16.9,17.9L255.9,566.6z"/>
	<path class="st29" d="M261.2,566.6c-12.7,0.8-23.2-7.5-23.2-18.4V154.5c0-10.9,10.4-19.4,23.2-18.8l589.2,25.5
		c9.4,0.4,16.9,8.3,16.9,17.6v334.8c0,9.3-7.6,17.3-16.9,17.9L261.2,566.6z"/>
	<path class="st30" d="M850.4,169.1l-589.2-24.2c-6.8-0.3-12.3,4.2-12.3,10.1V461v86.5c0,5.8,5.5,10.2,12.3,9.9l589.2-33.8
		c5-0.3,9.1-4.6,9.1-9.5v-76.5v-259C859.5,173.5,855.4,169.3,850.4,169.1z"/>
	
		<linearGradient id="SVGID_25_" gradientUnits="userSpaceOnUse" x1="405.8976" y1="728.413" x2="684.355" y2="217.6727" gradientTransform="matrix(1 0 0 -1 0 802)">
		<stop  offset="0" style="stop-color:#444B8C"/>
		<stop  offset="0.9964" style="stop-color:#26264F"/>
	</linearGradient>
	<path class="st31" d="M846,495.2l-578.4,28.6c-6.1,0.3-11-3.7-11-9V160c0-5.2,4.9-9.3,11-9.1L846,172.4c4.5,0.2,8.2,4,8.2,8.5
		v305.7C854.2,491.2,850.6,495,846,495.2z"/>
	<path class="st32" d="M411.9,188.4l-132.1-3.9v-12.6l132.1,4.3V188.4z"/>
	<path class="st33" d="M474.1,186.8l-30.5-0.9v-8.6l30.5,1V186.8z"/>
	<path class="st33" d="M474.1,198.6l-30.5-0.8v-8.6l30.5,0.9V198.6z"/>
	
		<linearGradient id="SVGID_26_" gradientUnits="userSpaceOnUse" x1="554.3884" y1="681.7395" x2="604.3666" y2="377.0689" gradientTransform="matrix(1 0 0 -1 0 802)">
		<stop  offset="3.597120e-03" style="stop-color:#E38DDD"/>
		<stop  offset="1" style="stop-color:#9571F6"/>
	</linearGradient>
	<path class="st34" d="M626.2,202.8l-118.4-3.2v-8.5l118.4,3.5V202.8z"/>
	
		<linearGradient id="SVGID_27_" gradientUnits="userSpaceOnUse" x1="528.3845" y1="592.9601" x2="645.6012" y2="592.9601" gradientTransform="matrix(1 0 0 -1 0 802)">
		<stop  offset="0" style="stop-color:#FF9085"/>
		<stop  offset="1" style="stop-color:#FB6FBB"/>
	</linearGradient>
	<path class="st35" d="M645.6,214.7l-117.2-2.9v-8.4l117.2,3.1V214.7z"/>
	
		<linearGradient id="SVGID_28_" gradientUnits="userSpaceOnUse" x1="528.3845" y1="581.4196" x2="645.6012" y2="581.4196" gradientTransform="matrix(1 0 0 -1 0 802)">
		<stop  offset="0" style="stop-color:#FF9085"/>
		<stop  offset="1" style="stop-color:#FB6FBB"/>
	</linearGradient>
	<path class="st36" d="M645.6,226.1l-117.2-2.5v-8.4l117.2,2.8V226.1z"/>
	<path class="st32" d="M645.6,237.4l-117.2-2.2v-8.4l117.2,2.4V237.4z"/>
	<path class="st33" d="M474.1,210.5l-30.5-0.7v-8.6l30.5,0.8V210.5z"/>
	<path class="st33" d="M474.1,222.4l-30.5-0.7v-8.6l30.5,0.7V222.4z"/>
	<path class="st33" d="M474.1,234.2l-30.5-0.6v-8.6l30.5,0.6V234.2z"/>
	<path class="st33" d="M474.1,246.1l-30.5-0.5V237l30.5,0.5V246.1z"/>
	<path class="st32" d="M555.9,247.4l-75.1-1.2v-8.5l75.1,1.3V247.4z"/>
	<path class="st33" d="M474.1,258l-30.5-0.4V249l30.5,0.5V258z"/>
	<path class="st33" d="M474.1,269.8l-30.5-0.3v-8.6l30.5,0.4V269.8z"/>
	<path class="st33" d="M474.1,281.7l-30.5-0.2v-8.6l30.5,0.3V281.7z"/>
	
		<linearGradient id="SVGID_29_" gradientUnits="userSpaceOnUse" x1="507.7903" y1="547.304" x2="591.0779" y2="547.304" gradientTransform="matrix(1 0 0 -1 0 802)">
		<stop  offset="0" style="stop-color:#FF9085"/>
		<stop  offset="1" style="stop-color:#FB6FBB"/>
	</linearGradient>
	<path class="st37" d="M591.1,259.5l-83.3-1.1v-8.5l83.3,1.2V259.5z"/>
	<path class="st32" d="M634.3,271.4l-106-1.1v-8.4l106,1.3V271.4z"/>
	
		<linearGradient id="SVGID_30_" gradientUnits="userSpaceOnUse" x1="555.4571" y1="681.5576" x2="601.1907" y2="402.7871" gradientTransform="matrix(1 0 0 -1 0 802)">
		<stop  offset="3.597120e-03" style="stop-color:#E38DDD"/>
		<stop  offset="1" style="stop-color:#9571F6"/>
	</linearGradient>
	<path class="st38" d="M634.3,282.8l-106-0.8v-8.4l106,1V282.8z"/>
	<path class="st33" d="M474.1,293.6l-30.5-0.1v-8.6l30.5,0.2V293.6z"/>
	<path class="st33" d="M474.1,305.4l-30.5,0v-8.6l30.5,0.1V305.4z"/>
	<path class="st33" d="M474.1,317.3l-30.5,0v-8.6l30.5,0V317.3z"/>
	<path class="st33" d="M474.1,329.2l-30.5,0.1v-8.6l30.5-0.1V329.2z"/>
	<path class="st33" d="M474.1,341l-30.5,0.2v-8.6l30.5-0.2V341z"/>
	<path class="st33" d="M474.1,352.9l-30.5,0.3v-8.6l30.5-0.2V352.9z"/>
	<path class="st33" d="M474.1,364.8l-30.5,0.4v-8.6l30.5-0.3V364.8z"/>
	<path class="st33" d="M474.1,376.6l-30.5,0.5v-8.6l30.5-0.4V376.6z"/>
	<path class="st33" d="M474.1,388.5l-30.5,0.6v-8.6l30.5-0.5V388.5z"/>
	<path class="st33" d="M474.1,400.4l-30.5,0.7v-8.6l30.5-0.6V400.4z"/>
	<path class="st33" d="M474.1,412.2l-30.5,0.8v-8.6l30.5-0.7V412.2z"/>
	<path class="st33" d="M474.1,424.1l-30.5,0.8v-8.6l30.5-0.8V424.1z"/>
	<path class="st33" d="M474.1,436l-30.5,0.9v-8.6l30.5-0.9V436z"/>
	<path class="st33" d="M474.1,447.8l-30.5,1v-8.6l30.5-1V447.8z"/>
	<path class="st33" d="M474.1,459.7l-30.5,1.1v-8.6l30.5-1V459.7z"/>
	<path class="st33" d="M474.1,471.6l-30.5,1.2v-8.6l30.5-1.1V471.6z"/>
	<path class="st33" d="M474.1,483.4l-30.5,1.3v-8.6l30.5-1.2V483.4z"/>
	<path class="st33" d="M474.1,495.3l-30.5,1.4v-8.6l30.5-1.3V495.3z"/>
	
		<linearGradient id="SVGID_31_" gradientUnits="userSpaceOnUse" x1="480.5568" y1="618.051" x2="563.788" y2="618.051" gradientTransform="matrix(1 0 0 -1 0 802)">
		<stop  offset="0" style="stop-color:#FF9085"/>
		<stop  offset="1" style="stop-color:#FB6FBB"/>
	</linearGradient>
	<path class="st39" d="M563.8,189.5l-83.2-2.5v-8.5l83.2,2.7V189.5z"/>
	<path class="st32" d="M626.2,431.3l-118.4,3.6v-8.5l118.4-3.4V431.3z"/>
	
		<linearGradient id="SVGID_32_" gradientUnits="userSpaceOnUse" x1="528.3845" y1="362.0294" x2="645.6012" y2="362.0294" gradientTransform="matrix(1 0 0 -1 0 802)">
		<stop  offset="0" style="stop-color:#FF9085"/>
		<stop  offset="1" style="stop-color:#FB6FBB"/>
	</linearGradient>
	<path class="st40" d="M645.6,442.1L528.4,446v-8.4l117.2-3.7V442.1z"/>
	
		<linearGradient id="SVGID_33_" gradientUnits="userSpaceOnUse" x1="528.3845" y1="350.4889" x2="645.6012" y2="350.4889" gradientTransform="matrix(1 0 0 -1 0 802)">
		<stop  offset="0" style="stop-color:#FF9085"/>
		<stop  offset="1" style="stop-color:#FB6FBB"/>
	</linearGradient>
	<path class="st41" d="M645.6,453.5l-117.2,4.2v-8.4l117.2-4V453.5z"/>
	
		<linearGradient id="SVGID_34_" gradientUnits="userSpaceOnUse" x1="581.9218" y1="340.9295" x2="696.1053" y2="340.9295" gradientTransform="matrix(1 0 0 -1 0 802)">
		<stop  offset="0" style="stop-color:#FF9085"/>
		<stop  offset="1" style="stop-color:#FB6FBB"/>
	</linearGradient>
	<path class="st42" d="M696.1,462.9l-114.2,4.5V459l114.2-4.2V462.9z"/>
	
		<linearGradient id="SVGID_35_" gradientUnits="userSpaceOnUse" x1="590.9954" y1="622.2363" x2="626.7181" y2="404.4885" gradientTransform="matrix(1 0 0 -1 0 802)">
		<stop  offset="3.597120e-03" style="stop-color:#E38DDD"/>
		<stop  offset="1" style="stop-color:#9571F6"/>
	</linearGradient>
	<path class="st43" d="M696.1,474.1l-114.2,4.8v-8.3l114.2-4.6V474.1z"/>
	<path class="st32" d="M696.1,485.3l-114.2,5.1v-8.3l114.2-4.9V485.3z"/>
	
		<linearGradient id="SVGID_36_" gradientUnits="userSpaceOnUse" x1="480.5568" y1="383.41" x2="563.788" y2="383.41" gradientTransform="matrix(1 0 0 -1 0 802)">
		<stop  offset="0" style="stop-color:#FF9085"/>
		<stop  offset="1" style="stop-color:#FB6FBB"/>
	</linearGradient>
	<path class="st44" d="M563.8,421.6l-83.2,2.3v-8.5l83.2-2.1V421.6z"/>
	
		<linearGradient id="SVGID_37_" gradientUnits="userSpaceOnUse" x1="507.7903" y1="500.6826" x2="626.181" y2="500.6826" gradientTransform="matrix(1 0 0 -1 0 802)">
		<stop  offset="0" style="stop-color:#FF9085"/>
		<stop  offset="1" style="stop-color:#FB6FBB"/>
	</linearGradient>
	<path class="st45" d="M626.2,305.6l-118.4-0.2V297l118.4,0.4V305.6z"/>
	<path class="st32" d="M645.6,317l-117.2,0.2v-8.4l117.2,0.1V317z"/>
	
		<linearGradient id="SVGID_38_" gradientUnits="userSpaceOnUse" x1="528.3845" y1="477.4327" x2="645.6012" y2="477.4327" gradientTransform="matrix(1 0 0 -1 0 802)">
		<stop  offset="0" style="stop-color:#FF9085"/>
		<stop  offset="1" style="stop-color:#FB6FBB"/>
	</linearGradient>
	<path class="st46" d="M645.6,328.4l-117.2,0.5v-8.4l117.2-0.3V328.4z"/>
	
		<linearGradient id="SVGID_39_" gradientUnits="userSpaceOnUse" x1="528.3845" y1="465.8923" x2="645.6012" y2="465.8923" gradientTransform="matrix(1 0 0 -1 0 802)">
		<stop  offset="0" style="stop-color:#FF9085"/>
		<stop  offset="1" style="stop-color:#FB6FBB"/>
	</linearGradient>
	<path class="st47" d="M645.6,339.8l-117.2,0.9v-8.4l117.2-0.6V339.8z"/>
	
		<linearGradient id="SVGID_40_" gradientUnits="userSpaceOnUse" x1="480.7635" y1="453.7452" x2="555.881" y2="453.7452" gradientTransform="matrix(1 0 0 -1 0 802)">
		<stop  offset="0" style="stop-color:#FF9085"/>
		<stop  offset="1" style="stop-color:#FB6FBB"/>
	</linearGradient>
	<path class="st48" d="M555.9,352.1l-75.1,0.8v-8.5l75.1-0.6V352.1z"/>
	<path class="st32" d="M591.1,363.2l-83.3,1.1v-8.5l83.3-0.9V363.2z"/>
	
		<linearGradient id="SVGID_41_" gradientUnits="userSpaceOnUse" x1="543.3148" y1="663.1055" x2="584.8318" y2="410.0499" gradientTransform="matrix(1 0 0 -1 0 802)">
		<stop  offset="3.597120e-03" style="stop-color:#E38DDD"/>
		<stop  offset="1" style="stop-color:#9571F6"/>
	</linearGradient>
	<path class="st49" d="M634.3,374.1l-106,1.7v-8.4l106-1.5V374.1z"/>
	
		<linearGradient id="SVGID_42_" gradientUnits="userSpaceOnUse" x1="528.3845" y1="419.6371" x2="634.3416" y2="419.6371" gradientTransform="matrix(1 0 0 -1 0 802)">
		<stop  offset="0" style="stop-color:#FF9085"/>
		<stop  offset="1" style="stop-color:#FB6FBB"/>
	</linearGradient>
	<path class="st50" d="M634.3,385.5l-106,2V379l106-1.8V385.5z"/>
	
		<linearGradient id="SVGID_43_" gradientUnits="userSpaceOnUse" x1="553.1482" y1="408.5808" x2="657.8281" y2="408.5808" gradientTransform="matrix(1 0 0 -1 0 802)">
		<stop  offset="0" style="stop-color:#FF9085"/>
		<stop  offset="1" style="stop-color:#FB6FBB"/>
	</linearGradient>
	<path class="st51" d="M657.8,396.4l-104.7,2.3v-8.4l104.7-2.1V396.4z"/>
	
		<linearGradient id="SVGID_44_" gradientUnits="userSpaceOnUse" x1="553.1482" y1="397.0948" x2="657.8281" y2="397.0948" gradientTransform="matrix(1 0 0 -1 0 802)">
		<stop  offset="0" style="stop-color:#FF9085"/>
		<stop  offset="1" style="stop-color:#FB6FBB"/>
	</linearGradient>
	<path class="st52" d="M657.8,407.7l-104.7,2.6v-8.4l104.7-2.4V407.7z"/>
	
		<linearGradient id="SVGID_45_" gradientUnits="userSpaceOnUse" x1="495.6638" y1="674.0005" x2="541.6696" y2="393.5659" gradientTransform="matrix(1 0 0 -1 0 802)">
		<stop  offset="3.597120e-03" style="stop-color:#E38DDD"/>
		<stop  offset="1" style="stop-color:#9571F6"/>
	</linearGradient>
	<path class="st53" d="M563.8,293.9l-83.2-0.4v-8.5l83.2,0.5V293.9z"/>
	<path class="st29" d="M411.9,207.5l-75.6-1.9v-12.4l75.6,2.1V207.5z"/>
	<path class="st32" d="M316.7,205.1l14.2,0.4V193l-14.2-0.4V205.1z"/>
	<path class="st32" d="M411.9,225l-75.6-1.6V211l75.6,1.8V225z"/>
	<path class="st32" d="M316.7,223.1l14.2,0.3v-12.4l-14.2-0.3V223.1z"/>
	<path class="st32" d="M411.9,242.6l-75.6-1.2v-12.4l75.6,1.5V242.6z"/>
	<path class="st32" d="M316.7,241l14.2,0.2v-12.4l-14.2-0.3V241z"/>
	<path class="st29" d="M411.9,367.1l-132.1,1.8v-12.6l132.1-1.4V367.1z"/>
	<path class="st32" d="M411.9,386.2l-75.6,1.4v-12.4l75.6-1.1V386.2z"/>
	<path class="st32" d="M316.7,387.9l14.2-0.3v-12.4l-14.2,0.2V387.9z"/>
	<path class="st32" d="M411.9,403.8l-75.6,1.7V393l75.6-1.5V403.8z"/>
	<path class="st32" d="M316.7,405.9l14.2-0.3v-12.4l-14.2,0.3V405.9z"/>
	<path class="st32" d="M411.9,421.3l-75.6,2v-12.4l75.6-1.8V421.3z"/>
	<path class="st32" d="M316.7,423.8l14.2-0.4V411l-14.2,0.3V423.8z"/>
	<path class="st29" d="M411.9,260.3l-132.1-1.6V246l132.1,2V260.3z"/>
	<path class="st32" d="M411.9,279.3l-75.6-0.6v-12.4l75.6,0.8V279.3z"/>
	<path class="st32" d="M316.7,278.6l14.2,0.1v-12.4l-14.2-0.1V278.6z"/>
	<path class="st32" d="M411.9,296.9l-75.6-0.3v-12.4l75.6,0.5V296.9z"/>
	<path class="st32" d="M316.7,296.5l14.2,0.1v-12.4l-14.2-0.1V296.5z"/>
	<path class="st32" d="M411.9,332.2l-75.6,0.4v-12.4l75.6-0.2V332.2z"/>
	<path class="st32" d="M316.7,332.7l14.2-0.1v-12.4l-14.2,0V332.7z"/>
	<path class="st32" d="M411.9,349.7l-75.6,0.7V338l75.6-0.5V349.7z"/>
	<path class="st32" d="M316.7,350.6l14.2-0.1v-12.4l-14.2,0.1V350.6z"/>
	<path class="st32" d="M411.9,314.4l-75.6,0.1v-12.4l75.6,0.2V314.4z"/>
	<path class="st32" d="M316.7,314.5l14.2,0V302l-14.2,0V314.5z"/>
	<path class="st29" d="M411.9,438.9l-132.1,4.1v-12.6l132.1-3.7V438.9z"/>
	<path class="st32" d="M411.9,457.9l-75.6,2.7v-12.4l75.6-2.4V457.9z"/>
	<path class="st32" d="M316.7,461.3l14.2-0.5v-12.4l-14.2,0.5V461.3z"/>
	<path class="st32" d="M411.9,475.5l-75.6,3V466l75.6-2.8V475.5z"/>
	<path class="st32" d="M316.7,479.2l14.2-0.6v-12.4l-14.2,0.5V479.2z"/>
	<path class="st32" d="M411.9,493l-75.6,3.3v-12.4l75.6-3.1V493z"/>
	<path class="st32" d="M316.7,497.2l14.2-0.6v-12.4l-14.2,0.6V497.2z"/>
	<path class="st32" d="M427.9,492.4l-2.9,0.1V176.6l2.9,0.1V492.4z"/>
	<path class="st32" d="M788.9,507.1c-128.3,2.7-157.1,21-193.5-0.9c-50.1-30.2-27.3-83.8-76.1-111.9
		c-61.3-35.4-132.1,29.4-164.1-2.2c-31.9-31.4,28.4-105.5-6.5-188c-14-33.1-37.8-54.6-54.3-66.9l-33.2-1.4
		c-12.7-0.6-23.2,7.9-23.2,18.8v393.7c0,10.9,10.4,19.2,23.2,18.4l589.2-35.1c9.4-0.6,16.9-8.6,16.9-17.9v-6
		C849.7,507,822.3,506.4,788.9,507.1z"/>
	<path class="st29" d="M840.5,499l-286.5,64.7c-7.1,1.6-12.9-2.9-12.9-10.1V131.8c0-7.2,5.8-12,12.9-10.8l286.5,48.6
		c3.9,0.7,7,5.4,7,10.7v307.7C847.4,493.2,844.3,498.1,840.5,499z"/>
	
		<linearGradient id="SVGID_46_" gradientUnits="userSpaceOnUse" x1="588.7241" y1="640.789" x2="852.9547" y2="156.1256" gradientTransform="matrix(1 0 0 -1 0 802)">
		<stop  offset="0" style="stop-color:#FFC444"/>
		<stop  offset="0.9964" style="stop-color:#F36F56"/>
	</linearGradient>
	<path class="st54" d="M847,499l-286.6,64.7c-7.1,1.6-12.9-2.9-12.9-10.1V131.8c0-7.2,5.8-12,12.9-10.8L847,169.5
		c3.9,0.7,7,5.4,7,10.7v307.7C854,493.2,850.9,498.1,847,499z"/>
	<g class="st55">
		
			<linearGradient id="SVGID_47_" gradientUnits="userSpaceOnUse" x1="547.5419" y1="459.6351" x2="853.9657" y2="459.6351" gradientTransform="matrix(1 0 0 -1 0 802)">
			<stop  offset="0" style="stop-color:#FFC444"/>
			<stop  offset="0.9964" style="stop-color:#F36F56"/>
		</linearGradient>
		<path class="st56" d="M810.2,441.7c-35.5-40-11.1-104.9-43.5-121.7c-27-14-55.8,24.7-81.5,11.4c-33.4-17.3-2.4-91.9-35.3-149.4
			c-11.7-20.5-34.6-44.1-83.9-60.2l-5.6-1c-7.1-1.2-12.9,3.6-12.9,10.8v421.8c0,7.2,5.8,11.7,12.9,10.1L847,499
			c3.9-0.9,7-5.8,7-11.1v-21.3C836.4,462.2,821.3,454.2,810.2,441.7z"/>
	</g>
	<path class="st57" d="M840.6,191.4l-270.1-38.4c-2.4-0.3-4.4,2.8-4.4,7.1v86.4c0,4.2,2,7.8,4.4,7.9l270.1,13.8
		c1.4,0.1,2.5-2.5,2.5-5.6v-65C843.2,194.3,842,191.6,840.6,191.4z"/>
	<path class="st57" d="M570.5,254.3l96.6,4.9c-0.7-25-3.1-52.7-17.2-77.2c-3.7-6.4-8.5-13.2-14.9-19.9l-64.5-9.2
		c-2.4-0.3-4.4,2.8-4.4,7.1v86.4C566.1,250.7,568.1,254.2,570.5,254.3z"/>
	
		<linearGradient id="SVGID_48_" gradientUnits="userSpaceOnUse" x1="609.9585" y1="494.1598" x2="672.1448" y2="336.9877" gradientTransform="matrix(1 0 0 -1 0 802)">
		<stop  offset="0" style="stop-color:#FF9085"/>
		<stop  offset="1" style="stop-color:#FB6FBB"/>
	</linearGradient>
	<path class="st58" d="M655,350.6l-82.4,3.2c-3.5,0.1-6.4-2.7-6.4-6.3v-64.6c0-3.6,2.9-6.5,6.4-6.4L655,279c3,0.1,5.5,2.9,5.5,6.2
		v59.1C660.5,347.7,658,350.5,655,350.6z"/>
	<path class="st29" d="M655,431l-82.4,9.7c-3.5,0.4-6.4-2.2-6.4-5.8v-64.6c0-3.6,2.9-6.7,6.4-6.9l82.4-3.9c3-0.1,5.5,2.4,5.5,5.8
		v59.1C660.5,427.7,658,430.6,655,431z"/>
	<path class="st29" d="M655,511.4l-82.4,16.1c-3.5,0.7-6.4-1.7-6.4-5.3v-64.6c0-3.6,2.9-7,6.4-7.4l82.4-10.4c3-0.4,5.5,2,5.5,5.3
		v59.1C660.5,507.6,658,510.8,655,511.4z"/>
	
		<linearGradient id="SVGID_49_" gradientUnits="userSpaceOnUse" x1="776.9381" y1="460.5983" x2="636.3286" y2="240.5413" gradientTransform="matrix(1 0 0 -1 0 802)">
		<stop  offset="0" style="stop-color:#AA80F9"/>
		<stop  offset="0.9964" style="stop-color:#6165D7"/>
	</linearGradient>
	<path class="st59" d="M842.8,474.7l-177.2,34.6v-230l177.2,5.5V474.7z"/>
	
		<linearGradient id="SVGID_50_" gradientUnits="userSpaceOnUse" x1="769.4731" y1="351.3547" x2="695.924" y2="236.2444" gradientTransform="matrix(1 0 0 -1 0 802)">
		<stop  offset="0" style="stop-color:#444B8C"/>
		<stop  offset="0.9964" style="stop-color:#26264F"/>
	</linearGradient>
	<path class="st60" d="M842.8,474.7l-177.2,34.6v-34.9l177.2-28.6V474.7z"/>
	
		<linearGradient id="SVGID_51_" gradientUnits="userSpaceOnUse" x1="778.4378" y1="460.0734" x2="688.1447" y2="286.2898" gradientTransform="matrix(1 0 0 -1 0 802)">
		<stop  offset="0" style="stop-color:#444B8C"/>
		<stop  offset="0.9964" style="stop-color:#26264F"/>
	</linearGradient>
	<path class="st61" d="M779.2,371.8c0,19.2-7.3,35.5-16.5,36.5c-9.4,1-17.1-14.3-17.1-34.2c0-19.9,7.7-36.2,17.1-36.5
		C771.9,337.3,779.2,352.6,779.2,371.8z"/>
	<path class="st57" d="M756,393.9v-41.2l19.3,19.3L756,393.9z"/>
	<path class="st57" d="M839.7,463.7L670,494.6V489l169.7-29.9V463.7z"/>
	
		<linearGradient id="SVGID_52_" gradientUnits="userSpaceOnUse" x1="695.2204" y1="391.8585" x2="692.9572" y2="169.6801" gradientTransform="matrix(1 0 0 -1 0 802)">
		<stop  offset="0" style="stop-color:#AA80F9"/>
		<stop  offset="0.9964" style="stop-color:#6165D7"/>
	</linearGradient>
	<path class="st62" d="M718.8,485.7l-48.8,8.9V489l48.8-8.6V485.7z"/>
	<path class="st29" d="M720.3,482.8c0,4.4-1.8,8.3-4,8.7c-2.2,0.4-4-2.8-4-7.3c0-4.4,1.8-8.4,4-8.7
		C718.5,475.1,720.3,478.4,720.3,482.8z"/>
	
		<linearGradient id="SVGID_53_" gradientUnits="userSpaceOnUse" x1="750.0734" y1="418.5546" x2="644.2855" y2="252.9965" gradientTransform="matrix(1 0 0 -1 0 802)">
		<stop  offset="0" style="stop-color:#AA80F9"/>
		<stop  offset="0.9964" style="stop-color:#6165D7"/>
	</linearGradient>
	<path class="st63" d="M810.2,441.7c-35.5-40-11.1-104.9-43.5-121.7c-27-14-55.8,24.7-81.5,11.4c-15.2-7.8-17-27.5-17.7-52.1l-2-0.1
		v230l177.2-34.7v-11.5C830,458.5,818.9,451.5,810.2,441.7z"/>
	<path class="st64" d="M349.1,674.7c-0.3,0-0.6-0.3-0.6-0.6V434.5c0-0.3,0.3-0.6,0.6-0.6c0.3,0,0.6,0.3,0.6,0.6v239.5
		C349.7,674.4,349.4,674.7,349.1,674.7z"/>
	<path class="st64" d="M284.6,659.6c-0.3,0-0.6-0.3-0.6-0.6V428.5c0-0.3,0.3-0.6,0.6-0.6c0.3,0,0.6,0.3,0.6,0.6V659
		C285.2,659.3,284.9,659.6,284.6,659.6z"/>
	<path class="st64" d="M135.3,670.4c-0.1,0-0.1,0-0.2,0c-0.3-0.1-0.5-0.5-0.4-0.8L221,431.8c0.1-0.3,0.5-0.5,0.8-0.4
		c0.3,0.1,0.5,0.5,0.4,0.8L135.9,670C135.8,670.2,135.6,670.4,135.3,670.4z"/>
	<path class="st64" d="M199,689c-0.1,0-0.1,0-0.2,0c-0.3-0.1-0.5-0.4-0.4-0.8l77.4-250.6c0.1-0.3,0.4-0.5,0.8-0.4
		c0.3,0.1,0.5,0.4,0.4,0.8l-77.4,250.6C199.5,688.8,199.3,689,199,689z"/>
	<path class="st64" d="M285.3,428.2L350,433v1.5l-74,3.3l-55.3-6.8v-1.5L285.3,428.2z"/>
	<path class="st65" d="M285.3,426.8L350,433l-74,3.3l-55.3-6.8L285.3,426.8z"/>
	<path class="st64" d="M215.8,634.7c-0.1,0-0.1,0-0.2,0L154,618.5c-0.3-0.1-0.5-0.4-0.4-0.7c0.1-0.3,0.4-0.5,0.7-0.4l61.6,16.2
		c0.3,0.1,0.5,0.4,0.4,0.7C216.3,634.6,216.1,634.7,215.8,634.7z"/>
	<path class="st64" d="M233.3,578c0,0-0.1,0-0.1,0l-60.5-10.7c-0.3-0.1-0.6-0.4-0.5-0.7c0.1-0.3,0.4-0.6,0.7-0.5l60.5,10.7
		c0.3,0.1,0.6,0.4,0.5,0.7C233.8,577.8,233.5,578,233.3,578z"/>
	<path class="st64" d="M251.4,519.4C251.4,519.4,251.4,519.4,251.4,519.4l-58.6-7.6c-0.3,0-0.6-0.3-0.5-0.7c0-0.3,0.4-0.6,0.7-0.5
		l58.6,7.5c0.3,0,0.6,0.3,0.5,0.7C252,519.2,251.7,519.4,251.4,519.4z"/>
	<path class="st64" d="M263,478.8C263,478.8,263,478.8,263,478.8l-55.1-8.6c-0.3-0.1-0.6-0.4-0.5-0.7c0.1-0.3,0.4-0.6,0.7-0.5
		l55,8.6c0.3,0.1,0.6,0.4,0.5,0.7C263.6,478.6,263.3,478.8,263,478.8z"/>
	
		<linearGradient id="SVGID_54_" gradientUnits="userSpaceOnUse" x1="287.1194" y1="529.3826" x2="431.02" y2="529.3826" gradientTransform="matrix(1 0 0 -1 0 802)">
		<stop  offset="0" style="stop-color:#FFC444"/>
		<stop  offset="0.9964" style="stop-color:#F36F56"/>
	</linearGradient>
	<path class="st66" d="M426,317.8l-138.2-0.6c-0.7,0-1-1-0.5-1.5l14-13.9v-61.7c0-2.5,1.8-4.6,4.1-4.8l120.6-7.9
		c2.7-0.2,5,1.9,5,4.7v80.7C431,315.6,428.8,317.8,426,317.8z"/>
	<path class="st1" d="M336.7,247.7l-25.2,1.3v-3.3l25.2-1.4V247.7z"/>
	<path class="st1" d="M336.7,254.4l-25.2,1.2v-3.3l25.2-1.3V254.4z"/>
	<path class="st1" d="M336.7,265l-25.2,1v-3.3l25.2-1.1V265z"/>
	<path class="st1" d="M336.7,271.7l-25.2,0.8v-3.3l25.2-0.9V271.7z"/>
	<path class="st1" d="M418.8,298.7l-107.3,1.1v-3.3l107.3-1.4V298.7z"/>
	<path class="st1" d="M418.8,305.9l-107.3,0.5v-3.3l107.3-0.8V305.9z"/>
	<path class="st1" d="M336.7,282.3l-25.2,0.6v-3.3l25.2-0.7V282.3z"/>
	<path class="st1" d="M336.7,289l-25.2,0.5v-3.3l25.2-0.6V289z"/>
	<path class="st1" d="M418.8,287.8l-72.2,1.4v-45.4l0.7,0v44.7l71.6-1.4V287.8z"/>
	<path class="st1" d="M355.9,276.2l-0.5-0.5l14.3-15.9l14.4,4.6l14.5-13.5l14.9,7.1l-0.3,0.7l-14.5-6.9l-14.4,13.4l-14.3-4.6
		L355.9,276.2z"/>
	
		<linearGradient id="SVGID_55_" gradientUnits="userSpaceOnUse" x1="368.0256" y1="564.3303" x2="333.9275" y2="458.2342" gradientTransform="matrix(1 0 0 -1 0 802)">
		<stop  offset="0" style="stop-color:#FF9085"/>
		<stop  offset="1" style="stop-color:#FB6FBB"/>
	</linearGradient>
	<path class="st67" d="M358,275.9c0,1.4-1,2.5-2.3,2.5c-1.3,0-2.3-1-2.3-2.4c0-1.3,1-2.5,2.3-2.5C357,273.5,358,274.6,358,275.9z"/>
	
		<linearGradient id="SVGID_56_" gradientUnits="userSpaceOnUse" x1="376.4642" y1="562.2918" x2="341.8025" y2="454.4688" gradientTransform="matrix(1 0 0 -1 0 802)">
		<stop  offset="0" style="stop-color:#FF9085"/>
		<stop  offset="1" style="stop-color:#FB6FBB"/>
	</linearGradient>
	<path class="st68" d="M372.2,260.2c0,1.4-1.1,2.5-2.4,2.6c-1.3,0.1-2.3-1-2.3-2.4c0-1.4,1-2.5,2.3-2.6
		C371.1,257.8,372.2,258.8,372.2,260.2z"/>
	
		<linearGradient id="SVGID_57_" gradientUnits="userSpaceOnUse" x1="390.9885" y1="558.2499" x2="355.9418" y2="449.1826" gradientTransform="matrix(1 0 0 -1 0 802)">
		<stop  offset="0" style="stop-color:#FF9085"/>
		<stop  offset="1" style="stop-color:#FB6FBB"/>
	</linearGradient>
	<path class="st69" d="M386.6,264.8c0,1.4-1.1,2.5-2.4,2.6c-1.3,0-2.4-1-2.4-2.4c0-1.4,1.1-2.5,2.4-2.6
		C385.5,262.4,386.6,263.4,386.6,264.8z"/>
	
		<linearGradient id="SVGID_58_" gradientUnits="userSpaceOnUse" x1="400.3285" y1="555.7767" x2="364.7089" y2="444.9749" gradientTransform="matrix(1 0 0 -1 0 802)">
		<stop  offset="0" style="stop-color:#FF9085"/>
		<stop  offset="1" style="stop-color:#FB6FBB"/>
	</linearGradient>
	<path class="st70" d="M401.1,251.4c0,1.4-1.1,2.6-2.5,2.6c-1.4,0.1-2.5-1-2.5-2.4c0-1.4,1.1-2.6,2.5-2.6
		C400,248.9,401.1,250,401.1,251.4z"/>
	
		<linearGradient id="SVGID_59_" gradientUnits="userSpaceOnUse" x1="415.8627" y1="551.4498" x2="379.8581" y2="439.4356" gradientTransform="matrix(1 0 0 -1 0 802)">
		<stop  offset="0" style="stop-color:#FF9085"/>
		<stop  offset="1" style="stop-color:#FB6FBB"/>
	</linearGradient>
	<path class="st71" d="M415.8,258.4c0,1.4-1.1,2.6-2.5,2.7c-1.4,0.1-2.5-1-2.5-2.5c0-1.4,1.1-2.6,2.5-2.7
		C414.7,255.8,415.8,256.9,415.8,258.4z"/>
	
		<linearGradient id="SVGID_60_" gradientUnits="userSpaceOnUse" x1="345.8406" y1="510.074" x2="329.8105" y2="489.9034" gradientTransform="matrix(1 0 0 -1 0 802)">
		<stop  offset="0" style="stop-color:#FFC444"/>
		<stop  offset="0.9964" style="stop-color:#F36F56"/>
	</linearGradient>
	<path class="st72" d="M333.8,302.5l3.1-3.3c0.6-0.7,1.4-1.6,2.7-2.3c2.5-1.5,5.8-2.2,6.3-1.4c0.6,1-2.6,3.9-3.7,4.8
		c-1.5,1.1-3,2.2-4.5,3.3L333.8,302.5z"/>
	
		<linearGradient id="SVGID_61_" gradientUnits="userSpaceOnUse" x1="275.5955" y1="478.6122" x2="264.6833" y2="522.2769" gradientTransform="matrix(1 0 0 -1 0 802)">
		<stop  offset="0" style="stop-color:#FFC444"/>
		<stop  offset="0.9964" style="stop-color:#F36F56"/>
	</linearGradient>
	<path class="st73" d="M268.6,279.9c-0.8,0.3-13.5,5.3-16.1,18.5c-0.2,1.1-2.2,12.4,5.4,20.4c8.6,9,25.2,8.8,31.8,1.3
		c1.5-1.8,2.3-3.7,2.8-5.3l-1.7-4.6c-2.1-2.6-5-3.2-6.5-3.5c-3.8-0.9-6.7,0.8-8.8-1.1c-1.2-1-1.4-2.5-1.7-3.8
		c-0.7-4.4,1.8-7.2,2-9.9c0.1-2,0.9-6.5-1.8-9.4C272.3,280.6,270,280.1,268.6,279.9z"/>
	
		<linearGradient id="SVGID_62_" gradientUnits="userSpaceOnUse" x1="265.1675" y1="377.463" x2="259.4016" y2="373.6268" gradientTransform="matrix(1 0 0 -1 0 802)">
		<stop  offset="0" style="stop-color:#444B8C"/>
		<stop  offset="0.9964" style="stop-color:#26264F"/>
	</linearGradient>
	<path class="st74" d="M263.7,426.9c-0.2-0.8-2.8-1.5-4.1-0.5c-0.6,0.5-1.1,1.6-0.7,2.1c0.1,0.2-0.4,0.5,0.1,0.5
		C260.8,429.1,263.9,427.7,263.7,426.9z"/>
	
		<linearGradient id="SVGID_63_" gradientUnits="userSpaceOnUse" x1="259.5928" y1="373.59" x2="260.8512" y2="382.5226" gradientTransform="matrix(1 0 0 -1 0 802)">
		<stop  offset="0" style="stop-color:#FFC444"/>
		<stop  offset="0.9964" style="stop-color:#F36F56"/>
	</linearGradient>
	<path class="st75" d="M261,427.2l-2.7-0.4c1.2-1.5,1-6.3,1-6.3l2.9,0.6c0,0-0.3,1.3-0.9,3.3C261.1,425.1,261,426.1,261,427.2z"/>
	
		<linearGradient id="SVGID_64_" gradientUnits="userSpaceOnUse" x1="264.7375" y1="378.1119" x2="258.9621" y2="374.2757" gradientTransform="matrix(1 0 0 -1 0 802)">
		<stop  offset="0" style="stop-color:#444B8C"/>
		<stop  offset="0.9964" style="stop-color:#26264F"/>
	</linearGradient>
	<path class="st76" d="M261.2,426.8c0,0-3.2-0.7-3.6-0.1c-0.3,0.6-0.6,2.4,1.4,2.3C261.1,429,261.4,427.4,261.2,426.8z"/>
	
		<linearGradient id="SVGID_65_" gradientUnits="userSpaceOnUse" x1="301.8199" y1="374.5997" x2="296.6456" y2="369.9934" gradientTransform="matrix(1 0 0 -1 0 802)">
		<stop  offset="0" style="stop-color:#444B8C"/>
		<stop  offset="0.9964" style="stop-color:#26264F"/>
	</linearGradient>
	<path class="st77" d="M300.7,429.9c-0.3-0.8-3-1.1-4.1,0.1c-0.6,0.6-0.8,1.8-0.4,2.2c0.2,0.2-0.3,0.6,0.2,0.5
		C298.1,432.5,301,430.7,300.7,429.9z"/>
	
		<linearGradient id="SVGID_66_" gradientUnits="userSpaceOnUse" x1="296.834" y1="369.9834" x2="296.834" y2="379.0052" gradientTransform="matrix(1 0 0 -1 0 802)">
		<stop  offset="0" style="stop-color:#FFC444"/>
		<stop  offset="0.9964" style="stop-color:#F36F56"/>
	</linearGradient>
	<path class="st78" d="M298,430.6h-2.7c1-1.7,0.1-6.4,0.1-6.4l2.9,0.2c0,0-0.1,1.3-0.4,3.3C297.8,428.5,297.9,429.5,298,430.6z"/>
	
		<linearGradient id="SVGID_67_" gradientUnits="userSpaceOnUse" x1="319.0898" y1="417.699" x2="251.6446" y2="434.3424" gradientTransform="matrix(1 0 0 -1 0 802)">
		<stop  offset="0" style="stop-color:#FF9085"/>
		<stop  offset="1" style="stop-color:#FB6FBB"/>
	</linearGradient>
	<path class="st79" d="M305.1,327.6c1.3,4.2,3.1,10.9,4.2,19.3c3.3,24.1-3.7,24.8-2.4,51.5c0.4,8.5-7.4,28.1-8.1,28.6
		c-0.3,0-0.7,0.1-1.1,0c-0.7,0-1.6-0.1-2.8-0.5c-1.2-0.2-5.7-12.3-4.6-19.4c0.7-5.1,0.5-10.5,0.1-21.4c-0.1-1.8-4.6-34.3-4.6-34.3
		c-1.4,12-2.9,22.3-4.3,30.2c-4.4,25.5-18.7,40.9-19.4,41.2c-0.2,0.1-1.5,0.5-2.6-0.2c-0.5-0.3-0.7-0.7-0.7-0.7
		c-0.4-0.3,0.1-25.5,4.5-44.4c6.3-27.5,3.6-33.9,5.6-46.2C270.7,320.7,305.1,327.6,305.1,327.6z"/>
	
		<linearGradient id="SVGID_68_" gradientUnits="userSpaceOnUse" x1="251.6729" y1="471.3087" x2="324.161" y2="521.7216" gradientTransform="matrix(1 0 0 -1 0 802)">
		<stop  offset="0" style="stop-color:#FFC444"/>
		<stop  offset="0.9964" style="stop-color:#F36F56"/>
	</linearGradient>
	<path class="st80" d="M279.5,277.8c4.2-0.1,13.9-1.6,19.2,3.2c0.1,0.1-1,0.7-0.5,1.3c0.5,0.6,2.2,2.6,3.8,5.4
		c1.1,2,2.1,4.3,3.2,7.8c1.8,6.1,2.3,11.4,2.5,13.6c1,12.8,0,18.7-0.9,22.7c-3.8,2-13.6,5.4-25.3,3.7c-5.3-0.8-9.6-2.6-12.6-4.1
		c3-9.2,0.7-14.1-0.5-18.6c-1.6-6.4-1.6-6-2.9-11.1c-2.2-8.4-2.5-17.1-1-18.9C268.5,278.1,275.8,277.9,279.5,277.8z"/>
	
		<linearGradient id="SVGID_69_" gradientUnits="userSpaceOnUse" x1="301.3018" y1="375.1866" x2="296.1275" y2="370.5804" gradientTransform="matrix(1 0 0 -1 0 802)">
		<stop  offset="0" style="stop-color:#444B8C"/>
		<stop  offset="0.9964" style="stop-color:#26264F"/>
	</linearGradient>
	<path class="st81" d="M298.2,430.2c0,0-3.3-0.3-3.6,0.4c-0.3,0.7-0.3,2.4,1.7,2.1C298.4,432.4,298.5,430.8,298.2,430.2z"/>
	
		<linearGradient id="SVGID_70_" gradientUnits="userSpaceOnUse" x1="283.328" y1="521.9004" x2="294.0993" y2="542.9341" gradientTransform="matrix(1 0 0 -1 0 802)">
		<stop  offset="0" style="stop-color:#FFC444"/>
		<stop  offset="0.9964" style="stop-color:#F36F56"/>
	</linearGradient>
	<path class="st82" d="M291.3,273c1.3-2.2,0.7-4.7,0.6-5.3c-0.5-2.3-0.8-2.6-1.2-3.1l-0.6-0.6c0,0,0,0-0.1-0.1
		c-0.4-0.3-2-0.8-2.3-0.8c-1.1-0.1-3.2,3.8-4.5,9.7c-0.1,0.2-0.2,0.4-0.3,0.6c-0.6,1.3-1.1,2.7-1.6,3.9c-7.2,0.6-8.2,1.5-8.3,1.9
		c-0.1,1,4.1,2.2,7.1,2.7c6.8,1,13.7-0.8,13.7-2.1c0-0.5-1.4-1.3-7.1-2c0.1-0.9,0.3-1.9,0.4-2.8C287.7,275,290.4,274.6,291.3,273z"
		/>
	<path class="st83" d="M292.7,262.9c-0.5,1.8-1.8,3.5-2.4,3.7c-0.1,0-0.5,0.2-0.8,0.5c-0.1,0-0.1,0.1-0.2,0.2
		c-0.7,1,0.8,2.9,0.3,3.3c-0.3,0.3-1.4-0.5-1.7-0.2c-0.2,0.3,0.6,1.2,0.4,1.5c-0.2,0.2-0.8-0.2-1.3,0.1c-0.2,0.2-0.2,0.3-0.6,0.9
		c-0.2,0.3-0.5,0.7-0.7,0.9c-0.9,0.9-2.8,0.8-3,0.3c-0.1-0.1,0-0.2,0.1-0.6c0,0,0-0.4-0.1-0.9c-0.2-0.7-1-1.4-1.7-2.3
		c-1.3-1.6-1.5-2.8-1.6-3.1c0-0.1,0-0.2,0-0.3c-0.1-1.4,0.5-3.4,1.4-4.4c1.5-1.7,3.5-0.2,5.9-1.7c2.7-1.7,2.3-5.2,3.6-5.3
		C291.6,255.4,293.6,259.5,292.7,262.9z"/>
	
		<linearGradient id="SVGID_71_" gradientUnits="userSpaceOnUse" x1="295.5491" y1="539.8385" x2="267.5078" y2="504.5561" gradientTransform="matrix(1 0 0 -1 0 802)">
		<stop  offset="0" style="stop-color:#FFC444"/>
		<stop  offset="0.9964" style="stop-color:#F36F56"/>
	</linearGradient>
	<path class="st84" d="M289.1,270c-0.3-0.7-1.2-0.4-1.4,0.4c-0.2,0.8,0.3,1.8,1.1,1.8C289.5,272.3,289.4,270.9,289.1,270z"/>
	<path class="st85" d="M270.3,325.6C270.3,325.6,270.3,325.6,270.3,325.6c-0.1,0-0.2-0.1-0.2-0.2c0.5-4.5-0.4-7.7-1.2-10.6
		c-0.2-0.7-0.4-1.4-0.6-2c-0.9-3.7-1.3-5.1-1.7-6.6c-0.3-1-0.6-2-1-3.7c0-0.1,0-0.2,0.1-0.2c0.1,0,0.2,0,0.2,0.1
		c0.4,1.7,0.7,2.7,1,3.7c0.4,1.5,0.8,2.9,1.7,6.6c0.2,0.7,0.4,1.3,0.6,2c0.8,2.9,1.8,6.2,1.2,10.7
		C270.4,325.5,270.4,325.6,270.3,325.6z"/>
	<path class="st83" d="M289.1,268.6l0.7,1.6c0,0,0.7,1.9,1.6,1.2c0.7-0.6,0.9-0.5,0.9-0.5c0,0,0,0,0,0c0,0,0-0.4,0-0.7
		c0.2,0.5,0.4,1.2,0.4,2.1c0,0.9,0,1.8-0.7,2.6c0,0-0.8,0.8-1.8,0.8c0,0-0.4,0-1.9-0.7c0,0,2.1-0.8,2.2-1.1c0.3-0.8-0.7-1.6-1.1-3.5
		C289,269.6,289,269,289.1,268.6z"/>
	
		<linearGradient id="SVGID_72_" gradientUnits="userSpaceOnUse" x1="252.4369" y1="462.7545" x2="334.0435" y2="519.5081" gradientTransform="matrix(1 0 0 -1 0 802)">
		<stop  offset="0" style="stop-color:#FFC444"/>
		<stop  offset="0.9964" style="stop-color:#F36F56"/>
	</linearGradient>
	<path class="st86" d="M335.5,300.2c1.5,1.1,2.3,2.5,2.8,3.4c-1.1,2.6-3.7,7.5-8.9,11.1c-8.6,5.9-21.2,6.1-30-0.6
		c-10.5-8-12.3-23.4-7.8-30c0.5-0.8,2.2-3.3,4.8-3.5c1.6-0.2,3.9,0.5,7.4,4.6c7.3,8.6,4.7,13.9,9.1,16.5
		C319.2,305.4,328.9,295.5,335.5,300.2z"/>
	<path class="st85" d="M305.9,317.7C305.9,317.7,305.9,317.7,305.9,317.7c-0.1,0-10.5-2.4-15.1-15.2c0-0.1,0-0.2,0.1-0.2
		c0.1,0,0.2,0,0.2,0.1c4.6,12.6,14.7,15,14.8,15c0.1,0,0.1,0.1,0.1,0.2C306.1,317.7,306,317.7,305.9,317.7z"/>
	
		<linearGradient id="SVGID_73_" gradientUnits="userSpaceOnUse" x1="266.1462" y1="106.319" x2="266.3716" y2="76.2119" gradientTransform="matrix(1 0 0 -1 0 802)">
		<stop  offset="0" style="stop-color:#311944"/>
		<stop  offset="1" style="stop-color:#A03976"/>
	</linearGradient>
	<path class="st87" d="M262.8,711c0,0,9.8,3.5,10,4.2c0.2,0.7-6.1,0.3-8.6,0.6c-2.5,0.3-4.7-0.3-4.6-1.3c0.1-1.1,0.8-3.9,0.8-3.9
		L262.8,711z"/>
	
		<linearGradient id="SVGID_74_" gradientUnits="userSpaceOnUse" x1="261.5132" y1="89.143" x2="259.2688" y2="120.1516" gradientTransform="matrix(1 0 0 -1 0 802)">
		<stop  offset="0" style="stop-color:#FFC444"/>
		<stop  offset="0.9964" style="stop-color:#F36F56"/>
	</linearGradient>
	<path class="st88" d="M262.9,707.5l-0.2,4.3c0,0-1.5,0.7-2.5,0.1l-0.8-4.6L262.9,707.5z"/>
	
		<linearGradient id="SVGID_75_" gradientUnits="userSpaceOnUse" x1="221.4384" y1="105.9809" x2="221.6666" y2="75.8738" gradientTransform="matrix(1 0 0 -1 0 802)">
		<stop  offset="0" style="stop-color:#311944"/>
		<stop  offset="1" style="stop-color:#A03976"/>
	</linearGradient>
	<path class="st89" d="M218.4,711.4l-0.9,1.9c-0.3,0.5-0.3,1.1-0.1,1.7c0.5,1.4,1.5,4.2,1.9,4.9c0.5,1,6.7,1.1,6.7,1.1
		s0.5-0.8-0.9-1.6s-2.2-0.9-2.7-2.2c-0.6-1.3-1.2-5.2-1.2-5.2L218.4,711.4z"/>
	
		<linearGradient id="SVGID_76_" gradientUnits="userSpaceOnUse" x1="220.7659" y1="86.2037" x2="218.5234" y2="117.2123" gradientTransform="matrix(1 0 0 -1 0 802)">
		<stop  offset="0" style="stop-color:#FFC444"/>
		<stop  offset="0.9964" style="stop-color:#F36F56"/>
	</linearGradient>
	<path class="st90" d="M222.5,706.5c-0.4,0.4-1.8,6.5-1.8,6.5s-0.6,0.9-1.9-0.2c-1.3-1.1-0.6-0.5-0.6-0.5l-0.3-5.9L222.5,706.5z"/>
	
		<linearGradient id="SVGID_77_" gradientUnits="userSpaceOnUse" x1="264.5801" y1="139.9564" x2="241.6797" y2="137.9821" gradientTransform="matrix(1 0 0 -1 0 802)">
		<stop  offset="0" style="stop-color:#AA80F9"/>
		<stop  offset="0.9964" style="stop-color:#6165D7"/>
	</linearGradient>
	<path class="st91" d="M260.7,621.5c1.6,12.7,2.8,26.5,3.3,41.3c0.6,16.7,0.3,32.2-0.6,46.3c-0.8,0.1-1.6,0.2-2.4,0.2
		c-0.6,0-1.1,0.1-1.7,0.1c-1.3-2.8-2.9-6.5-4.5-10.9c-1.6-4.7-2.7-8.9-3.6-12.9c-3.1-14.2-1-15.7-3.4-26.2c-2.1-9.3-4-9.5-7.4-22.8
		c-3.6-14.3-2.1-16.7-1.3-17.5C242.6,615.3,251.4,616.8,260.7,621.5z"/>
	
		<linearGradient id="SVGID_78_" gradientUnits="userSpaceOnUse" x1="264.576" y1="139.9633" x2="241.6792" y2="137.9884" gradientTransform="matrix(1 0 0 -1 0 802)">
		<stop  offset="0" style="stop-color:#AA80F9"/>
		<stop  offset="0.9964" style="stop-color:#6165D7"/>
	</linearGradient>
	<path class="st92" d="M239.2,618.9c3.2-3.5,11.4-2.3,20.2,1.9c-8.8,11.3-9.3,18.2-7.7,22.5c1.7,4.9,5.9,6,6.3,11.4
		c0.6,6.7-5.3,9-4.6,16c0.5,4.7,3.1,4.4,4.3,10.1c1.3,6.8-1.9,9.4-0.4,14.4c0.7,2.1,2.3,4.9,6.5,7.5c-0.1,2.1-0.2,4.2-0.3,6.2
		c-0.8,0.1-1.6,0.2-2.4,0.2c-0.6,0-1.1,0-1.7,0.1c-1.3-2.8-2.9-6.5-4.5-10.9c-1.6-4.7-2.7-8.9-3.6-12.9c-3.1-14.2-1-15.7-3.4-26.2
		c-2.1-9.3-4-9.5-7.4-22.8C236.9,622.1,238.5,619.8,239.2,618.9z"/>
	
		<linearGradient id="SVGID_79_" gradientUnits="userSpaceOnUse" x1="258.0307" y1="141.6702" x2="211.9188" y2="137.6948" gradientTransform="matrix(1 0 0 -1 0 802)">
		<stop  offset="0" style="stop-color:#AA80F9"/>
		<stop  offset="0.9964" style="stop-color:#6165D7"/>
	</linearGradient>
	<path class="st93" d="M254.7,621.8c-7.3,12.9-15,28.9-21.5,47.8c-4.9,14.3-8.2,27.5-10.4,39.3c-0.4,0.2-1.4,0.7-2.8,0.7
		c-1.8-0.1-3-1.1-3.3-1.4c-2-8.1-2.5-15.1-2.5-20.2c0-3.2,0.1-8.7,1.5-15.5c1.7-7.6,3.2-8.2,5.5-16.3c2.4-8.4,1.5-10.4,3.6-20.9
		c0.9-4.3,2.4-10.7,5.1-18.5C238.3,618.5,246.5,620.1,254.7,621.8z"/>
	
		<linearGradient id="SVGID_80_" gradientUnits="userSpaceOnUse" x1="248.6807" y1="233.1744" x2="220.5306" y2="155.4011" gradientTransform="matrix(1 0 0 -1 0 802)">
		<stop  offset="0" style="stop-color:#FFC444"/>
		<stop  offset="0.9964" style="stop-color:#F36F56"/>
	</linearGradient>
	<path class="st94" d="M287.2,601.6c0.2,3-4.5,6-8.3,7.2c-9,2.7-20.2-3-25.9-10c-1.1-1.4-2.4-3-2.6-2.9c-0.6,0.4,5.7,8.9,9,19
		c1.7,5.2,1.6,7.7,4.2,11c0.6,0.7,1.3,1.5,1.2,2.5c-0.4,2.4-5.7,3.5-9.4,4.2c-3.9,0.8-7.6,1.1-11.2,1.3c-5.8,0.4-6.3,0.2-7.6,0.9
		c-3.9,2.3-3.2,7.1-6.2,8c-2.5,0.8-5.4-1.9-6.3-2.7c-4.7-4.3-5-10-6.2-15.7c-2.9-13.2-11.5-27.1-19.4-35.7c-2.4-2.6-4-4-4.3-6.5
		c-1-7.6,10.4-17.1,20.4-19c2.7-0.5,7.7-0.9,12.4-0.8c1.9,0,3.9,0.1,6,0.3c5.2,0.4,8.9,0.8,12.7,2.1c15.3,5.4,13.4,20.7,30.3,29.6
		C281.6,597.5,287,598.5,287.2,601.6z"/>
	
		<linearGradient id="SVGID_81_" gradientUnits="userSpaceOnUse" x1="214.8346" y1="245.4231" x2="186.6865" y2="167.6499" gradientTransform="matrix(1 0 0 -1 0 802)">
		<stop  offset="0" style="stop-color:#FFC444"/>
		<stop  offset="0.9964" style="stop-color:#F36F56"/>
	</linearGradient>
	<path class="st95" d="M206.6,634c-4,0.7-13,1.7-20-3.7c-11.6-8.9-7.9-28.2-4.9-36.6c3.4-9.6,9.8-15.4,13.6-19
		c4.8-4.4,7.7-7,11.5-6.8c9.8,0.5,18.3,19.8,13.5,26c-1.6,2-3.4,1.1-8.3,3.2c-1.6,0.7-13.5,5.7-14.9,14.9
		c-0.9,6.5,3.5,13.5,10.8,17.9C207.4,631.3,207,632.6,206.6,634z"/>
	
		<linearGradient id="SVGID_82_" gradientUnits="userSpaceOnUse" x1="227.432" y1="229.8181" x2="216.4427" y2="244.7909" gradientTransform="matrix(1 0 0 -1 0 802)">
		<stop  offset="0" style="stop-color:#FFC444"/>
		<stop  offset="0.9964" style="stop-color:#F36F56"/>
	</linearGradient>
	<path class="st96" d="M222.3,554.6c0,0-0.3,3.6-1.6,6.2c-1.1,2.4-6.5,3.7-7.6,4.2c-1.1,0.5,1.9,2.2,5,2.7c3.1,0.4,12,0.1,13.6-1
		c1.6-1.1-1.2-1.1-3.4-2.1c-2.2-0.9-3.3-5.3-2.8-7.2C226,555.5,222.3,554.6,222.3,554.6z"/>
	
		<linearGradient id="SVGID_83_" gradientUnits="userSpaceOnUse" x1="220.4498" y1="234.3418" x2="225.5491" y2="255.2562" gradientTransform="matrix(1 0 0 -1 0 802)">
		<stop  offset="0" style="stop-color:#444B8C"/>
		<stop  offset="0.9964" style="stop-color:#3E4177"/>
	</linearGradient>
	<path class="st97" d="M227.9,553.1c2.1-1.8,2.3-6.1,1-6.9c-0.4-0.2-0.7-0.1-5.5,2.3c-2.4,1.2-3.5,1.8-3.8,3
		c-0.2,0.7-0.1,1.6,0.3,2.3c0.2,0.4,0.5,0.8,1.2,1.6c0.6,0.7,0.6,0.7,0.7,0.9c0.4,0.5,1.3,1.3,2.8,2.3c0-0.4,0.1-0.9,0.3-1.4
		c0.1-0.2,0.3-1,0.7-1.7C226.3,554.1,227.2,553.7,227.9,553.1z"/>
	
		<linearGradient id="SVGID_84_" gradientUnits="userSpaceOnUse" x1="234.8482" y1="241.9005" x2="217.8573" y2="250.3748" gradientTransform="matrix(1 0 0 -1 0 802)">
		<stop  offset="0" style="stop-color:#FFC444"/>
		<stop  offset="0.9964" style="stop-color:#F36F56"/>
	</linearGradient>
	<path class="st98" d="M222.6,557.6c0,0,1.6,2,4.3,1.5c2.4-0.5,2-5.8,0.3-6.8c-0.6-0.3-1.6-0.3-2.4,0c-0.5,0.2-0.6,0.4-1.4,0.7
		c-0.7,0.3-0.9,0.2-1.1,0.5c-0.2,0.3-0.4,0.9,0.3,2.4c-0.5-0.4-1.1-0.5-1.4-0.3c-0.1,0-0.2,0.2-0.3,0.4
		C220.7,556.6,221.3,557.3,222.6,557.6z"/>
	
		<linearGradient id="SVGID_85_" gradientUnits="userSpaceOnUse" x1="190.192" y1="175.948" x2="253.2044" y2="200.9886" gradientTransform="matrix(1 0 0 -1 0 802)">
		<stop  offset="0" style="stop-color:#FFC444"/>
		<stop  offset="0.9964" style="stop-color:#F36F56"/>
	</linearGradient>
	<path class="st99" d="M251.4,626.7c-4.8-2.5-5.7-5.3-11-6.9c-6.9-2-9.8,1.6-13.3-0.8c-4.2-2.8-1.2-8.5-5-17.7
		c-0.6-1.6-5.5-13.4-14.3-14.2c-4.1-0.4-9.3,1.7-11.1,5.3c-1.4,2.8,0.3,4.7-1.4,7.8c-1.7,3.1-4.1,2.6-6.4,5.3
		c-3.6,4.3-3.5,12.6,0.5,16.9c1.9,2,4.1,2.7,8.3,4c2.6,0.8,4.9,1.2,7,1.4c-5.4-4.3-8.6-10.3-7.8-15.8c0.8-5.8,5.8-9.9,9.8-12.3
		c4.9,7.5,9.1,16.3,11,24.8c1.3,5.7,1.5,11.4,6.2,15.7c0.9,0.8,3.7,3.5,6.3,2.7c3-0.9,2.3-5.6,6.2-8c1.3-0.8,1.8-0.5,7.6-0.9
		c3.6-0.3,7.3-0.6,11.2-1.3c3.3-0.7,7.9-1.6,9.1-3.5C258.4,629.5,254.2,628.2,251.4,626.7z"/>
	
		<linearGradient id="SVGID_86_" gradientUnits="userSpaceOnUse" x1="252.1103" y1="198.0354" x2="281.1783" y2="209.5884" gradientTransform="matrix(1 0 0 -1 0 802)">
		<stop  offset="0" style="stop-color:#FFC444"/>
		<stop  offset="0.9964" style="stop-color:#F36F56"/>
	</linearGradient>
	<path class="st100" d="M274.3,602.3c-6.8-0.9-9.4-0.6-13-3c-5.9-3.9-7.3-10.6-10.5-10.2c-1.5,0.2-2.6,1.8-3.3,3.4
		c0.9,1.2,1.8,2.4,2.7,3.5c0,0,0-0.1,0-0.1c0.3-0.2,1.5,1.5,2.6,2.9c5.7,6.9,16.9,12.6,25.9,10c2.6-0.8,5.5-2.4,7.1-4.3
		C281.3,603.3,277.4,602.7,274.3,602.3z"/>
	<path class="st1" d="M196.5,647.8l-1.1-1.9c-1.7-3.1-0.5-6.9,2.7-8.6l140.7-78.6l0.6,3.5l-134,88.1
		C202.2,652.1,198.2,650.9,196.5,647.8z"/>
	
		<linearGradient id="SVGID_87_" gradientUnits="userSpaceOnUse" x1="214.1941" y1="163.0551" x2="209.4818" y2="172.6094" gradientTransform="matrix(1 0 0 -1 0 802)">
		<stop  offset="0" style="stop-color:#FFC444"/>
		<stop  offset="0.9964" style="stop-color:#F36F56"/>
	</linearGradient>
	<path class="st101" d="M206.8,633.1l0.7-2.3c0,0,1.5,0,2.6-1c0.6-0.5,1.8-0.8,2.1-0.7c0.3,0.1,1.6-0.1,0.2,0.7
		c-1.4,0.8-1.3,1.3-0.7,1.9c0.7,0.5,3.1,1.5,3.9,1.5c0.8,0-0.6,1.4-1.4,1.6c-0.8,0.2-2.2,0.6-4-0.3
		C209.7,634.3,206.8,633.1,206.8,633.1z"/>
	
		<linearGradient id="SVGID_88_" gradientUnits="userSpaceOnUse" x1="287.7476" y1="218.8517" x2="286.5925" y2="167.1963" gradientTransform="matrix(1 0 0 -1 0 802)">
		<stop  offset="0" style="stop-color:#FFC444"/>
		<stop  offset="0.9964" style="stop-color:#F36F56"/>
	</linearGradient>
	<path class="st102" d="M283.3,599.1c0,0,3.1-2.2,4.6-4.1c1.5-1.9,3.4-1.4,3.7-0.5c0.3,0.9-2.3,3.9-3.5,4.7
		C286.8,599.9,283.3,599.1,283.3,599.1z"/>
	
		<linearGradient id="SVGID_89_" gradientUnits="userSpaceOnUse" x1="411.7236" y1="263.6231" x2="373.9254" y2="74.5869" gradientTransform="matrix(1 0 0 -1 0 802)">
		<stop  offset="0" style="stop-color:#AA80F9"/>
		<stop  offset="0.9964" style="stop-color:#6165D7"/>
	</linearGradient>
	<path class="st103" d="M338.7,560.1c14.8-17.7,94.1-43.5,130.8-31.4c5.6,16.6,5.4,30,4.7,37.9c-3.8,41.8-37.2,70.4-50,78.4
		c-6.7,4.2-13.1,6.1-23.4,14.5c-6.5,5.3-10.4,9.8-13.6,8.6c-3.4-1.3-4-8.5-3.5-13.3c1.4-14.3,13.1-17.3,13-26
		c0-10.3-16.3-13.9-31.9-27.8C356.5,593.6,346,581.3,338.7,560.1z"/>
	
		<linearGradient id="SVGID_90_" gradientUnits="userSpaceOnUse" x1="336.9069" y1="257.4492" x2="472.225" y2="257.4492" gradientTransform="matrix(1 0 0 -1 0 802)">
		<stop  offset="0" style="stop-color:#D8DEE8"/>
		<stop  offset="0.494" style="stop-color:#EBEFF2"/>
		<stop  offset="1" style="stop-color:#FFFFFF"/>
	</linearGradient>
	<path class="st104" d="M351.2,565.2c-11.6,0-13.7-2.5-14.2-4.6c-0.6-2.5,0.7-6.7,18.6-14.1c12-5,28.4-10,46.1-14.2
		c17.7-4.2,34.6-7.1,47.6-8c19.3-1.5,22.3,1.7,22.9,4.2c0.6,2.5-0.7,6.7-18.6,14.1c-12,5-28.4,10-46.1,14.2
		c-17.7,4.2-34.6,7.1-47.6,8C356.5,565.1,353.7,565.2,351.2,565.2z M457.9,527.5c-2.4,0-5.2,0.1-8.7,0.4c-12.8,1-29.4,3.8-46.7,7.9
		c-17.3,4.1-33.4,9.1-45.3,13.9c-16.5,6.8-16.8,10.1-16.8,10.1c0,0,1.8,2.8,19.5,1.5c12.8-1,29.4-3.8,46.7-7.9
		c17.3-4.1,33.4-9.1,45.3-13.9c16.4-6.7,16.8-10,16.8-10.1C468.6,529.3,467.5,527.5,457.9,527.5z"/>
	
		<linearGradient id="SVGID_91_" gradientUnits="userSpaceOnUse" x1="342.5111" y1="293.5127" x2="372.515" y2="293.5127" gradientTransform="matrix(1 0 0 -1 0 802)">
		<stop  offset="0" style="stop-color:#311944"/>
		<stop  offset="1" style="stop-color:#893976"/>
	</linearGradient>
	<path class="st105" d="M366.7,513.9c0,0-0.1-0.1-0.2-0.2l-0.2-0.3c-0.1-0.2-0.3-0.4-0.5-0.5c-0.3-0.3-0.6-0.7-1-1
		c-0.7-0.6-1.4-1.2-2.2-1.7c-1.5-1-3.1-1.5-4.7-1.6c-0.2,0-0.4,0-0.6,0l-0.6,0c-0.4,0-0.8,0.1-1.2,0.2c-0.4,0.1-0.8,0.2-1.2,0.3
		c-0.4,0.1-0.8,0.3-1.1,0.4c-1.5,0.7-3,1.7-4.3,2.8c-1.7,1.5-4.3,1.3-5.7-0.4c-1.5-1.7-1.3-4.3,0.4-5.7c0.2-0.1,0.3-0.3,0.5-0.4
		l0.1-0.1c2.1-1.3,4.4-2.4,6.9-3c0.6-0.2,1.3-0.3,1.9-0.4c0.7-0.1,1.3-0.2,2-0.2c0.7,0,1.3,0,2,0.1l1,0.1c0.3,0.1,0.7,0.1,1,0.2
		c2.6,0.6,4.9,2,6.8,3.6c0.9,0.8,1.7,1.7,2.5,2.6c0.4,0.5,0.7,0.9,1.1,1.4c0.2,0.2,0.3,0.5,0.5,0.8c0.1,0.1,0.2,0.3,0.2,0.4l0.2,0.5
		c0.5,1,0.2,2.2-0.8,2.8c-0.8,0.4-1.8,0.3-2.5-0.4L366.7,513.9z"/>
	
		<linearGradient id="SVGID_92_" gradientUnits="userSpaceOnUse" x1="467.1774" y1="311.4911" x2="439.1082" y2="300.887" gradientTransform="matrix(1 0 0 -1 0 802)">
		<stop  offset="0" style="stop-color:#311944"/>
		<stop  offset="1" style="stop-color:#893976"/>
	</linearGradient>
	<path class="st106" d="M442.4,503.4l0.1-0.5c0-0.1,0-0.3,0.1-0.5c0.1-0.3,0.1-0.6,0.2-0.9c0.1-0.6,0.3-1.2,0.5-1.7
		c0.4-1.1,0.8-2.3,1.4-3.3c1.1-2.2,2.8-4.2,5.1-5.7c0.3-0.2,0.6-0.4,0.8-0.5l0.9-0.5c0.6-0.3,1.2-0.6,1.9-0.8
		c0.6-0.2,1.3-0.4,1.9-0.6c0.6-0.1,1.3-0.3,2-0.3c2.6-0.3,5.1-0.1,7.5,0.4l0.1,0c2.2,0.4,3.6,2.6,3.2,4.8c-0.4,2.2-2.6,3.6-4.8,3.2
		c-0.2,0-0.4-0.1-0.6-0.2c-1.7-0.6-3.4-1-5.1-1.1c-0.4,0-0.8,0-1.2,0c-0.4,0-0.8,0.1-1.2,0.1c-0.4,0.1-0.8,0.2-1.1,0.3l-0.6,0.2
		c-0.2,0.1-0.4,0.2-0.6,0.2c-1.4,0.7-2.8,1.8-3.8,3.2c-0.5,0.7-1,1.5-1.4,2.3c-0.2,0.4-0.4,0.8-0.6,1.3c-0.1,0.2-0.2,0.4-0.2,0.7
		l-0.1,0.3c0,0.1-0.1,0.2-0.1,0.3l-0.2,0.4c-0.4,1-1.6,1.5-2.7,1.1C442.8,505.2,442.3,504.3,442.4,503.4z"/>
	
		<linearGradient id="SVGID_93_" gradientUnits="userSpaceOnUse" x1="337.2155" y1="256.1731" x2="364.2423" y2="269.2039" gradientTransform="matrix(1 0 0 -1 0 802)">
		<stop  offset="0" style="stop-color:#311944"/>
		<stop  offset="1" style="stop-color:#893976"/>
	</linearGradient>
	<path class="st107" d="M361.3,540.2c0,0-0.2-0.1-0.3-0.1l-0.3-0.1c-0.2-0.1-0.4-0.2-0.6-0.3c-0.4-0.2-0.9-0.3-1.3-0.5
		c-0.9-0.3-1.8-0.5-2.7-0.6c-1.8-0.2-3.5,0-5,0.6c-0.2,0.1-0.4,0.1-0.6,0.2l-0.5,0.3c-0.3,0.2-0.7,0.4-1,0.6
		c-0.3,0.2-0.6,0.5-0.9,0.8c-0.3,0.3-0.6,0.6-0.8,0.9c-1.1,1.3-2,2.8-2.7,4.5c-0.9,2.1-3.3,3-5.4,2.1c-2.1-0.9-3-3.3-2.1-5.3
		c0.1-0.2,0.2-0.4,0.3-0.6l0.1-0.1c1.3-2.1,2.9-4,4.9-5.7c0.5-0.4,1-0.8,1.6-1.2c0.6-0.4,1.1-0.7,1.7-1c0.6-0.3,1.2-0.6,1.8-0.8
		l1-0.3c0.3-0.1,0.7-0.2,1-0.2c2.6-0.6,5.3-0.4,7.6,0.3c1.2,0.3,2.3,0.8,3.4,1.3c0.5,0.3,1.1,0.5,1.6,0.8c0.3,0.2,0.5,0.3,0.8,0.5
		c0.1,0.1,0.3,0.2,0.4,0.3l0.4,0.3c0.9,0.7,1.1,1.9,0.5,2.9c-0.6,0.8-1.5,1-2.4,0.7L361.3,540.2z"/>
	
		<linearGradient id="SVGID_94_" gradientUnits="userSpaceOnUse" x1="356.3246" y1="216.6873" x2="370.5986" y2="243.0775" gradientTransform="matrix(1 0 0 -1 0 802)">
		<stop  offset="0" style="stop-color:#311944"/>
		<stop  offset="1" style="stop-color:#893976"/>
	</linearGradient>
	<path class="st108" d="M372.6,566.6c0,0-0.2,0-0.3,0.1l-0.3,0.1c-0.2,0-0.5,0.1-0.7,0.2c-0.5,0.1-0.9,0.2-1.4,0.4
		c-0.9,0.3-1.7,0.7-2.5,1.1c-1.6,0.9-2.8,2-3.7,3.4c-0.1,0.2-0.2,0.3-0.3,0.5l-0.3,0.5c-0.2,0.4-0.3,0.7-0.4,1.1
		c-0.1,0.4-0.2,0.8-0.3,1.2c-0.1,0.4-0.1,0.8-0.2,1.2c-0.1,1.6,0,3.4,0.4,5.2c0.5,2.2-0.9,4.4-3.1,4.9c-2.2,0.5-4.4-0.9-4.9-3.1
		c0-0.2-0.1-0.4-0.1-0.6l0-0.1c-0.2-2.4,0-5,0.6-7.5c0.1-0.6,0.4-1.3,0.6-1.9c0.3-0.6,0.5-1.2,0.8-1.8c0.3-0.6,0.7-1.2,1-1.7
		l0.6-0.8c0.2-0.3,0.4-0.5,0.6-0.8c1.8-2,4.1-3.4,6.4-4.2c1.2-0.4,2.3-0.7,3.5-0.9c0.6-0.1,1.2-0.2,1.8-0.2c0.3,0,0.6,0,0.9-0.1
		c0.2,0,0.3,0,0.5,0h0.5c1.1,0,2,0.9,2,2c0,0.9-0.6,1.7-1.5,2L372.6,566.6z"/>
	
		<linearGradient id="SVGID_95_" gradientUnits="userSpaceOnUse" x1="476.2089" y1="281.334" x2="446.2145" y2="280.6024" gradientTransform="matrix(1 0 0 -1 0 802)">
		<stop  offset="0" style="stop-color:#311944"/>
		<stop  offset="1" style="stop-color:#893976"/>
	</linearGradient>
	<path class="st109" d="M448.6,524.7l0.2-0.5c0.1-0.1,0.2-0.3,0.2-0.4c0.2-0.3,0.3-0.5,0.5-0.8c0.3-0.5,0.6-1,1-1.5
		c0.7-1,1.5-1.9,2.4-2.7c1.8-1.7,4.1-3.1,6.7-3.8c0.3-0.1,0.6-0.2,1-0.2l1-0.2c0.7-0.1,1.3-0.1,2-0.1c0.7,0,1.3,0.1,2,0.1
		c0.6,0.1,1.3,0.2,1.9,0.4c2.5,0.6,4.9,1.6,7,2.9l0.1,0.1c1.9,1.1,2.6,3.6,1.4,5.6c-1.1,1.9-3.6,2.6-5.6,1.4
		c-0.2-0.1-0.4-0.2-0.5-0.4c-1.4-1.2-2.9-2.1-4.4-2.7c-0.4-0.2-0.8-0.3-1.1-0.4c-0.4-0.1-0.8-0.2-1.2-0.3c-0.4-0.1-0.8-0.1-1.2-0.1
		h-0.6c-0.2,0-0.4,0-0.6,0c-1.6,0.1-3.2,0.8-4.7,1.8c-0.7,0.5-1.5,1.1-2.1,1.7c-0.3,0.3-0.7,0.7-1,1c-0.2,0.2-0.3,0.4-0.5,0.5
		l-0.2,0.3c-0.1,0.1-0.1,0.2-0.2,0.2l-0.3,0.3c-0.8,0.8-2,0.9-2.9,0.2C448.3,526.5,448.1,525.5,448.6,524.7z"/>
	
		<linearGradient id="SVGID_96_" gradientUnits="userSpaceOnUse" x1="464.9293" y1="229.1764" x2="442.6353" y2="249.2635" gradientTransform="matrix(1 0 0 -1 0 802)">
		<stop  offset="0" style="stop-color:#311944"/>
		<stop  offset="1" style="stop-color:#893976"/>
	</linearGradient>
	<path class="st110" d="M442.1,556.7l0.5-0.2c0.1,0,0.3-0.1,0.4-0.1c0.3-0.1,0.6-0.2,0.9-0.2c0.6-0.2,1.2-0.3,1.7-0.4
		c1.2-0.2,2.4-0.3,3.6-0.3c2.5,0,5.1,0.6,7.4,1.9c0.3,0.2,0.6,0.3,0.9,0.5l0.8,0.6c0.5,0.4,1.1,0.8,1.5,1.3c0.5,0.4,0.9,1,1.4,1.5
		c0.4,0.5,0.8,1,1.2,1.6c1.4,2.2,2.4,4.5,3.1,6.9l0,0.1c0.6,2.2-0.6,4.4-2.8,5c-2.2,0.6-4.4-0.6-5-2.8c-0.1-0.2-0.1-0.4-0.1-0.6
		c-0.2-1.8-0.6-3.5-1.3-5c-0.2-0.4-0.4-0.7-0.6-1.1c-0.2-0.3-0.4-0.7-0.7-1c-0.2-0.3-0.5-0.6-0.8-0.9l-0.4-0.4
		c-0.2-0.1-0.3-0.2-0.5-0.4c-1.2-1-2.8-1.6-4.6-1.9c-0.9-0.2-1.8-0.2-2.7-0.2c-0.5,0-0.9,0-1.4,0.1c-0.2,0-0.5,0.1-0.7,0.1l-0.3,0.1
		c-0.1,0-0.2,0-0.3,0l-0.4,0c-1.1,0.1-2.1-0.7-2.2-1.9C440.6,557.9,441.2,557,442.1,556.7z"/>
	
		<linearGradient id="SVGID_97_" gradientUnits="userSpaceOnUse" x1="407.4009" y1="303.128" x2="406.5181" y2="214.8314" gradientTransform="matrix(1 0 0 -1 0 802)">
		<stop  offset="0" style="stop-color:#311944"/>
		<stop  offset="1" style="stop-color:#893976"/>
	</linearGradient>
	<path class="st111" d="M453.1,535c-1.7,22.9-17.4,56.8-44.2,57.7c-25.5,0.8-45.6-27.1-47.8-51.8c-2.8-30.9,21.8-63.8,47.8-63.6
		c20,0.2,34.1,20,35.3,21.9C454.3,514.1,453.5,529.6,453.1,535z"/>
	
		<linearGradient id="SVGID_98_" gradientUnits="userSpaceOnUse" x1="421.3719" y1="363.9758" x2="414.2724" y2="330.2551" gradientTransform="matrix(1 0 0 -1 0 802)">
		<stop  offset="0" style="stop-color:#FFC444"/>
		<stop  offset="0.9964" style="stop-color:#F36F56"/>
	</linearGradient>
	<path class="st112" d="M444.2,499.3c-1.3-1.9-15.3-21.7-35.3-21.9c-14.9-0.1-29.3,10.6-38.4,25.7c8.6-3,20-5.9,33.2-6.8
		c12.6-0.9,26.8,0.1,41.6,4.8C445,500.4,444.6,499.8,444.2,499.3z"/>
	
		<linearGradient id="SVGID_99_" gradientUnits="userSpaceOnUse" x1="400.256" y1="265.8076" x2="449.9524" y2="242.7324" gradientTransform="matrix(1 0 0 -1 0 802)">
		<stop  offset="0" style="stop-color:#FFC444"/>
		<stop  offset="0.9964" style="stop-color:#F36F56"/>
	</linearGradient>
	<path class="st113" d="M403.7,496.2c-3.4,14.4-10.2,50.8-5.2,95.3c3.3,0.9,6.8,1.4,10.4,1.3c26.8-0.9,42.6-34.8,44.2-57.7
		c0.4-5.3,1.2-19.8-7.7-34.1C430.5,496.3,416.3,495.3,403.7,496.2z"/>
	
		<linearGradient id="SVGID_100_" gradientUnits="userSpaceOnUse" x1="382.4397" y1="303.3787" x2="381.5476" y2="215.0821" gradientTransform="matrix(1 0 0 -1 0 802)">
		<stop  offset="0" style="stop-color:#FFC444"/>
		<stop  offset="0.9964" style="stop-color:#F36F56"/>
	</linearGradient>
	<path class="st114" d="M403.7,496.2c-13.2,0.9-24.7,3.9-33.2,6.8c-6.8,11.2-10.6,24.8-9.4,37.9c1.9,21.2,17,44.8,37.4,50.5
		C393.5,547,400.3,510.6,403.7,496.2z"/>
	<g class="st115">
		<path class="st116" d="M444.2,499.3c-1.1-1.6-11.7-16.6-27.4-20.8c16.3,13.1,20.3,23.1,19.2,30.6c-2.3,15.9-27.6,21.3-27.8,38.8
			c-0.2,14,16.1,19.7,14.5,28.7c-0.9,4.9-7,10.2-26.6,14.2c4.1,1.5,8.4,2.2,12.9,2.1c26.8-0.9,42.6-34.8,44.2-57.7
			C453.5,529.6,454.3,514.1,444.2,499.3z"/>
	</g>
	
		<linearGradient id="SVGID_101_" gradientUnits="userSpaceOnUse" x1="440.0744" y1="310.6173" x2="441.8117" y2="468.1866" gradientTransform="matrix(1 0 0 -1 0 802)">
		<stop  offset="0" style="stop-color:#FFC444"/>
		<stop  offset="0.9964" style="stop-color:#F36F56"/>
	</linearGradient>
	<path class="st117" d="M420.3,482.8c0.1-2.2,0.3-4.4,0.5-6.6c0.2-2.2,0.5-4.4,0.8-6.5c0.3-2.2,0.7-4.3,1.1-6.5
		c0.4-2.2,0.9-4.3,1.5-6.5c1.2-4.3,2.6-8.5,4.4-12.6l0.3-0.8l0.4-0.8c0.3-0.5,0.5-1,0.8-1.5c0.6-1,1.1-2,1.7-3c0.6-1,1.3-1.9,2-2.9
		c0.7-0.9,1.4-1.8,2.3-2.7l0.6-0.7c0.2-0.2,0.4-0.4,0.6-0.6l0.7-0.6c0.2-0.2,0.4-0.4,0.7-0.6l1.4-1.1c0.2-0.2,0.5-0.3,0.7-0.5
		c0.2-0.2,0.5-0.3,0.7-0.5c1.9-1.3,4-2.5,6.3-3.4c1.2-0.4,2.5-0.8,4-0.9c0.7-0.1,1.5,0,2.4,0.1c0.8,0.1,1.7,0.4,2.6,1
		c0.8,0.5,1.6,1.2,2.2,2c0.6,0.8,0.9,1.7,1.1,2.5c0.4,1.7,0.4,3.2,0.2,4.6c-0.2,1.4-0.6,2.7-1.1,4c-0.5,1.2-1.2,2.4-1.9,3.5
		c-0.7,1.1-1.6,2.1-2.5,3c-0.5,0.5-1,0.9-1.5,1.3l-0.4,0.3l-0.4,0.3c-0.2,0.2-0.5,0.4-0.8,0.6c-0.5,0.4-1.1,0.7-1.7,1.1
		c-0.6,0.4-1.3,0.7-2.2,1c-0.2,0.1-0.5,0.1-0.7,0.2l-0.4,0.1c-0.1,0-0.3,0-0.5,0.1c-0.6,0-1.5,0-2.4-0.3c-0.5-0.2-0.9-0.4-1.3-0.7
		c-0.4-0.3-0.8-0.7-1-1c-0.5-0.7-0.8-1.4-1-2c-0.2-0.6-0.3-1.1-0.3-1.5c0-0.5,0-0.9,0-1.3c0-0.8,0.1-1.5,0.2-2.1
		c0.1-0.7,0.2-1.3,0.4-1.9c0.1-0.3,0.1-0.6,0.2-0.9l0.1-0.5l0.1-0.2l0.1-0.3l0,0c0.7-2.1,2.9-3.3,5.1-2.7c2.1,0.7,3.3,2.9,2.7,5.1
		c0,0.1-0.1,0.2-0.1,0.3c0,0,0,0.1,0,0.1l0,0.2l-0.1,0.3c-0.1,0.2-0.1,0.4-0.2,0.6c-0.1,0.4-0.2,0.9-0.3,1.3
		c-0.1,0.4-0.1,0.8-0.2,1.1c0,0.3,0,0.5,0,0.4c0-0.1-0.1-0.2-0.3-0.5c-0.1-0.1-0.3-0.3-0.5-0.5c-0.2-0.1-0.4-0.3-0.6-0.3
		c-0.4-0.1-0.7-0.1-0.8-0.1c0,0-0.1,0-0.1,0c0,0,0,0,0,0c0,0,0,0,0,0c0.1,0,0.5-0.1,0.8-0.3c0.3-0.2,0.7-0.4,1.1-0.6
		c0.2-0.1,0.4-0.2,0.6-0.4l0.3-0.2l0.3-0.2c0.3-0.3,0.7-0.5,1-0.8c0.6-0.6,1.2-1.2,1.8-1.9c0.5-0.7,1-1.4,1.4-2.2
		c0.4-0.8,0.6-1.5,0.8-2.3c0.2-0.7,0.2-1.4,0.1-1.9c0-0.2-0.1-0.4-0.2-0.5c-0.1-0.1-0.1-0.2-0.2-0.2c-0.1-0.1-0.2-0.1-0.4-0.2
		c-0.2-0.1-0.5-0.1-0.9-0.1c-0.7,0-1.5,0.2-2.4,0.4c-1.7,0.5-3.5,1.4-5.3,2.5c-0.2,0.1-0.4,0.3-0.6,0.4c-0.2,0.1-0.5,0.3-0.6,0.4
		l-1.2,0.8c-0.2,0.1-0.4,0.3-0.6,0.5l-0.6,0.5c-0.2,0.2-0.4,0.3-0.6,0.5l-0.5,0.5c-0.7,0.7-1.4,1.4-2.1,2.2
		c-0.6,0.8-1.3,1.6-1.8,2.4c-0.6,0.8-1.1,1.7-1.7,2.6c-0.3,0.4-0.5,0.9-0.8,1.3l-0.4,0.7l-0.4,0.7c-2,3.7-3.5,7.7-4.8,11.7
		c-0.6,2-1.3,4.1-1.8,6.2c-0.5,2.1-1,4.2-1.5,6.3c-0.4,2.1-0.8,4.2-1.2,6.3c-0.3,2.1-0.6,4.3-0.8,6.4v0c-0.1,0.7-0.7,1.2-1.3,1.1
		C420.8,484,420.3,483.4,420.3,482.8z"/>
	
		<linearGradient id="SVGID_102_" gradientUnits="userSpaceOnUse" x1="371.1696" y1="311.3788" x2="372.9068" y2="468.9481" gradientTransform="matrix(1 0 0 -1 0 802)">
		<stop  offset="0" style="stop-color:#FFC444"/>
		<stop  offset="0.9964" style="stop-color:#F36F56"/>
	</linearGradient>
	<path class="st118" d="M389.2,485c-0.2-2.1-0.5-4.3-0.8-6.4c-0.3-2.1-0.7-4.2-1.2-6.3c-0.4-2.1-0.9-4.2-1.5-6.3
		c-0.5-2.1-1.1-4.1-1.8-6.2c-1.3-4-2.9-8-4.8-11.7l-0.4-0.7l-0.4-0.7c-0.3-0.4-0.5-0.9-0.8-1.3c-0.6-0.9-1.1-1.8-1.7-2.6
		c-0.6-0.9-1.2-1.6-1.8-2.4c-0.7-0.7-1.3-1.5-2.1-2.2l-0.5-0.5c-0.2-0.2-0.4-0.3-0.6-0.5l-0.6-0.5c-0.2-0.1-0.4-0.3-0.6-0.5
		l-1.2-0.8c-0.2-0.1-0.4-0.3-0.6-0.4c-0.2-0.1-0.4-0.3-0.6-0.4c-1.7-1-3.5-1.9-5.3-2.5c-0.9-0.3-1.7-0.4-2.4-0.4
		c-0.3,0-0.6,0-0.9,0.1c-0.2,0.1-0.3,0.1-0.4,0.2c-0.1,0.1-0.1,0.1-0.2,0.2c-0.1,0.1-0.1,0.3-0.2,0.5c-0.1,0.5-0.1,1.1,0.1,1.9
		c0.2,0.7,0.4,1.5,0.8,2.3c0.4,0.8,0.8,1.5,1.4,2.2c0.5,0.7,1.1,1.3,1.8,1.9c0.3,0.3,0.7,0.6,1,0.8l0.3,0.2l0.3,0.2
		c0.2,0.1,0.4,0.3,0.6,0.4c0.4,0.2,0.8,0.5,1.1,0.6c0.3,0.2,0.7,0.3,0.8,0.3c0,0,0,0,0,0c0,0,0,0,0,0c0,0,0,0-0.1,0
		c-0.1,0-0.4,0-0.8,0.1c-0.2,0.1-0.4,0.2-0.6,0.3c-0.2,0.1-0.3,0.3-0.5,0.5c-0.2,0.3-0.3,0.5-0.3,0.5c0,0.1,0-0.1,0-0.4
		c0-0.3-0.1-0.7-0.2-1.1c-0.1-0.4-0.2-0.8-0.3-1.3c-0.1-0.2-0.1-0.4-0.2-0.6l-0.1-0.3l0-0.1c0,0,0-0.1,0-0.1
		c-0.8-2.1,0.2-4.4,2.3-5.3c2.1-0.8,4.5,0.2,5.3,2.3c0,0.1,0.1,0.2,0.1,0.3l0,0l0.1,0.3l0.1,0.2l0.1,0.5c0.1,0.3,0.2,0.6,0.2,0.9
		c0.1,0.6,0.3,1.3,0.4,1.9c0.1,0.7,0.2,1.4,0.2,2.1c0,0.4,0,0.8,0,1.3c0,0.5-0.1,1-0.3,1.5c-0.2,0.6-0.4,1.3-1,2
		c-0.3,0.4-0.6,0.7-1,1c-0.4,0.3-0.9,0.6-1.3,0.7c-0.9,0.3-1.8,0.4-2.4,0.3c-0.2,0-0.3,0-0.5-0.1l-0.4-0.1c-0.3-0.1-0.5-0.1-0.7-0.2
		c-0.9-0.3-1.6-0.6-2.2-1c-0.6-0.4-1.2-0.7-1.7-1.1c-0.3-0.2-0.5-0.4-0.8-0.6l-0.4-0.3l-0.4-0.3c-0.5-0.4-1-0.9-1.5-1.3
		c-0.9-0.9-1.8-1.9-2.5-3c-0.7-1.1-1.4-2.2-1.9-3.5c-0.5-1.2-0.9-2.5-1.1-4c-0.2-1.4-0.2-2.9,0.2-4.6c0.2-0.8,0.6-1.7,1.1-2.5
		c0.5-0.8,1.3-1.5,2.1-2c0.8-0.5,1.7-0.8,2.6-1c0.9-0.1,1.7-0.2,2.4-0.1c1.5,0.1,2.8,0.5,4,0.9c2.4,0.9,4.4,2.1,6.3,3.4
		c0.2,0.2,0.5,0.3,0.7,0.5c0.2,0.2,0.5,0.3,0.7,0.5l1.4,1.1c0.2,0.2,0.4,0.4,0.7,0.6l0.7,0.6c0.2,0.2,0.4,0.4,0.6,0.6l0.6,0.7
		c0.8,0.8,1.5,1.8,2.3,2.7c0.7,0.9,1.4,1.9,2,2.9c0.6,1,1.2,2,1.7,3c0.3,0.5,0.5,1,0.8,1.5l0.4,0.8l0.4,0.8
		c1.9,4.1,3.3,8.3,4.4,12.6c0.6,2.1,1.1,4.3,1.5,6.5c0.4,2.2,0.8,4.3,1.1,6.5c0.3,2.2,0.6,4.4,0.8,6.5c0.2,2.2,0.4,4.4,0.5,6.6
		c0,0.7-0.5,1.2-1.2,1.3C389.8,486.1,389.2,485.7,389.2,485L389.2,485z"/>
	<path class="st29" d="M469.5,528.8c-7.7,29.2-18.8,39.1-28.4,42.3c-16.1,5.3-30.1-7.7-44.1,1.2c-7.5,4.8-13.2,14.7-12.4,24
		c1.5,18.6,28.5,25.6,26,36.7c-1.6,7.3-13.5,6.1-20.7,19.2c-3.5,6.4-5,14.5-2.7,16c2,1.3,6.4-2.7,13.6-8.6
		c10.3-8.4,16.7-10.3,23.4-14.5c12.8-8,46.2-36.5,50-78.4C474.9,558.7,475.1,545.4,469.5,528.8z"/>
	
		<linearGradient id="SVGID_103_" gradientUnits="userSpaceOnUse" x1="336.9089" y1="257.2672" x2="472.2319" y2="257.2672" gradientTransform="matrix(1 0 0 -1 0 802)">
		<stop  offset="0" style="stop-color:#D8DEE8"/>
		<stop  offset="0.494" style="stop-color:#EBEFF2"/>
		<stop  offset="1" style="stop-color:#FFFFFF"/>
	</linearGradient>
	<path class="st119" d="M472.1,528.5c-0.4-1.6-1.7-3.4-7.6-4.2c-1.4,1.1-2.9,2.2-4.4,3.2c7.5,0.3,8.5,1.8,8.5,1.8
		c0,0.1-0.4,3.4-16.8,10.1c-11.9,4.9-27.9,9.8-45.3,13.9c-17.3,4.1-33.9,6.9-46.7,7.9c-17.7,1.4-19.5-1.4-19.5-1.5
		c0,0,0.2-2.1,8.6-6.4c-1.4-0.5-2.9-1.1-4.3-1.8c-7.6,4.3-8.2,7.1-7.8,9c0.5,2.1,2.6,4.6,14.2,4.6c2.5,0,5.3-0.1,8.7-0.4
		c13-1,29.9-3.8,47.6-8c17.7-4.2,34-9.3,46.1-14.2C471.4,535.2,472.7,531,472.1,528.5z"/>
	
		<linearGradient id="SVGID_104_" gradientUnits="userSpaceOnUse" x1="546.9015" y1="295.6086" x2="548.3477" y2="277.8674" gradientTransform="matrix(1 0 0 -1 0 802)">
		<stop  offset="0" style="stop-color:#311944"/>
		<stop  offset="1" style="stop-color:#893976"/>
	</linearGradient>
	<path class="st120" d="M551.4,509.9c0,0-1.6-1.1-1.6-2.2c0-1.1-1.1-4.9-1.7-4.9c-0.5,0-0.5,2.2,0,2.7c0.5,0.5,0,1.1-0.5,1.1
		c-0.5,0-2.7-1.6-4.4-3.2c-1.6-1.6,0,1.1,0.6,2.2c0.6,1.1,1.1,3.3,2.2,3.8c1.1,0.5,2.7,1.1,2.7,1.1l1.6,1.1L551.4,509.9z"/>
	
		<linearGradient id="SVGID_105_" gradientUnits="userSpaceOnUse" x1="559.7865" y1="320.8738" x2="561.4112" y2="298.5649" gradientTransform="matrix(1 0 0 -1 0 802)">
		<stop  offset="0" style="stop-color:#311944"/>
		<stop  offset="1" style="stop-color:#893976"/>
	</linearGradient>
	<path class="st121" d="M562.5,481.7c-0.7-1.2-1.3-2.1-1.7-2.8c-0.1-0.2-0.4,0-0.3,0.2l1,2.6c0,0-3.5-5.9-3.5-4.9c0,1,2,4,2,4
		s-4.5-4.9-4.5-4c0,1,3,4.5,3,4.5s-3-2-4-2c-1,0,2,2.5,3.5,4c1.6,1.6,1.7,2.1,1.6,2.3c-0.3,0.6-2.8-0.3-2.9,0
		c-0.1,0.2,1,0.7,2.3,1.2c0,0,1.2,0.4,4.5,1l2-1C565.5,486.7,564,484.2,562.5,481.7z"/>
	<path class="st83" d="M662.3,668.7c0.2,0.2,0.4,0.5,0.4,1c0,0.3-0.1,0.5-0.1,0.7c-0.4,1-1,1.1-1.6,2.2c-0.4,0.7-0.3,0.8-0.7,1.1
		c-0.5,0.4-1.1,0.4-1.6,0.4c-0.8,0-2.1,0-3.6-0.2c0.8-1,1.7-2.1,2.6-3.2c0.4-0.5,0.8-0.9,1.2-1.4l2.4-0.8
		C661.6,668.7,661.9,668.7,662.3,668.7z"/>
	
		<linearGradient id="SVGID_106_" gradientUnits="userSpaceOnUse" x1="656.0197" y1="150.3778" x2="660.5366" y2="121.8897" gradientTransform="matrix(1 0 0 -1 0 802)">
		<stop  offset="0" style="stop-color:#311944"/>
		<stop  offset="1" style="stop-color:#893976"/>
	</linearGradient>
	<path class="st122" d="M660.3,657.2c0,0-1.4,7.1,0.4,9.1c1.5,2-0.7,0.6-0.7,0.6l-2.6,2.3l-1.6,2.7c0,0,1.4-6.9,1.1-9.7
		c-0.4-2.8-0.6-4.6-0.6-4.6L660.3,657.2z"/>
	<path class="st123" d="M659.9,665.2c0.6,0,1.1,0.5,1.5,1.8c0.3,1.2,2.1,2.3,0.1,2.1c-2-0.3-3.4,2.6-4.1,3.6c-0.7,1-2.6,2-2.6,0.9
		c0-1,0.9-1.5,1.1-2.5C656.1,670,658.5,665.2,659.9,665.2z"/>
	
		<linearGradient id="SVGID_107_" gradientUnits="userSpaceOnUse" x1="627.0253" y1="189.606" x2="665.9638" y2="189.606" gradientTransform="matrix(1 0 0 -1 0 802)">
		<stop  offset="0" style="stop-color:#444B8C"/>
		<stop  offset="0.9964" style="stop-color:#26264F"/>
	</linearGradient>
	<path class="st124" d="M644,564c0.9,0.4,3.1,1.5,7.1,18.5c2.5,10.9,2.3,13.4,4.3,20.1c2.7,8.9,5.5,12.5,7.6,17.4
		c3.3,7.7,5.2,19.8-1.6,39.1c-1.8,0.7-3.6,1.4-5.4,2.2c0.4-9.7-0.6-17.5-1.6-22.8c-4.8-25.6-17.9-44.5-17.9-44.5
		c-5.9-8.6-10.1-11.8-9.2-17.4C628.3,568.7,638.4,561.8,644,564z"/>
	<g class="st55">
		
			<linearGradient id="SVGID_108_" gradientUnits="userSpaceOnUse" x1="627.0253" y1="189.606" x2="662.27" y2="189.606" gradientTransform="matrix(1 0 0 -1 0 802)">
			<stop  offset="0" style="stop-color:#444B8C"/>
			<stop  offset="0.9964" style="stop-color:#26264F"/>
		</linearGradient>
		<path class="st125" d="M659.2,642.8c-1.2-11,1.5-13.3-0.5-21.7c-3.1-12.5-10.9-14.2-12.5-24.5c-0.6-4.1-0.3-10,4-17.7
			c-3.4-13.5-5.3-14.5-6.2-14.9c-5.5-2.2-15.6,4.7-16.8,12.5c-0.9,5.6,3.3,8.8,9.2,17.4c0,0,13.1,19,17.9,44.5
			c1,5.3,2,13.1,1.6,22.8c1.8-0.7,3.6-1.4,5.4-2.2c0.3-0.9,0.6-1.8,0.9-2.7C660.9,652.5,659.8,647.9,659.2,642.8z"/>
	</g>
	<path class="st83" d="M647.4,672c0.2,0.2,0.5,0.6,0.5,1.2c0,0.3-0.1,0.6-0.2,0.8c-0.5,1.2-1.2,1.4-1.9,2.6c-0.5,0.8-0.4,1-0.8,1.4
		c-0.6,0.5-1.3,0.5-1.9,0.5c-1,0-2.5,0-4.3-0.2c1-1.2,2-2.5,3.1-3.8c0.5-0.6,0.9-1.1,1.4-1.6l2.8-1C646.6,671.9,647,672,647.4,672z"
		/>
	
		<linearGradient id="SVGID_109_" gradientUnits="userSpaceOnUse" x1="639.9612" y1="150.3495" x2="645.3422" y2="116.4147" gradientTransform="matrix(1 0 0 -1 0 802)">
		<stop  offset="0" style="stop-color:#311944"/>
		<stop  offset="1" style="stop-color:#893976"/>
	</linearGradient>
	<path class="st126" d="M645.1,658.2c0,0-1.6,8.4,0.4,10.8c1.7,2.4-0.8,0.7-0.8,0.7l-3.1,2.7l-1.9,3.2c0,0,1.7-8.3,1.2-11.5
		c-0.5-3.3-0.7-5.5-0.7-5.5L645.1,658.2z"/>
	<path class="st123" d="M644.6,667.8c0.8,0,1.3,0.6,1.8,2.1c0.4,1.5,2.5,2.8,0.1,2.5c-2.4-0.3-4.1,3-4.9,4.3
		c-0.8,1.2-3.1,2.3-3.1,1.1c0.1-1.2,1.1-1.8,1.3-3C640.1,673.5,642.9,667.8,644.6,667.8z"/>
	
		<linearGradient id="SVGID_110_" gradientUnits="userSpaceOnUse" x1="614.6396" y1="189.1722" x2="648.0165" y2="189.1722" gradientTransform="matrix(1 0 0 -1 0 802)">
		<stop  offset="0" style="stop-color:#444B8C"/>
		<stop  offset="0.9964" style="stop-color:#26264F"/>
	</linearGradient>
	<path class="st127" d="M614.6,582.5c5.3,11.9,10.6,25.7,15.2,41.3c4.2,14.3,7.2,27.7,9.2,39.7c0.9,0.3,2.2,0.6,3.8,0.5
		c1.3,0,2.5-0.3,3.3-0.5c1.4-6.5,2.8-16.2,1.1-27.7c-1.4-9.7-3.4-9.5-5.4-19.6c-3.4-17,1.1-23.4-3.3-41.8c-2.7-11.4-5.2-12.3-6-12.5
		C626.4,560.3,617.7,576.5,614.6,582.5z"/>
	
		<linearGradient id="SVGID_111_" gradientUnits="userSpaceOnUse" x1="588.5174" y1="302.4164" x2="627.8181" y2="205.1008" gradientTransform="matrix(1 0 0 -1 0 802)">
		<stop  offset="0" style="stop-color:#AA80F9"/>
		<stop  offset="0.9964" style="stop-color:#6165D7"/>
	</linearGradient>
	<path class="st128" d="M564.6,485.1c-0.6,1-1.3,1.9-1.9,2.9c6.3,3.1,15.1,8.6,22.8,17.8c9.3,11.1,11.7,21.5,17.8,21.7
		c2.8,0.1,7-2.1,12.3-13.1c-3.5-4.9-9.3-11.6-18.2-17.5C584.3,488,571.4,485.7,564.6,485.1z"/>
	
		<linearGradient id="SVGID_112_" gradientUnits="userSpaceOnUse" x1="602.1267" y1="305.1166" x2="609.7333" y2="200.4433" gradientTransform="matrix(1 0 0 -1 0 802)">
		<stop  offset="0" style="stop-color:#AA80F9"/>
		<stop  offset="0.9964" style="stop-color:#6165D7"/>
	</linearGradient>
	<path class="st129" d="M607.6,515.6c-8.8,7.7-13.2,11.6-14.7,12c-5.3,1.4-8.8-3.9-19-9.8c-5.2-3-12.6-6.5-22.8-8.7
		c-0.7,1.1-1.4,2.2-2.2,3.3c2.7,3.6,7,8.9,13,14.7c11.3,10.7,15.5,10.4,25,19c4,3.7,15.5,14.3,21.7,31c4.9,13.1,4.2,23.4,8.1,23.9
		c2.4,0.3,3.2-3.4,10.3-10.9c5.1-5.4,9.7-10.2,16.8-13.6c3.7-1.8,6.5-2.3,10.9-5.4c3.6-2.5,6.6-4.7,6.5-7.1
		c-0.2-4.2-10.1-3.4-19-10.3c-5.5-4.3-4.1-6.4-17.4-27.7c-5-8-8.8-13.5-13-13C610.5,513.1,609.6,513.8,607.6,515.6z"/>
	
		<linearGradient id="SVGID_113_" gradientUnits="userSpaceOnUse" x1="598.7999" y1="282.1238" x2="600.4433" y2="269.3052" gradientTransform="matrix(1 0 0 -1 0 802)">
		<stop  offset="0" style="stop-color:#311944"/>
		<stop  offset="1" style="stop-color:#893976"/>
	</linearGradient>
	<path class="st130" d="M594.8,520.2l2.2,5.4c0,0,4.9-2.7,6-4.9l-4.9-3.8L594.8,520.2z"/>
	
		<linearGradient id="SVGID_114_" gradientUnits="userSpaceOnUse" x1="596.5517" y1="284.2731" x2="597.9135" y2="300.6179" gradientTransform="matrix(1 0 0 -1 0 802)">
		<stop  offset="3.597000e-03" style="stop-color:#26264F"/>
		<stop  offset="1" style="stop-color:#444B8C"/>
	</linearGradient>
	<path class="st131" d="M592.6,513.5c-1.9-2.5-1.1-7.5,0.6-8.2c0.5-0.2,0.8,0.1,5.7,4.1c2.4,2,3.6,3,3.7,4.4c0,0.8-0.3,1.8-0.9,2.5
		c-0.3,0.4-0.7,0.8-1.7,1.5c-0.9,0.7-0.8,0.7-1.1,0.8c-0.6,0.5-1.8,1.2-3.7,1.9c0-0.5,0.1-1.1,0-1.7c0-0.3-0.1-1.3-0.4-2.2
		C594.2,515.1,593.2,514.4,592.6,513.5z"/>
	
		<linearGradient id="SVGID_115_" gradientUnits="userSpaceOnUse" x1="605.0227" y1="294.8919" x2="592.4201" y2="281.6104" gradientTransform="matrix(1 0 0 -1 0 802)">
		<stop  offset="0" style="stop-color:#311944"/>
		<stop  offset="1" style="stop-color:#893976"/>
	</linearGradient>
	<path class="st132" d="M597.5,520.1c0,0-2.4,1.9-5.3,0.6c-2.6-1.1-0.8-7.2,1.3-7.9c0.7-0.2,1.9,0,2.7,0.6c0.5,0.4,0.6,0.6,1.4,1.2
		c0.8,0.5,1,0.5,1.2,0.8c0.2,0.4,0.2,1.1-0.9,2.6c0.7-0.3,1.4-0.3,1.7,0.1c0.1,0.1,0.2,0.2,0.2,0.5
		C600.1,519.4,599.1,520.1,597.5,520.1z"/>
	
		<linearGradient id="SVGID_116_" gradientUnits="userSpaceOnUse" x1="553.2139" y1="242.6342" x2="660.2228" y2="242.6342" gradientTransform="matrix(1 0 0 -1 0 802)">
		<stop  offset="0" style="stop-color:#AA80F9"/>
		<stop  offset="0.9964" style="stop-color:#6165D7"/>
	</linearGradient>
	<path class="st133" d="M644.5,567.8c-12.5,4.4-17,15.9-22.3,14.1c-6.5-2.1-0.7-19.3-11.4-28.3c-6.2-5.1-11.2-2.1-17.9-8.7
		c-5.6-5.6-3.8-9.4-9.2-14.1c-5.9-5.1-11.5-3.5-19-6c-3.4-1.1-7.4-3.2-11.4-7.1c2.3,2.8,5.2,5.9,8.7,9.2c11.3,10.7,15.5,10.4,25,19
		c4,3.7,15.5,14.3,21.7,31c4.9,13.1,4.2,23.4,8.2,23.9c2.4,0.3,3.2-3.4,10.3-10.9c5.1-5.4,9.7-10.2,16.8-13.6
		c3.7-1.8,6.5-2.3,10.9-5.4c2.2-1.6,4.2-3,5.4-4.4C655.3,565.9,649.9,565.9,644.5,567.8z"/>
	
		<linearGradient id="SVGID_117_" gradientUnits="userSpaceOnUse" x1="840.9263" y1="292.504" x2="850.4254" y2="292.504" gradientTransform="matrix(1 0 0 -1 0 802)">
		<stop  offset="0" style="stop-color:#FFC444"/>
		<stop  offset="0.9964" style="stop-color:#F36F56"/>
	</linearGradient>
	<path class="st134" d="M849.3,514c0,0-2.2-1.1-2.8-2.2c-0.6-1.1-2.8-2.2-3.9-3.3c-0.7-0.7-1.3-1.9-1.7-2.8
		c-0.2-0.4,0.2-0.7,0.6-0.6c0.9,0.4,2.1,0.9,3.4,1.2c2.2,0.6,3.3,4.4,3.3,4.4l2.2,2.8L849.3,514z"/>
	
		<linearGradient id="SVGID_118_" gradientUnits="userSpaceOnUse" x1="870.9413" y1="310.3747" x2="873.8807" y2="256.3669" gradientTransform="matrix(1 0 0 -1 0 802)">
		<stop  offset="0" style="stop-color:#FFC444"/>
		<stop  offset="0.9964" style="stop-color:#F36F56"/>
	</linearGradient>
	<path class="st135" d="M849.9,511.8c-0.7,0.6-1.5,1.1-2.2,1.7c1.4,3.8,3.6,9.2,6.6,15.4c9,18.7,18.9,39.1,31.4,39.1
		c6.2,0,12.6-5,13.2-9.9c0.7-5.6-6.2-10.4-12.1-14.9C877.6,536.3,865,526.1,849.9,511.8z"/>
	
		<linearGradient id="SVGID_119_" gradientUnits="userSpaceOnUse" x1="538.8488" y1="401.8271" x2="846.6652" y2="401.8271" gradientTransform="matrix(1 0 0 -1 0 802)">
		<stop  offset="0" style="stop-color:#444B8C"/>
		<stop  offset="0.9964" style="stop-color:#26264F"/>
	</linearGradient>
	<path class="st136" d="M833.6,603.9c-0.2,0-0.4-0.1-0.6-0.2c-12-11.7-17.2-22.2-15.4-31.2c1.3-6.8,6.2-10.7,11.3-14.9
		c4.9-4,10-8.1,13.2-15.2c4.3-9.5,3.9-21.2-1.3-34.8L693.7,315.5L550,204.9c-1.4-1.1-3-1.9-4.9-2.5c-2.8-0.8-4.8-2.4-6.2-4.7
		c-0.2-0.4-0.1-0.9,0.3-1.1c0.4-0.2,0.9-0.1,1.1,0.3c1.1,1.9,2.8,3.2,5.2,4c2,0.6,3.9,1.6,5.4,2.7l143.8,110.7l147.4,192.5l0,0.1
		c5.4,14.1,5.9,26.3,1.3,36.2c-3.4,7.4-8.8,11.9-13.6,15.8c-5.1,4.2-9.5,7.7-10.7,13.9c-1.7,8.4,3.4,18.3,15,29.7
		c0.3,0.3,0.3,0.8,0,1.2C834,603.8,833.8,603.9,833.6,603.9z"/>
	
		<linearGradient id="SVGID_120_" gradientUnits="userSpaceOnUse" x1="827.5731" y1="118.4338" x2="830.5125" y2="138.8251" gradientTransform="matrix(1 0 0 -1 0 802)">
		<stop  offset="0" style="stop-color:#444B8C"/>
		<stop  offset="0.9964" style="stop-color:#26264F"/>
	</linearGradient>
	<path class="st137" d="M833.2,665.1c0,0-7.6,1.8-9.2,2.6c-1.6,0.7,4.4,1.1,7.2,1.5c2.8,0.4,3.2,0,3.2,0s0.4-0.7,1.6-2.2
		C836.8,665.9,833.2,665.1,833.2,665.1z"/>
	
		<linearGradient id="SVGID_121_" gradientUnits="userSpaceOnUse" x1="834.6281" y1="129.6799" x2="845.9254" y2="180.6572" gradientTransform="matrix(1 0 0 -1 0 802)">
		<stop  offset="0" style="stop-color:#FFC444"/>
		<stop  offset="0.9964" style="stop-color:#F36F56"/>
	</linearGradient>
	<path class="st138" d="M837.2,661.9l-4.2,3.8c0,0,0.4,1.3,2.1,1.3l4.7-3.4L837.2,661.9z"/>
	
		<linearGradient id="SVGID_122_" gradientUnits="userSpaceOnUse" x1="889.9703" y1="176.7824" x2="833.2119" y2="161.9007" gradientTransform="matrix(1 0 0 -1 0 802)">
		<stop  offset="0" style="stop-color:#444B8C"/>
		<stop  offset="0.9964" style="stop-color:#26264F"/>
	</linearGradient>
	<path class="st139" d="M894,600.5c-0.5,3-1.5,7.9-4.4,13.2c-7.5,13.8-17.6,12.2-27.6,27c-4.1,6.2-4.9,10.2-11,16
		c-4.1,3.9-8.1,6.3-11,7.7c-1.7-0.9-3.3-1.8-5-2.8c2.5-3.9,6.4-10.2,11-18.2c14.5-24.8,17.4-33.6,27.6-39.1
		C877.5,602.2,884,599.8,894,600.5z"/>
	<g class="st55">
		
			<linearGradient id="SVGID_123_" gradientUnits="userSpaceOnUse" x1="889.4921" y1="178.6108" x2="832.7337" y2="163.7301" gradientTransform="matrix(1 0 0 -1 0 802)">
			<stop  offset="0" style="stop-color:#444B8C"/>
			<stop  offset="0.9964" style="stop-color:#26264F"/>
		</linearGradient>
		<path class="st140" d="M856.5,635.2c5.9-7.1,10.6-5.7,18.2-11.6c5.1-3.9,10.9-10.7,14.7-23.2c-7.4,0.2-12.5,2.2-15.8,4
			c-10.2,5.5-13.1,14.3-27.6,39.1c-4.6,7.9-8.6,14.3-11,18.2c0.1,0,0.1,0.1,0.2,0.1c2.9-0.9,6.3-2.4,9.2-5.1
			C851.6,650.3,849.7,643.3,856.5,635.2z"/>
	</g>
	
		<linearGradient id="SVGID_124_" gradientUnits="userSpaceOnUse" x1="838.3018" y1="290.2655" x2="843.2602" y2="290.2655" gradientTransform="matrix(1 0 0 -1 0 802)">
		<stop  offset="0" style="stop-color:#FFC444"/>
		<stop  offset="0.9964" style="stop-color:#F36F56"/>
	</linearGradient>
	<path class="st141" d="M843.3,516.7c0,0-1.1-1.1-1.1-3.9c0-2.8-2.8-6.6-3.3-7.2c-0.6-0.6-0.6,3.9-0.6,5.5c0,1.7,3.9,6.6,3.9,6.6
		L843.3,516.7z"/>
	
		<linearGradient id="SVGID_125_" gradientUnits="userSpaceOnUse" x1="794.2459" y1="123.2376" x2="797.1852" y2="143.628" gradientTransform="matrix(1 0 0 -1 0 802)">
		<stop  offset="0" style="stop-color:#444B8C"/>
		<stop  offset="0.9964" style="stop-color:#26264F"/>
	</linearGradient>
	<path class="st142" d="M799.1,665.4c0,0-7.6,1.8-9.2,2.6c-1.6,0.7,4.4,1.1,7.2,1.5c2.8,0.4,3.2,0,3.2,0s0.4-0.7,1.6-2.2
		C802.8,666.2,799.1,665.4,799.1,665.4z"/>
	
		<linearGradient id="SVGID_126_" gradientUnits="userSpaceOnUse" x1="802.2162" y1="136.8629" x2="813.5134" y2="187.8394" gradientTransform="matrix(1 0 0 -1 0 802)">
		<stop  offset="0" style="stop-color:#FFC444"/>
		<stop  offset="0.9964" style="stop-color:#F36F56"/>
	</linearGradient>
	<path class="st143" d="M803.1,662.2l-4.2,3.8c0,0,0.4,1.3,2.1,1.3l4.7-3.4L803.1,662.2z"/>
	
		<linearGradient id="SVGID_127_" gradientUnits="userSpaceOnUse" x1="860.08" y1="168.6199" x2="801.6688" y2="176.7036" gradientTransform="matrix(1 0 0 -1 0 802)">
		<stop  offset="0" style="stop-color:#444B8C"/>
		<stop  offset="0.9964" style="stop-color:#26264F"/>
	</linearGradient>
	<path class="st144" d="M858.8,594.1c-15.2,16.4-30.5,34.3-45.5,53.9c-4.1,5.4-8.1,10.7-12,16c1.3,0.3,2.6,0.6,3.9,0.9
		c5.5-1.9,13.2-5.3,20.4-12c7.9-7.3,7.1-11.1,15.2-18.3c9.4-8.6,14.6-7,23.6-14.9c4.4-3.8,9.8-10,14-19.9
		C871.8,597.9,865.3,596,858.8,594.1z"/>
	
		<linearGradient id="SVGID_128_" gradientUnits="userSpaceOnUse" x1="888.6258" y1="266.37" x2="892.2132" y2="246.2576" gradientTransform="matrix(1 0 0 -1 0 802)">
		<stop  offset="0" style="stop-color:#FFC444"/>
		<stop  offset="0.9964" style="stop-color:#F36F56"/>
	</linearGradient>
	<path class="st145" d="M893.2,529.8c0,0-4.4,3.5-5.9,6.5c-1.5,3.1,2.1,4.4,2.1,4.4l-1,1.9c-0.9,1.6-2.6,2.6-4.5,2.5l-1.6-0.1
		c1.1,0.7,2.8,1.7,5,2.8c4,2,8.7,3.9,9.1,3.2c0.3-0.5-1.9-1.7-2.7-4.5c-0.3-1.2-0.2-2.4-0.1-3.2l0.3-0.9
		C894,542.6,899.9,533.4,893.2,529.8z"/>
	
		<linearGradient id="SVGID_129_" gradientUnits="userSpaceOnUse" x1="890.6389" y1="233.8952" x2="989.91" y2="233.8952" gradientTransform="matrix(1 0 0 -1 0 802)">
		<stop  offset="0" style="stop-color:#311944"/>
		<stop  offset="1" style="stop-color:#893976"/>
	</linearGradient>
	<path class="st146" d="M891.8,533.8c-1.2-1.4-1.5-3.8-0.5-5c0.5-0.6,1.5-1,3.9-0.6c5.9,1.1,9.6,5.5,12.7,7.7
		c5.4,3.9,10.9,2.4,19.8,2.2c2.8-0.1,24.1,0,42.4,9.4c6.4,3.2,16.8,8.5,19.3,19.3c1.6,6.9,0.1,16.8-6.1,20.9
		c-8.3,5.6-19.3-3.2-25.4,2.8c-4,3.9-0.5,8.9-4.4,13.2c-5.3,6-20.1,5.8-29.2-1.1c-10.4-7.9-3.6-17.1-16.5-35.3
		c-4.5-6.4-7.8-13.7-12.7-19.8c-0.2-0.2-5.8-7.3-3.9-9.9c0.7-0.9,2.3-1.3,2.2-2.2C893.4,534.8,892.5,534.7,891.8,533.8z"/>
	
		<linearGradient id="SVGID_130_" gradientUnits="userSpaceOnUse" x1="885.9792" y1="255.3736" x2="873.8555" y2="184.0988" gradientTransform="matrix(1 0 0 -1 0 802)">
		<stop  offset="0" style="stop-color:#FFC444"/>
		<stop  offset="0.9964" style="stop-color:#F36F56"/>
	</linearGradient>
	<path class="st147" d="M843.8,515.1c-0.9,0.6-1.8,1.1-2.8,1.7c1,11.7,4.8,19.1,8.3,23.7c6.9,9.3,14.5,10.6,15.4,18.2
		c0.5,4.6-2.1,5.1-6.1,17.6c-2.3,7.4-3.6,11.2-3.3,16.5c0.1,2.8,0.6,11.7,6.6,17.1c2.4,2.2,5,3,21.5,4.4c19,1.6,21.8,1,27,3.9
		c6.5,3.6,9.8,8.8,11.6,7.7c2-1.2-0.7-8.8-1.1-9.9c-3.8-10.9-9.7-13.2-15.4-24.2c-1.2-2.3-3.5-6.9-5-13.2
		c-2.8-12.8,1.3-18.2-2.2-24.8c-3.4-6.3-10.4-7.8-17.1-9.9C871.6,540.6,858.3,533.4,843.8,515.1z"/>
	
		<linearGradient id="SVGID_131_" gradientUnits="userSpaceOnUse" x1="843.8705" y1="223.9339" x2="922.4063" y2="223.9339" gradientTransform="matrix(1 0 0 -1 0 802)">
		<stop  offset="0" style="stop-color:#FF9085"/>
		<stop  offset="1" style="stop-color:#FB6FBB"/>
	</linearGradient>
	<path class="st148" d="M916.6,614.8c-4.4-3.4-7.9-1.6-12.7-5.5c-6.1-4.9-3.5-10.3-8.3-15.4c-7.9-8.5-22.1-1-25.9-7.2
		c-4-6.6,10.8-16.8,7.2-29.8c-1.7-6.2-6.8-10.3-9.9-12.7c-8.1-6.4-14-4.9-20.4-11c-1-1-1.9-2-2.7-3.1c1.6,4.4,3.6,7.7,5.4,10.3
		c6.9,9.3,14.5,10.6,15.4,18.2c0.5,4.6-2.1,5.1-6.1,17.6c-2.3,7.4-3.6,11.2-3.3,16.5c0.1,2.8,0.6,11.7,6.6,17.1
		c2.4,2.2,5,3,21.5,4.4c19,1.6,21.8,1,27,3.9c6.5,3.6,9.8,8.8,11.6,7.7c0.1-0.1,0.2-0.2,0.3-0.3
		C921.2,619.6,918.8,616.5,916.6,614.8z"/>
	
		<linearGradient id="SVGID_132_" gradientUnits="userSpaceOnUse" x1="634.4662" y1="577.8474" x2="694.7793" y2="577.8474" gradientTransform="matrix(1 0 0 -1 0 802)">
		<stop  offset="0" style="stop-color:#444B8C"/>
		<stop  offset="0.9964" style="stop-color:#26264F"/>
	</linearGradient>
	<path class="st149" d="M694,316c-0.4,0-0.7-0.2-0.8-0.6l-54.8-179.6c-0.2-0.6-0.6-1-1.2-1.1l-0.2,0l-2-0.8
		c-0.4-0.2-0.6-0.6-0.5-1.1c0.2-0.4,0.6-0.6,1.1-0.5l2,0.8c1.2,0.2,2.1,1.1,2.4,2.2l54.8,179.6c0.1,0.4-0.1,0.9-0.5,1
		C694.1,316,694,316,694,316z"/>
</g>
</svg>
