<svg xmlns="http://www.w3.org/2000/svg" xmlns:xlink="http://www.w3.org/1999/xlink" id="Layer_1" data-name="Layer 1" width="600" height="600" viewBox="0 0 600 600"><defs><linearGradient id="linear-gradient" x1="133.682" y1="419.997" x2="664" y2="44.358" gradientTransform="matrix(1, 0, 0, -1, 0, 602)" gradientUnits="userSpaceOnUse"><stop offset="0.339" stop-color="#019aa6"></stop><stop offset="0.641" stop-color="#01727a"></stop></linearGradient><linearGradient id="linear-gradient-2" x1="277.887" y1="532.732" x2="322.08" y2="52.374" gradientTransform="matrix(1, 0, 0, -1, 0, 602)" gradientUnits="userSpaceOnUse"><stop offset="0" stop-color="#94edf3"></stop><stop offset="1" stop-color="#82ebf1"></stop></linearGradient><linearGradient id="linear-gradient-3" x1="207.324" y1="370.583" x2="445.582" y2="194.769" gradientTransform="matrix(1, 0, 0, -1, 0, 602)" gradientUnits="userSpaceOnUse"><stop offset="0" stop-color="#32dfea"></stop><stop offset="1" stop-color="#0dbdca"></stop></linearGradient><linearGradient id="linear-gradient-4" x1="296.052" y1="534.403" x2="340.249" y2="54.011" xlink:href="#linear-gradient-2"></linearGradient><linearGradient id="linear-gradient-5" x1="262.005" y1="531.296" x2="306.201" y2="50.905" xlink:href="#linear-gradient-2"></linearGradient><linearGradient id="linear-gradient-6" x1="280.808" y1="378.18" x2="571.926" y2="270.571" gradientTransform="matrix(1, 0, 0, -1, 0, 602)" gradientUnits="userSpaceOnUse"><stop offset="0" stop-color="#94edf3"></stop><stop offset="1" stop-color="#32dfea"></stop></linearGradient><linearGradient id="linear-gradient-7" x1="258.379" y1="317.48" x2="549.476" y2="209.88" xlink:href="#linear-gradient-6"></linearGradient><linearGradient id="linear-gradient-8" x1="268.532" y1="344.948" x2="559.629" y2="237.348" xlink:href="#linear-gradient-6"></linearGradient></defs><path d="M300.264,589.453C140.418,589.453,10.809,459.907,10.809,300S140.418,10.544,300.264,10.544,589.718,140.153,589.718,300,460.11,589.453,300.264,589.453Z" style="fill:#5ccbd3"></path><path d="M566.715,300c0,147.17-119.281,266.451-266.451,266.451S33.812,447.169,33.812,300,153.094,33.547,300.264,33.547,566.715,152.829,566.715,300ZM300.264,10.421c159.908,0,289.578,129.67,289.578,289.578S460.172,589.577,300.264,589.577,10.686,459.907,10.686,300,140.294,10.421,300.264,10.421Z" style="fill:#1d8e96;fill-rule:evenodd"></path><path d="M300.264,499.852c110.377,0,199.854-89.477,199.854-199.854S410.641,100.143,300.264,100.143,100.41,189.62,100.41,300,189.886,499.852,300.264,499.852Z" style="fill:url(#linear-gradient)"></path><path d="M318.32,138.607H280.353V466.214H318.32Z" style="fill:url(#linear-gradient-2)"></path><path d="M282.7,318.489V280.522H133.554v37.967Z" style="fill:#99edf3"></path><path d="M300.264,424.413A124.414,124.414,0,1,0,175.85,300,124.429,124.429,0,0,0,300.264,424.413Z" style="fill:url(#linear-gradient-3)"></path><path d="M300.264,156.415a43.038,43.038,0,1,0-43.038-43.037A43.029,43.029,0,0,0,300.264,156.415Z" style="fill:url(#linear-gradient-4)"></path><path d="M300.264,529.6a43.038,43.038,0,1,0-43.038-43.038A43.029,43.029,0,0,0,300.264,529.6Z" style="fill:url(#linear-gradient-5)"></path><path d="M486.885,343.037A43.038,43.038,0,1,0,443.847,300,43.029,43.029,0,0,0,486.885,343.037Z" style="fill:url(#linear-gradient-6)"></path><path d="M113.643,343.037A43.038,43.038,0,1,0,70.605,300,43.029,43.029,0,0,0,113.643,343.037Z" style="fill:#9df3f9"></path><path d="M300.264,357.381A57.384,57.384,0,1,0,242.88,300,57.385,57.385,0,0,0,300.264,357.381Z" style="fill:url(#linear-gradient-7)"></path><path d="M305.767,318.488V280.582H461.161v37.906Z" style="fill:url(#linear-gradient-8)"></path></svg>