<?xml version="1.0" encoding="utf-8"?>
<!-- Generator: Adobe Illustrator 24.2.0, SVG Export Plug-In . SVG Version: 6.00 Build 0)  -->
<svg version="1.1" id="Layer_1" xmlns="http://www.w3.org/2000/svg" xmlns:xlink="http://www.w3.org/1999/xlink" x="0px" y="0px"
	 viewBox="0 0 637 150.4" style="enable-background:new 0 0 637 150.4;" xml:space="preserve">
<style type="text/css">
	.st0{fill:#1F2E5E;}
	.st1{fill:#E04745;}
	.st2{fill:#00ACE8;}
	.st3{opacity:0.98;fill:#55B866;enable-background:new    ;}
	.st4{opacity:0.98;fill:#F5B75D;enable-background:new    ;}
	.st5{fill:#FFFFFF;}
	.st6{display:none;fill:#C4C4C4;}
	.st7{display:none;}
	.st8{display:none;fill:#737374;}
	.st9{display:none;fill:#EE5226;}
	.st10{display:none;fill:#80BA42;}
	.st11{display:none;fill:#339ED8;}
	.st12{display:none;fill:#FAB515;}
	.st13{display:none;fill:#846B2A;enable-background:new    ;}
	.st14{font-family:'SegoePro';}
	.st15{font-size:19.1174px;}
</style>
<g id="Layer_3">
</g>
<g>
	<g>
		<path class="st0" d="M98.4,75.9v33.3H86.8V75.9c0-10.2-8.2-18.5-18.2-18.5s-18.2,8.4-18.2,18.5v33.3H38.6v-62h11.6v6
			c5.3-4,11.6-7.1,18.2-7.1c8,0,15.6,3,21.3,8.6C95.3,60.3,98.4,67.8,98.4,75.9z"/>
		<g>
			<path class="st0" d="M120.4,78.4h-5.7l0.4-1.9h5.7l5.4-25.4c0.9-4.2,1.8-7.5,2.8-10.1c0.9-2.5,2.1-4.7,3.5-6.5
				c3.3-4.4,7.4-6.6,12.4-6.6c1.6,0,3.2,0.3,4.6,0.8l-2.1,5.2c-1.6-2.2-3.5-3.2-5.9-3.2c-1.8,0-3.3,0.7-4.4,2.1
				c-1.1,1.4-2.1,3.8-2.9,7l-8.8,36.7h9.3l-0.4,1.9H125l-7.9,32.8c-1,4.4-2,7.7-3,9.8c-1,2.2-2.3,4.1-4,6c-3.1,3.4-6.4,5-10.1,5
				c-1.7,0-3.4-0.3-4.8-0.9L98,127c1.6,1.3,3.4,1.9,5.2,1.9c2.8,0,4.9-1.5,6.4-4.5c1-2.2,2.1-6,3.3-11.1L120.4,78.4z"/>
			<path class="st0" d="M99.9,135.7c-2.2,0-4.3-0.4-6.1-1.2l-3.9-1.7l7.4-11l3,2.5c1,0.8,1.9,1.2,3,1.2c1,0,2.1-0.3,3.2-2.5
				c0.9-1.9,1.9-5.4,3-10.4l6.6-30.6h-5.7l1.9-9.2h5.8l4.9-22.5c0.9-4.4,1.9-7.9,3-10.6s2.4-5.2,3.9-7.3c4-5.4,9.2-8.1,15.2-8.1
				c2.1,0,4,0.4,5.9,1.1l3.4,1.3l-6,14.8l-3.8-5.4c-1.1-1.6-2.1-1.7-2.9-1.7c-0.7,0-1.2,0.2-1.6,0.7c-0.5,0.5-1.4,2-2.2,5.6
				l-7.8,32.2h9.2l-1.9,9.2H128l-7.2,30.1c-1.1,4.7-2.2,8.1-3.3,10.4c-1.1,2.5-2.7,4.8-4.6,7C108.8,133.6,104.5,135.7,99.9,135.7z"
				/>
		</g>
		<path class="st0" d="M150.7,82.7V47.2h11.6v35.5c0,9.1,7.6,16.5,17,16.5c9.3,0,17-7.4,17-16.5V47.2h11.6v35.5
			c0,7.6-3.1,14.6-8.5,19.9s-12.6,8-20.2,8c-7.7,0-14.8-2.7-20.3-8C153.8,97.4,150.7,90.3,150.7,82.7z"/>
		<path class="st0" d="M267.5,90.9c0,3.5-0.9,6.9-2.9,9.7c-1.9,2.8-4.6,5-8.2,6.8c-3.2,1.5-7.1,2.3-11.1,2.3c-2.2,0-4.2-0.3-6.3-0.6
			c-6.8-1.4-13.1-4.3-18.5-8.9l7.3-8c7.1,6,13.3,7.3,17,7.3c2.6,0,5-0.5,7.1-1.5c1.7-0.8,4.9-2.8,4.9-7.1s-3.7-6.8-12-8.2
			c-0.4-0.1-10.7-2-14.5-4.2c-5.7-3.2-8.6-8.2-8.6-14.5c0-3.4,1.1-6.6,2.9-9.4c1.7-2.5,4.2-4.3,7.7-6c3.2-1.5,6.8-2.3,10.7-2.3
			c1.5,0,3.1,0.1,4.6,0.3c6,0.9,11.7,3.5,16.7,7.4l-6.8,7.9c-6-4.8-11.4-5.4-13.9-5.4s-4.8,0.4-6.6,1.4c-2.7,1.4-4.5,3.8-4.5,6.2
			c0,4,3.2,6.2,11.5,8c0.1,0,11.3,2.5,14.3,4.2c3.7,1.9,5,3.4,6.5,5.3C266.6,84.2,267.5,87.5,267.5,90.9z"/>
		<g>
			<path class="st0" d="M160.6,118.8c0-0.6,0.5-1.1,1.3-1.1c0.6,0,1.2,0.5,1.2,1.1c0,0.5-0.5,1.2-1.2,1.2
				C161.1,119.9,160.6,119.4,160.6,118.8z M160.8,121.5h1.9v9.3h-1.9V121.5z"/>
			<path class="st0" d="M175.9,125.8v4.9H174v-4.9c0-1.6-1.4-2.7-3-2.7s-3,1.3-3,2.7v4.9h-2v-9.3h1.9v0.9c0.8-0.6,1.9-1.1,3-1.1
				c1.3,0,2.6,0.5,3.5,1.3C175.4,123.4,175.9,124.6,175.9,125.8z"/>
			<path class="st0" d="M178.8,127.7v-4.6h-1.5v-1.6h1.5v-3.6h1.9v3.6h3.1v1.6h-3.1v4.5c0,0.7,0.7,1.5,1.5,1.5h1.7l0.5,1.6h-2.2
				C180.3,130.7,178.8,129.4,178.8,127.7z"/>
			<path class="st0" d="M194.7,126.5H187l0,0c0.2,1.6,1.5,2.7,2.9,2.7c0.9,0,1.8-0.4,2.5-1l1.6,0.8c-0.4,0.4-0.8,0.7-1.4,1
				c-0.7,0.5-1.7,0.6-2.7,0.7c-1.4,0-2.6-0.5-3.4-1.4c-0.8-0.8-1.3-1.8-1.4-2.9c0-0.2,0-0.3,0-0.5c0-0.4,0-0.7,0.1-1.1
				c0.2-0.8,0.6-1.6,1.3-2.3c0.9-0.9,2.1-1.4,3.4-1.4c1.4,0,2.6,0.5,3.5,1.4c0.6,0.6,1.1,1.4,1.3,2.3S194.8,126.3,194.7,126.5z
				 M192.8,125L192.8,125c-0.5-1.3-1.6-2-2.8-2s-2.4,0.8-2.8,2l0,0H192.8z"/>
			<path class="st0" d="M196.7,130.7v-14.9h1.9v14.9H196.7z"/>
			<path class="st0" d="M201.6,130.7v-14.9h1.9v14.9H201.6z"/>
			<path class="st0" d="M206.6,118.8c0-0.6,0.5-1.1,1.3-1.1c0.6,0,1.2,0.5,1.2,1.1c0,0.5-0.5,1.2-1.2,1.2
				C207.1,119.9,206.6,119.4,206.6,118.8z M206.9,121.5h1.9v9.3h-1.9V121.5z"/>
			<path class="st0" d="M218.8,115.9l-0.5,1.6h-1.7c-0.8,0-1.5,0.6-1.5,1.4v2.6h3.1v1.6h-3.1v7.6h-1.9v-7.6h-1.5v-1.6h1.5v-2.6
				c0-1.7,1.5-3,3.4-3H218.8L218.8,115.9z"/>
			<path class="st0" d="M223.3,136h-2l2.4-5.3l-4.1-9.3h2l3.1,7l3.1-7h2L223.3,136z"/>
			<path class="st0" d="M239.7,136h-2.1l2.4-5.3l-4.1-9.3h2l3.1,7l3.1-7h2L239.7,136z"/>
			<path class="st0" d="M257.3,126.1c0,1.3-0.5,2.5-1.6,3.5c-1,0.9-2.3,1.5-3.8,1.5c-1.4,0-2.7-0.5-3.8-1.5c-1-0.9-1.6-2.1-1.6-3.5
				c0-1.3,0.5-2.6,1.6-3.5c1-0.9,2.4-1.4,3.8-1.4c1.5,0,2.7,0.5,3.8,1.4C256.8,123.6,257.3,124.8,257.3,126.1z M255.4,126.1
				c0-1.7-1.6-3.1-3.4-3.1c-1.9,0-3.4,1.4-3.4,3.1s1.6,3.1,3.4,3.1C253.9,129.3,255.4,127.8,255.4,126.1z"/>
			<path class="st0" d="M259.4,126.8v-5.3h1.9v5.3c0,1.4,1.2,2.5,2.7,2.5s2.7-1.1,2.7-2.5v-5.3h1.9v5.3c0,1.1-0.5,2.2-1.4,3
				s-2,1.2-3.3,1.2s-2.5-0.4-3.3-1.2C259.9,129,259.4,127.9,259.4,126.8z"/>
			<path class="st0" d="M273.4,122.4c0.6-0.6,2.6-1.2,3.7-1.2l-0.5,1.7c-1.7,0-3.2,1.2-3.2,2.8v4.9h-1.9v-9.3h1.9V122.4L273.4,122.4
				z"/>
			<path class="st0" d="M283.8,118.8c0-0.6,0.5-1.1,1.3-1.1c0.6,0,1.3,0.5,1.3,1.1c0,0.5-0.5,1.2-1.3,1.2
				C284.4,119.9,283.8,119.4,283.8,118.8z M284.2,121.5h1.9v9.3h-1.9V121.5z"/>
			<path class="st0" d="M306.7,125.8v4.9h-1.9v-4.9c0-1.6-1.4-2.7-3-2.7s-3,1.3-3,2.7v4.9h-1.9v-4.9c0-1.6-1.4-2.7-3-2.7
				s-3,1.3-3,2.7v4.9H289v-9.3h1.9v0.9c0.8-0.6,1.9-1.1,3-1.1c1.3,0,2.6,0.5,3.5,1.4c0.2,0.2,0.4,0.4,0.5,0.5
				c0.2-0.2,0.3-0.4,0.5-0.5c0.9-0.8,2.2-1.4,3.5-1.4s2.6,0.5,3.5,1.3C306.1,123.4,306.7,124.6,306.7,125.8z"/>
			<path class="st0" d="M317.1,121.5h1.9v9.3h-1.9v-1.1c-0.9,0.7-2.1,1.3-3.4,1.3c-1.5,0-2.7-0.5-3.8-1.4s-1.6-2.1-1.6-3.5
				s0.5-2.5,1.6-3.5c1-0.9,2.4-1.4,3.8-1.4c1.3,0,2.5,0.5,3.4,1.3V121.5z M317.1,126.1c0-1.7-1.6-3.1-3.4-3.1
				c-1.9,0-3.4,1.5-3.4,3.1c0,1.7,1.6,3.1,3.4,3.1C315.6,129.3,317.1,127.8,317.1,126.1z"/>
			<path class="st0" d="M331.6,121.5v9.7c0,1.3-0.5,2.6-1.6,3.5c-1,0.9-2.3,1.5-3.8,1.5c-1.1,0-2-0.3-2.8-0.7
				c-0.4-0.2-0.6-0.5-0.9-0.6l1.5-1.2c0.6,0.5,1.6,0.8,2.4,0.8c1.9,0,3.4-1.5,3.4-3.2v-1.6c-0.9,0.7-2.1,1.3-3.4,1.3
				c-1.5,0-2.7-0.5-3.8-1.4s-1.6-2.1-1.6-3.5s0.5-2.5,1.6-3.5c1-0.9,2.4-1.4,3.8-1.4c1.3,0,2.5,0.5,3.4,1.3v-1.1L331.6,121.5
				L331.6,121.5z M329.8,126.1c0-1.7-1.6-3.1-3.4-3.1c-1.9,0-3.4,1.5-3.4,3.1c0,1.7,1.6,3.1,3.4,3.1
				C328.2,129.3,329.8,127.8,329.8,126.1z"/>
			<path class="st0" d="M334.4,118.8c0-0.6,0.5-1.1,1.3-1.1c0.6,0,1.2,0.5,1.2,1.1c0,0.5-0.5,1.2-1.2,1.2
				C335,119.9,334.4,119.4,334.4,118.8z M334.8,121.5h1.9v9.3h-1.9V121.5z"/>
			<path class="st0" d="M349.8,125.8v4.9h-1.9v-4.9c0-1.6-1.3-2.7-3-2.7c-1.6,0-3,1.3-3,2.7v4.9H340v-9.3h1.9v0.9
				c0.8-0.6,1.9-1.1,3-1.1c1.3,0,2.6,0.5,3.5,1.3C349.3,123.4,349.8,124.6,349.8,125.8z"/>
			<path class="st0" d="M360.3,121.5h1.9v9.3h-1.9v-1.1c-0.9,0.7-2.1,1.3-3.4,1.3c-1.4,0-2.7-0.5-3.8-1.4s-1.6-2.1-1.6-3.5
				s0.5-2.5,1.6-3.5c1-0.9,2.4-1.4,3.8-1.4c1.3,0,2.5,0.5,3.4,1.3V121.5z M360.3,126.1c0-1.7-1.6-3.1-3.4-3.1
				c-1.9,0-3.4,1.5-3.4,3.1c0,1.7,1.6,3.1,3.4,3.1C358.7,129.3,360.3,127.8,360.3,126.1z"/>
			<path class="st0" d="M365.6,127.7v-4.6H364v-1.6h1.5v-3.6h1.9v3.6h3.1v1.6h-3.1v4.5c0,0.7,0.7,1.5,1.5,1.5h1.7l0.5,1.6h-2.2
				C367.1,130.7,365.6,129.4,365.6,127.7z"/>
			<path class="st0" d="M373,118.8c0-0.6,0.5-1.1,1.3-1.1c0.6,0,1.2,0.5,1.2,1.1c0,0.5-0.5,1.2-1.2,1.2
				C373.6,119.9,373,119.4,373,118.8z M373.3,121.5h1.9v9.3h-1.9V121.5z"/>
			<path class="st0" d="M388.3,126.1c0,1.3-0.5,2.5-1.6,3.5c-1,0.9-2.3,1.5-3.8,1.5s-2.7-0.5-3.8-1.5c-1-0.9-1.6-2.1-1.6-3.5
				c0-1.3,0.5-2.6,1.6-3.5c1-0.9,2.4-1.4,3.8-1.4c1.5,0,2.7,0.5,3.8,1.4C387.8,123.6,388.3,124.8,388.3,126.1z M386.4,126.1
				c0-1.7-1.6-3.1-3.4-3.1c-1.9,0-3.4,1.4-3.4,3.1s1.6,3.1,3.4,3.1C384.9,129.3,386.4,127.8,386.4,126.1z"/>
			<path class="st0" d="M400.1,125.8v4.9h-1.9v-4.9c0-1.6-1.4-2.7-3-2.7s-3,1.3-3,2.7v4.9h-1.9v-9.3h1.9v0.9c0.8-0.6,1.9-1.1,3-1.1
				c1.3,0,2.6,0.5,3.5,1.3C399.5,123.4,400.1,124.6,400.1,125.8z"/>
		</g>
		<polygon class="st1" points="118.1,73 127.2,81.8 110.6,81.8 112.4,73 		"/>
		<polygon class="st2" points="126.7,81.7 137,81.7 138.8,73 117.8,73 		"/>
		<path class="st3" d="M388.2,23.6c5.6,0,10.2,4.6,10.2,10.2S393.8,44,388.2,44S378,39.3,378,33.7S382.6,23.6,388.2,23.6z"/>
		<path class="st4" d="M11.9,24.2c5.6,0,10.2,4.6,10.2,10.2s-4.6,10.2-10.2,10.2S1.7,40,1.7,34.4C1.7,28.7,6.3,24.2,11.9,24.2z"/>
		<g>
			<path class="st0" d="M6.6,50.2v58.9h11.6V50.2c-1.8,0.6-3.8,1-5.8,1C10.3,51.2,8.4,50.9,6.6,50.2z"/>
		</g>
	</g>
</g>
<path class="st0" d="M334.7,110.2c0,0-8,8.2-45.1,1.9c0,0-22.2-2.7-18.1-36.8c0,0,0-24.2,30.1-27.8c0,0,3.2-34.9,39.9-35.3
	c0,0,33.1-0.9,36.7,38.8c0,0,33.3-16.3,47.8,12.7c0,0,16.4,36-26.6,48.4C399.3,112.1,349.1,118.1,334.7,110.2z"/>
<path class="st5" d="M319.3,107.3l-12.1-1.2l-0.3-0.1l17-56.9c0,0,2.5-14.9,12.8-21.2l4.9-3.3c3.5-1.6,11.6-3.2,16.1-2.8h1.6
	c0,0.1,0,4.7,0,4.7l-0.2,70.6c0,2.7-1.5,5.1-3.8,6.5c-0.5,0.3-0.9,0.5-1.4,0.5l-8.2,3.1c0,0-0.1,0-0.1-0.1l1-56.9c0,0,0,0,0-0.1
	c-0.5-0.3-7.6-3.1-11.7,7.1l0,0c0,0.1-2.8,10.4-3.1,11.3c0,0,0,0.1,0.1,0.1h9.8c0,0,0.1,0,0.1,0.1l-0.6,9.3c0,0,0,0.1-0.1,0.1h-12.3
	h-0.1L319.3,107.3C319.4,107.3,319.4,107.3,319.3,107.3z"/>
<path class="st5" d="M380.5,57.8c0,0,5.7-10.9,11.7,0.1L392,91.7c0,0.6-0.1,1.3-0.4,1.9c-0.9,2.7-4,9.6-11.5,11.5L380.5,57.8z"/>
<rect x="450.4" y="15.7" class="st6" width="2.7" height="120.4"/>
<path class="st7" d="M504,60.2h-3.1v-18c0-1.4,0.1-3.1,0.3-5.2H501c-0.3,1.2-0.6,2.1-0.8,2.6l-9.1,20.6h-1.5l-9.1-20.4
	c-0.2-0.5-0.5-1.5-0.8-2.7h-0.1c0.1,1.1,0.1,2.8,0.1,5.2v17.9h-3V33.5h4.1l8.2,18.7c0.6,1.4,1,2.5,1.2,3.2h0.1
	c0.6-1.7,1.1-2.8,1.3-3.3l8.4-18.6h3.9L504,60.2L504,60.2z"/>
<path class="st7" d="M513.2,34.3c0,0.6-0.2,1-0.6,1.4c-0.4,0.4-0.9,0.6-1.4,0.6c-0.6,0-1-0.2-1.4-0.6c-0.4-0.4-0.6-0.8-0.6-1.4
	c0-0.5,0.2-1,0.6-1.4s0.9-0.6,1.4-0.6c0.6,0,1.1,0.2,1.4,0.6C513,33.3,513.2,33.7,513.2,34.3 M512.7,60.2h-3.1V41.1h3.1V60.2z"/>
<path class="st7" d="M530.8,59.4c-1.5,0.9-3.2,1.3-5.2,1.3c-1.7,0-3.3-0.4-4.7-1.2s-2.5-1.9-3.2-3.4c-0.8-1.5-1.2-3.1-1.2-4.9
	c0-3.2,0.9-5.7,2.7-7.6c1.8-1.9,4.2-2.9,7.2-2.9c1.7,0,3.1,0.3,4.4,1v3.1c-1.4-1-2.9-1.5-4.6-1.5c-2,0-3.6,0.7-4.8,2.1
	c-1.2,1.4-1.9,3.2-1.9,5.5c0,2.2,0.6,4,1.8,5.3s2.8,1.9,4.7,1.9c1.7,0,3.2-0.5,4.7-1.6L530.8,59.4L530.8,59.4z"/>
<path class="st7" d="M544.5,44.2c-0.5-0.4-1.3-0.6-2.3-0.6c-1.4,0-2.5,0.6-3.3,1.9c-0.8,1.3-1.3,2.9-1.3,5v9.7h-3.1V41.1h3.1V45h0.1
	c0.4-1.3,1.1-2.4,2-3.1c0.9-0.8,1.9-1.1,3-1.1c0.8,0,1.4,0.1,1.8,0.3V44.2z"/>
<path class="st7" d="M563.7,50.6c0,3-0.9,5.5-2.6,7.3c-1.7,1.8-4,2.8-6.9,2.8c-2.8,0-5.1-0.9-6.8-2.7s-2.5-4.2-2.5-7.1
	c0-3.2,0.9-5.7,2.6-7.5c1.7-1.8,4.1-2.8,7.1-2.8c2.8,0,5.1,0.9,6.7,2.7S563.7,47.5,563.7,50.6 M560.6,50.7c0-2.4-0.5-4.2-1.6-5.5
	s-2.6-1.9-4.6-1.9s-3.5,0.7-4.7,2c-1.1,1.3-1.7,3.2-1.7,5.6c0,2.3,0.6,4.1,1.7,5.4c1.2,1.3,2.7,1.9,4.7,1.9s3.5-0.6,4.6-1.9
	C560.1,54.9,560.6,53.1,560.6,50.7"/>
<path class="st7" d="M577.9,55.1c0,1.7-0.6,3-1.9,4c-1.3,1-3,1.5-5.1,1.5c-1.8,0-3.4-0.4-4.7-1.2v-3.3c1.5,1.2,3.2,1.8,5,1.8
	c2.4,0,3.6-0.9,3.6-2.7c0-0.7-0.2-1.3-0.7-1.8s-1.5-1.1-3.2-1.8s-2.9-1.5-3.6-2.3c-0.7-0.8-1-1.9-1-3.3c0-1.6,0.6-2.9,1.9-4
	c1.3-1.1,2.9-1.6,4.8-1.6c1.5,0,2.9,0.3,4.1,0.9v3.1c-1.2-0.9-2.7-1.4-4.3-1.4c-1,0-1.8,0.2-2.4,0.7c-0.6,0.5-0.9,1.1-0.9,1.9
	c0,0.8,0.2,1.5,0.7,2s1.5,1,2.9,1.6c1.8,0.8,3.1,1.6,3.8,2.4C577.6,52.8,577.9,53.8,577.9,55.1"/>
<path class="st7" d="M598.8,50.6c0,3-0.9,5.5-2.6,7.3c-1.7,1.8-4,2.8-6.9,2.8c-2.8,0-5.1-0.9-6.8-2.7s-2.5-4.2-2.5-7.1
	c0-3.2,0.9-5.7,2.6-7.5c1.7-1.8,4.1-2.8,7.1-2.8c2.8,0,5.1,0.9,6.7,2.7S598.8,47.5,598.8,50.6 M595.7,50.7c0-2.4-0.5-4.2-1.6-5.5
	s-2.6-1.9-4.6-1.9s-3.5,0.7-4.7,2c-1.1,1.3-1.7,3.2-1.7,5.6c0,2.3,0.6,4.1,1.7,5.4c1.2,1.3,2.7,1.9,4.7,1.9s3.5-0.6,4.6-1.9
	C595.2,54.9,595.7,53.1,595.7,50.7"/>
<path class="st7" d="M611.4,34.6c-0.6-0.3-1.3-0.5-2-0.5c-2.1,0-3.2,1.4-3.2,4.1v2.9h4.5v2.6h-4.5v16.5h-3.1V43.7h-3.2v-2.6h3.2V38
	c0-1.9,0.6-3.5,1.7-4.7c1.1-1.2,2.6-1.8,4.4-1.8c0.9,0,1.7,0.1,2.2,0.3L611.4,34.6L611.4,34.6z"/>
<path class="st7" d="M622.5,60.1c-0.7,0.4-1.7,0.6-2.9,0.6c-3.3,0-5-1.9-5-5.6V43.7h-3.3v-2.6h3.3v-4.7l3.1-1v5.7h4.8v2.6h-4.8v10.8
	c0,1.3,0.2,2.2,0.7,2.7c0.4,0.5,1.2,0.8,2.2,0.8c0.8,0,1.4-0.2,2-0.6L622.5,60.1L622.5,60.1z"/>
<path class="st7" d="M524.5,78.3c0,2.6-0.9,4.7-2.7,6.3c-1.8,1.6-4.1,2.4-7,2.4h-3.5v10.1h-3.1V70.3h7.4c2.9,0,5.1,0.7,6.7,2.1
	C523.8,73.8,524.5,75.8,524.5,78.3 M521.3,78.5c0-3.5-2.1-5.3-6.3-5.3h-3.7v11h3.3c2.2,0,3.8-0.5,4.9-1.5
	C520.7,81.7,521.3,80.3,521.3,78.5"/>
<path class="st7" d="M540.5,97.1h-3.1v-3h-0.1c-1.3,2.3-3.3,3.5-5.9,3.5c-1.8,0-3.3-0.5-4.4-1.5c-1.1-1-1.7-2.3-1.7-4
	c0-3.6,2.1-5.6,6.3-6.2l5.7-0.8c0-3.2-1.3-4.9-3.9-4.9c-2.3,0-4.4,0.8-6.2,2.3v-3.1c0.6-0.4,1.5-0.8,2.9-1.2
	c1.4-0.4,2.6-0.6,3.6-0.6c4.5,0,6.7,2.4,6.7,7.2v12.3C540.4,97.1,540.5,97.1,540.5,97.1z M537.5,87.4l-4.6,0.7
	c-1.6,0.2-2.7,0.6-3.3,1.1s-1,1.4-1,2.6c0,1,0.3,1.7,1,2.3c0.7,0.6,1.6,0.9,2.6,0.9c1.5,0,2.8-0.5,3.8-1.6s1.5-2.4,1.5-4V87.4z"/>
<path class="st7" d="M555.3,81.1c-0.5-0.4-1.3-0.6-2.3-0.6c-1.4,0-2.5,0.6-3.3,1.9s-1.3,2.9-1.3,5v9.7h-3.1V78h3.1v3.9h0.1
	c0.4-1.3,1.1-2.4,2-3.1c0.9-0.8,1.9-1.1,3-1.1c0.8,0,1.4,0.1,1.8,0.3V81.1z"/>
<path class="st7" d="M569.6,96.9c-0.7,0.4-1.7,0.6-2.9,0.6c-3.3,0-5-1.9-5-5.6V80.6h-3.3V78h3.3v-4.7l3.1-1V78h4.8v2.6h-4.8v10.8
	c0,1.3,0.2,2.2,0.7,2.7c0.4,0.5,1.2,0.8,2.2,0.8c0.8,0,1.4-0.2,2-0.6L569.6,96.9L569.6,96.9z"/>
<path class="st7" d="M589.7,97.1h-3.1V86.2c0-4-1.5-6.1-4.4-6.1c-1.5,0-2.8,0.6-3.8,1.7s-1.5,2.6-1.5,4.4v10.9h-3.1V78h3.1v3.2h0.1
	c1.4-2.4,3.5-3.6,6.3-3.6c2.1,0,3.7,0.7,4.8,2.1s1.7,3.3,1.7,5.8L589.7,97.1L589.7,97.1z"/>
<path class="st7" d="M609.8,88.3h-13.5c0,2.2,0.6,3.8,1.7,4.9c1.1,1.1,2.6,1.7,4.5,1.7c2.2,0,4.1-0.7,5.9-2.1v2.9
	c-1.7,1.2-3.9,1.8-6.6,1.8c-2.7,0-4.9-0.9-6.4-2.6c-1.5-1.8-2.3-4.2-2.3-7.3c0-1.9,0.4-3.6,1.1-5.2c0.8-1.6,1.8-2.8,3.2-3.6
	c1.3-0.9,2.8-1.3,4.5-1.3c2.5,0,4.4,0.8,5.8,2.4c1.4,1.6,2.1,3.9,2.1,6.8V88.3z M606.6,85.7c0-1.8-0.5-3.1-1.3-4.1s-2-1.5-3.5-1.5
	c-1.4,0-2.6,0.5-3.6,1.5s-1.6,2.4-1.9,4.1H606.6z"/>
<path class="st7" d="M623.2,81.1c-0.5-0.4-1.3-0.6-2.3-0.6c-1.4,0-2.5,0.6-3.3,1.9s-1.3,2.9-1.3,5v9.7h-3.1V78h3.1v3.9h0.1
	c0.4-1.3,1.1-2.4,2-3.1c0.9-0.8,1.9-1.1,3-1.1c0.8,0,1.4,0.1,1.8,0.3V81.1z"/>
<path class="st8" d="M559.9,130.1l-0.6,1.6l0,0c-0.1-0.4-0.3-0.9-0.6-1.6l-3.2-7.9h-3.1v12.6h2v-7.7c0-0.5,0-1.1,0-1.7
	c0-0.3,0-0.6-0.1-0.8l0,0c0.1,0.5,0.2,0.8,0.3,1.1l3.8,9.2h1.4l3.8-9.3c0.1-0.2,0.2-0.6,0.3-1l0,0c0,0.9-0.1,1.8-0.1,2.3v8h2.2
	v-12.6h-3L559.9,130.1z"/>
<polygon class="st8" points="568.1,134.8 570.2,134.8 570.2,128 570.2,125.8 568.1,125.8 568.1,131.3 "/>
<path class="st8" d="M569.2,121.9c-0.3,0-0.7,0.1-0.9,0.4c-0.2,0.2-0.4,0.5-0.4,0.9c0,0.3,0.1,0.6,0.4,0.9c0.2,0.2,0.6,0.3,0.9,0.3
	c0.4,0,0.7-0.1,0.9-0.3c0.3-0.2,0.4-0.5,0.4-0.9c0-0.3-0.1-0.6-0.4-0.9C569.9,122.1,569.6,121.9,569.2,121.9"/>
<path class="st8" d="M577.7,125.7c-0.4-0.1-0.8-0.1-1.2-0.1c-1,0-1.8,0.2-2.6,0.6c-0.7,0.4-1.3,1-1.7,1.7s-0.6,1.6-0.6,2.6
	c0,0.9,0.2,1.6,0.6,2.3c0.4,0.7,0.9,1.2,1.6,1.6c0.7,0.4,1.5,0.6,2.3,0.6c1,0,1.9-0.2,2.6-0.6l0,0v-1.9l-0.1,0.1
	c-0.3,0.2-0.7,0.4-1,0.5c-0.4,0.1-0.7,0.2-1,0.2c-0.8,0-1.5-0.3-2-0.8s-0.7-1.2-0.7-2.1c0-0.9,0.3-1.7,0.8-2.2s1.2-0.8,2-0.8
	c0.7,0,1.4,0.2,2,0.7l0.1,0.1v-2l0,0C578.5,125.9,578.1,125.8,577.7,125.7"/>
<path class="st8" d="M584.7,125.6c-0.5,0-1,0.2-1.4,0.5s-0.6,0.7-0.8,1.2l0,0v-1.6h-2.1v9h2.1v-4.6c0-0.8,0.2-1.4,0.5-1.9
	s0.8-0.7,1.4-0.7c0.2,0,0.4,0,0.6,0.1c0.2,0.1,0.4,0.1,0.5,0.2l0.1,0.1v-2.1l0,0C585.4,125.7,585.1,125.6,584.7,125.6"/>
<path class="st8" d="M590.5,125.6c-1.5,0-2.7,0.4-3.5,1.3s-1.3,2-1.3,3.5c0,1.4,0.4,2.5,1.2,3.4c0.8,0.8,1.9,1.2,3.3,1.2
	c1.4,0,2.6-0.4,3.4-1.3c0.8-0.9,1.3-2,1.3-3.5c0-1.4-0.4-2.6-1.2-3.4C593,126,591.9,125.6,590.5,125.6 M592.2,132.5
	c-0.4,0.5-1,0.8-1.8,0.8s-1.4-0.3-1.8-0.8c-0.4-0.5-0.7-1.2-0.7-2.2s0.2-1.7,0.7-2.2c0.4-0.5,1-0.8,1.8-0.8c0.7,0,1.3,0.2,1.8,0.7
	c0.4,0.5,0.6,1.2,0.6,2.2S592.6,132,592.2,132.5"/>
<path class="st8" d="M599.7,129.5c-0.7-0.3-1.1-0.5-1.3-0.7s-0.3-0.4-0.3-0.7s0.1-0.5,0.3-0.6c0.2-0.2,0.5-0.3,0.9-0.3
	s0.7,0.1,1.1,0.2c0.4,0.1,0.7,0.3,0.9,0.4l0.1,0.1v-2l0,0c-0.2-0.1-0.6-0.2-1-0.3c-0.4-0.1-0.7-0.1-1.1-0.1c-1,0-1.8,0.3-2.5,0.8
	c-0.6,0.5-1,1.2-1,2c0,0.4,0.1,0.8,0.2,1.1c0.1,0.3,0.4,0.6,0.6,0.8c0.3,0.2,0.7,0.5,1.3,0.7c0.5,0.2,0.9,0.4,1.1,0.5
	c0.2,0.1,0.4,0.3,0.5,0.4c0.1,0.1,0.1,0.3,0.1,0.5c0,0.6-0.5,0.9-1.4,0.9c-0.3,0-0.7-0.1-1.2-0.2c-0.4-0.1-0.8-0.3-1.2-0.6l-0.1-0.1
	v2.1l0,0c0.3,0.1,0.7,0.3,1.1,0.4c0.5,0.1,0.9,0.1,1.2,0.1c1.1,0,2-0.3,2.6-0.8s1-1.2,1-2c0-0.6-0.2-1.1-0.5-1.5
	C601.1,130.2,600.5,129.8,599.7,129.5"/>
<path class="st8" d="M607.7,125.6c-1.5,0-2.7,0.4-3.5,1.3s-1.3,2-1.3,3.5c0,1.4,0.4,2.5,1.2,3.4c0.8,0.8,1.9,1.2,3.3,1.2
	c1.4,0,2.6-0.4,3.4-1.3c0.8-0.9,1.3-2,1.3-3.5c0-1.4-0.4-2.6-1.2-3.4C610.2,126,609.1,125.6,607.7,125.6 M609.4,132.5
	c-0.4,0.5-1,0.8-1.8,0.8s-1.4-0.3-1.8-0.8c-0.4-0.5-0.7-1.2-0.7-2.2s0.2-1.7,0.7-2.2c0.4-0.5,1-0.8,1.8-0.8c0.7,0,1.3,0.2,1.8,0.7
	c0.4,0.5,0.6,1.2,0.6,2.2S609.8,132,609.4,132.5"/>
<path class="st8" d="M623.5,127.5v-1.7h-2.1v-2.7h-0.1l-2,0.6l0,0v2H616v-1.1c0-0.5,0.1-0.9,0.4-1.2c0.2-0.3,0.6-0.4,1-0.4
	c0.3,0,0.6,0.1,0.9,0.2h0.1v-1.8l0,0c-0.3-0.1-0.7-0.2-1.2-0.2c-0.6,0-1.2,0.1-1.7,0.4s-0.9,0.7-1.2,1.1c-0.3,0.5-0.4,1.1-0.4,1.7
	v1.2h-1.5v1.7h1.5v7.3h2.1v-7.3h3.2v4.6c0,1.9,0.9,2.9,2.7,2.9c0.3,0,0.6,0,0.9-0.1c0.3-0.1,0.5-0.1,0.7-0.2l0,0v-1.7l-0.1,0.1
	c-0.1,0.1-0.3,0.1-0.4,0.2c-0.2,0-0.3,0.1-0.4,0.1c-0.4,0-0.7-0.1-0.9-0.3s-0.3-0.6-0.3-1.2v-4.3h2.1L623.5,127.5L623.5,127.5z"/>
<rect x="525.2" y="118" class="st9" width="10" height="10"/>
<rect x="536.2" y="118" class="st10" width="10" height="10"/>
<rect x="525.2" y="129" class="st11" width="10" height="10"/>
<rect x="536.2" y="129" class="st12" width="10" height="10"/>
<text transform="matrix(1 0 0 1 475.792 23.4648)" class="st13 st14 st15">Gol</text>
<text transform="matrix(1 0 0 1 505.992 23.4648)" class="st13 st14 st15">d</text>
</svg>
