<?xml version="1.0" encoding="utf-8"?>
<!-- Generator: Adobe Illustrator 23.0.3, SVG Export Plug-In . SVG Version: 6.00 Build 0)  -->
<svg version="1.1" id="Layer_1" xmlns="http://www.w3.org/2000/svg" xmlns:xlink="http://www.w3.org/1999/xlink" x="0px" y="0px"
	 viewBox="0 0 471.9 150.4" style="enable-background:new 0 0 471.9 150.4;" xml:space="preserve">
<style type="text/css">
	.st0{fill:#1F2E5E;}
	.st1{fill:#E04745;}
	.st2{fill:#00ACE8;}
	.st3{opacity:0.98;fill:#55B866;enable-background:new    ;}
	.st4{opacity:0.98;fill:#F5B75D;enable-background:new    ;}
	.st5{fill:#FFFFFF;}
</style>
<g id="Layer_3">
</g>
<g>
	<g>
		<path class="st0" d="M107.2,74.7V111H94.5V74.7c0-11.1-8.9-20.2-19.9-20.2c-10.9,0-19.9,9.2-19.9,20.2V111H42V43.4h12.7v6.5
			c5.8-4.4,12.7-7.8,19.9-7.8c8.7,0,17,3.3,23.2,9.4C103.8,57.7,107.2,65.9,107.2,74.7z"/>
		<g>
			<path class="st0" d="M131.2,77.4H125l0.4-2.1h6.2l5.9-27.7c1-4.6,2-8.2,3.1-11c1-2.7,2.3-5.1,3.8-7.1c3.6-4.8,8.1-7.2,13.5-7.2
				c1.8,0,3.5,0.3,5,0.9l-2.3,5.7c-1.7-2.4-3.8-3.5-6.4-3.5c-2,0-3.6,0.8-4.8,2.3c-1.2,1.5-2.3,4.1-3.2,7.6l-9.6,40h10.2l-0.4,2.1
				h-10.2l-8.6,35.8c-1.1,4.8-2.2,8.4-3.3,10.7c-1.1,2.4-2.5,4.5-4.4,6.6c-3.4,3.7-7,5.5-11,5.5c-1.9,0-3.7-0.3-5.2-1l3.1-4.5
				c1.8,1.4,3.7,2.1,5.7,2.1c3.1,0,5.4-1.6,7-4.9c1.1-2.4,2.3-6.5,3.6-12.1L131.2,77.4z"/>
			<path class="st0" d="M108.8,139.9c-2.4,0-4.7-0.4-6.7-1.3l-4.3-1.9l8.1-12l3.3,2.7c1.1,0.9,2.1,1.3,3.3,1.3
				c1.1,0,2.3-0.3,3.5-2.7c1-2.1,2.1-5.9,3.3-11.3l7.2-33.4h-6.2l2.1-10h6.3l5.3-24.6c1-4.8,2.1-8.6,3.3-11.6c1.2-3,2.6-5.7,4.3-8
				c4.4-5.9,10-8.8,16.6-8.8c2.3,0,4.4,0.4,6.4,1.2l3.7,1.4L161.7,37l-4.2-5.9c-1.2-1.7-2.3-1.9-3.2-1.9c-0.8,0-1.3,0.2-1.8,0.8
				c-0.5,0.6-1.5,2.2-2.4,6.1l-8.5,35.1h10l-2.1,10h-10.3l-7.9,32.8c-1.2,5.1-2.4,8.8-3.6,11.4c-1.2,2.7-2.9,5.2-5,7.6
				C118.5,137.6,113.9,139.9,108.8,139.9z"/>
		</g>
		<path class="st0" d="M164.3,82.1V43.4H177v38.7c0,9.9,8.3,18,18.6,18c10.2,0,18.6-8.1,18.6-18V43.4h12.7v38.7
			c0,8.3-3.4,15.9-9.3,21.7c-5.9,5.8-13.7,8.7-22,8.7c-8.4,0-16.2-3-22.1-8.7C167.6,98.1,164.3,90.4,164.3,82.1z"/>
		<path class="st0" d="M291.7,91.1c0,3.8-1,7.5-3.2,10.6c-2.1,3.1-5,5.5-9,7.4c-3.5,1.6-7.8,2.5-12.1,2.5c-2.4,0-4.6-0.3-6.9-0.7
			c-7.4-1.5-14.3-4.7-20.2-9.7l8-8.7c7.8,6.6,14.5,8,18.6,8c2.8,0,5.5-0.6,7.8-1.6c1.9-0.9,5.3-3.1,5.3-7.7c0-4.6-4-7.4-13.1-9
			c-0.4-0.1-11.7-2.2-15.8-4.6c-6.2-3.5-9.4-9-9.4-15.8c0-3.7,1.2-7.2,3.2-10.3c1.9-2.7,4.6-4.7,8.4-6.5c3.5-1.6,7.4-2.5,11.7-2.5
			c1.6,0,3.4,0.1,5,0.3c6.5,1,12.8,3.8,18.2,8.1l-7.4,8.6c-6.6-5.2-12.4-5.9-15.2-5.9c-2.7,0-5.2,0.4-7.2,1.5
			c-3,1.5-4.9,4.1-4.9,6.8c0,4.4,3.5,6.8,12.5,8.7c0.1,0,12.3,2.7,15.6,4.6c4,2.1,5.5,3.7,7.1,5.8C290.7,83.7,291.7,87.3,291.7,91.1
			z"/>
		<g>
			<path class="st0" d="M175,121.5c0-0.7,0.6-1.2,1.4-1.2c0.7,0,1.3,0.6,1.3,1.2s-0.6,1.3-1.3,1.3C175.6,122.7,175,122.2,175,121.5z
				 M175.3,124.4h2.1v10.1h-2.1V124.4z"/>
			<path class="st0" d="M191.7,129.1v5.4h-2.1v-5.4c0-1.7-1.5-3-3.3-3c-1.8,0-3.3,1.4-3.3,3v5.4h-2.1v-10.1h2.1v1
				c0.9-0.7,2.1-1.2,3.3-1.2c1.4,0,2.8,0.5,3.8,1.4C191.2,126.5,191.7,127.8,191.7,129.1z"/>
			<path class="st0" d="M194.9,131.2v-5h-1.6v-1.8h1.6v-3.9h2.1v3.9h3.4v1.8H197v4.9c0,0.8,0.8,1.6,1.6,1.6h1.9l0.5,1.8h-2.4
				C196.5,134.5,194.9,133.1,194.9,131.2z"/>
			<path class="st0" d="M212.3,129.9h-8.5v0c0.2,1.7,1.6,2.9,3.2,3c1,0,2-0.4,2.7-1.1l1.7,0.9c-0.4,0.4-0.9,0.8-1.5,1.1
				c-0.8,0.5-1.9,0.7-2.9,0.8c-1.5,0-2.8-0.6-3.7-1.5c-0.9-0.9-1.4-2-1.5-3.2c0-0.2,0-0.3,0-0.5c0-0.4,0-0.8,0.1-1.2
				c0.2-0.9,0.7-1.8,1.4-2.5c1-1,2.3-1.5,3.7-1.5c1.5,0,2.8,0.6,3.8,1.5c0.7,0.7,1.2,1.5,1.4,2.5
				C212.4,129.2,212.4,129.7,212.3,129.9z M210.2,128.3L210.2,128.3c-0.5-1.4-1.7-2.2-3.1-2.2c-1.3,0-2.6,0.9-3.1,2.2l0,0H210.2z"/>
			<path class="st0" d="M214.4,134.5v-16.3h2.1v16.3H214.4z"/>
			<path class="st0" d="M219.8,134.5v-16.3h2.1v16.3H219.8z"/>
			<path class="st0" d="M225.2,121.5c0-0.7,0.6-1.2,1.4-1.2c0.7,0,1.3,0.6,1.3,1.2s-0.6,1.3-1.3,1.3
				C225.8,122.7,225.2,122.2,225.2,121.5z M225.6,124.4h2.1v10.1h-2.1V124.4z"/>
			<path class="st0" d="M238.6,118.3l-0.5,1.8h-1.9c-0.9,0-1.6,0.7-1.6,1.5v2.8h3.4v1.8h-3.4v8.3h-2.1v-8.3h-1.6v-1.8h1.6v-2.8
				c0-1.9,1.6-3.3,3.7-3.3L238.6,118.3L238.6,118.3z"/>
			<path class="st0" d="M243.5,140.3h-2.2l2.6-5.8l-4.5-10.1h2.2l3.4,7.6l3.4-7.6h2.2L243.5,140.3z"/>
			<path class="st0" d="M261.3,140.3H259l2.6-5.8l-4.5-10.1h2.2l3.4,7.6l3.4-7.6h2.2L261.3,140.3z"/>
			<path class="st0" d="M280.6,129.5c0,1.4-0.6,2.7-1.7,3.8c-1.1,1-2.5,1.6-4.1,1.6c-1.5,0-3-0.6-4.1-1.6c-1.1-1-1.7-2.3-1.7-3.8
				c0-1.4,0.6-2.8,1.7-3.8c1.1-1,2.6-1.5,4.1-1.5c1.6,0,3,0.5,4.1,1.5C280,126.7,280.6,128,280.6,129.5z M278.5,129.5
				c0-1.9-1.7-3.4-3.7-3.4c-2.1,0-3.7,1.5-3.7,3.4c0,1.9,1.7,3.4,3.7,3.4C276.8,132.9,278.5,131.3,278.5,129.5z"/>
			<path class="st0" d="M282.8,130.2v-5.8h2.1v5.8c0,1.5,1.3,2.7,3,2.7c1.7,0,3-1.2,3-2.7v-5.8h2.1v5.8c0,1.2-0.6,2.4-1.5,3.3
				c-1,0.9-2.2,1.3-3.6,1.3c-1.4,0-2.7-0.4-3.6-1.3C283.4,132.6,282.8,131.4,282.8,130.2z"/>
			<path class="st0" d="M298.1,125.4c0.7-0.7,2.8-1.3,4-1.3l-0.5,1.9c-1.9,0-3.5,1.3-3.5,3.1v5.4h-2.1v-10.1h2.1L298.1,125.4
				L298.1,125.4z"/>
			<path class="st0" d="M309.5,121.5c0-0.7,0.6-1.2,1.4-1.2c0.7,0,1.4,0.6,1.4,1.2s-0.6,1.3-1.4,1.3
				C310.1,122.7,309.5,122.2,309.5,121.5z M309.9,124.4h2.1v10.1h-2.1V124.4z"/>
			<path class="st0" d="M334.4,129.1v5.4h-2.1v-5.4c0-1.7-1.5-3-3.3-3c-1.8,0-3.3,1.4-3.3,3v5.4h-2.1v-5.4c0-1.7-1.5-3-3.3-3
				c-1.8,0-3.3,1.4-3.3,3v5.4h-2.1v-10.1h2.1v1c0.9-0.7,2.1-1.2,3.3-1.2c1.4,0,2.8,0.6,3.8,1.5c0.2,0.2,0.4,0.4,0.5,0.6
				c0.2-0.2,0.3-0.4,0.5-0.6c1-0.9,2.4-1.5,3.8-1.5c1.4,0,2.8,0.5,3.8,1.4C333.8,126.5,334.4,127.8,334.4,129.1z"/>
			<path class="st0" d="M345.8,124.4h2.1v10.1h-2.1v-1.2c-1,0.8-2.3,1.4-3.7,1.4c-1.6,0-3-0.5-4.1-1.5c-1.1-1-1.7-2.3-1.7-3.8
				s0.6-2.7,1.7-3.8c1.1-1,2.6-1.5,4.1-1.5c1.4,0,2.7,0.6,3.7,1.4V124.4z M345.8,129.5c0-1.9-1.7-3.4-3.7-3.4
				c-2.1,0-3.7,1.6-3.7,3.4c0,1.9,1.7,3.4,3.7,3.4C344.1,132.9,345.8,131.3,345.8,129.5z"/>
			<path class="st0" d="M361.6,124.4V135c0,1.4-0.6,2.8-1.7,3.8c-1.1,1-2.5,1.6-4.1,1.6c-1.2,0-2.2-0.3-3.1-0.8
				c-0.4-0.2-0.7-0.5-1-0.7l1.6-1.3c0.7,0.5,1.7,0.9,2.6,0.9c2.1,0,3.7-1.6,3.7-3.5v-1.7c-1,0.8-2.3,1.4-3.7,1.4
				c-1.6,0-3-0.5-4.1-1.5c-1.1-1-1.7-2.3-1.7-3.8s0.6-2.7,1.7-3.8c1.1-1,2.6-1.5,4.1-1.5c1.4,0,2.7,0.6,3.7,1.4v-1.2L361.6,124.4
				L361.6,124.4z M359.6,129.5c0-1.9-1.7-3.4-3.7-3.4c-2.1,0-3.7,1.6-3.7,3.4c0,1.9,1.7,3.4,3.7,3.4
				C357.9,132.9,359.6,131.3,359.6,129.5z"/>
			<path class="st0" d="M364.7,121.5c0-0.7,0.6-1.2,1.4-1.2c0.7,0,1.3,0.6,1.3,1.2s-0.6,1.3-1.3,1.3
				C365.3,122.7,364.7,122.2,364.7,121.5z M365.1,124.4h2.1v10.1h-2.1V124.4z"/>
			<path class="st0" d="M381.5,129.1v5.4h-2.1v-5.4c0-1.7-1.4-3-3.3-3c-1.8,0-3.3,1.4-3.3,3v5.4h-2.1v-10.1h2.1v1
				c0.9-0.7,2.1-1.2,3.3-1.2c1.4,0,2.8,0.5,3.8,1.4C380.9,126.5,381.5,127.8,381.5,129.1z"/>
			<path class="st0" d="M392.9,124.4h2.1v10.1h-2.1v-1.2c-1,0.8-2.3,1.4-3.7,1.4c-1.5,0-3-0.5-4.1-1.5c-1.1-1-1.7-2.3-1.7-3.8
				s0.6-2.7,1.7-3.8c1.1-1,2.6-1.5,4.1-1.5c1.4,0,2.7,0.6,3.7,1.4V124.4z M392.9,129.5c0-1.9-1.7-3.4-3.7-3.4
				c-2.1,0-3.7,1.6-3.7,3.4c0,1.9,1.7,3.4,3.7,3.4C391.2,132.9,392.9,131.3,392.9,129.5z"/>
			<path class="st0" d="M398.7,131.2v-5H397v-1.8h1.6v-3.9h2.1v3.9h3.4v1.8h-3.4v4.9c0,0.8,0.8,1.6,1.6,1.6h1.9l0.5,1.8h-2.4
				C400.3,134.5,398.7,133.1,398.7,131.2z"/>
			<path class="st0" d="M406.8,121.5c0-0.7,0.6-1.2,1.4-1.2c0.7,0,1.3,0.6,1.3,1.2s-0.6,1.3-1.3,1.3
				C407.4,122.7,406.8,122.2,406.8,121.5z M407.1,124.4h2.1v10.1h-2.1V124.4z"/>
			<path class="st0" d="M423.5,129.5c0,1.4-0.6,2.7-1.7,3.8c-1.1,1-2.5,1.6-4.1,1.6c-1.6,0-3-0.6-4.1-1.6c-1.1-1-1.7-2.3-1.7-3.8
				c0-1.4,0.6-2.8,1.7-3.8c1.1-1,2.6-1.5,4.1-1.5c1.6,0,3,0.5,4.1,1.5C422.9,126.7,423.5,128,423.5,129.5z M421.4,129.5
				c0-1.9-1.7-3.4-3.7-3.4c-2.1,0-3.7,1.5-3.7,3.4c0,1.9,1.7,3.4,3.7,3.4C419.7,132.9,421.4,131.3,421.4,129.5z"/>
			<path class="st0" d="M436.3,129.1v5.4h-2.1v-5.4c0-1.7-1.5-3-3.3-3c-1.8,0-3.3,1.4-3.3,3v5.4h-2.1v-10.1h2.1v1
				c0.9-0.7,2.1-1.2,3.3-1.2c1.4,0,2.8,0.5,3.8,1.4C435.7,126.5,436.3,127.8,436.3,129.1z"/>
		</g>
		<polygon class="st1" points="128.7,71.5 138.6,81.1 120.5,81.1 122.5,71.5 		"/>
		<polygon class="st2" points="138.1,81 149.3,81 151.3,71.5 128.4,71.5 		"/>
		<path class="st3" d="M423.3,17.6c6.1,0,11.1,5,11.1,11.1c0,6.1-5,11.1-11.1,11.1c-6.1,0-11.1-5-11.1-11.1
			C412.2,22.6,417.2,17.6,423.3,17.6z"/>
		<path class="st4" d="M12.8,18.3c6.1,0,11.1,5,11.1,11.1c0,6.1-5,11.1-11.1,11.1c-6.1,0-11.1-5-11.1-11.1
			C1.7,23.2,6.7,18.3,12.8,18.3z"/>
		<g>
			<path class="st0" d="M7,46.7V111h12.7V46.7c-2,0.7-4.1,1.1-6.3,1.1C11.1,47.8,9,47.4,7,46.7z"/>
		</g>
	</g>
</g>
<path class="st0" d="M365,112.1c0,0-8.7,9-49.2,2.1c0,0-24.2-3-19.7-40.2c0,0,0-26.4,32.8-30.3c0,0,3.5-38.1,43.5-38.5
	c0,0,36.1-1,40,42.3c0,0,36.3-17.8,52.1,13.9c0,0,17.9,39.3-29,52.8C435.5,114.2,380.7,120.7,365,112.1z"/>
<path class="st5" d="M348.2,109l-13.2-1.3c0,0-0.3-0.1-0.3-0.1l18.5-62.1c0,0,2.7-16.3,14-23.1l5.4-3.6c3.8-1.7,12.7-3.5,17.6-3.1
	l1.8,0c0,0.1,0,5.1,0,5.1l-0.2,77c0,2.9-1.6,5.6-4.1,7.1c-0.5,0.3-1,0.5-1.5,0.6l-9,3.4c0,0-0.1,0-0.1-0.1l1.1-62.1c0,0,0,0,0-0.1
	c-0.6-0.3-8.3-3.4-12.8,7.7c0,0,0,0,0,0c0,0.1-3.1,11.3-3.4,12.3c0,0,0,0.1,0.1,0.1h10.7c0,0,0.1,0,0.1,0.1L372.2,77
	c0,0,0,0.1-0.1,0.1h-13.4c0,0-0.1,0-0.1,0L348.2,109C348.3,109,348.3,109,348.2,109z"/>
<path class="st5" d="M415,54.9c0,0,6.2-11.9,12.8,0.1l-0.2,36.9c0,0.7-0.1,1.4-0.4,2.1c-1,2.9-4.4,10.5-12.6,12.5L415,54.9z"/>
</svg>
