<?xml version="1.0" encoding="utf-8"?>
<!-- Generator: Adobe Illustrator 25.2.1, SVG Export Plug-In . SVG Version: 6.00 Build 0)  -->
<svg version="1.1" id="Layer_1" xmlns="http://www.w3.org/2000/svg" xmlns:xlink="http://www.w3.org/1999/xlink" x="0px" y="0px"
	 viewBox="0 0 2772.3 810.5" style="enable-background:new 0 0 2772.3 810.5;" xml:space="preserve">
<style type="text/css">
	.st0{fill:#EBF3FA;}
	.st1{opacity:0.5;}
	.st2{opacity:0.5;fill:#AEC3FF;enable-background:new    ;}
	.st3{fill:#FFB27D;}
	.st4{fill:#2B478B;}
	.st5{fill:#F77D48;}
	.st6{fill:#2C3A64;}
	.st7{fill:#739AF0;}
	.st8{fill:#6385DB;}
	.st9{fill:#ED985F;}
	.st10{fill:#304B77;}
	.st11{fill:#F8FCFF;}
	.st12{fill:#24406D;}
	.st13{fill:#C1514C;}
	.st14{fill:#A9453D;}
	.st15{fill:#ED975D;}
	.st16{fill:#233862;}
	.st17{fill:#FFFFFF;}
	.st18{fill:#EF9F6A;}
	.st19{fill:#1A2D4C;}
	.st20{opacity:0.5;fill:#233862;enable-background:new    ;}
	.st21{fill:#6BB7BF;}
	.st22{fill:#86D1CD;}
	.st23{fill:#5685D8;}
	.st24{fill:#F99746;}
	.st25{fill:#CCCDCE;}
	.st26{fill:#212F5B;}
	.st27{fill:#CF524C;}
	.st28{fill:#49AAE2;}
	.st29{opacity:0.98;fill:#6FB46E;enable-background:new    ;}
	.st30{opacity:0.98;fill:#EBB86C;enable-background:new    ;}
</style>
<g id="_лой_1">
	<path class="st0" d="M112,804.2c0,0-146.3-274.7,0-534s441.9-203.5,597.5-128s364.1-151,706.4-124.7s333,183.8,665.9,141.1
		s578.8-17.2,662.8,208s-49.8,437.6-49.8,437.6L112,804.2z"/>
	<g class="st1">
		<path class="st2" d="M995.9,506.4c0,0-9.7-81-51.1-129.3c-5.5-6.4-16.1-2.3-15.9,6.1c0,0.1,0,0.3,0,0.4
			C929.4,398.1,975.9,459,995.9,506.4z"/>
		<path class="st2" d="M1001,529.6c0,0-41.3-101.2-111.9-146c-4.3-2.8-10-1.7-13,2.5c-1.9,2.7-2.7,7-0.6,13.7
			C881,417.5,959.7,477.5,1001,529.6z"/>
	</g>
	<g class="st1">
		<path class="st2" d="M537.5,756.4c0,0-58.6-56.7-121.3-68c-8.3-1.5-13.9,8.3-8.5,14.8l0.3,0.3
			C417.6,714.4,492.1,732.3,537.5,756.4z"/>
		<path class="st2" d="M556.1,771.2c0,0-95.9-52.4-178.9-42.5c-5.1,0.6-8.9,5-8.6,10.1c0.3,3.3,2.3,7.2,8.2,11
			C392.3,760,491.2,756.8,556.1,771.2z"/>
	</g>
	<path class="st2" d="M588.8,470.2c0,0-3.4,81.8-18.6,80.2c-15.2-1.6,10.4-90.9,10.4-90.9s-64.7-51.9-93.9-55.8
		c0,0,27.4,87,13.1,81.7c-14.3-5.3-47.1-94.5-47.1-94.5s-71.5-31.2-93.7,10.3c-22.3,41.5-8,68.1,2.4,73.4
		c10.4,5.3,81.6,20.9,77.6,29.7c-4,8.8-55.3,12.4-80.2-2.1c0,0,12.6,79.7,52.2,85c39.6,5.3,57.1-15.9,81.5-12.2
		c24.4,3.7,40.4,14.2,26.9,17.9c-13.5,3.7-53-10.1-76.2,1.9s-41.2,18.5-7,34.2s99.8,26.1,119.2,1.4c0.8-1.1,1.7-2.1,2.4-3.1
		c-0.7,1.1-1.5,2.2-2.4,3.1c5.7,5.4,11.4,26.2,15,41.9c0.4,2.6,1.2,6.3,2.5,11.4l0,0c0.5,2.3,0.8,4.1,1.1,5.4
		c5.3,34.7-14.1,87.8-14.1,87.8l7.2,3.8c29.8-51.2,10.5-103.5,10.5-103.5c-11-40.4-2.8-71.6-2.8-71.6s78.1-22.7,58.1-82.7
		C632.9,523.2,614.6,484.9,588.8,470.2z"/>
	<path class="st2" d="M1988.1,405.3c-13.4-49-96-33.5-96-33.5s-56,85.9-72.3,87.9c-16.3,2.1,33.5-82.8,33.5-82.8
		c-31.7-3-112.2,36-112.2,36s5.3,100-11,98.1c-16.3-2-0.2-88.8-0.2-88.8c-30.6,9.2-59.1,45-59.1,45c-35.6,58.3,41,101,41,101
		s1.1,34.7-20.3,74.6l0,0c0,0-4.9,7.4-9.7,19.8h8.3c0.7-2.2,1.4-4.4,2.3-6.5c0,0,0,0,0,0V656c0.6-1.3,1.4-3.1,2.4-5.4l0,0
		c2.5-5,4.3-8.7,5.3-11.4l0,0c7.6-15.7,18.6-36.1,25.9-40.4c-0.8-1.2-1.4-2.5-1.8-3.8c0.6,1.2,1.2,2.5,1.8,3.8
		c14.4,30.5,85.9,35.5,125.7,27.3c39.8-8.3,22.4-19.4,0.9-37.6c-21.5-18.2-66.4-13.3-79.7-20.4c-13.3-7.1,6.1-14.3,32.6-12.3
		c26.5,2,39.9,28.5,82.8,32.5c42.9,4,75.4-76.7,75.4-76.7c-29.6,9.2-82.7-7-84.8-17.2c-2.1-10.2,76.5-9.3,88.8-12.5
		S2001.5,454.3,1988.1,405.3z"/>
	<path class="st3" d="M708.6,557.7c10-1,21.8-2.7,26.6-5.7c7.2-4.4,19.6-22.8,27.3-36.3c0.2-0.3,0.7-7.1,0.9-7.5
		c4-7.1,5.8-2.7,6-8.4c0.2-3-0.1-6.1-0.9-9c-0.8-2.9-2.2-5.7-4.1-8.1c-0.2-0.3-0.5-0.7-0.8-0.9c-1.5-1.8-3.2-3.3-5.2-4.4
		c-1.3-0.5-2.7,0.1-4.2,1.7v0c-1.5,1.7-2.8,3.6-3.8,5.6c-0.1,0-0.1,0.1-0.1,0.2c-0.3,0.5-0.6,1-0.9,1.7c-0.1,0.1-0.2,0.2-0.2,0.4
		c-0.6,1.3-1.2,2.6-1.8,3.9c-6.8,14.7-11.8,39.1-17.8,45.7c-2.6,2.9-16.5,6.4-25.9,10.6C696.9,550.2,701.9,558.4,708.6,557.7z"/>
	<path class="st4" d="M753.7,478.8c-2.6,2.2-5.5,9.7-6.4,12.1c0,0,7.2-0.3,10.1,5.3C757.4,496.2,757.4,475.5,753.7,478.8z"/>
	<path class="st5" d="M498.4,802.7l-83.8-307.3l73.3-5.1L515,640.7c3,16.5,5.5,30.3,7.3,41.4c1.9,11.1,3.4,21,4.7,29.8
		c0-13,0.3-25.6,0.7-37.7s1.2-23.7,2.1-34.9l12.8-152.8l73.3-5.1l33,149.4c1.4,6,4,19.9,8,41.7c2.4,12.7,4.3,22.7,5.8,30.1
		c0.2-18.8,0.4-33.6,0.7-44.4c0.3-10.7,0.5-19.7,0.8-26.9l6-153.7l73.5-5.1l-40,315.9l-78.7,5.5l-26-127.7
		c-2.3-11.2-4.4-23-6.4-35.4c-2-12.4-4-25.2-5.8-38.5c0,15.5-0.2,29.2-0.5,41.3c-0.3,12.1-0.8,23.4-1.4,34.1l-7.2,129.6L498.4,802.7
		z"/>
	<path class="st6" d="M775.2,400.1c0-1,0.8-11.6,17-12.2c0,0-8,1-9.3,4.5c0,0,5.4-4.3,9.8-2.9s7,9.1,7,11.7c0,2.5-2.4,10.8-5.2,11.5
		c-1.1,0.2-2.3,0.2-3.4,0c0.8,1.3,1.5,2.6,2.2,3.9c6.5,13.3-0.2,26.3-5.7,24.8c-3.5-0.9-4.5,5.1-4.5,5.1L749,418.8
		C749,418.8,761.5,392.8,775.2,400.1z"/>
	<path class="st7" d="M763.3,791.5l7.3,2.7c0,0,31.5-43.7,35.4-82.1c0.8-6.6,0.4-13.2-1-19.6l0.8-4.9c0.2-1.4,0.6-3.2,0.9-5.2
		c1-5.9,2.4-13.9,4-23c3.7-21,8.5-47.9,12.2-67.7l-2-0.6l-21.1-6.8l-4.3-13.8l-15.7-4.2c0,0-3.5,6.9-6.6,39.4
		c-0.6,4.3-1.1,9-1.5,14.1c-1.4,19-0.9,38,1.5,56.9c0.7,5.7,1.6,11.5,2.8,17.5c0.8,4.4,1,10.4,0.6,17.2
		C774.9,742.7,763.3,791.5,763.3,791.5z"/>
	<path class="st8" d="M771.6,619.6l34.2,67.9c0.2-1.4,0.6-3.2,0.9-5.2c1-5.9,2.4-13.9,4-23c3.7-21,8.5-47.9,12.2-67.7l-2-0.6
		l-21.1-6.8l-4.4-13.8l-21.5-5.7C773.9,564.7,771.6,606.7,771.6,619.6z"/>
	<path class="st7" d="M786.6,574.9l0.8-6.8c13.3,3.5,48.7-9.8,48.7-9.8s12.8,11.3,11.1,38.4c-0.8,13.2-2.3,69.3-3.9,85.9
		c-0.6,6-1.1,10.3-1.3,12l0,0c0,0.5,0.1,1,0.4,1.5c2.3,3.9,4.2,8,5.8,12.2c15.4,41.1-2.4,91.6-2.4,91.6l-4.6-1.8
		c0,0-10.1-56.3-18.3-81.1c-1-3.3-2.3-6.5-4-9.5c-3.6-5.8-6.9-15.2-9.9-26.4c-5.7-21.2-10.3-48.8-13.3-70.1
		C795.3,610.9,786.6,574.9,786.6,574.9z"/>
	<path class="st3" d="M761.3,492.6c4.8,2.2,10,3.4,15.3,3.6c22.8,1.2,28-18.7,28.9-32c-2.5-0.9-5.2-1.2-7.8-1
		c-0.6,0-1.2,0.1-1.9,0.1c-2.3,0.2-4.5-0.8-5.9-2.6c-2.6-3.3-5.6-9.3-7.7-17.5l-1,0.5l-16.4,7.7c0,0,1.7,5.4,3,10.5
		c0.5,2,0.9,4,1.2,6.1c0.2,1.6-0.7,3.1-2.2,3.8l0,0l0,0C764.4,478.5,762.5,485.5,761.3,492.6z"/>
	<path class="st4" d="M755.6,507.6c0.2,0.5,0.4,0.9,0.6,1.4c5.8,12.5,16.5,63.9,16.5,63.9c3.3,10,69.6-1.8,69.8-10.2
		c2.5-8.9-8.9-23.3-15.3-30.5c-2.8-3.2-4.6-7.2-5.1-11.4c-1.3-12-0.8-23.1-0.9-29.9l0,0c-1.3-0.9-2.5-1.8-3.6-2.6
		c-1.6-1.1-3-2.3-4.4-3.6c-1.2-1.1-1.9-2.6-2.1-4.2c-0.1-1.2,0-2.3,0.1-3.5c0-0.5,0.1-1.1,0.2-1.7c0.6-3.8,1.8-7.5,3.3-11
		c-6.1-2.5-17-1-17-1s0,0.6,0,1.6c0,4-3.2,11.6-7,17.3c-4.1,6.1-18.5,11.1-23.2,1.9c-1.6-3.2-0.7-11.7-0.5-12.3l0,0
		c-9.8,3.8-13.2,7-13.2,7C759.5,482.6,751.1,495.5,755.6,507.6z"/>
	<path class="st9" d="M764.8,451.4c0,0,1.7,5.3,3,10.5c9.6-2.7,12.5-12.8,13.4-18.2L764.8,451.4z"/>
	<path class="st3" d="M762.8,457.1c0,0,23-5.3,19.5-19.6c-3.5-14.3-3-24.6-17.8-21.8c-14.8,2.8-16.3,9-16.3,14
		C748.2,434.8,756.7,458.1,762.8,457.1z"/>
	<path class="st6" d="M746.9,421.6c2.5-5.2,5.4-4.9,7.2-4c10.8-10,21.4-1.8,21.4-1.8c2.6,6,7.1,10.9,12.9,13.9c0,0-3.5,3.6-13.8,3.5
		c-3.1,0-6.3-1.5-9.1-3.4c3.6,3.5,7.6,6.5,12,8.9c-12.8-2.4-21.5-17.3-22.3-18.9c-1.1,1.6-3.2,5-3.3,7.9c-0.2,3.9,1.1,11.5-1.1,11.8
		C750.7,439.6,743.2,429.4,746.9,421.6z"/>
	<path class="st10" d="M819,803.7h36.6c0,0,0.8-5.6-1-9.8c-1.8-4.1-4.7-5.9-4-10.8c-2.3,2.4-6.1,5.1-11.4,4.4
		c-0.6,1-4.2,6.6-6.3,8.2C830.4,797.4,819.8,796.8,819,803.7z"/>
	<path class="st10" d="M740.6,803.7h36.5c0,0,1.4-5.8-1-9.8c-2.1-3.5-1.3-5.5,0.3-8.4c-1.9,0.8-4,1.2-6.2,1.2
		c-1.9-0.2-3.8-0.9-5.4-1.9c-1.6,1.8-8.3,9.4-10.4,10.9C752,797.4,741.4,796.8,740.6,803.7z"/>
	<path class="st3" d="M822.6,485.1c-0.2,3.3-0.7,6.7-1.5,9.9c-1.6,7.1-3.7,14.1-6.3,20.9c-0.8,2-1.5,4-2.4,6
		c-5.9,14.7-13.6,28.4-19.9,33.1c-0.2,0.2-0.5,0.4-0.8,0.5c-3.5,2.1-7.3,3.7-11.2,5c-6.5,2.2-14.1,4.2-21,5.8h-0.1
		c-4,0.9-22.2,4.7-22.2,4.7l-1.5-5.7c0,0,33.8-19.7,39.6-23.9c3.3-2.4,5.9-4.6,6.8-6.1c1.8-3.5,3.3-7,4.6-10.7
		c0.9-2.4,1.8-5,2.7-7.8c1.7-4.6,3.3-9.6,5-14.6c3.1-9.1,6.4-18.3,9.5-25.4l0,0c0.5-1.2,1.8-1.8,3-1.5l15.5,3.2
		c0.1,1.1,0.2,2.4,0.2,3.7C822.7,483.2,822.7,484.1,822.6,485.1z"/>
	<path class="st4" d="M797.7,484.6c7.8-3.7,16.6-4.5,24.9-2.4c-0.1-15.9-8-18.1-8-18.1C811.4,462.9,797.7,464.8,797.7,484.6z"/>
	<path class="st3" d="M739.3,563.3c0,0-9.3,3.6-11.1,5c-1.8,1.4-5.3,6-5.9,8.4c0,0,0,1,1,1c1,0,3-3.6,4.5-3c0,0,1.4,3.8,1.4,6.2
		c0,1.6-0.9,7.7-0.7,9c0.2,1.3,6.1-4.1,7.3-8.2c0.9-3.3,0.4-5.4,1-9.5c0.5-3.6,10.4-5.7,10.4-5.7L739.3,563.3z"/>
	<path class="st5" d="M881.5,802.8V490.4h170v60.7h-97.4v57.4h89.9v62.7h-89.9v68.1h97.4v63.5H881.5z"/>
	<path class="st5" d="M1249.4,802.8h-160.9V490.4h73v249.3h87.8L1249.4,802.8z"/>
	<path class="st5" d="M1405.6,674.4h71.8c0.1,1.9,0.2,3.9,0.3,6.1c0.1,2.2,0.1,5.4,0.1,9.7c0,38.1-8.4,66.4-25.1,84.9
		s-42.3,27.7-76.7,27.7c-20.3,0-37.7-3.4-52.1-10.1c-14.4-6.7-26.6-17.3-35.1-30.6c-6.2-9.7-10.7-23.3-13.4-40.6
		c-2.7-17.3-4.1-44.8-4.1-82.4c0-37.6,1.4-65,4.1-82.4s7.2-30.8,13.4-40.6c8.5-13.3,20.5-23.8,34.7-30.6
		c14.3-6.8,31.4-10.2,51.3-10.2c34.2,0,59.9,9.5,77,28.5s25.7,47.4,25.6,85.3v3l-71-0.2c-0.3-21.2-2.7-36.1-7.3-44.7
		c-4.6-8.6-12.3-12.9-23.1-12.9c-11.8,0-19.8,5.2-24.1,15.7s-6.5,38.2-6.5,83.1v5.9c0,48.3,2.2,77.9,6.5,88.8s12.4,16.3,24.1,16.3
		c11,0,18.6-4,23-11.9c4.4-7.9,6.6-22.6,6.6-44.1L1405.6,674.4z"/>
	<path class="st5" d="M1513.5,639.1c0-37.6,1.4-65,4.1-82.4s7.2-30.8,13.4-40.6c8.5-13.4,20.7-24.1,35.1-30.7
		c14.5-6.7,31.8-10,52.1-10c20.4,0,37.8,3.3,52,10c14.3,6.7,25.9,16.9,34.8,30.7c6.5,9.9,11.1,23.5,13.8,40.8
		c2.7,17.3,4.1,44.7,4.1,82.2c0,37.3-1.4,64.7-4.1,82.1c-2.7,17.4-7.3,31-13.8,40.9c-8.4,13.3-20.5,24-34.8,30.6
		c-14.4,6.8-31.7,10.1-52,10.1c-20.3,0-37.7-3.4-52.1-10.1c-14.4-6.7-26.5-17.3-35.1-30.6c-6.2-9.7-10.7-23.3-13.4-40.6
		S1513.5,676.7,1513.5,639.1z M1648.2,667.3v-56.4c0-34.6-2.2-56-6.6-64.2c-4.4-8.2-12.3-12.3-23.8-12.3c-11.2,0-19,4.2-23.3,12.6
		c-4.3,8.4-6.5,29.7-6.5,63.9v56.4c0,33.8,2.2,55,6.5,63.6s12.2,12.9,23.7,12.9c11.4,0,19.2-4.2,23.5-12.6
		C1646,722.8,1648.2,701.5,1648.2,667.3z"/>
	<path class="st5" d="M1765.2,802.8V490.4h102.2l27.8,132.9c0.1,0.7,1.2,9,3.3,25.1c2.1,16,4.3,32.1,6.6,48.2
		c1.8-12,3.9-27,6.6-44.7c2.6-17.8,4.2-27.6,4.6-29.5l27.6-131.9h101.2v312.4h-69l6.3-241.4L1933,802.8h-55.6l-49.5-241.4l6.3,241.4
		L1765.2,802.8z"/>
	<path class="st11" d="M256.4,220.1c0,0,17.5-41.7,59.3-37.1c0,0,60.8-69.6,125.5-9.3c0,0,68.9-14.9,119.9,12.9
		c34,18.6,45.2,38.1,45.2,38.1L256.4,220.1z"/>
	<path class="st11" d="M928.5,249.8c0,0,23.1-40.1,78.5-35.7c0,0,80.3-66.9,166-8.9c0,0,91-14.4,158.5,12.4
		c45,17.9,59.8,36.6,59.8,36.6L928.5,249.8z"/>
	<path class="st11" d="M1322.1,156.8c0,0,16.4-30.4,55.6-27c0,0,57-50.6,117.7-6.8c0,0,64.6-10.9,112.4,9.4
		c31.9,13.5,42.4,27.7,42.4,27.7L1322.1,156.8z"/>
	<path class="st11" d="M2183.2,299.7c0,0,11.8-21.9,40.2-19.5c0,0,41.1-36.6,85-4.9c0,0,46.6-7.9,81.1,6.8c23,9.8,30.6,20,30.6,20
		L2183.2,299.7z"/>
	<path class="st7" d="M2330.3,513.5c-4.7,8.8-10.3,17.2-16.7,24.9l0,0c-6.3,7.6-12.8,13.3-18.3,15.3l0,0c-0.3,0.1-0.6,0.2-0.8,0.3
		h-0.1c-1,0.3-2.1,0.4-3.2,0.4c-18-0.8-37-39.4-37-39.4c0.4-3,1.8-5.7,4-7.8c1.5-1.5,3.4-2.7,5.4-3.6c0,0,19.4,19.9,24.1,21.3
		c3,0.9,6.9-13,12.5-30.4c5.6-17.5,25.3-21.8,25.3-21.8S2345.4,485.4,2330.3,513.5z"/>
	<path class="st8" d="M2313.6,538.5L2313.6,538.5c-6.3,7.6-12.8,13.3-18.3,15.3l0,0l-0.8,0.3h-0.1c0.2-0.1,6.1-3.2,7-8.8
		c0.9-5.7-5.2-10.5,10.2-19.4C2320.4,520.6,2313.6,538.5,2313.6,538.5z"/>
	<path class="st12" d="M2299.5,803.2h42.2c3-2-0.8-22.1-0.8-22.1s-11.5-4.4-13.5,4.5c-2,8.9-14.7,11.7-21.4,12.8
		C2301.4,799.2,2300,801.7,2299.5,803.2z"/>
	<path class="st13" d="M2363.8,595.5c0,0-1.3,24.6-3,53.1c-1.2,20.4-2.6,42.9-3.7,59.7c-0.2,2.2-0.3,4.4-0.5,6.4
		c0,0.6-0.1,1.2-0.1,1.9c-2.1,23.9-6.5,47.6-13.1,70.7c-11.9,2.5-17.2-2.1-17.2-2.1s-8.2-95.8-11.2-134.4
		c-2.2-28.4-4.2-69.8-4.2-69.8L2363.8,595.5z"/>
	<path class="st14" d="M2360.8,648.7c-1.2,20.4-2.6,42.9-3.7,59.7c-7.8-18.3-23.6-89.6-23.6-89.6L2360.8,648.7z"/>
	<path class="st12" d="M2362.1,803.2h42.2c3-2-0.8-22.1-0.8-22.1s-11.5-4.4-13.5,4.5c-2,8.9-14.7,11.7-21.4,12.8
		C2364,799.2,2362.5,801.7,2362.1,803.2z"/>
	<path class="st13" d="M2322.3,590.7c0,0,30.1,75,39.7,103.4c6.9,20.2,26.2,91.2,26.2,91.2s8.4,2.6,15.5-2.4c0,0,7.2-72.5-7.3-93
		c-7.7-10.9-1.9-112.8-33.2-113.7C2331.9,575.3,2322.3,590.7,2322.3,590.7z"/>
	<path class="st7" d="M2384,566.5c-0.1,10.7-0.2,18.5-0.2,20.5c0.1,6.4-4,7.9-8.3,8.9c0,0-3.9,0.8-8.9,1.7
		c-4.9,0.9-9.9,1.4-14.8,1.6c-13.2-0.2-26.3-2.4-38.8-6.4c-4,0-5.8-6.2-6.4-14.8c-0.4-5.8,1.4-63.8,1.6-78.3
		c0.2-10.4,5.8-20,7.5-21.4c14.8-13.1,58.3-11.4,66.2-2.4c1.9,2.2,2.5,23.7,2.6,47.2C2384.3,538.3,2384.1,554.3,2384,566.5z"/>
	<path class="st3" d="M2357.8,470.8c-5.6,6-24.2,5.1-23.7-0.1c0.1-0.6,0.2-4.5,0.3-5.1c0.1-0.6,0.1-0.9,0.1-1.4
		c0.1-1.3,0.2-2.4,0.3-3.4c0.2-2.9,0.3-4.5,0.3-4.5l0,0c0.5-0.1,12.5-3.6,18.5-5c2-0.5,3.3-0.7,3.3-0.6
		C2355.2,464.2,2359.6,468.8,2357.8,470.8z"/>
	<path class="st15" d="M2354.3,455.3c0,0-5,5.1-19.5,5.5c0.2-2.9,0.3-4.5,0.3-4.5l0,0c0.5-0.1,12.5-3.6,18.5-5
		C2354.8,451.7,2353.4,454.5,2354.3,455.3z"/>
	<path class="st3" d="M2331.5,455.6c2.7,0.9,5.5,1.6,8.3,1.9c6.8,0.9,15.8,0.4,18.7-7.9c4.8-13.9,10.8-22.3-3.2-28
		c-7.5-3-12.3-3.2-15.5-2c-2.4,0.9-4.5,2.7-5.8,5C2331.3,428.8,2325.8,453.1,2331.5,455.6z"/>
	<path class="st16" d="M2335.1,413.8c-3,2.1-3.8,6.2-1.8,9.2c1,1.5,2.5,2.5,4.2,2.8c3.5,0.6,6.5,0.7,8.2,1.5
		c3.5,1.5,6.5,3.2,5.7,8.6c-0.3,1.8-1.2,4.1,3.6,3c0.6-0.2,1.2-0.2,1.7,0.1c2,1.2-0.5,6.8-1.3,8c0,0-1.1,4,1.3,6
		c0.3,0.2,5,2.3,16.5-15.2c2.6-4.6,2.9-10.1,0.7-14.9c-2.8-6-10.5-13.5-25.1-13.5C2344,409.7,2339.2,411.2,2335.1,413.8z"/>
	<path class="st17" d="M2331.4,446.5c0,0-0.3,1.8,3.9,3.2c0,0,3.5,1.2,4.2-0.6C2339.4,449.2,2336.7,446.5,2331.4,446.5z"/>
	<path class="st8" d="M2384,566.5c-2.1,9.9-5.6,13.3-7.5,9.6c-6.8-12.9-6.7-18.3-3.8-27.5c3-9.2-7.4-23.5,0-29.6
		c7.3-6,11.4,3.7,11.6,4.1C2384.3,538.3,2384.1,554.3,2384,566.5z"/>
	<path class="st3" d="M2383.7,565.3c0,0-5,8.2-8.3,7.9c-3.3-0.3-7.7-1.5-10.3,0.9c-2.6,2.4-6.6,8.8-5.5,10.4
		c1.1,1.7,5.8,0.2,9.1-1.7c3.3-1.9,8.6,0.9,11.4-1.2c2.8-2.1,9.5-10.4,9.5-10.4L2383.7,565.3z"/>
	<path class="st7" d="M2381.7,475.9c0,0,41.6,39.1,36.2,65.2c-2.5,11.9-10.1,21.9-30.5,38.1c0,0-9.6-6.6-11.8-12.1
		c0,0,18.5-26,17.8-30.5c-0.9-5.4-13.5-19-18-21.1C2370.9,513.4,2371.3,480.5,2381.7,475.9z"/>
	<path class="st3" d="M2375.3,573.2c0,0-4.4-1.9-5.8-2.7s-1.1,0.5-0.7,1.2c0.7,1.2,1.9,2.1,3.3,2.3
		C2373.3,574,2374.4,573.7,2375.3,573.2z"/>
	<g id="girl_2">
		<path class="st16" d="M1657.7,580.7c10-2.1,20.3,0.9,27.6,7.9c3.7,3.5,7.1,7.4,10.1,11.5c8.1,11.3-7.4,22.5-5.3,26.3
			c2.1,3.8,6.8,6.9,4.7,14.9s-15.9,18.4-20.4,18.8c-45.6,4.7-65.4-20.4-50.1-34c15.2-13.5,9-33.2,21.4-40.8
			C1649.4,583.1,1653.5,581.5,1657.7,580.7z"/>
		<path class="st18" d="M1681.2,651.5c0,0,42.6,17.9,50.4,17.6s55.8-14.6,55.8-14.6l-1.2,8.3c0,0-37,21.3-50,22.5
			c-12.7,1.2-56.4-11.4-60.6-14.1C1671.4,668.5,1669,654.2,1681.2,651.5z"/>
		<path class="st3" d="M1686.1,671.2c-4.4,3-9.3,5-14.4,6.1c-22.2,5.1-30.7-13.7-34-26.6c2.3-1.3,4.9-2.1,7.5-2.3
			c1.6-0.2,3.3-0.3,4.7-0.4c2.5-1.9,6.2-9.7,7-21.9l1,0.3l17.5,4.8c0,0-0.8,5.6-1.2,10.8c-0.3,4.2-0.4,8.1,0.4,9l2.2,0.5l0,0
			C1680.7,657.8,1683.7,664.3,1686.1,671.2z"/>
		<path class="st9" d="M1675.6,631.2c0,0-0.8,5.6-1.2,10.8c-10-1-14.5-10.5-16.3-15.6L1675.6,631.2z"/>
		<path class="st3" d="M1678.6,636.5c0,0-23.6-1.3-22.5-16c1.1-14.7-1.3-24.7,13.8-24.5s17.6,6,18.5,11
			C1689.2,612,1684.7,636.4,1678.6,636.5z"/>
		<path class="st16" d="M1688.2,598.8c-3.3-4.7-6.1-3.9-7.8-2.7c-12.4-8-21.4,1.9-21.4,1.9c-1.5,6.3-5.2,12-10.4,15.9
			c0,0,4.2,3.3,14.2,1.1c12.8-2.8,17.2-13.9,17.8-15.6c1.3,1.4,3.1,2.3,4.4,5.3c1.6,3.6,2.6,5.7,2.6,11.6
			C1687.6,616.2,1693.1,605.8,1688.2,598.8z"/>
		<path class="st7" d="M1631,719.1c-2.1-10.9-9.1-54.4-2.1-68.3c2.5-5,12.3-5.5,23-5c3.3,2.2,16.1,10.3,21.3,9.3l0.3-0.1
			c2.5-0.6,3.4-2.4,1.3-3.8c4-0.3,8,0,11.9,0.7c3.7,0.7,13.8,5.9,13.8,5.9s-5.1,9.1-12.5,12.3c1.3,11.4-0.6,16.4-12.4,42.6
			c-10,22.2,1.3,42.1,1.3,42.1s-58.6,47.1-58.9,23.1C1617.8,759.8,1633.8,733,1631,719.1z"/>
		<path class="st16" d="M1679.9,806c3.2-0.4,6.1-2.1,7.8-4.8c0.3-0.4,0.6-0.9,0.9-1.4c6.6-10.1,9.3-41,24.3-74
			c3.7-8,16.8-9.5,20.4-18.5c0,0,8.8-29.4-16.9-30.3c-25.7-0.9-68.7,81.8-69.4,90.5C1646.3,776,1630,811.6,1679.9,806z"/>
		<path class="st19" d="M1781.8,805.3h-36.5c0,0-1.4-5.8,1-9.8c2.1-3.5,1.3-5.5-0.3-8.4c1.9,0.8,4,1.2,6.1,1.2
			c1.9-0.2,3.8-0.9,5.4-1.9c1.6,1.8,8.3,9.4,10.4,10.9C1770.5,799,1781.1,798.4,1781.8,805.3z"/>
		<path class="st8" d="M1632.5,671.2c0,0,4.7,19.4,42,27.2s8.5-18.7,8.5-18.7l-39.1-10.5L1632.5,671.2z"/>
		<path class="st16" d="M1734.1,685.6c2.2,16.5,10.8,68.5,25.9,93.9c4.9,8.2-12.3,12.8-12.4,12.7c-2.3-0.6-6.1-4.3-7.9-5.9
			c-12.3-11.1-37.3-42.5-37.3-67.6c0-12.3-0.2-35.7,8.7-41.7C1716.6,673.4,1733.2,679.1,1734.1,685.6z"/>
		<path class="st4" d="M1709.1,707.5c-3.6,9.1-13.6,8-17.3,16c-2,4.5-4,9-5.8,13.5l-0.5,1.3c-2.2,5.5-4.3,10.9-6.2,16.1
			c-2.9,8-5.5,15.5-7.8,22.1c-3.8,10.7-6.9,19.1-9.7,23.4c-2.4,3.6-3.7,5.5-3.7,5.5c-56,8.6-41-28.8-37.9-37.8
			c2.8-8.2,51.5-93.2,77.2-92.3S1709.1,707.5,1709.1,707.5z"/>
		<path class="st16" d="M1755,805.3h-36.5c0,0-1.4-5.8,1-9.8c2.1-3.5,1.3-5.5-0.3-8.4c1.9,0.8,4,1.2,6.1,1.2
			c1.9-0.2,3.8-0.8,5.4-1.9c1.6,1.8,8.3,9.4,10.4,10.9C1743.7,799,1754.3,798.4,1755,805.3z"/>
		<path class="st20" d="M1686,737l-0.5,1.3c-2.2,5.5-4.3,10.9-6.2,16.1c-7.7-21-3.7-41.8-3.7-41.8
			C1681.2,716.5,1684.5,726.1,1686,737z"/>
		<path class="st4" d="M1712.7,684.4c2.2,16.5,5.3,69.7,20.5,95.1c4.9,8.2-12.3,12.8-12.4,12.7c-2.3-0.6-6.1-4.3-7.9-5.9
			c-12.3-11.1-37.3-42.5-37.3-67.6c0-12.3,14.4-34.7,23.3-40.7c4.1-2.7,9.7-1.6,12.4,2.6C1712.1,681.8,1712.6,683.1,1712.7,684.4z"
			/>
		<path class="st16" d="M1791.8,633.2l-37.4-4c-1.1-0.1-2.1,0.5-2.5,1.5l-13.4,35.2c-0.5,1.3,0.2,2.6,1.4,3.1
			c0.2,0.1,0.5,0.1,0.7,0.2l37.1,1.5c1,0,1.9-0.5,2.3-1.5l13.7-32.7c0.5-1.2-0.1-2.6-1.3-3.2C1792.3,633.3,1792,633.3,1791.8,633.2z
			"/>
		<path class="st4" d="M1795,633.6l-37.4-4c-1.1-0.1-2.1,0.5-2.5,1.5l-13.4,35.2c-0.5,1.2,0.2,2.6,1.4,3.1c0.2,0.1,0.5,0.1,0.8,0.2
			l37.1,1.5c1,0,1.9-0.5,2.3-1.5l13.7-32.7c0.5-1.2-0.1-2.6-1.3-3.2C1795.5,633.7,1795.3,633.6,1795,633.6z"/>
		<path class="st0" d="M1774.3,650c0.5-1.3-0.2-2.3-1.4-2.3c-1.4,0.1-2.6,1-3.1,2.3c-0.5,1.3,0.2,2.3,1.4,2.3
			C1772.6,652.2,1773.8,651.3,1774.3,650z"/>
		<path class="st0" d="M1793.9,636.9c0.2-0.4,0.1-0.8-0.3-1c-0.1-0.1-0.3-0.1-0.4-0.1c-0.7,0-1.3,0.5-1.5,1.1
			c-0.2,0.4-0.1,0.8,0.3,1c0.1,0.1,0.3,0.1,0.4,0.1C1793.1,638,1793.7,637.5,1793.9,636.9z"/>
		<path class="st3" d="M1637.8,650.8c0,0,51.8,19.1,59.6,18.7c5-0.3,46.9-15,46.9-15l3.8,7.1c0,0-40.7,26.2-51.9,26
			c-22.1-0.3-59.4-13.8-63.6-16.5C1628.3,668.5,1625.5,653.5,1637.8,650.8z"/>
		<path class="st3" d="M1744.3,654.5c0,0,3.8-5.8,7.5-6c3.7-0.1,10.2,2.6,12.4,3s8.5,2.5,6.6,5.5c-1.9,3-10.5,3.7-14.3,3.1
			c-3.7-0.7-8.5,1.5-8.5,1.5L1744.3,654.5z"/>
		<path class="st3" d="M1750.7,648.7c0,0,6-2.7,7.6-3.2c1.7-0.5,1.4,0,0.8,1.7c-0.5,1.7-3.6,3.1-3.6,3.7
			C1755.6,651.3,1750.7,648.7,1750.7,648.7z"/>
		<path class="st3" d="M1791.2,651.4c0,0-3.7-5.9-5-6.2c-3.7-0.7-3.7,4.2-3,7.4c0.8,3.4,3.7,6.6,4.5,6.3
			C1788.6,658.7,1792.1,654.6,1791.2,651.4z"/>
		<path class="st3" d="M1791.3,652.6c0.6,4.1-1.5,8.2-5.1,10.1l1.9-4.6L1791.3,652.6z"/>
		<path class="st17" d="M1683,628c0,0-2.2-0.9-8.5-0.4c0,0,0.3,2.4,5,2.7C1681,630.4,1682.4,629.5,1683,628z"/>
		<path class="st7" d="M1664.5,660.2c0,0-4.6,14.7-20.6,18c0,0-26.3-8.1-13.2-26C1630.7,652.2,1643.6,642.6,1664.5,660.2z"/>
	</g>
	<path class="st21" d="M1716.2,326.5c0,0-5.7,10.6-16,14.7c-7.7,3-18.3,0-18.9-0.3l-0.6,13.1c0,0,17.5,1.2,27.7-6.9
		c3.1-2.5,7-8.9,8.2-12.8C1717.4,331.7,1717.3,329,1716.2,326.5z"/>
	<path class="st22" d="M1705,305.6l11.5-13.6c0,0,13.7,31.4-6.6,53.6C1710,345.6,1715,316.7,1705,305.6z"/>
	<path class="st21" d="M499.7,309.1c0,0-10.9-8.3-13.8-20.6c-2.1-9.1,3.2-20.6,3.6-21.2l-14.6-2.9c0,0-4.3,19.4,3,32.4
		c2.3,4,8.8,9.4,13,11.5C493.6,309.6,496.7,309.9,499.7,309.1z"/>
	<path class="st22" d="M525.1,300.2l13.3,15.2c0,0-37.7,10-59.2-16.6C479.2,298.8,511,309.5,525.1,300.2z"/>
	<path class="st23" d="M2202.4,364.1c0,0-23.5-2.2-21.7-27l-16.7-5.1c0,0-2,14.6,25.3,30.5C2207.2,372.8,2202.4,364.1,2202.4,364.1z
		"/>
	<path class="st7" d="M2225.6,366.4c0,0-18.1,13.3-48.5-12.5c0,0,12.3,8.6,33.7,1.3L2225.6,366.4z"/>
	<path class="st23" d="M1039.8,364.1c0,0-23.5-2.2-21.7-27l-16.7-5.1c0,0-2,14.6,25.3,30.5C1044.5,372.8,1039.8,364.1,1039.8,364.1z
		"/>
	<path class="st7" d="M1062.9,366.4c0,0-18.1,13.3-48.5-12.5c0,0,12.3,8.6,33.7,1.3L1062.9,366.4z"/>
	<path class="st24" d="M1546.4,351.3c0,0-11-6.9-12.2-15.3c0,0-10.7,0.6-13,4.1c0,0,4.9,13.9,10.7,16.5
		C1531.9,356.5,1545,357.4,1546.4,351.3z"/>
	<path class="st24" d="M1230.3,126.3c0,0,13.2-8.4,14.6-18.5c0,0,12.9,0.7,15.7,4.9c0,0-5.9,16.7-12.9,19.9
		C1247.7,132.6,1232.1,133.6,1230.3,126.3z"/>
	<path class="st22" d="M1338.7,337.3c0,0,11.6-7.3,12.8-16.1c0,0,11.3,0.6,13.7,4.3c0,0-5.2,14.6-11.3,17.3
		C1353.9,342.8,1340.2,343.7,1338.7,337.3z"/>
	<path class="st3" d="M1234.3,555.5c-18.8-4.8-39.5-34-39.5-34l5.3-4.6c5.5,6.5,28.3,17.6,28.3,17.6c-0.1-5.9,0-11.3,0.4-16.2
		c2.5-33.4,15.1-44.6,18.6-47c0.3-0.2,0.5-0.4,0.8-0.6c0,0,0,0.2,0,0.7c0,1,0.1,3,0.2,5.7C1249.2,497.6,1250,559.6,1234.3,555.5z"/>
	<path class="st7" d="M1249.4,509.9c0,1.8-0.1,3.7-0.2,5.5c-0.6,14.9-2.2,29.7-5.9,38.3c-0.7,1.9-1.8,3.6-3.1,5.2
		c-1.7,1.9-3.7,2.8-6,2.5c-12.7-1.9-16-13.7-16.7-22.6c-0.3-3.3-0.2-6.6,0.2-9.8c0,0,6.3,0,7.3-1c2.1-1.9,3-11.2,3.6-21.4
		c0.7-13.4,0.9-28.5,2.2-31.1c3.7-7.4,17.8-7.4,17.8-7.4S1249.9,488.3,1249.4,509.9z"/>
	<path class="st16" d="M1264.4,434c0,0-10.5,6.2-4.1,18.1c0,0-9.1-1.7-11.2-4.4c0.1,0.6,0.3,1.2,0.6,1.7c0,0-8.4-1.9-11.2-5.4
		c-2.8-3.5,10.8-45.7,32.7-34.8c0,0,20.1,3.7,12.2,26c-7.9,22.3-0.4,24.2-0.4,24.2c-1.1,0.2-2.2,0.3-3.3,0.2c0,0-1.3-0.9-1.4-1.8
		c0,0.6,0,1.2,0.2,1.8c0,0-8.2-1.4-11.4-5.5C1263.9,450.2,1262,438.4,1264.4,434z"/>
	<path class="st3" d="M1249.2,469.9L1249.2,469.9C1249.1,469.9,1249.1,469.9,1249.2,469.9z"/>
	<path class="st3" d="M1274.7,462.5c0.3,2.8,0.7,5.2,0.8,6.4c0.4,2.6-24.7,0.9-26.3,0.9c1.1-0.5,4.5-11.3,5.6-15.4
		c1.3-5,2.3-10.4,2.3-10.4l17.7,1.1l1.1,0.1c-0.6,2.2-1.1,4.5-1.4,6.8c0,0.3-0.1,0.6-0.1,0.8C1274,455.3,1274.3,459.1,1274.7,462.5z
		"/>
	<path class="st16" d="M1254.7,442.3c0,0-2.9-9.1-2.3-16.1c0.4-5,7.5-22,24.6-14.8c3.4,1.4,6.5,3.6,9,6.4c3.2,3.6,7.2,10.7-3.1,24.5
		l-3,4.8L1254.7,442.3z"/>
	<path class="st8" d="M1251.5,511.4l-0.9,30c0,0-3.3,5.7-7.2,12.3c-1,1.7-2,3.4-3.1,5.2c-1.7,1.9-3.7,2.8-6,2.5
		c-12.7-1.9-16-13.7-16.7-22.6c-0.3-3.3-0.2-6.6,0.2-9.8c0,0,6.3,0,7.3-1c2.1-1.9,3-11.2,3.6-21.4l8.7-4.9l12.1,8.2L1251.5,511.4z"
		/>
	<path class="st15" d="M1274.7,462.5c-12.4-3.6-17.7-18-17.7-18c5.2,0.1,12.1,3.8,17.5,7.5c0,0.3-0.1,0.6-0.1,0.8
		C1274,455.3,1274.3,459.1,1274.7,462.5z"/>
	<path class="st3" d="M1275.6,457.5c0,0-22.4-5.5-18.7-19.4s3.2-24,17.7-21c14.5,3,15.8,9,15.7,13.9S1281.5,458.6,1275.6,457.5z"/>
	<path class="st16" d="M1291.7,423.1c-6.6-10.6-14.6-11.6-14.7-11.6c-5.7-3.8-13.2,5.6-13.2,5.6c-2.6,5.8-7.1,10.6-12.8,13.4
		c0,0,3.4,3.6,13.4,3.7c3.1,0,6.1-1.3,9-3.2c-3.5,3.4-7.5,6.3-11.9,8.6c12-2.1,20.4-15.3,21.9-17.8c1.7,2.6,3.2,5.6,3.3,7.5
		c0.2,3.8-1.2,11.3,0.9,11.6C1287.6,440.6,1296.2,430.2,1291.7,423.1z"/>
	<path class="st17" d="M1272.1,448.6c0,0,0.3,2.1,1.7,2.6s4.9,1.4,5.3,1.2c0.6-0.6,1.2-1.2,1.7-1.9
		C1280.8,450.5,1275.1,448.4,1272.1,448.6z"/>
	<path class="st3" d="M1263.7,661.2c-0.3,1.2-0.6,2.4-0.8,3.5c-1.7,7-3.3,13.5-4.2,19c-1.3,7.1-1.6,12.4,0.1,14.6
		c7,9.1,0,81.5,0,81.5l-7.9,8.2c0,0-13.8-71.5-17.5-82.7c-1.7-5.1-4.2-26.8-6.4-49l-0.3-3.3c-0.4-3.9-0.7-7.8-1.1-11.5
		c-2-21-3.4-39-3.4-39s14.6-10.3,27.9-11.4c7.8-0.7,15.2,1.8,18.8,11.4C1274.1,616.4,1268.7,640.5,1263.7,661.2z"/>
	<path class="st15" d="M1261.5,666c-10.2-11.1-17-27.1-29.4-49.4c-1.1-11.4,7.9-22.2,17.9-25.6c7.8-0.7,15.2,1.8,18.8,11.4
		C1274.1,616.4,1266.5,645.3,1261.5,666z"/>
	<path class="st3" d="M1303.3,523.2l53.3,13.8v6.2c0,0-53.1-0.6-56.5-6.5C1296.6,530.7,1303.3,523.2,1303.3,523.2z"/>
	<path class="st3" d="M1356.6,728.4l-2.5,10.3c0,0-72.1-37.2-81.4-44.4c-3.7-2.9-8.7-18.5-13.3-36.1c-6.8-26.3-12.8-57.2-12.8-57.2
		s10.1-38.9,37.2-15.1c16.2,14.2,13.7,41.7,11.9,63c-1.2,14.3-2,25.9,3.3,28.9c10.5,5.8,41.2,32.8,50.9,51.3L1356.6,728.4z"/>
	<path class="st7" d="M1323.8,545.2c-4.5,4.7-10.6,7.6-20.5,6.1c-4.3-0.6-11.9-5.5-15.9-13.4c-0.6-1.2-2.1-4.7-2.1-4.7
		s-5.5,5.5-5.7,6.5v0.1c-0.1,0.5-0.4,3-0.5,4.3c0,0.2,0,0.4-0.1,0.5v0.3c0,1.1,0.2,2.2,0.4,3.2c0,0-23.7,10.4-44.7,0.2l-0.1-0.1
		c-1.1-0.5-2.1-1.1-3.1-1.7c0,0-0.4-2.6-0.9-7c-1.3-11.3-3.3-34.3-0.8-54.8c0.6-5.5,14.6-12.9,18.9-16.7c1.2-1.4,1.8-3.2,1.7-5
		c-0.2-1.4,1.4-3.7,2.7-3.3c2.6,0.8,10,4.5,15.1,3.1c2.6-0.7,5.8-3.7,8.3-3c3,0.8-0.2,8.2,1.6,8.3c2.4,0.1,13.1,0.3,16.3,4.8
		c2.7,3.7,4.1,10.5,8.7,23.4l0,0c8.7,24.3,21.4,19.7,26.5,26.9C1332.9,528.1,1331,537.6,1323.8,545.2z"/>
	<path class="st8" d="M1285.3,533.2c-2.1-5.3-3.6-10.8-4.6-16.5c-0.5-2.9-22.9,19.4-17.3,28.5S1285.3,533.2,1285.3,533.2z"/>
	<path class="st4" d="M1317.5,626.2L1317.5,626.2c-0.4,0.1-7.3,2.1-17.6,4.2c-2.5,0.5-5.2,1.1-8.1,1.6c-22,4.1-53.1,7.4-71.8-0.9
		c0,0,1.4-31.1,5-54.5c2.9-18.8,6.3-30.1,6.3-30.1s19,3.9,38.9,0.1l0.6-0.1c2.6-0.5,5.4-0.7,8-1.6c0,0,14.8,21.1,22.6,36.1
		C1306.9,591.4,1317.5,626.2,1317.5,626.2z"/>
	<path class="st16" d="M1317.5,626.2L1317.5,626.2c-0.4,0.1-7.3,2.1-17.6,4.2c-2.5,0.5-5.2,1.1-8.1,1.6
		c-34.2-44.7-21.4-85.3-21.4-85.3l0.4-0.2c2.6-0.5,5.4-0.7,8-1.6c0,0,14.8,21.1,22.6,36.1C1306.9,591.4,1317.5,626.2,1317.5,626.2z"
		/>
	<path class="st3" d="M1356.6,536.9c0,0,9.8-4.8,13.7-5.3c3.9-0.5,10.4-0.6,10.4,0c0,0.6-7,5-8.9,5.3c-1.9,0.3-5.4,3-4.4,3.3
		c1.1,0.3,6.8-1,6.9,0s-3.5,1.7-4.2,2.4c-0.7,0.7-2.8,1.7-6.3,1.2c-3.5-0.5-7.4-0.7-7.4-0.7L1356.6,536.9z"/>
	<path class="st4" d="M1370.9,732.4L1370.9,732.4c-0.4-0.1-1.9-0.6-2.9-2.9c-0.6-1.6-0.8-2.8-1.4-4.4l-2.4-4.2
		c-2.5-3.3-3.4-2.6-3.4-2.6s-0.7,0.8-1.7,2c-1.7,1.9-4.2,4.4-5.9,5.1c-1,0.4-1.9,1.1-2.5,2c-0.4,0.5-0.6,1.1-0.8,1.7
		c0,0,5.2,0.9,4.8,3.5c-0.9,5-0.7,5.9-0.6,6.1l0,0c0,0,8.9,4.7,11.8,5.6c5.1,1.7,7.7,5.1,9.4,6.6c0.7,0.6,1.6,0.9,2.5,0.8
		c1.3-0.2,3.1-0.6,3.5-1.5L1370.9,732.4z"/>
	<path class="st4" d="M1266.7,791.6l-4.3,2.3c-1.6,0.5-2.8,0.7-4.4,1.3c-1.6,0.6-3.1,1.6-4.2,3c-1.2,4.9-3,4.8-3,4.8h-17.1
		c-0.8-0.4,0.6-3.9,1.2-4.5c1.7-1.6,6.5-0.8,8.3-5.8c1-2.8,5.9-11.6,5.9-11.6l0,0c0.2-0.1,1.1-0.3,6,0.8c2.6,0.5,3.6-4.7,3.6-4.7
		c0.6,0.2,1.2,0.4,1.7,0.8c0.9,0.6,1.6,1.5,1.9,2.6c0.6,1.8,3.1,4.3,5,6c1.1,1,1.9,1.7,1.9,1.7S1270.1,789.1,1266.7,791.6z"/>
	<path class="st3" d="M1200,516.9c0,0,0.8-5.4-0.6-9c-1.5-3.8-1.8-7.9-3-6.2c-1.2,1.6-0.2,6.2-1.2,6.1c-0.5-0.1-1.9-0.8-2.4-3.1
		c-0.7-2.8,1-6.5-1.3-6.1c-2.3,0.4-5.2,10.7-3.7,13.5c1.5,2.8,7,9.4,7,9.4L1200,516.9z"/>
	<path class="st16" d="M1279.6,539.7L1279.6,539.7l-0.5,4.4c0,0.2,0,0.4-0.1,0.5v0.3c-11.6,4.3-19.7,6.4-27.3,6.4
		c-8.2,0-13.7-1.6-17-3l-0.1-0.1c-1.1-0.5-2.1-1-3.1-1.7c0,0-0.4-2.6-0.9-7C1234.5,541.6,1252.9,549.6,1279.6,539.7z"/>
	<path class="st5" d="M2095.1,802.8V490.4h170v60.7h-97.4v57.4h89.9v62.7h-89.9v68.1h97.4v63.5H2095.1z"/>
	<path class="st3" d="M2249,490.4c-1.8-2.2-4.6-3.5-7.5-3.4c-4.8,0.3-7.3,3.3-5.3,5.2s6.5,1.8,9.6,0L2249,490.4z"/>
	<path class="st25" d="M114.4,802.7h2577.7c1.4,0,2.5,1.1,2.5,2.5v0.7c0,1.4-1.1,2.5-2.5,2.5H114.4c-1.4,0-2.5-1.1-2.5-2.5v-0.7
		C111.9,803.8,113,802.7,114.4,802.7z"/>
	<path class="st26" d="M2074.9,110.3v57.7h-20.1v-57.7c0-17.7-14.2-32-31.5-32s-31.5,14.5-31.5,32v57.7h-20.4V60.6h20.1V71
		c9.2-6.9,20.1-12.3,31.5-12.3c13.8-0.1,27,5.3,36.9,14.9C2069.6,83.3,2075,96.5,2074.9,110.3z"/>
	<path class="st26" d="M2113,114.6h-9.9l0.7-3.3h9.9l9.3-44c1.2-5.9,2.8-11.8,4.9-17.5c1.4-4,3.5-7.8,6.1-11.3
		c5.7-7.6,12.8-11.4,21.5-11.4c2.7,0,5.4,0.5,8,1.4l-3.6,9c-2.8-3.8-6.1-5.5-10.2-5.5c-3-0.1-5.8,1.3-7.6,3.6
		c-1.9,2.4-3.6,6.6-5,12.1l-15.2,63.5h16.1l-0.7,3.3H2121l-13.7,56.8c-1.7,7.6-3.5,13.3-5.2,17c-1.8,3.8-4.1,7.3-6.9,10.4
		c-5.4,5.9-11.1,8.7-17.5,8.7c-2.8,0-5.7-0.5-8.3-1.6l4.9-7.1c2.5,2.1,5.7,3.3,9,3.3c4.8,0,8.5-2.6,11.1-7.8
		c1.7-3.8,3.6-10.4,5.7-19.2L2113,114.6z"/>
	<path class="st26" d="M2077.5,213.8c-3.6,0-7.2-0.7-10.6-2.1l-6.8-2.9l12.8-19l5.2,4.3c1.4,1.3,3.3,2,5.2,2.1
		c1.7,0,3.6-0.5,5.5-4.3c1.6-3.3,3.3-9.4,5.2-18l11.4-53h-9.9l3.3-15.9h10l8.5-38.9c1.2-6.3,2.9-12.4,5.2-18.3
		c1.8-4.5,4-8.7,6.8-12.7c6.9-9.4,15.9-14,26.3-14c3.5,0,6.9,0.7,10.2,1.9l5.9,2.3l-10.4,25.6l-6.6-9.3c-1.9-2.8-3.6-3-5-3
		c-1.1-0.1-2.1,0.4-2.8,1.2c-0.9,0.9-2.4,3.5-3.8,9.7l-13.5,55.7h15.9l-3.3,15.9h-16.3l-12.5,52.1c-1.9,8.1-3.8,14-5.7,18
		c-2,4.4-4.7,8.5-8,12.1C2092.9,210.2,2085.5,213.8,2077.5,213.8z"/>
	<path class="st26" d="M2165.4,122.1V60.6h20.1v61.5c0,15.8,13.1,28.6,29.4,28.6c16.1,0,29.4-12.8,29.4-28.6V60.6h20.1v61.5
		c0,13-5.3,25.4-14.7,34.4c-9.4,9.2-21.8,13.8-35,13.8c-13.1,0.2-25.7-4.8-35.1-13.8C2170.6,147.3,2165.5,134.9,2165.4,122.1z"/>
	<path class="st26" d="M2367.6,136.2c0.1,6-1.6,11.9-5,16.8c-3.3,4.9-8,8.7-14.2,11.8c-6,2.7-12.6,4.1-19.2,4
		c-3.7-0.1-7.3-0.4-10.9-1c-11.8-2.3-22.8-7.6-32-15.4l12.6-13.9c12.3,10.4,23,12.6,29.4,12.6c4.2,0.1,8.4-0.8,12.3-2.6
		c3-1.4,8.5-4.8,8.5-12.3s-6.4-11.8-20.8-14.2c-0.7-0.2-18.5-3.5-25.1-7.3c-9.9-5.5-14.9-14.2-14.9-25.1c0.1-5.8,1.8-11.4,5-16.3
		c2.9-4.3,7.3-7.4,13.3-10.4c5.8-2.7,12.1-4.1,18.5-4c13.5-0.1,26.5,4.7,36.9,13.3L2350.3,86c-10.4-8.3-19.7-9.3-24.1-9.3
		s-8.3,0.7-11.4,2.4c-4.7,2.4-7.8,6.6-7.8,10.7c0,6.9,5.5,10.7,19.9,13.8c0.2,0,19.6,4.3,24.8,7.3c6.4,3.3,8.7,5.9,11.3,9.2
		C2366.1,124.9,2367.7,130.5,2367.6,136.2z"/>
	<path class="st26" d="M2182.6,184.5c0-1.1,1-2,2.1-1.9c0.1,0,0.1,0,0.2,0c1.1,0,2,0.8,2.1,1.9c-0.1,1.1-1,2-2.1,2.1
		C2183.4,186.4,2182.6,185.6,2182.6,184.5z M2182.9,189.2h3.3v16.1h-3.3V189.2z"/>
	<path class="st26" d="M2209.1,196.7v8.5h-3.3v-8.5c0-2.8-2.4-4.7-5.2-4.7s-5.2,2.3-5.2,4.7v8.5h-3.5V189h3.3v1.6
		c1.5-1.2,3.3-1.8,5.2-1.9c2.2,0,4.4,0.8,6.1,2.3C2208.1,192.4,2209.1,194.5,2209.1,196.7z"/>
	<path class="st26" d="M2214.1,200v-8h-2.6v-2.8h2.6V183h3.3v6.2h5.4v2.8h-5.4v7.8c0.1,1.4,1.2,2.5,2.6,2.6h2.9l0.9,2.8h-3.8
		C2216.7,205.1,2214.1,202.9,2214.1,200z"/>
	<path class="st26" d="M2241.6,197.9h-13.3c0.3,2.6,2.4,4.6,5,4.7c1.6-0.1,3.1-0.7,4.3-1.7l2.8,1.4c-0.7,0.7-1.5,1.3-2.4,1.7
		c-1.4,0.8-3,1.2-4.7,1.2c-2.2,0.1-4.4-0.8-5.9-2.4c-1.4-1.3-2.2-3.1-2.4-5v-0.9c0-0.6,0-1.3,0.2-1.9c0.4-1.5,1.1-2.9,2.3-4
		c1.6-1.6,3.7-2.4,5.9-2.4c2.2,0,4.4,0.8,6,2.4c1.1,1.1,1.9,2.5,2.3,4C2241.8,195.9,2241.9,196.9,2241.6,197.9z M2238.3,195.3
		L2238.3,195.3c-0.7-2.1-2.7-3.5-4.9-3.5c-2.2,0-4.1,1.4-4.9,3.5H2238.3L2238.3,195.3z"/>
	<path class="st26" d="M2245.1,205.1v-25.8h3.3v25.8L2245.1,205.1z"/>
	<path class="st26" d="M2253.6,205.1v-25.8h3.3v25.8L2253.6,205.1z"/>
	<path class="st26" d="M2262.2,184.5c0-1.1,1-2,2.1-1.9c0.1,0,0.1,0,0.2,0c1.1,0,2,0.8,2.1,1.9c-0.1,1.1-1,2-2.1,2.1
		C2263.1,186.4,2262.2,185.6,2262.2,184.5z M2262.7,189.2h3.3v16.1h-3.3L2262.7,189.2z"/>
	<path class="st26" d="M2283.3,179.5l-0.9,2.8h-2.9c-1.4,0-2.5,1-2.6,2.4v4.5h5.4v2.8h-5.4v13.2h-3.3V192h-2.6v-2.8h2.6v-4.5
		c0-2.9,2.6-5.2,5.9-5.2L2283.3,179.5z"/>
	<path class="st26" d="M2291.1,214.3h-3.5l4.2-9.2l-7.1-16.1h3.5l5.4,12.1l5.4-12.2h3.5L2291.1,214.3z"/>
	<path class="st26" d="M2319.5,214.3h-3.6l4.1-9.2l-7.1-16.1h3.5l5.4,12.1l5.4-12.1h3.5L2319.5,214.3z"/>
	<path class="st26" d="M2350,197.2c0,2.3-1,4.5-2.8,6.1c-1.8,1.7-4.1,2.6-6.6,2.6c-2.4,0-4.8-0.9-6.6-2.6c-1.8-1.5-2.8-3.7-2.8-6.1
		c0-2.3,1-4.6,2.8-6.1c3.8-3.2,9.4-3.2,13.1,0C2349,192.6,2350,194.9,2350,197.2z M2346.7,197.2c0-3-2.8-5.4-5.9-5.4
		c-3.1-0.1-5.7,2.3-5.9,5.4c0,0,0,0,0,0c0,2.9,2.8,5.4,5.9,5.4c3,0.2,5.7-2.1,5.8-5.2C2346.7,197.3,2346.7,197.2,2346.7,197.2
		L2346.7,197.2z"/>
	<path class="st26" d="M2353.6,198.4v-9.2h3.3v9.2c0.2,2.6,2.4,4.5,5,4.4c2.3-0.2,4.2-2,4.4-4.4v-9.2h3.3v9.2c0,2-0.9,3.9-2.4,5.2
		c-1.6,1.4-3.6,2.1-5.7,2.1c-2.1,0.1-4.2-0.7-5.7-2.1C2354.4,202.1,2353.7,200.3,2353.6,198.4z"/>
	<path class="st26" d="M2377.8,190.8c1-1,4.5-2.1,6.4-2.1l-0.9,2.9c-2.9,0-5.5,2.1-5.5,4.8v8.5h-3.3v-16.1h3.3L2377.8,190.8
		L2377.8,190.8z"/>
	<path class="st26" d="M2395.9,184.5c0-1.1,1-2,2.1-1.9c0.1,0,0.1,0,0.2,0c1.1,0,2.1,0.8,2.3,1.9c-0.1,1.2-1.1,2.1-2.3,2.1
		C2397,186.6,2396,185.7,2395.9,184.5z M2396.5,189.2h3.3v16.1h-3.3V189.2z"/>
	<path class="st26" d="M2435.5,196.7v8.5h-3.3v-8.5c0-2.8-2.4-4.7-5.2-4.7s-5.2,2.3-5.2,4.7v8.5h-3.3v-8.5c0-2.8-2.4-4.7-5.2-4.7
		s-5.2,2.3-5.2,4.7v8.5h-3.3V189h3.3v1.6c1.5-1.2,3.3-1.8,5.2-1.9c2.3,0,4.4,0.9,6.1,2.4l0.9,0.9c0.3-0.3,0.5-0.7,0.9-0.9
		c1.7-1.5,3.8-2.4,6.1-2.4c2.2,0,4.4,0.8,6.1,2.3C2434.6,192.5,2435.4,194.5,2435.5,196.7z"/>
	<path class="st26" d="M2453.5,189.2h3.3v16.1h-3.3v-1.9c-1.7,1.4-3.7,2.2-5.9,2.3c-2.4,0-4.8-0.8-6.6-2.4c-1.8-1.5-2.9-3.7-2.8-6.1
		c0-2.3,1-4.6,2.8-6.1c1.8-1.6,4.2-2.4,6.6-2.4c2.2,0,4.3,0.8,5.9,2.3V189.2z M2453.5,197.2c0-3-2.8-5.4-5.9-5.4
		c-3.1-0.1-5.7,2.3-5.9,5.4c0,2.9,2.8,5.4,5.9,5.4c3,0.2,5.7-2.1,5.9-5.1C2453.5,197.4,2453.5,197.3,2453.5,197.2L2453.5,197.2z"/>
	<path class="st26" d="M2478.6,189.2V206c0,2.3-1,4.6-2.8,6.1c-1.8,1.7-4.1,2.6-6.6,2.6c-1.7,0-3.4-0.4-4.9-1.2
		c-0.7-0.4-1-0.9-1.6-1l2.6-2.1c1.2,0.9,2.7,1.4,4.1,1.4c3.1,0.1,5.8-2.4,5.9-5.5v-2.8c-1.7,1.4-3.7,2.2-5.9,2.3
		c-2.4,0-4.8-0.8-6.6-2.4c-1.8-1.5-2.8-3.7-2.8-6.1c0-2.3,1-4.6,2.8-6.1c1.8-1.6,4.2-2.4,6.6-2.4c2.2,0,4.3,0.8,5.9,2.3v-2
		L2478.6,189.2L2478.6,189.2z M2475.5,197.2c0-3-2.8-5.4-5.9-5.4c-3.1-0.1-5.7,2.3-5.9,5.4c0,2.9,2.8,5.4,5.9,5.4
		C2472.7,202.7,2475.3,200.3,2475.5,197.2C2475.5,197.2,2475.5,197.2,2475.5,197.2L2475.5,197.2z"/>
	<path class="st26" d="M2483.4,184.5c0-1.1,1-2,2.1-1.9c0.1,0,0.1,0,0.2,0c1.1,0,2,0.8,2.1,1.9c-0.1,1.1-1,2-2.1,2.1
		C2484.5,186.6,2483.6,185.7,2483.4,184.5z M2484.1,189.2h3.3v16.1h-3.3V189.2z"/>
	<path class="st26" d="M2510.1,196.7v8.5h-3.3v-8.5c0-2.8-2.3-4.7-5.2-4.7c-2.8,0-5.2,2.3-5.2,4.7v8.5h-3.3V189h3.3v1.6
		c1.5-1.2,3.3-1.8,5.2-1.9c2.2,0,4.4,0.8,6.1,2.3C2509.2,192.4,2510.1,194.5,2510.1,196.7z"/>
	<path class="st26" d="M2528.3,189.2h3.3v16.1h-3.3v-1.9c-1.7,1.4-3.7,2.2-5.9,2.3c-2.4,0-4.7-0.9-6.6-2.4c-1.8-1.5-2.8-3.7-2.8-6.1
		c0-2.3,1-4.6,2.8-6.1c1.8-1.6,4.2-2.4,6.6-2.4c2.2,0,4.3,0.8,5.9,2.3V189.2z M2528.3,197.2c0-3-2.8-5.4-5.9-5.4
		c-3.1-0.1-5.7,2.3-5.9,5.4c0,2.9,2.8,5.4,5.9,5.4C2525.5,202.7,2528.1,200.3,2528.3,197.2C2528.3,197.2,2528.3,197.2,2528.3,197.2
		L2528.3,197.2z"/>
	<path class="st26" d="M2537.4,200v-8h-2.8v-2.8h2.6V183h3.3v6.2h5.4v2.8h-5.4v7.8c0.1,1.4,1.2,2.5,2.6,2.6h3l0.9,2.8h-3.8
		C2540.2,205.3,2537.6,203,2537.4,200C2537.5,200,2537.5,200,2537.4,200z"/>
	<path class="st26" d="M2550.3,184.5c0-1.1,1-2,2.1-1.9c0.1,0,0.1,0,0.2,0c1.1,0,2,0.8,2.1,1.9c-0.1,1.1-1,2-2.1,2.1
		C2551.4,186.6,2550.4,185.7,2550.3,184.5z M2550.8,189.2h3.3v16.1h-3.3V189.2z"/>
	<path class="st26" d="M2576.8,197.2c0,2.3-1,4.5-2.8,6.1c-1.8,1.7-4.1,2.6-6.6,2.6c-2.4,0-4.8-0.9-6.6-2.6
		c-1.8-1.5-2.8-3.7-2.8-6.1c0-2.3,1-4.6,2.8-6.1c3.8-3.2,9.4-3.2,13.2,0C2575.7,192.6,2576.8,194.9,2576.8,197.2z M2573.5,197.2
		c0-3-2.8-5.4-5.9-5.4c-3.1-0.1-5.7,2.3-5.9,5.4c0,0,0,0,0,0c0,2.9,2.8,5.4,5.9,5.4c3,0.2,5.7-2.1,5.9-5.1
		C2573.5,197.3,2573.5,197.3,2573.5,197.2z"/>
	<path class="st26" d="M2597.2,196.7v8.5h-3.3v-8.5c0-2.8-2.4-4.7-5.2-4.7s-5.2,2.3-5.2,4.7v8.5h-3.3V189h3.3v1.6
		c1.5-1.2,3.3-1.8,5.2-1.9c2.2,0,4.4,0.8,6.1,2.3C2596.2,192.5,2597.1,194.5,2597.2,196.7z"/>
	<polygon class="st27" points="2109,105.3 2124.8,120.5 2096,120.5 2099.1,105.3 	"/>
	<polygon class="st28" points="2123.9,120.3 2141.7,120.3 2144.8,105.3 2108.5,105.3 	"/>
	<path class="st29" d="M2576.6,19.7c9.8,0,17.7,7.9,17.7,17.7s-7.9,17.7-17.7,17.7s-17.7-7.9-17.7-17.7c0-0.1,0-0.1,0-0.2
		C2559.1,27.6,2566.9,19.8,2576.6,19.7z"/>
	<path class="st30" d="M1925.2,20.8c9.8,0,17.7,7.9,17.7,17.7c0,9.8-7.9,17.7-17.7,17.7c-9.8,0-17.7-7.9-17.7-17.7c0,0,0,0,0,0
		C1907.5,28.7,1915.4,20.8,1925.2,20.8z"/>
	<path class="st26" d="M1916,65.8v102h20.1v-102c-3.2,1.1-6.6,1.7-10,1.7C1922.6,67.6,1919.2,67,1916,65.8z"/>
	<path class="st26" d="M2484,169.6c0,0-13.9,14.2-78.1,3.3c0,0-38.4-4.7-31.3-63.7c0,0,0-41.9,52.1-48.1c0,0,5.5-60.4,69.1-61.1
		c0,0,57.3-1.6,63.5,67.2c0,0,57.6-28.2,82.8,22c0,0,28.4,62.3-46.1,83.8C2595.8,172.9,2508.9,183.3,2484,169.6z"/>
	<path class="st17" d="M2457.3,164.6l-21-2.1l-0.5-0.2l29.4-98.5c0,0,4.3-25.8,22.2-36.7l8.5-5.7c6.1-2.8,20.1-5.5,27.9-4.9h2.8v8.1
		l-0.3,122.2c-0.1,4.6-2.6,8.9-6.6,11.3c-0.7,0.5-1.5,0.8-2.4,0.9l-14.2,5.4c-0.1,0-0.2-0.1-0.2-0.2l1.7-98.5v-0.2
		c-0.9-0.5-13.2-5.4-20.3,12.3l0,0c0,0.2-4.9,18-5.4,19.6c0,0,0,0.2,0.2,0.2h17c0.1,0,0.2,0.1,0.2,0.2l-1,16.1
		c0,0.1-0.1,0.2-0.2,0.2h-21.5L2457.3,164.6L2457.3,164.6z"/>
	<path class="st17" d="M2563.2,78.9c0,0,9.9-18.9,20.3,0.2l-0.4,58.5c0,1.1-0.2,2.3-0.7,3.3c-1.6,4.7-6.9,16.6-19.9,19.9
		L2563.2,78.9z"/>
</g>
</svg>
