<svg id="icons" enable-background="new 0 0 64 64" height="512" viewBox="0 0 64 64" width="512" xmlns="http://www.w3.org/2000/svg"><path d="m47 19.13v6l-4-4s-5 3-11 3-11-3-11-3l-4 4v-5c0-7.19 5.82-13 13-13h10v5c3.87 0 7 3.13 7 7z" fill="#965353"/><path d="m47 25.13v-6c0-3.87-3.13-7-7-7v-5h-4v5c0 2.209 1.791 4 4 4 1.654 0 3 1.346 3 3v2z" fill="#844747"/><path d="m39 44.399v5.73l-4 2-3-1-2.989 1-4.011-2v-5.73c2.091 1.101 4.471 1.73 7 1.73 2.53.001 4.91-.629 7-1.73z" fill="#f5f7fa"/><path d="m53 58.13v5h-41.989l-.011-5c0-4.42 3.58-8 8-8h6l4.011 2 2.989-1 3 1 4-2h6c4.431 0 8 3.58 8 8z" fill="#e6e9ed"/><path d="m45 50.13h-4.004c4.431 0 8 3.58 8 8v5h4.004v-5c0-4.42-3.569-8-8-8z" fill="#ccd1d9"/><path d="m9 41.85v8.04c-4.97-1.06-8-2.47-8-4.02v-39c0 1.54 3.03 2.95 8 4.02z" fill="#5d9cec"/><path d="m63 6.87v39c0 1.55-3.029 2.96-8 4.02v-8.05-30.95c4.971-1.07 8-2.48 8-4.02z" fill="#5d9cec"/><path d="m1 6.87c0-3.32 13.88-6 31-6 17.13 0 31 2.68 31 6 0 1.54-3.029 2.95-8 4.02v30.95c-3.06-.65-6.859-1.17-11.14-1.52 1.97-2.54 3.14-5.73 3.14-9.19v-6-6c0-3.87-3.13-7-7-7v-5h-10c-7.18 0-13 5.81-13 13v5 6c0 3.46 1.17 6.65 3.141 9.19-4.29.35-8.071.869-11.141 1.53v-30.96c-4.97-1.07-8-2.48-8-4.02z" fill="#4a89dc"/><path d="m47 25.13v6c0 3.46-1.17 6.65-3.14 9.19-1.3 1.68-2.96 3.079-4.86 4.079-2.09 1.101-4.47 1.73-7 1.73-2.529 0-4.909-.63-7-1.73-1.899-1-3.55-2.399-4.85-4.079h-.01c-1.97-2.54-3.14-5.73-3.14-9.19v-6l4-4s5 3 11 3 11-3 11-3z" fill="#eac6bb"/><path d="m43 21.13-.004.002v9.998c0 3.46-1.17 6.65-3.14 9.19-1.3 1.68-2.96 3.079-4.86 4.079-1.528.805-3.214 1.354-4.998 1.594.655.088 1.322.137 2.002.137 2.53 0 4.91-.63 7-1.73 1.9-1 3.561-2.399 4.86-4.079 1.97-2.54 3.14-5.73 3.14-9.19v-6z" fill="#d3b1a9"/><path d="m11 59.135c-.553 0-1-.447-1-1 0-4.963 4.037-9 9-9 .553 0 1 .447 1 1s-.447 1-1 1c-3.859 0-7 3.141-7 7 0 .553-.447 1-1 1z"/><path d="m53 59.135c-.553 0-1-.447-1-1 0-3.859-3.141-7-7-7-.553 0-1-.447-1-1s.447-1 1-1c4.963 0 9 4.037 9 9 0 .553-.447 1-1 1z"/><path d="m25 51.135h-6c-.553 0-1-.447-1-1s.447-1 1-1h6c.553 0 1 .447 1 1s-.447 1-1 1z"/><path d="m45 51.135-6-.002c-.553 0-1-.448-1-1 0-.553.448-1 1-1l6 .002c.553 0 1 .448 1 1 0 .553-.448 1-1 1z"/><path d="m11.001 64.131c-.552 0-1-.447-1-1l-.001-4.996c0-.552.447-1 1-1 .552 0 1 .447 1 1l.001 4.996c0 .552-.447 1-1 1z"/><path d="m53 64.131c-.553 0-1-.447-1-1v-4.996c0-.553.447-1 1-1s1 .447 1 1v4.996c0 .553-.447 1-1 1z"/><path d="m25 51.135c-.553 0-1-.447-1-1v-5.73c0-.553.447-1 1-1s1 .447 1 1v5.73c0 .553-.447 1-1 1z"/><path d="m39 51.133c-.553 0-1-.447-1-1v-5.729c0-.553.447-1 1-1s1 .447 1 1v5.729c0 .553-.447 1-1 1z"/><path d="m32 47.135c-8.822 0-16-7.178-16-16 0-.553.447-1 1-1s1 .447 1 1c0 7.72 6.28 14 14 14s14-6.28 14-14c0-.553.447-1 1-1s1 .447 1 1c0 8.822-7.178 16-16 16z"/><path d="m17 32.135c-.553 0-1-.447-1-1v-11.002c0-.553.447-1 1-1s1 .447 1 1v11.002c0 .553-.447 1-1 1z"/><path d="m47 32.135c-.553 0-1-.447-1-1v-12c0-.553.447-1 1-1s1 .447 1 1v12c0 .553-.447 1-1 1z"/><path d="m47 20.135c-.553 0-1-.447-1-1 0-3.309-2.691-6-6-6-.553 0-1-.447-1-1s.447-1 1-1c4.411 0 8 3.589 8 8 0 .553-.447 1-1 1z"/><path d="m40 13.135c-.553 0-1-.447-1-1v-5.002c0-.553.447-1 1-1s1 .447 1 1v5.002c0 .553-.447 1-1 1z"/><path d="m40 8.133h-10c-.553 0-1-.447-1-1s.447-1 1-1h10c.553 0 1 .447 1 1s-.447 1-1 1z"/><path d="m17 21.133c-.553 0-1-.447-1-1 0-7.72 6.28-14 14-14 .553 0 1 .447 1 1s-.447 1-1 1c-6.617 0-12 5.383-12 12 0 .553-.447 1-1 1z"/><path d="m47 26.133c-.256 0-.512-.098-.707-.293l-4-4c-.391-.391-.391-1.023 0-1.414s1.023-.391 1.414 0l4 4c.391.391.391 1.023 0 1.414-.195.195-.451.293-.707.293z"/><path d="m32 25.133c-6.206 0-11.301-3.015-11.515-3.143-.473-.284-.626-.897-.343-1.371.283-.472.895-.629 1.371-.345.048.029 4.851 2.858 10.486 2.858s10.438-2.829 10.486-2.858c.477-.284 1.088-.127 1.371.345.283.474.13 1.087-.343 1.371-.212.128-5.307 3.143-11.513 3.143z"/><path d="m17 26.133c-.256 0-.512-.098-.707-.293-.391-.391-.391-1.023 0-1.414l4-4c.391-.391 1.023-.391 1.414 0s.391 1.023 0 1.414l-4 4c-.195.195-.451.293-.707.293z"/><path d="m29 53.133c-.15 0-.303-.034-.445-.105l-4.002-1.998c-.493-.247-.694-.848-.447-1.341.246-.495.848-.694 1.342-.448l4 1.998c.494.247.695.848.448 1.341-.175.351-.529.553-.896.553z"/><path d="m29.001 53.133c-.419 0-.81-.265-.949-.685-.174-.523.109-1.09.634-1.265l2.999-.998c.524-.171 1.09.109 1.265.634.174.523-.109 1.09-.634 1.265l-2.999.998c-.105.034-.212.051-.316.051z"/><path d="m35 53.133c-.367 0-.721-.202-.896-.554-.247-.493-.046-1.094.448-1.341l4-1.998c.494-.246 1.095-.047 1.342.448.247.493.046 1.094-.447 1.341l-4.002 1.998c-.142.072-.295.106-.445.106z"/><path d="m34.999 53.133c-.104 0-.211-.017-.315-.051l-2.999-.998c-.524-.175-.808-.741-.634-1.265.175-.524.742-.805 1.265-.634l2.999.998c.524.175.808.741.634 1.265-.14.42-.531.685-.95.685z"/><path d="m32.03 57.133c-.553 0-1.005-.447-1.005-1s.442-1 .994-1h.011c.552 0 1 .447 1 1s-.448 1-1 1z"/><path d="m32.03 62.139c-.553 0-1.005-.447-1.005-1s.442-1 .994-1h.011c.552 0 1 .447 1 1s-.448 1-1 1z"/><path d="m63 7.869c-.553 0-1-.447-1-1 0-1.697-10.589-5-30-5s-30 3.303-30 5c0 .553-.447 1-1 1s-1-.447-1-1c0-5.537 20.932-7 32-7s32 1.463 32 7c0 .553-.447 1-1 1z"/><path d="m54.995 42.848c-.069 0-.14-.007-.21-.022-3.046-.65-6.853-1.17-11.01-1.502-.551-.044-.962-.526-.918-1.076.044-.552.54-.962 1.076-.918 4.243.339 8.141.872 11.27 1.541.54.115.885.646.769 1.187-.1.468-.515.79-.977.79z"/><path d="m8.997 42.85c-.462 0-.877-.321-.977-.791-.116-.54.229-1.071.769-1.187 3.127-.668 7.025-1.202 11.275-1.543.568-.044 1.033.366 1.077.917s-.366 1.032-.917 1.077c-4.165.334-7.975.854-11.018 1.504-.069.016-.14.023-.209.023z"/><path d="m8.996 11.891c-.069 0-.14-.007-.21-.022-5.912-1.266-8.786-2.902-8.786-5 0-.553.447-1 1-1s1 .447 1 1c0 .417 1.294 1.777 7.204 3.044.54.115.885.646.769 1.187-.101.469-.515.791-.977.791z"/><path d="m54.996 11.891c-.462 0-.876-.321-.977-.791-.116-.54.229-1.071.769-1.187 5.913-1.267 7.208-2.627 7.208-3.044 0-.553.447-1 1-1s1 .447 1 1c0 2.098-2.875 3.733-8.79 4.999-.07.016-.141.023-.21.023z"/><path d="m8.996 50.893c-.069 0-.14-.007-.21-.022-5.912-1.267-8.786-2.902-8.786-5 0-.553.447-1 1-1s1 .447 1 1c0 .417 1.294 1.777 7.204 3.044.54.115.885.646.769 1.187-.101.469-.515.791-.977.791z"/><path d="m54.997 50.893c-.462 0-.876-.321-.977-.791-.116-.54.229-1.071.769-1.187 5.912-1.267 7.207-2.627 7.207-3.044 0-.553.447-1 1-1s1 .447 1 1c0 2.098-2.875 3.732-8.789 4.999-.07.016-.141.023-.21.023z"/><path d="m1 46.869c-.553 0-1-.447-1-1v-39c0-.553.447-1 1-1s1 .447 1 1v39c0 .553-.447 1-1 1z"/><path d="m63 46.869c-.553 0-1-.447-1-1v-39c0-.553.447-1 1-1s1 .447 1 1v39c0 .553-.447 1-1 1z"/><path d="m54.998 50.893c-.553 0-1-.447-1-1v-39.002c0-.553.447-1 1-1s1 .447 1 1v39.002c0 .552-.447 1-1 1z"/><path d="m8.998 50.893c-.553 0-1-.447-1-1v-39.002c0-.553.447-1 1-1s1 .447 1 1v39.002c0 .552-.447 1-1 1z"/></svg>