<svg id="icons" enable-background="new 0 0 64 64" height="512" viewBox="0 0 64 64" width="512" xmlns="http://www.w3.org/2000/svg"><path d="m63.005 28.005v8.99l-9 7v-8.99z" fill="#aab2bd"/><path d="m54.005 35.005-9.01-7 9.01-6.99 9 6.99z" fill="#ccd1d9"/><path d="m54.005 35.005v8.99l-9.01-7v-8.99z" fill="#e6e9ed"/><path d="m29.255 27.055c-2.41.37-4.26 2.44-4.26 4.95s1.84 4.58 4.26 4.95c-.29.99-.68 1.93-1.141 2.83-3.51-.851-6.119-4.011-6.119-7.78s2.609-6.93 6.119-7.78c.461.9.851 1.839 1.141 2.83z" fill="#4a89dc"/><path d="m29.255 27.055c.48 1.561.74 3.23.74 4.95s-.26 3.39-.74 4.95c-2.42-.37-4.26-2.44-4.26-4.95s1.85-4.58 4.26-4.95z" fill="#5d9cec"/><path d="m28.114 39.785c-1.22 2.359-2.97 4.399-5.1 5.95l-22.02-13.73 22.02-13.74c2.13 1.561 3.88 3.601 5.1 5.96-3.51.851-6.119 4.011-6.119 7.78s2.609 6.93 6.119 7.78z" fill="#e6e9ed"/><path d="m.997 32.998c-.334 0-.66-.167-.85-.471-.292-.469-.149-1.086.319-1.378l24.846-15.496c.47-.292 1.086-.149 1.378.319s.149 1.086-.319 1.378l-24.846 15.497c-.165.102-.347.151-.528.151z"/><path d="m25.839 48.498c-.181 0-.363-.049-.528-.151l-24.844-15.5c-.469-.293-.611-.909-.319-1.378.292-.468.908-.61 1.378-.319l24.844 15.5c.469.293.611.909.319 1.378-.19.303-.516.47-.85.47z"/><path d="m.997 32.998c-.334 0-.66-.167-.85-.471-.292-.469-.149-1.086.319-1.378l24.846-15.496c.47-.292 1.086-.149 1.378.319s.149 1.086-.319 1.378l-24.846 15.497c-.165.102-.347.151-.528.151z"/><path d="m25.839 48.498c-.181 0-.363-.049-.528-.151l-24.844-15.5c-.469-.293-.611-.909-.319-1.378.292-.468.908-.61 1.378-.319l24.844 15.5c.469.293.611.909.319 1.378-.19.303-.516.47-.85.47z"/><path d="m29.261 37.945c-.048 0-.098-.003-.146-.011-2.919-.43-5.12-2.981-5.12-5.937 0-2.954 2.201-5.507 5.12-5.937.545-.087 1.055.298 1.135.844.081.546-.297 1.055-.844 1.135-1.944.287-3.411 1.988-3.411 3.958s1.467 3.672 3.411 3.958c.547.08.924.589.844 1.135-.074.498-.501.855-.989.855z"/><path d="m28.112 40.775c-.078 0-.157-.009-.235-.028-4.053-.978-6.883-4.575-6.883-8.749 0-4.173 2.829-7.771 6.881-8.749.529-.132 1.076.2 1.206.737.13.536-.2 1.077-.737 1.206-3.149.761-5.35 3.56-5.35 6.806s2.201 6.045 5.352 6.806c.537.129.867.67.737 1.206-.11.458-.52.765-.971.765z"/><path d="m54 44.99c-.553 0-1-.447-1-1v-8.998c0-.553.447-1 1-1s1 .447 1 1v8.998c0 .553-.447 1-1 1z"/><path d="m54.001 44.99c-.299 0-.594-.133-.79-.386-.34-.437-.261-1.064.175-1.403l9.004-7c.438-.342 1.067-.26 1.403.175.34.437.261 1.064-.175 1.403l-9.004 7c-.182.143-.399.211-.613.211z"/><path d="m53.999 44.99c-.214 0-.43-.068-.612-.21l-9.004-6.996c-.437-.339-.516-.968-.177-1.403.34-.436.966-.516 1.403-.177l9.004 6.996c.437.339.516.968.177 1.403-.197.254-.492.387-.791.387z"/><path d="m54.001 35.996c-.299 0-.594-.133-.791-.387-.339-.436-.26-1.063.177-1.403l9.004-6.998c.435-.34 1.064-.259 1.403.177s.26 1.063-.177 1.403l-9.004 6.998c-.181.142-.398.21-.612.21z"/><path d="m53.999 35.996c-.214 0-.431-.068-.613-.211l-9.004-7c-.436-.339-.515-.967-.175-1.403.338-.435.967-.515 1.403-.175l9.004 7c.436.339.515.967.175 1.403-.196.253-.492.386-.79.386z"/><path d="m44.997 28.998c-.299 0-.594-.133-.791-.387-.339-.437-.26-1.064.177-1.403l9.004-6.988c.438-.34 1.065-.259 1.403.177.339.437.26 1.064-.177 1.403l-9.004 6.988c-.182.142-.398.21-.612.21z"/><path d="m63.003 29c-.214 0-.43-.068-.612-.21l-9.004-6.99c-.437-.339-.516-.967-.177-1.403s.966-.516 1.403-.177l9.004 6.99c.437.339.516.967.177 1.403-.197.254-.492.387-.791.387z"/><path d="m44.996 37.994c-.553 0-1-.447-1-1v-8.996c0-.553.447-1 1-1s1 .447 1 1v8.996c0 .553-.447 1-1 1z"/><path d="m63.004 37.99c-.553 0-1-.447-1-1v-8.992c0-.553.447-1 1-1s1 .447 1 1v8.992c0 .553-.447 1-1 1z"/><path d="m40.994 32.998h-4.998c-.553 0-1-.447-1-1s.447-1 1-1h4.998c.553 0 1 .447 1 1s-.447 1-1 1z"/><path d="m40.994 38.998h-7c-.553 0-1-.447-1-1s.447-1 1-1h7c.553 0 1 .447 1 1s-.447 1-1 1z"/><path d="m47 44.998h-15.008c-.553 0-1-.447-1-1s.447-1 1-1h15.008c.553 0 1 .447 1 1s-.447 1-1 1z"/><path d="m40.994 27h-7c-.553 0-1-.447-1-1s.447-1 1-1h7c.553 0 1 .447 1 1s-.447 1-1 1z"/><path d="m47 21h-15.008c-.553 0-1-.447-1-1s.447-1 1-1h15.008c.553 0 1 .447 1 1s-.447 1-1 1z"/><path d="m23.013 46.734c-.309 0-.612-.142-.809-.41-.325-.445-.229-1.071.218-1.397 4.113-3.006 6.568-7.838 6.568-12.927 0-5.088-2.456-9.922-6.57-12.929-.446-.326-.543-.952-.218-1.397.327-.447.952-.543 1.397-.218 4.629 3.383 7.391 8.819 7.391 14.544s-2.762 11.16-7.389 14.542c-.177.13-.384.192-.588.192z"/></svg>