<svg id="icons" enable-background="new 0 0 64 64" height="512" viewBox="0 0 64 64" width="512" xmlns="http://www.w3.org/2000/svg"><path d="m32 .996c-3.52 0-6.55 2.049-8 5.01 1.45 2.971 4.48 5.01 8 5.01s6.55-2.039 8-5.01c-1.45-2.961-4.48-5.01-8-5.01z" fill="#e6e9ed"/><g fill="#545c66"><path d="m1 45.004h3v9h-3z"/><path d="m1 16.004h3v9h-3z"/><path d="m60 45.004h3v9h-3z"/><path d="m60 16.004h3v9h-3z"/></g><path d="m32 3.006c1.65 0 3 1.34 3 3s-1.35 3-3 3-3-1.34-3-3 1.35-3 3-3z" fill="#5d9cec"/><path d="m41 22.006v3.029l-3-2.029s-2.01 1-5.5 1-6.5-1-6.5-1l-3 2.029v-3.029c0-4.42 3.58-8 8-8h6v4c2.21 0 4 1.789 4 4z" fill="#965353"/><path d="m37 21.006c.552 0 1 .447 1 1v1l3 2.029v-3.029c0-2.211-1.79-4-4-4v-4h-3v4c0 1.656 1.343 3 3 3z" fill="#844747"/><path d="m41 25.035v2.969c0 3.531-2.04 6.59-5 8.061-1.2.6-2.57.939-4 .939s-2.8-.34-4-.939c-2.96-1.471-5-4.529-5-8.061v-2.969l3-2.029s3.01 1 6.5 1 5.5-1 5.5-1z" fill="#eac6bb"/><path d="m38 23.006h-.003v4.998c0 3.531-2.04 6.59-5 8.061-.771.385-1.616.648-2.499.799.491.084.99.141 1.502.141 1.43 0 2.8-.34 4-.939 2.96-1.471 5-4.529 5-8.061v-2.969z" fill="#d3b1a9"/><path d="m10 31.504v.5c0 3.871 3.13 7 7 7h10c-3.53 0-6.59 2.041-8.06 5h-.01-1.93c-6.63 0-12-5.369-12-12v-.5c0-1.379 1.12-2.5 2.5-2.5s2.5 1.121 2.5 2.5z" fill="#ccd1d9"/><path d="m32 37.004c1.43 0 2.8-.34 4-.939v2.939l-2 2-2-1-2 1-2-2v-2.939c1.2.599 2.57.939 4 .939z" fill="#f5f7fa"/><path d="m59 32.004c0 6.631-5.37 12-12 12h-1.93-.01c-1.47-2.959-4.529-5-8.06-5h10c3.87 0 7-3.129 7-7v-.5c0-1.379 1.12-2.5 2.5-2.5s2.5 1.121 2.5 2.5z" fill="#ccd1d9"/><path d="m54.5 58.004c1.38 0 2.5 1.121 2.5 2.5 0 1.381-1.12 2.5-2.5 2.5h-.5c-7.19 0-13-5.809-13-13v13h-18v-13c0 7.191-5.81 13-13 13h-.5c-1.38 0-2.5-1.119-2.5-2.5 0-1.379 1.12-2.5 2.5-2.5h.5c4.42 0 8-3.58 8-8v-2c0-1.439.34-2.799.94-4 1.47-2.959 4.529-5 8.06-5h1l2 2 2-1 2 1 2-2h1c3.53 0 6.59 2.041 8.06 5 .601 1.201.94 2.561.94 4v2c0 4.42 3.58 8 8 8z" fill="#e6e9ed"/><path d="m32.03 47.006c-.553 0-1.005-.447-1.005-1s.442-1 .994-1h.011c.552 0 1 .447 1 1s-.448 1-1 1z"/><path d="m32.03 52.006c-.553 0-1.005-.447-1.005-1s.442-1 .994-1h.011c.552 0 1 .447 1 1s-.448 1-1 1z"/><path d="m32.03 57.006c-.553 0-1.005-.447-1.005-1s.442-1 .994-1h.011c.552 0 1 .447 1 1s-.448 1-1 1z"/><path d="m32.03 62.006c-.553 0-1.005-.447-1.005-1s.442-1 .994-1h.011c.552 0 1 .447 1 1s-.448 1-1 1z"/><path d="m32 38.006c-5.514 0-10-4.486-10-10 0-.553.447-1 1-1s1 .447 1 1c0 4.411 3.589 8 8 8s8-3.589 8-8c0-.553.447-1 1-1s1 .447 1 1c0 5.514-4.486 10-10 10z"/><path d="m23 29.006c-.553 0-1-.447-1-1v-6c0-.553.447-1 1-1s1 .447 1 1v6c0 .553-.447 1-1 1z"/><path d="m41 29.006c-.553 0-1-.447-1-1v-6.002c0-.553.447-1 1-1s1 .447 1 1v6.002c0 .553-.447 1-1 1z"/><path d="m10 59.006c-.553 0-1-.447-1-1s.447-1 1-1c3.859 0 7-3.141 7-7 0-.553.447-1 1-1s1 .447 1 1c0 4.963-4.037 9-9 9z"/><path d="m18 49.006c-.553 0-1-.447-1-1 0-5.514 4.486-10 10-10 .553 0 1 .447 1 1s-.447 1-1 1c-4.411 0-8 3.589-8 8 0 .553-.447 1-1 1z"/><path d="m10 64.006c-.553 0-1-.447-1-1s.447-1 1-1c6.617 0 12-5.383 12-12 0-.553.447-1 1-1s1 .447 1 1c0 7.72-6.28 14-14 14z"/><path d="m9.5 64.006c-1.93 0-3.5-1.57-3.5-3.5s1.57-3.5 3.5-3.5c.553 0 1 .447 1 1s-.447 1-1 1c-.827 0-1.5.673-1.5 1.5s.673 1.5 1.5 1.5c.553 0 1 .447 1 1s-.447 1-1 1z"/><path d="m18 51.006c-.553 0-1-.447-1-1v-2c0-.553.447-1 1-1s1 .447 1 1v2c0 .553-.447 1-1 1z"/><path d="m23 64.006c-.553 0-1-.447-1-1v-13c0-.553.447-1 1-1s1 .447 1 1v13c0 .553-.447 1-1 1z"/><path d="m10 64.006h-.5c-.553 0-1-.447-1-1s.447-1 1-1h.5c.553 0 1 .447 1 1s-.447 1-1 1z"/><path d="m10 59.006h-.5c-.553 0-1-.447-1-1s.447-1 1-1h.5c.553 0 1 .447 1 1s-.447 1-1 1z"/><path d="m54 59.006c-4.963 0-9-4.037-9-9 0-.553.447-1 1-1s1 .447 1 1c0 3.859 3.141 7 7 7 .553 0 1 .447 1 1s-.447 1-1 1z"/><path d="m46 49.006c-.553 0-1-.447-1-1 0-4.411-3.589-8-8-8-.553 0-1-.447-1-1s.447-1 1-1c5.514 0 10 4.486 10 10 0 .553-.447 1-1 1z"/><path d="m54 64.006c-7.72 0-14-6.28-14-14 0-.553.447-1 1-1s1 .447 1 1c0 6.617 5.383 12 12 12 .553 0 1 .447 1 1s-.447 1-1 1z"/><path d="m54.5 64.006c-.553 0-1-.447-1-1s.447-1 1-1c.827 0 1.5-.673 1.5-1.5s-.673-1.5-1.5-1.5c-.553 0-1-.447-1-1s.447-1 1-1c1.93 0 3.5 1.57 3.5 3.5s-1.57 3.5-3.5 3.5z"/><path d="m46 51.006c-.553 0-1-.447-1-1v-2c0-.553.447-1 1-1s1 .447 1 1v2c0 .553-.447 1-1 1z"/><path d="m41 64.006c-.553 0-1-.447-1-1v-13c0-.553.447-1 1-1s1 .447 1 1v13c0 .553-.447 1-1 1z"/><path d="m54.5 64.006h-.5c-.553 0-1-.447-1-1s.447-1 1-1h.5c.553 0 1 .447 1 1s-.447 1-1 1z"/><path d="m54.5 59.006h-.5c-.553 0-1-.447-1-1s.447-1 1-1h.5c.553 0 1 .447 1 1s-.447 1-1 1z"/><path d="m41 64.006c-.553 0-1-.447-1-1v-13c0-.553.447-1 1-1s1 .447 1 1v13c0 .553-.447 1-1 1z"/><path d="m34 42.006c-.256 0-.512-.098-.707-.293-.391-.391-.391-1.023 0-1.414l2-2c.391-.391 1.023-.391 1.414 0s.391 1.023 0 1.414l-2 2c-.195.195-.451.293-.707.293z"/><path d="m33.999 42.006c-.15 0-.303-.034-.446-.105l-2-1c-.494-.247-.694-.848-.447-1.342.248-.494.848-.692 1.342-.447l2 1c.494.247.694.848.447 1.342-.176.35-.529.552-.896.552z"/><path d="m30.001 42.006c-.367 0-.72-.202-.896-.553-.247-.494-.047-1.095.447-1.342l2-1c.494-.245 1.094-.047 1.342.447.247.494.047 1.095-.447 1.342l-2 1c-.143.072-.296.106-.446.106z"/><path d="m30 42.006c-.256 0-.512-.098-.707-.293l-2-2c-.391-.391-.391-1.023 0-1.414s1.023-.391 1.414 0l2 2c.391.391.391 1.023 0 1.414-.195.195-.451.293-.707.293z"/><path d="m28 40.006c-.553 0-1-.447-1-1v-2.938c0-.553.447-1 1-1s1 .447 1 1v2.938c0 .553-.447 1-1 1z"/><path d="m36 40.006c-.553 0-1-.447-1-1v-2.938c0-.553.447-1 1-1s1 .447 1 1v2.938c0 .553-.447 1-1 1z"/><path d="m47 40.006c-.553 0-1-.447-1-1s.447-1 1-1c3.309 0 6-2.691 6-6 0-.553.447-1 1-1s1 .447 1 1c0 4.411-3.589 8-8 8z"/><path d="m47 45.006c-.553 0-1-.447-1-1s.447-1 1-1c6.065 0 11-4.935 11-11 0-.553.447-1 1-1s1 .447 1 1c0 7.168-5.832 13-13 13z"/><path d="m59 32.506c-.553 0-1-.447-1-1 0-.827-.673-1.5-1.5-1.5s-1.5.673-1.5 1.5c0 .553-.447 1-1 1s-1-.447-1-1c0-1.93 1.57-3.5 3.5-3.5s3.5 1.57 3.5 3.5c0 .553-.447 1-1 1z"/><path d="m59 33.006c-.553 0-1-.447-1-1v-.5c0-.553.447-1 1-1s1 .447 1 1v.5c0 .553-.447 1-1 1z"/><path d="m54 33.006c-.553 0-1-.447-1-1v-.5c0-.553.447-1 1-1s1 .447 1 1v.5c0 .553-.447 1-1 1z"/><path d="m47 40.006h-11c-.553 0-1-.447-1-1s.447-1 1-1h11c.553 0 1 .447 1 1s-.447 1-1 1z"/><path d="m47 45.006h-1.935c-.553 0-1-.447-1-1s.447-1 1-1h1.935c.553 0 1 .447 1 1s-.447 1-1 1z"/><path d="m17 40.006c-4.411 0-8-3.589-8-8 0-.553.447-1 1-1s1 .447 1 1c0 3.309 2.691 6 6 6 .553 0 1 .447 1 1s-.447 1-1 1z"/><path d="m17 45.006c-7.168 0-13-5.832-13-13 0-.553.447-1 1-1s1 .447 1 1c0 6.065 4.935 11 11 11 .553 0 1 .447 1 1s-.447 1-1 1z"/><path d="m10 32.506c-.553 0-1-.447-1-1 0-.827-.673-1.5-1.5-1.5s-1.5.673-1.5 1.5c0 .553-.447 1-1 1s-1-.447-1-1c0-1.93 1.57-3.5 3.5-3.5s3.5 1.57 3.5 3.5c0 .553-.447 1-1 1z"/><path d="m5 33.006c-.553 0-1-.447-1-1v-.5c0-.553.447-1 1-1s1 .447 1 1v.5c0 .553-.447 1-1 1z"/><path d="m10 33.006c-.553 0-1-.447-1-1v-.5c0-.553.447-1 1-1s1 .447 1 1v.5c0 .553-.447 1-1 1z"/><path d="m28 40.006h-11c-.553 0-1-.447-1-1s.447-1 1-1h11c.553 0 1 .447 1 1s-.447 1-1 1z"/><path d="m18.935 45.006h-1.935c-.553 0-1-.447-1-1s.447-1 1-1h1.935c.553 0 1 .447 1 1s-.448 1-1 1z"/><path d="m41 23.004c-.553 0-1-.447-1-1 0-1.653-1.346-2.998-3-2.998-.553 0-1-.447-1-1s.447-1 1-1c2.757 0 5 2.242 5 4.998 0 .553-.447 1-1 1z"/><path d="m37 19.006c-.553 0-1-.447-1-1v-4c0-.553.447-1 1-1s1 .447 1 1v4c0 .553-.447 1-1 1z"/><path d="m23 23.006c-.553 0-1-.447-1-1 0-4.963 4.037-9 9-9 .553 0 1 .447 1 1s-.447 1-1 1c-3.859 0-7 3.141-7 7 0 .553-.447 1-1 1z"/><path d="m40.999 26.031c-.192 0-.387-.056-.559-.171l-3-2.025c-.458-.31-.578-.931-.27-1.389.31-.458.929-.577 1.389-.27l3 2.025c.458.31.578.931.27 1.389-.193.287-.509.441-.83.441z"/><path d="m32.5 25.006c-3.612 0-6.687-1.008-6.815-1.051-.523-.175-.807-.74-.634-1.264.174-.523.739-.808 1.264-.635.029.01 2.908.949 6.186.949 3.178 0 5.04-.888 5.059-.897.493-.239 1.094-.037 1.337.457s.043 1.09-.449 1.336c-.093.045-2.262 1.105-5.948 1.105z"/><path d="m23.001 26.031c-.321 0-.637-.154-.83-.44-.309-.458-.188-1.079.27-1.389l3-2.025c.459-.308 1.079-.188 1.389.27.309.458.188 1.079-.27 1.389l-3 2.025c-.172.115-.367.17-.559.17z"/><path d="m37 15.006h-6c-.553 0-1-.447-1-1s.447-1 1-1h6c.553 0 1 .447 1 1s-.447 1-1 1z"/><path d="m32 12.02c-3.811 0-7.22-2.136-8.898-5.575-.136-.276-.136-.601 0-.877 1.678-3.438 5.088-5.574 8.898-5.574s7.22 2.136 8.898 5.573c.136.276.136.601 0 .877-1.678 3.44-5.087 5.576-8.898 5.576zm-6.87-6.014c1.406 2.488 3.996 4.014 6.87 4.014s5.464-1.525 6.87-4.014c-1.406-2.487-3.996-4.012-6.87-4.012s-5.464 1.525-6.87 4.012z"/><path d="m32 10.008c-2.206 0-4-1.795-4-4.002 0-2.206 1.794-4 4-4s4 1.794 4 4c0 2.207-1.794 4.002-4 4.002zm0-6.002c-1.103 0-2 .897-2 2 0 1.104.897 2.002 2 2.002s2-.898 2-2.002c0-1.103-.897-2-2-2z"/><path d="m4 55.006h-3c-.553 0-1-.447-1-1s.447-1 1-1h2v-7.002h-2c-.553 0-1-.447-1-1s.447-1 1-1h3c.553 0 1 .447 1 1v9.002c0 .553-.447 1-1 1z"/><path d="m7.999 46.004h-.999c-.553 0-1-.447-1-1s.447-1 1-1h.999c.553 0 1 .447 1 1s-.447 1-1 1z"/><path d="m7.999 49.004h-.999c-.553 0-1-.447-1-1s.447-1 1-1h.999c.553 0 1 .447 1 1s-.447 1-1 1z"/><path d="m7.999 52.006h-.999c-.553 0-1-.447-1-1s.447-1 1-1h.999c.553 0 1 .447 1 1s-.447 1-1 1z"/><path d="m7.999 55.006h-.999c-.553 0-1-.447-1-1s.447-1 1-1h.999c.553 0 1 .447 1 1s-.447 1-1 1z"/><path d="m1 57.006c-.553 0-1-.447-1-1v-13.002c0-.553.447-1 1-1s1 .447 1 1v13.002c0 .553-.447 1-1 1z"/><path d="m4 26.01h-3c-.553 0-1-.447-1-1s.447-1 1-1h2v-7.002h-2c-.553 0-1-.447-1-1s.447-1 1-1h3c.553 0 1 .447 1 1v9.002c0 .553-.447 1-1 1z"/><path d="m7.999 17.006h-.999c-.553 0-1-.447-1-1s.447-1 1-1h.999c.553 0 1 .447 1 1s-.447 1-1 1z"/><path d="m7.999 20.008h-.999c-.553 0-1-.447-1-1s.447-1 1-1h.999c.553 0 1 .447 1 1s-.447 1-1 1z"/><path d="m7.999 23.008h-.999c-.553 0-1-.447-1-1s.447-1 1-1h.999c.553 0 1 .447 1 1s-.447 1-1 1z"/><path d="m7.999 26.01h-.999c-.553 0-1-.447-1-1s.447-1 1-1h.999c.553 0 1 .447 1 1s-.447 1-1 1z"/><path d="m1 28.008c-.553 0-1-.447-1-1v-13c0-.553.447-1 1-1s1 .447 1 1v13c0 .553-.447 1-1 1z"/><path d="m63 55.006h-3c-.553 0-1-.447-1-1v-9.002c0-.553.447-1 1-1h3c.553 0 1 .447 1 1s-.447 1-1 1h-2v7.002h2c.553 0 1 .447 1 1s-.447 1-1 1z"/><path d="m57 46.004h-.999c-.553 0-1-.447-1-1s.447-1 1-1h.999c.553 0 1 .447 1 1s-.447 1-1 1z"/><path d="m57 49.004h-.999c-.553 0-1-.447-1-1s.447-1 1-1h.999c.553 0 1 .447 1 1s-.447 1-1 1z"/><path d="m57 52.006h-.999c-.553 0-1-.447-1-1s.447-1 1-1h.999c.553 0 1 .447 1 1s-.447 1-1 1z"/><path d="m57 55.006h-.999c-.553 0-1-.447-1-1s.447-1 1-1h.999c.553 0 1 .447 1 1s-.447 1-1 1z"/><path d="m63 57.006c-.553 0-1-.447-1-1v-13.002c0-.553.447-1 1-1s1 .447 1 1v13.002c0 .553-.447 1-1 1z"/><path d="m63 26.01h-3c-.553 0-1-.447-1-1v-9.002c0-.553.447-1 1-1h3c.553 0 1 .447 1 1s-.447 1-1 1h-2v7.002h2c.553 0 1 .447 1 1s-.447 1-1 1z"/><path d="m57 17.006h-.999c-.553 0-1-.447-1-1s.447-1 1-1h.999c.553 0 1 .447 1 1s-.447 1-1 1z"/><path d="m57 20.008h-.999c-.553 0-1-.447-1-1s.447-1 1-1h.999c.553 0 1 .447 1 1s-.447 1-1 1z"/><path d="m57 23.008h-.999c-.553 0-1-.447-1-1s.447-1 1-1h.999c.553 0 1 .447 1 1s-.447 1-1 1z"/><path d="m57 26.01h-.999c-.553 0-1-.447-1-1s.447-1 1-1h.999c.553 0 1 .447 1 1s-.447 1-1 1z"/><path d="m63 28.008c-.553 0-1-.447-1-1v-13c0-.553.447-1 1-1s1 .447 1 1v13c0 .553-.447 1-1 1z"/></svg>