<svg id="retail-02" xmlns="http://www.w3.org/2000/svg" viewBox="0 0 723.89 333.65"><defs><style>.cls-1,.cls-14{fill:#3c3c41;}.cls-1,.cls-11,.cls-18,.cls-21,.cls-23,.cls-8,.cls-9{fill-rule:evenodd;}.cls-10,.cls-12,.cls-13,.cls-15,.cls-16,.cls-17,.cls-2,.cls-3,.cls-4,.cls-5{font-size:12px;font-family:SegoeUI-Semibold, Segoe UI;font-weight:600;}.cls-10,.cls-2,.cls-3,.cls-4,.cls-5,.cls-6{fill:#fff;}.cls-2{letter-spacing:0em;}.cls-13,.cls-4{letter-spacing:0em;}.cls-16,.cls-5{letter-spacing:-0.01em;}.cls-22,.cls-7{fill:none;stroke-linejoin:round;}.cls-7{stroke:#53ad47;}.cls-19,.cls-8{fill:#ebebeb;}.cls-11,.cls-20,.cls-9{fill:#53ad47;}.cls-10{letter-spacing:-0.03em;}.cls-11{opacity:0.85;}.cls-12,.cls-13,.cls-15,.cls-16,.cls-17{fill:#231f20;}.cls-12{letter-spacing:0em;}.cls-17{letter-spacing:-0.02em;}.cls-18,.cls-24{fill:#f3f3f4;}.cls-21{fill:#75767a;}.cls-22{stroke:#62c6be;}.cls-23{fill:#62c6be;}</style></defs><title>app-ser-Retail</title><path class="cls-1" d="M351.58,141.92H699.77l15,27.82-14.51,27.82H352.12c15.8-27.76,15.87-27.62,15.87-28.2C368,170.14,367.75,169.73,351.58,141.92Z"/><text class="cls-2" transform="translate(427.84 166.65)">Flexible and adaptable; connect to with existing</text><text class="cls-3" transform="translate(427.84 181.33)">external systems and services</text><path class="cls-1" d="M352.36,203.75H700.55l15,27.82-14.51,27.82H352.89c15.81-27.77,15.87-27.62,15.87-28.2C368.76,232,368.52,231.55,352.36,203.75Z"/><text class="cls-4" transform="translate(428.89 229.25)">Configuration driven, flexible to customize,</text><text class="cls-4" transform="translate(428.89 243.93)">maintain at your pace</text><path class="cls-1" d="M351.58,15.18H699.77L714.8,43,700.29,70.82H352.12C367.92,43.06,368,43.2,368,42.62,368,43.4,367.75,43,351.58,15.18Z"/><text class="cls-3" transform="translate(427.84 40.68)">Simple, retail optimized solution that is faster</text><text class="cls-5" transform="translate(427.84 55.37)">to implement</text><rect class="cls-6" x="396.79" y="25.61" width="0.77" height="4.64" rx="0.13"/><rect class="cls-7" x="396.79" y="25.61" width="0.77" height="4.64" rx="0.13"/><path class="cls-6" d="M404.18,27.79a.11.11,0,0,1,.14,0l.34.21a.11.11,0,0,1,0,.14l-2.24,3.71a.09.09,0,0,1-.13,0l-.35-.21a.09.09,0,0,1,0-.13Z"/><path class="cls-7" d="M404.18,27.79a.11.11,0,0,1,.14,0l.34.21a.1.1,0,0,1,0,.14l-2.23,3.71a.09.09,0,0,1-.13,0l-.35-.21a.09.09,0,0,1,0-.13Z"/><path class="cls-6" d="M388.17,28.13a.1.1,0,0,1,0-.14l.34-.21a.1.1,0,0,1,.14,0l2.3,3.67a.11.11,0,0,1,0,.14l-.34.21a.1.1,0,0,1-.14,0Z"/><path class="cls-7" d="M388.17,28.13a.1.1,0,0,1,0-.14l.34-.21a.1.1,0,0,1,.14,0l2.3,3.67a.11.11,0,0,1,0,.14l-.34.21a.1.1,0,0,1-.14,0Z"/><path class="cls-6" d="M409.92,34.25a.11.11,0,0,1,.14,0l.22.34a.1.1,0,0,1,0,.14l-3.63,2.36a.11.11,0,0,1-.14,0l-.22-.34a.1.1,0,0,1,0-.14Z"/><path class="cls-7" d="M409.92,34.25a.11.11,0,0,1,.14,0l.22.34a.1.1,0,0,1,0,.14l-3.63,2.36a.11.11,0,0,1-.14,0l-.22-.34a.1.1,0,0,1,0-.14Z"/><path class="cls-6" d="M386.36,37.12a.11.11,0,0,0,.14,0l.22-.34a.1.1,0,0,0,0-.14l-3.63-2.36a.11.11,0,0,0-.14,0l-.22.34a.1.1,0,0,0,0,.14Z"/><path class="cls-7" d="M386.36,37.12a.11.11,0,0,0,.14,0l.22-.34a.1.1,0,0,0,0-.14l-3.63-2.36a.11.11,0,0,0-.14,0l-.22.34a.1.1,0,0,0,0,.14Z"/><rect class="cls-6" x="407.61" y="42.62" width="4.64" height="0.77" rx="0.13"/><rect class="cls-7" x="407.61" y="42.62" width="4.64" height="0.77" rx="0.13"/><rect class="cls-6" x="382.11" y="42.62" width="4.64" height="0.77" rx="0.13"/><rect class="cls-7" x="382.11" y="42.62" width="4.64" height="0.77" rx="0.13"/><path class="cls-6" d="M409.85,47.26a.1.1,0,0,1,.06.13l-.15.38a.1.1,0,0,1-.13.06l-4-1.56a.1.1,0,0,1-.06-.13l.14-.37a.1.1,0,0,1,.13-.06Z"/><path class="cls-7" d="M409.85,47.26a.1.1,0,0,1,.06.13l-.15.38a.1.1,0,0,1-.13.06l-4-1.56a.1.1,0,0,1-.06-.13l.14-.37a.1.1,0,0,1,.13-.06Z"/><path class="cls-6" d="M383.39,47.26a.1.1,0,0,0-.06.13l.14.38a.1.1,0,0,0,.13.06l4-1.56a.1.1,0,0,0,.06-.13l-.15-.37a.1.1,0,0,0-.13-.06Z"/><path class="cls-7" d="M383.39,47.26a.1.1,0,0,0-.06.13l.14.38a.1.1,0,0,0,.13.06l4-1.56a.1.1,0,0,0,.06-.13l-.15-.37a.1.1,0,0,0-.13-.06Z"/><path class="cls-8" d="M397.38,32.26h-.08c-4.64-.08-8.46,3.29-8.54,7.51-.08,2.42,1.87,4.15,2.85,6.26a4.51,4.51,0,0,1,.57,1.41c.16.62.24,1.09.32,1.56a2.75,2.75,0,0,0,1,2.35l7.08.15a2.81,2.81,0,0,0,1.05-2.34,8,8,0,0,1,1-3,16.21,16.21,0,0,1,1.54-2.42A6.78,6.78,0,0,0,405.68,40C405.68,35.78,402,32.34,397.38,32.26Z"/><path class="cls-9" d="M396.55,59.23h1.26c.49,0,.92-.62.92-1.39l-3.1-.15A1.68,1.68,0,0,0,396.55,59.23Z"/><path class="cls-9" d="M399.89,52.37l-5.34-.09a1.21,1.21,0,0,0-1.23,1.11,1.3,1.3,0,0,0,1.15,1.11l5.34.09A1.16,1.16,0,0,0,401,53.48,1.15,1.15,0,0,0,399.89,52.37Z"/><path class="cls-9" d="M399.25,55.43l-4.84-.06c-.63,0-1.09.32-1.09.71s.46.7,1,.77l4.92.06c.55,0,1-.32,1-.71S399.88,55.43,399.25,55.43Z"/><path class="cls-1" d="M395,36.47h0c-.93.33-1.29,1.47-1.43,2.37h0a1,1,0,0,1-.86,1.07,1.08,1.08,0,0,1-.93-1.07v-.16c.21-2,1.29-3.77,2.79-4.18h.22a.94.94,0,0,1,.85,1A1,1,0,0,1,395,36.47Z"/><path class="cls-1" d="M352.36,77.78H700.55l15,27.82-14.51,27.82H352.89c15.81-27.77,15.87-27.62,15.87-28.2C368.76,106,368.52,105.59,352.36,77.78Z"/><text class="cls-10" transform="translate(428.89 111.01)">Start with retail and expand and scale easily</text><polygon class="cls-11" points="10.78 15.18 346.62 15.18 361.63 43 347.14 70.82 10.78 70.82 10.78 15.18"/><text class="cls-12" transform="translate(89.17 40.68)">Difficult to implement with long</text><text class="cls-13" transform="translate(89.17 55.37)">project timelines</text><rect class="cls-14" x="10.78" y="15.18" width="66.46" height="55.64"/><polygon class="cls-11" points="10.78 77.78 347.36 77.78 362.4 105.6 347.88 133.42 10.78 133.42 10.78 77.78"/><text class="cls-13" transform="translate(89.36 111.01)">Challenging to start small and expand later</text><polygon class="cls-11" points="10.78 141.92 346.62 141.92 361.63 169.74 347.14 197.56 10.78 197.56 10.78 141.92"/><text class="cls-15" transform="translate(89.36 166.65)">Inflexible and incompatible with</text><text class="cls-15" transform="translate(89.36 181.33)">existing systems</text><polygon class="cls-11" points="10.78 203.75 347.36 203.75 362.4 231.57 347.88 259.39 10.78 259.39 10.78 203.75"/><text class="cls-15" transform="translate(89.36 229.25)">Hard to customize; even harder and expensive</text><text class="cls-16" transform="translate(89.36 243.93)">to maintain</text><rect class="cls-14" x="10.78" y="77.78" width="66.46" height="55.64"/><rect class="cls-14" x="10.78" y="141.92" width="66.46" height="55.64"/><polygon class="cls-9" points="68.74 168.69 62.91 168.69 62.91 162.79 59.92 162.79 59.92 163.89 53.08 163.89 53.08 166.05 47.1 166.05 47.1 167.53 53.08 167.53 53.08 171.18 47.1 171.18 47.1 172.76 53.08 172.76 53.08 174.77 59.92 174.77 59.92 175.93 62.91 175.93 62.91 170.46 68.74 170.46 68.74 168.69"/><polygon class="cls-8" points="28.79 162.01 26.59 164.87 26.49 164.87 26.49 164.97 26.49 165.07 26.49 168.18 20.82 168.18 20.82 170.08 26.49 170.08 26.49 173.74 26.49 173.99 26.69 173.99 28.79 176.7 43.23 176.7 43.13 173.99 43.13 164.87 43.23 162.01 28.79 162.01"/><rect class="cls-14" x="10.78" y="203.75" width="66.46" height="55.64"/><polygon class="cls-11" points="10.78 266.34 347.36 266.34 362.4 294.16 347.88 321.99 10.78 321.99 10.78 266.34"/><text class="cls-13" transform="translate(89.13 291.85)">Cannot stay current and innovate to stay ahead</text><text class="cls-17" transform="translate(89.13 306.53)">of market trends and competition</text><rect class="cls-14" x="10.78" y="266.34" width="66.46" height="55.64"/><path class="cls-1" d="M351.58,266.34H699.77l15,27.44-14.51,27.43H352.12C367.92,293.83,368,294,368,293.4,368,294.17,367.75,293.77,351.58,266.34Z"/><text class="cls-4" transform="translate(427.85 291.07)">Continuous update, take advantage of innovation</text><text class="cls-3" transform="translate(427.85 305.76)">faster (1st and 3rd party solutions on AppSource)</text><path class="cls-9" d="M40.14,230v11.77a1,1,0,0,1-.24.8,1.46,1.46,0,0,1-.48.81.82.82,0,0,1-.49.26,1.1,1.1,0,0,1-1.44,0c-.25,0-.49-.26-.73-.26-.24-.27-.24-.54-.48-.81V230Z"/><polygon class="cls-18" points="40.14 215.34 36.28 215.34 36.28 219.09 37.47 220.02 37.47 230.02 39.25 230.02 39.25 220.02 40.14 219.09 40.14 215.34"/><rect class="cls-14" x="36.28" y="232.34" width="3.86" height="2.32"/><path class="cls-18" d="M48.64,242.91a1,1,0,1,1,1-1A1.11,1.11,0,0,1,48.64,242.91Zm4.12-25.27a5.12,5.12,0,0,0-1-1.54,3.38,3.38,0,0,0-1-.76v5.1H46.58v-5.1c-.51.25-.77.51-1.29.76-.25.51-.77,1-1,1.54,0,.51-.25,1.27-.25,1.78s.25,1,.25,1.53a4.09,4.09,0,0,0,1,1.54l.52.51c.26.25.51.25.77.51v19.15c.26.25.26.51.52.76s.51.26.77.51h1.55c.25-.25.51-.25.77-.51,0-.25.26-.51.26-.76a1,1,0,0,0,.25-.77V223.51c.26-.26.52-.26.52-.51a.55.55,0,0,0,.51-.51,2.52,2.52,0,0,0,1-1.28,6.46,6.46,0,0,0,.52-1.79A4.64,4.64,0,0,0,52.76,217.64Z"/><path class="cls-9" d="M44.63,281a3.56,3.56,0,0,1,2,.6l0,0,.06,0a3.5,3.5,0,0,1,.52,5.39l-.3.25h-.14l-.18.15a3.53,3.53,0,1,1-2-6.46Zm-8.54.07a3.51,3.51,0,0,1,2,6.42h0l-.23.08-.57.3-.41.13a3.35,3.35,0,0,1-.71.07,3.51,3.51,0,1,1,0-7Zm17.38,0A3.51,3.51,0,1,1,50,284.61,3.51,3.51,0,0,1,53.47,281.1Zm-22.09,8.18H36l-.1.18a3.62,3.62,0,0,0-.27,1.36v9.3a3.47,3.47,0,0,0,1,2.46l1.07.73v9.4H31.61v-11h-.23a2.07,2.07,0,0,1-2.06-2.07v-8.24A2.07,2.07,0,0,1,31.38,289.28Zm22,0h4.83a2.07,2.07,0,0,1,2.06,2.07v8.24a2.07,2.07,0,0,1-2.06,2.07H58v11H51.57v-9.38h0a3.47,3.47,0,0,0,2.12-3.21v-9.3a3.62,3.62,0,0,0-.27-1.36Zm-13.15.05h9.17a2.06,2.06,0,0,1,2.06,2.06v8.25a2.06,2.06,0,0,1-2.06,2.06h-.13v11H40.32v-11h-.13a2.06,2.06,0,0,1-2.06-2.06v-8.25A2.07,2.07,0,0,1,40.19,289.33Z"/><circle class="cls-19" cx="44.78" cy="284.12" r="3.86"/><rect class="cls-19" x="40.14" y="297.26" width="9.27" height="15.46"/><rect class="cls-19" x="37.82" y="288.75" width="13.91" height="13.14" rx="2.71"/><rect class="cls-20" x="29.32" y="111.78" width="8.5" height="8.5"/><polygon class="cls-18" points="33.19 89.37 33.19 99.07 50.51 99.07 50.51 120.28 60.23 120.28 60.23 89.37 33.19 89.37"/><polygon class="cls-21" points="30.87 100.96 30.87 109.72 39.76 109.72 39.76 120.28 48.64 120.28 48.64 100.96 30.87 100.96"/><path class="cls-8" d="M35.13,48.1H37V50H35.13Zm5.73,0h2V50h-2Zm5.88,0h1.88V50H46.74ZM35.13,44.31H37v1.93H35.13Zm5.73,0h2v1.93h-2Zm5.88,0h1.88v1.93H46.74Zm5.8,0h1.89v1.93H52.54ZM35.13,40.45H37v1.93H35.13Zm5.73,0h2v1.93h-2Zm5.88,0h1.88v1.93H46.74Zm5.8,0h1.89v1.93H52.54ZM40.86,36.66h2v1.93h-2Zm5.88,0h1.88v1.93H46.74Zm5.8,0h1.89v1.93H52.54ZM54.43,31h0V29.09h3.85v3.79H31.21V29.09h3.92V31H37V29.09H52.54V31Zm-1.89-5.72h0v1.93H37V25.23H35.13v1.93H29.32V53.82H60.23V27.16h-5.8V25.23Z"/><polygon class="cls-9" points="35.12 51.12 35.12 51.12 38.21 51.12 38.21 48.02 35.12 48.02 35.12 51.12"/><polygon class="cls-22" points="35.12 51.12 35.12 51.12 38.21 51.12 38.21 48.02 35.12 48.02 35.12 51.12"/><polygon class="cls-9" points="41.3 51.12 41.3 51.12 44.39 51.12 44.39 48.02 41.3 48.02 41.3 51.12"/><polygon class="cls-22" points="41.3 51.12 41.3 51.12 44.39 51.12 44.39 48.02 41.3 48.02 41.3 51.12"/><polygon class="cls-9" points="46.71 51.12 46.71 51.12 49.8 51.12 49.8 48.02 46.71 48.02 46.71 51.12"/><polygon class="cls-22" points="46.71 51.12 46.71 51.12 49.8 51.12 49.8 48.02 46.71 48.02 46.71 51.12"/><polygon class="cls-9" points="41.3 48.02 41.3 48.02 44.39 48.02 44.39 44.93 41.3 44.93 41.3 48.02"/><polygon class="cls-22" points="41.3 48.02 41.3 48.02 44.39 48.02 44.39 44.93 41.3 44.93 41.3 48.02"/><polygon class="cls-9" points="41.3 43.39 41.3 43.39 44.39 43.39 44.39 41.07 41.3 41.07 41.3 43.39"/><polygon class="cls-22" points="41.3 43.39 41.3 43.39 44.39 43.39 44.39 41.07 41.3 41.07 41.3 43.39"/><polygon class="cls-9" points="41.3 39.52 41.3 39.52 44.39 39.52 44.39 37.21 41.3 37.21 41.3 39.52"/><polygon class="cls-22" points="41.3 39.52 41.3 39.52 44.39 39.52 44.39 37.21 41.3 37.21 41.3 39.52"/><polygon class="cls-23" points="52.12 39.52 52.12 39.52 55.21 39.52 55.21 37.21 52.12 37.21 52.12 39.52"/><polygon class="cls-7" points="52.12 39.52 52.12 39.52 55.21 39.52 55.21 37.21 52.12 37.21 52.12 39.52"/><polygon class="cls-1" points="34.73 47.64 34.73 47.64 37.82 47.64 37.82 44.55 34.73 44.55 34.73 47.64"/><polygon class="cls-1" points="34.73 43 34.73 43 37.82 43 37.82 40.68 34.73 40.68 34.73 43"/><polygon class="cls-1" points="34.73 39.14 34.73 39.14 37.82 39.14 37.82 36.82 34.73 36.82 34.73 39.14"/><polygon class="cls-1" points="46.32 47.64 46.32 47.64 49.42 47.64 49.42 44.55 46.32 44.55 46.32 47.64"/><polygon class="cls-1" points="46.32 43 46.32 43 49.42 43 49.42 40.68 46.32 40.68 46.32 43"/><polygon class="cls-1" points="46.32 39.14 46.32 39.14 49.42 39.14 49.42 36.82 46.32 36.82 46.32 39.14"/><polygon class="cls-1" points="51.73 47.64 51.73 47.64 54.83 47.64 54.83 44.55 51.73 44.55 51.73 47.64"/><polygon class="cls-1" points="51.73 43 51.73 43 54.83 43 54.83 40.68 51.73 40.68 51.73 43"/><polygon class="cls-9" points="52.12 51.12 52.12 51.12 55.21 51.12 55.21 48.02 52.12 48.02 52.12 51.12"/><polygon class="cls-22" points="52.12 51.12 52.12 51.12 55.21 51.12 55.21 48.02 52.12 48.02 52.12 51.12"/><path class="cls-21" d="M392.93,183.49,385.34,177l4.74-1.63ZM388.5,166l5.69,5.52-3.16,1.3Zm7.59,4.22L388.5,163l13.91-2.6Zm11.7,4.88-10.12-3.9L404,161.4Zm-13.91,5.52-2.22-6.17,3.48-1.3ZM397,173.1l10.12,3.9-11.7,7.14Zm13.28,3.57-5.06-17.55-1.27-1-18,3.25-.63,1.3,3.8,10.72-6.33,2.28-.31,2,11.06,9.09,2.53-.65L410,177.65Z"/><circle class="cls-24" cx="394.09" cy="185.97" r="3.09"/><circle class="cls-24" cx="409.54" cy="176.7" r="3.09"/><circle class="cls-24" cx="386.36" cy="162.79" r="3.09"/><circle class="cls-20" cx="396.41" cy="172.06" r="3.09"/><circle class="cls-24" cx="404.91" cy="159.7" r="3.09"/><circle class="cls-24" cx="383.27" cy="176.7" r="3.09"/><path class="cls-18" d="M403.66,113.22H389.11l-.76-4.2h17.1L408,95.39H386.05l-1-5.25h-4.85v2.1h3.32l3.57,21.24a3.23,3.23,0,0,0-1.79,2.88,3.07,3.07,0,1,0,6.13,0,1.6,1.6,0,0,0-.26-1h9.7a1.65,1.65,0,0,0-.25,1,3.06,3.06,0,1,0,3.06-3.14Z"/><polygon class="cls-9" points="412.64 90.14 404.56 90.14 407.79 93.39 399.4 101.83 394.24 96.64 387.13 103.78 387.78 106.37 394.24 99.88 399.4 105.07 409.41 95.01 412.64 98.26 412.64 90.14"/><path class="cls-18" d="M396.41,279a14.74,14.74,0,0,1,8.24,2.3l.52.25,3.6-3.57v9.19H399.5l4.12-4.08h0a13.92,13.92,0,0,0-7.21-2.05,13.29,13.29,0,1,0,13.39,13.29h2.06A15.46,15.46,0,1,1,396.41,279Z"/><path class="cls-9" d="M386.36,299.06v-1.29a2.76,2.76,0,0,0,2.06.52,1.92,1.92,0,0,0,1.29-.26,1,1,0,0,0,.51-1c0-1-.77-1.55-2.31-1.55h-.52v-1.29h.52c1.28,0,2.06-.51,2.06-1.28a1.37,1.37,0,0,0-1.55-1.55,2.8,2.8,0,0,0-1.8.77v-1.28a6.1,6.1,0,0,1,2.32-.52,3.71,3.71,0,0,1,1.8.52,2.23,2.23,0,0,1,.77,1.54,2.05,2.05,0,0,1-1.8,2.32h0a2.23,2.23,0,0,1,1.54.77,2,2,0,0,1,.52,1.29,2.09,2.09,0,0,1-1,2.06,3.14,3.14,0,0,1-2.32.77A4.84,4.84,0,0,1,386.36,299.06Z"/><path class="cls-9" d="M397.55,296.74a1,1,0,0,0-.24-.77c0-.26,0-.52-.23-.52,0-.26-.24-.26-.47-.51h-1.18c0,.25-.23.25-.23.51-.24,0-.24.26-.47.52v1a1,1,0,0,1,.23.77c.24.26.47.26.47.52h1.18c.23-.26.47-.26.47-.52.23,0,.23-.26.23-.51C397.55,297,397.55,297,397.55,296.74Zm1.18-.26a2.46,2.46,0,0,1-.24,1.29,2.07,2.07,0,0,1-.47,1c-.24.26-.47.26-.94.52-.24.25-.47.25-.94.25a2,2,0,0,1-1.18-.25c-.23-.26-.7-.52-.94-.78a2.07,2.07,0,0,1-.47-1.28,4.26,4.26,0,0,1-.23-1.81,8,8,0,0,1,.23-2.32c.24-.51.47-1,.71-1.54a4.16,4.16,0,0,1,1.17-1,2.73,2.73,0,0,1,1.41-.26h.71c.47,0,.47.26.7.26v1.29c-.23,0-.47-.26-.7-.26H395.9l-.7.77c0,.26-.24.52-.24,1a2.12,2.12,0,0,0-.23,1.29h0l.7-.77c.24,0,.71-.26.94-.26.47,0,.71.26.94.26.47.25.71.25.94.51,0,.26.24.52.48,1Z"/><path class="cls-9" d="M403.36,291.33c-1,0-1.54,1.29-1.54,3.61s.51,3.35,1.54,3.35,1.55-1,1.55-3.35S404.39,291.33,403.36,291.33Zm-.26,8.24a2.63,2.63,0,0,1-2.06-1.28,5.58,5.58,0,0,1-.77-3.1,6.86,6.86,0,0,1,.77-3.6,2.72,2.72,0,0,1,2.32-1.29q3.09,0,3.09,4.64a5.84,5.84,0,0,1-.77,3.35A3.58,3.58,0,0,1,403.1,299.57Z"/><path class="cls-18" d="M381.92,236.82h13.52v2.88h-4.83v1.91H402.2V239.7h-4.83v-2.88H410.9c.48,0,1-.24,1-.72V218.61a1,1,0,0,0-1-1h-29a1,1,0,0,0-1,1V236.1c0,.48.48.72,1,.72"/><circle class="cls-20" cx="403.75" cy="225.77" r="2.7"/><path class="cls-1" d="M405.61,224.16c0,.25.25.5.25.74.24.25.24.5.24,1a.94.94,0,0,1-.24.75c0,.25-.25.74-.5.74l-.74.75h-1.74c-.25-.25-.5-.25-.74-.5v-.25c-.25,0-.5-.49-.75-.74v-.75h0v-1l.75-.74c.24-.25.49-.5.74-.5a.93.93,0,0,1,.74-.24h.25a.94.94,0,0,1,.75.24c.24,0,.49.25.74.5h.25m1.73-1.74h-.25v-.24h0l.25-1.74h0v-.25l-2.23-1-.49.5-.75,1.24h-.25l-1.24-1.74-2.47,1,.49,2h0v.24h-.25l-2-.24-1,2.48.74.24,1,.75v.49l-1.23.5-.5.49.25.5.74,1.49v.49l2-.49h.25v.25h0l-.49,2,2.47,1,1.24-1.74h.25l1.24,1.74,2.23-1-.25-2h0v-.25h.25l2,.49,1-2.48-1.74-1v-.49l1.74-1-1-2.48-2,.24h0"/><path class="cls-1" d="M388.58,223.84c0,.24,0,.48-.24.48,0,.24,0,.48-.24.48,0,.25-.24.25-.48.25,0,.24-.25.24-.49.24s-.48,0-.48-.24c-.24,0-.48,0-.48-.25-.24,0-.24-.24-.49-.48v-.48h0v-.48c.25-.25.25-.25.25-.49h.24c0-.24.24-.24.48-.24,0-.24.24-.24.48-.24s.49,0,.49.24c.24,0,.48,0,.48.24h0c.24.24.24.24.24.49.24,0,.24.24.24.48h0m1.45,0h0v-.24l1-.49h0v-.24h0l-.73-1.2H390l-.72.24-.25-.24.25-1.21-1.45-.49-.49,1h-.48l-.48-1-1.45.49v.48l.24.73-.24.24-.73-.24h-.48v.24l-.48,1v.24l1,.49v.24h0v.24l-1,.48.48,1.45,1.21-.24.24.24-.24,1.21,1.45.48.48-1h.48l.49,1,1.45-.48-.25-1.21.25-.24,1,.24.73-1.45-1-.48v-.24"/><path class="cls-9" d="M396.94,230.2l-2.86,3L391.93,231l2.86-3a2,2,0,0,0-1.19-.25,2.88,2.88,0,0,0-1.43.25c-.48.25-.72.5-1.2.75-.23.5-.47.75-.71,1.25a3.29,3.29,0,0,0-.24,1.5v.5c0,.25,0,.5.24.5l-8.83,9.25a.79.79,0,0,0-.24.5,1.29,1.29,0,0,0,0,1.5c0,.25,0,.25.24.5s.24.25.48.25a.83.83,0,0,0,.71.25.86.86,0,0,0,.72-.25.7.7,0,0,0,.47-.25l8.83-9.25c0,.25.24.25.48.25h.48A2.9,2.9,0,0,0,395,235c.48-.25.72-.5,1.19-.75.24-.5.48-.75.72-1.25a3.29,3.29,0,0,0,.24-1.5,2.33,2.33,0,0,0-.24-1.25"/></svg>