<?xml version="1.0" encoding="utf-8"?>
<!-- Generator: Adobe Illustrator 23.0.3, SVG Export Plug-In . SVG Version: 6.00 Build 0)  -->
<svg version="1.1" id="Layer_2" xmlns="http://www.w3.org/2000/svg" xmlns:xlink="http://www.w3.org/1999/xlink" x="0px" y="0px"
	 viewBox="0 0 988.9 620" style="enable-background:new 0 0 988.9 620;" xml:space="preserve">
<style type="text/css">
	.st0{opacity:0.1;fill:#6C63FF;enable-background:new    ;}
	.st1{fill:#3576AB;}
	.st2{fill:#B7DDF7;}
	.st3{fill:#303033;}
	.st4{fill:#121214;}
	.st5{fill:#939598;}
	.st6{fill:#BCBEC0;}
	.st7{fill:#535359;}
	.st8{fill:#1D374E;}
	.st9{fill:#C7A496;}
	.st10{fill:#F0C6B4;}
	.st11{fill:#0F2034;}
	.st12{fill:#24D2C1;}
	.st13{fill:#FF9D26;}
	.st14{fill:#FFFFFF;}
	.st15{fill:#603913;}
	.st16{fill:#FF3F4A;}
	.st17{fill:#469CE0;}
	.st18{fill:#E31B25;}
	.st19{fill:#FF8400;}
	.st20{fill:#3E8BC9;}
	.st21{fill:#5CB7FF;}
	.st22{fill:#D1D3D4;}
	.st23{fill:#2A4E68;}
	.st24{fill:#9C251F;}
	.st25{fill:#174666;}
</style>
<path class="st0" d="M554.8,126c-59,0.4-115.6-12.9-169.8-27.7S277.1,66.8,219.3,60c-37.2-4.4-79.5-3.7-108.7,13.3
	c-28.1,16.4-36.4,43.2-40.5,68c-3.1,18.6-4.6,38.2,6.3,55.2c7.6,11.8,20.6,21.4,29.7,32.7c31.9,39,12.1,89.2-19.5,129.6
	c-14.8,18.9-32.1,37.1-43.4,57.1s-16,42.6-4.8,62.2c11.1,19.4,36.3,33.4,63.4,42.9c55.1,19.3,119.3,23.1,181.8,24.3
	c138.4,2.7,277.2-5.5,415.6-13.8c51.2-3,102.7-6.1,152.9-14.3c27.9-4.5,56.6-11.2,76.4-25.5c25.2-18.2,30.6-47.6,12.5-68.6
	c-30.3-35.2-110.8-41.4-132.5-79.6c-11.9-21-1.3-45.3,14.2-65.8c33.3-43.9,90.3-83.3,91.6-132.2c0.9-33.5-28.3-66.1-72.2-80.3
	c-46-15-109-10.7-141.5,18C667.1,112.6,606.8,125.6,554.8,126z"/>
<g>
	<g>
		<g>
			<path class="st1" d="M485.8,577.6V576c4.1,0,8.2-0.1,12.3-0.3l0.1,1.5C494.1,577.5,489.9,577.6,485.8,577.6z M473.4,577.3
				c-4.1-0.2-8.3-0.5-12.3-0.9l0.2-1.5c4,0.4,8.2,0.7,12.3,0.9L473.4,577.3z M510.5,576.3l-0.2-1.5c4.1-0.4,8.2-0.9,12.2-1.5
				l0.2,1.5C518.7,575.4,514.6,575.9,510.5,576.3z M448.8,574.8c-4.1-0.6-8.2-1.3-12.2-2.2l0.3-1.5c4,0.8,8.1,1.5,12.1,2.1
				L448.8,574.8z M534.9,572.6l-0.3-1.5c4-0.8,8-1.8,12-2.8l0.4,1.5C543,570.8,539,571.8,534.9,572.6z M424.6,569.9
				c-4-1-8-2.2-11.9-3.4l0.5-1.5c3.9,1.2,7.9,2.3,11.8,3.4L424.6,569.9z M558.9,566.4l-0.5-1.5c3.9-1.2,7.8-2.6,11.6-4l0.5,1.4
				C566.8,563.8,562.8,565.2,558.9,566.4z M400.9,562.5c-3.9-1.4-7.7-3-11.5-4.6l0.6-1.4c3.8,1.6,7.6,3.2,11.4,4.6L400.9,562.5z
				 M582.1,557.8l-0.6-1.4c3.8-1.6,7.5-3.3,11.1-5.1l0.7,1.4C589.6,554.5,585.8,556.2,582.1,557.8z M378.2,552.7
				c-3.7-1.8-7.4-3.8-11-5.7l0.7-1.3c3.6,2,7.2,3.9,10.9,5.7L378.2,552.7z M604.2,546.9l-0.7-1.3c3.5-2,7.1-4.1,10.6-6.2l0.8,1.3
				C611.4,542.8,607.8,544.9,604.2,546.9z M356.5,540.7c-3.5-2.2-7-4.5-10.3-6.8l0.9-1.3c3.3,2.3,6.8,4.6,10.3,6.8L356.5,540.7z
				 M625.2,533.8l-0.9-1.3c3.3-2.3,6.7-4.8,9.9-7.3l0.9,1.2C631.9,529,628.5,531.5,625.2,533.8z M336.2,526.5
				c-3.2-2.5-6.5-5.1-9.6-7.8l1-1.2c3.1,2.7,6.3,5.3,9.5,7.8L336.2,526.5z M644.7,518.7l-1-1.2c3.1-2.7,6.2-5.4,9.1-8.2l1.1,1.1
				C650.9,513.2,647.8,516,644.7,518.7z M317.4,510.4c-3-2.8-5.9-5.8-8.8-8.7l1.1-1.1c2.8,2.9,5.7,5.9,8.7,8.7L317.4,510.4z
				 M662.7,501.7l-1.1-1.1c2.8-3,5.6-6,8.2-9.1l1.2,1C668.3,495.6,665.5,498.7,662.7,501.7z M300.4,492.5c-2.7-3.1-5.3-6.3-7.8-9.6
				l1.2-0.9c2.5,3.2,5.1,6.4,7.8,9.5L300.4,492.5z M678.8,482.9l-1.2-0.9c2.5-3.2,5-6.6,7.3-9.9l1.3,0.9
				C683.8,476.3,681.3,479.6,678.8,482.9z M285.2,473c-2.3-3.3-4.6-6.8-6.8-10.3l1.3-0.8c2.2,3.5,4.5,6.9,6.8,10.2L285.2,473z
				 M693,462.6l-1.3-0.8c2.2-3.5,4.3-7,6.3-10.6l1.3,0.8C697.3,455.5,695.1,459.1,693,462.6z M272.1,452c-2-3.6-3.9-7.3-5.7-10.9
				l1.4-0.7c1.8,3.7,3.7,7.3,5.7,10.9L272.1,452z M705,440.9l-1.4-0.7c1.8-3.7,3.5-7.4,5.2-11.2l1.4,0.6
				C708.6,433.5,706.8,437.2,705,440.9z M261.2,429.8c-1.6-3.8-3.2-7.6-4.6-11.5l1.4-0.5c1.4,3.8,3,7.6,4.6,11.4L261.2,429.8z
				 M714.8,418.2l-1.4-0.5c1.4-3.9,2.8-7.8,4-11.7l1.5,0.5C717.6,410.3,716.2,414.3,714.8,418.2z M252.6,406.7
				c-1.2-3.9-2.4-7.9-3.4-11.9l1.5-0.4c1,4,2.2,7.9,3.4,11.8L252.6,406.7z M722.2,394.5l-1.5-0.4c1-4,2-8,2.8-12l1.5,0.3
				C724.2,386.5,723.2,390.5,722.2,394.5z M246.4,382.7c-0.8-4-1.6-8.1-2.2-12.2l1.5-0.2c0.6,4,1.3,8.1,2.2,12.1L246.4,382.7z
				 M727.1,370.3l-1.5-0.2c0.6-4,1.1-8.1,1.5-12.2l1.5,0.2C728.3,362.1,727.8,366.2,727.1,370.3z M242.6,358.3
				c-0.4-4.1-0.7-8.2-0.9-12.3l1.5-0.1c0.2,4.1,0.5,8.2,0.9,12.3L242.6,358.3z M729.6,345.7l-1.5-0.1c0.2-4.1,0.3-8.2,0.3-12.3v-0.5
				h1.5v0.5C729.9,337.4,729.8,341.6,729.6,345.7z M242.9,333.6h-1.5v-0.3c0-4,0.1-8.1,0.3-12.1l1.5,0.1c-0.2,4-0.3,8-0.3,12V333.6z
				 M728,320.5c-0.2-4.1-0.5-8.2-0.9-12.3l1.5-0.2c0.4,4.1,0.7,8.2,1,12.3L728,320.5z M244.1,309l-1.5-0.2c0.4-4.1,0.9-8.3,1.5-12.3
				l1.5,0.2C245.1,300.8,244.5,304.9,244.1,309z M725.5,296.1c-0.6-4.1-1.4-8.1-2.2-12.1l1.5-0.3c0.8,4,1.6,8.1,2.2,12.2
				L725.5,296.1z M247.8,284.7l-1.5-0.3c0.8-4,1.7-8.1,2.8-12.1l1.5,0.4C249.5,276.7,248.6,280.7,247.8,284.7z M720.6,272
				c-1-3.9-2.2-7.9-3.4-11.8l1.5-0.5c1.2,3.9,2.4,7.9,3.4,11.9L720.6,272z M253.9,260.9l-1.5-0.5c1.2-3.9,2.6-7.9,4-11.7l1.4,0.5
				C256.5,253.1,255.1,257,253.9,260.9z M713.2,248.5c-1.4-3.8-3-7.7-4.6-11.4l1.4-0.6c1.6,3.7,3.2,7.6,4.6,11.5L713.2,248.5z
				 M262.4,237.8l-1.4-0.6c1.6-3.8,3.4-7.6,5.2-11.3l1.4,0.7C265.8,230.3,264,234.1,262.4,237.8z M703.4,226
				c-1.8-3.7-3.7-7.3-5.7-10.9l1.3-0.8c2,3.6,3.9,7.3,5.7,10.9L703.4,226z M273.3,215.7l-1.3-0.7c2-3.6,4.1-7.2,6.3-10.7l1.3,0.8
				C277.4,208.6,275.3,212.1,273.3,215.7z M691.5,204.6c-2.2-3.4-4.4-6.9-6.8-10.2l1.3-0.9c2.4,3.4,4.7,6.8,6.8,10.3L691.5,204.6z
				 M286.3,194.8l-1.3-0.9c2.3-3.4,4.8-6.7,7.3-10l1.2,0.9C291.1,188.1,288.6,191.5,286.3,194.8z M677.4,184.5
				c-2.5-3.2-5.1-6.4-7.8-9.5l1.2-1c2.7,3.1,5.3,6.3,7.8,9.6L677.4,184.5z M301.3,175.4l-1.2-1c2.7-3.1,5.5-6.2,8.3-9.2l1.1,1.1
				C306.8,169.2,304,172.3,301.3,175.4z M661.3,165.8c-2.8-2.9-5.7-5.9-8.7-8.7l1.1-1.1c3,2.8,5.9,5.8,8.8,8.7L661.3,165.8z
				 M318.3,157.5l-1.1-1.1c3-2.8,6.1-5.6,9.2-8.3l1,1.2C324.3,151.9,321.2,154.7,318.3,157.5z M643.5,148.9
				c-3.1-2.7-6.3-5.3-9.5-7.8l0.9-1.2c3.2,2.5,6.5,5.1,9.6,7.8L643.5,148.9z M336.9,141.5l-0.9-1.2c3.3-2.5,6.6-5,10-7.3l0.9,1.3
				C343.5,136.5,340.1,139,336.9,141.5z M624,133.9c-3.4-2.3-6.8-4.6-10.3-6.8l0.8-1.3c3.5,2.2,7,4.5,10.3,6.8L624,133.9z
				 M357,127.4l-0.8-1.3c3.5-2.2,7-4.3,10.6-6.3l0.8,1.3C364,123.2,360.5,125.3,357,127.4z M603.2,120.9c-3.6-2-7.3-3.9-10.9-5.7
				l0.7-1.4c3.7,1.8,7.4,3.7,11,5.7L603.2,120.9z M378.5,115.5l-0.7-1.4c3.7-1.8,7.5-3.6,11.2-5.2l0.6,1.4
				C385.9,111.9,382.1,113.7,378.5,115.5z M581,110.1c-3.8-1.6-7.6-3.1-11.4-4.6l0.5-1.4c3.9,1.4,7.7,3,11.5,4.6L581,110.1z
				 M401,105.8l-0.5-1.4c3.8-1.4,7.8-2.8,11.7-4l0.5,1.5C408.7,103,404.8,104.3,401,105.8z M557.9,101.5c-3.9-1.2-7.9-2.3-11.8-3.4
				l0.4-1.5c4,1,8,2.2,11.9,3.4L557.9,101.5z M424.4,98.4l-0.4-1.5c4-1,8-2,12-2.8l0.3,1.5C432.4,96.4,428.4,97.4,424.4,98.4z
				 M534.1,95.4c-4-0.8-8.1-1.5-12.1-2.1l0.2-1.5c4.1,0.6,8.2,1.3,12.2,2.1L534.1,95.4z M448.5,93.4l-0.2-1.5
				c4-0.6,8.2-1.1,12.3-1.6l0.2,1.5C456.6,92.3,452.5,92.8,448.5,93.4z M509.8,91.8c-4.1-0.4-8.2-0.7-12.3-0.9l0.1-1.5
				c4.1,0.2,8.2,0.5,12.3,0.9L509.8,91.8z M473,90.9l-0.1-1.5c4.1-0.2,8.3-0.3,12.4-0.3v1.5C481.2,90.6,477,90.7,473,90.9z"/>
			<path class="st2" d="M783.3,250.7c0,42.1-34.1,76.2-76.2,76.2c-42.1,0-76.2-34.1-76.2-76.2c0-42.1,34.1-76.2,76.2-76.2
				C749.2,174.5,783.3,208.6,783.3,250.7z"/>
			<path class="st2" d="M337.9,250.7c0,42.1-34.1,76.2-76.2,76.2c-42.1,0-76.2-34.1-76.2-76.2c0-42.1,34.1-76.2,76.2-76.2
				C303.7,174.5,337.9,208.6,337.9,250.7z"/>
			<path class="st2" d="M400.4,515.5c0,42.1-34.1,76.2-76.2,76.2c-42.1,0-76.2-34.1-76.2-76.2s34.1-76.2,76.2-76.2
				C366.3,439.3,400.4,473.4,400.4,515.5z"/>
			<path class="st2" d="M723,515.5c0,42.1-34.1,76.2-76.2,76.2c-42.1,0-76.2-34.1-76.2-76.2s34.1-76.2,76.2-76.2
				C688.9,439.3,723,473.4,723,515.5z"/>
			<path class="st2" d="M560.7,92.9c0,42.1-34.1,76.2-76.2,76.2c-42.1,0-76.2-34.1-76.2-76.2c0-42.1,34.1-76.2,76.2-76.2
				C526.5,16.7,560.7,50.8,560.7,92.9z"/>
		</g>
		<g>
			<g>
				<path class="st3" d="M499.1,360.6l-108.2,62.5c-2.8,1.6-5.1,0.3-5.1-2.9V302.3c0-3.2,2.3-7.2,5.1-8.8L499.1,231
					c2.8-1.6,5.1-0.3,5.1,2.9v117.9C504.2,355.1,501.9,359,499.1,360.6L499.1,360.6z"/>
				<path class="st4" d="M387.3,423.5c-0.9-0.5-1.5-1.7-1.5-3.3V302.3c0-3.2,2.3-7.2,5.1-8.8L499.1,231c1.4-0.8,2.6-0.9,3.5-0.4
					l-11.1-6.4v0c-0.9-0.6-2.2-0.5-3.7,0.3L379.7,287c-2.8,1.6-5.1,5.6-5.1,8.8v117.9c0,1.6,0.6,2.8,1.5,3.3L387.3,423.5z"/>
			</g>
			<g>
				<g>
					<path class="st5" d="M454.9,329.4c-0.3-0.2-0.5-0.6-0.5-1.2v-9c0-1.2,0.9-2.7,1.9-3.4l9.6-5.5c0.5-0.3,1-0.3,1.3-0.2l-1.5-0.8
						c-0.3-0.2-0.8-0.2-1.4,0.1l-9.6,5.5c-1.1,0.6-1.9,2.1-1.9,3.4v9c0,0.6,0.2,1,0.5,1.2l0,0L454.9,329.4z"/>
					<path class="st6" d="M465.9,323.7l-9.6,5.5c-1.1,0.6-1.9,0.1-1.9-1.1v-9c0-1.2,0.9-2.7,1.9-3.4l9.6-5.5
						c1.1-0.6,1.9-0.1,1.9,1.1v9C467.9,321.6,467,323.1,465.9,323.7L465.9,323.7z"/>
					<g>
						<path class="st7" d="M459.9,322.3l1-0.6v-3l-0.9,0.5v-0.8c0.5-0.4,0.8-0.7,1.1-1.1l0.8-0.4v4.3l0.9-0.5v1l-2.9,1.7V322.3z"/>
					</g>
				</g>
				<g>
					<path class="st5" d="M470.9,320.2c-0.3-0.2-0.5-0.6-0.5-1.2v-9c0-1.2,0.9-2.7,1.9-3.4l9.6-5.5c0.5-0.3,1-0.3,1.3-0.2l-1.5-0.9
						c-0.4-0.2-0.8-0.2-1.4,0.1l-9.6,5.5c-1.1,0.6-1.9,2.1-1.9,3.4v9c0,0.6,0.2,1,0.5,1.2l0,0L470.9,320.2z"/>
					<path class="st6" d="M481.9,314.5l-9.6,5.5c-1.1,0.6-1.9,0.1-1.9-1.1v-9c0-1.2,0.9-2.7,1.9-3.4l9.6-5.5
						c1.1-0.6,1.9-0.1,1.9,1.1v9C483.8,312.4,483,313.9,481.9,314.5L481.9,314.5z"/>
					<g>
						<path class="st7" d="M475.6,313.5c1.2-1.9,2-3.3,2-4.1c0-0.5-0.2-0.7-0.6-0.4c-0.3,0.2-0.6,0.6-0.8,1l-0.6-0.3
							c0.5-0.8,0.9-1.3,1.5-1.7c0.9-0.5,1.5-0.2,1.5,0.8c0,0.9-0.7,2.2-1.5,3.6c0.2-0.2,0.5-0.4,0.8-0.5l0.9-0.5v1l-3.2,1.8V313.5z"
							/>
					</g>
				</g>
				<g>
					<path class="st5" d="M470.9,370.1c-0.3-0.2-0.5-0.6-0.5-1.2v-9c0-1.2,0.9-2.7,1.9-3.4l9.6-5.5c0.5-0.3,1-0.3,1.3-0.2l-1.5-0.9
						c-0.4-0.2-0.8-0.2-1.4,0.1l-9.6,5.5c-1.1,0.6-1.9,2.1-1.9,3.4v9c0,0.6,0.2,1,0.5,1.2l0,0L470.9,370.1z"/>
					<path class="st6" d="M481.9,364.4l-9.6,5.5c-1.1,0.6-1.9,0.1-1.9-1.1v-9c0-1.2,0.9-2.7,1.9-3.4l9.6-5.5
						c1.1-0.6,1.9-0.1,1.9,1.1v9C483.8,362.3,483,363.8,481.9,364.4L481.9,364.4z"/>
					<g>
						<path class="st7" d="M475.6,361.4c0-1.8,0.7-3.1,1.6-3.6c1-0.6,1.6,0,1.6,1.8c0,1.8-0.7,3.1-1.6,3.7
							C476.3,363.8,475.6,363.2,475.6,361.4z M477.9,360.1c0-1.4-0.3-1.6-0.6-1.4c-0.4,0.2-0.6,0.7-0.6,2.1c0,1.4,0.3,1.6,0.6,1.4
							C477.6,362.1,477.9,361.5,477.9,360.1z"/>
					</g>
				</g>
				<g>
					<path class="st5" d="M454.9,379.3c-0.3-0.2-0.5-0.6-0.5-1.2v-9c0-1.2,0.9-2.7,1.9-3.4l9.6-5.5c0.5-0.3,1-0.3,1.3-0.2l-1.5-0.9
						c-0.4-0.2-0.8-0.2-1.4,0.1l-9.6,5.5c-1.1,0.6-1.9,2.1-1.9,3.4v9c0,0.6,0.2,1,0.5,1.2l0,0L454.9,379.3z"/>
					<path class="st6" d="M465.9,373.7l-9.6,5.5c-1.1,0.6-1.9,0.1-1.9-1.1v-9c0-1.2,0.9-2.7,1.9-3.4l9.6-5.5
						c1.1-0.6,1.9-0.1,1.9,1.1v9C467.8,371.5,467,373,465.9,373.7L465.9,373.7z"/>
					<g>
						<path class="st7" d="M459.1,370.9c0-1.8,1-3.4,2.2-4.1c0.6-0.3,1.1-0.3,1.4-0.1l-0.6,1.1c-0.2-0.1-0.5-0.2-0.8,0
							c-0.6,0.4-1.1,1.3-1.1,2.4c0,1.1,0.4,1.5,1.1,1.1c0.4-0.2,0.7-0.6,0.9-1l0.6,0.4c-0.4,0.7-0.9,1.3-1.5,1.7
							C460.1,373.1,459.1,372.7,459.1,370.9z"/>
					</g>
				</g>
				<g>
					<path class="st5" d="M486.9,360.9c-0.3-0.2-0.5-0.6-0.5-1.2v-9c0-1.2,0.9-2.7,1.9-3.4l9.6-5.5c0.5-0.3,1-0.3,1.3-0.2l-1.5-0.8
						c-0.4-0.2-0.8-0.2-1.4,0.1l-9.6,5.5c-1.1,0.6-1.9,2.1-1.9,3.4v9c0,0.6,0.2,1,0.5,1.2l0,0L486.9,360.9z"/>
					<path class="st6" d="M497.9,355.2l-9.6,5.5c-1.1,0.6-1.9,0.1-1.9-1.1v-9c0-1.2,0.9-2.7,1.9-3.4l9.6-5.5
						c1.1-0.6,1.9-0.1,1.9,1.1v9C499.8,353.1,499,354.6,497.9,355.2L497.9,355.2z"/>
					<polygon class="st7" points="495.1,347.1 495.1,349.9 491.8,351.8 491.8,349.9 488.8,354.4 491.8,355.5 491.8,353.7 
						496.7,350.8 496.7,346.1 					"/>
				</g>
				<g>
					<path class="st5" d="M486.9,310.9c-0.3-0.2-0.5-0.6-0.5-1.2v-9c0-1.2,0.9-2.7,1.9-3.4l9.6-5.5c0.5-0.3,1-0.3,1.3-0.2l-1.5-0.9
						c-0.4-0.2-0.8-0.2-1.4,0.1l-9.6,5.5c-1.1,0.6-1.9,2.1-1.9,3.4v9c0,0.6,0.2,1,0.5,1.2v0L486.9,310.9z"/>
					<path class="st6" d="M497.9,305.3l-9.6,5.5c-1.1,0.6-1.9,0.1-1.9-1.1v-9c0-1.2,0.9-2.7,1.9-3.4l9.6-5.5
						c1.1-0.6,1.9-0.1,1.9,1.1v9C499.8,303.1,499,304.7,497.9,305.3L497.9,305.3z"/>
					<g>
						<path class="st7" d="M491.5,304.3l0.5-1.1c0.3,0.2,0.6,0.2,1,0c0.4-0.3,0.7-0.6,0.7-1c0-0.5-0.2-0.6-1.2,0v-0.9
							c0.8-0.5,1.1-0.9,1.1-1.3c0-0.4-0.2-0.5-0.6-0.3c-0.3,0.2-0.6,0.5-0.9,1l-0.5-0.4c0.4-0.7,0.9-1.2,1.4-1.5
							c0.9-0.5,1.6-0.4,1.6,0.5c0,0.5-0.3,1.1-0.8,1.6v0c0.5-0.1,0.9,0.1,0.9,0.8c0,1-0.8,2-1.7,2.5
							C492.4,304.6,491.8,304.6,491.5,304.3z"/>
					</g>
				</g>
				<g>
					<path class="st5" d="M454.9,346.1c-0.3-0.2-0.5-0.6-0.5-1.2v-9c0-1.2,0.9-2.7,1.9-3.4l9.6-5.5c0.5-0.3,1-0.3,1.3-0.2l-1.5-0.9
						c-0.3-0.2-0.8-0.2-1.4,0.1l-9.6,5.5c-1.1,0.6-1.9,2.1-1.9,3.4v9c0,0.6,0.2,0.9,0.5,1.2l0,0L454.9,346.1z"/>
					<path class="st6" d="M465.9,340.4l-9.6,5.5c-1.1,0.6-1.9,0.1-1.9-1.1v-9c0-1.2,0.9-2.7,1.9-3.4l9.6-5.5
						c1.1-0.6,1.9-0.1,1.9,1.1v9C467.9,338.3,467,339.8,465.9,340.4L465.9,340.4z"/>
					<g>
						<path class="st7" d="M461.5,337.6l-2,1.1v-0.8l1.7-4.1l1.3-0.7v3.1l0.5-0.3v0.9l-0.5,0.3v1.3l-1,0.6V337.6z M461.5,336.6v-0.9
							c0-0.3,0-0.9,0-1.2l0,0c-0.1,0.4-0.2,0.7-0.4,1.1l-0.6,1.5L461.5,336.6z"/>
					</g>
				</g>
				<g>
					<path class="st5" d="M470.9,336.7c-0.3-0.2-0.5-0.6-0.5-1.2v-9c0-1.2,0.9-2.7,1.9-3.4l9.6-5.5c0.5-0.3,1-0.3,1.3-0.2l-1.5-0.9
						c-0.4-0.2-0.8-0.2-1.4,0.1l-9.6,5.5c-1.1,0.6-1.9,2.1-1.9,3.4v9c0,0.6,0.2,1,0.5,1.2l0,0L470.9,336.7z"/>
					<path class="st6" d="M481.9,331.1l-9.6,5.5c-1.1,0.6-1.9,0.1-1.9-1.1v-9c0-1.2,0.9-2.7,1.9-3.4l9.6-5.5
						c1.1-0.6,1.9-0.1,1.9,1.1v9C483.8,329,483,330.5,481.9,331.1L481.9,331.1z"/>
					<g>
						<path class="st7" d="M475.5,330.1l0.5-1c0.3,0.1,0.6,0.2,1,0c0.5-0.3,0.8-0.7,0.8-1.3c0-0.5-0.3-0.6-0.7-0.4
							c-0.3,0.2-0.4,0.3-0.7,0.7l-0.5-0.1l0.1-2.7l2.6-1.5v1l-1.7,1l-0.1,1c0.2-0.2,0.3-0.3,0.5-0.4c0.8-0.5,1.4-0.3,1.4,0.8
							c0,1.2-0.8,2.3-1.7,2.8C476.4,330.3,475.9,330.3,475.5,330.1z"/>
					</g>
				</g>
				<g>
					<path class="st5" d="M486.9,327.5c-0.3-0.2-0.5-0.6-0.5-1.2v-9c0-1.2,0.9-2.7,1.9-3.4l9.6-5.5c0.5-0.3,1-0.3,1.3-0.2l-1.5-0.9
						c-0.4-0.2-0.8-0.2-1.4,0.1l-9.6,5.5c-1.1,0.6-1.9,2.1-1.9,3.4v9c0,0.6,0.2,1,0.5,1.2v0L486.9,327.5z"/>
					<path class="st6" d="M497.9,321.9l-9.6,5.5c-1.1,0.6-1.9,0.1-1.9-1.1v-9c0-1.2,0.9-2.7,1.9-3.4l9.6-5.5
						c1.1-0.6,1.9-0.1,1.9,1.1v9C499.8,319.7,499,321.2,497.9,321.9L497.9,321.9z"/>
					<g>
						<path class="st7" d="M491.6,318.9c0-2,0.9-3.4,1.8-3.9c0.6-0.3,1-0.3,1.3-0.1l-0.6,1c-0.2-0.1-0.4-0.1-0.7,0
							c-0.5,0.3-0.9,0.9-0.9,2.2c0.2-0.5,0.6-0.9,0.9-1.1c0.8-0.5,1.4-0.3,1.4,0.8c0,1.1-0.7,2.2-1.5,2.6
							C492.5,321,491.6,320.8,491.6,318.9z M493.9,318.4c0-0.6-0.3-0.6-0.6-0.4c-0.2,0.1-0.5,0.4-0.7,0.9c0.1,0.8,0.4,0.9,0.7,0.7
							C493.7,319.4,493.9,319,493.9,318.4z"/>
					</g>
				</g>
				<g>
					<path class="st5" d="M454.9,362.7c-0.3-0.2-0.5-0.6-0.5-1.2v-9c0-1.2,0.9-2.7,1.9-3.4l9.6-5.5c0.5-0.3,1-0.3,1.3-0.2l-1.5-0.9
						c-0.3-0.2-0.8-0.2-1.4,0.1l-9.6,5.5c-1.1,0.6-1.9,2.1-1.9,3.4v9c0,0.6,0.2,1,0.5,1.2l0,0L454.9,362.7z"/>
					<path class="st6" d="M465.9,357l-9.6,5.5c-1.1,0.6-1.9,0.1-1.9-1.1v-9c0-1.2,0.9-2.7,1.9-3.4l9.6-5.5c1.1-0.6,1.9-0.1,1.9,1.1
						v9C467.9,354.9,467,356.4,465.9,357L465.9,357z"/>
					<g>
						<path class="st7" d="M461.8,350.8l-2,1.2v-1l3.2-1.8v0.7c-1.1,2.1-1.2,3.2-1.3,5.3l-1.1,0.6
							C460.6,354,460.9,352.7,461.8,350.8z"/>
					</g>
				</g>
				<g>
					<path class="st5" d="M470.9,353.3c-0.3-0.2-0.5-0.6-0.5-1.2v-9c0-1.2,0.9-2.7,1.9-3.4l9.6-5.5c0.5-0.3,1-0.3,1.3-0.2l-1.5-0.8
						c-0.4-0.2-0.8-0.2-1.4,0.1l-9.6,5.5c-1.1,0.6-1.9,2.1-1.9,3.4v9c0,0.6,0.2,0.9,0.5,1.2l0,0L470.9,353.3z"/>
					<path class="st6" d="M481.9,347.7l-9.6,5.5c-1.1,0.6-1.9,0.1-1.9-1.1v-9c0-1.2,0.9-2.7,1.9-3.4l9.6-5.5
						c1.1-0.6,1.9-0.1,1.9,1.1v9C483.8,345.5,483,347.1,481.9,347.7L481.9,347.7z"/>
					<g>
						<path class="st7" d="M475.7,345.7c0-0.6,0.3-1.2,0.8-1.7v0c-0.4-0.1-0.6-0.3-0.6-0.9c0-0.9,0.6-1.8,1.5-2.3
							c0.8-0.5,1.4-0.2,1.4,0.6c0,0.5-0.3,1.1-0.6,1.5v0c0.4,0,0.8,0.2,0.8,0.9c0,0.8-0.6,1.8-1.6,2.4
							C476.3,346.7,475.7,346.5,475.7,345.7z M477.9,344.4c0-0.5-0.4-0.4-1-0.4c-0.2,0.3-0.4,0.7-0.4,1c0,0.5,0.3,0.5,0.7,0.3
							C477.6,345.2,477.9,344.8,477.9,344.4z M477.8,342c0-0.4-0.2-0.6-0.6-0.4c-0.3,0.2-0.5,0.5-0.5,0.9c0,0.4,0.3,0.5,0.8,0.4
							C477.7,342.5,477.8,342.2,477.8,342z"/>
					</g>
				</g>
				<g>
					<path class="st5" d="M486.9,344.1c-0.3-0.2-0.5-0.6-0.5-1.2v-9c0-1.2,0.9-2.8,1.9-3.4l9.6-5.5c0.5-0.3,1-0.3,1.3-0.2l-1.5-0.8
						c-0.4-0.2-0.8-0.2-1.4,0.1l-9.6,5.5c-1.1,0.6-1.9,2.1-1.9,3.4v9c0,0.6,0.2,1,0.5,1.2v0L486.9,344.1z"/>
					<path class="st6" d="M497.9,338.4l-9.6,5.5c-1.1,0.6-1.9,0.1-1.9-1.1v-9c0-1.2,0.9-2.8,1.9-3.4l9.6-5.5
						c1.1-0.6,1.9-0.1,1.9,1.1v9C499.8,336.3,499,337.8,497.9,338.4L497.9,338.4z"/>
					<g>
						<path class="st7" d="M491.7,337.3l0.6-1.1c0.2,0.1,0.4,0.1,0.7,0c0.5-0.3,0.9-0.9,0.9-2.2c-0.2,0.5-0.6,0.9-0.9,1.1
							c-0.8,0.4-1.4,0.3-1.4-0.8c0-1.1,0.7-2.2,1.5-2.6c0.9-0.5,1.7-0.2,1.7,1.6c0,2-0.9,3.4-1.8,3.9
							C492.4,337.5,491.9,337.4,491.7,337.3z M493.8,333.2c-0.1-0.8-0.4-0.9-0.7-0.7c-0.3,0.2-0.6,0.6-0.6,1.2
							c0,0.6,0.3,0.6,0.6,0.4C493.4,334,493.7,333.7,493.8,333.2z"/>
					</g>
				</g>
			</g>
			<g>
				<polygon class="st4" points="470.9,288 467.7,286.1 467.7,257.8 477.5,260.1 				"/>
				<polygon class="st7" points="474.6,261.8 467.7,257.8 483,248.9 490.1,253 				"/>
				<polygon class="st4" points="477.5,260.1 472.5,276.5 470.9,288 486.5,279 490.1,253 				"/>
				<polygon class="st8" points="474.6,261.8 471.2,285.9 484.7,278.2 482.3,257.4 				"/>
				<path class="st1" d="M480.5,258.5l-5.9,3.3l-2.5,17.7c1.9,1.9,4.2,2.2,6.3,0.2c3.4-3.3,4.8-11.5,3.1-18.3
					C481.2,260.3,480.9,259.3,480.5,258.5z"/>
				<g>
					<path class="st9" d="M551.5,276.7c-4.2,1-11.9,3.4-11.9,3.4l1.2,2.8l11.5-0.2C552.3,282.7,551.7,277,551.5,276.7z"/>
					<path class="st9" d="M535.4,280.8c0,0-8.4,2.9-16.4,6.8c-1.6,1-11.3,17.6-11.3,17.6c1.4,8.4,4.6,17.1,7.2,19.8
						c2.6,2.7,13.5,5.7,18.6,6l14.2-20.4L535.4,280.8z"/>
					<path class="st10" d="M556.4,276.9c-5-2.2-10.5,3.1-10.5,3.1s-5.7-1-9.8,0.5c-4.1,1.5-8.4,10.7-8.4,10.7s-13.3-5.6-15.8-6.9
						c-14.1-7.5-20.2-13.5-20.2-13.5s-7.5-8.9-11.8-11.9l-5.1,2.9l-1.3,9c1.9,3.8,4.6,7.7,5.5,9c6.8,9.1,14.8,16.6,14.8,16.6
						s13.4,10.4,22.9,14.6c7,10.3,16.9,17.5,18,28.2c-8.7,1.8-24,8.3-29.5,11.6c-5.5,3.3-8.7,13-9.2,14.3c-0.5,1.4,1,6.5,5,5.2
						c4-1.3,12.7-6,20.8-7.8c8.1-1.8,15.9-2.2,22-3.2c4.8-0.7,8.6,0.4,21.7,0.7c13.1,0.3,15-2.2,37.3,0.4l9.7-50.3
						C591.9,299.5,586.2,289.8,556.4,276.9z"/>
					<path class="st9" d="M620.7,337.5c-2.4,14-10.7,24.2-18.4,22.9c-7.8-1.3-12.1-13.8-9.7-27.7c2.4-14,10.7-24.2,18.4-22.9
						C618.8,311.1,623.1,323.6,620.7,337.5z"/>
				</g>
			</g>
			<g>
				<path class="st4" d="M444.1,383.7l-49.4,28.5c-2.1,1.2-3.8,0.2-3.8-2.2V306.6c0-2.4,1.7-5.4,3.8-6.6l49.4-28.5
					c2.1-1.2,3.8-0.2,3.8,2.2v103.5C447.9,379.5,446.2,382.5,444.1,383.7L444.1,383.7z"/>
				<path class="st11" d="M444,281.3v94c0,1.6-1.1,3.5-2.4,4.2l-44.4,25.7c-1.3,0.8-2.4,0.1-2.4-1.4v-0.3c0,0,0.1,0,0.1-0.1
					l44.4-25.7c1.3-0.8,2.4-2.7,2.4-4.2v-93.7C443,279.1,444,279.8,444,281.3L444,281.3z"/>
				<path class="st8" d="M441.7,279.8v93.7c0,1.6-1.1,3.5-2.4,4.2l-44.4,25.7c0,0-0.1,0-0.1,0.1v-93.7c0-1.6,1.1-3.4,2.4-4.2
					l44.4-25.7C441.6,279.8,441.7,279.8,441.7,279.8L441.7,279.8z"/>
				<path class="st12" d="M434.8,360.1l-33.1,19.1c-1.4,0.8-2.5,2.8-2.5,4.4c0,1.6,1.1,2.3,2.5,1.5l33.1-19.1
					c1.4-0.8,2.5-2.7,2.5-4.3C437.3,360,436.1,359.3,434.8,360.1z"/>
				<path class="st13" d="M434.8,370l-33.1,19.1c-1.4,0.8-2.5,2.8-2.5,4.4c0,1.6,1.1,2.3,2.5,1.4l33.1-19.1c1.4-0.8,2.5-2.8,2.5-4.4
					C437.3,369.9,436.1,369.2,434.8,370z"/>
				<g>
					<path class="st1" d="M437.3,318.3c0,17.7-8.5,37.1-19.1,43.1c-10.5,6.1-19.1-3.4-19.1-21.1c0-17.7,8.5-37,19.1-43.1
						C428.7,291.1,437.3,300.6,437.3,318.3L437.3,318.3z"/>
					<path class="st12" d="M431.8,318.5c-0.3,0.2-0.6,0.6-0.6,1v6.6c0,0.4,0.3,0.5,0.6,0.3c0.3-0.2,0.6-0.6,0.6-1v-6.6
						C432.4,318.5,432.2,318.4,431.8,318.5L431.8,318.5z"/>
					<path class="st12" d="M418.3,342.1c0.3-0.2,0.6-0.6,0.6-1v-22.1c0-0.4-0.3-0.5-0.6-0.3c-0.3,0.2-0.6,0.6-0.6,1v22.1
						C417.7,342.1,418,342.3,418.3,342.1L418.3,342.1z"/>
					<path class="st12" d="M428.9,330c0.3-0.2,0.6-0.6,0.6-1v-10.2c0-0.4-0.3-0.5-0.6-0.3c-0.3,0.2-0.6,0.6-0.6,1v10.2
						C428.3,330,428.6,330.2,428.9,330L428.9,330z"/>
					<path class="st12" d="M414.1,344.5v-17.2c0-0.4-0.3-0.5-0.6-0.3l0,0c-0.3,0.2-0.6,0.6-0.6,1v17c0,3.3,2.2,4.8,5.1,3.3
						c3.1-1.7,5.6-5.9,5.6-9.3v-23.4c0-3.4-2.5-4.8-5.6-2.9c-2.8,1.8-5.1,5.9-5.1,9.2v2.9c0,0.4,0.3,0.5,0.6,0.3l0,0
						c0.3-0.2,0.6-0.6,0.6-1v-3c0-2.6,1.8-5.8,4.2-7.2c2.3-1.3,4.1-0.1,4.1,2.5l0,23.1c0,2.6-1.8,6-4.1,7.3
						C415.9,348.2,414.1,347.1,414.1,344.5L414.1,344.5z"/>
					<path class="st12" d="M418.5,315.4c-1.7,0.9-3,3.4-3,5.3v15.6c0,0.4,0.3,0.5,0.6,0.3l0,0c0.3-0.2,0.6-0.6,0.6-1v-15.7
						c0-1.1,0.8-2.5,1.8-3.1c1-0.5,1.7,0,1.7,1.1v2.6c0,0.4,0.3,0.5,0.6,0.3l0,0c0.3-0.2,0.6-0.6,0.6-1v-2.7
						C421.3,315.3,420.1,314.5,418.5,315.4L418.5,315.4z"/>
					<path class="st12" d="M416,338.9L416,338.9c-0.3,0.2-0.6,0.6-0.6,1v3.4c0,1.9,1.4,2.8,3,1.8c1.6-1,2.9-3.2,2.9-5v-15.3
						c0-0.4-0.3-0.5-0.6-0.3l0,0c-0.3,0.2-0.6,0.6-0.6,1v15.2c0,1.1-0.8,2.5-1.7,3.1c-1,0.6-1.8,0.2-1.8-1v-3.6
						C416.6,338.9,416.3,338.7,416,338.9L416,338.9z"/>
					<path class="st12" d="M418.4,309.1l-0.2,0.1c-4.5,2.6-8.1,8.9-8.1,14V341c0,0.4,0.3,0.5,0.6,0.3l0,0c0.3-0.2,0.6-0.6,0.6-1
						v-17.8c0-4.4,3.1-9.8,6.9-12l0.2-0.1c1.8-1,3.4-1.2,4.6-0.6c0.2,0.1,0.5-0.1,0.7-0.4l0,0c0.3-0.4,0.3-0.9,0-1
						C422.4,307.7,420.5,307.9,418.4,309.1L418.4,309.1z"/>
					<path class="st12" d="M418.4,350.1l-0.2,0.1c-3.8,2.2-6.9,0.4-6.9-4v-2c0-0.4-0.3-0.5-0.6-0.3l0,0c-0.3,0.2-0.6,0.6-0.6,1v2
						c0,5.2,3.6,7.2,8.1,4.7l0.2-0.1c4.5-2.6,8.1-8.9,8.1-14v-23.7c0-1.4-0.3-2.5-0.7-3.4c-0.2-0.3-0.6-0.2-0.9,0.3l0,0
						c-0.2,0.3-0.3,0.7-0.2,0.9c0.4,0.8,0.6,1.8,0.6,2.9v23.7C425.3,342.5,422.2,347.9,418.4,350.1L418.4,350.1z"/>
					<path class="st12" d="M418.7,306l-0.5,0.3c-5.6,3.3-10.3,10.9-10.8,17.6c0,0.4,0.2,0.6,0.6,0.4l0,0c0.3-0.2,0.5-0.6,0.6-1
						c0.5-5.9,4.6-12.8,9.6-15.7l0.5-0.3c5.3-3.1,9.7-0.6,9.7,5.6v4.5c0,0.4,0.3,0.5,0.6,0.3c0.3-0.2,0.6-0.6,0.6-1v-4.5
						C429.5,305.4,424.6,302.6,418.7,306L418.7,306z"/>
					<path class="st12" d="M408.5,328c0-0.4-0.3-0.5-0.6-0.3l0,0c-0.3,0.2-0.6,0.6-0.6,1v19.6c0,6.9,4.8,9.7,10.8,6.3l0.5-0.3
						c6-3.5,10.8-11.8,10.8-18.8V331c0-0.4-0.3-0.5-0.6-0.3c-0.3,0.2-0.6,0.6-0.6,1v4.5c0,6.2-4.3,13.7-9.7,16.7l-0.5,0.3
						c-5.3,3.1-9.7,0.6-9.7-5.6V328z"/>
					<path class="st12" d="M430.6,304c-0.2-0.2-0.6-0.1-0.8,0.3l0,0c-0.2,0.3-0.3,0.8-0.1,1c1.1,1.5,1.7,3.6,1.7,6.2v5.6
						c0,0.4,0.3,0.5,0.6,0.3c0.3-0.2,0.6-0.6,0.6-1v-5.6C432.4,307.9,431.8,305.6,430.6,304L430.6,304z"/>
					<path class="st12" d="M406.2,348.7v-9.9c0-0.4-0.3-0.5-0.6-0.3l0,0c-0.3,0.2-0.6,0.6-0.6,1v9.9c0,2.7,0.6,4.8,1.6,6.4
						c0.2,0.3,0.6,0.1,0.9-0.3l0,0c0.2-0.3,0.3-0.7,0.2-0.9C406.7,353.1,406.2,351.1,406.2,348.7L406.2,348.7z"/>
					<path class="st12" d="M405.6,336.3L405.6,336.3c0.3-0.2,0.6-0.6,0.6-1V326c0-7.9,5.6-17.6,12.4-21.5l0.3-0.1
						c3.5-2,6.6-2.2,8.8-0.8c0.2,0.1,0.5,0,0.8-0.4l0,0c0.3-0.4,0.3-0.9,0.1-1.1c-2.5-1.5-5.9-1.3-9.7,0.9l-0.3,0.2
						c-7.5,4.3-13.6,14.9-13.6,23.5v9.3C405,336.3,405.2,336.5,405.6,336.3L405.6,336.3z"/>
					<path class="st12" d="M431.8,327.6c-0.3,0.2-0.6,0.6-0.6,1v5.6c0,3.8-1.3,8.1-3.5,11.9c-0.2,0.4-0.2,0.8,0,1l0,0
						c0.2,0.1,0.6-0.1,0.8-0.5c2.3-4.2,3.8-8.8,3.8-13V328C432.4,327.6,432.2,327.4,431.8,327.6L431.8,327.6z"/>
					<path class="st12" d="M426.6,348.8c-0.2-0.1-0.5,0.1-0.7,0.4c-2,2.7-4.4,5-7,6.5l-0.3,0.2c-3.4,2-6.6,2.1-8.8,0.8
						c-0.2-0.1-0.5,0-0.8,0.4l0,0c-0.3,0.4-0.3,0.9-0.1,1c2.5,1.5,5.9,1.3,9.7-0.9l0.3-0.2c2.9-1.7,5.5-4.2,7.7-7.2
						C426.8,349.5,426.8,349,426.6,348.8L426.6,348.8z"/>
					<path class="st14" d="M424.6,313.7c-1.9,0-3.2-1.6-3.2-4c0-3.2,2.3-7.1,5-8.7c0.8-0.5,1.6-0.7,2.4-0.7c1.9,0,3.2,1.6,3.2,4
						c0,3.2-2.3,7.1-5,8.7C426.2,313.4,425.4,313.7,424.6,313.7L424.6,313.7z M428.9,301.4c-0.6,0-1.2,0.2-1.8,0.6
						c-2.5,1.4-4.5,4.9-4.5,7.8c0,1.8,0.8,2.8,2.1,2.8c0.6,0,1.2-0.2,1.8-0.6c2.5-1.4,4.5-4.9,4.5-7.8
						C431,302.4,430.2,301.4,428.9,301.4L428.9,301.4z"/>
					<path class="st14" d="M405.2,333.3c-1.9,0-3.2-1.6-3.2-4c0-3.2,2.3-7.1,5-8.7c0.8-0.5,1.6-0.7,2.4-0.7c1.9,0,3.2,1.6,3.2,4
						c0,3.2-2.3,7.1-5,8.7C406.8,333,406,333.3,405.2,333.3L405.2,333.3z M409.5,321c-0.6,0-1.2,0.2-1.8,0.6
						c-2.5,1.4-4.5,4.9-4.5,7.8c0,1.8,0.8,2.8,2.1,2.8c0.6,0,1.2-0.2,1.8-0.6c2.5-1.4,4.5-4.9,4.5-7.8
						C411.6,322,410.8,321,409.5,321L409.5,321z"/>
					<path class="st14" d="M425.5,354.8c-1.9,0-3.2-1.6-3.2-4c0-3.2,2.3-7.1,5-8.7c0.8-0.5,1.6-0.7,2.4-0.7c1.9,0,3.2,1.6,3.2,4
						c0,3.2-2.3,7.1-5,8.7C427.1,354.6,426.3,354.8,425.5,354.8L425.5,354.8z M429.8,342.5c-0.6,0-1.2,0.2-1.8,0.6
						c-2.5,1.4-4.5,4.9-4.5,7.8c0,1.8,0.8,2.8,2.1,2.8c0.6,0,1.2-0.2,1.8-0.6c2.5-1.4,4.5-4.9,4.5-7.8
						C431.8,343.6,431.1,342.5,429.8,342.5L429.8,342.5z"/>
				</g>
			</g>
		</g>
		<g>
			<path class="st6" d="M282.1,197.5l-40,23.1c-1.8,1-3.2,3.5-3.2,5.6v70.6c0,2.1,1.4,2.9,3.2,1.9l40-23.1c1.8-1,3.2-3.5,3.2-5.6
				v-70.6C285.4,197.3,283.9,196.5,282.1,197.5z M267.3,211c0,0.9-0.7,2.1-1.5,2.6l-9.3,5.4c-0.2,0.1-0.4,0.2-0.6,0.2
				c-0.1-0.2-0.1-0.4-0.1-0.6v0c0-0.4,0.1-0.8,0.3-1.2c0.3-0.6,0.7-1.1,1.2-1.4l2.7-1.6c0-1.2,0.9-2.7,2-3.4
				c0.3-0.2,0.6-0.3,0.9-0.3c0.4,0,0.7,0.2,0.9,0.5c0.1,0.2,0.2,0.5,0.2,0.8l2.7-1.6c0.2-0.1,0.4-0.2,0.6-0.2
				C267.2,210.5,267.3,210.7,267.3,211L267.3,211z"/>
			<path class="st5" d="M268.1,211.4L268.1,211.4c0,1-0.7,2.1-1.5,2.6l-9.3,5.4c-0.6,0.4-1.1,0.2-1.4-0.3c0.2,0,0.4-0.1,0.6-0.2
				l9.3-5.4c0.8-0.5,1.5-1.6,1.5-2.6v0c0-0.2,0-0.4-0.1-0.6C267.7,210.3,268.1,210.7,268.1,211.4z"/>
			<path class="st5" d="M238.9,296.7v-70.6c0-2.1,1.4-4.5,3.2-5.6l40-23.1c0.8-0.5,1.6-0.5,2.1-0.3h0l-0.7-0.4v0
				c-0.6-0.4-1.4-0.4-2.3,0.2l-40,23.1c-1.8,1-3.2,3.5-3.2,5.6v70.6c0,1,0.3,1.7,0.9,2.1l0.9,0.5
				C239.3,298.4,238.9,297.7,238.9,296.7L238.9,296.7z"/>
			<polygon class="st14" points="283.9,269.1 240.4,294.2 240.4,231.4 283.9,206.3 			"/>
			<path class="st1" d="M279.8,212.5l-15.8,9.1c-1.2,0.7-2.2,2.5-2.2,3.9c0,1.4,1,2,2.3,1.3l15.8-9.1c1.2-0.7,2.3-2.5,2.3-3.9
				C282,212.4,281,211.8,279.8,212.5z"/>
			<path class="st1" d="M279.8,221.2l-15.8,9.1c-1.2,0.7-2.2,2.5-2.2,3.9c0,1.4,1,2,2.3,1.3l15.8-9.1c1.2-0.7,2.3-2.5,2.3-3.9
				C282,221.1,281,220.5,279.8,221.2z"/>
			<path class="st1" d="M274.7,232.8L264,239c-1.2,0.7-2.2,2.5-2.2,3.9c0,1.4,1,2,2.3,1.3l10.7-6.2c1.2-0.7,2.3-2.5,2.3-3.9
				C277,232.6,276,232,274.7,232.8z"/>
			<path class="st1" d="M260,245.2c0,2.2-1.6,5-3.5,6.1l-9.9,5.7c-1.9,1.1-3.5,0.2-3.5-2v-17.3c0-2.2,1.6-5,3.5-6.1l9.9-5.7
				c1.9-1.1,3.5-0.2,3.5,2V245.2z"/>
			<path class="st13" d="M282,245.6c0,2.2-1.6,5-3.5,6.1l-17,9.8c-1.9,1.1-3.5,0.2-3.5-2v-2.3c0-2.2,1.6-5,3.5-6.1l17-9.8
				c1.9-1.1,3.5-0.2,3.5,2V245.6z"/>
			<g>
				<path class="st3" d="M260.6,259l0.4-0.8c0.3,0.2,0.6,0.2,1.1,0c0.5-0.3,0.8-0.8,0.8-1.3c0-0.5-0.3-0.7-1.3-0.1v-0.7
					c0.9-0.5,1.2-1,1.2-1.5c0-0.4-0.3-0.5-0.7-0.3c-0.4,0.2-0.6,0.6-0.9,1l-0.4-0.3c0.4-0.6,0.8-1.1,1.3-1.4
					c0.9-0.5,1.4-0.3,1.4,0.5c0,0.6-0.3,1.1-0.8,1.6v0c0.5-0.1,0.9,0.1,0.9,0.7c0,0.9-0.7,1.9-1.6,2.4
					C261.4,259.3,260.9,259.3,260.6,259z"/>
				<path class="st3" d="M265.9,255.3l-2,1.1v-0.6l1.8-4.2l1-0.6v3.1l0.6-0.3v0.7l-0.6,0.3v1.3l-0.8,0.4V255.3z M265.9,254.6v-1.2
					c0-0.3,0-0.8,0-1.1l0,0c-0.1,0.3-0.2,0.7-0.4,1l-0.8,1.9L265.9,254.6z"/>
				<path class="st3" d="M267.5,255.2l0.4-0.8c0.2,0.1,0.4,0.1,0.7,0c0.6-0.3,1-1.1,1.1-2.5c-0.3,0.5-0.7,1-1,1.2
					c-0.8,0.4-1.3,0.2-1.3-0.8c0-1,0.6-2.1,1.4-2.5c0.9-0.5,1.6-0.2,1.6,1.6c0,2-0.8,3.3-1.8,3.8
					C268.1,255.4,267.8,255.4,267.5,255.2z M269.7,251.2c-0.1-0.9-0.4-1.1-0.8-0.8c-0.4,0.2-0.7,0.7-0.7,1.4c0,0.6,0.3,0.8,0.7,0.5
					C269.1,252.1,269.4,251.8,269.7,251.2z"/>
				<path class="st3" d="M271,252.9l1-0.6v-3.4l-0.8,0.5v-0.6c0.4-0.4,0.8-0.7,1-1l0.6-0.3v4.4l0.9-0.5v0.8l-2.7,1.6V252.9z"/>
				<path class="st3" d="M276,249.5l-2,1.1V250l1.8-4.2l1-0.6v3.1l0.6-0.3v0.7l-0.6,0.3v1.3l-0.8,0.4V249.5z M276,248.8v-1.2
					c0-0.3,0-0.8,0-1.1l0,0c-0.1,0.3-0.2,0.7-0.4,1l-0.8,1.9L276,248.8z"/>
				<path class="st3" d="M277.5,249.4c1.2-2.1,2-3.5,2-4.2c0-0.5-0.3-0.7-0.7-0.5c-0.3,0.2-0.6,0.6-0.9,1.1l-0.4-0.3
					c0.4-0.7,0.8-1.3,1.4-1.6c0.9-0.5,1.4-0.2,1.4,0.8c0,0.9-0.7,2.3-1.6,3.9c0.2-0.2,0.5-0.4,0.7-0.5l1.1-0.6v0.8l-3,1.7V249.4z"/>
			</g>
			<g>
				<path class="st13" d="M243.4,261.1l2.1-1.2v10.9l-2.1,1.2V261.1z"/>
				<path class="st13" d="M247.7,258.6l2.7-1.5c2.9-1.7,4.7-1.1,4.7,2.7c0,3.7-1.8,6.5-4.6,8.1l-2.8,1.6V258.6z M250.3,266
					c1.6-0.9,2.7-2.4,2.7-5c0-2.6-1.1-2.8-2.7-1.9l-0.4,0.2v6.9L250.3,266z"/>
			</g>
			<polygon class="st6" points="282,252.3 243,274.9 243,290.7 282,268.2 			"/>
			<g>
				<g>
					<polygon class="st3" points="258,280.5 259,279.9 259,267.2 258,267.8 					"/>
					<polygon class="st3" points="247.8,286.3 248.9,285.7 248.9,273.1 247.8,273.7 					"/>
					<polygon class="st3" points="271.7,272.5 272.8,271.9 272.8,259.3 271.7,259.9 					"/>
					<polygon class="st3" points="274.4,271 275.4,270.4 275.4,257.8 274.4,258.4 					"/>
					<polygon class="st3" points="244.4,288.3 246.1,287.4 246.1,274.7 244.4,275.7 					"/>
					<polygon class="st3" points="255.1,282.1 256.8,281.2 256.8,268.5 255.1,269.5 					"/>
					<polygon class="st3" points="261.6,278.4 262,278.2 262,265.5 261.6,265.7 					"/>
					<polygon class="st3" points="251.8,284 252.2,283.8 252.2,271.1 251.8,271.4 					"/>
					<polygon class="st3" points="263.3,277.4 263.7,277.2 263.7,264.5 263.3,264.8 					"/>
					<polygon class="st3" points="264.8,276.5 265.2,276.3 265.2,263.7 264.8,263.9 					"/>
					<polygon class="st3" points="250.3,284.9 250.7,284.7 250.7,272 250.3,272.2 					"/>
					<polygon class="st3" points="269.7,273.7 270.1,273.5 270.1,260.8 269.7,261 					"/>
					<polygon class="st3" points="276.8,269.6 277.2,269.4 277.2,256.7 276.8,256.9 					"/>
					<polygon class="st3" points="260,279.3 260.5,279 260.5,266.4 260,266.7 					"/>
					<polygon class="st3" points="253.4,283.1 253.9,282.8 253.9,270.2 253.4,270.5 					"/>
					<polygon class="st3" points="266.5,275.6 268.1,274.6 268.1,262 266.5,262.9 					"/>
					<polygon class="st3" points="279.2,255.6 279.2,268.2 280.8,267.3 280.8,254.6 					"/>
				</g>
			</g>
			<path class="st15" d="M247.6,244.5l3.8-2.2l0.1-0.1l3.8-2.2c0,0-0.5,2.1,1.2,1.6c-1.7,4.6-4.7,4.8-5.1,4.8
				c-0.4,0.5-3.4,3.6-5.1,1C248.2,246.1,247.6,244.5,247.6,244.5L247.6,244.5z"/>
			<polygon class="st9" points="253,249 250,250.7 250,245.8 253,244.1 			"/>
			<path class="st8" d="M257.5,246.2c-0.2-0.1-4.3,0.5-4.4,0.5l0,0c-0.1,0-0.2,0-0.2,0.1c0,0,0.1,1.8-1.5,2.7c-1.6,0.9-1.5-1-1.5-1
				c-0.1,0-0.1,0.1-0.2,0.1l0,0c-0.1,0.1-4.1,4.2-4.3,4.5c-0.6,0.5-0.9,3-1,4.3c0.2,0,0.3,0.1,0.5,0.1c0.5,0,1-0.2,1.6-0.5l9.9-5.7
				c0.8-0.5,1.5-1.2,2.1-2C258.4,248.1,258.1,246,257.5,246.2z"/>
			<path class="st10" d="M247.9,244.5c-0.6,0.5-1.1,0.3-1.2-0.3c-0.1-0.6,0.2-1.5,0.8-2C248,241.7,248.4,244,247.9,244.5
				L247.9,244.5z"/>
			<path class="st10" d="M255,240.4c0.6-0.2,1.1-1,1.2-1.8c0.1-0.8-0.2-1.3-0.8-1.1C255,237.7,254.5,240.5,255,240.4L255,240.4z"/>
			<path class="st10" d="M251.5,247.2c5.5-5.8,3.9-11.4,3.9-11.4s-0.2-2.9-3.8-0.8c-3.1,1.8-3.9,5.3-3.9,5.3
				S246.2,247.8,251.5,247.2L251.5,247.2z"/>
			<path class="st15" d="M247.2,242.4c0.4-0.3,0.8,0.3,0.8,0.3l0.2-3.3c0,0-0.7,2.9,3.4-0.2c-0.8-1.6,3.2-3.7,3.2-3.7
				s0.3,3.3,0.3,3.2c0.2-1,0.7-1.2,0.7-1.2s1.2-7-4.3-3.9C246,236.8,247.2,242.2,247.2,242.4L247.2,242.4z"/>
			<path class="st16" d="M251.5,245.4c0.6-0.4,1.1-1.1,1.1-1.2c0-0.1-0.6-0.1-0.8,0c-0.1,0.1-0.3,0.3-0.3,0.4s-0.2-0.1-0.3,0
				c-0.2,0.1-0.8,0.8-0.8,0.9C250.4,245.5,250.8,245.7,251.5,245.4L251.5,245.4z"/>
		</g>
		<g>
			<polygon class="st4" points="492.1,139 492.4,136.5 484.9,118.6 483,113.8 471.4,115.4 464.7,117.7 454.5,111.8 454.5,130.2 
				475.2,142.1 475.1,142.1 475.2,142.1 			"/>
			<path d="M464.7,117.7l-10.2-5.9v3.6C454.5,115.4,463.7,121.5,464.7,117.7L464.7,117.7z"/>
			<polygon class="st3" points="523.9,120.7 492.1,139 481.6,114.6 513.4,96.2 			"/>
			<polygon class="st4" points="521.6,120.3 493.6,136.5 493.3,135.7 518.6,121.1 509.7,100.3 512.3,98.8 			"/>
			<polygon class="st8" points="518.6,121.1 493.3,135.7 484.3,115 509.7,100.3 			"/>
			<path class="st11" d="M508.6,125.9l-8.4,4.9c-3.3,1.9-7.6,0.5-9.2-3l-1.4-3.2c-2.3-5.3-0.2-11.5,4.8-14.4l8.4-4.9
				c3.3-1.9,7.6-0.5,9.2,3l1.4,3.2C515.6,116.8,513.6,123,508.6,125.9L508.6,125.9z"/>
			<path class="st17" d="M508.1,125.4l-7.9,4.5c-3.1,1.8-7.1,0.5-8.5-2.8l-1.3-3c-2.1-5-0.2-10.8,4.5-13.5l7.9-4.5
				c3.1-1.8,7.1-0.5,8.5,2.8l1.3,3C514.7,116.9,512.8,122.7,508.1,125.4L508.1,125.4z"/>
			<polygon class="st7" points="513.4,96.2 481.6,114.6 464.7,117.7 496.5,99.3 			"/>
			<polygon class="st4" points="496.5,99.3 464.7,117.7 454.5,111.8 486.3,93.4 			"/>
			<path class="st11" d="M499.8,120.1c0.8,2.9-0.3,5.8-2.6,6.5c-2.3,0.6-4.8-1.2-5.6-4.2c-0.8-2.9,0.3-5.8,2.6-6.5
				C496.5,115.3,499,117.2,499.8,120.1L499.8,120.1z"/>
			<path class="st1" d="M499.2,120.3c0.7,2.5-0.3,4.9-2.2,5.5c-1.9,0.5-4-1-4.7-3.5c-0.7-2.5,0.3-4.9,2.2-5.5
				C496.4,116.3,498.5,117.8,499.2,120.3L499.2,120.3z"/>
			<path class="st14" d="M496.9,120.9c0.2,0.8-0.1,1.7-0.8,1.9c-0.7,0.2-1.4-0.4-1.6-1.2c-0.2-0.9,0.1-1.7,0.8-1.9
				C495.9,119.5,496.7,120.1,496.9,120.9L496.9,120.9z"/>
			<path class="st11" d="M511.4,113.6c0.8,2.9-0.3,5.8-2.6,6.5c-2.3,0.6-4.8-1.2-5.6-4.2c-0.8-2.9,0.3-5.8,2.6-6.5
				C508.1,108.8,510.6,110.6,511.4,113.6L511.4,113.6z"/>
			<path class="st1" d="M510.8,113.8c0.7,2.5-0.3,4.9-2.2,5.5c-1.9,0.5-4-1-4.7-3.5c-0.7-2.5,0.3-4.9,2.2-5.5
				C507.9,109.7,510.1,111.3,510.8,113.8L510.8,113.8z"/>
			<path class="st14" d="M508.5,114.4c0.2,0.8-0.1,1.7-0.8,1.9c-0.7,0.2-1.4-0.4-1.6-1.2c-0.2-0.9,0.1-1.7,0.8-1.9
				C507.5,113,508.2,113.5,508.5,114.4L508.5,114.4z"/>
			<path class="st3" d="M497.1,98.3l-33.4,19.3c-1.4,0.8-2.6,0.2-2.6-1.5V65.7c0-1.7,1.2-3.7,2.6-4.5l33.4-19.3
				c1.4-0.8,2.6-0.2,2.6,1.5v50.4C499.7,95.5,498.5,97.5,497.1,98.3L497.1,98.3z"/>
			<path class="st4" d="M461.8,117.8c-0.5-0.3-0.8-0.9-0.8-1.7V65.7c0-1.7,1.2-3.7,2.6-4.5l33.4-19.3c0.7-0.4,1.3-0.4,1.8-0.2
				l-9.6-5.6h0c-0.5-0.3-1.1-0.3-1.9,0.2l-33.4,19.3c-1.4,0.8-2.6,2.8-2.6,4.5v50.4c0,0.8,0.3,1.4,0.8,1.7L461.8,117.8z"/>
			<path class="st4" d="M497,48.6v43.3c0,1.1-0.7,2.3-1.7,2.9l-30.1,17.4c-0.9,0.5-1.6,0.1-1.6-1v-0.2c0,0,0.1,0,0.1,0l30.1-17.4
				c0.9-0.5,1.7-1.8,1.7-2.9V47.6C496.3,47.1,497,47.6,497,48.6L497,48.6z"/>
			<path class="st8" d="M495.5,47.6v43.1c0,1.1-0.7,2.3-1.7,2.9l-30.1,17.4c0,0-0.1,0-0.1,0V67.9c0-1.1,0.7-2.3,1.6-2.9L495.5,47.6
				C495.4,47.6,495.4,47.6,495.5,47.6L495.5,47.6z"/>
			<path class="st18" d="M493.9,53.1c0,0.4-0.3,0.8-0.6,1l-1.9,1.1c-0.3,0.2-0.6,0-0.6-0.3v-2.2c0-0.4,0.3-0.8,0.6-1l1.9-1.1
				c0.3-0.2,0.6,0,0.6,0.3V53.1z"/>
			<path class="st19" d="M490.3,55.2c0,0.4-0.3,0.8-0.6,1l-1.9,1.1c-0.3,0.2-0.6,0-0.6-0.3v-2.2c0-0.4,0.3-0.8,0.6-1l1.9-1.1
				c0.3-0.2,0.6,0,0.6,0.3V55.2z"/>
			<path class="st12" d="M492.4,87.7l-25.7,14.8c-0.8,0.5-1.4,1.6-1.4,2.5c0,0.9,0.6,1.3,1.4,0.8L492.4,91c0.8-0.5,1.4-1.6,1.4-2.5
				C493.8,87.6,493.2,87.2,492.4,87.7z"/>
			<g>
				<path class="st11" d="M492.3,69.3c0,8.1-5.7,17.9-12.7,22c-7,4-12.7,0.8-12.7-7.3c0-8.1,5.7-17.9,12.7-22
					C486.6,57.9,492.3,61.2,492.3,69.3L492.3,69.3z"/>
				<path class="st1" d="M491.6,69.7c0,7.7-5.4,17-12,20.9c-6.7,3.8-12,0.7-12-7c0-7.7,5.4-17,12-20.9
					C486.2,58.9,491.6,62,491.6,69.7L491.6,69.7z"/>
				<path class="st20" d="M488.8,71.4c0,5.9-4.2,13.1-9.3,16.1c-5.1,3-9.3,0.6-9.3-5.4c0-5.9,4.2-13.1,9.3-16
					C484.7,63,488.8,65.4,488.8,71.4L488.8,71.4z"/>
				<path class="st17" d="M487.5,72.1c0,5-3.5,11.2-7.9,13.7c-4.4,2.5-7.9,0.5-7.9-4.6c0-5,3.5-11.2,7.9-13.7
					C483.9,65,487.5,67.1,487.5,72.1L487.5,72.1z"/>
				<path class="st21" d="M483.3,74.5c0,2.4-1.7,5.3-3.8,6.5c-2.1,1.2-3.8,0.2-3.8-2.2c0-2.4,1.7-5.3,3.8-6.5
					C481.6,71.1,483.3,72.1,483.3,74.5L483.3,74.5z"/>
				<path class="st8" d="M482.3,75c0,1.8-1.3,4-2.8,4.9c-1.5,0.9-2.8,0.2-2.8-1.6c0-1.8,1.3-4,2.8-4.9
					C481.1,72.5,482.3,73.2,482.3,75L482.3,75z"/>
				<path class="st12" d="M479.5,71.2c0,0-0.8-7,0-7.5C480.3,63.3,479.5,71.2,479.5,71.2L479.5,71.2z"/>
				<path class="st12" d="M480.5,70.8c0,0,0.6-7.8,1.3-8.1C482.5,62.5,480.5,70.8,480.5,70.8L480.5,70.8z"/>
				<path class="st12" d="M481.5,70.6c0,0,2-8.3,2.7-8.3C484.8,62.2,481.5,70.6,481.5,70.6L481.5,70.6z"/>
				<path class="st12" d="M482.3,70.6c0,0,3.1-8.4,3.7-8.2C486.6,62.5,482.3,70.6,482.3,70.6L482.3,70.6z"/>
				<path class="st12" d="M482.9,70.9c0,0,4.1-8.2,4.6-7.9C488.1,63.3,482.9,70.9,482.9,70.9L482.9,70.9z"/>
				<path class="st12" d="M483.5,71.4c0,0,5-7.7,5.4-7.2C489.3,64.7,483.5,71.4,483.5,71.4L483.5,71.4z"/>
				<path class="st12" d="M483.9,72c0,0,5.7-6.9,6-6.3C490.2,66.4,483.9,72,483.9,72L483.9,72z"/>
				<path class="st12" d="M484.2,72.8c0,0,6.2-5.9,6.3-5.1C490.6,68.5,484.2,72.8,484.2,72.8L484.2,72.8z"/>
				<path class="st12" d="M484.3,73.7c0,0,6.4-4.8,6.5-3.9C490.7,70.7,484.3,73.7,484.3,73.7L484.3,73.7z"/>
				<path class="st12" d="M484.2,74.7c0,0,6.5-3.5,6.4-2.5C490.5,73.1,484.2,74.7,484.2,74.7L484.2,74.7z"/>
				<path class="st12" d="M484,75.8c0,0,6.3-2,6.1-1C489.8,75.7,484,75.8,484,75.8L484,75.8z"/>
				<path class="st12" d="M483.6,77.1c0,0,5.9-0.2,5.5,0.8C488.7,78.8,483.6,77.1,483.6,77.1L483.6,77.1z"/>
				<path class="st12" d="M483,78.3c0,0,5.2,1.5,4.7,2.5C487.1,81.7,483,78.3,483,78.3L483,78.3z"/>
				<path class="st12" d="M482.4,79.3c0,0,4.4,2.9,3.8,3.8C485.6,83.9,482.4,79.3,482.4,79.3L482.4,79.3z"/>
				<path class="st12" d="M481.7,80.2c0,0,3.5,4.3,2.8,5.1C483.9,86,481.7,80.2,481.7,80.2L481.7,80.2z"/>
				<path class="st12" d="M481.1,80.8c0,0,2.7,5.3,2,6C482.3,87.5,481.1,80.8,481.1,80.8L481.1,80.8z"/>
				<path class="st12" d="M480.2,81.6c0,0,1.6,6.4,0.8,6.9C480.3,89,480.2,81.6,480.2,81.6L480.2,81.6z"/>
				<path class="st12" d="M478.7,71.8c0,0-0.6-7.2-1.3-6.6C476.7,65.8,478.7,71.8,478.7,71.8L478.7,71.8z"/>
				<path class="st12" d="M477.7,72.7c0,0-2-6-2.7-5.2C474.4,68.2,477.7,72.7,477.7,72.7L477.7,72.7z"/>
				<path class="st12" d="M477,73.7c0,0-3.1-4.8-3.7-3.9C472.6,70.6,477,73.7,477,73.7L477,73.7z"/>
				<path class="st12" d="M476.3,74.7c0,0-4.1-3.4-4.6-2.5C471.1,73.1,476.3,74.7,476.3,74.7L476.3,74.7z"/>
				<path class="st12" d="M475.7,75.8c0,0-5-1.9-5.4-0.9C469.9,75.9,475.7,75.8,475.7,75.8L475.7,75.8z"/>
				<path class="st12" d="M475.3,76.9c0,0-5.7-0.4-6,0.6C469.1,78.5,475.3,76.9,475.3,76.9L475.3,76.9z"/>
				<path class="st12" d="M475.1,78.1c0,0-6.2,1.2-6.3,2.2C468.6,81.2,475.1,78.1,475.1,78.1L475.1,78.1z"/>
				<path class="st12" d="M475,79.1c0,0-6.4,2.7-6.5,3.6C468.5,83.5,475,79.1,475,79.1L475,79.1z"/>
				<path class="st12" d="M475,80c0,0-6.5,4-6.4,4.8C468.7,85.6,475,80,475,80L475,80z"/>
				<path class="st12" d="M475.2,80.9c0,0-6.3,5.3-6.1,6C469.4,87.6,475.2,80.9,475.2,80.9L475.2,80.9z"/>
				<path class="st12" d="M475.6,81.7c0,0-5.9,6.6-5.5,7.1C470.5,89.3,475.6,81.7,475.6,81.7L475.6,81.7z"/>
				<path class="st12" d="M476.2,82.2c0,0-5.2,7.5-4.7,7.8C472.1,90.4,476.2,82.2,476.2,82.2L476.2,82.2z"/>
				<path class="st12" d="M476.8,82.5c0,0-4.4,8-3.8,8.2C473.6,90.9,476.8,82.5,476.8,82.5L476.8,82.5z"/>
				<path class="st12" d="M477.5,82.6c0,0-3.5,8.3-2.8,8.3C475.3,90.9,477.5,82.6,477.5,82.6L477.5,82.6z"/>
				<path class="st12" d="M478.1,82.5c0,0-2.7,8.4-2,8.2C476.9,90.6,478.1,82.5,478.1,82.5L478.1,82.5z"/>
				<path class="st12" d="M479,82.3c0,0-1.6,8.2-0.8,7.9C478.9,89.8,479,82.3,479,82.3L479,82.3z"/>
				<path class="st12" d="M479.6,82c0,0,0.7,7.1-0.1,7.5C478.8,89.9,479.6,82,479.6,82L479.6,82z"/>
			</g>
			<g>
				<polygon class="st18" points="472.7,71.2 472.6,71.3 472.6,73.1 471,74 471,74.2 472.6,73.3 472.6,75.1 472.7,75 472.7,73.2 
					474.3,72.3 474.3,72.1 472.7,73 				"/>
				<polygon class="st18" points="479.7,62.3 479.5,62.4 479.5,64.1 478,65 478,65.2 479.5,64.3 479.5,66.1 479.7,66 479.7,64.2 
					481.2,63.3 481.2,63.1 479.7,64 				"/>
				<polygon class="st18" points="486.6,65 486.6,63.2 486.4,63.3 486.4,65.1 484.9,66 484.9,66.2 486.4,65.3 486.4,67.1 486.6,67 
					486.6,65.2 488.1,64.3 488.1,64.1 				"/>
				<polygon class="st18" points="472.7,78.7 472.6,78.8 472.6,80.6 471,81.4 471,81.7 472.6,80.8 472.6,82.5 472.7,82.4 
					472.7,80.7 474.3,79.8 474.3,79.6 472.7,80.5 				"/>
				<polygon class="st18" points="479.7,74.7 479.5,74.8 479.5,76.6 478,77.4 478,77.7 479.5,76.8 479.5,78.5 479.7,78.4 
					479.7,76.7 481.2,75.8 481.2,75.6 479.7,76.5 				"/>
				<polygon class="st18" points="486.6,70.7 486.4,70.8 486.4,72.6 484.9,73.4 484.9,73.7 486.4,72.8 486.4,74.5 486.6,74.4 
					486.6,72.7 488.1,71.8 488.1,71.6 486.6,72.5 				"/>
				<polygon class="st18" points="472.7,86.2 472.6,86.3 472.6,88 471,88.9 471,89.1 472.6,88.2 472.6,90 472.7,89.9 472.7,88.1 
					474.3,87.3 474.3,87 472.7,87.9 				"/>
				<polygon class="st18" points="479.7,87.1 479.5,87.3 479.5,89 478,89.9 478,90.1 479.5,89.2 479.5,91 479.7,90.9 479.7,89.1 
					481.2,88.2 481.2,88 479.7,88.9 				"/>
				<polygon class="st18" points="486.6,78.2 486.4,78.3 486.4,80 484.9,80.9 484.9,81.1 486.4,80.2 486.4,82 486.6,81.9 
					486.6,80.1 488.1,79.3 488.1,79 486.6,79.9 				"/>
			</g>
		</g>
		<g>
			<path class="st3" d="M674,542.1l-49,28.3c-1.6,0.9-2.9,0.2-2.9-1.7v-71.1c0-1.8,1.3-4.1,2.9-5l49-28.3c1.6-0.9,2.9-0.2,2.9,1.7
				V537C676.9,538.9,675.6,541.1,674,542.1L674,542.1z"/>
			<path class="st4" d="M672.1,514.2l-16.8,9.7c-0.8,0.5-1.4,1.6-1.4,2.5c0,0.9,0.6,1.3,1.4,0.8l16.8-9.7c0.8-0.5,1.4-1.6,1.4-2.5
				C673.6,514.1,672.9,513.7,672.1,514.2z"/>
			<g>
				<path class="st14" d="M655.9,524.4l0.3-0.2v0.6l0.5-0.3V524l0.3-0.2v1.6l-0.3,0.2v-0.7l-0.5,0.3v0.7l-0.3,0.2V524.4z"/>
				<path class="st14" d="M657.3,524.4c0-0.5,0.3-1,0.6-1.2c0.4-0.2,0.6-0.1,0.6,0.5s-0.3,1-0.6,1.2
					C657.6,525.1,657.3,525,657.3,524.4z M658.3,523.9c0-0.3-0.1-0.5-0.3-0.3c-0.2,0.1-0.3,0.4-0.3,0.7c0,0.3,0.1,0.5,0.3,0.4
					C658.1,524.5,658.3,524.2,658.3,523.9z"/>
				<path class="st14" d="M658.9,522.7l0.3-0.2v1.3l0.6-0.3v0.3l-0.9,0.5V522.7z"/>
				<path class="st14" d="M660,522.1l0.4-0.2c0.4-0.2,0.7-0.2,0.7,0.4c0,0.6-0.3,1-0.7,1.2l-0.4,0.2V522.1z M660.4,523.2
					c0.2-0.1,0.4-0.4,0.4-0.8c0-0.4-0.2-0.4-0.4-0.3l-0.1,0L660.4,523.2L660.4,523.2z"/>
				<path class="st14" d="M662,520.9l0.4-0.2l0.4,1.4l-0.3,0.2l-0.1-0.3l-0.4,0.2l-0.1,0.4l-0.3,0.2L662,520.9z M662.1,521.8
					l0.3-0.2l0-0.1c0-0.1-0.1-0.3-0.1-0.5l0,0c0,0.2-0.1,0.4-0.1,0.6L662.1,521.8z"/>
				<path class="st14" d="M663,520.4l0.3-0.2l0.4,0.6l0.1,0.3l0,0c0-0.2,0-0.4,0-0.6v-0.6l0.3-0.2v1.6l-0.3,0.2l-0.4-0.6l-0.1-0.3
					l0,0c0,0.2,0,0.4,0,0.6v0.6L663,522V520.4z"/>
				<path class="st14" d="M664.4,519.5l0.4-0.2c0.4-0.2,0.7-0.2,0.7,0.4c0,0.6-0.3,1-0.7,1.2l-0.4,0.2V519.5z M664.8,520.6
					c0.2-0.1,0.4-0.4,0.4-0.7c0-0.4-0.2-0.4-0.4-0.3l-0.1,0L664.8,520.6L664.8,520.6z"/>
				<path class="st14" d="M666.2,520l0.2-0.4c0.1,0,0.2,0,0.3,0c0.1-0.1,0.2-0.2,0.2-0.3c0-0.1-0.1-0.1-0.2-0.1l-0.2,0
					c-0.1,0-0.3,0-0.3-0.3c0-0.3,0.2-0.6,0.5-0.8c0.2-0.1,0.3-0.1,0.5,0l-0.2,0.3c-0.1,0-0.2,0-0.3,0c-0.1,0.1-0.2,0.2-0.2,0.3
					c0,0.1,0.1,0.1,0.2,0.1l0.2,0c0.2,0,0.3,0.1,0.3,0.3c0,0.3-0.2,0.6-0.5,0.8C666.5,520,666.3,520,666.2,520z"/>
				<path class="st14" d="M667.4,517.8l0.5-0.3c0.3-0.2,0.6-0.2,0.6,0.2c0,0.4-0.3,0.7-0.6,0.9l-0.2,0.1v0.6l-0.3,0.2V517.8z
					 M667.9,518.3c0.2-0.1,0.3-0.2,0.3-0.4c0-0.2-0.1-0.2-0.3-0.1l-0.1,0.1v0.5L667.9,518.3z"/>
				<path class="st14" d="M668.7,517l0.9-0.5v0.3l-0.6,0.3v0.3l0.5-0.3v0.3l-0.5,0.3v0.4l0.6-0.3v0.3l-0.9,0.5V517z"/>
				<path class="st14" d="M670.2,516.2l0.4-0.2l0.4,1.4l-0.3,0.2l-0.1-0.3l-0.4,0.2l-0.1,0.4l-0.3,0.2L670.2,516.2z M670.2,517.1
					l0.3-0.2l0-0.1c0-0.1-0.1-0.3-0.1-0.5l0,0c0,0.2-0.1,0.4-0.1,0.6L670.2,517.1z"/>
				<path class="st14" d="M671.1,515.7l0.3-0.2v0.7l0,0l0.4-0.9l0.4-0.2l-0.4,0.9l0.5,0.7l-0.3,0.2l-0.3-0.5l-0.2,0.3v0.4l-0.3,0.2
					V515.7z"/>
			</g>
			<path class="st4" d="M622.9,570.6c-0.5-0.3-0.9-1-0.9-1.9v-71.1c0-1.8,1.3-4.1,2.9-5l49-28.3c0.8-0.5,1.5-0.5,2-0.2l-6.3-3.7v0
				c-0.5-0.3-1.3-0.3-2.1,0.2l-49,28.3c-1.6,0.9-2.9,3.2-2.9,5V565c0,0.9,0.3,1.6,0.9,1.9L622.9,570.6z"/>
			<path class="st4" d="M674,471.8v31.7c0,1.2-0.8,2.6-1.8,3.2l-45.3,26.2c-1,0.6-1.8,0.1-1.8-1.1v-0.2c0,0,0.1,0,0.1,0l45.3-26.2
				c1-0.6,1.9-2,1.9-3.2v-31.5C673.2,470.1,674,470.6,674,471.8L674,471.8z"/>
			<path class="st22" d="M672.2,470.7v31.5c0,1.2-0.8,2.6-1.9,3.2l-45.3,26.2c0,0-0.1,0-0.1,0V500c0-1.2,0.8-2.6,1.8-3.2
				L672.2,470.7C672.2,470.7,672.2,470.7,672.2,470.7L672.2,470.7z"/>
			<path class="st7" d="M650.4,513.1c0,0.4-0.3,1-0.7,1.2c-0.4,0.2-0.7,0-0.7-0.4c0-0.4,0.3-1,0.7-1.2
				C650,512.5,650.4,512.6,650.4,513.1L650.4,513.1z"/>
			<g>
				<path class="st7" d="M626.9,525.8l0.3-0.2l0.2,0.7c0,0.2,0.1,0.3,0.1,0.5l0,0c0-0.2,0.1-0.4,0.1-0.6l0.2-0.9l0.3-0.2l-0.4,1.9
					l-0.4,0.2L626.9,525.8z"/>
				<path class="st7" d="M628.2,525.9c0-0.5,0.3-1,0.6-1.2c0.4-0.2,0.6-0.1,0.6,0.5c0,0.5-0.3,1-0.6,1.2
					C628.5,526.6,628.2,526.4,628.2,525.9z M629.2,525.3c0-0.3-0.1-0.5-0.3-0.3c-0.2,0.1-0.3,0.4-0.3,0.7c0,0.3,0.1,0.5,0.3,0.3
					C629.1,525.9,629.2,525.7,629.2,525.3z"/>
				<path class="st7" d="M629.8,524.2l0.3-0.2v1.6l-0.3,0.2V524.2z"/>
				<path class="st7" d="M630.3,524.7c0-0.5,0.3-1,0.7-1.2c0.2-0.1,0.3-0.1,0.4,0l-0.2,0.3c-0.1,0-0.1,0-0.2,0
					c-0.2,0.1-0.3,0.4-0.3,0.7c0,0.3,0.1,0.5,0.3,0.3c0.1-0.1,0.2-0.2,0.3-0.3l0.2,0.1c-0.1,0.2-0.3,0.4-0.5,0.5
					C630.6,525.3,630.3,525.2,630.3,524.7z"/>
				<path class="st7" d="M631.7,523.1l0.9-0.5v0.3l-0.6,0.3v0.3l0.5-0.3v0.3l-0.5,0.3v0.4l0.6-0.3v0.3l-0.9,0.5V523.1z"/>
				<path class="st7" d="M633.3,522.2l0.3-0.2v1.6l-0.3,0.2V522.2z"/>
				<path class="st7" d="M633.9,521.8l0.4-0.2c0.4-0.2,0.7-0.2,0.7,0.4c0,0.6-0.3,1-0.7,1.2l-0.4,0.2V521.8z M634.3,522.9
					c0.2-0.1,0.4-0.4,0.4-0.7c0-0.4-0.2-0.4-0.4-0.3l-0.1,0L634.3,522.9L634.3,522.9z"/>
				<path class="st7" d="M635.3,521l0.9-0.5v0.3l-0.6,0.3v0.3l0.5-0.3v0.3l-0.5,0.3v0.4l0.6-0.3v0.3l-0.9,0.5V521z"/>
				<path class="st7" d="M636.5,520.3l0.3-0.2l0.4,0.6l0.1,0.3l0,0c0-0.2,0-0.4,0-0.6v-0.6l0.3-0.2v1.6l-0.3,0.2l-0.4-0.6l-0.1-0.3
					l0,0c0,0.2,0,0.4,0,0.6v0.6l-0.3,0.2V520.3z"/>
				<path class="st7" d="M638.2,519.6l-0.4,0.2v-0.3l1.1-0.6v0.3l-0.4,0.2v1.3l-0.3,0.2V519.6z"/>
				<path class="st7" d="M639.1,518.8l0.3-0.2v1.6l-0.3,0.2V518.8z"/>
				<path class="st7" d="M639.8,518.4l0.9-0.5v0.3l-0.6,0.3v0.4l0.5-0.3v0.3l-0.5,0.3v0.6l-0.3,0.2V518.4z"/>
				<path class="st7" d="M640.9,517.8l0.3-0.2v1.6l-0.3,0.2V517.8z"/>
				<path class="st7" d="M641.5,518.3c0-0.5,0.3-1,0.7-1.2c0.2-0.1,0.3-0.1,0.4,0l-0.2,0.3c-0.1,0-0.1,0-0.2,0
					c-0.2,0.1-0.3,0.4-0.3,0.7c0,0.3,0.1,0.5,0.3,0.3c0.1-0.1,0.2-0.2,0.3-0.3l0.2,0.1c-0.1,0.2-0.3,0.4-0.5,0.5
					C641.8,518.9,641.5,518.8,641.5,518.3z"/>
				<path class="st7" d="M643.1,516.5l0.4-0.2l0.4,1.4l-0.3,0.2l-0.1-0.3l-0.4,0.2l-0.1,0.4l-0.3,0.2L643.1,516.5z M643.1,517.5
					l0.3-0.2l0-0.1c0-0.1-0.1-0.3-0.1-0.5l0,0c0,0.2-0.1,0.4-0.1,0.6L643.1,517.5z"/>
				<path class="st7" d="M644.3,516.1l-0.4,0.2V516l1.1-0.6v0.3l-0.4,0.2v1.3l-0.3,0.2V516.1z"/>
				<path class="st7" d="M645.2,515.3l0.3-0.2v1.6l-0.3,0.2V515.3z"/>
				<path class="st7" d="M645.8,515.7c0-0.5,0.3-1,0.6-1.2c0.4-0.2,0.6-0.1,0.6,0.5c0,0.5-0.3,1-0.6,1.2
					C646.1,516.4,645.8,516.3,645.8,515.7z M646.8,515.2c0-0.3-0.1-0.5-0.3-0.3c-0.2,0.1-0.3,0.4-0.3,0.7c0,0.3,0.1,0.5,0.3,0.4
					C646.6,515.8,646.8,515.5,646.8,515.2z"/>
				<path class="st7" d="M647.4,514l0.3-0.2l0.4,0.6l0.1,0.3l0,0c0-0.2,0-0.4,0-0.6v-0.6l0.3-0.2v1.6l-0.3,0.2l-0.4-0.6l-0.1-0.3
					l0,0c0,0.2,0,0.4,0,0.6v0.6l-0.3,0.2V514z"/>
			</g>
			<polygon class="st7" points="671.5,486.2 671.5,485.6 670.7,486 670.7,486.7 669.9,487.1 669.9,486.8 669.1,487.2 669.1,486.5 
				668.3,486.9 668.3,488.1 667.5,488.5 667.5,487.8 666.7,488.3 666.7,489.5 665.9,490 665.9,487.3 665.1,487.8 665.1,490.2 
				664.3,490.6 664.3,489.7 663.5,490.2 663.5,490.8 662.7,491.3 662.7,488.1 661.9,488.6 661.9,491.7 661.1,492.2 661.1,490.7 
				660.3,491.2 660.3,492.7 659.5,493.1 659.5,490.5 658.7,490.9 658.7,491.6 657.9,492 657.9,490.4 657.1,490.8 657.1,493.1 
				656.3,493.6 656.3,493 655.5,493.4 655.5,492.9 654.7,493.4 654.7,494.7 653.9,495.2 653.9,496.1 653.1,496.5 653.1,494.9 
				652.3,495.3 652.3,497 651.5,497.4 651.5,497.6 650.7,498.1 650.7,498.2 649.9,498.7 649.9,498 649.1,498.5 649.1,499.1 
				648.3,499.6 648.3,499.2 647.5,499.7 647.5,498.9 646.6,499.4 646.6,500.5 645.9,501 645.9,500.3 645,500.7 645,502 644.2,502.5 
				644.2,500.6 643.5,501 643.5,502.6 642.7,503.1 642.7,502.2 641.9,502.7 641.9,503.3 641,503.8 641,502.3 640.3,502.7 
				640.3,504.2 639.5,504.7 639.5,503.2 638.6,503.7 638.6,505.2 637.9,505.6 637.9,501.1 637.1,501.5 637.1,504 636.3,504.5 
				636.3,502.8 635.5,503.3 635.5,505.6 634.7,506.1 634.7,505.4 633.9,505.9 633.9,505.4 633.1,505.9 633.1,507.2 632.3,507.7 
				632.3,508.5 631.5,509 631.5,508.2 630.7,508.7 630.7,509.5 629.9,509.9 629.9,510.1 629.1,510.6 629.1,512.8 628.3,513.2 
				628.3,513.9 627.5,514.4 627.5,512.2 626.7,512.7 626.7,514.2 625.9,514.6 625.9,515.7 625.1,516.1 625.1,516.9 625.9,516.4 
				625.9,517.1 626.7,516.6 626.7,516 627.5,515.5 627.5,515.9 628.3,515.4 628.3,516.2 629.1,515.7 629.1,514.6 629.9,514.1 
				629.9,514.9 630.7,514.4 630.7,513.1 631.5,512.7 631.5,514.6 632.3,514.1 632.3,512.5 633.1,512 633.1,512.9 633.9,512.5 
				633.9,511.8 634.7,511.4 634.7,512.8 635.5,512.4 635.5,510.9 636.3,510.4 636.3,511.9 637.1,511.5 637.1,510 637.8,509.5 
				637.8,514.1 638.6,513.6 638.6,511.1 639.5,510.6 639.5,512.3 640.3,511.8 640.3,509.5 641,509.1 641,509.7 641.9,509.2 
				641.9,509.7 642.7,509.2 642.7,507.9 643.5,507.4 643.5,506.6 644.2,506.1 644.2,506.9 645,506.4 645,505.7 645.9,505.2 
				645.9,505 646.6,504.6 646.7,504.4 647.5,504 647.5,504.6 648.3,504.1 648.3,503.5 649.1,503 649.1,503.4 649.9,502.9 
				649.9,503.7 650.7,503.2 650.7,502.1 651.5,501.7 651.5,502.4 652.3,501.9 652.3,500.6 653.1,500.2 653.1,502.1 653.9,501.6 
				653.9,500 654.7,499.6 654.7,500.4 655.5,500 655.5,499.3 656.3,498.9 656.3,500.4 657.1,499.9 657.1,498.4 657.9,498 
				657.9,499.4 658.7,499 658.7,497.5 659.5,497 659.5,500 660.3,499.5 660.3,498.6 661.1,498.1 661.1,501.2 661.9,500.7 661.9,497 
				662.7,496.6 662.7,497.2 663.5,496.8 663.5,497.2 664.3,496.8 664.3,495.4 665.1,495 665.1,494.1 665.9,493.6 665.9,494.4 
				666.7,494 666.7,493.2 667.5,492.7 667.5,492.6 668.3,492.1 668.3,489.9 669.1,489.4 669.1,488.7 669.9,488.3 669.9,489.8 
				670.7,489.3 670.7,488.5 671.5,488 671.5,487 672.3,486.5 672.3,485.7 			"/>
			<g>
				<path class="st4" d="M635.3,558.3c-4.2,0-6.9-3.4-6.9-8.7c0-7.4,5.2-16.5,11.7-20.2c1.9-1.1,3.7-1.6,5.4-1.6
					c4.2,0,6.9,3.4,6.9,8.7c0,7.4-5.2,16.5-11.7,20.2C638.8,557.7,637,558.3,635.3,558.3z"/>
				<path class="st8" d="M653.7,537.6c0,7.2-5.1,16-11.4,19.7c-6.3,3.6-11.4,0.7-11.4-6.6c0-7.2,5.1-16,11.4-19.7
					C648.6,527.4,653.7,530.3,653.7,537.6L653.7,537.6z"/>
				<path class="st23" d="M631,550.7c0-7.2,5.1-16,11.4-19.7c3.1-1.8,5.9-2,8-0.8l0,0l-1.9-1.1c0,0,0,0,0,0l0,0l0,0
					c-2-1.2-4.9-1-8,0.8c-6.3,3.6-11.3,12.4-11.3,19.7c0,3.5,1.2,5.9,3.1,7.2l2.2,1.3C632.2,556.8,631,554.3,631,550.7L631,550.7z"
					/>
				<path class="st11" d="M652.4,538.3c0,6.4-4.5,14.2-10,17.4c-2.9,1.7-5.5,1.8-7.4,0.5c1.8,0.8,4.1,0.6,6.7-0.9
					c5.5-3.2,10-11,10-17.4c0-3-1-5.2-2.6-6.3C651.1,532.6,652.4,534.9,652.4,538.3z"/>
				<path class="st7" d="M651.7,538c0,6.4-4.5,14.2-10,17.4c-2.6,1.5-4.9,1.7-6.7,0.9c0,0,0,0,0,0c-1.6-1.1-2.6-3.3-2.6-6.3
					c0-6.4,4.5-14.2,10-17.4c2.6-1.5,4.9-1.7,6.7-0.9c0,0,0,0,0,0C650.7,532.8,651.7,534.9,651.7,538z"/>
				<path class="st5" d="M647.2,550.2c0.4-0.6,0.8-1.1,1.2-1.7c0-0.1,0.1-0.1,0.1-0.1l-0.6,0.4v-1.4l1.2-0.7v0.7c0,0,0-0.1,0.1-0.1
					c0.3-0.7,0.7-1.3,1-2c0,0,0,0,0-0.1l-0.3,0.2V544l1-0.6c0,0,0-0.1,0-0.1c0.1-0.3,0.2-0.7,0.3-1c0-0.1,0.1-0.2,0.1-0.3
					c0.1-0.3,0.2-0.7,0.2-1c0-0.1,0-0.2,0.1-0.3c0.1-0.3,0.1-0.6,0.1-0.9c0-0.1,0-0.3,0-0.4c0-0.4,0-0.8,0.1-1.1c0-0.1,0-0.1,0-0.2
					c0-0.4,0-0.8-0.1-1.2c0,0,0-0.1,0-0.1c0-0.4-0.1-0.7-0.2-1.1v0c-0.2-0.7-0.4-1.4-0.7-1.9l-1,0.6v-1.4l0.3-0.2
					c-0.3-0.4-0.7-0.7-1-0.9v0.7l-1.2,0.7v-1.4l0.5-0.3c-0.4-0.1-0.8-0.2-1.2-0.2v0.1l-1.2,0.7v-0.7c-0.2,0-0.5,0.1-0.7,0.1v1
					l-1.2,0.7v-1.3c-0.5,0.2-1.1,0.5-1.6,0.8c-0.4,0.2-0.8,0.5-1.2,0.8l0.2-0.1v1.4l-1.2,0.7v-1.2c-0.2,0.2-0.5,0.4-0.7,0.6v1
					l-1.2,0.7V536c-0.2,0.3-0.5,0.5-0.7,0.8v0l0,0c-0.4,0.5-0.8,1-1.1,1.5l1.1-0.7v1.4l-1.2,0.7v-1.3c-0.3,0.4-0.5,0.7-0.7,1.1v0.6
					l-0.5,0.3c-0.2,0.4-0.4,0.8-0.6,1.2l1.2-0.7v1.4l-1.2,0.7v-1.3c-0.3,0.6-0.5,1.1-0.7,1.7v0l0,0c-0.1,0.3-0.3,0.7-0.4,1l0.4-0.2
					v1.4l-0.9,0.5c-0.1,0.3-0.1,0.6-0.2,0.9l1-0.6v1.4l-1.2,0.7v-0.3c0,0.5-0.1,1-0.1,1.5c0,0.6,0.1,1.2,0.1,1.8l1.2-0.7v1.4
					l-0.9,0.5c0.1,0.2,0.2,0.5,0.2,0.7l0.6-0.4v1.4l-0.1,0c0.2,0.4,0.5,0.7,0.8,1v-0.6l1.2-0.7v1.4l-0.6,0.4c0,0,0,0,0,0
					c0,0,0,0,0,0c0.3,0.2,0.7,0.3,1,0.3c0,0,0,0,0,0c0.1,0,0.1,0,0.2,0v-0.4l1.2-0.7v1.1c0.2,0,0.4,0,0.6-0.1c0.1,0,0.1,0,0.2,0
					c1.1-0.2,2.2-0.6,3.4-1.3c0.7-0.4,1.3-0.8,2-1.4c0,0,0,0,0.1-0.1c0.2-0.2,0.5-0.4,0.7-0.6c0.1-0.1,0.2-0.2,0.4-0.3
					c0.2-0.2,0.3-0.3,0.5-0.5c0.2-0.2,0.3-0.3,0.5-0.5c0.1-0.1,0.1-0.1,0.2-0.2v-1.1l1.2-0.7L647.2,550.2
					C647.2,550.3,647.2,550.3,647.2,550.2z M649.8,535l1.2-0.7v1.4l-1.2,0.7V535z M649.8,537.3l1.2-0.7v1.4l-1.2,0.7V537.3z
					 M649.8,539.5l1.2-0.7v1.4l-1.2,0.7V539.5z M649.8,541.7l1.2-0.7v1.4l-1.2,0.7V541.7z M647.9,533.9l1.2-0.7v1.4l-1.2,0.7V533.9z
					 M647.9,536.1l1.2-0.7v1.4l-1.2,0.7V536.1z M647.9,538.4l1.2-0.7v1.4l-1.2,0.7V538.4z M647.9,540.6l1.2-0.7v1.4l-1.2,0.7V540.6z
					 M647.9,542.8l1.2-0.7v1.4l-1.2,0.7V542.8z M647.9,545.1l1.2-0.7v1.4l-1.2,0.7V545.1z M633.6,550.2l-1.2,0.7v-1.4l1.2-0.7V550.2
					z M635.5,553.6l-1.2,0.7v-1.4l1.2-0.7V553.6z M635.5,551.3l-1.2,0.7v-1.4l1.2-0.7V551.3z M635.5,549.1l-1.2,0.7v-1.4l1.2-0.7
					V549.1z M635.5,546.9l-1.2,0.7v-1.4l1.2-0.7V546.9z M635.5,544.7l-1.2,0.7V544l1.2-0.7V544.7z M637.5,554.7l-1.2,0.7V554
					l1.2-0.7V554.7z M637.5,552.5l-1.2,0.7v-1.4l1.2-0.7V552.5z M637.5,550.2l-1.2,0.7v-1.4l1.2-0.7V550.2z M637.5,548l-1.2,0.7
					v-1.4l1.2-0.7V548z M637.5,545.8l-1.2,0.7v-1.4l1.2-0.7V545.8z M637.5,543.5l-1.2,0.7v-1.4l1.2-0.7V543.5z M637.5,541.3
					l-1.2,0.7v-1.4l1.2-0.7V541.3z M639.4,555.8l-1.2,0.7v-1.4l1.2-0.7V555.8z M639.4,553.6l-1.2,0.7v-1.4l1.2-0.7V553.6z
					 M639.4,551.3l-1.2,0.7v-1.4l1.2-0.7V551.3z M639.4,549.1l-1.2,0.7v-1.4l1.2-0.7V549.1z M639.4,546.9l-1.2,0.7v-1.4l1.2-0.7
					V546.9z M639.4,544.7l-1.2,0.7V544l1.2-0.7V544.7z M639.4,542.4l-1.2,0.7v-1.4l1.2-0.7V542.4z M639.4,540.2l-1.2,0.7v-1.4
					l1.2-0.7V540.2z M639.4,538l-1.2,0.7v-1.4l1.2-0.7V538z M641.3,554.7l-1.2,0.7V554l1.2-0.7V554.7z M641.3,552.5l-1.2,0.7v-1.4
					l1.2-0.7V552.5z M641.3,550.2l-1.2,0.7v-1.4l1.2-0.7V550.2z M641.3,548l-1.2,0.7v-1.4l1.2-0.7V548z M641.3,545.8l-1.2,0.7v-1.4
					l1.2-0.7V545.8z M641.3,543.5l-1.2,0.7v-1.4l1.2-0.7V543.5z M641.3,541.3l-1.2,0.7v-1.4l1.2-0.7V541.3z M641.3,539.1l-1.2,0.7
					v-1.4l1.2-0.7V539.1z M641.3,536.8l-1.2,0.7v-1.4l1.2-0.7V536.8z M643.3,553.6l-1.2,0.7v-1.4l1.2-0.7V553.6z M643.3,551.3
					l-1.2,0.7v-1.4l1.2-0.7V551.3z M643.3,549.1l-1.2,0.7v-1.4l1.2-0.7V549.1z M643.3,546.9l-1.2,0.7v-1.4l1.2-0.7V546.9z
					 M643.3,544.7l-1.2,0.7V544l1.2-0.7V544.7z M643.3,542.4l-1.2,0.7v-1.4l1.2-0.7V542.4z M643.3,540.2l-1.2,0.7v-1.4l1.2-0.7
					V540.2z M643.3,538l-1.2,0.7v-1.4l1.2-0.7V538z M643.3,535.7l-1.2,0.7V535l1.2-0.7V535.7z M643.3,533.5l-1.2,0.7v-1.4l1.2-0.7
					V533.5z M645.2,552.5l-1.2,0.7v-1.4l1.2-0.7V552.5z M645.2,550.2l-1.2,0.7v-1.4l1.2-0.7V550.2z M645.2,548l-1.2,0.7v-1.4
					l1.2-0.7V548z M645.2,545.8l-1.2,0.7v-1.4l1.2-0.7V545.8z M645.2,543.5l-1.2,0.7v-1.4l1.2-0.7V543.5z M645.2,541.3L644,542v-1.4
					l1.2-0.7V541.3z M645.2,539.1l-1.2,0.7v-1.4l1.2-0.7V539.1z M645.2,536.8l-1.2,0.7v-1.4l1.2-0.7V536.8z M645.2,534.6l-1.2,0.7
					v-1.4l1.2-0.7V534.6z M645.9,532.8l1.2-0.7v1.4l-1.2,0.7V532.8z M645.9,535l1.2-0.7v1.4l-1.2,0.7V535z M645.9,537.3l1.2-0.7v1.4
					l-1.2,0.7V537.3z M645.9,539.5l1.2-0.7v1.4l-1.2,0.7V539.5z M645.9,541.7l1.2-0.7v1.4l-1.2,0.7V541.7z M645.9,544l1.2-0.7v1.4
					l-1.2,0.7V544z M645.9,546.2l1.2-0.7v1.4l-1.2,0.7V546.2z M645.9,549.8v-1.4l1.2-0.7v1.4L645.9,549.8z"/>
			</g>
			<g>
				<path class="st4" d="M662.2,534.4c-1.6,0-2.7-1.3-2.7-3.3c0-2.6,1.8-5.6,4-6.9c0.7-0.4,1.3-0.6,2-0.6c1.6,0,2.7,1.3,2.7,3.3
					c0,2.6-1.8,5.6-4,6.9C663.5,534.2,662.8,534.4,662.2,534.4z"/>
				<path class="st24" d="M669,527.8c0,2.3-1.6,5.2-3.7,6.4c-2,1.2-3.7,0.2-3.7-2.1c0-2.3,1.6-5.2,3.7-6.4
					C667.3,524.5,669,525.4,669,527.8L669,527.8z"/>
				<path class="st16" d="M661.6,532c0-2.3,1.6-5.2,3.7-6.4c1-0.6,1.8-0.6,2.5-0.3l-1.3-0.8h0l0,0c-0.7-0.4-1.6-0.3-2.6,0.3
					c-2,1.2-3.7,4-3.7,6.4c0,1.2,0.5,2.1,1.2,2.4l1.3,0.8C662,534,661.6,533.2,661.6,532L661.6,532z"/>
			</g>
		</g>
		<g>
			<g>
				<path class="st3" d="M347.8,549.1l-39,22.5c-1.7,1-3,0.2-3-1.7v-54.6c0-1.9,1.4-4.3,3-5.2l39-22.5c1.7-1,3-0.2,3,1.7v54.6
					C350.8,545.8,349.4,548.1,347.8,549.1L347.8,549.1z"/>
				<path class="st4" d="M306.7,571.8c-0.5-0.3-0.9-1-0.9-2v-54.6c0-1.9,1.4-4.3,3-5.2l39-22.5c0.8-0.5,1.6-0.5,2.1-0.2l-7-4h0
					c-0.5-0.3-1.3-0.3-2.2,0.2l-39,22.5c-1.7,1-3,3.3-3,5.2v54.6c0,1,0.3,1.6,0.9,2L306.7,571.8z"/>
				<path class="st4" d="M347.7,495.2v46.8c0,1.2-0.9,2.7-1.9,3.3l-35.1,20.2c-1.1,0.6-1.9,0.1-1.9-1.1v-0.2c0,0,0.1,0,0.1,0
					l35-20.2c1.1-0.6,1.9-2.1,1.9-3.3v-46.6C346.9,493.5,347.7,494,347.7,495.2L347.7,495.2z"/>
				<path class="st23" d="M345.9,494.1v46.6c0,1.2-0.9,2.7-1.9,3.3l-35,20.2c0,0-0.1,0-0.1,0v-46.6c0-1.2,0.9-2.7,1.9-3.3
					L345.9,494.1C345.8,494.1,345.9,494.1,345.9,494.1L345.9,494.1z"/>
				<polygon class="st9" points="323.8,544.4 329.9,540.9 329.9,530.8 323.8,534.3 				"/>
				<path class="st18" d="M323.8,539.9l2.6,2.1c0.2,0.2,0.6-0.1,0.9-0.5l2.7-5.1c0.1-0.2,11.4-4.6,11.6-2.1c0,0,2.5,2.2,2.5,9.7
					l-33.9,19.6c-0.1-7.1,1.7-12.4,1.7-12.4c-0.6-2.5,11.4-11,11.4-11C323.5,540.1,323.7,539.8,323.8,539.9L323.8,539.9z"/>
				<path class="st4" d="M335.4,516.5c1.3,2.1-1.6,13.7-3.7,14.9c-2,1.2-7.7,4.5-9.8,5.6c-2,1.2-5.5-7.4-3.7-10.6
					c2.2-3,7.8-8.5,7.8-8.5S333.7,515.8,335.4,516.5L335.4,516.5z"/>
				<path class="st10" d="M334.3,522.9c1.2-0.4,2.3-2,2.6-3.7c0.3-1.7-0.4-2.7-1.6-2.3C334.2,517.3,333.2,523.3,334.3,522.9
					L334.3,522.9z"/>
				<path class="st10" d="M319.5,531.5c-1.2,0.9-2.3,0.6-2.6-0.7c-0.3-1.3,0.4-3.2,1.6-4.1C319.7,525.7,320.6,530.5,319.5,531.5
					L319.5,531.5z"/>
				<path class="st10" d="M326.9,537.1c-9.6,5.5-8-14.3-8-14.3s0.4-6.4,7.8-10.8c6.5-3.7,8.1,1.7,8.1,1.7S336.5,531.6,326.9,537.1
					L326.9,537.1z"/>
				<path class="st4" d="M335.8,516.8c-0.8,0.3-1.6,2.5-1.6,2.5l-0.3-6.4c0,0-9.3,7.3-10.8,4.1c-2.5,0.3-3,3.8-3,3.8
					s-0.7,7.6-0.7,7.3c-0.4-1.6-1.6-0.8-1.6-0.8s-2.4-11.8,9-18.4C338.2,502.4,335.8,516.5,335.8,516.8L335.8,516.8z"/>
				<path class="st12" d="M345.9,501.3v-0.6l-12.6,7.3v-6.7l-0.5,0.3v6.7l-5.2,3v-6.6l-0.5,0.3v6.6l-5.4,3.1V508l-0.5,0.3v6.6
					l-12.3,7.1v0.6l12.3-7.1v12.5l-12.3,7.1v0.6l12.3-7.1v12.5l-12.3,7.1v0.6l12.3-7.1v15.4l0.5-0.3v-15.4l5.4-3.1v15.4l0.5-0.3
					v-15.4l5.2-3v15.4l0.5-0.3v-15.4l12.6-7.3v-0.6l-12.6,7.3v-12.5l12.6-7.3v-0.6l-12.6,7.3v-12.5L345.9,501.3z M321.7,515.3
					l5.4-3.1v12.5l-5.4,3.1V515.3z M321.7,540.9v-12.5l5.4-3.1v12.5L321.7,540.9z M332.8,534.4l-5.2,3V525l5.2-3V534.4z
					 M332.8,521.4l-5.2,3v-12.5l5.2-3V521.4z"/>
			</g>
			<g>
				<path class="st4" d="M331.1,458.4c-2.1-3.8-6.6-4.7-11.8-1.7c-7.3,4.2-13.2,14.4-13.2,22.8c0,6,3,9.4,7.4,9.4l12.3-0.6l11.2-19
					L331.1,458.4z"/>
				<path class="st3" d="M337.8,472.9c0,5.3-3.7,11.7-8.3,14.3c-4.6,2.6-8.2,0.5-8.2-4.8c0-5.3,3.7-11.7,8.2-14.3
					C334.1,465.5,337.8,467.6,337.8,472.9L337.8,472.9z"/>
				<path d="M337.1,473.4c0,4.7-3.3,10.4-7.4,12.7c-2.4,1.4-4.5,1.3-5.9,0c1.2,0.2,2.6-0.1,4.1-0.9c4.1-2.3,7.4-8.1,7.4-12.8
					c0-1.9-0.6-3.4-1.5-4.3C335.8,468.6,337.1,470.4,337.1,473.4L337.1,473.4z"/>
				<path class="st8" d="M335.3,472.5c0,4.7-3.3,10.4-7.4,12.8c-1.5,0.9-2.9,1.2-4.1,0.9c-0.9-0.9-1.5-2.3-1.5-4.3
					c0-4.7,3.3-10.4,7.4-12.8c1.5-0.9,2.9-1.2,4.1-0.9C334.7,469.1,335.3,470.5,335.3,472.5L335.3,472.5z"/>
				<path class="st11" d="M333.5,475c0,2.7-1.9,6-4.2,7.3c-2.3,1.3-4.2,0.3-4.2-2.4c0-2.7,1.9-6,4.2-7.3
					C331.6,471.2,333.5,472.3,333.5,475L333.5,475z"/>
				<path class="st18" d="M333,475.7c0,2.2-1.5,4.8-3.4,5.9c-1.9,1.1-3.4,0.2-3.4-2c0-2.2,1.5-4.8,3.4-5.9
					C331.5,472.6,333,473.5,333,475.7L333,475.7z"/>
				<path class="st24" d="M330.9,476.4c0,1.1-0.8,2.4-1.7,2.9c-0.9,0.5-1.7,0.1-1.7-1c0-1.1,0.8-2.4,1.7-2.9
					C330.2,474.9,330.9,475.3,330.9,476.4L330.9,476.4z"/>
				<path class="st14" d="M326.9,477.1c-0.7,1.1-1.6,1.8-2.2,1.7c-0.5-0.2-0.4-1.2,0.2-2.2c0.6-1.1,1.6-1.8,2.2-1.7
					C327.6,475.1,327.5,476.1,326.9,477.1L326.9,477.1z"/>
			</g>
		</g>
		<g>
			<g>
				<path class="st3" d="M742.5,268.9l-30.9,17.8c-1.3,0.8-2.4,0.1-2.4-1.4v-58.8c0-1.5,1.1-3.4,2.4-4.2l30.9-17.8
					c1.3-0.8,2.4-0.1,2.4,1.4v58.8C744.9,266.2,743.9,268.1,742.5,268.9L742.5,268.9z"/>
				<path class="st4" d="M709.9,286.9c-0.4-0.3-0.7-0.8-0.7-1.6v-58.8c0-1.5,1.1-3.4,2.4-4.2l30.9-17.8c0.6-0.4,1.2-0.4,1.7-0.2
					l-13.8-8v0c-0.4-0.3-1.1-0.2-1.7,0.1l-30.9,17.8c-1.3,0.8-2.4,2.6-2.4,4.2v58.8c0,0.8,0.3,1.3,0.7,1.6L709.9,286.9z"/>
				<path class="st4" d="M742.5,210.7v40c0,1-0.7,2.2-1.5,2.6l-27.8,16.1c-0.8,0.5-1.5,0.1-1.5-0.9v-0.2c0,0,0,0,0.1,0l27.8-16
					c0.8-0.5,1.5-1.7,1.5-2.7v-39.8C741.9,209.3,742.5,209.7,742.5,210.7L742.5,210.7z"/>
				<path class="st1" d="M741.1,209.7v39.8c0,1-0.7,2.2-1.5,2.7l-27.8,16c0,0,0,0-0.1,0v-39.8c0-1,0.7-2.2,1.5-2.7L741.1,209.7
					C741,209.8,741,209.8,741.1,209.7L741.1,209.7z"/>
				<path class="st16" d="M713.1,282.5c-0.2-0.1-0.4-0.4-0.4-0.8v-6.1c0-0.8,0.6-1.9,1.3-2.3l6.5-3.8c0.3-0.2,0.7-0.2,0.9-0.1
					l-1-0.6c-0.2-0.1-0.6-0.1-0.9,0.1l-6.5,3.8c-0.7,0.4-1.3,1.4-1.3,2.3v6.1c0,0.4,0.1,0.6,0.3,0.8v0L713.1,282.5z"/>
				<path class="st24" d="M720.5,278.7l-6.5,3.8c-0.7,0.4-1.3,0.1-1.3-0.8v-6.1c0-0.8,0.6-1.9,1.3-2.3l6.5-3.8
					c0.7-0.4,1.3-0.1,1.3,0.8v6.1C721.8,277.2,721.3,278.3,720.5,278.7L720.5,278.7z"/>
				<path class="st4" d="M742.5,257.2v6.1c0,0.8-0.6,1.9-1.3,2.3l-17.4,10c-0.5,0.3-1,0.2-1.2-0.2c0.1,0,0.2-0.1,0.3-0.1l17.4-10
					c0.7-0.4,1.3-1.4,1.3-2.3v-6.1c0-0.2,0-0.4-0.1-0.5C742.1,256.1,742.5,256.5,742.5,257.2L742.5,257.2z"/>
				<path class="st23" d="M741.6,256.8v6.1c0,0.8-0.6,1.9-1.3,2.3l-17.4,10c-0.1,0.1-0.2,0.1-0.3,0.1c-0.1-0.1-0.1-0.3-0.1-0.5v-6.1
					c0-0.8,0.6-1.9,1.3-2.3l17.4-10c0.1-0.1,0.2-0.1,0.3-0.1C741.6,256.4,741.6,256.6,741.6,256.8L741.6,256.8z"/>
				<path class="st8" d="M738.2,222.6c-0.3-0.1-0.8,0-1.4,0.3c-0.7,0.4-1.3,1.2-1.7,2.2l-1.5,5.4l0.8-7.3c0.7-3.5-0.2-4.2-1-4
					c-0.1,0-0.4,0.1-0.8,0.3c-0.9,0.5-1.7,1.5-2.1,2.6l-0.1,0.2l-1.2,9.9l0.4-10.2c0.1-1-0.2-1.4-0.5-1.6c-0.7-0.5-1.7,0.1-1.8,0.2
					c-0.7,0.4-2.1,1.8-2.4,4l-0.5,12.8l-1.4-8.8c0-1.4-1.1-2-2.3-1.3l-0.1,0.1c-0.9,0.6-2.4,2.2-2.3,4.1l1.8,16.4c0,0.1,0,0.2,0,0.3
					l-1.2-1c-0.9-0.8-1.8-1-2.7-0.5c-0.6,0.3-1.1,0.9-1.6,1.7c-0.5,0.8-0.8,1.7-0.8,2.4c0,1.7,1.4,2.5,1.8,2.7
					c1.8,2,4.8,5.3,5.7,5.6l0,0c1.1,0.4,2.3-0.2,3.1-0.6c0.5-0.3,1-0.7,1.6-1c0.6-0.4,1.1-0.8,1.7-1.1c0.5-0.3,0.9-0.5,1.3-0.7
					c0.4-0.2,0.9-0.5,1.3-0.7c1.3-0.7,2.7-1.7,3.6-3.7c0.7-1.5,1.2-3.3,1.5-4.5c0.2-0.9,0.6-7.2,0.8-9.9l2.7-11.6
					C739.1,224,739,222.7,738.2,222.6L738.2,222.6z"/>
				<path class="st12" d="M737.8,223.5c-0.6-0.1-1.5,0.2-2,1.6l-2.7,9.5l-0.7,0.2l1.3-11.4c0.4-2.2,0.3-3.4-0.5-3.3c0,0-1.4,0.3-2,2
					l-1.7,14l-1.1,0.5l0.5-14.3c0.1-1.9-1.6-0.9-1.6-0.9s-1.4,0.8-1.6,2.8l-0.6,14.1c0,0.2-1.2,1-1.2,1l-1.6-10.2
					c0-1-0.7-1.4-1.6-0.9c0,0-1.7,1.2-1.6,2.8l1.8,16.5c0,0-0.1,1.1-0.3,2.5l-2.3-1.9c-1.2-1.1-2.3-0.8-3.2,0.7
					c-1.7,2.6,1.1,3.9,1.1,3.9s4.9,5.5,5.6,5.6c1.8,0.6,3.6-1.4,5.9-2.7c2.3-1.3,4.5-2,5.6-4.4c0.6-1.3,1.1-3,1.4-4.2
					c0.2-0.9,0.8-9.8,0.8-9.8l2.7-11.6C738.3,224.4,738.2,223.6,737.8,223.5L737.8,223.5z"/>
				<path class="st18" d="M722.1,229.3c0,0.9-0.6,2-1.4,2.4c-0.8,0.4-1.4,0.1-1.4-0.8s0.6-2,1.4-2.4
					C721.5,228.1,722.1,228.5,722.1,229.3z"/>
				<path class="st18" d="M717.8,248.8c0,0.9-0.6,2-1.4,2.4c-0.8,0.4-1.4,0.1-1.4-0.8c0-0.9,0.6-2,1.4-2.4
					C717.2,247.5,717.8,247.9,717.8,248.8z"/>
				<path class="st18" d="M728.7,222.6c0,0.9-0.6,1.9-1.4,2.4c-0.8,0.4-1.4,0.1-1.4-0.8s0.6-2,1.4-2.4
					C728.1,221.3,728.7,221.7,728.7,222.6z"/>
				<path class="st18" d="M733.8,221.4c0,0.8-0.5,1.7-1.2,2c-0.7,0.4-1.2,0.1-1.2-0.7c0-0.8,0.5-1.7,1.2-2
					C733.3,220.3,733.8,220.6,733.8,221.4z"/>
				<path class="st18" d="M737.9,224.7c0,0.6-0.4,1.3-0.9,1.6c-0.5,0.3-0.9,0.1-0.9-0.5c0-0.6,0.4-1.3,0.9-1.6
					C737.5,223.9,737.9,224.1,737.9,224.7z"/>
				<path class="st25" d="M741.1,220.1v-0.3l-10.1,5.8v-10.1l-0.2,0.1v10.1l-9.5,5.5v-10.1l-0.2,0.1v10.1l-9.3,5.4v0.3l9.3-5.4v10.6
					l-9.3,5.4v0.3l9.3-5.4v10.6l-9.3,5.4v0.3l9.3-5.4v9.5l0.2-0.1v-9.5l9.5-5.5v9.5l0.2-0.1v-9.5l10.1-5.8v-0.3l-10.1,5.8v-10.6
					l10.1-5.8v-0.3l-10.1,5.8v-10.6L741.1,220.1z M730.7,247.5l-9.5,5.5v-10.6l9.5-5.5V247.5z M730.7,236.6l-9.5,5.5v-10.6l9.5-5.5
					V236.6z"/>
			</g>
			<g>
				<path class="st4" d="M695.4,227l-29.6,17.1c-1,0.6-1.8,1.9-1.8,3v46.2c0,0.5,0.2,0.9,0.5,1.1l6.3,3.6l1.2-7.3l23.4-13.5v-41.7
					l6.2-5L695.4,227z"/>
				<path class="st3" d="M671.9,298c-1,0.6-1.8,0.1-1.8-1v-46.2c0-1.1,0.8-2.5,1.8-3l29.6-17.1v50.3L671.9,298z"/>
				<g>
					<path class="st5" d="M674.9,280.4c-0.1-0.1-0.2-0.2-0.2-0.5v-3.5c0-0.5,0.3-1.1,0.8-1.3l3.7-2.1c0.2-0.1,0.4-0.1,0.5-0.1
						l-0.6-0.3c-0.1-0.1-0.3-0.1-0.5,0.1l-3.7,2.2c-0.4,0.2-0.8,0.8-0.8,1.3v3.5c0,0.2,0.1,0.4,0.2,0.5l0,0L674.9,280.4z"/>
					<path class="st6" d="M679.1,278.2l-3.7,2.2c-0.4,0.2-0.8,0-0.8-0.4v-3.5c0-0.5,0.3-1.1,0.8-1.3l3.7-2.1c0.4-0.2,0.8,0,0.8,0.4
						v3.5C679.9,277.4,679.5,277.9,679.1,278.2L679.1,278.2z"/>
					<g>
						<path class="st7" d="M676.7,277.7l0.4-0.2v-1.2l-0.3,0.2v-0.3c0.2-0.2,0.3-0.3,0.4-0.4l0.3-0.2v1.7l0.3-0.2v0.4l-1.1,0.6
							V277.7z"/>
					</g>
				</g>
				<g>
					<path class="st5" d="M681.1,276.8c-0.1-0.1-0.2-0.2-0.2-0.5v-3.5c0-0.5,0.3-1.1,0.8-1.3l3.7-2.2c0.2-0.1,0.4-0.1,0.5-0.1
						l-0.6-0.3c-0.1-0.1-0.3-0.1-0.5,0.1l-3.7,2.1c-0.4,0.2-0.8,0.8-0.8,1.3v3.5c0,0.2,0.1,0.4,0.2,0.5l0,0L681.1,276.8z"/>
					<path class="st6" d="M685.3,274.6l-3.7,2.2c-0.4,0.2-0.8,0-0.8-0.4v-3.5c0-0.5,0.3-1.1,0.8-1.3l3.7-2.2c0.4-0.2,0.8,0,0.8,0.4
						v3.5C686.1,273.8,685.8,274.4,685.3,274.6L685.3,274.6z"/>
					<g>
						<path class="st7" d="M682.8,274.2c0.4-0.7,0.8-1.3,0.8-1.6c0-0.2-0.1-0.3-0.3-0.2c-0.1,0.1-0.2,0.2-0.3,0.4l-0.2-0.1
							c0.2-0.3,0.3-0.5,0.6-0.7c0.3-0.2,0.6-0.1,0.6,0.3c0,0.3-0.3,0.9-0.6,1.4c0.1-0.1,0.2-0.1,0.3-0.2l0.4-0.2v0.4l-1.2,0.7V274.2
							z"/>
					</g>
				</g>
				<g>
					<path class="st5" d="M693.5,269.6c-0.1-0.1-0.2-0.2-0.2-0.5v-3.5c0-0.5,0.3-1.1,0.8-1.3l3.7-2.2c0.2-0.1,0.4-0.1,0.5-0.1
						l-0.6-0.3c-0.1-0.1-0.3-0.1-0.5,0l-3.7,2.2c-0.4,0.2-0.8,0.8-0.8,1.3v3.5c0,0.2,0.1,0.4,0.2,0.5l0,0L693.5,269.6z"/>
					<path class="st6" d="M697.8,267.4l-3.7,2.1c-0.4,0.2-0.8,0-0.8-0.4v-3.5c0-0.5,0.3-1.1,0.8-1.3l3.7-2.2c0.4-0.2,0.8,0,0.8,0.4
						v3.5C698.6,266.6,698.2,267.1,697.8,267.4L697.8,267.4z"/>
					<g>
						<path class="st7" d="M695.3,266.3c0-0.7,0.3-1.2,0.6-1.4c0.4-0.2,0.6,0,0.6,0.7c0,0.7-0.3,1.2-0.6,1.4
							C695.5,267.2,695.3,267,695.3,266.3z M696.2,265.8c0-0.6-0.1-0.6-0.2-0.5c-0.1,0.1-0.2,0.3-0.2,0.8c0,0.6,0.1,0.6,0.2,0.6
							C696.1,266.5,696.2,266.3,696.2,265.8z"/>
					</g>
				</g>
				<g>
					<path class="st5" d="M693.5,276c-0.1-0.1-0.2-0.2-0.2-0.5V272c0-0.5,0.3-1.1,0.8-1.3l3.7-2.2c0.2-0.1,0.4-0.1,0.5-0.1l-0.6-0.3
						c-0.1-0.1-0.3-0.1-0.5,0.1l-3.7,2.2c-0.4,0.2-0.8,0.8-0.8,1.3v3.5c0,0.2,0.1,0.4,0.2,0.5l0,0L693.5,276z"/>
					<path class="st6" d="M697.8,273.8l-3.7,2.2c-0.4,0.2-0.8,0-0.8-0.4v-3.5c0-0.5,0.3-1.1,0.8-1.3l3.7-2.2c0.4-0.2,0.8,0,0.8,0.4
						v3.5C698.6,273,698.2,273.6,697.8,273.8L697.8,273.8z"/>
					<g>
						<path class="st7" d="M695.1,272.8c0-0.7,0.4-1.3,0.9-1.6c0.2-0.1,0.4-0.1,0.5,0l-0.2,0.4c-0.1,0-0.2-0.1-0.3,0
							c-0.2,0.1-0.4,0.5-0.4,0.9c0,0.4,0.2,0.6,0.4,0.4c0.1-0.1,0.3-0.2,0.4-0.4l0.2,0.2c-0.1,0.3-0.3,0.5-0.6,0.6
							C695.5,273.7,695.1,273.5,695.1,272.8z"/>
					</g>
				</g>
				<g>
					<path class="st5" d="M693.5,282.5c-0.1-0.1-0.2-0.2-0.2-0.5v-3.5c0-0.5,0.3-1.1,0.8-1.3l3.7-2.1c0.2-0.1,0.4-0.1,0.5-0.1
						l-0.6-0.3c-0.1-0.1-0.3-0.1-0.5,0l-3.7,2.1c-0.4,0.2-0.8,0.8-0.8,1.3v3.5c0,0.2,0.1,0.4,0.2,0.5l0,0L693.5,282.5z"/>
					<path class="st6" d="M697.8,280.3l-3.7,2.2c-0.4,0.2-0.8,0-0.8-0.4v-3.5c0-0.5,0.3-1.1,0.8-1.3l3.7-2.1c0.4-0.2,0.8,0,0.8,0.4
						v3.5C698.6,279.4,698.2,280,697.8,280.3L697.8,280.3z"/>
					<polygon class="st7" points="696.7,277.1 696.7,278.2 695.4,278.9 695.4,278.2 694.3,280 695.4,280.4 695.4,279.7 697.4,278.6 
						697.4,276.7 					"/>
				</g>
				<g>
					<path class="st5" d="M687.3,273.2c-0.1-0.1-0.2-0.2-0.2-0.5v-3.5c0-0.5,0.3-1.1,0.8-1.3l3.7-2.2c0.2-0.1,0.4-0.1,0.5-0.1
						l-0.6-0.3c-0.1-0.1-0.3-0.1-0.5,0.1l-3.7,2.2c-0.4,0.2-0.8,0.8-0.8,1.3v3.5c0,0.2,0.1,0.4,0.2,0.5l0,0L687.3,273.2z"/>
					<path class="st6" d="M691.5,271l-3.7,2.2c-0.4,0.2-0.8,0-0.8-0.4v-3.5c0-0.5,0.3-1.1,0.8-1.3l3.7-2.2c0.4-0.2,0.8,0,0.8,0.4
						v3.5C692.3,270.2,692,270.8,691.5,271L691.5,271z"/>
					<g>
						<path class="st7" d="M689,270.7l0.2-0.4c0.1,0.1,0.2,0.1,0.4,0c0.2-0.1,0.3-0.2,0.3-0.4c0-0.2-0.1-0.2-0.5,0v-0.3
							c0.3-0.2,0.4-0.3,0.4-0.5c0-0.1-0.1-0.2-0.2-0.1c-0.1,0.1-0.2,0.2-0.3,0.4l-0.2-0.2c0.2-0.3,0.3-0.5,0.6-0.6
							c0.4-0.2,0.6-0.2,0.6,0.2c0,0.2-0.1,0.4-0.3,0.6v0c0.2-0.1,0.3,0,0.3,0.3c0,0.4-0.3,0.8-0.7,1
							C689.3,270.8,689.1,270.8,689,270.7z"/>
					</g>
				</g>
				<g>
					<path class="st5" d="M674.9,286.9c-0.1-0.1-0.2-0.2-0.2-0.5v-3.5c0-0.5,0.3-1.1,0.8-1.3l3.7-2.1c0.2-0.1,0.4-0.1,0.5-0.1
						l-0.6-0.3c-0.1-0.1-0.3-0.1-0.5,0.1l-3.7,2.1c-0.4,0.2-0.8,0.8-0.8,1.3v3.5c0,0.2,0.1,0.4,0.2,0.5l0,0L674.9,286.9z"/>
					<path class="st6" d="M679.1,284.7l-3.7,2.1c-0.4,0.2-0.8,0-0.8-0.4v-3.5c0-0.5,0.3-1.1,0.8-1.3l3.7-2.1c0.4-0.3,0.8,0,0.8,0.4
						v3.5C679.9,283.8,679.5,284.4,679.1,284.7L679.1,284.7z"/>
					<g>
						<path class="st7" d="M677.3,283.6l-0.8,0.4v-0.3l0.6-1.6l0.5-0.3v1.2l0.2-0.1v0.4l-0.2,0.1v0.5l-0.4,0.2V283.6z M677.3,283.2
							v-0.3c0-0.1,0-0.3,0-0.5l0,0c0,0.1-0.1,0.3-0.1,0.4l-0.2,0.6L677.3,283.2z"/>
					</g>
				</g>
				<g>
					<path class="st5" d="M681.1,283.2c-0.1-0.1-0.2-0.2-0.2-0.5v-3.5c0-0.5,0.3-1.1,0.8-1.3l3.7-2.1c0.2-0.1,0.4-0.1,0.5-0.1
						l-0.6-0.3c-0.1-0.1-0.3-0.1-0.5,0.1l-3.7,2.2c-0.4,0.2-0.8,0.8-0.8,1.3v3.5c0,0.2,0.1,0.4,0.2,0.5l0,0L681.1,283.2z"/>
					<path class="st6" d="M685.3,281l-3.7,2.2c-0.4,0.2-0.8,0-0.8-0.4v-3.5c0-0.5,0.3-1.1,0.8-1.3l3.7-2.1c0.4-0.2,0.8,0,0.8,0.4
						v3.5C686.1,280.2,685.8,280.8,685.3,281L685.3,281z"/>
					<g>
						<path class="st7" d="M682.8,280.7l0.2-0.4c0.1,0.1,0.2,0.1,0.4,0c0.2-0.1,0.3-0.3,0.3-0.5c0-0.2-0.1-0.2-0.3-0.2
							c-0.1,0.1-0.2,0.1-0.3,0.3l-0.2,0l0-1.1l1-0.6v0.4l-0.6,0.4l0,0.4c0.1-0.1,0.1-0.1,0.2-0.2c0.3-0.2,0.6-0.1,0.6,0.3
							c0,0.5-0.3,0.9-0.6,1.1C683.1,280.8,682.9,280.8,682.8,280.7z"/>
					</g>
				</g>
				<g>
					<path class="st5" d="M687.3,279.6c-0.1-0.1-0.2-0.2-0.2-0.5v-3.5c0-0.5,0.3-1.1,0.8-1.3l3.7-2.1c0.2-0.1,0.4-0.1,0.5-0.1
						l-0.6-0.3c-0.1-0.1-0.3-0.1-0.5,0.1l-3.7,2.1c-0.4,0.2-0.8,0.8-0.8,1.3v3.5c0,0.2,0.1,0.4,0.2,0.5l0,0L687.3,279.6z"/>
					<path class="st6" d="M691.5,277.5l-3.7,2.2c-0.4,0.2-0.8,0-0.8-0.4v-3.5c0-0.5,0.3-1.1,0.8-1.3l3.7-2.1c0.4-0.2,0.8,0,0.8,0.4
						v3.5C692.3,276.6,692,277.2,691.5,277.5L691.5,277.5z"/>
					<g>
						<path class="st7" d="M689,276.4c0-0.8,0.3-1.3,0.7-1.5c0.2-0.1,0.4-0.1,0.5-0.1l-0.2,0.4c-0.1,0-0.2,0-0.3,0
							c-0.2,0.1-0.3,0.4-0.4,0.8c0.1-0.2,0.2-0.4,0.4-0.4c0.3-0.2,0.5-0.1,0.5,0.3c0,0.4-0.3,0.8-0.6,1
							C689.4,277.2,689,277.1,689,276.4z M689.9,276.2c0-0.2-0.1-0.2-0.2-0.2c-0.1,0.1-0.2,0.2-0.3,0.4c0,0.3,0.2,0.3,0.3,0.3
							C689.8,276.6,689.9,276.4,689.9,276.2z"/>
					</g>
				</g>
				<g>
					<path class="st5" d="M674.9,293.3c-0.1-0.1-0.2-0.2-0.2-0.5v-3.5c0-0.5,0.3-1.1,0.8-1.3l3.7-2.2c0.2-0.1,0.4-0.1,0.5-0.1
						l-0.6-0.3c-0.1-0.1-0.3-0.1-0.5,0l-3.7,2.2c-0.4,0.2-0.8,0.8-0.8,1.3v3.5c0,0.2,0.1,0.4,0.2,0.5v0L674.9,293.3z"/>
					<path class="st6" d="M679.1,291.1l-3.7,2.2c-0.4,0.2-0.8,0-0.8-0.4v-3.5c0-0.5,0.3-1.1,0.8-1.3l3.7-2.2c0.4-0.2,0.8,0,0.8,0.4
						v3.5C679.9,290.3,679.5,290.9,679.1,291.1L679.1,291.1z"/>
					<g>
						<path class="st7" d="M677.4,288.8l-0.8,0.5v-0.4l1.2-0.7v0.3c-0.4,0.8-0.5,1.2-0.5,2l-0.4,0.2
							C677,290,677.1,289.5,677.4,288.8z"/>
					</g>
				</g>
				<g>
					<path class="st5" d="M681.1,289.7c-0.1-0.1-0.2-0.2-0.2-0.5v-3.5c0-0.5,0.3-1.1,0.8-1.3l3.7-2.2c0.2-0.1,0.4-0.1,0.5-0.1
						l-0.6-0.3c-0.1-0.1-0.3-0.1-0.5,0.1l-3.7,2.1c-0.4,0.2-0.8,0.8-0.8,1.3v3.5c0,0.2,0.1,0.4,0.2,0.5h0L681.1,289.7z"/>
					<path class="st6" d="M685.3,287.5l-3.7,2.2c-0.4,0.2-0.8,0-0.8-0.4v-3.5c0-0.5,0.3-1.1,0.8-1.3l3.7-2.2c0.4-0.2,0.8,0,0.8,0.4
						v3.5C686.1,286.7,685.8,287.2,685.3,287.5L685.3,287.5z"/>
					<g>
						<path class="st7" d="M682.8,286.8c0-0.2,0.1-0.5,0.3-0.7v0c-0.1,0-0.2-0.1-0.2-0.3c0-0.3,0.2-0.7,0.6-0.9
							c0.3-0.2,0.5-0.1,0.5,0.2c0,0.2-0.1,0.4-0.2,0.6v0c0.2,0,0.3,0.1,0.3,0.4c0,0.3-0.2,0.7-0.6,0.9
							C683.1,287.2,682.8,287.1,682.8,286.8z M683.7,286.2c0-0.2-0.1-0.2-0.4-0.1c-0.1,0.1-0.1,0.3-0.1,0.4c0,0.2,0.1,0.2,0.3,0.1
							C683.6,286.6,683.7,286.4,683.7,286.2z M683.7,285.3c0-0.2-0.1-0.2-0.2-0.1c-0.1,0.1-0.2,0.2-0.2,0.3c0,0.2,0.1,0.2,0.3,0.2
							C683.6,285.5,683.7,285.4,683.7,285.3z"/>
					</g>
				</g>
				<g>
					<path class="st5" d="M687.3,286.1c-0.1-0.1-0.2-0.2-0.2-0.5v-3.5c0-0.5,0.3-1.1,0.8-1.3l3.7-2.2c0.2-0.1,0.4-0.1,0.5-0.1
						l-0.6-0.3c-0.1-0.1-0.3-0.1-0.5,0l-3.7,2.2c-0.4,0.2-0.8,0.8-0.8,1.3v3.5c0,0.2,0.1,0.4,0.2,0.5l0,0L687.3,286.1z"/>
					<path class="st6" d="M691.5,283.9l-3.7,2.1c-0.4,0.2-0.8,0-0.8-0.4v-3.5c0-0.5,0.3-1.1,0.8-1.3l3.7-2.2c0.4-0.2,0.8,0,0.8,0.4
						v3.5C692.3,283.1,692,283.7,691.5,283.9L691.5,283.9z"/>
					<g>
						<path class="st7" d="M689,283.5l0.2-0.4c0.1,0,0.2,0,0.3,0c0.2-0.1,0.3-0.4,0.4-0.8c-0.1,0.2-0.2,0.4-0.4,0.4
							c-0.3,0.2-0.5,0.1-0.5-0.3c0-0.4,0.3-0.8,0.6-1c0.3-0.2,0.7-0.1,0.7,0.6c0,0.8-0.3,1.3-0.7,1.5
							C689.3,283.6,689.2,283.5,689,283.5z M689.9,281.9c0-0.3-0.2-0.3-0.3-0.3c-0.1,0.1-0.2,0.2-0.2,0.5c0,0.2,0.1,0.2,0.2,0.2
							C689.7,282.2,689.8,282.1,689.9,281.9z"/>
					</g>
				</g>
				<polygon class="st4" points="697.8,258.4 674.1,272.1 674.1,252 697.8,238.3 				"/>
				<polygon class="st23" points="696.9,258.2 674.9,270.9 674.9,252.2 696.9,239.5 				"/>
				<path class="st14" d="M687.5,257.8v-1.1c0-1-0.7-1.4-1.6-0.9c-0.9,0.5-1.6,1.7-1.6,2.7v1.1l-0.4,0.2v3.2l3.9-2.3v-3.2
					L687.5,257.8z M684.8,258.2c0-0.7,0.5-1.6,1.1-2c0.6-0.4,1.1-0.1,1.1,0.7v1.1l-2.3,1.3V258.2z"/>
				<g>
					<path class="st14" d="M680.1,255.6l0.7-0.4V253l-0.6,0.4v-0.5c0.4-0.3,0.6-0.5,0.8-0.8l0.6-0.3v3.1l0.6-0.4v0.7l-2.1,1.2V255.6
						z"/>
					<path class="st14" d="M682.7,254.3c0.8-1.4,1.4-2.4,1.4-2.9c0-0.4-0.2-0.5-0.5-0.3c-0.2,0.1-0.4,0.4-0.6,0.7l-0.4-0.2
						c0.3-0.6,0.6-1,1.1-1.2c0.6-0.4,1.1-0.2,1.1,0.6c0,0.6-0.5,1.6-1.1,2.6c0.2-0.1,0.4-0.3,0.5-0.4l0.7-0.4v0.7l-2.3,1.3V254.3z"
						/>
					<path class="st14" d="M685.5,250.7c0-0.3,0.2-0.7,0.5-0.8c0.3-0.2,0.5,0,0.5,0.3c0,0.3-0.2,0.7-0.5,0.8
						C685.7,251.2,685.5,251.1,685.5,250.7z M685.5,252.7c0-0.3,0.2-0.7,0.5-0.8c0.3-0.2,0.5,0,0.5,0.3c0,0.3-0.2,0.7-0.5,0.8
						C685.7,253.1,685.5,253,685.5,252.7z"/>
					<path class="st14" d="M688.3,250.7l-1.4,0.8v-0.6l1.2-3l0.9-0.5v2.2l0.4-0.2v0.7l-0.4,0.2v0.9l-0.7,0.4V250.7z M688.3,250v-0.6
						c0-0.2,0-0.6,0-0.9l0,0c-0.1,0.3-0.2,0.5-0.3,0.8l-0.4,1.1L688.3,250z"/>
					<path class="st14" d="M689.6,250.3l0.3-0.8c0.2,0.1,0.4,0.1,0.7,0c0.3-0.2,0.6-0.5,0.6-0.9c0-0.4-0.2-0.5-0.5-0.3
						c-0.2,0.1-0.3,0.2-0.5,0.5l-0.3-0.1l0.1-2l1.9-1.1v0.7l-1.2,0.7l-0.1,0.7c0.1-0.1,0.2-0.2,0.4-0.3c0.6-0.3,1-0.2,1,0.6
						c0,0.8-0.6,1.7-1.2,2C690.2,250.5,689.9,250.5,689.6,250.3z"/>
				</g>
			</g>
		</g>
	</g>
</g>
</svg>
