<?xml version="1.0" encoding="utf-8"?>
<!-- Generator: Adobe Illustrator 24.2.0, SVG Export Plug-In . SVG Version: 6.00 Build 0)  -->
<svg version="1.1" id="Layer_1" xmlns="http://www.w3.org/2000/svg" xmlns:xlink="http://www.w3.org/1999/xlink" x="0px" y="0px"
	 viewBox="0 0 800 600" style="enable-background:new 0 0 800 600;" xml:space="preserve">
<style type="text/css">
	.st0{opacity:0.6;}
	.st1{fill:url(#SVGID_1_);}
	.st2{opacity:0.8;fill:url(#SVGID_2_);}
	.st3{opacity:0.43;}
	.st4{fill:url(#SVGID_3_);}
	.st5{opacity:0.43;fill:#FFFFFF;}
	.st6{opacity:0.8;fill:url(#SVGID_4_);}
	.st7{opacity:0.37;}
	.st8{fill:url(#SVGID_5_);}
	.st9{opacity:0.86;fill:#FFFFFF;}
	.st10{opacity:0.76;}
	.st11{fill:url(#SVGID_6_);}
	.st12{opacity:0.45;fill:#FFFFFF;}
	.st13{fill:url(#SVGID_7_);}
	.st14{fill:url(#SVGID_8_);}
	.st15{opacity:0.75;fill:#FFFFFF;}
	.st16{fill:url(#SVGID_9_);}
	.st17{fill:url(#SVGID_10_);}
	.st18{fill:url(#SVGID_11_);}
	.st19{fill:url(#SVGID_12_);}
	.st20{fill:url(#SVGID_13_);}
	.st21{fill:url(#SVGID_14_);}
	.st22{fill:url(#SVGID_15_);}
	.st23{fill:url(#SVGID_16_);}
	.st24{fill:url(#SVGID_17_);}
	.st25{fill:url(#SVGID_18_);}
	.st26{fill:url(#SVGID_19_);}
	.st27{fill:url(#SVGID_20_);}
	.st28{fill:url(#SVGID_21_);}
	.st29{fill:url(#SVGID_22_);}
	.st30{fill:url(#SVGID_23_);}
	.st31{fill:url(#SVGID_24_);}
	.st32{fill:url(#SVGID_25_);}
	.st33{fill:url(#SVGID_26_);}
	.st34{fill:url(#SVGID_27_);}
	.st35{fill:url(#SVGID_28_);}
	.st36{fill:url(#SVGID_29_);}
	.st37{fill:url(#SVGID_30_);}
	.st38{fill:url(#SVGID_31_);}
	.st39{opacity:0.8;}
	.st40{fill:url(#SVGID_32_);}
	.st41{fill:url(#SVGID_33_);}
	.st42{fill:#FFFFFF;}
	.st43{fill:url(#SVGID_34_);}
	.st44{opacity:0.87;fill:#FFFFFF;}
	.st45{fill:url(#SVGID_35_);}
	.st46{fill:url(#SVGID_36_);}
	.st47{fill:url(#SVGID_37_);}
	.st48{fill:url(#SVGID_38_);}
	.st49{fill:url(#SVGID_39_);}
	.st50{fill:url(#SVGID_40_);}
	.st51{fill:url(#SVGID_41_);}
	.st52{fill:url(#SVGID_42_);}
	.st53{fill:url(#SVGID_43_);}
	.st54{fill:url(#SVGID_44_);}
	.st55{fill:url(#SVGID_45_);}
	.st56{fill:url(#SVGID_46_);}
	.st57{fill:url(#SVGID_47_);}
	.st58{fill:url(#SVGID_48_);}
	.st59{fill:url(#SVGID_49_);}
	.st60{fill:url(#SVGID_50_);}
	.st61{fill:url(#SVGID_51_);}
	.st62{fill:url(#SVGID_52_);}
	.st63{fill:url(#SVGID_53_);}
	.st64{fill:url(#SVGID_54_);}
	.st65{fill:url(#SVGID_55_);}
	.st66{fill:url(#SVGID_56_);}
	.st67{opacity:0.6;fill:#FFFFFF;}
	.st68{opacity:0.61;fill:#FFFFFF;}
	.st69{fill:url(#SVGID_57_);}
	.st70{fill:url(#SVGID_58_);}
	.st71{fill:url(#SVGID_59_);}
	.st72{fill:url(#SVGID_60_);}
	.st73{fill:url(#SVGID_61_);}
	.st74{fill:url(#SVGID_62_);}
	.st75{fill:url(#SVGID_63_);}
	.st76{fill:url(#SVGID_64_);}
	.st77{fill:url(#SVGID_65_);}
	.st78{fill:url(#SVGID_66_);}
	.st79{fill:url(#SVGID_67_);}
	.st80{fill:url(#SVGID_68_);}
	.st81{fill:url(#SVGID_69_);}
	.st82{fill:url(#SVGID_70_);}
	.st83{fill:url(#SVGID_71_);}
	.st84{fill:url(#SVGID_72_);}
	.st85{fill:#CE41A4;}
	.st86{fill:url(#SVGID_73_);}
	.st87{fill:url(#SVGID_74_);}
	.st88{fill:url(#SVGID_75_);}
	.st89{fill:url(#SVGID_76_);}
	.st90{fill:url(#SVGID_77_);}
	.st91{fill:url(#SVGID_78_);}
	.st92{fill:url(#SVGID_79_);}
	.st93{fill:url(#SVGID_80_);}
	.st94{fill:url(#SVGID_81_);}
	.st95{fill:url(#SVGID_82_);}
	.st96{fill:url(#SVGID_83_);}
	.st97{fill:url(#SVGID_84_);}
	.st98{fill:url(#SVGID_85_);}
	.st99{fill:url(#SVGID_86_);}
	.st100{fill:url(#SVGID_87_);}
	.st101{fill:url(#SVGID_88_);}
	.st102{fill:url(#SVGID_89_);}
	.st103{fill:url(#SVGID_90_);}
	.st104{fill:url(#SVGID_91_);}
	.st105{fill:url(#SVGID_92_);}
	.st106{fill:url(#SVGID_93_);}
	.st107{fill:url(#SVGID_94_);}
	.st108{fill:url(#SVGID_95_);}
	.st109{fill:url(#SVGID_96_);}
	.st110{fill:url(#SVGID_97_);}
	.st111{fill:url(#SVGID_98_);}
	.st112{fill:url(#SVGID_99_);}
	.st113{fill:url(#SVGID_100_);}
	.st114{opacity:0.54;fill:#FFFFFF;}
	.st115{fill:url(#SVGID_101_);}
</style>
<g>
	<g class="st0">
		<linearGradient id="SVGID_1_" gradientUnits="userSpaceOnUse" x1="20.7117" y1="296.4901" x2="782.2982" y2="296.4901">
			<stop  offset="0" style="stop-color:#B37CFF"/>
			<stop  offset="1" style="stop-color:#F895E7"/>
		</linearGradient>
		<path class="st1" d="M751.9,386.9c-70-46.4-66.6-17.2-55.7-81.4C707.1,241.3,720,58.6,567.1,66.4
			c-152.9,7.8-160.1,95.5-281.6,37.4C164,45.6,12,197.9,93.5,292.3c78.7,91.1-187.7,95.9-10.9,220.1c13.1,9.2,28.3,14.4,44.1,14.4
			c0,0,600.3-1.7,601-1.7C791.8,524.9,799,418.1,751.9,386.9z"/>
		<linearGradient id="SVGID_2_" gradientUnits="userSpaceOnUse" x1="679.412" y1="224.1134" x2="-162.0068" y2="567.8636">
			<stop  offset="0" style="stop-color:#B37CFF"/>
			<stop  offset="1" style="stop-color:#F895E7"/>
		</linearGradient>
		<path class="st2" d="M725.3,396.6c-65.7-43.6-51.2-26.5-41-86.7c10.2-60.2,22.3-231.5-121.1-224.2c-143.4,7.3-150.2,89.6-264.1,35
			C185.2,66.2,42.7,209,119.1,297.5c73.8,85.5-176.1,89.8-10.2,206.3c12.3,8.6,26.6,13.3,41.3,13.3c0,0,555.4-3.5,555.4-3.5
			c24.5,0,46.6-21.5,53.5-45.7C767.9,437.4,748.6,412,725.3,396.6z"/>
	</g>
	<g>
		<g class="st3">
			
				<linearGradient id="SVGID_3_" gradientUnits="userSpaceOnUse" x1="687.4744" y1="349.1407" x2="418.1764" y2="689.4358" gradientTransform="matrix(1.0222 -0.1066 0.2507 0.8502 -116.8431 75.3502)">
				<stop  offset="0" style="stop-color:#CB236D"/>
				<stop  offset="1" style="stop-color:#4C246D"/>
			</linearGradient>
			<path class="st4" d="M694.7,279.4c0-2.5-3.9-3.8-5.3-1.7c-13.2,20.4-49.8,72.7-91,94.1C531.3,406.6,474.2,478.3,498.1,531
				C498.1,531,694.1,556.5,694.7,279.4z"/>
			<path class="st5" d="M681.2,310c-0.3,0.8-0.6,1.3-0.8,2l-0.9,1.9l-1.8,3.7c-1.2,2.5-2.5,4.9-3.7,7.4c-2.5,4.9-5.2,9.8-7.8,14.6
				c-5.3,9.6-11,19.1-16.8,28.4c-11.6,18.7-24.2,36.6-37.6,53.8c-6.7,8.6-13.8,16.9-21,25c-7.3,8.1-14.8,15.8-22.6,23.3
				c-7.9,7.4-16,14.4-24.4,21c-4.3,3.2-8.5,6.4-13,9.3c-4.3,3.1-8.9,5.8-13.4,8.5c-0.2,0.1-0.4,0-0.5-0.2c-0.1-0.2,0-0.4,0.1-0.6
				l0,0c8.9-5.7,17.5-11.9,25.9-18.6c8.3-6.7,16.3-13.8,24-21.3c7.7-7.5,15.2-15.2,22.3-23.3c7.2-8.1,14.1-16.4,20.8-24.9
				c6.7-8.5,13.2-17.2,19.5-26.1l4.7-6.7l4.6-6.8c3-4.5,6-9.1,9-13.7c5.9-9.2,11.6-18.6,17.1-28.1c2.7-4.8,5.4-9.5,8.1-14.4
				c1.3-2.4,2.6-4.8,3.9-7.3l1.9-3.7l0.9-1.8c0.3-0.6,0.6-1.3,0.8-1.8l0-0.1c0.1-0.2,0.3-0.3,0.5-0.2
				C681.2,309.6,681.3,309.8,681.2,310z"/>
		</g>
		<g>
			
				<linearGradient id="SVGID_4_" gradientUnits="userSpaceOnUse" x1="-239.0759" y1="492.9915" x2="-507.3427" y2="831.9836" gradientTransform="matrix(0.9111 -0.4121 0.4121 0.9111 614.9832 -366.8001)">
				<stop  offset="0" style="stop-color:#53D8FF"/>
				<stop  offset="1" style="stop-color:#3840F7"/>
			</linearGradient>
			<path class="st6" d="M617.4,152.8c-0.5-2.9-4.2-3.1-5.1-0.3c-7.8,27.1-30.5,97.4-63.3,134c-53.5,59.6-90.6,158.1-58.9,210.7
				C490.1,497.2,671.1,467.3,617.4,152.8z"/>
			<path class="st5" d="M611.3,191.6c-0.1,0.9-0.2,1.6-0.3,2.4l-0.4,2.3l-0.8,4.6c-0.6,3.1-1.2,6.1-1.8,9.2
				c-1.3,6.1-2.6,12.2-4,18.3c-2.8,12.2-5.9,24.3-9.1,36.3c-3.2,12-6.8,24-10.6,35.9c-3.8,11.9-7.7,23.7-12,35.3
				c-8.6,23.3-18.3,46.2-29.5,68.2c-0.7,1.4-1.4,2.7-2.1,4.1l-2.2,4.1l-2.2,4.1c-0.7,1.3-1.5,2.7-2.3,4c-1.5,2.7-3,5.4-4.6,8
				l-4.8,7.9c-6.6,10.4-13.6,20.4-21.2,29.9c-0.1,0.2-0.4,0.2-0.5,0c-0.2-0.1-0.2-0.4,0-0.6l0,0c7.3-9.7,14.1-19.8,20.5-30.3
				l4.7-7.9c1.5-2.6,3-5.4,4.5-8c0.7-1.3,1.5-2.7,2.2-4l2.1-4.1l2.1-4.1c0.7-1.4,1.4-2.7,2.1-4.1c5.5-11,10.6-22.2,15.5-33.6
				c4.9-11.4,9.3-22.9,13.6-34.5c8.6-23.2,16.1-47,22.9-70.9c3.4-12,6.6-24,9.5-36.1c1.5-6.1,2.9-12.1,4.3-18.2c0.7-3,1.3-6.1,2-9.1
				l0.9-4.6l0.5-2.3c0.1-0.8,0.3-1.6,0.4-2.2l0-0.1c0-0.2,0.2-0.4,0.4-0.3C611.1,191.2,611.3,191.4,611.3,191.6z"/>
		</g>
	</g>
	<g class="st7">
		
			<linearGradient id="SVGID_5_" gradientUnits="userSpaceOnUse" x1="2277.3411" y1="-2888.2737" x2="2543.3657" y2="-2888.2737" gradientTransform="matrix(-0.9902 -0.1392 -0.1392 0.9902 2228.2361 3507.7756)">
			<stop  offset="0" style="stop-color:#A737D5"/>
			<stop  offset="1" style="stop-color:#EF497A"/>
		</linearGradient>
		<path class="st8" d="M141.7,115.2c40.5,19,271.7,139.7,205.9,394.7c0,0-171.2-37.1-211.1-390.5
			C136.2,116.3,139.1,113.9,141.7,115.2z"/>
		<path class="st9" d="M163.8,156.7c9.7,11,19.2,22.3,28.6,33.6c9.4,11.3,18.7,22.8,27.8,34.4c18.3,23.1,36.2,46.7,53.3,70.9
			c17.1,24.2,33.6,48.9,48.9,74.6c7.7,12.8,14.9,25.9,21.6,39.3c6.7,13.4,13,27.1,18.2,41.4c0.3,0.8-0.1,1.8-0.9,2.1
			c-0.8,0.3-1.7-0.1-2-0.9l0,0l0,0c-5.1-14.1-11.2-27.8-17.9-41.1c-6.7-13.4-13.8-26.5-21.3-39.3c-15-25.7-31.4-50.5-48.4-74.7
			c-17-24.2-34.7-47.9-52.9-71.1c-9.1-11.6-18.3-23.1-27.7-34.5c-9.3-11.4-18.8-22.7-28.4-33.7l0,0c-0.2-0.3-0.2-0.7,0-1
			C163.2,156.4,163.6,156.4,163.8,156.7z"/>
	</g>
	<g>
		<g class="st10">
			
				<linearGradient id="SVGID_6_" gradientUnits="userSpaceOnUse" x1="3820.4465" y1="7052.1709" x2="3882.3713" y2="7052.1709" gradientTransform="matrix(-0.4215 0.9069 0.725 0.3369 -3307.3513 -5380.5649)">
				<stop  offset="0" style="stop-color:#A737D5"/>
				<stop  offset="1" style="stop-color:#EF497A"/>
			</linearGradient>
			<path class="st11" d="M258.3,532.1c0,0-6.1-25.6-34-40.1c-25.9-13.5-88.8-43-107.2-68c-0.8-1.1-2.5,0.2-2.2,1.7
				c3.4,16.2,14.6,55.5,47.2,83.3C204.1,544.7,258.3,532.1,258.3,532.1z"/>
			<path class="st12" d="M131.5,448.6c1.3,3,2.9,5.7,4.6,8.4c0.8,1.4,1.7,2.6,2.6,3.9c0.9,1.3,1.9,2.5,2.8,3.8
				c3.9,4.9,8.2,9.4,12.9,13.4l1.7,1.5c0.6,0.5,1.2,1,1.8,1.4c1.2,0.9,2.4,1.9,3.6,2.8l3.8,2.6c1.2,0.9,2.5,1.7,3.9,2.5
				c1.3,0.8,2.6,1.6,3.9,2.4l4,2.1c2.7,1.5,5.5,2.7,8.2,4.1c5.5,2.6,11.1,5.1,16.7,7.6c5.6,2.4,11.2,4.8,16.9,7.2
				c2.8,1.2,5.6,2.4,8.5,3.6c1.4,0.6,2.8,1.2,4.2,1.9l2.1,1l2.1,1c2.8,1.3,5.5,2.8,8.2,4.5c2.6,1.7,5.2,3.6,7.4,5.8
				c0.2,0.2,0.2,0.4,0,0.6c-0.1,0.2-0.4,0.2-0.5,0l0,0c-2.3-2-4.9-3.7-7.6-5.2c-2.7-1.4-5.4-2.8-8.2-3.9c-5.6-2.4-11.3-4.5-17-6.8
				l-8.5-3.3c-2.8-1.2-5.7-2.3-8.5-3.5c-2.8-1.2-5.6-2.4-8.5-3.6c-2.8-1.3-5.6-2.5-8.4-3.9c-11.1-5.2-22.1-11.6-31.3-20.3
				c-4.6-4.3-8.9-9.1-12.6-14.4c-1.8-2.7-3.5-5.4-5.1-8.2C133.7,454.7,132.4,451.8,131.5,448.6C131.4,448.6,131.4,448.6,131.5,448.6
				C131.4,448.6,131.5,448.6,131.5,448.6z"/>
		</g>
		<g class="st10">
			
				<linearGradient id="SVGID_7_" gradientUnits="userSpaceOnUse" x1="-2134.6611" y1="688.9703" x2="-2197.0957" y2="848.6241" gradientTransform="matrix(-0.9466 0.3223 0.3223 0.9466 -2176.5796 312.4548)">
				<stop  offset="0" style="stop-color:#53D8FF"/>
				<stop  offset="1" style="stop-color:#3840F7"/>
			</linearGradient>
			<path class="st13" d="M110.4,263.7c-0.1-2.5,3-3.4,4.2-1.3c11.1,21,41.7,75.2,75.2,99.3c54.5,39.3,102,114,84.4,164.1
				C274.2,525.9,118.4,536.3,110.4,263.7z"/>
			<path class="st5" d="M122.8,294.7c0.2,0.5,0.5,1.2,0.7,1.8l0.8,1.8l1.6,3.6l3.2,7.2c2.2,4.8,4.4,9.6,6.7,14.3
				c4.5,9.5,9.2,18.9,14,28.2c9.7,18.6,19.9,36.9,31,54.6c5.6,8.8,11.2,17.6,17.1,26.1c6,8.5,12.1,16.9,18.5,25
				c6.4,8.1,13.1,16,20.1,23.5c7,7.5,14.4,14.6,22.1,21.3l0,0c0.2,0.1,0.2,0.4,0.1,0.6c-0.1,0.2-0.4,0.2-0.5,0.1
				c-8-6.4-15.5-13.4-22.7-20.7c-7.2-7.4-14-15.2-20.6-23.2c-13-16.2-25-33.3-36-51.1c-5.5-8.9-10.8-18-16-27.1
				c-5.1-9.2-10.1-18.4-14.8-27.8c-4.7-9.4-9.3-18.9-13.7-28.5c-2.2-4.8-4.3-9.6-6.4-14.5c-1-2.4-2.1-4.9-3.1-7.3l-1.5-3.7l-0.7-1.9
				c-0.2-0.6-0.5-1.2-0.7-1.9c-0.1-0.2,0-0.4,0.2-0.5C122.4,294.3,122.6,294.4,122.8,294.7L122.8,294.7z"/>
		</g>
	</g>
	<g>
		<linearGradient id="SVGID_8_" gradientUnits="userSpaceOnUse" x1="171.0833" y1="550.4082" x2="477.3329" y2="196.0562">
			<stop  offset="0" style="stop-color:#2C50FF"/>
			<stop  offset="0.9964" style="stop-color:#1A1B80"/>
		</linearGradient>
		<path class="st14" d="M566.7,64.2c-3-3.3-7.1-5.2-11.5-5.2L228,59.2c-4.3,0-8.5,1.9-11.5,5.3c-3,3.4-4.6,7.9-4.5,12.6l13,451.9
			c0.3,9.3,7.3,16.6,16,16.6h302c8.6,0,15.7-7.2,16-16.6l12.3-452.2C571.4,72,569.7,67.5,566.7,64.2z"/>
		<path class="st15" d="M552.2,85c-2.8-3.1-6.5-4.8-10.5-4.8l-299.1,0.2c-3.9,0-7.7,1.7-10.5,4.8c-2.7,3.1-4.2,7.2-4.1,11.5
			l11.9,412.9c0.2,8.5,6.7,15.1,14.6,15.1h276c7.9,0,14.4-6.6,14.6-15.1l11.2-413.2C556.5,92.1,555,88,552.2,85z"/>
		<g>
			<g>
				<linearGradient id="SVGID_9_" gradientUnits="userSpaceOnUse" x1="307.9479" y1="16.7048" x2="380.2811" y2="110.7378">
					<stop  offset="0" style="stop-color:#53D8FF"/>
					<stop  offset="1" style="stop-color:#3840F7"/>
				</linearGradient>
				<ellipse class="st16" cx="391.6" cy="125.5" rx="32.4" ry="35"/>
				<linearGradient id="SVGID_10_" gradientUnits="userSpaceOnUse" x1="390.6689" y1="99.4108" x2="394.7981" y2="161.349">
					<stop  offset="0" style="stop-color:#53D8FF"/>
					<stop  offset="1" style="stop-color:#3840F7"/>
				</linearGradient>
				<ellipse class="st17" cx="392.4" cy="125.5" rx="30.1" ry="32.5"/>
			</g>
			<g>
				<linearGradient id="SVGID_11_" gradientUnits="userSpaceOnUse" x1="307.9479" y1="362.019" x2="380.2811" y2="456.0521">
					<stop  offset="0" style="stop-color:#53D8FF"/>
					<stop  offset="1" style="stop-color:#3840F7"/>
				</linearGradient>
				<ellipse class="st18" cx="391.6" cy="470.8" rx="32.4" ry="35"/>
				<linearGradient id="SVGID_12_" gradientUnits="userSpaceOnUse" x1="386.8621" y1="396.5832" x2="397.5972" y2="540.2684">
					<stop  offset="0" style="stop-color:#53D8FF"/>
					<stop  offset="1" style="stop-color:#3840F7"/>
				</linearGradient>
				<ellipse class="st19" cx="392.4" cy="470.8" rx="30.1" ry="32.5"/>
			</g>
			<linearGradient id="SVGID_13_" gradientUnits="userSpaceOnUse" x1="284.1376" y1="290.4965" x2="370.493" y2="254.9608">
				<stop  offset="0" style="stop-color:#53D8FF"/>
				<stop  offset="1" style="stop-color:#3840F7"/>
			</linearGradient>
			<polygon class="st20" points="391.7,205.9 354.3,246.2 391.6,286.6 429,246.4 			"/>
			<linearGradient id="SVGID_14_" gradientUnits="userSpaceOnUse" x1="390.7208" y1="313.2313" x2="391.8223" y2="233.374">
				<stop  offset="0" style="stop-color:#E92556"/>
				<stop  offset="1" style="stop-color:#F9C342"/>
			</linearGradient>
			<polygon class="st21" points="391.7,209.2 357.3,246.2 391.6,283.3 425.9,246.3 			"/>
			<g>
				<linearGradient id="SVGID_15_" gradientUnits="userSpaceOnUse" x1="439.9059" y1="285.8416" x2="460.1704" y2="309.2643">
					<stop  offset="0" style="stop-color:#53D8FF"/>
					<stop  offset="1" style="stop-color:#3840F7"/>
				</linearGradient>
				<path class="st22" d="M524.8,344.6c0,12.3-9.2,22.3-20.6,22.3h-26.7c-11.4,0-20.6-10-20.6-22.3l0,0c0-12.3,9.2-22.3,20.6-22.3
					h26.7C515.5,322.3,524.8,332.3,524.8,344.6L524.8,344.6z"/>
				<linearGradient id="SVGID_16_" gradientUnits="userSpaceOnUse" x1="490.5539" y1="384.274" x2="490.5539" y2="323.1418">
					<stop  offset="0" style="stop-color:#233894"/>
					<stop  offset="0.9964" style="stop-color:#DD397A"/>
				</linearGradient>
				<path class="st23" d="M522,344.6c0,11.5-8.5,20.7-19,20.7h-24.8c-10.5,0-19-9.1-19-20.7l0,0c0-11.5,8.5-20.7,19-20.7H503
					C513.5,324,522,333.1,522,344.6L522,344.6z"/>
			</g>
			<g>
				<linearGradient id="SVGID_17_" gradientUnits="userSpaceOnUse" x1="341.3149" y1="285.8416" x2="361.5795" y2="309.2643">
					<stop  offset="0" style="stop-color:#53D8FF"/>
					<stop  offset="1" style="stop-color:#3840F7"/>
				</linearGradient>
				<path class="st24" d="M426.2,344.6c0,12.3-9.2,22.3-20.6,22.3h-26.7c-11.4,0-20.6-10-20.6-22.3l0,0c0-12.3,9.2-22.3,20.6-22.3
					h26.7C416.9,322.3,426.2,332.3,426.2,344.6L426.2,344.6z"/>
				<linearGradient id="SVGID_18_" gradientUnits="userSpaceOnUse" x1="391.963" y1="384.274" x2="391.963" y2="323.1418">
					<stop  offset="0" style="stop-color:#233894"/>
					<stop  offset="0.9964" style="stop-color:#DD397A"/>
				</linearGradient>
				<path class="st25" d="M423.4,344.6c0,11.5-8.5,20.7-19,20.7h-24.8c-10.5,0-19-9.1-19-20.7l0,0c0-11.5,8.5-20.7,19-20.7h24.8
					C414.9,324,423.4,333.1,423.4,344.6L423.4,344.6z"/>
			</g>
			<g>
				<linearGradient id="SVGID_19_" gradientUnits="userSpaceOnUse" x1="240.4312" y1="285.8416" x2="260.6958" y2="309.2643">
					<stop  offset="0" style="stop-color:#53D8FF"/>
					<stop  offset="1" style="stop-color:#3840F7"/>
				</linearGradient>
				<path class="st26" d="M325.3,344.6c0,12.3-9.2,22.3-20.6,22.3h-26.7c-11.4,0-20.6-10-20.6-22.3l0,0c0-12.3,9.2-22.3,20.6-22.3
					h26.7C316.1,322.3,325.3,332.3,325.3,344.6L325.3,344.6z"/>
				<linearGradient id="SVGID_20_" gradientUnits="userSpaceOnUse" x1="291.0793" y1="384.274" x2="291.0793" y2="323.1418">
					<stop  offset="0" style="stop-color:#233894"/>
					<stop  offset="0.9964" style="stop-color:#DD397A"/>
				</linearGradient>
				<path class="st27" d="M322.5,344.6c0,11.5-8.5,20.7-19,20.7h-24.8c-10.5,0-19-9.1-19-20.7l0,0c0-11.5,8.5-20.7,19-20.7h24.8
					C314,324,322.5,333.1,322.5,344.6L322.5,344.6z"/>
			</g>
			<g>
				
					<linearGradient id="SVGID_21_" gradientUnits="userSpaceOnUse" x1="2097.2434" y1="-3146.8101" x2="2069.4353" y2="-3133.5818" gradientTransform="matrix(0 1 -1 0 -2748.0271 -1902.2885)">
					<stop  offset="0" style="stop-color:#2B3582"/>
					<stop  offset="1" style="stop-color:#150E42"/>
				</linearGradient>
				<path class="st28" d="M392.2,198c-0.6,0-1.1-0.6-1.1-1.2v-31.4c0-0.7,0.5-1.2,1.1-1.2c0.6,0,1.1,0.6,1.1,1.2v31.4
					C393.3,197.4,392.8,198,392.2,198z"/>
				
					<linearGradient id="SVGID_22_" gradientUnits="userSpaceOnUse" x1="2098.573" y1="-3137.115" x2="2094.9307" y2="-3144.7717" gradientTransform="matrix(0 1 -1 0 -2748.0271 -1902.2885)">
					<stop  offset="0" style="stop-color:#2B3582"/>
					<stop  offset="1" style="stop-color:#150E42"/>
				</linearGradient>
				<polygon class="st29" points="396.3,191.8 391.6,200.6 386.9,191.8 				"/>
			</g>
			<g>
				
					<linearGradient id="SVGID_23_" gradientUnits="userSpaceOnUse" x1="2214.4871" y1="-3145.2078" x2="2193.4158" y2="-3135.1841" gradientTransform="matrix(0 1 -1 0 -2748.0271 -1902.2885)">
					<stop  offset="0" style="stop-color:#2B3582"/>
					<stop  offset="1" style="stop-color:#150E42"/>
				</linearGradient>
				<path class="st30" d="M392.2,314.5c-0.6,0-1.1-0.6-1.1-1.2v-23.1c0-0.7,0.5-1.2,1.1-1.2c0.6,0,1.1,0.6,1.1,1.2v23.1
					C393.3,313.9,392.8,314.5,392.2,314.5z"/>
				
					<linearGradient id="SVGID_24_" gradientUnits="userSpaceOnUse" x1="2215.0547" y1="-3137.115" x2="2211.4124" y2="-3144.7717" gradientTransform="matrix(0 1 -1 0 -2748.0271 -1902.2885)">
					<stop  offset="0" style="stop-color:#2B3582"/>
					<stop  offset="1" style="stop-color:#150E42"/>
				</linearGradient>
				<polygon class="st31" points="396.3,308.3 391.6,317.1 386.9,308.3 				"/>
			</g>
			<g>
				
					<linearGradient id="SVGID_25_" gradientUnits="userSpaceOnUse" x1="2325.3262" y1="-3145.1213" x2="2298.1917" y2="-3132.2136" gradientTransform="matrix(0 1 -1 0 -2748.0271 -1902.2885)">
					<stop  offset="0" style="stop-color:#2B3582"/>
					<stop  offset="1" style="stop-color:#150E42"/>
				</linearGradient>
				<path class="st32" d="M390.6,426c-0.6,0-1.1-0.6-1.1-1.2v-30.6c0-0.7,0.5-1.2,1.1-1.2c0.6,0,1.1,0.6,1.1,1.2v30.6
					C391.8,425.4,391.3,426,390.6,426z"/>
				
					<linearGradient id="SVGID_26_" gradientUnits="userSpaceOnUse" x1="2326.5796" y1="-3135.9397" x2="2322.9373" y2="-3143.5964" gradientTransform="matrix(0 1 -1 0 -2748.0271 -1902.2885)">
					<stop  offset="0" style="stop-color:#2B3582"/>
					<stop  offset="1" style="stop-color:#150E42"/>
				</linearGradient>
				<polygon class="st33" points="395.2,419.8 390.5,428.6 385.8,419.8 				"/>
			</g>
			<g>
				<linearGradient id="SVGID_27_" gradientUnits="userSpaceOnUse" x1="351.3889" y1="245.025" x2="274.9557" y2="281.3839">
					<stop  offset="0" style="stop-color:#2B3582"/>
					<stop  offset="1" style="stop-color:#150E42"/>
				</linearGradient>
				<path class="st34" d="M287.5,306.2c-0.6,0-1.1-0.6-1.1-1.2v-59.1c0-0.7,0.5-1.2,1.1-1.2h63.1c0.6,0,1.1,0.6,1.1,1.2
					c0,0.7-0.5,1.2-1.1,1.2h-61.9V305C288.6,305.7,288.1,306.2,287.5,306.2z"/>
				
					<linearGradient id="SVGID_28_" gradientUnits="userSpaceOnUse" x1="2210.9241" y1="-3032.4099" x2="2207.2817" y2="-3040.0667" gradientTransform="matrix(0 1 -1 0 -2748.0271 -1902.2885)">
					<stop  offset="0" style="stop-color:#2B3582"/>
					<stop  offset="1" style="stop-color:#150E42"/>
				</linearGradient>
				<polygon class="st35" points="291.6,304.1 286.9,312.9 282.2,304.1 				"/>
			</g>
			<g>
				
					<linearGradient id="SVGID_29_" gradientUnits="userSpaceOnUse" x1="-1530.8555" y1="245.304" x2="-1607.2887" y2="281.6629" gradientTransform="matrix(-1 0 0 1 -1097.1427 -0.279)">
					<stop  offset="0" style="stop-color:#2B3582"/>
					<stop  offset="1" style="stop-color:#150E42"/>
				</linearGradient>
				<path class="st36" d="M497.6,306.2c-0.6,0-1.1-0.6-1.1-1.2v-57.8h-61.9c-0.6,0-1.1-0.6-1.1-1.2c0-0.7,0.5-1.2,1.1-1.2h63.1
					c0.6,0,1.1,0.6,1.1,1.2V305C498.8,305.7,498.3,306.2,497.6,306.2z"/>
				
					<linearGradient id="SVGID_30_" gradientUnits="userSpaceOnUse" x1="2211.2031" y1="-1150.5585" x2="2207.5608" y2="-1158.2152" gradientTransform="matrix(0 1 1 0 1650.8844 -1902.5675)">
					<stop  offset="0" style="stop-color:#2B3582"/>
					<stop  offset="1" style="stop-color:#150E42"/>
				</linearGradient>
				<polygon class="st37" points="493.1,304.1 497.8,312.9 502.5,304.1 				"/>
			</g>
			<linearGradient id="SVGID_31_" gradientUnits="userSpaceOnUse" x1="285.553" y1="382.8283" x2="498.0202" y2="382.8283">
				<stop  offset="0" style="stop-color:#2B3582"/>
				<stop  offset="1" style="stop-color:#150E42"/>
			</linearGradient>
			<path class="st38" d="M496.9,395H286.7c-0.6,0-1.1-0.6-1.1-1.2v-21.9c0-0.7,0.5-1.2,1.1-1.2s1.1,0.6,1.1,1.2v20.7h207.9v-20.7
				c0-0.7,0.5-1.2,1.1-1.2c0.6,0,1.1,0.6,1.1,1.2v21.9C498,394.5,497.5,395,496.9,395z"/>
		</g>
		<g class="st39">
			<linearGradient id="SVGID_32_" gradientUnits="userSpaceOnUse" x1="358.1118" y1="93.4861" x2="229.6667" y2="117.9518">
				<stop  offset="0" style="stop-color:#2C50FF"/>
				<stop  offset="0.9964" style="stop-color:#1A1B80"/>
			</linearGradient>
			<path class="st40" d="M335.2,106.4c0,2.9-2.2,5.2-4.8,5.2h-79c-2.7,0-4.8-2.3-4.8-5.2v-0.3c0-2.9,2.2-5.2,4.8-5.2h79
				c2.7,0,4.8,2.3,4.8,5.2V106.4z"/>
			<linearGradient id="SVGID_33_" gradientUnits="userSpaceOnUse" x1="358.1118" y1="117.4433" x2="229.6667" y2="141.909">
				<stop  offset="0" style="stop-color:#2C50FF"/>
				<stop  offset="0.9964" style="stop-color:#1A1B80"/>
			</linearGradient>
			<path class="st41" d="M335.2,130.4c0,2.9-2.2,5.2-4.8,5.2h-79c-2.7,0-4.8-2.3-4.8-5.2v-0.3c0-2.9,2.2-5.2,4.8-5.2h79
				c2.7,0,4.8,2.3,4.8,5.2V130.4z"/>
		</g>
	</g>
	<g>
		<g>
			<path class="st42" d="M608.6,164.4c-0.6,0-1.2-0.4-1.6-1l-3.7-6.9c-3.5-0.2-6.9-0.9-10.2-2.2l-5.9,4.8c-0.6,0.5-1.5,0.5-2.1,0.1
				l-8-5.7c-0.6-0.5-0.9-1.3-0.7-2.1l1.9-7.7c-2.3-2.8-4.3-5.9-5.8-9.3l-7.3-1.1c-0.8-0.1-1.4-0.7-1.5-1.5l-1.9-10.2
				c-0.2-0.8,0.2-1.6,0.9-2.1l6.4-4c0.2-3.8,0.8-7.5,2-11l-4.5-6.3c-0.5-0.7-0.5-1.6-0.1-2.3l5.3-8.6c0.4-0.7,1.2-1,2-0.8l7.1,2
				c2.6-2.5,5.5-4.6,8.6-6.3l1-7.9c0.1-0.8,0.7-1.5,1.4-1.7l9.4-2c0.8-0.2,1.5,0.2,1.9,0.9l3.7,6.9c3.5,0.2,6.9,0.9,10.2,2.2
				l5.9-4.8c0.6-0.5,1.5-0.5,2.1-0.1l8,5.7c0.6,0.5,0.9,1.3,0.7,2.1l-1.9,7.7c2.3,2.8,4.3,5.9,5.8,9.3l7.3,1.1
				c0.8,0.1,1.4,0.7,1.5,1.5l1.9,10.2c0.2,0.8-0.2,1.6-0.9,2.1l-6.4,4c-0.2,3.8-0.8,7.5-2,11l4.5,6.3c0.5,0.7,0.5,1.6,0.1,2.3
				l-5.3,8.6c-0.4,0.7-1.2,1-2,0.8l-7.1-2c-2.6,2.5-5.5,4.6-8.6,6.3l-1,7.9c-0.1,0.8-0.7,1.5-1.4,1.7l-9.4,2
				C608.9,164.4,608.8,164.4,608.6,164.4z M592.8,151.6l0.6,0.2c3.4,1.4,7.1,2.2,10.7,2.3l0.6,0l4.2,7.7l8.7-1.9l1.1-8.9l0.6-0.3
				c3.3-1.6,6.4-3.9,9.1-6.6l0.5-0.5l8,2.3l4.9-8l-5-7.1l0.2-0.6c1.3-3.7,2-7.6,2.1-11.6l0-0.7l7.1-4.5l-1.8-9.4l-8.2-1.2l-0.3-0.6
				c-1.5-3.6-3.6-6.9-6.1-9.8l-0.4-0.5l2.1-8.7l-7.4-5.3l-6.6,5.4l-0.6-0.2c-3.4-1.4-7.1-2.2-10.7-2.3l-0.6,0l-4.2-7.7l-8.7,1.9
				l-1.1,8.9l-0.6,0.3c-3.3,1.6-6.4,3.9-9.1,6.6l-0.5,0.5l-8-2.3l-4.9,8l5,7.1l-0.2,0.6c-1.3,3.7-2,7.6-2.1,11.6l0,0.7l-7.1,4.5
				l1.8,9.4l8.2,1.2l0.3,0.6c1.5,3.6,3.6,6.9,6.1,9.8l0.4,0.5l-2.1,8.7l7.4,5.3L592.8,151.6z M565.5,130.9L565.5,130.9L565.5,130.9
				L565.5,130.9z M605.3,143.9c-4.7,0-9.4-1.5-13.4-4.4c-5.4-3.9-9.1-9.8-10.4-16.7c-0.3-1.8-0.5-3.7-0.5-5.6c0-0.7,0.5-1.2,1.2-1.2
				c0.6,0,1.1,0.6,1.1,1.3c0,1.7,0.1,3.4,0.4,5c1.2,6.2,4.5,11.6,9.4,15.1c4.9,3.5,10.8,4.8,16.5,3.5c5.8-1.3,10.7-4.9,14-10.1
				c3.3-5.3,4.4-11.6,3.3-17.9c-2.4-12.9-14-21.2-25.9-18.6c-3.9,0.9-7.5,2.8-10.5,5.7c-0.5,0.5-1.2,0.4-1.6-0.1
				c-0.4-0.5-0.4-1.3,0.1-1.8c3.2-3.2,7.2-5.4,11.6-6.3c13.1-2.9,26,6.4,28.6,20.6c2.6,14.2-5.9,28.1-19,30.9
				C608.5,143.7,606.9,143.9,605.3,143.9z"/>
			<path class="st42" d="M605.2,128c-3.6,0-7.1-2.2-8.7-5.9v0c-2.3-5.2-0.3-11.4,4.6-13.9c4.8-2.5,10.6-0.3,12.9,4.9
				c1.1,2.5,1.3,5.4,0.4,8c-0.9,2.6-2.6,4.7-4.9,5.9C608,127.6,606.6,128,605.2,128z M598.5,121c1.8,4,6.2,5.7,9.8,3.8
				c3.7-1.9,5.2-6.7,3.5-10.6c-1.8-4-6.2-5.7-9.8-3.8C598.3,112.2,596.8,117,598.5,121L598.5,121z"/>
		</g>
		<g>
			<path class="st42" d="M667.7,176.9c-0.1,0-0.3,0-0.4-0.1l-4.4-1.4c-0.6-0.2-1-0.8-1-1.5l-0.1-3.5c-1.3-0.9-2.5-1.9-3.5-3.1
				l-3.2,0.6c-0.6,0.1-1.2-0.2-1.5-0.8l-2.2-4.4c-0.3-0.6-0.2-1.3,0.2-1.8l2.2-2.6c-0.3-1.6-0.5-3.2-0.5-4.9l-2.6-2
				c-0.5-0.4-0.7-1.1-0.5-1.7l1.3-4.8c0.2-0.6,0.7-1.1,1.3-1.1l3.2-0.1c0.8-1.4,1.8-2.7,2.9-3.8l-0.5-3.4c-0.1-0.7,0.2-1.3,0.8-1.6
				l4.1-2.4c0.5-0.3,1.2-0.2,1.7,0.2l2.4,2.4c1.5-0.4,3-0.5,4.5-0.5l1.9-2.8c0.4-0.5,1-0.8,1.6-0.6l4.4,1.4c0.6,0.2,1,0.8,1,1.5
				l0.1,3.5c1.3,0.9,2.5,1.9,3.5,3.1l3.2-0.6c0.6-0.1,1.2,0.2,1.5,0.8l2.2,4.4c0.3,0.6,0.2,1.3-0.2,1.8l-2.2,2.6
				c0.3,1.6,0.5,3.2,0.5,4.9l2.6,2c0.5,0.4,0.7,1.1,0.5,1.7l-1.3,4.8c-0.2,0.6-0.7,1.1-1.3,1.1l-3.2,0.1c-0.8,1.4-1.8,2.7-2.9,3.8
				l0.5,3.4c0.1,0.7-0.2,1.3-0.8,1.6l-4.1,2.4c-0.5,0.3-1.2,0.2-1.7-0.2l-2.4-2.4c-1.5,0.4-3,0.5-4.5,0.5l-1.9,2.8
				C668.6,176.7,668.1,176.9,667.7,176.9z M667,174.8C667,174.8,667,174.8,667,174.8L667,174.8z M664,173.3l3.3,1.1l2.3-3.4l0.6,0
				c1.7,0.1,3.4-0.1,5-0.5l0.6-0.2l2.9,2.8l3-1.8l-0.6-4.1l0.5-0.5c1.3-1.2,2.3-2.6,3.2-4.2l0.3-0.6l3.9-0.2l1-3.6l-3.2-2.5l0-0.7
				c0.1-1.8-0.1-3.7-0.5-5.4l-0.2-0.7l2.6-3.1l-1.6-3.3l-3.8,0.7l-0.4-0.5c-1.1-1.4-2.4-2.5-3.9-3.5l-0.5-0.3l-0.2-4.2l-3.3-1.1
				l-2.3,3.4l-0.6,0c-1.7-0.1-3.4,0.1-5,0.5l-0.6,0.2l-2.9-2.8l-3,1.8l0.6,4.1l-0.5,0.5c-1.3,1.2-2.3,2.6-3.2,4.2l-0.3,0.6l-3.9,0.2
				l-1,3.6l3.2,2.5l0,0.7c-0.1,1.8,0.1,3.7,0.5,5.4l0.2,0.7l-2.6,3.1l1.6,3.3l3.8-0.7l0.4,0.5c1.1,1.4,2.4,2.5,3.9,3.5l0.5,0.3
				L664,173.3z M654.8,166.7L654.8,166.7L654.8,166.7z M689.2,145.4C689.2,145.4,689.2,145.4,689.2,145.4L689.2,145.4z M671.3,167.3
				c-1.2,0-2.4-0.2-3.6-0.6c-3.1-1-5.7-3.3-7.3-6.4c-0.4-0.8-0.7-1.7-1-2.6c-0.2-0.7,0.2-1.3,0.8-1.5c0.6-0.2,1.2,0.2,1.4,0.8
				c0.2,0.7,0.5,1.4,0.8,2.1c1.3,2.5,3.4,4.4,5.9,5.2c2.6,0.8,5.3,0.5,7.6-0.8c4.9-2.8,6.7-9.4,4.1-14.6c-2.6-5.2-8.7-7.2-13.5-4.4
				c-1.6,0.9-2.9,2.3-3.8,4c-0.3,0.6-1,0.8-1.6,0.4c-0.5-0.4-0.7-1.1-0.4-1.7c1.1-2.1,2.8-3.7,4.7-4.9c6-3.5,13.4-1,16.6,5.4
				c3.2,6.4,1,14.5-5,18C675.3,166.8,673.3,167.3,671.3,167.3z"/>
		</g>
	</g>
	<g>
		<g>
			
				<linearGradient id="SVGID_34_" gradientUnits="userSpaceOnUse" x1="815.613" y1="-112.3205" x2="635.409" y2="34.3301" gradientTransform="matrix(0.9961 8.840000e-02 -8.840000e-02 0.9961 -62.9231 283.283)">
				<stop  offset="0" style="stop-color:#A737D5"/>
				<stop  offset="1" style="stop-color:#EF497A"/>
			</linearGradient>
			<path class="st43" d="M727.7,364.8l-120-11.5c-4.9-0.5-8.6-4.9-8.6-10.1l-0.4-87.5c0-6,4.6-10.7,10.1-10.3l127.8,9.6
				c5.3,0.4,9.2,5.4,8.8,11.1l-7.3,89.4C737.5,361.2,732.9,365.3,727.7,364.8z"/>
			<path class="st44" d="M605.6,264.2l-0.8,75.5c0,3.3,2.3,6,5.3,6.4l115.1,12.4c3.2,0.3,6.1-2.2,6.4-5.7l6.6-80.8
				c0.3-3.6-2.2-6.7-5.5-6.9l-120.9-7.1C608.5,257.7,605.7,260.6,605.6,264.2z"/>
			
				<linearGradient id="SVGID_35_" gradientUnits="userSpaceOnUse" x1="836.3967" y1="-80.7473" x2="660.5734" y2="62.3381" gradientTransform="matrix(0.9961 8.840000e-02 -8.840000e-02 0.9961 -62.9231 283.283)">
				<stop  offset="0" style="stop-color:#A737D5"/>
				<stop  offset="1" style="stop-color:#EF497A"/>
			</linearGradient>
			<path class="st45" d="M660.2,330.2l65.1,4.1c0.7,0,1.2,0.7,1.1,1.4l-0.1,1.1c-0.1,0.7-0.6,1.2-1.3,1.2l-65.1-5.3
				c-0.7-0.1-1.2-0.7-1.1-1.4l0,0C659,330.6,659.5,330.1,660.2,330.2z"/>
			
				<linearGradient id="SVGID_36_" gradientUnits="userSpaceOnUse" x1="839.3143" y1="-76.4502" x2="663.7222" y2="66.4472" gradientTransform="matrix(0.9961 8.840000e-02 -8.840000e-02 0.9961 -62.9231 283.283)">
				<stop  offset="0" style="stop-color:#A737D5"/>
				<stop  offset="1" style="stop-color:#EF497A"/>
			</linearGradient>
			<path class="st46" d="M658.5,337.2l0,0.5c-0.1,0.7,0.4,1.3,1.1,1.4l65,6.2c0.7,0.1,1.2-0.5,1.3-1.2l0-0.5
				c0.1-0.7-0.4-1.3-1.1-1.4l-65-6.2C659.1,336,658.5,336.5,658.5,337.2z"/>
			
				<linearGradient id="SVGID_37_" gradientUnits="userSpaceOnUse" x1="846.2346" y1="-67.736" x2="670.4113" y2="75.3495" gradientTransform="matrix(0.9961 8.840000e-02 -8.840000e-02 0.9961 -62.9231 283.283)">
				<stop  offset="0" style="stop-color:#A737D5"/>
				<stop  offset="1" style="stop-color:#EF497A"/>
			</linearGradient>
			<path class="st47" d="M677.7,345.4l0,0.2c-0.1,0.7,0.4,1.3,1.1,1.4l45.3,4.3c0.7,0.1,1.2-0.5,1.3-1.2l0.1-1
				c0.1-0.7-0.4-1.3-1.1-1.4l-45.3-3.6C678.3,344.2,677.7,344.7,677.7,345.4z"/>
		</g>
		<g>
			
				<linearGradient id="SVGID_38_" gradientUnits="userSpaceOnUse" x1="762.3741" y1="105.687" x2="549.432" y2="278.9799" gradientTransform="matrix(0.9998 2.040000e-02 -2.040000e-02 0.9998 -14.0443 67.4825)">
				<stop  offset="0" style="stop-color:#CB236D"/>
				<stop  offset="1" style="stop-color:#4C246D"/>
			</linearGradient>
			<path class="st48" d="M717.6,333.6L576,330.5c-5.7-0.1-10.5-5-10.9-11.1l-7-102.6c-0.5-7,4.6-12.9,11.1-12.9l150.7,0.2
				c6.2,0,11.2,5.5,11.1,12.3l-2,105.5C728.9,328.4,723.8,333.7,717.6,333.6z"/>
			<path class="st44" d="M567,226.1l4.7,88.7c0.2,3.9,3.1,6.9,6.7,7l135.9,4.5c3.8,0.1,7-3.1,7.1-7.3l1.8-95.3
				c0.1-4.2-3.1-7.7-7-7.6l-142.4,2.1C569.8,218.2,566.7,221.8,567,226.1z"/>
			
				<linearGradient id="SVGID_39_" gradientUnits="userSpaceOnUse" x1="786.5124" y1="142.7546" x2="578.9474" y2="311.6716" gradientTransform="matrix(0.9998 2.040000e-02 -2.040000e-02 0.9998 -14.0443 67.4825)">
				<stop  offset="0" style="stop-color:#CB236D"/>
				<stop  offset="1" style="stop-color:#4C246D"/>
			</linearGradient>
			<path class="st49" d="M635.9,298.7l76.7-0.8c0.8,0,1.4,0.7,1.4,1.5l0,1.3c0,0.8-0.6,1.5-1.4,1.5l-76.7-0.5
				c-0.8,0-1.4-0.7-1.4-1.5l0,0C634.5,299.4,635.1,298.8,635.9,298.7z"/>
			
				<linearGradient id="SVGID_40_" gradientUnits="userSpaceOnUse" x1="789.9115" y1="147.8051" x2="582.6302" y2="316.4912" gradientTransform="matrix(0.9998 2.040000e-02 -2.040000e-02 0.9998 -14.0443 67.4825)">
				<stop  offset="0" style="stop-color:#CB236D"/>
				<stop  offset="1" style="stop-color:#4C246D"/>
			</linearGradient>
			<path class="st50" d="M634.4,307.2l0,0.6c0,0.8,0.6,1.5,1.4,1.5l76.7,1.7c0.8,0,1.4-0.6,1.4-1.5l0-0.6c0-0.8-0.6-1.5-1.4-1.5
				l-76.7-1.7C635,305.7,634.4,306.3,634.4,307.2z"/>
			
				<linearGradient id="SVGID_41_" gradientUnits="userSpaceOnUse" x1="797.9959" y1="157.9978" x2="590.4309" y2="326.9148" gradientTransform="matrix(0.9998 2.040000e-02 -2.040000e-02 0.9998 -14.0443 67.4825)">
				<stop  offset="0" style="stop-color:#CB236D"/>
				<stop  offset="1" style="stop-color:#4C246D"/>
			</linearGradient>
			<path class="st51" d="M657.5,315.1l0,0.2c0,0.8,0.6,1.5,1.4,1.5l53.4,1.2c0.8,0,1.4-0.6,1.4-1.5l0-1.2c0-0.8-0.6-1.5-1.4-1.5
				l-53.4-0.3C658.1,313.6,657.5,314.3,657.5,315.1z"/>
		</g>
		<g>
			<linearGradient id="SVGID_42_" gradientUnits="userSpaceOnUse" x1="516.6067" y1="241.5877" x2="708.3832" y2="241.5877">
				<stop  offset="0" style="stop-color:#53D8FF"/>
				<stop  offset="1" style="stop-color:#3840F7"/>
			</linearGradient>
			<path class="st52" d="M696,313.5H538.9c-6.4,0-11.7-5.2-12.3-12.1l-9.9-113.6c-0.7-7.7,4.9-14.5,12.1-14.6l167.1-3.4
				c6.9-0.1,12.6,5.9,12.6,13.3v117C708.4,307.5,702.9,313.5,696,313.5z"/>
			<path class="st44" d="M526.7,197.9l7,98.2c0.3,4.3,3.6,7.6,7.5,7.6l150.8,1.7c4.2,0,7.7-3.7,7.7-8.3V191.4c0-4.7-3.6-8.4-7.9-8.3
				L534.1,189C529.7,189.2,526.4,193.2,526.7,197.9z"/>
			<linearGradient id="SVGID_43_" gradientUnits="userSpaceOnUse" x1="605.7405" y1="197.284" x2="693.8997" y2="197.284">
				<stop  offset="0" style="stop-color:#53D8FF"/>
				<stop  offset="1" style="stop-color:#3840F7"/>
			</linearGradient>
			<path class="st53" d="M607.2,197l85.1-2.8c0.9,0,1.6,0.7,1.6,1.7v1.5c0,0.9-0.7,1.7-1.5,1.7l-85.1,1.3c-0.9,0-1.6-0.7-1.6-1.7
				l0,0C605.7,197.8,606.4,197,607.2,197z"/>
			<linearGradient id="SVGID_44_" gradientUnits="userSpaceOnUse" x1="605.7405" y1="206.6834" x2="693.8997" y2="206.6834">
				<stop  offset="0" style="stop-color:#53D8FF"/>
				<stop  offset="1" style="stop-color:#3840F7"/>
			</linearGradient>
			<path class="st54" d="M605.7,206.4v0.6c0,0.9,0.7,1.7,1.5,1.7h85.1c0.9,0,1.5-0.7,1.5-1.7v-0.6c0-0.9-0.7-1.7-1.5-1.7h-85.1
				C606.4,204.7,605.7,205.4,605.7,206.4z"/>
			
				<linearGradient id="SVGID_45_" gradientUnits="userSpaceOnUse" x1="589.3053" y1="-2463.8398" x2="590.6988" y2="-2463.8398" gradientTransform="matrix(1 -2.500000e-03 1.100000e-03 0.4273 -2.3562 1330.199)">
				<stop  offset="0" style="stop-color:#53D8FF"/>
				<stop  offset="1" style="stop-color:#3840F7"/>
			</linearGradient>
			<path class="st55" d="M585,289.1c-0.4,0-0.7-0.3-0.7-0.7l0-2.3c0-0.4,0.3-0.8,0.7-0.8c0,0,0,0,0,0c0.4,0,0.7,0.3,0.7,0.7l0,2.3
				C585.7,288.7,585.3,289.1,585,289.1C585,289.1,585,289.1,585,289.1z M584.9,281.6c-0.4,0-0.7-0.3-0.7-0.7l0-2.3
				c0-0.4,0.3-0.8,0.7-0.8c0,0,0,0,0,0c0.4,0,0.7,0.3,0.7,0.7l0,2.3C585.6,281.2,585.3,281.6,584.9,281.6
				C584.9,281.6,584.9,281.6,584.9,281.6z M584.9,274c-0.4,0-0.7-0.3-0.7-0.7l0-2.3c0-0.4,0.3-0.8,0.7-0.8c0,0,0,0,0,0
				c0.4,0,0.7,0.3,0.7,0.7l0,2.3C585.6,273.7,585.3,274,584.9,274C584.9,274,584.9,274,584.9,274z M584.9,266.5
				c-0.4,0-0.7-0.3-0.7-0.7l0-2.3c0-0.4,0.3-0.8,0.7-0.8c0,0,0,0,0,0c0.4,0,0.7,0.3,0.7,0.7l0,2.3
				C585.6,266.2,585.3,266.5,584.9,266.5C584.9,266.5,584.9,266.5,584.9,266.5z"/>
			<linearGradient id="SVGID_46_" gradientUnits="userSpaceOnUse" x1="619.1284" y1="270.0365" x2="620.5164" y2="270.0365">
				<stop  offset="0" style="stop-color:#53D8FF"/>
				<stop  offset="1" style="stop-color:#3840F7"/>
			</linearGradient>
			<path class="st56" d="M619.8,286.9c-0.4,0-0.7-0.3-0.7-0.8v-2.3c0-0.4,0.3-0.8,0.7-0.8s0.7,0.3,0.7,0.8v2.3
				C620.5,286.6,620.2,286.9,619.8,286.9z M619.8,279.4c-0.4,0-0.7-0.3-0.7-0.8v-2.3c0-0.4,0.3-0.8,0.7-0.8s0.7,0.3,0.7,0.8v2.3
				C620.5,279.1,620.2,279.4,619.8,279.4z M619.8,271.9c-0.4,0-0.7-0.3-0.7-0.8v-2.3c0-0.4,0.3-0.8,0.7-0.8s0.7,0.3,0.7,0.8v2.3
				C620.5,271.6,620.2,271.9,619.8,271.9z M619.8,264.4c-0.4,0-0.7-0.3-0.7-0.8v-2.3c0-0.4,0.3-0.8,0.7-0.8s0.7,0.3,0.7,0.8v2.3
				C620.5,264.1,620.2,264.4,619.8,264.4z M619.8,256.9c-0.4,0-0.7-0.3-0.7-0.8v-2.3c0-0.4,0.3-0.8,0.7-0.8s0.7,0.3,0.7,0.8v2.3
				C620.5,256.6,620.2,256.9,619.8,256.9z"/>
			<linearGradient id="SVGID_47_" gradientUnits="userSpaceOnUse" x1="644.3848" y1="269.1982" x2="647.103" y2="269.1982">
				<stop  offset="0" style="stop-color:#53D8FF"/>
				<stop  offset="1" style="stop-color:#3840F7"/>
			</linearGradient>
			<path class="st57" d="M646.4,293.1c-0.4,0-0.7-0.3-0.7-0.7l0-1.3c0-0.4,0.3-0.8,0.7-0.8c0.4,0,0.7,0.3,0.7,0.7l0,1.3
				C647.1,292.8,646.8,293.1,646.4,293.1C646.4,293.1,646.4,293.1,646.4,293.1z M646.2,286.5c-0.4,0-0.7-0.3-0.7-0.7l-0.1-2.2
				c0-0.4,0.3-0.8,0.7-0.8c0.4,0,0.7,0.3,0.7,0.7l0.1,2.2C646.9,286.2,646.6,286.5,646.2,286.5C646.2,286.5,646.2,286.5,646.2,286.5
				z M646,279c-0.4,0-0.7-0.3-0.7-0.7l-0.1-2.2c0-0.4,0.3-0.8,0.7-0.8c0.4,0,0.7,0.3,0.7,0.7l0.1,2.2C646.7,278.7,646.4,279,646,279
				C646,279,646,279,646,279z M645.8,271.5c-0.4,0-0.7-0.3-0.7-0.7l-0.1-2.2c0-0.4,0.3-0.8,0.7-0.8c0.4,0,0.7,0.3,0.7,0.7l0.1,2.2
				C646.5,271.2,646.2,271.5,645.8,271.5C645.8,271.5,645.8,271.5,645.8,271.5z M645.6,264c-0.4,0-0.7-0.3-0.7-0.7l-0.1-2.2
				c0-0.4,0.3-0.8,0.7-0.8c0.4,0,0.7,0.3,0.7,0.7l0.1,2.2C646.3,263.7,646,264,645.6,264C645.6,264,645.6,264,645.6,264z
				 M645.4,256.5c-0.4,0-0.7-0.3-0.7-0.7l-0.1-2.2c0-0.4,0.3-0.8,0.7-0.8c0.4,0,0.7,0.3,0.7,0.7l0.1,2.2
				C646.1,256.2,645.8,256.5,645.4,256.5C645.4,256.5,645.4,256.5,645.4,256.5z M645.1,249c-0.4,0-0.7-0.3-0.7-0.7l-0.1-2.2
				c0-0.4,0.3-0.8,0.7-0.8c0.4,0,0.7,0.3,0.7,0.7l0.1,2.2C645.8,248.7,645.5,249,645.1,249C645.2,249,645.2,249,645.1,249z"/>
			<linearGradient id="SVGID_48_" gradientUnits="userSpaceOnUse" x1="670.9859" y1="257.0328" x2="672.374" y2="257.0328">
				<stop  offset="0" style="stop-color:#53D8FF"/>
				<stop  offset="1" style="stop-color:#3840F7"/>
			</linearGradient>
			<path class="st58" d="M671.7,288.9c-0.4,0-0.7-0.3-0.7-0.8v-2.3c0-0.4,0.3-0.8,0.7-0.8c0.4,0,0.7,0.3,0.7,0.8v2.3
				C672.4,288.6,672.1,288.9,671.7,288.9z M671.7,281.4c-0.4,0-0.7-0.3-0.7-0.8v-2.3c0-0.4,0.3-0.8,0.7-0.8c0.4,0,0.7,0.3,0.7,0.8
				v2.3C672.4,281.1,672.1,281.4,671.7,281.4z M671.7,273.9c-0.4,0-0.7-0.3-0.7-0.8v-2.3c0-0.4,0.3-0.8,0.7-0.8
				c0.4,0,0.7,0.3,0.7,0.8v2.3C672.4,273.6,672.1,273.9,671.7,273.9z M671.7,266.4c-0.4,0-0.7-0.3-0.7-0.8v-2.3
				c0-0.4,0.3-0.8,0.7-0.8c0.4,0,0.7,0.3,0.7,0.8v2.3C672.4,266.1,672.1,266.4,671.7,266.4z M671.7,258.9c-0.4,0-0.7-0.3-0.7-0.8
				v-2.3c0-0.4,0.3-0.8,0.7-0.8c0.4,0,0.7,0.3,0.7,0.8v2.3C672.4,258.6,672.1,258.9,671.7,258.9z M671.7,251.4
				c-0.4,0-0.7-0.3-0.7-0.8v-2.3c0-0.4,0.3-0.8,0.7-0.8c0.4,0,0.7,0.3,0.7,0.8v2.3C672.4,251.1,672.1,251.4,671.7,251.4z
				 M671.7,243.9c-0.4,0-0.7-0.3-0.7-0.8v-2.3c0-0.4,0.3-0.8,0.7-0.8c0.4,0,0.7,0.3,0.7,0.8v2.3
				C672.4,243.6,672.1,243.9,671.7,243.9z M671.7,236.4c-0.4,0-0.7-0.3-0.7-0.8v-2.3c0-0.4,0.3-0.8,0.7-0.8c0.4,0,0.7,0.3,0.7,0.8
				v2.3C672.4,236.1,672.1,236.4,671.7,236.4z M671.7,228.9c-0.4,0-0.7-0.3-0.7-0.8v-2.3c0-0.4,0.3-0.8,0.7-0.8
				c0.4,0,0.7,0.3,0.7,0.8v2.3C672.4,228.6,672.1,228.9,671.7,228.9z"/>
			<g>
				<linearGradient id="SVGID_49_" gradientUnits="userSpaceOnUse" x1="539.2963" y1="251.2363" x2="548.6936" y2="251.2363">
					<stop  offset="0" style="stop-color:#53D8FF"/>
					<stop  offset="1" style="stop-color:#3840F7"/>
				</linearGradient>
				<path class="st59" d="M547.7,297.8c-0.5,0-1-0.4-1-1l-7.1-90.8c0-0.6,0.4-1.2,0.9-1.2c0.6,0,1.1,0.4,1.1,1l7.1,90.8
					C548.7,297.2,548.3,297.7,547.7,297.8C547.7,297.8,547.7,297.8,547.7,297.8z"/>
				<g>
					<linearGradient id="SVGID_50_" gradientUnits="userSpaceOnUse" x1="539.2961" y1="206.9375" x2="548.6936" y2="206.9375">
						<stop  offset="0" style="stop-color:#53D8FF"/>
						<stop  offset="1" style="stop-color:#3840F7"/>
					</linearGradient>
					<polygon class="st60" points="537.4,210.6 540.6,206.5 544.4,210 544.2,206.7 540.3,203.3 537.1,207.4 					"/>
				</g>
			</g>
			<g>
				<linearGradient id="SVGID_51_" gradientUnits="userSpaceOnUse" x1="541.2132" y1="292.3648" x2="692.0751" y2="292.3648">
					<stop  offset="0" style="stop-color:#53D8FF"/>
					<stop  offset="1" style="stop-color:#3840F7"/>
				</linearGradient>
				<path class="st61" d="M688.7,293.5H542.3c-0.6,0-1-0.5-1-1.1c0-0.6,0.5-1.1,1-1.1h146.4c0.6,0,1,0.5,1,1.1
					C689.7,293,689.2,293.5,688.7,293.5z"/>
				<g>
					<linearGradient id="SVGID_52_" gradientUnits="userSpaceOnUse" x1="541.2137" y1="292.3644" x2="692.0745" y2="292.3644">
						<stop  offset="0" style="stop-color:#53D8FF"/>
						<stop  offset="1" style="stop-color:#3840F7"/>
					</linearGradient>
					<polygon class="st62" points="684.5,296.2 688,292.4 684.5,288.5 687.5,288.5 691,292.4 687.5,296.2 					"/>
				</g>
			</g>
			<g>
				<linearGradient id="SVGID_53_" gradientUnits="userSpaceOnUse" x1="552.5849" y1="284.5482" x2="670.0336" y2="206.5622">
					<stop  offset="0" style="stop-color:#53D8FF"/>
					<stop  offset="1" style="stop-color:#3840F7"/>
				</linearGradient>
				<path class="st63" d="M553.7,267.4c-0.5,0-1-0.4-1-1c-0.1-0.6,0.3-1.2,0.9-1.3c0.8-0.1,77.4-11.5,119.4-44.9
					c0.5-0.4,1.1-0.3,1.5,0.2c0.3,0.5,0.2,1.2-0.2,1.6c-42.4,33.8-119.6,45.2-120.3,45.3C553.8,267.4,553.8,267.4,553.7,267.4z"/>
			</g>
			<g>
				<linearGradient id="SVGID_54_" gradientUnits="userSpaceOnUse" x1="561.6031" y1="295.466" x2="677.8088" y2="218.3054">
					<stop  offset="0" style="stop-color:#53D8FF"/>
					<stop  offset="1" style="stop-color:#3840F7"/>
				</linearGradient>
				<path class="st64" d="M673.9,227.1C673.9,227.1,673.9,227.1,673.9,227.1c-0.7-0.1-1.1-0.6-1-1.2l0.3-4.4l-5.8-0.4
					c-0.6,0-1-0.6-1-1.2c0-0.6,0.5-1.1,1.1-1.1l6.8,0.4c0.3,0,0.5,0.2,0.7,0.4c0.2,0.2,0.3,0.5,0.3,0.8l-0.4,5.6
					C674.9,226.7,674.5,227.1,673.9,227.1z"/>
			</g>
		</g>
	</g>
	<g>
		<linearGradient id="SVGID_55_" gradientUnits="userSpaceOnUse" x1="210.2353" y1="209.5556" x2="-23.5735" y2="818.4865">
			<stop  offset="0" style="stop-color:#53D8FF"/>
			<stop  offset="1" style="stop-color:#3840F7"/>
		</linearGradient>
		<path class="st65" d="M59.2,542h145.2c4.6,0,8.4-4.1,8.4-9.1V297.9c0-5-3.7-9-8.4-9.1l-146.4-0.4c-4.7,0-8.4,4.1-8.4,9.1L50.9,533
			C50.9,538,54.6,542,59.2,542z"/>
		<linearGradient id="SVGID_56_" gradientUnits="userSpaceOnUse" x1="57.8007" y1="416.3528" x2="204.6678" y2="416.3528">
			<stop  offset="0" style="stop-color:#53D8FF"/>
			<stop  offset="1" style="stop-color:#3840F7"/>
		</linearGradient>
		<path class="st66" d="M66.4,300l129.9,0.9c4.7,0,8.5,4.2,8.5,9.2l-0.9,211c0,5-3.7,9.1-8.4,9.2l-126.2,2.5c-4.7,0.1-8.6-4-8.7-9.1
			l-2.8-214.4C57.7,304.1,61.6,299.9,66.4,300z"/>
		<path class="st67" d="M71.6,311.8v1c0,1.5,1.1,2.8,2.5,2.8h100c1.4,0,2.5-1.2,2.5-2.8v-1c0-1.5-1.1-2.8-2.5-2.8h-100
			C72.8,309,71.6,310.3,71.6,311.8z"/>
		<path class="st67" d="M82.8,324L82.8,324c0.1,1.4,1.2,2.6,2.5,2.6l87.5,1.7c1.4,0,2.6-1.2,2.6-2.8v-0.2c0-1.5-1.1-2.7-2.5-2.8
			l-87.5-1.5C83.9,321,82.7,322.4,82.8,324z"/>
		<path class="st68" d="M73.9,525.9c-4.1,0-7.5-3.6-7.6-8l-2.8-172.6c-0.1-4.5,3.3-8.2,7.4-8.3l118.1-2.5c2,0,3.9,0.8,5.4,2.3
			c1.5,1.5,2.3,3.6,2.3,5.7l3,173.5c0,2.2-0.7,4.3-2.1,5.9c-1.4,1.6-3.3,2.5-5.3,2.5L73.9,525.9C73.9,525.9,73.9,525.9,73.9,525.9z
			 M189.2,337.7C189.1,337.7,189.1,337.7,189.2,337.7l-118.2,2.5c-2.5,0.1-4.5,2.3-4.4,5l0,0l2.8,172.6c0,2.7,2.1,4.8,4.5,4.8
			c0,0,0,0,0.1,0l118.3-1.5c1.2,0,2.3-0.5,3.2-1.5c0.8-0.9,1.3-2.2,1.3-3.5l-3-173.5c0-1.3-0.5-2.5-1.4-3.4
			C191.5,338.2,190.3,337.7,189.2,337.7z"/>
		<path class="st68" d="M195.4,355.1H66.5c-0.8,0-1.5-0.7-1.5-1.7s0.7-1.7,1.5-1.7h128.9c0.8,0,1.5,0.7,1.5,1.7
			S196.3,355.1,195.4,355.1z"/>
	</g>
	<g>
		<path class="st67" d="M94.5,446.1c0-1-0.7-1.8-1.6-1.8H80.1c-0.9,0-1.6,0.8-1.6,1.8v59.5c0,1,0.7,1.8,1.6,1.8h12.8
			c0.9,0,1.6-0.8,1.6-1.8V446.1z"/>
		<path class="st67" d="M133.9,436.8h-12.8c-0.9,0-1.6,0.9-1.6,2v66.5c0,1.1,0.7,2.1,1.6,2.1h12.8c0.9,0,1.8-1,1.8-2.1v-66.5
			C135.7,437.7,134.8,436.8,133.9,436.8z"/>
		<path class="st67" d="M114.6,426.4c0-1-0.7-1.8-1.6-1.8h-12.8c-0.9,0-1.6,0.8-1.6,1.8v79.2c0,1,0.7,1.8,1.6,1.8H113
			c0.9,0,1.6-0.8,1.6-1.8V426.4z"/>
		<path class="st67" d="M184.1,398.4c0-1-0.7-1.8-1.6-1.8h-12.8c-0.9,0-1.6,0.8-1.6,1.8v107.3c0,1,0.7,1.8,1.6,1.8h12.8
			c0.9,0,1.6-0.8,1.6-1.8V398.4z"/>
		<path class="st67" d="M160.2,413.7c0-1-0.7-1.8-1.6-1.8h-12.8c-0.9,0-1.6,0.8-1.6,1.8v92c0,1,0.7,1.8,1.6,1.8h12.8
			c0.9,0,1.6-0.8,1.6-1.8V413.7z"/>
		<g class="st0">
			<polygon class="st42" points="85.9,423.1 85.6,422.5 107,409.8 126.9,419.3 143.9,401.2 144,401.2 164,388.4 164.3,389 
				144.3,401.7 127,420.1 107,410.6 			"/>
			<path class="st42" d="M88.1,422.8c0,1.4-1,2.5-2.3,2.5c-1.3,0-2.3-1.1-2.3-2.5c0-1.4,1-2.5,2.3-2.5
				C87,420.3,88.1,421.4,88.1,422.8z"/>
			<ellipse class="st42" cx="107" cy="410.2" rx="2.3" ry="2.5"/>
			<ellipse class="st42" cx="126.9" cy="419.2" rx="2.3" ry="2.5"/>
			<ellipse class="st42" cx="143.6" cy="401.5" rx="2.3" ry="2.5"/>
			<path class="st42" d="M166.4,388.7c0,1.4-1,2.5-2.3,2.5c-1.3,0-2.3-1.1-2.3-2.5c0-1.4,1-2.5,2.3-2.5
				C165.4,386.2,166.4,387.3,166.4,388.7z"/>
		</g>
	</g>
	<g>
		<linearGradient id="SVGID_57_" gradientUnits="userSpaceOnUse" x1="176.7783" y1="460.5758" x2="294.3426" y2="628.7929">
			<stop  offset="0" style="stop-color:#CB236D"/>
			<stop  offset="1" style="stop-color:#4C246D"/>
		</linearGradient>
		<path class="st69" d="M138.3,468.6l1,64.4c0.1,5,3.9,9,8.5,9h116.9c4.7,0,8.5-4.1,8.5-9.2v-60.3c0-4.9-3.6-9-8.2-9.2L147,459.3
			C142.2,459.1,138.2,463.4,138.3,468.6z"/>
		<path class="st67" d="M148,474.9l2.5,59.2c0.1,2.3,1.9,4.1,4,4l106.4-2c2.1,0,3.8-1.9,3.8-4.2v-51.3c0-2.2-1.6-4.1-3.7-4.2
			l-109-5.8C149.8,470.4,147.9,472.4,148,474.9z"/>
		<path class="st67" d="M156.5,480.4v4.3c0,1.5,1.1,2.7,2.5,2.7l91.8-1.6c1.4,0,2.4-1.2,2.4-2.7l0,0c0-1.5-1.1-2.7-2.4-2.7
			l-91.8-2.6C157.6,477.7,156.5,478.9,156.5,480.4z"/>
		<path class="st67" d="M157.8,496.5v3.9c0,1.5,1.2,2.7,2.6,2.7l87.4-3.3c1.3-0.1,2.4-1.2,2.4-2.7v-1.2c0-1.5-1.1-2.7-2.5-2.7
			l-87.4,0.6C158.9,493.9,157.8,495.1,157.8,496.5z"/>
	</g>
	<g>
		<g>
			<linearGradient id="SVGID_58_" gradientUnits="userSpaceOnUse" x1="64.9364" y1="172.2689" x2="53.5159" y2="210.0652">
				<stop  offset="0" style="stop-color:#53D8FF"/>
				<stop  offset="1" style="stop-color:#3840F7"/>
			</linearGradient>
			<path class="st70" d="M51.4,197.3c4.8,0,9.2,1.7,12.7,4.7l7.4-11.4c-5.5-4.2-12.2-6.8-19.4-6.8c-1,0-1.9,0.1-2.9,0.2l1.9,13.3
				C51.2,197.3,51.3,197.3,51.4,197.3z"/>
			<linearGradient id="SVGID_59_" gradientUnits="userSpaceOnUse" x1="65.3717" y1="194.8262" x2="-17.1884" y2="316.6625">
				<stop  offset="0" style="stop-color:#53D8FF"/>
				<stop  offset="1" style="stop-color:#3840F7"/>
			</linearGradient>
			<path class="st71" d="M51.4,242.4c-11.5,0-23.2-9.3-23.2-21.7c0-12.4,11.5-23.2,23-23.4L49.3,184C31.8,185.7,15,202.3,15,221.2
				c0,19.9,18.7,34.7,37.1,34.7c4.8,0,9.4-1.1,13.5-3.1l-7.5-11.6C56.1,242,53.8,242.4,51.4,242.4z"/>
			<linearGradient id="SVGID_60_" gradientUnits="userSpaceOnUse" x1="93.3789" y1="187.3239" x2="77.7448" y2="211.8533">
				<stop  offset="0" style="stop-color:#53D8FF"/>
				<stop  offset="1" style="stop-color:#3840F7"/>
			</linearGradient>
			<path class="st72" d="M85.4,219.8c0-12.1-5.5-22.7-13.9-29.3L64.1,202c5,4.1,8.2,10.6,8.2,17.9c0,9.9-5.9,18.3-14.1,21.3
				l7.5,11.6C77.3,247.1,85.4,234.5,85.4,219.8z"/>
		</g>
		<g>
			<linearGradient id="SVGID_61_" gradientUnits="userSpaceOnUse" x1="147.2457" y1="182.6083" x2="150.2062" y2="211.9439">
				<stop  offset="0" style="stop-color:#CB236D"/>
				<stop  offset="1" style="stop-color:#4C246D"/>
			</linearGradient>
			<path class="st73" d="M146.5,197.3c8.2,0,15.3,5.1,18.7,12.5l8.6-11.7c-6.1-8.7-15.7-14.3-26.6-14.3c-8.5,0-17.1,3.7-23.8,9.7
				l7.6,10.4C135.3,199.9,140.9,197.3,146.5,197.3z"/>
			<linearGradient id="SVGID_62_" gradientUnits="userSpaceOnUse" x1="130.9399" y1="227.1579" x2="61.666" y2="269.7678">
				<stop  offset="0" style="stop-color:#CB236D"/>
				<stop  offset="1" style="stop-color:#4C246D"/>
			</linearGradient>
			<path class="st74" d="M123.3,220.7c0-6.4,3.1-12.4,7.7-16.7l-7.6-10.4c-7.9,6.9-13.3,16.9-13.3,27.6c0,19.6,18.2,34.3,36.4,34.7
				l-0.6-13.5C134.6,242.1,123.3,232.9,123.3,220.7z"/>
			<linearGradient id="SVGID_63_" gradientUnits="userSpaceOnUse" x1="152.0399" y1="230.3929" x2="172.1108" y2="262.9755">
				<stop  offset="0" style="stop-color:#CB236D"/>
				<stop  offset="1" style="stop-color:#4C246D"/>
			</linearGradient>
			<path class="st75" d="M146.5,242.4c-0.2,0-0.4,0-0.6,0l0.6,13.5c0.2,0,0.5,0,0.7,0c12.9,0,24.1-8,29.6-19.6
				c-3.2-1.6-7.9-3.8-12-5.7C161.3,237.6,154.4,242.4,146.5,242.4z"/>
			<linearGradient id="SVGID_64_" gradientUnits="userSpaceOnUse" x1="164.6388" y1="216.1683" x2="212.0176" y2="220.7046">
				<stop  offset="0" style="stop-color:#CB236D"/>
				<stop  offset="1" style="stop-color:#4C246D"/>
			</linearGradient>
			<path class="st76" d="M173.8,198.1l-8.6,11.7c1.4,3,2.2,6.4,2.2,10c0,3.9-0.9,7.5-2.5,10.7c4.1,1.9,8.8,4.1,12,5.7
				c2.3-4.9,3.7-10.5,3.7-16.4C180.5,211.7,178,204.1,173.8,198.1z"/>
		</g>
		<g>
			<linearGradient id="SVGID_65_" gradientUnits="userSpaceOnUse" x1="237.5517" y1="157.2931" x2="240.5385" y2="227.0735">
				<stop  offset="0" style="stop-color:#FDF53F"/>
				<stop  offset="0.6645" style="stop-color:#E57A58"/>
				<stop  offset="1" style="stop-color:#D93C65"/>
			</linearGradient>
			<path class="st77" d="M241.6,197.3c4.5,0,8.6,1.5,12,4.1l6.7-11.9c-5.2-3.6-11.4-5.7-18-5.7c-8.8,0-17.7,4-24.5,10.3l8,10.1
				C230.1,200,235.9,197.3,241.6,197.3z"/>
			<linearGradient id="SVGID_66_" gradientUnits="userSpaceOnUse" x1="299.2198" y1="175.5078" x2="265.8892" y2="204.3055">
				<stop  offset="0" style="stop-color:#FDF53F"/>
				<stop  offset="0.6645" style="stop-color:#E57A58"/>
				<stop  offset="1" style="stop-color:#D93C65"/>
			</linearGradient>
			<path class="st78" d="M262.4,218.6l13-2.8c-1.2-11-6.9-20.5-15.1-26.2l-6.7,11.9C258.6,205.2,262,211.4,262.4,218.6z"/>
			<linearGradient id="SVGID_67_" gradientUnits="userSpaceOnUse" x1="201.877" y1="222.8332" x2="368.8015" y2="219.5798">
				<stop  offset="0" style="stop-color:#FDF53F"/>
				<stop  offset="0.6645" style="stop-color:#E57A58"/>
				<stop  offset="1" style="stop-color:#D93C65"/>
			</linearGradient>
			<path class="st79" d="M218.4,220.7c0-6.3,3-12.1,7.4-16.4l-8-10.1c-7.5,6.9-12.6,16.6-12.6,27c0,12.9,7.9,23.6,18.4,29.6
				l6.5-11.4C223.4,235.6,218.4,228.8,218.4,220.7z"/>
			<linearGradient id="SVGID_68_" gradientUnits="userSpaceOnUse" x1="277.3958" y1="226.2583" x2="217.8726" y2="256.9139">
				<stop  offset="0" style="stop-color:#FDF53F"/>
				<stop  offset="0.6645" style="stop-color:#E57A58"/>
				<stop  offset="1" style="stop-color:#D93C65"/>
			</linearGradient>
			<path class="st80" d="M262.4,218.6c0,0.4,0,0.9,0,1.3c0,12.5-9.3,22.5-20.9,22.5c-4,0-8-1.1-11.5-3.1l-6.5,11.4
				c5.7,3.2,12.2,5.1,18.7,5.1c18.4,0,33.3-16.1,33.3-36c0-1.4-0.1-2.8-0.2-4.1L262.4,218.6z"/>
		</g>
	</g>
	<g>
		<path class="st42" d="M59,189.5c0.4,0,0.8-0.2,1.2-0.5l23.2-23.7c2-2.1,4.7-3.2,7.4-3.2h78.9c0.9,0,1.7-0.8,1.7-1.8
			c0-1-0.8-1.8-1.7-1.8H90.8c-3.7,0-7.1,1.5-9.8,4.2l-23.2,23.7c-0.7,0.7-0.7,1.9-0.1,2.6C58,189.3,58.5,189.5,59,189.5z"/>
		<path class="st42" d="M102.9,150.6h66.8c0.9,0,1.7-0.8,1.7-1.8c0-1-0.8-1.8-1.7-1.8h-66.8c-0.9,0-1.7,0.8-1.7,1.8
			C101.2,149.7,101.9,150.6,102.9,150.6z"/>
		<path class="st42" d="M113.7,139.1h55.9c0.9,0,1.7-0.8,1.7-1.8c0-1-0.8-1.8-1.7-1.8h-55.9c-0.9,0-1.7,0.8-1.7,1.8
			C112,138.3,112.8,139.1,113.7,139.1z"/>
	</g>
	<g>
		<g>
			
				<linearGradient id="SVGID_69_" gradientUnits="userSpaceOnUse" x1="-3320.8425" y1="-1400.7534" x2="-3381.7756" y2="-1437.6825" gradientTransform="matrix(0.963 -0.2696 7.340000e-02 0.9251 3893.8518 528.6377)">
				<stop  offset="0" style="stop-color:#53D8FF"/>
				<stop  offset="1" style="stop-color:#3840F7"/>
			</linearGradient>
			<polygon class="st81" points="550,108.6 551.5,123.2 541.7,118 			"/>
			
				<linearGradient id="SVGID_70_" gradientUnits="userSpaceOnUse" x1="-3353.8066" y1="-1413.6437" x2="-3424.2932" y2="-1488.1747" gradientTransform="matrix(0.963 -0.2696 7.340000e-02 0.9251 3893.8518 528.6377)">
				<stop  offset="0" style="stop-color:#53D8FF"/>
				<stop  offset="1" style="stop-color:#3840F7"/>
			</linearGradient>
			<path class="st82" d="M488.5,107.5l40,30.2c0.8,0.6,1.7,0.8,2.6,0.6c0.9-0.2,1.7-0.8,2.2-1.6l26.5-44.5c0.3-0.5,0.3-1.2,0-1.7
				c-0.3-0.5-0.9-0.7-1.4-0.6L488.5,107.5z"/>
			
				<linearGradient id="SVGID_71_" gradientUnits="userSpaceOnUse" x1="-3325.3372" y1="-1402.0756" x2="-3381.7942" y2="-1436.292" gradientTransform="matrix(0.963 -0.2696 7.340000e-02 0.9251 3893.8518 528.6377)">
				<stop  offset="0" style="stop-color:#53D8FF"/>
				<stop  offset="1" style="stop-color:#3840F7"/>
			</linearGradient>
			<polygon class="st83" points="550,108.6 488.5,107.5 545.7,115.8 546.3,119.8 			"/>
			
				<linearGradient id="SVGID_72_" gradientUnits="userSpaceOnUse" x1="345.3745" y1="-1215.2184" x2="371.0043" y2="-1222.6416" gradientTransform="matrix(-0.963 0.2696 0.2696 0.963 1220.3695 1196.7115)">
				<stop  offset="0" style="stop-color:#53D8FF"/>
				<stop  offset="1" style="stop-color:#3840F7"/>
			</linearGradient>
			<polygon class="st84" points="543.2,120 551.5,123.2 545.7,115.8 			"/>
		</g>
		<g>
			<path class="st85" d="M563.3,122.4l3.8-0.1c0.4,0,0.8,0.3,0.8,0.8c0,0.5-0.3,0.8-0.7,0.8l0,0l-3.8,0.1l0,0
				c-0.4,0-0.8-0.3-0.8-0.8C562.6,122.8,562.9,122.4,563.3,122.4L563.3,122.4z"/>
			<path class="st85" d="M571,122.2l3.8,0c0.4,0,0.8,0.4,0.8,0.8c0,0.5-0.3,0.8-0.8,0.8h0l-3.8,0h0c-0.4,0-0.8-0.4-0.8-0.8
				C570.2,122.6,570.6,122.2,571,122.2L571,122.2z"/>
			<path class="st85" d="M578.6,122.2l3.8,0.1c0.4,0,0.8,0.4,0.7,0.8c0,0.5-0.4,0.8-0.8,0.8h0l-3.8-0.1l0,0c-0.4,0-0.8-0.4-0.7-0.8
				C577.9,122.6,578.2,122.2,578.6,122.2L578.6,122.2z"/>
			<path class="st85" d="M586.3,122.4l3.8,0.1c0.4,0,0.7,0.4,0.7,0.8c0,0.4-0.4,0.8-0.8,0.8l0,0l-3.8-0.1l0,0
				c-0.4,0-0.7-0.4-0.7-0.8C585.5,122.7,585.9,122.4,586.3,122.4L586.3,122.4z"/>
			<path class="st85" d="M593.9,122.7l3.8,0.2c0.4,0,0.7,0.4,0.7,0.9c0,0.4-0.4,0.8-0.8,0.8l0,0l-3.8-0.2l0,0
				c-0.4,0-0.7-0.4-0.7-0.9C593.2,123,593.5,122.7,593.9,122.7L593.9,122.7z"/>
			<path class="st85" d="M601.6,123.2l3.8,0.3c0.4,0,0.7,0.4,0.7,0.9c0,0.4-0.4,0.8-0.8,0.7l0,0l-3.8-0.3l0,0
				c-0.4,0-0.7-0.4-0.7-0.9C600.8,123.5,601.2,123.1,601.6,123.2L601.6,123.2z"/>
			<path class="st85" d="M609.2,123.8l3.8,0.4c0.4,0,0.7,0.4,0.7,0.9s-0.4,0.8-0.8,0.7l0,0l-3.8-0.4l0,0c-0.4,0-0.7-0.4-0.7-0.9
				C608.4,124.1,608.8,123.8,609.2,123.8L609.2,123.8z"/>
			<path class="st85" d="M616.8,124.6l3.8,0.5c0.4,0,0.7,0.4,0.7,0.9c0,0.4-0.4,0.8-0.8,0.7l0,0l-3.8-0.5l0,0
				c-0.4,0-0.7-0.4-0.7-0.9C616.1,124.9,616.4,124.5,616.8,124.6L616.8,124.6z"/>
			<path class="st85" d="M624.4,125.6l3.8,0.6c0.4,0.1,0.7,0.5,0.6,0.9c-0.1,0.4-0.4,0.7-0.8,0.7l0,0l-3.8-0.6l0,0
				c-0.4-0.1-0.7-0.5-0.6-0.9C623.7,125.8,624,125.5,624.4,125.6L624.4,125.6z"/>
			<path class="st85" d="M632,126.7l3.8,0.7c0.4,0.1,0.7,0.5,0.6,0.9c-0.1,0.4-0.4,0.7-0.8,0.7l0,0l-3.8-0.7l0,0
				c-0.4-0.1-0.7-0.5-0.6-0.9C631.2,127,631.6,126.7,632,126.7L632,126.7z"/>
			<path class="st85" d="M639.6,128.1l3.8,0.8c0.4,0.1,0.7,0.5,0.6,0.9c-0.1,0.4-0.5,0.7-0.9,0.6l0,0l-3.7-0.8l0,0
				c-0.4-0.1-0.7-0.5-0.6-0.9C638.8,128.3,639.2,128,639.6,128.1L639.6,128.1z"/>
			<path class="st85" d="M647.1,129.7l3.7,0.9c0.4,0.1,0.6,0.5,0.6,0.9c-0.1,0.4-0.5,0.7-0.9,0.6l0,0l-3.7-0.9l0,0
				c-0.4-0.1-0.6-0.5-0.6-0.9C646.3,129.9,646.7,129.7,647.1,129.7L647.1,129.7z"/>
			<path class="st85" d="M654.6,131.6l3.7,1c0.4,0.1,0.6,0.5,0.5,1c-0.1,0.4-0.5,0.7-0.9,0.6l0,0l-3.7-1l0,0c-0.4-0.1-0.6-0.5-0.5-1
				C653.8,131.8,654.2,131.5,654.6,131.6L654.6,131.6z"/>
			<path class="st85" d="M662,133.8l3.7,1.2c0.4,0.1,0.6,0.6,0.5,1c-0.1,0.4-0.5,0.6-0.9,0.5l0,0l-3.6-1.2l0,0
				c-0.4-0.1-0.6-0.6-0.5-1S661.6,133.7,662,133.8L662,133.8z"/>
			<path class="st85" d="M669.3,136.3l3.6,1.4c0.4,0.1,0.6,0.6,0.4,1c-0.1,0.4-0.5,0.6-0.9,0.5l0,0l-3.6-1.4l0,0
				c-0.4-0.1-0.6-0.6-0.4-1C668.5,136.4,668.9,136.2,669.3,136.3L669.3,136.3z"/>
			<path class="st85" d="M676.5,139.2l3.5,1.6c0.4,0.2,0.5,0.6,0.4,1c-0.2,0.4-0.6,0.6-0.9,0.4l0,0l-3.5-1.6l0,0
				c-0.4-0.2-0.5-0.6-0.4-1C675.7,139.2,676.1,139,676.5,139.2L676.5,139.2z"/>
			<path class="st85" d="M683.5,142.5l3.4,1.9c0.4,0.2,0.5,0.7,0.3,1c-0.2,0.4-0.6,0.5-1,0.3l0,0l-3.4-1.8l0,0
				c-0.4-0.2-0.5-0.7-0.3-1C682.7,142.5,683.2,142.4,683.5,142.5L683.5,142.5z"/>
			<path class="st85" d="M690.3,146.4l3.3,2.2c0.3,0.2,0.4,0.7,0.2,1.1c-0.2,0.4-0.6,0.5-1,0.3l0,0l-3.2-2.1l0,0
				c-0.3-0.2-0.4-0.7-0.2-1.1C689.6,146.3,690,146.2,690.3,146.4L690.3,146.4z"/>
			<path class="st85" d="M696.8,150.8l3.2,2.3c0.3,0.2,0.4,0.7,0.2,1.1c-0.2,0.3-0.7,0.4-1,0.2l0,0l-3.1-2.3l0,0
				c-0.3-0.2-0.4-0.7-0.2-1.1C696.1,150.7,696.5,150.6,696.8,150.8L696.8,150.8z"/>
			<path class="st85" d="M703.1,155.6l3.1,2.5c0.3,0.3,0.4,0.7,0.1,1.1c-0.2,0.3-0.7,0.4-1,0.2l0,0l-3-2.5l0,0
				c-0.3-0.3-0.4-0.7-0.1-1.1C702.4,155.4,702.8,155.3,703.1,155.6L703.1,155.6z"/>
			<path class="st85" d="M709.2,160.7l2.9,2.7c0.3,0.3,0.3,0.7,0.1,1.1c-0.3,0.3-0.7,0.4-1,0.1l0,0l-2.9-2.7l0,0
				c-0.3-0.3-0.3-0.7-0.1-1.1C708.5,160.4,708.9,160.4,709.2,160.7L709.2,160.7z"/>
			<path class="st85" d="M715,166.1l2.8,2.9c0.3,0.3,0.3,0.8,0,1.1c-0.3,0.3-0.7,0.3-1,0l0,0l-2.7-2.9l0,0c-0.3-0.3-0.3-0.8,0-1.1
				C714.3,165.9,714.7,165.9,715,166.1L715,166.1z"/>
			<path class="st85" d="M720.4,172.1l2.5,3.2c0.2,0.3,0.2,0.8-0.1,1.1c-0.3,0.3-0.7,0.2-1-0.1l0,0l-2.5-3.1l0,0
				c-0.2-0.3-0.2-0.8,0.1-1.1C719.7,171.7,720.1,171.8,720.4,172.1L720.4,172.1z"/>
			<path class="st85" d="M725.2,178.6l2.1,3.5c0.2,0.3,0.1,0.8-0.2,1c-0.3,0.2-0.7,0.1-1-0.2l0,0l-2.1-3.4l0,0
				c-0.2-0.3-0.1-0.8,0.2-1C724.6,178.2,725,178.3,725.2,178.6L725.2,178.6z"/>
			<path class="st85" d="M729.2,185.7l1.6,3.8c0.2,0.4,0,0.8-0.3,1c-0.3,0.2-0.8,0-0.9-0.4l0-0.1l-1.6-3.7l0-0.1
				c-0.2-0.4,0-0.8,0.3-1C728.7,185.2,729.1,185.4,729.2,185.7L729.2,185.7z"/>
			<path class="st85" d="M732.1,193.5c0.4,1.3,0.7,2.7,0.9,4.1c0.1,0.4-0.2,0.8-0.6,0.9c-0.4,0.1-0.7-0.2-0.8-0.6
				c-0.2-1.3-0.5-2.6-0.8-3.9c-0.1-0.4,0.1-0.8,0.5-0.9C731.6,192.9,732,193.1,732.1,193.5L732.1,193.5z"/>
			<path class="st85" d="M733.4,201.8c0.1,1.4,0.1,2.8,0,4.2c0,0.4-0.4,0.7-0.7,0.7c-0.4,0-0.7-0.4-0.6-0.8c0.1-1.3,0.1-2.7,0-4
				c0-0.4,0.3-0.8,0.6-0.8C733.1,201.1,733.4,201.4,733.4,201.8L733.4,201.8z"/>
			<path class="st85" d="M732.9,210.2c-0.2,1.4-0.6,2.7-1,4.1c-0.1,0.4-0.5,0.6-0.9,0.5c-0.4-0.1-0.6-0.5-0.4-0.9
				c0.4-1.3,0.7-2.6,0.9-3.9c0.1-0.4,0.4-0.7,0.8-0.6C732.7,209.4,732.9,209.8,732.9,210.2L732.9,210.2z"/>
			<path class="st85" d="M730.5,218.3l-1.7,3.8c-0.2,0.4-0.6,0.5-0.9,0.3c-0.3-0.2-0.5-0.6-0.3-1l0-0.1l1.7-3.6l0-0.1
				c0.2-0.4,0.6-0.5,0.9-0.3C730.6,217.4,730.7,217.9,730.5,218.3L730.5,218.3z"/>
			<path class="st85" d="M726.8,225.6l-2.2,3.4c-0.2,0.3-0.6,0.4-0.9,0.2c-0.3-0.2-0.4-0.7-0.2-1l0,0l2.2-3.3l0,0
				c0.2-0.3,0.6-0.4,0.9-0.2C727,224.8,727,225.3,726.8,225.6L726.8,225.6z"/>
			<path class="st85" d="M722.1,232.2l-2.6,3.1c-0.3,0.3-0.7,0.3-0.9,0c-0.3-0.3-0.3-0.7,0-1l0,0l2.6-3l0,0c0.3-0.3,0.7-0.3,0.9,0
				C722.4,231.5,722.4,231.9,722.1,232.2L722.1,232.2z"/>
			<path class="st85" d="M716.8,238.2l-2.9,2.8c-0.3,0.3-0.7,0.2-0.9-0.1c-0.2-0.3-0.2-0.8,0.1-1l0,0l2.8-2.7l0,0
				c0.3-0.3,0.7-0.2,0.9,0.1C717.1,237.5,717,238,716.8,238.2L716.8,238.2z"/>
			<path class="st85" d="M711,243.7l-3,2.6l0,0c-0.3,0.2-0.7,0.2-0.9-0.1c-0.2-0.3-0.2-0.8,0.1-1l3-2.6l0,0c0.3-0.2,0.7-0.2,0.9,0.1
				C711.3,243,711.2,243.4,711,243.7L711,243.7z"/>
			<path class="st85" d="M705,248.8l-2.9,2.6l0,0c-0.3,0.3-0.7,0.2-0.9-0.1c-0.2-0.3-0.2-0.8,0.1-1l2.9-2.7c0.3-0.3,0.7-0.2,0.9,0.1
				C705.3,248.1,705.3,248.6,705,248.8L705,248.8L705,248.8z"/>
			<path class="st85" d="M699.2,254.2l-2.8,2.8l0,0c-0.3,0.3-0.7,0.2-0.9,0c-0.2-0.3-0.2-0.7,0-1l2.8-2.8c0.3-0.3,0.7-0.2,0.9,0
				C699.5,253.4,699.5,253.9,699.2,254.2L699.2,254.2L699.2,254.2z"/>
			<path class="st85" d="M693.7,259.8l-2.6,3l0,0c-0.3,0.3-0.7,0.3-0.9,0c-0.3-0.3-0.3-0.7,0-1l2.7-3c0.3-0.3,0.7-0.3,0.9,0
				C693.9,259,693.9,259.5,693.7,259.8L693.7,259.8L693.7,259.8z"/>
			<path class="st85" d="M688.5,265.8l-2.3,3.2l0,0c-0.2,0.3-0.6,0.4-0.9,0.1c-0.3-0.2-0.3-0.7-0.1-1l2.4-3.3
				c0.2-0.3,0.6-0.4,0.9-0.1C688.7,265,688.8,265.5,688.5,265.8L688.5,265.8L688.5,265.8z"/>
			<path class="st85" d="M684.1,272.5c-0.6,1.2-1.2,2.4-1.7,3.6c-0.1,0.4-0.5,0.5-0.9,0.4c-0.3-0.2-0.5-0.6-0.3-0.9
				c0.5-1.3,1.1-2.5,1.8-3.7c0.2-0.3,0.6-0.4,0.9-0.2C684.2,271.7,684.3,272.1,684.1,272.5L684.1,272.5z"/>
			<path class="st85" d="M681.1,279.8c-0.3,1.3-0.5,2.6-0.7,3.9c0,0.4-0.3,0.7-0.7,0.6c-0.4,0-0.6-0.4-0.6-0.8
				c0.1-1.4,0.4-2.8,0.7-4.2c0.1-0.4,0.4-0.6,0.8-0.5C681,279.1,681.2,279.5,681.1,279.8L681.1,279.8z"/>
			<path class="st85" d="M680.5,287.8c0.1,1.3,0.3,2.7,0.6,4c0.1,0.4-0.1,0.7-0.5,0.8c-0.3,0.1-0.7-0.1-0.8-0.5
				c-0.3-1.4-0.5-2.8-0.6-4.2c0-0.4,0.2-0.7,0.6-0.8C680.1,287.1,680.4,287.4,680.5,287.8L680.5,287.8z"/>
			<path class="st85" d="M682.1,295.6l1.4,3.8l0,0c0.1,0.4,0,0.8-0.4,0.9c-0.3,0.1-0.7,0-0.8-0.4l-1.4-3.9c-0.1-0.4,0-0.8,0.4-0.9
				C681.6,295.1,682,295.2,682.1,295.6L682.1,295.6L682.1,295.6z"/>
			<path class="st85" d="M685,303.2l1.7,3.7l0,0c0.2,0.3,0,0.8-0.3,0.9c-0.3,0.2-0.7,0-0.9-0.3l-1.7-3.7c-0.2-0.3,0-0.8,0.3-0.9
				C684.5,302.7,684.9,302.8,685,303.2L685,303.2L685,303.2z"/>
			<path class="st85" d="M688.4,310.6l1.5,3.9c0.1,0.3,0,0.7-0.3,0.9c-0.3,0.1-0.7,0-0.8-0.4l0-0.1l-1.4-3.8l0-0.1
				c-0.1-0.3,0-0.7,0.3-0.9C687.9,310.1,688.3,310.2,688.4,310.6L688.4,310.6z"/>
			<path class="st85" d="M691.1,318.4l0.9,4c0.1,0.4-0.1,0.7-0.5,0.8c-0.3,0.1-0.7-0.1-0.8-0.5l0,0l-0.9-4l0,0
				c-0.1-0.4,0.1-0.7,0.5-0.8C690.7,317.8,691,318.1,691.1,318.4L691.1,318.4z"/>
			<path class="st85" d="M692.8,326.6l0.5,4.1c0,0.4-0.2,0.7-0.5,0.8c-0.3,0-0.7-0.2-0.7-0.6l0,0l-0.5-4.1l0,0
				c0-0.4,0.2-0.7,0.5-0.8C692.4,325.9,692.7,326.2,692.8,326.6L692.8,326.6z"/>
			<path class="st85" d="M693.6,334.8l0.1,4.2c0,0.4-0.3,0.7-0.6,0.7c-0.3,0-0.6-0.3-0.6-0.7l0,0l-0.1-4.1l0,0
				c0-0.4,0.3-0.7,0.6-0.7S693.6,334.5,693.6,334.8L693.6,334.8z"/>
			<path class="st85" d="M693.6,343.2l-0.3,4.2c0,0.4-0.3,0.6-0.7,0.6c-0.3,0-0.6-0.4-0.6-0.7l0,0l0.3-4.1l0,0
				c0-0.4,0.3-0.6,0.7-0.6C693.4,342.5,693.6,342.8,693.6,343.2L693.6,343.2z"/>
			<path class="st85" d="M692.8,351.4l-0.7,4.1c-0.1,0.4-0.4,0.6-0.7,0.5c-0.3-0.1-0.6-0.4-0.5-0.8l0,0l0.7-4l0,0
				c0.1-0.4,0.4-0.6,0.7-0.5C692.6,350.7,692.8,351.1,692.8,351.4L692.8,351.4z"/>
			<path class="st85" d="M691.1,359.6l-1.1,4c-0.1,0.4-0.4,0.5-0.8,0.4c-0.3-0.1-0.5-0.5-0.4-0.8l0,0l1.1-3.9l0,0
				c0.1-0.4,0.4-0.5,0.8-0.4C691.1,358.8,691.2,359.2,691.1,359.6L691.1,359.6z"/>
			<path class="st85" d="M688.7,367.5l-1.5,3.8c-0.1,0.3-0.5,0.5-0.8,0.3c-0.3-0.1-0.5-0.5-0.3-0.9l0,0l1.5-3.8l0,0
				c0.1-0.3,0.5-0.5,0.8-0.3C688.7,366.7,688.8,367.1,688.7,367.5L688.7,367.5z"/>
			<path class="st85" d="M685.4,375l-1.9,3.6c-0.2,0.3-0.5,0.4-0.8,0.2c-0.3-0.2-0.4-0.6-0.2-0.9l0,0l1.9-3.6l0,0
				c0.2-0.3,0.5-0.4,0.8-0.2C685.5,374.3,685.6,374.7,685.4,375L685.4,375z"/>
			<path class="st85" d="M681.5,382.2l-2.2,3.4c-0.2,0.3-0.6,0.4-0.8,0.2c-0.3-0.2-0.3-0.6-0.1-0.9l0,0l2.2-3.3l0,0
				c0.2-0.3,0.6-0.4,0.8-0.2C681.6,381.4,681.7,381.9,681.5,382.2L681.5,382.2z"/>
			<path class="st85" d="M676.9,388.8l-2.5,3.1c-0.2,0.3-0.6,0.3-0.8,0.1c-0.3-0.2-0.3-0.6-0.1-0.9l0,0l2.5-3.1l0,0
				c0.2-0.3,0.6-0.3,0.9-0.1C677.1,388.1,677.1,388.5,676.9,388.8L676.9,388.8z"/>
			<path class="st85" d="M671.7,394.9l-2.8,2.9c-0.2,0.2-0.6,0.2-0.8,0c-0.2-0.3-0.2-0.7,0-0.9l0,0l2.7-2.8l0,0
				c0.2-0.2,0.6-0.2,0.8,0C671.9,394.3,671.9,394.7,671.7,394.9L671.7,394.9z"/>
			<path class="st85" d="M666,400.6l-3,2.6c-0.3,0.2-0.6,0.2-0.8-0.1c-0.2-0.3-0.2-0.7,0.1-0.9l0,0l2.9-2.6l0,0
				c0.3-0.2,0.6-0.2,0.8,0.1C666.3,399.9,666.3,400.3,666,400.6L666,400.6z"/>
			<path class="st85" d="M660,405.7l-3.2,2.4c-0.3,0.2-0.6,0.1-0.8-0.2c-0.2-0.3-0.1-0.7,0.1-0.9l0,0l3.1-2.3l0,0
				c0.3-0.2,0.6-0.1,0.8,0.2C660.3,405.1,660.2,405.5,660,405.7L660,405.7z"/>
			<path class="st85" d="M653.6,410.3l-3.3,2.1c-0.3,0.2-0.6,0.1-0.8-0.2c-0.2-0.3-0.1-0.7,0.2-0.9l0,0l3.3-2.1l0,0
				c0.3-0.2,0.6-0.1,0.8,0.2C653.9,409.7,653.8,410.1,653.6,410.3L653.6,410.3z"/>
			<path class="st85" d="M646.9,414.5l-3.4,1.9c-0.3,0.2-0.6,0-0.8-0.3c-0.1-0.3,0-0.7,0.2-0.9l0,0l3.4-1.9l0,0
				c0.3-0.2,0.6,0,0.8,0.3C647.3,413.9,647.2,414.3,646.9,414.5L646.9,414.5z"/>
			<path class="st85" d="M640.1,418.2l-3.5,1.7c-0.3,0.1-0.6,0-0.8-0.3c-0.1-0.3,0-0.7,0.3-0.8l0,0l3.5-1.7l0,0
				c0.3-0.1,0.6,0,0.8,0.3C640.5,417.7,640.4,418,640.1,418.2L640.1,418.2z"/>
			<path class="st85" d="M633.1,421.5l-3.6,1.5c-0.3,0.1-0.6,0-0.8-0.3c-0.1-0.3,0-0.7,0.3-0.8l0,0l3.5-1.5l0,0
				c0.3-0.1,0.6,0,0.8,0.3C633.5,421,633.4,421.4,633.1,421.5L633.1,421.5z"/>
			<path class="st85" d="M625.9,424.5l-3.6,1.4c-0.3,0.1-0.6-0.1-0.7-0.4c-0.1-0.3,0.1-0.7,0.4-0.8l0,0l3.6-1.4l0,0
				c0.3-0.1,0.6,0.1,0.7,0.4C626.4,424.1,626.2,424.4,625.9,424.5L625.9,424.5z"/>
		</g>
	</g>
	<g>
		<g>
			
				<linearGradient id="SVGID_73_" gradientUnits="userSpaceOnUse" x1="11751.5176" y1="535.5646" x2="11765.3857" y2="448.3344" gradientTransform="matrix(1 0 0 1 -11107.1113 0)">
				<stop  offset="0" style="stop-color:#CB236D"/>
				<stop  offset="1" style="stop-color:#4C246D"/>
			</linearGradient>
			<rect x="646.4" y="469.3" class="st86" width="5.9" height="69.5"/>
			
				<linearGradient id="SVGID_74_" gradientUnits="userSpaceOnUse" x1="11756.9512" y1="536.3806" x2="11770.4082" y2="451.7367" gradientTransform="matrix(1 0 0 1 -11107.1113 0)">
				<stop  offset="0" style="stop-color:#CB236D"/>
				<stop  offset="1" style="stop-color:#4C246D"/>
			</linearGradient>
			<path class="st87" d="M675.4,540.1h-52v-2c0-1.2,0.9-2.2,2.1-2.2h47.8c1.2,0,2.2,1.1,2.2,2.4V540.1z"/>
			
				<linearGradient id="SVGID_75_" gradientUnits="userSpaceOnUse" x1="11745.9141" y1="537.0775" x2="11760.3145" y2="446.4973" gradientTransform="matrix(1 0 0 1 -11107.1113 0)">
				<stop  offset="0" style="stop-color:#FDF53F"/>
				<stop  offset="1" style="stop-color:#D93C65"/>
			</linearGradient>
			<path class="st88" d="M685.3,466.8c0,4-3.1,7.3-6.8,7.3h-56c-3.7,0-6.8-3.3-6.8-7.3v-6.6c0-4,3.1-7.3,6.8-7.3h56
				c3.7,0,6.8,3.3,6.8,7.3V466.8z"/>
		</g>
		<g>
			
				<linearGradient id="SVGID_76_" gradientUnits="userSpaceOnUse" x1="-942.1539" y1="512.559" x2="-953.8165" y2="535.4956" gradientTransform="matrix(-1 0 0 1 -341.4849 0)">
				<stop  offset="0" style="stop-color:#2B3582"/>
				<stop  offset="1" style="stop-color:#150E42"/>
			</linearGradient>
			<path class="st89" d="M616.3,526.5c0,0-17,13.2-14,22.1c0,0,18.6-8.7,20.8-15.5c2.2-6.8-0.4-9.8-0.4-9.8L616.3,526.5z"/>
			
				<linearGradient id="SVGID_77_" gradientUnits="userSpaceOnUse" x1="-963.2876" y1="522.0329" x2="-952.838" y2="522.0329" gradientTransform="matrix(-1 0 0 1 -341.4849 0)">
				<stop  offset="0" style="stop-color:#F9B776"/>
				<stop  offset="1" style="stop-color:#F47960"/>
			</linearGradient>
			<path class="st90" d="M618.9,515.4l2.8,8.7c0.4,1.3,0,2.8-1.1,3.5c-0.5,0.4-1.3,0.7-2.3,1c-1.4,0.4-2.9-0.4-3.6-1.8l-3.3-6.8
				L618.9,515.4z"/>
			
				<linearGradient id="SVGID_78_" gradientUnits="userSpaceOnUse" x1="-978.7716" y1="492.6248" x2="-931.4047" y2="426.2365" gradientTransform="matrix(-1 0 0 1 -341.4849 0)">
				<stop  offset="0" style="stop-color:#2B3582"/>
				<stop  offset="0.2305" style="stop-color:#252A70"/>
				<stop  offset="0.7285" style="stop-color:#19164F"/>
				<stop  offset="1" style="stop-color:#150E42"/>
			</linearGradient>
			<path class="st91" d="M645.9,437.4c0,0-34.9,6.5-49.8,21.5c-15,14.9,13.7,62.5,13.7,62.5s4.7,0,10.4-5.3c0,0-17-35.8-2.3-46.3
				c16.5-11.7,35.5-14.4,35.5-14.4l-7.1-16.9L645.9,437.4z"/>
			
				<linearGradient id="SVGID_79_" gradientUnits="userSpaceOnUse" x1="-949.5155" y1="536.318" x2="-986.1194" y2="584.1846" gradientTransform="matrix(-1 0 0 1 -341.4849 0)">
				<stop  offset="0" style="stop-color:#2B3582"/>
				<stop  offset="1" style="stop-color:#150E42"/>
			</linearGradient>
			<path class="st92" d="M605.2,543.7c3.7-1.9,14.3-9.9,16.1-10.2c1.8-0.4,4.9,1.9,4.9,1.9s0.8,1.5-0.1,4c-2.5,3.2-8,9.4-15.4,11.7
				c-5.4,1.7-9.3,0.1-11.6-1.7C600.4,547.2,602.8,544.9,605.2,543.7z"/>
			
				<linearGradient id="SVGID_80_" gradientUnits="userSpaceOnUse" x1="-967.6268" y1="546.837" x2="-939.5283" y2="546.837" gradientTransform="matrix(-1 0 0 1 -341.4849 0)">
				<stop  offset="0" style="stop-color:#53D8FF"/>
				<stop  offset="1" style="stop-color:#3840F7"/>
			</linearGradient>
			<path class="st93" d="M610.8,551.1c7.4-2.3,12.9-8.5,15.4-11.7c-0.5,1.7-1.8,3.9-4.5,6.5c-6.6,6.4-19.3,8.8-22,8.3
				c-2.2-0.4-2-2.5-0.5-4.9C601.5,551.2,605.3,552.8,610.8,551.1z"/>
			
				<linearGradient id="SVGID_81_" gradientUnits="userSpaceOnUse" x1="-970.8439" y1="532.4566" x2="-961.0367" y2="532.4566" gradientTransform="matrix(-1 0 0 1 -341.4849 0)">
				<stop  offset="0" style="stop-color:#F9B776"/>
				<stop  offset="1" style="stop-color:#F47960"/>
			</linearGradient>
			<path class="st94" d="M629.4,529.7c0,1.1-2.1,4.9-3.4,7.1c-0.6,1-1.6,1.6-2.7,1.6c-0.7,0-1.5-0.1-2.2-0.3
				c-1.1-0.3-1.7-1.6-1.4-2.8l2.4-8.9L629.4,529.7z"/>
			
				<linearGradient id="SVGID_82_" gradientUnits="userSpaceOnUse" x1="-993.8418" y1="525.7172" x2="-991.1931" y2="435.6617" gradientTransform="matrix(-1 0 0 1 -341.4849 0)">
				<stop  offset="0" style="stop-color:#2B3582"/>
				<stop  offset="1" style="stop-color:#150E42"/>
			</linearGradient>
			<path class="st95" d="M679.4,426.1c0,0,7.7,22.4,0,29.2c-7.7,6.8-26.2,14.5-30.3,28c-4.1,13.6-11.1,39.9-20.5,49.2
				c0,0-6.6-0.7-9-3.5c0,0,5.3-39.3,8.9-49.4c3-8.7,7.5-21.3,16.1-28.4c2.5-2,2-5.2,0.9-8.3l-2.1-5.7L679.4,426.1z"/>
			
				<linearGradient id="SVGID_83_" gradientUnits="userSpaceOnUse" x1="-931.6447" y1="437.36" x2="-957.4227" y2="397.0117" gradientTransform="matrix(-1 0 0 1 -341.4849 0)">
				<stop  offset="0" style="stop-color:#FDF53F"/>
				<stop  offset="1" style="stop-color:#D93C65"/>
			</linearGradient>
			<path class="st96" d="M598.7,408.5c13,0.8,8.9-21.6,8.7-22.5l19.7,15c0,0-1,12-17.4,18.3c-4.1,1.6-7.9,1.7-11.3,0.9
				C599.8,415.8,599.5,411.7,598.7,408.5z"/>
			
				<linearGradient id="SVGID_84_" gradientUnits="userSpaceOnUse" x1="-940.8771" y1="410.2126" x2="-906.6661" y2="410.2126" gradientTransform="matrix(-1 0 0 1 -341.4849 0)">
				<stop  offset="0" style="stop-color:#F9B776"/>
				<stop  offset="1" style="stop-color:#F47960"/>
			</linearGradient>
			<path class="st97" d="M573.6,401.8c4.8-3.6,10.3,0,10.3,0c6.5,4.6,11.3,6.5,14.8,6.7c0.8,3.2,1.1,7.2-0.3,11.7
				c-7.2-1.7-12.4-7.3-14.7-10.3c-0.8-1-2.2-1.2-3.2-0.4c-1,0.9-2,2-1.8,3.3c0.3,2.4-2.3,3.2-2.5,2.3c-0.2-0.9,0.9-6.1,0.9-6.1
				s-5.2,5.7-7.3,7.9c-2,2.2-4.6,0-4.6,0S568.8,405.4,573.6,401.8z"/>
			
				<linearGradient id="SVGID_85_" gradientUnits="userSpaceOnUse" x1="-956.0262" y1="367.5941" x2="-1034.9734" y2="425.0103" gradientTransform="matrix(-1 0 0 1 -341.4849 0)">
				<stop  offset="0" style="stop-color:#FDF53F"/>
				<stop  offset="1" style="stop-color:#D93C65"/>
			</linearGradient>
			<path class="st98" d="M659.2,351.5c0,0-18.9-8.2-54,23.2c0,0-2.9,6.6,0.3,12.4c3.2,5.8,33.7,34.3,37.9,50.1c0,0,18.2,6.4,37-8.8
				C680.3,428.4,678.7,384.5,659.2,351.5z"/>
			
				<linearGradient id="SVGID_86_" gradientUnits="userSpaceOnUse" x1="-973.5193" y1="355.6384" x2="-950.8208" y2="355.6384" gradientTransform="matrix(-1 0 0 1 -341.4849 0)">
				<stop  offset="0" style="stop-color:#F9B776"/>
				<stop  offset="1" style="stop-color:#F47960"/>
			</linearGradient>
			<path class="st99" d="M621.9,344.2l9.3,12.2c0.9,1.2,1.1,2.9,0.5,4.3c-1.3,2.8-4.4,7-11.1,6.4c-2-0.2-3.8-1.5-4.7-3.5l-6.5-14.5
				L621.9,344.2z"/>
			
				<linearGradient id="SVGID_87_" gradientUnits="userSpaceOnUse" x1="-965.3732" y1="350.6761" x2="-1045.8555" y2="409.2087" gradientTransform="matrix(-1 0 0 1 -341.4849 0)">
				<stop  offset="0" style="stop-color:#FDF53F"/>
				<stop  offset="1" style="stop-color:#D93C65"/>
			</linearGradient>
			<path class="st100" d="M673.8,403.6c2.2-9.6-20-31.2-20-31.2l5.4-21c0,0,47.9,34.5,35.7,62.2c-1.8,4-4.1,6.8-6.8,8.6
				C684.3,411.1,678.1,405.9,673.8,403.6z"/>
			
				<linearGradient id="SVGID_88_" gradientUnits="userSpaceOnUse" x1="-1022.9567" y1="387.0789" x2="-955.441" y2="383.2108" gradientTransform="matrix(-1 0 0 1 -341.4849 0)">
				<stop  offset="0" style="stop-color:#FDF53F"/>
				<stop  offset="1" style="stop-color:#D93C65"/>
			</linearGradient>
			<path class="st101" d="M673.8,402.2c0.2,0,0.5-0.2,0.5-0.4c2.2-9.9-19.3-30.8-20.2-31.7c-0.2-0.2-0.5-0.2-0.7,0
				c-0.2,0.2-0.2,0.6,0,0.8c0.2,0.2,21.9,21.4,19.9,30.6c-0.1,0.3,0.1,0.6,0.4,0.7C673.8,402.2,673.8,402.2,673.8,402.2z"/>
			
				<linearGradient id="SVGID_89_" gradientUnits="userSpaceOnUse" x1="-988.7458" y1="410.7872" x2="-1078.0175" y2="565.915" gradientTransform="matrix(-1 0 0 1 -341.4849 0)">
				<stop  offset="0" style="stop-color:#F9B776"/>
				<stop  offset="1" style="stop-color:#F47960"/>
			</linearGradient>
			<path class="st102" d="M640.2,402.8c0,0,26.3,11,32.7,2.7c0.4-0.6,0.7-1.2,0.9-1.9c4.3,2.3,10.5,7.5,14.3,18.7
				c-13.8,9.6-37.5-5.3-43.9-9.7c-1.1-0.7-2.3-1-3.5-0.7c-2.5,0.6-6.7,1.4-9,1c-3.4-0.6-8.2,12.3-13.6,8.3
				C618,421.2,622.7,398.9,640.2,402.8z"/>
			<g>
				
					<linearGradient id="SVGID_90_" gradientUnits="userSpaceOnUse" x1="-620.5431" y1="-1274.6711" x2="-650.7868" y2="-1234.6611" gradientTransform="matrix(-0.9683 -0.2499 -0.2499 0.9683 -312.7028 1407.2996)">
					<stop  offset="0" style="stop-color:#F9B776"/>
					<stop  offset="1" style="stop-color:#F47960"/>
				</linearGradient>
				<path class="st103" d="M601.7,326.3c-0.1,0.4,2.2,27,2.2,27l14-1.7l1.3-25.6C619.2,326,603.2,319.7,601.7,326.3z"/>
				
					<linearGradient id="SVGID_91_" gradientUnits="userSpaceOnUse" x1="-642.5682" y1="-1264.9874" x2="-608.4208" y2="-1264.9874" gradientTransform="matrix(-0.9683 -0.2499 -0.2499 0.9683 -312.7028 1407.2996)">
					<stop  offset="0" style="stop-color:#2B3582"/>
					<stop  offset="1" style="stop-color:#150E42"/>
				</linearGradient>
				<path class="st104" d="M615.5,331.3l0.3,13.5c0,0.2,0,0.3-0.1,0.5c-0.2,1-1.3,4.5-4.5,3.1c-2.9-1.3-5.6-2.4-7.6-2
					c-0.9,0.2-1.5,1.1-1.4,2c0.2,2.4,0.8,7.9,1.9,12.5c0.2,0.9,1.1,1.5,2,1.4c2.7-0.5,8.3-1.8,12.6-3.9c0.6-0.3,1-0.9,1-1.6
					c0.2-3.4,0.9-13.7,1.5-16.5c0.6-2.7,3.8-3.9,5.2-4.3c0.5-0.1,0.8-0.5,1.1-0.9c0.8-1.6,2-5.3-2.3-7.5c-0.9-0.4-1.3-1.6-0.9-2.6
					c0.9-1.9,1.5-4.9-1.8-7c-3.4-2.1-6.2-0.4-7.8,1.1c-0.6,0.6-1.6,0.6-2.2,0c-0.4-0.3-0.9-0.5-1.6-0.1c-0.9,0.5-2-0.1-2.3-1.1
					c-0.7-2-2.2-4.2-5.7-4c-6.3,0.4-7.7,7.7-6.5,12.2c1.2,4.5,7.9,3.6,11.5,1.9c2.7-1.4,5.8,0.8,7.1,1.9
					C615.3,330.2,615.5,330.7,615.5,331.3z"/>
				
					<linearGradient id="SVGID_92_" gradientUnits="userSpaceOnUse" x1="-664.1186" y1="-1242.6633" x2="-639.785" y2="-1267.6289" gradientTransform="matrix(-0.9683 -0.2499 -0.2499 0.9683 -312.7028 1407.2996)">
					<stop  offset="0" style="stop-color:#F9B776"/>
					<stop  offset="1" style="stop-color:#F47960"/>
				</linearGradient>
				<path class="st105" d="M621.3,345.3c0,0-1.7-7.9,1-9.5c2.8-1.6,6.5-0.1,5.1,5.3C625.7,347.8,621.3,345.3,621.3,345.3z"/>
			</g>
		</g>
		<g>
			
				<linearGradient id="SVGID_93_" gradientUnits="userSpaceOnUse" x1="11668.4775" y1="1116.2262" x2="11623.9502" y2="1128.4299" gradientTransform="matrix(0.9988 -4.940000e-02 4.940000e-02 0.9988 -11073.5088 -128.7758)">
				<stop  offset="0" style="stop-color:#2B3582"/>
				<stop  offset="1" style="stop-color:#150E42"/>
			</linearGradient>
			<path class="st106" d="M626.7,424.6c0,0-0.1,0-0.1,0l-55.2-0.1c-1.4,0-2.5-1.2-2.5-2.7c0-1.5,1.1-2.7,2.5-2.7l55.2,0.1
				c1.4,0,2.5,1.2,2.5,2.7C629.1,423.3,628,424.5,626.7,424.6z"/>
			
				<linearGradient id="SVGID_94_" gradientUnits="userSpaceOnUse" x1="11683.8584" y1="378.2279" x2="11650.8369" y2="413.1298" gradientTransform="matrix(1 0 0 1 -11107.1113 0)">
				<stop  offset="0" style="stop-color:#2B3582"/>
				<stop  offset="1" style="stop-color:#150E42"/>
			</linearGradient>
			<path class="st107" d="M521.7,370.4h46c3.4,0,6.5,2.1,7.9,5.4l21.3,48.7h-57.2c-2.2,0-4.2-1.4-5-3.6l-16.5-45.1
				C517.3,373.2,519.1,370.4,521.7,370.4z"/>
		</g>
		<g>
			<g>
				
					<linearGradient id="SVGID_95_" gradientUnits="userSpaceOnUse" x1="11633.959" y1="490.9774" x2="11687.2744" y2="490.9774" gradientTransform="matrix(1 0 0 1 -11107.1113 0)">
					<stop  offset="0" style="stop-color:#9CFFFB"/>
					<stop  offset="1" style="stop-color:#9BFFFA"/>
				</linearGradient>
				<path class="st108" d="M529.2,552.6c-0.3,0-0.6-0.1-0.9-0.2c-1.2-0.5-1.7-2-1.2-3.2l48.7-118.4c0.5-1.2,1.9-1.8,3-1.3
					c1.2,0.5,1.7,2,1.2,3.2l-48.7,118.4C530.9,552.1,530.1,552.6,529.2,552.6z"/>
				
					<linearGradient id="SVGID_96_" gradientUnits="userSpaceOnUse" x1="11640.1152" y1="490.9772" x2="11693.4316" y2="490.9772" gradientTransform="matrix(1 0 0 1 -11107.1113 0)">
					<stop  offset="0" style="stop-color:#9CFFFB"/>
					<stop  offset="1" style="stop-color:#9BFFFA"/>
				</linearGradient>
				<path class="st109" d="M584,552.6c-0.9,0-1.8-0.6-2.1-1.5l-48.7-118.4c-0.5-1.2,0-2.7,1.2-3.2c1.2-0.5,2.5,0,3,1.3l48.7,118.4
					c0.5,1.2,0,2.7-1.2,3.2C584.6,552.5,584.3,552.6,584,552.6z"/>
				
					<linearGradient id="SVGID_97_" gradientUnits="userSpaceOnUse" x1="11784.623" y1="490.9774" x2="11837.9385" y2="490.9774" gradientTransform="matrix(1 0 0 1 -11107.1113 0)">
					<stop  offset="0" style="stop-color:#9CFFFB"/>
					<stop  offset="1" style="stop-color:#9BFFFA"/>
				</linearGradient>
				<path class="st110" d="M679.8,552.6c-0.3,0-0.6-0.1-0.9-0.2c-1.2-0.5-1.7-2-1.2-3.2l48.7-118.4c0.5-1.2,1.9-1.8,3-1.3
					c1.2,0.5,1.7,2,1.2,3.2L682,551.1C681.6,552.1,680.7,552.6,679.8,552.6z"/>
				
					<linearGradient id="SVGID_98_" gradientUnits="userSpaceOnUse" x1="11790.7793" y1="490.9772" x2="11844.0947" y2="490.9772" gradientTransform="matrix(1 0 0 1 -11107.1113 0)">
					<stop  offset="0" style="stop-color:#9CFFFB"/>
					<stop  offset="1" style="stop-color:#9BFFFA"/>
				</linearGradient>
				<path class="st111" d="M734.7,552.6c-0.9,0-1.8-0.6-2.1-1.5l-48.7-118.4c-0.5-1.2,0-2.7,1.2-3.2c1.2-0.5,2.5,0,3,1.3l48.7,118.4
					c0.5,1.2,0,2.7-1.2,3.2C735.3,552.5,735,552.6,734.7,552.6z"/>
			</g>
			
				<linearGradient id="SVGID_99_" gradientUnits="userSpaceOnUse" x1="11621.3867" y1="430.4923" x2="11847.5234" y2="430.4923" gradientTransform="matrix(1 0 0 1 -11107.1113 0)">
				<stop  offset="0" style="stop-color:#9CFFFB"/>
				<stop  offset="1" style="stop-color:#9BFFFA"/>
			</linearGradient>
			<path class="st112" d="M740.4,427.2c0.1-0.8,0-1.6-0.5-2.2c-0.4-0.6-1-1-1.7-1H516.8c-0.9,0-1.7,0.5-2.1,1.4
				c-0.5,0.9-0.5,2-0.2,2.9l2.4,6.3c0.5,1.4,1.7,2.4,3.1,2.4h216.7c1.2,0,2.3-1,2.5-2.5L740.4,427.2z"/>
		</g>
	</g>
	<g>
		<linearGradient id="SVGID_100_" gradientUnits="userSpaceOnUse" x1="68.3835" y1="513.5128" x2="174.0939" y2="422.0327">
			<stop  offset="0" style="stop-color:#2B3582"/>
			<stop  offset="1" style="stop-color:#150E42"/>
		</linearGradient>
		<path class="st113" d="M138.4,461.2l-96.9,58.1c-4.1,2.4-5.3,8.1-2.8,12.3l0.4,0.7c2.3,3.7,6.9,4.7,10.3,2.2l92.5-67L138.4,461.2z
			"/>
		
			<ellipse transform="matrix(4.640960e-02 -0.9989 0.9989 4.640960e-02 -254.7456 590.7546)" class="st114" cx="182" cy="428.8" rx="54.6" ry="51.4"/>
		
			<linearGradient id="SVGID_101_" gradientUnits="userSpaceOnUse" x1="1122.0148" y1="725.1006" x2="1236.6317" y2="725.1006" gradientTransform="matrix(0.9876 -0.1567 0.1567 0.9876 -1096.2767 -102.5042)">
			<stop  offset="0" style="stop-color:#2B3582"/>
			<stop  offset="1" style="stop-color:#150E42"/>
		</linearGradient>
		<path class="st115" d="M173.2,368.9c-31.2,5.4-52.5,36.5-47.7,69.6c4.9,33.1,34.1,55.6,65.3,50.3c31.2-5.4,52.5-36.5,47.7-69.6
			C233.7,386,204.4,363.5,173.2,368.9z M189.6,479.9c-26.6,4.6-51.5-14.6-55.7-42.9c-4.1-28.2,14.1-54.8,40.7-59.4
			c26.6-4.6,51.5,14.6,55.7,42.9C234.4,448.8,216.2,475.4,189.6,479.9z"/>
		<path class="st42" d="M130.9,445.2c-0.2,0-0.3-0.1-0.4-0.3c-0.4-1.4-0.7-2.8-1-4.2c0-0.2,0.1-0.4,0.3-0.5c0.2-0.1,0.4,0.1,0.5,0.3
			c0.3,1.4,0.6,2.8,1,4.2c0.1,0.2-0.1,0.4-0.3,0.5C131,445.2,130.9,445.2,130.9,445.2z M128.8,428.4
			C128.8,428.4,128.8,428.4,128.8,428.4c-0.2,0-0.4-0.2-0.4-0.4c0.1-4,0.5-7.9,1.4-11.8c0,0,0,0,0,0c5-22.7,22.3-39.8,44-43.6
			c10.1-1.7,20.4-0.4,29.7,3.9c0.2,0.1,0.3,0.3,0.2,0.5c-0.1,0.2-0.3,0.3-0.5,0.2c-9.2-4.2-19.3-5.6-29.3-3.9
			c-21.4,3.7-38.4,20.5-43.3,42.9c0,0,0,0,0,0c-0.8,3.8-1.3,7.7-1.4,11.6C129.2,428.2,129,428.4,128.8,428.4z"/>
		<path class="st42" d="M45.6,533.6C45.6,533.6,45.5,533.6,45.6,533.6c-4.3-0.8-5.6-3.2-6-5.1c-0.5-2.7,0.7-5.6,3.1-7.1l11.6-7.3
			c0.2-0.1,0.4,0,0.5,0.1c0.1,0.2,0,0.4-0.1,0.6l-11.6,7.3c-2.1,1.3-3.1,3.8-2.7,6.2c0.4,2.4,2.2,3.9,5.3,4.4c0.2,0,0.3,0.3,0.3,0.5
			C45.9,533.5,45.8,533.6,45.6,533.6z"/>
		<path class="st42" d="M58,512.6c-0.1,0-0.3-0.1-0.3-0.2c-0.1-0.2,0-0.4,0.1-0.6l1.5-0.9c0.2-0.1,0.4,0,0.5,0.1
			c0.1,0.2,0,0.4-0.1,0.6l-1.5,0.9C58.1,512.6,58.1,512.6,58,512.6z"/>
	</g>
</g>
</svg>
