<svg xmlns="http://www.w3.org/2000/svg" viewBox="0 0 84 84"><defs><style>.cls-1{fill:#3c3c41;}.cls-2,.cls-3{fill:#75757a;}.cls-3,.cls-4,.cls-5{fill-rule:evenodd;}.cls-4{fill:#f3f3f3;}.cls-5{fill:#52ad02;}</style></defs><title>app-ser-Customer-Service</title><g id="customer-service-03"><circle class="cls-1" cx="42" cy="42" r="35.5"/><rect class="cls-2" x="33.5" y="51.5" width="14" height="3"/><polygon class="cls-3" points="31.45 39.07 28.5 44.64 31.03 45.5 36.5 36.5 31.45 39.07"/><path class="cls-3" d="M45.76,32.5,43.5,33.73,50.6,44.5h2.9Z"/><polygon class="cls-4" points="26.69 47.5 19.5 49.9 19.5 57.1 22.04 56.3 22.04 50.3 26.69 49.1 26.69 57.9 19.5 57.1 26.69 59.5 30.5 58.3 30.5 48.7 26.69 47.5"/><path class="cls-4" d="M60.83,57.5h-2v-3a.88.88,0,0,0-1-1,.71.71,0,0,0-.66.67.33.33,0,0,0-.34.33v3H55.17V52.17h1.66v.66c.34-.33.67-1,1.67-1a2.38,2.38,0,0,1,2.33,2.67Zm-7.66-6h0a1.5,1.5,0,0,1-1-1,1.06,1.06,0,0,1,1-1,.89.89,0,0,1,1,1A1.07,1.07,0,0,1,53.17,51.5Zm1,6H52.5V52.17h1.67Zm7.33-10h-10a.88.88,0,0,0-1,1v10a.88.88,0,0,0,1,1h10a.88.88,0,0,0,1-1v-10A.88.88,0,0,0,61.5,47.5Z"/><polygon class="cls-5" points="35.5 34.5 38.5 24.64 35.5 22.5 35.5 34.5"/><polygon class="cls-5" points="46.5 28.28 46.5 22.5 35.5 34.5 46.5 28.28"/><polygon class="cls-5" points="35.5 17.5 35.5 22.13 42.3 25.5 45.5 22.97 35.5 17.5"/></g></svg>