<svg id="customer-service-05" xmlns="http://www.w3.org/2000/svg" viewBox="0 0 84 84"><defs><style>.cls-1{fill:#3c3c41;}.cls-2{fill:#1e1e20;}.cls-3{fill:#f3f3f3;}.cls-3,.cls-4,.cls-5{fill-rule:evenodd;}.cls-4{fill:#52ad02;}.cls-5{fill:#75757a;}</style></defs><title>app-ser-Customer-Service</title><circle class="cls-1" cx="42.54" cy="42.43" r="35.5"/><rect class="cls-2" x="31.04" y="21.93" width="34" height="27"/><polygon class="cls-3" points="45.05 36.61 45.05 46.93 47.05 46.93 47.05 34.93 45.05 36.61"/><polygon class="cls-3" points="40.05 42.43 40.05 46.93 41.05 46.93 41.05 40.93 40.05 42.43"/><polygon class="cls-3" points="48.05 34.28 48.05 46.93 50.05 46.93 50.05 32.93 48.05 34.28"/><polygon class="cls-3" points="42.05 39.63 42.05 46.93 44.05 46.93 44.05 37.93 42.05 39.63"/><polygon class="cls-3" points="57.05 32.55 57.05 46.93 58.05 46.93 58.05 30.93 57.05 32.55"/><polygon class="cls-3" points="54.05 35.32 54.05 46.93 55.05 46.93 55.05 33.93 54.05 35.32"/><polygon class="cls-3" points="51.05 32.93 51.05 46.93 53.05 46.93 53.05 34.28 51.05 32.93"/><polygon class="cls-3" points="60.05 30.93 60.05 46.93 61.05 46.93 61.05 32.3 60.05 30.93"/><polygon class="cls-4" points="61.05 24.93 56.01 24.93 57.98 26.91 54.05 30.89 50.55 27.36 40.05 37.95 40.05 39.93 50.55 29.34 54.05 33.09 59.08 28.02 61.05 30 61.05 24.93"/><path class="cls-5" d="M35.54,26.93a9,9,0,1,1-8.73,9A8.87,8.87,0,0,1,35.54,26.93Zm.23,20.25c8.54,0,15.27,7.2,15.27,15.75H20A15.93,15.93,0,0,1,35.77,47.18Z"/></svg>