<?xml version="1.0" encoding="utf-8"?>
<!-- Generator: Adobe Illustrator 23.0.3, SVG Export Plug-In . SVG Version: 6.00 Build 0)  -->
<svg version="1.1" id="Layer_2" xmlns="http://www.w3.org/2000/svg" xmlns:xlink="http://www.w3.org/1999/xlink" x="0px" y="0px"
	 viewBox="0 0 988.9 620" style="enable-background:new 0 0 988.9 620;" xml:space="preserve">
<style type="text/css">
	.st0{fill:url(#SVGID_1_);}
	.st1{filter:url(#Adobe_OpacityMaskFilter);}
	.st2{filter:url(#Adobe_OpacityMaskFilter_1_);}
	.st3{mask:url(#SVGID_2_);fill:url(#SVGID_3_);}
	.st4{opacity:0.72;fill:url(#SVGID_4_);}
	.st5{fill:#939AA3;}
	.st6{fill:#B0B0D9;}
	.st7{fill:url(#SVGID_5_);}
	.st8{fill:#7A7AB5;}
	.st9{fill:url(#SVGID_6_);}
	.st10{fill:url(#SVGID_7_);}
	.st11{fill:#9CB839;}
	.st12{fill:url(#SVGID_8_);}
	.st13{fill:url(#SVGID_9_);}
	.st14{fill:url(#SVGID_10_);}
	.st15{fill:url(#SVGID_11_);}
	.st16{fill:url(#SVGID_12_);}
	.st17{fill:url(#SVGID_13_);}
	.st18{fill:url(#SVGID_14_);}
	.st19{fill:url(#SVGID_15_);}
	.st20{fill:url(#SVGID_16_);}
	.st21{fill:url(#SVGID_17_);}
	.st22{fill:url(#SVGID_18_);}
	.st23{fill:#2A2E4A;}
	.st24{fill:url(#SVGID_19_);}
	.st25{fill:#404773;}
	.st26{fill:#626EB0;}
	.st27{opacity:0.72;fill:#D9D9D9;}
	.st28{fill:#8383C9;}
	.st29{fill:#FAA146;}
	.st30{fill:#FFFFFF;}
	.st31{fill:#8E4F3A;}
	.st32{fill:#262626;}
	.st33{fill:#2F4563;}
	.st34{fill:#23334A;}
	.st35{fill:#333333;}
	.st36{fill:#AAADBA;}
	.st37{fill:#9E9E9E;}
	.st38{fill:#273A54;}
	.st39{fill:#525252;}
	.st40{fill:#47281D;}
	.st41{fill:#EDDAD3;}
</style>
<g>
	<linearGradient id="SVGID_1_" gradientUnits="userSpaceOnUse" x1="522.8328" y1="149.824" x2="359.2204" y2="1098.1738">
		<stop  offset="0" style="stop-color:#FFF4E8"/>
		<stop  offset="0.9947" style="stop-color:#CCE9FF"/>
	</linearGradient>
	<path class="st0" d="M105.9,222.6c-35.9,89.7-54.2,204.5,63.8,289c118,84.5,503.6,62.4,643.3-15.2s84.4-256,12.8-325.8
		C754.3,100.7,660.1-5,484.2,75C308.4,155,152.9,105.2,105.9,222.6z"/>
	<defs>
		<filter id="Adobe_OpacityMaskFilter" filterUnits="userSpaceOnUse" x="236" y="466.7" width="457.5" height="92.7">
			<feFlood  style="flood-color:white;flood-opacity:1" result="back"/>
			<feBlend  in="SourceGraphic" in2="back" mode="normal"/>
		</filter>
	</defs>
	<mask maskUnits="userSpaceOnUse" x="236" y="466.7" width="457.5" height="92.7" id="SVGID_2_">
		<g class="st1">
			<defs>
				<filter id="Adobe_OpacityMaskFilter_1_" filterUnits="userSpaceOnUse" x="236" y="466.7" width="457.5" height="92.7">
					<feFlood  style="flood-color:white;flood-opacity:1" result="back"/>
					<feBlend  in="SourceGraphic" in2="back" mode="normal"/>
				</filter>
			</defs>
			<mask maskUnits="userSpaceOnUse" x="236" y="466.7" width="457.5" height="92.7" id="SVGID_2_">
				<g class="st2">
				</g>
			</mask>
			<linearGradient id="SVGID_3_" gradientUnits="userSpaceOnUse" x1="464.7983" y1="485.5477" x2="464.7983" y2="678.4266">
				<stop  offset="0" style="stop-color:#000000"/>
				<stop  offset="0.6952" style="stop-color:#FFFFFF"/>
			</linearGradient>
			<polygon class="st3" points="565.7,559.4 693.6,466.7 236,466.7 365.8,559.4 			"/>
		</g>
	</mask>
	<linearGradient id="SVGID_4_" gradientUnits="userSpaceOnUse" x1="464.7983" y1="485.5477" x2="464.7983" y2="678.4266">
		<stop  offset="0" style="stop-color:#E67A56"/>
		<stop  offset="0.6952" style="stop-color:#E67A56"/>
	</linearGradient>
	<polygon class="st4" points="565.7,559.4 693.6,466.7 236,466.7 365.8,559.4 	"/>
	<ellipse class="st5" cx="507.3" cy="563.2" rx="355.3" ry="10.1"/>
	<g>
		<circle class="st6" cx="594.5" cy="233.3" r="53"/>
		<linearGradient id="SVGID_5_" gradientUnits="userSpaceOnUse" x1="585.2924" y1="212.7728" x2="629.7552" y2="312.2489">
			<stop  offset="0" style="stop-color:#FFFFFF"/>
			<stop  offset="1" style="stop-color:#CFCFCF"/>
		</linearGradient>
		<circle class="st7" cx="594.5" cy="233.3" r="45"/>
		<g>
			<path class="st8" d="M592.6,271.8c0-1,0.8-1.9,1.9-1.9l0,0c1,0,1.9,0.8,1.9,1.9l0,0c0,1-0.8,1.9-1.9,1.9l0,0
				C593.4,273.7,592.6,272.8,592.6,271.8z M574.3,268.3L574.3,268.3L574.3,268.3c-0.6-0.4-0.9-1-0.9-1.6l0,0c0-0.3,0.1-0.6,0.3-0.9
				l0,0c0.5-0.9,1.7-1.2,2.6-0.7l0,0c0.6,0.4,0.9,1,0.9,1.6l0,0c0,0.3-0.1,0.6-0.3,0.9l0,0c-0.4,0.6-1,0.9-1.6,0.9l0,0
				C574.9,268.5,574.6,268.5,574.3,268.3z M612.1,267.6c-0.2-0.3-0.3-0.6-0.3-0.9l0,0c0-0.6,0.3-1.3,0.9-1.6l0,0
				c0.9-0.5,2.1-0.2,2.6,0.7l0,0c0.2,0.3,0.3,0.6,0.3,0.9l0,0c0,0.7-0.3,1.3-0.9,1.6l0,0c-0.3,0.2-0.6,0.3-0.9,0.3l0,0
				C613.1,268.5,612.4,268.2,612.1,267.6z M559.5,253.5c-0.2-0.3-0.3-0.6-0.3-0.9l0,0c0-0.6,0.3-1.3,0.9-1.6l0,0
				c0.9-0.5,2.1-0.2,2.6,0.7l0,0c0.2,0.3,0.3,0.6,0.3,0.9l0,0c0,0.6-0.3,1.3-0.9,1.6l0,0c-0.3,0.2-0.6,0.3-0.9,0.3l0,0
				C560.5,254.5,559.9,254.1,559.5,253.5z M626.9,254.2c-0.6-0.4-0.9-1-0.9-1.6l0,0c0-0.3,0.1-0.6,0.3-0.9l0,0
				c0.5-0.9,1.7-1.2,2.6-0.7l0,0c0.6,0.4,0.9,1,0.9,1.6l0,0c0,0.3-0.1,0.6-0.3,0.9l0,0c-0.3,0.6-1,0.9-1.6,0.9l0,0
				C627.5,254.4,627.2,254.3,626.9,254.2z M554.1,233.3c0-1,0.8-1.9,1.9-1.9l0,0c1,0,1.9,0.8,1.9,1.9l0,0c0,1-0.8,1.9-1.9,1.9l0,0
				c0,0,0,0,0,0l0,0C554.9,235.2,554.1,234.4,554.1,233.3z M631.1,233.3L631.1,233.3C631.1,233.3,631.1,233.3,631.1,233.3
				L631.1,233.3C631.1,233.2,631.1,233.2,631.1,233.3L631.1,233.3c0-1.1,0.8-2,1.9-2l0,0c1,0,1.9,0.8,1.9,1.9l0,0c0,0,0,0,0,0l0,0
				c0,0,0,0,0,0l0,0c0,1-0.8,1.9-1.9,1.9l0,0C631.9,235.2,631.1,234.3,631.1,233.3z M560.2,215.7c-0.6-0.4-0.9-1-0.9-1.6l0,0
				c0-0.3,0.1-0.6,0.3-0.9l0,0c0.5-0.9,1.7-1.2,2.6-0.7l0,0c0.6,0.3,0.9,1,0.9,1.6l0,0c0,0.3-0.1,0.6-0.3,0.9l0,0
				c-0.3,0.6-1,0.9-1.6,0.9l0,0C560.8,216,560.5,215.9,560.2,215.7z M626.1,214.9L626.1,214.9c-0.2-0.3-0.3-0.6-0.3-0.9l0,0
				c0-0.6,0.3-1.3,0.9-1.6l0,0c0.9-0.5,2.1-0.2,2.6,0.7l0,0c0.2,0.3,0.3,0.6,0.3,0.9l0,0c0,0.6-0.3,1.3-0.9,1.6l0,0
				c-0.3,0.2-0.6,0.3-0.9,0.3l0,0C627.1,215.9,626.5,215.5,626.1,214.9z M573.5,200.9c-0.2-0.3-0.3-0.6-0.3-0.9l0,0
				c0-0.6,0.3-1.3,0.9-1.6l0,0c0.9-0.5,2.1-0.2,2.6,0.7l0,0c0.2,0.3,0.3,0.6,0.3,0.9l0,0c0,0.6-0.3,1.3-0.9,1.6l0,0
				c-0.3,0.2-0.6,0.3-0.9,0.3l0,0C574.5,201.9,573.9,201.5,573.5,200.9z M612.7,201.6c-0.6-0.3-0.9-1-0.9-1.6l0,0
				c0-0.3,0.1-0.6,0.3-0.9l0,0c0.5-0.9,1.7-1.2,2.6-0.7l0,0c0.6,0.3,0.9,1,0.9,1.6l0,0c0,0.3-0.1,0.6-0.3,0.9l0,0
				c-0.3,0.6-1,0.9-1.6,0.9l0,0C613.3,201.8,613,201.7,612.7,201.6z M592.5,194.8c0-1,0.8-1.9,1.9-1.9l0,0c1,0,1.9,0.8,1.9,1.9l0,0
				c0,1-0.8,1.9-1.9,1.9l0,0c0,0,0,0,0,0l0,0C593.4,196.7,592.5,195.9,592.5,194.8z"/>
		</g>
		<g>
			<path class="st8" d="M615.7,207.7c0,0.2-0.1,0.3-0.2,0.5L596.1,239l-32-5.1c-0.7-0.1-1.2-0.8-1.1-1.5c0.1-0.7,0.8-1.2,1.5-1.1
				l30.3,4.9l18.5-29.4c0.4-0.6,1.2-0.8,1.8-0.4C615.5,206.7,615.7,207.2,615.7,207.7z"/>
		</g>
	</g>
	<g>
		<circle class="st6" cx="464.1" cy="110" r="53"/>
		<linearGradient id="SVGID_6_" gradientUnits="userSpaceOnUse" x1="454.9198" y1="89.4996" x2="499.3826" y2="188.9755">
			<stop  offset="0" style="stop-color:#FFFFFF"/>
			<stop  offset="1" style="stop-color:#CFCFCF"/>
		</linearGradient>
		<circle class="st9" cx="464.1" cy="110" r="45"/>
		<g>
			<path class="st8" d="M462.2,148.5c0-1,0.8-1.9,1.9-1.9l0,0c1,0,1.9,0.8,1.9,1.9l0,0c0,1-0.8,1.9-1.9,1.9l0,0
				C463.1,150.4,462.2,149.6,462.2,148.5z M443.9,145L443.9,145L443.9,145c-0.6-0.4-0.9-1-0.9-1.6l0,0c0-0.3,0.1-0.6,0.3-0.9l0,0
				c0.5-0.9,1.7-1.2,2.6-0.7l0,0c0.6,0.4,0.9,1,0.9,1.6l0,0c0,0.3-0.1,0.6-0.3,0.9l0,0c-0.4,0.6-1,0.9-1.6,0.9l0,0
				C444.6,145.3,444.2,145.2,443.9,145z M481.7,144.3c-0.2-0.3-0.3-0.6-0.3-0.9l0,0c0-0.6,0.3-1.3,0.9-1.6l0,0
				c0.9-0.5,2.1-0.2,2.6,0.7l0,0c0.2,0.3,0.3,0.6,0.3,0.9l0,0c0,0.7-0.3,1.3-0.9,1.6l0,0c-0.3,0.2-0.6,0.3-0.9,0.3l0,0
				C482.7,145.2,482.1,144.9,481.7,144.3z M429.1,130.3c-0.2-0.3-0.3-0.6-0.3-0.9l0,0c0-0.6,0.3-1.3,0.9-1.6l0,0
				c0.9-0.5,2.1-0.2,2.6,0.7l0,0c0.2,0.3,0.3,0.6,0.3,0.9l0,0c0,0.6-0.3,1.3-0.9,1.6l0,0c-0.3,0.2-0.6,0.3-0.9,0.3l0,0
				C430.1,131.2,429.5,130.9,429.1,130.3z M496.5,130.9c-0.6-0.4-0.9-1-0.9-1.6l0,0c0-0.3,0.1-0.6,0.3-0.9l0,0
				c0.5-0.9,1.7-1.2,2.6-0.7l0,0c0.6,0.4,0.9,1,0.9,1.6l0,0c0,0.3-0.1,0.6-0.3,0.9l0,0c-0.3,0.6-1,0.9-1.6,0.9l0,0
				C497.1,131.2,496.8,131.1,496.5,130.9z M423.7,110.1c0-1,0.8-1.9,1.9-1.9l0,0c1,0,1.9,0.8,1.9,1.9l0,0c0,1-0.8,1.9-1.9,1.9l0,0
				c0,0,0,0,0,0l0,0C424.6,112,423.7,111.1,423.7,110.1z M500.7,110L500.7,110C500.7,110,500.7,110,500.7,110L500.7,110
				C500.7,110,500.7,110,500.7,110L500.7,110c0-1.1,0.8-2,1.9-2l0,0c1,0,1.9,0.8,1.9,1.9l0,0c0,0,0,0,0,0l0,0c0,0,0,0,0,0l0,0
				c0,1-0.8,1.9-1.9,1.9l0,0C501.5,111.9,500.7,111.1,500.7,110z M429.8,92.5c-0.6-0.4-0.9-1-0.9-1.6l0,0c0-0.3,0.1-0.6,0.3-0.9l0,0
				c0.5-0.9,1.7-1.2,2.6-0.7l0,0c0.6,0.3,0.9,1,0.9,1.6l0,0c0,0.3-0.1,0.6-0.3,0.9l0,0c-0.3,0.6-1,0.9-1.6,0.9l0,0
				C430.4,92.7,430.1,92.6,429.8,92.5z M495.8,91.7L495.8,91.7c-0.2-0.3-0.3-0.6-0.3-0.9l0,0c0-0.6,0.3-1.3,0.9-1.6l0,0
				c0.9-0.5,2.1-0.2,2.6,0.7l0,0c0.2,0.3,0.3,0.6,0.3,0.9l0,0c0,0.6-0.3,1.3-0.9,1.6l0,0c-0.3,0.2-0.6,0.3-0.9,0.3l0,0
				C496.7,92.6,496.1,92.3,495.8,91.7z M443.2,77.7c-0.2-0.3-0.3-0.6-0.3-0.9l0,0c0-0.6,0.3-1.3,0.9-1.6l0,0
				c0.9-0.5,2.1-0.2,2.6,0.7l0,0c0.2,0.3,0.3,0.6,0.3,0.9l0,0c0,0.6-0.3,1.3-0.9,1.6l0,0c-0.3,0.2-0.6,0.3-0.9,0.3l0,0
				C444.1,78.6,443.5,78.3,443.2,77.7z M482.3,78.3c-0.6-0.3-0.9-1-0.9-1.6l0,0c0-0.3,0.1-0.6,0.3-0.9l0,0c0.5-0.9,1.7-1.2,2.6-0.7
				l0,0c0.6,0.3,0.9,1,0.9,1.6l0,0c0,0.3-0.1,0.6-0.3,0.9l0,0c-0.3,0.6-1,0.9-1.6,0.9l0,0C483,78.5,482.6,78.5,482.3,78.3z
				 M462.1,71.5c0-1,0.8-1.9,1.9-1.9l0,0c1,0,1.9,0.8,1.9,1.9l0,0c0,1-0.8,1.9-1.9,1.9l0,0c0,0,0,0,0,0l0,0
				C463,73.4,462.1,72.6,462.1,71.5z"/>
		</g>
		<g>
			<path class="st8" d="M496.1,125.2c-0.2,0-0.3,0-0.5-0.1l-33.5-14.3V78.5c0-0.7,0.6-1.3,1.3-1.3s1.3,0.6,1.3,1.3v30.7l32,13.6
				c0.6,0.3,1,1,0.7,1.7C497.1,125,496.6,125.2,496.1,125.2z"/>
		</g>
	</g>
	<g>
		<circle class="st6" cx="329.9" cy="231.5" r="53"/>
		<linearGradient id="SVGID_7_" gradientUnits="userSpaceOnUse" x1="320.6903" y1="210.9309" x2="365.153" y2="310.4069">
			<stop  offset="0" style="stop-color:#FFFFFF"/>
			<stop  offset="1" style="stop-color:#CFCFCF"/>
		</linearGradient>
		<circle class="st10" cx="329.9" cy="231.5" r="45"/>
		<g>
			<path class="st8" d="M328,269.9c0-1,0.8-1.9,1.9-1.9l0,0c1,0,1.9,0.8,1.9,1.9l0,0c0,1-0.8,1.9-1.9,1.9l0,0
				C328.8,271.8,328,271,328,269.9z M309.7,266.4L309.7,266.4L309.7,266.4c-0.6-0.4-0.9-1-0.9-1.6l0,0c0-0.3,0.1-0.6,0.3-0.9l0,0
				c0.5-0.9,1.7-1.2,2.6-0.7l0,0c0.6,0.4,0.9,1,0.9,1.6l0,0c0,0.3-0.1,0.6-0.3,0.9l0,0c-0.4,0.6-1,0.9-1.6,0.9l0,0
				C310.3,266.7,310,266.6,309.7,266.4z M347.5,265.7c-0.2-0.3-0.3-0.6-0.3-0.9l0,0c0-0.6,0.3-1.3,0.9-1.6l0,0
				c0.9-0.5,2.1-0.2,2.6,0.7l0,0c0.2,0.3,0.3,0.6,0.3,0.9l0,0c0,0.7-0.3,1.3-0.9,1.6l0,0c-0.3,0.2-0.6,0.3-0.9,0.3l0,0
				C348.5,266.7,347.8,266.3,347.5,265.7z M294.9,251.7c-0.2-0.3-0.3-0.6-0.3-0.9l0,0c0-0.6,0.3-1.3,0.9-1.6l0,0
				c0.9-0.5,2.1-0.2,2.6,0.7l0,0c0.2,0.3,0.3,0.6,0.3,0.9l0,0c0,0.6-0.3,1.3-0.9,1.6l0,0c-0.3,0.2-0.6,0.3-0.9,0.3l0,0
				C295.9,252.6,295.3,252.3,294.9,251.7z M362.3,252.3c-0.6-0.4-0.9-1-0.9-1.6l0,0c0-0.3,0.1-0.6,0.3-0.9l0,0
				c0.5-0.9,1.7-1.2,2.6-0.7l0,0c0.6,0.4,0.9,1,0.9,1.6l0,0c0,0.3-0.1,0.6-0.3,0.9l0,0c-0.3,0.6-1,0.9-1.6,0.9l0,0
				C362.9,252.6,362.6,252.5,362.3,252.3z M289.5,231.5c0-1,0.8-1.9,1.9-1.9l0,0c1,0,1.9,0.8,1.9,1.9l0,0c0,1-0.8,1.9-1.9,1.9l0,0
				c0,0,0,0,0,0l0,0C290.3,233.4,289.5,232.5,289.5,231.5z M366.5,231.5L366.5,231.5C366.5,231.4,366.5,231.4,366.5,231.5
				L366.5,231.5C366.5,231.4,366.5,231.4,366.5,231.5L366.5,231.5c0-1.1,0.8-2,1.9-2l0,0c1,0,1.9,0.8,1.9,1.9l0,0c0,0,0,0,0,0l0,0
				c0,0,0,0,0,0l0,0c0,1-0.8,1.9-1.9,1.9l0,0C367.3,233.3,366.5,232.5,366.5,231.5z M295.6,213.9c-0.6-0.4-0.9-1-0.9-1.6l0,0
				c0-0.3,0.1-0.6,0.3-0.9l0,0c0.5-0.9,1.7-1.2,2.6-0.7l0,0c0.6,0.3,0.9,1,0.9,1.6l0,0c0,0.3-0.1,0.6-0.3,0.9l0,0
				c-0.3,0.6-1,0.9-1.6,0.9l0,0C296.2,214.1,295.9,214.1,295.6,213.9z M361.5,213.1L361.5,213.1c-0.2-0.3-0.3-0.6-0.3-0.9l0,0
				c0-0.6,0.3-1.3,0.9-1.6l0,0c0.9-0.5,2.1-0.2,2.6,0.7l0,0c0.2,0.3,0.3,0.6,0.3,0.9l0,0c0,0.6-0.3,1.3-0.9,1.6l0,0
				c-0.3,0.2-0.6,0.3-0.9,0.3l0,0C362.5,214,361.9,213.7,361.5,213.1z M308.9,199.1c-0.2-0.3-0.3-0.6-0.3-0.9l0,0
				c0-0.6,0.3-1.3,0.9-1.6l0,0c0.9-0.5,2.1-0.2,2.6,0.7l0,0c0.2,0.3,0.3,0.6,0.3,0.9l0,0c0,0.6-0.3,1.3-0.9,1.6l0,0
				c-0.3,0.2-0.6,0.3-0.9,0.3l0,0C309.9,200,309.3,199.7,308.9,199.1z M348.1,199.7c-0.6-0.3-0.9-1-0.9-1.6l0,0
				c0-0.3,0.1-0.6,0.3-0.9l0,0c0.5-0.9,1.7-1.2,2.6-0.7l0,0c0.6,0.3,0.9,1,0.9,1.6l0,0c0,0.3-0.1,0.6-0.3,0.9l0,0
				c-0.3,0.6-1,0.9-1.6,0.9l0,0C348.7,200,348.4,199.9,348.1,199.7z M327.9,193c0-1,0.8-1.9,1.9-1.9l0,0c1,0,1.9,0.8,1.9,1.9l0,0
				c0,1-0.8,1.9-1.9,1.9l0,0c0,0,0,0,0,0l0,0C328.8,194.9,327.9,194,327.9,193z"/>
		</g>
		<g>
			<path class="st8" d="M332.5,265c-0.1-0.1-0.1-0.3-0.2-0.5l-3.8-36.2l28.3-15.7c0.6-0.3,1.4-0.1,1.7,0.5c0.3,0.6,0.1,1.4-0.5,1.7
				l-26.8,14.9l3.6,34.5c0.1,0.7-0.4,1.3-1.1,1.4C333.2,265.7,332.7,265.5,332.5,265z"/>
		</g>
	</g>
	<g>
		<g>
			<path class="st11" d="M793.8,500.9l-0.7,0c0-0.3,1.4-27,1-58.5c-0.4-29-2.3-68.1-9.8-89.5l0.7-0.2c7.5,21.4,9.5,60.6,9.8,89.7
				C795.2,473.9,793.8,500.7,793.8,500.9z"/>
		</g>
		<g>
			<path class="st11" d="M804.4,500.9c-0.1-1.7-8.9-172.5-20.1-223.9l0.7-0.2c11.2,51.5,20,222.3,20.1,224.1L804.4,500.9z"/>
		</g>
		<g>
			<linearGradient id="SVGID_8_" gradientUnits="userSpaceOnUse" x1="796.3035" y1="415.3546" x2="800.9921" y2="415.3546">
				<stop  offset="0" style="stop-color:#688027"/>
				<stop  offset="1" style="stop-color:#9CB839"/>
			</linearGradient>
			<path class="st12" d="M800.3,506.6c-0.1-1.5-7.6-152.1-1.7-182.5l0.7,0.1c-5.9,30.3,1.6,180.8,1.7,182.4L800.3,506.6z"/>
		</g>
		<g>
			<linearGradient id="SVGID_9_" gradientUnits="userSpaceOnUse" x1="799.0424" y1="441.5143" x2="806.6624" y2="441.5143">
				<stop  offset="0" style="stop-color:#688027"/>
				<stop  offset="1" style="stop-color:#9CB839"/>
			</linearGradient>
			<path class="st13" d="M799.8,503.3H799c0-0.8,0.1-85.1,6.9-123.6l0.7,0.1C799.9,418.2,799.8,502.5,799.8,503.3z"/>
		</g>
		<linearGradient id="SVGID_10_" gradientUnits="userSpaceOnUse" x1="803.1375" y1="362.3264" x2="858.9472" y2="362.3264">
			<stop  offset="0" style="stop-color:#688027"/>
			<stop  offset="1" style="stop-color:#9CB839"/>
		</linearGradient>
		<path class="st14" d="M858.9,346.7c0,0-14.2-44.4-33.1-20.1c-13,16.8-14.7,33.6-18.7,46.6c-1.8,5.7-2.8,11.6-3.2,17.6l-0.8,14.4
			C843.9,298.7,858.9,346.7,858.9,346.7z"/>
		<linearGradient id="SVGID_11_" gradientUnits="userSpaceOnUse" x1="798.1957" y1="388.7682" x2="852.0601" y2="247.8038">
			<stop  offset="0" style="stop-color:#688027"/>
			<stop  offset="1" style="stop-color:#9CB839"/>
		</linearGradient>
		<path class="st15" d="M868.5,285.3c0,0,7.5-49-35.2-27.2c-40.9,20.9-36.4,83.9-36.4,83.9c2.5-10.5,11-28,25.9-45.9
			C841.7,273.4,868.5,285.3,868.5,285.3z"/>
		<linearGradient id="SVGID_12_" gradientUnits="userSpaceOnUse" x1="800.1964" y1="453.7881" x2="825.8884" y2="453.7881">
			<stop  offset="0" style="stop-color:#688027"/>
			<stop  offset="1" style="stop-color:#9CB839"/>
		</linearGradient>
		<path class="st16" d="M825.9,442.3c-24.4-4.8-25.7,16.1-25.7,16.1v7.7C802.3,452.8,825.9,442.3,825.9,442.3z"/>
		<linearGradient id="SVGID_13_" gradientUnits="userSpaceOnUse" x1="729.1195" y1="281.8122" x2="793.2546" y2="281.8122">
			<stop  offset="0" style="stop-color:#688027"/>
			<stop  offset="1" style="stop-color:#9CB839"/>
		</linearGradient>
		<path class="st17" d="M775.5,240c-23.8-17.9-46.3-8.5-46.3-8.5s45.8,2.2,63.2,103.2C792.3,334.6,799.3,257.9,775.5,240z"/>
		<linearGradient id="SVGID_14_" gradientUnits="userSpaceOnUse" x1="746.0668" y1="348.535" x2="791.953" y2="348.535">
			<stop  offset="0" style="stop-color:#688027"/>
			<stop  offset="1" style="stop-color:#9CB839"/>
		</linearGradient>
		<path class="st18" d="M746.1,303.6c0,0,38.2,49.5,45.9,90l-0.8-9.5C791.1,384.1,796.3,305.5,746.1,303.6z"/>
		<path class="st11" d="M792,393.5l1.3,14.8C793.4,403.6,792.9,398.6,792,393.5z"/>
		<linearGradient id="SVGID_15_" gradientUnits="userSpaceOnUse" x1="762.368" y1="430.0682" x2="794.5171" y2="430.0682">
			<stop  offset="0" style="stop-color:#688027"/>
			<stop  offset="1" style="stop-color:#9CB839"/>
		</linearGradient>
		<path class="st19" d="M762.4,411.4c0,0,30.1,31.3,32.1,37.9C794.5,449.3,789.6,405.3,762.4,411.4z"/>
		<linearGradient id="SVGID_16_" gradientUnits="userSpaceOnUse" x1="775.1805" y1="613.1017" x2="794.2813" y2="526.766">
			<stop  offset="0" style="stop-color:#806069"/>
			<stop  offset="1" style="stop-color:#E3C496"/>
		</linearGradient>
		<polygon class="st20" points="824,562.8 834.9,497 763.2,497 774.1,562.8 		"/>
		<linearGradient id="SVGID_17_" gradientUnits="userSpaceOnUse" x1="707.6666" y1="529.7188" x2="818.4507" y2="479.2929">
			<stop  offset="0" style="stop-color:#806069"/>
			<stop  offset="1" style="stop-color:#E3C496"/>
		</linearGradient>
		<rect x="756.4" y="479.3" class="st21" width="85.2" height="17.6"/>
		<linearGradient id="SVGID_18_" gradientUnits="userSpaceOnUse" x1="731.2378" y1="480.8001" x2="850.9993" y2="561.0231">
			<stop  offset="0" style="stop-color:#806069"/>
			<stop  offset="1" style="stop-color:#E3C496"/>
		</linearGradient>
		<path class="st22" d="M834.9,497h-71.7l10.9,65.8h12.3c0,0-12-51.1,46.2-51.6L834.9,497z"/>
	</g>
	<g>
		<g>
			<path class="st23" d="M738,492.3l-40.7,0c-4.1,0-7.5-3.4-7.5-7.5l0-25.7c0-4.1,3.4-7.5,7.5-7.5l40.7,0c4.1,0,7.5,3.4,7.5,7.5
				l0,25.7C745.5,489,742.2,492.3,738,492.3z M697.3,456.6c-1.4,0-2.5,1.1-2.5,2.5l0,25.7c0,1.4,1.1,2.5,2.5,2.5l40.7,0
				c1.4,0,2.5-1.1,2.5-2.5l0-25.7c0-1.4-1.1-2.5-2.5-2.5L697.3,456.6z"/>
		</g>
		<g>
			<linearGradient id="SVGID_19_" gradientUnits="userSpaceOnUse" x1="696.5796" y1="475.6241" x2="761.5912" y2="605.6469">
				<stop  offset="0" style="stop-color:#2A2E4A"/>
				<stop  offset="1" style="stop-color:#484F80"/>
			</linearGradient>
			<polygon class="st24" points="788.8,563.6 646.4,563.5 646.5,471.9 788.9,472 			"/>
		</g>
		<g>
			
				<rect x="646.5" y="471.9" transform="matrix(1 1.192492e-03 -1.192492e-03 1 0.5875 -0.8555)" class="st25" width="142.4" height="40.7"/>
		</g>
		<g>
			
				<rect x="707.8" y="503" transform="matrix(1 1.192875e-03 -1.192875e-03 1 0.6039 -0.8557)" class="st26" width="19.6" height="5.6"/>
		</g>
	</g>
	<g>
		<path class="st27" d="M737,117.5h-74.9c-1.5,0-2.8-1.2-2.8-2.8v-4.1c0-1.5,1.2-2.8,2.8-2.8H737c1.5,0,2.8,1.2,2.8,2.8v4.1
			C739.8,116.2,738.5,117.5,737,117.5z"/>
		<path class="st27" d="M755.4,133h-93.2c-1.6,0-2.9-1.3-2.9-2.9v-3.9c0-1.6,1.3-2.9,2.9-2.9h93.2c1.6,0,2.9,1.3,2.9,2.9v3.9
			C758.2,131.7,757,133,755.4,133z"/>
	</g>
	<path class="st27" d="M608.1,140.9h25.7c4.7,0,8.5-3.8,8.5-8.5v-25.7c0-4.7-3.8-8.5-8.5-8.5h-25.7c-4.7,0-8.5,3.8-8.5,8.5v25.7
		C599.6,137.1,603.4,140.9,608.1,140.9z"/>
	<g>
		<g>
			<g>
				<g>
					<g>
						<path class="st28" d="M619.5,129.9l-11.8-10.3c-1-0.8-1.1-2.3-0.2-3.3c0.8-1,2.3-1.1,3.3-0.2l8.4,7.3l11.9-13.3
							c0.9-1,2.3-1,3.3-0.2c1,0.9,1,2.3,0.2,3.3L619.5,129.9z"/>
					</g>
				</g>
			</g>
		</g>
	</g>
	<path class="st27" d="M156.9,359.9h25.7c4.7,0,8.5-3.8,8.5-8.5v-25.7c0-4.7-3.8-8.5-8.5-8.5h-25.7c-4.7,0-8.5,3.8-8.5,8.5v25.7
		C148.4,356.1,152.2,359.9,156.9,359.9z"/>
	<g>
		<g>
			<g>
				<g>
					<g>
						<path class="st28" d="M168.3,348.8l-11.8-10.3c-1-0.8-1.1-2.3-0.2-3.3c0.8-1,2.3-1.1,3.3-0.2l8.4,7.3l11.9-13.3
							c0.9-1,2.3-1,3.3-0.2c1,0.9,1,2.3,0.2,3.3L168.3,348.8z"/>
					</g>
				</g>
			</g>
		</g>
	</g>
	<g>
		<path class="st27" d="M219.7,146.6h25.7c4.7,0,8.5-3.8,8.5-8.5v-25.7c0-4.7-3.8-8.5-8.5-8.5h-25.7c-4.7,0-8.5,3.8-8.5,8.5v25.7
			C211.2,142.8,215,146.6,219.7,146.6z"/>
		<g>
			<g>
				<g>
					<g>
						<g>
							<path class="st28" d="M231.1,135.6l-11.8-10.3c-1-0.8-1.1-2.3-0.2-3.3c0.8-1,2.3-1.1,3.3-0.2l8.4,7.3l11.9-13.3
								c0.9-1,2.3-1,3.3-0.2c1,0.9,1,2.3,0.2,3.3L231.1,135.6z"/>
						</g>
					</g>
				</g>
			</g>
		</g>
		<g>
			<path class="st27" d="M348.3,124.4h-74.9c-1.5,0-2.8-1.2-2.8-2.8v-4.1c0-1.5,1.2-2.8,2.8-2.8h74.9c1.5,0,2.8,1.2,2.8,2.8v4.1
				C351.1,123.2,349.8,124.4,348.3,124.4z"/>
			<path class="st27" d="M334.8,139.9H273c-1.3,0-2.4-1.1-2.4-2.4v-4.9c0-1.3,1.1-2.4,2.4-2.4h61.8c1.3,0,2.4,1.1,2.4,2.4v4.9
				C337.2,138.9,336.1,139.9,334.8,139.9z"/>
		</g>
	</g>
	<g>
		<path class="st27" d="M313.7,336.6H211.5c-1.8,0-3.2-1.4-3.2-3.2v-3.2c0-1.8,1.4-3.2,3.2-3.2h102.1c1.8,0,3.2,1.4,3.2,3.2v3.2
			C316.9,335.1,315.5,336.6,313.7,336.6z"/>
		<path class="st27" d="M264.7,352.1h-54.2c-1.2,0-2.2-1-2.2-2.2v-5.2c0-1.2,1-2.2,2.2-2.2h54.2c1.2,0,2.2,1,2.2,2.2v5.2
			C266.9,351.1,265.9,352.1,264.7,352.1z"/>
	</g>
	<g>
		<g>
			<path class="st29" d="M476.9,265.8c0,0,22.4,7.2,29.4,9.5c7,2.3,18.2,11.7,28.1,26.2c10.2,15,29.3,46.8,29.9,47.5
				c0.7,0.7,11.2,15.9-22,25.1c-12.8,3.6-57.4,9.9-57.4,9.9s-0.4-11.9-2.2-13.3c0,0,34.4-9.9,40.7-13c7.2-3.5,15.8-5.7,12.2-8.9
				c-3.5-3.2-22.2-26.1-22.2-26.1s-1.8,15.5-4.5,21.2c-2.7,5.7-4.8,20.5-4.7,25.7c0.2,5.2,2.4,24.3,2.4,24.3s-11.6,3.4-19.1,3.1
				c-7.5-0.4-71.9,3.4-71.6,0.5c1-12,2-15.5,3.2-18.9c1.1-3.4,1.3-8.4-1.3-19.2c-2.7-10.9-12.2-31.7-12.2-31.7s-12.7,31.2-14.1,34.9
				c-2.5,6.6-8.6,14.6-13.5,23.3c-4.4,7.7-29.5,58.9-29.5,58.9s-15.7-6.2-13-8.2c2.7-2,23.1-58.6,29.8-72.6
				c7.1-14.7,14.5-45.5,15.6-49.3c1.9-6.5,14.9-29.2,22.2-32.9c7.3-3.7,44.8-16.2,44.8-16.2H476.9z"/>
		</g>
		<g>
			<path class="st30" d="M459.6,294.1l-14.2-27.7l0.2-0.1c0.2-0.1,19.6-6.4,31.6-0.6l0.1,0.1L459.6,294.1z M445.8,266.5l13.9,27
				l17.3-27.6C465.6,260.5,447.6,265.9,445.8,266.5z"/>
		</g>
		<g>
			<g>
				<path class="st31" d="M465.7,192.2c0,0,22.9,3.6,19.4,39.4c-3.5,35.8-23.7,32.8-25,32.8c-1.3,0-20.3,0.7-21.7-43
					C438.4,221.4,437.7,189.1,465.7,192.2z"/>
			</g>
		</g>
		<g>
			<g>
				<path class="st31" d="M476.4,247.1c0,0-0.7,15.5,0.7,18.7c1.4,3.2-19.1,12.1-31.5,0.7c0,0,3.3-15.5,2.5-21.1
					C447.3,239.6,476.4,247.1,476.4,247.1z"/>
			</g>
		</g>
		<g>
			<g>
				<path class="st31" d="M485.5,221.5c0,0,2.5-2.7,3.4,0c0.9,2.7-3.4,14.8-3.6,15.3c0,0-0.5,1-1.1,0.5
					C483.6,236.8,485.5,221.5,485.5,221.5z"/>
			</g>
		</g>
		<g>
			<g>
				<path class="st31" d="M439,221.1c0,0-2.5-2.7-3.4,0c-1,2.7,3.1,14.8,3.3,15.4c0,0,0.4,1.1,1,0.5
					C440.5,236.4,439,221.1,439,221.1z"/>
			</g>
		</g>
		<g>
			<g>
				<path class="st32" d="M485.4,227l-3.3,4.4c0,0,0.1-9.6-0.4-11.1c-0.5-1.5-1.3-6.1-1.8-7.2c-0.4-1.1-18.6,5.6-36.6,1.6
					c0,0,0.7,6.9-0.9,7.5c-1.6,0.6-0.8,11.2-0.8,11.2l-2.7-3c0,0-4.1-27.5-3.1-30.4c1-2.9,4.3-20.1,39-9.9c0,0,10.8-2.3,13,5.2
					C490.1,202.8,485.4,227,485.4,227z"/>
			</g>
		</g>
		<g>
			<path class="st33" d="M622.3,422.5c-0.8,5.3-32.4,27.4-38.6,31.8c-5,3.5-9.3,5.2-16.9,8c0,0,0,0,0,0C549.7,466.9,442,499,442,499
				c-0.3-1.1-0.4-2-1.1-3.3c-4,1.6-8.2,2.6-10.8,3.5c-4,1.3-35.8,2.3-42.3,3.5c-6.5,1.3-19.5,3.3-24.8-1.8
				c-5.3-5,3.3-15.8,10.5-18.5c7.3-2.8,33.8-3.5,38.6-4c4.8-0.5,11-2.3,14-1.3c0.9,0.3,5.1-0.9,10.4-2.7c-0.1-2-0.2-3.2-0.2-3.2
				l28.3-8.1l-5.2-50.1c0,0,12.3-46.3,61.4-11c0,0,11,3.2,14.7,4.2c0.3,0.1,0.7,0.1,1.3,0c7.5-0.6,39.7-10.3,51.4-10.3
				c12.5,0,16.5-0.8,21,1.5C613.8,399.7,623.1,417.3,622.3,422.5z"/>
		</g>
		<g>
			<path class="st33" d="M572,500.9c-5.3,5-18.3,3-24.8,1.8c-6.5-1.3-38.3-2.3-42.3-3.5c-4-1.3-11.5-3-16.8-6.5
				c-0.4-0.3-1.4-0.7-2.8-1.2c0,0,0,0,0,0l-8,5.7L366.6,462c-6.6-1.8-11.9-4.6-15.4-7.6c-5.8-5-37.8-26.6-38.6-31.8
				c-0.8-5.3,8.5-22.8,13-25.1c4.5-2.3,8.5-1.5,21-1.5c12.5,0,48.9,11.3,52.6,10.3c1.7-0.5,5.2-2.3,8.6-4.1c4-2.2,7.8-4.4,7.8-4.4
				c53.8-24,59.8,15.3,59.8,15.3l-3.2,48.5c0,0,4.5,2.2,10.3,5l26.7,7.5l-3.5,2.5c1.5,0.5,2.6,0.7,3,0.6c3-1,9.3,0.8,14,1.3
				c4.8,0.5,31.3,1.3,38.6,4C568.7,485.2,577.2,495.9,572,500.9z"/>
		</g>
		<g>
			<path class="st34" d="M432.1,448.9c0,0-35-21-50.3-24.3c-14.4-3.1-19.7-8.5-19.7-8.5s23,0,38.2,10.9
				C410.7,434.3,432.1,448.9,432.1,448.9z"/>
		</g>
		<g>
			<path class="st34" d="M463.2,463.5c0,0,60.9-32,85.7-38.9c14.2-4,19.7-8.5,19.7-8.5s-37.6,3.7-60.5,17.5
				C497.2,440.1,463.2,463.5,463.2,463.5z"/>
		</g>
		<g>
			<path class="st35" d="M415.7,397.7c0,0-0.8-6.3,1.1-9.8c0,0,44,3.5,88.7-1.8c0,0,2.5,4.2,1.3,7.5
				C506.8,393.5,478.2,401.4,415.7,397.7z"/>
		</g>
		<g>
			<path class="st31" d="M484.7,268.3l-16.5,26.5c-2.7,6.5-12.1,6.3-14.5-0.4l-15.3-25.5c0,0,7-2.8,11.5-3.9
				C467.8,260.5,484.7,268.3,484.7,268.3z"/>
		</g>
		<g>
			<path class="st36" d="M572,500.9c-5.3,5-18.3,3-24.8,1.8c-6.5-1.3-38.3-2.3-42.3-3.5c-4-1.3-11.5-3-16.8-6.5
				c-0.4-0.3-1.4-0.7-2.8-1.2l20.6-14.9c1.5,0.5,2.6,0.7,3,0.6c3-1,9.3,0.8,14,1.3c4.8,0.5,31.3,1.3,38.6,4
				C568.7,485.2,577.2,495.9,572,500.9z"/>
		</g>
		<g>
			<path class="st36" d="M440.9,495.7c-4,1.6-8.2,2.6-10.8,3.5c-4,1.3-35.8,2.3-42.3,3.5c-6.5,1.3-19.5,3.3-24.8-1.8
				c-5.3-5,3.3-15.8,10.5-18.5c7.3-2.8,33.8-3.5,38.6-4c4.8-0.5,11-2.3,14-1.3c0.9,0.3,5.1-0.9,10.4-2.7
				C436.8,477.6,440.9,495.7,440.9,495.7z"/>
		</g>
		<g>
			<path class="st33" d="M463.2,492.7L523,475l-11.8-3.6C511.2,471.4,463.4,488.7,463.2,492.7z"/>
		</g>
		<g>
			<polygon class="st34" points="463.2,492.7 491.2,484.1 471.8,495.4 			"/>
		</g>
		<g>
			<polygon class="st33" points="489.3,387.7 492.6,387.4 493.6,397.2 489.9,397.7 			"/>
		</g>
		<g>
			<polygon class="st33" points="433.8,388.8 432.7,399.9 436,399.9 437.2,388.9 			"/>
		</g>
		<g>
			<path class="st37" d="M453.5,388.4l-0.5,11c0,0,10.9,1.3,14.8-0.7l-0.4-10.5L453.5,388.4z"/>
		</g>
		<g>
			<path class="st38" d="M408,402.1c3.7,0.3,28.8,14.8,34.7,18.3c-9-4.7-43.3-14.2-43.3-14.2C401.1,405.8,404.6,404,408,402.1z"/>
		</g>
		<g>
			<path class="st39" d="M443.9,421.1c-0.1,0-0.5-0.3-1.3-0.7C443.2,420.7,443.6,420.9,443.9,421.1z"/>
		</g>
		<g>
			<path class="st38" d="M536.9,406.3c0,0-43.2,10.5-51.1,14.9c0.4-0.3,23.4-16.9,35.1-19.1c0,0,11,3.2,14.7,4.2
				C535.9,406.3,536.3,406.3,536.9,406.3C536.9,406.3,536.9,406.3,536.9,406.3z"/>
		</g>
		<g>
			<path class="st40" d="M448.1,257.9c0,0,5.2,6.6,13.3,6.6c5.4,0,9.6-1.9,14.9-7.1c0,0-2.7,10.2-14.9,11.2
				C461.4,268.6,452.1,269.2,448.1,257.9z"/>
		</g>
		<g>
			<g>
				<path class="st31" d="M479,367.1c0,0-2.9-11.6-2.5-13.6c0.4-2-4.4-4.1-4.7,0.9c-0.4,5-0.5,8.2-0.5,8.2L479,367.1z"/>
			</g>
		</g>
		<g>
			<path class="st41" d="M470.4,374.9h-15.2c-1.9,0-3.6-1.5-3.7-3.5l-1.8-33.2c-0.1-2.1,1.5-3.8,3.6-3.9l18.2-0.1
				c2.1,0,3.8,1.7,3.7,3.8l-1.2,33.4C474,373.4,472.4,374.9,470.4,374.9z"/>
		</g>
		<g>
			<g>
				<path class="st31" d="M479.2,367.8c0,0,0.2-3.1-5.9-5.7c-8.1-3.5-18.9-6.9-20.6-5.8c-2.5,1.5-1.1,3.5,4,4.9s6.8,1.9,6.8,1.9
					s-9.9-0.5-12,0.7c-2.2,1.3-2.2,4-0.5,4.4c1.6,0.4,5.4,0.5,5.4,0.5s-4.2,0.3-4.5,2c-0.3,1.3-0.3,3,3.6,3.6c0,0-2.6,3.1,1.5,4.8
					c4.1,1.7,11.4,3.2,15.1,3.6c7.6,0.9,22-1.6,22-1.6l-4.8-10.8c0,0-4.1,1.2-6.9,0.1C478.7,369.2,479.2,367.8,479.2,367.8z"/>
			</g>
		</g>
		<g>
			<path class="st29" d="M482.6,370.8c0,0-0.3,8.1,2.2,13.3l40.3-6.4l-7.1-16L482.6,370.8z"/>
		</g>
	</g>
</g>
</svg>
