<?xml version="1.0" encoding="utf-8"?>
<!-- Generator: Adobe Illustrator 24.2.0, SVG Export Plug-In . SVG Version: 6.00 Build 0)  -->
<svg version="1.1" id="Layer_1" xmlns="http://www.w3.org/2000/svg" xmlns:xlink="http://www.w3.org/1999/xlink" x="0px" y="0px"
	 viewBox="0 0 800 800" style="enable-background:new 0 0 800 800;" xml:space="preserve">
<style type="text/css">
	.st0{fill:url(#SVGID_1_);}
	.st1{fill:url(#SVGID_2_);}
	.st2{fill:url(#SVGID_3_);}
	.st3{fill:url(#SVGID_4_);}
	.st4{fill:url(#SVGID_5_);}
	.st5{fill:url(#SVGID_6_);}
	.st6{fill:#FFFFFF;}
	.st7{fill:#FFD600;}
	.st8{fill:none;stroke:#EEE9FF;stroke-width:0.25;stroke-miterlimit:10;}
	.st9{fill:#985CE5;}
	.st10{fill:#A292FF;}
	.st11{fill:#D7D7FF;}
	.st12{fill:#FFC700;}
	.st13{fill:#837AF4;}
	.st14{fill:#F27C41;}
	.st15{fill:#CAB1EF;}
	.st16{fill:#FFDEEE;}
	.st17{fill:#EAB9D3;}
	.st18{fill:#B3B3FF;}
	.st19{fill:#F3F3FF;}
	.st20{fill:#6C39BC;}
	.st21{fill:none;stroke:#6D44BC;stroke-width:0.2068;stroke-linecap:round;stroke-miterlimit:10;}
	.st22{fill:#CDAEFF;}
	.st23{fill:none;stroke:#6D44BC;stroke-width:0.246;stroke-linecap:round;stroke-miterlimit:10;}
	.st24{fill:#FFDB45;}
	.st25{fill:none;stroke:#6D44BC;stroke-width:0.1332;stroke-linecap:round;stroke-miterlimit:10;}
</style>
<g>
	<g>
		<linearGradient id="SVGID_1_" gradientUnits="userSpaceOnUse" x1="236.7721" y1="180.7873" x2="387.7569" y2="180.7873">
			<stop  offset="0" style="stop-color:#FFFFFF"/>
			<stop  offset="1" style="stop-color:#FFFFFF;stop-opacity:0"/>
		</linearGradient>
		<path class="st0" d="M236.9,203.6h150.8c0,0-0.4-15.9-21.8-19c0,0-6.3-21.6-34.9-19c-5.7-7-31.6-12.9-41-0.2
			c-12-2.4-27.5,5.2-30.7,17.9C250.9,181.5,235,192.3,236.9,203.6z"/>
		<linearGradient id="SVGID_2_" gradientUnits="userSpaceOnUse" x1="199.3563" y1="175.5385" x2="298.1479" y2="175.5385">
			<stop  offset="0" style="stop-color:#FFFFFF"/>
			<stop  offset="1" style="stop-color:#FFFFFF;stop-opacity:0"/>
		</linearGradient>
		<path class="st1" d="M199.5,190.5h98.7c0,0-0.3-10.4-14.3-12.4c0,0-4.1-14.1-22.8-12.4c-3.7-4.6-20.7-8.4-26.8-0.1
			c-7.8-1.6-18,3.4-20.1,11.7C208.6,176,198.2,183.1,199.5,190.5z"/>
		<linearGradient id="SVGID_3_" gradientUnits="userSpaceOnUse" x1="549.3665" y1="264.5964" x2="648.158" y2="264.5964">
			<stop  offset="0" style="stop-color:#FFFFFF"/>
			<stop  offset="1" style="stop-color:#FFFFFF;stop-opacity:0"/>
		</linearGradient>
		<path class="st2" d="M549.5,279.5h98.7c0,0-0.3-10.4-14.3-12.4c0,0-4.1-14.1-22.8-12.4c-3.7-4.6-20.7-8.4-26.8-0.1
			c-7.8-1.6-18,3.4-20.1,11.7C558.6,265.1,548.2,272.1,549.5,279.5z"/>
		<linearGradient id="SVGID_4_" gradientUnits="userSpaceOnUse" x1="136.8582" y1="385.3767" x2="235.6498" y2="385.3767">
			<stop  offset="0" style="stop-color:#FFFFFF"/>
			<stop  offset="1" style="stop-color:#FFFFFF;stop-opacity:0"/>
		</linearGradient>
		<path class="st3" d="M137,400.3h98.7c0,0-0.3-10.4-14.3-12.4c0,0-4.1-14.1-22.8-12.4c-3.7-4.6-20.7-8.4-26.8-0.1
			c-7.8-1.6-18,3.4-20.1,11.7C146.1,385.9,135.7,392.9,137,400.3z"/>
	</g>
	<g>
		<g>
			<linearGradient id="SVGID_5_" gradientUnits="userSpaceOnUse" x1="207.0919" y1="458.1052" x2="607.9445" y2="458.1052">
				<stop  offset="0" style="stop-color:#FF7300"/>
				<stop  offset="1" style="stop-color:#422E8E;stop-opacity:0"/>
			</linearGradient>
			<path class="st4" d="M583,502.2c-36.9,103.9-107.1,141.2-210.4,125.5C269.4,612,193.4,548.5,209.2,445.3
				C224.9,342,423.2,271.5,526.4,287.2C629.7,302.9,617.9,403.8,583,502.2z"/>
			
				<linearGradient id="SVGID_6_" gradientUnits="userSpaceOnUse" x1="451.2169" y1="-638.7494" x2="909.2155" y2="-638.7494" gradientTransform="matrix(0.8742 -0.4856 0.4856 0.8742 167.1413 1345.0472)">
				<stop  offset="0" style="stop-color:#FFFFFF;stop-opacity:0"/>
				<stop  offset="1" style="stop-color:#FFFFFF"/>
			</linearGradient>
			<path class="st5" d="M651.4,403.1c20.8,124.3-28.7,200.5-140.5,242.1c-111.8,41.6-222.9,20.3-264.5-91.6
				c-41.6-111.8,117.4-292.4,229.2-333.9C587.4,178.1,631.7,285.4,651.4,403.1z"/>
			<path class="st6" d="M609.4,472.2c-18.6,97-75.8,139.5-169.3,139.5s-169.3-46-169.3-139.5s166.1-182.8,259.6-182.8
				C623.8,289.5,627.1,380.4,609.4,472.2z"/>
		</g>
		<g>
			<g>
				
					<image style="overflow:visible;opacity:0.3;" width="427" height="427" xlink:href="F25C46BD57F4683E.png"  transform="matrix(0.24 0 0 0.24 409.8 124.92)">
				</image>
				<g>
					<path class="st7" d="M479.2,190.7h-49.4c-2.9,0-5.3-2.4-5.3-5.3V136c0-2.9,2.4-5.3,5.3-5.3h49.4c2.9,0,5.3,2.4,5.3,5.3v49.4
						C484.5,188.3,482.1,190.7,479.2,190.7z"/>
					<path class="st8" d="M479.2,190.7h-49.4c-2.9,0-5.3-2.4-5.3-5.3V136c0-2.9,2.4-5.3,5.3-5.3h49.4c2.9,0,5.3,2.4,5.3,5.3v49.4
						C484.5,188.3,482.1,190.7,479.2,190.7z"/>
				</g>
			</g>
			<g>
				<path class="st6" d="M474.2,148.3c-0.5-0.4-1.1-0.7-1.8-0.7h-35.8c-0.7,0-1.3,0.2-1.8,0.7l19.7,12.4L474.2,148.3z"/>
				<path class="st6" d="M456.1,163.2l-1.6,1l-1.6-1l-19.1-12.1v19.8c0,1.6,1.3,2.8,2.8,2.8h35.8c1.6,0,2.8-1.3,2.8-2.8v-19.8
					L456.1,163.2z"/>
			</g>
		</g>
		<g>
			<g>
				
					<image style="overflow:visible;opacity:0.3;" width="606" height="606" xlink:href="F25C46BD57F46839.png"  transform="matrix(0.24 0 0 0.24 246.12 267.72)">
				</image>
				<g>
					<path class="st9" d="M354.7,376.4h-84.8c-5,0-9-4-9-9v-84.8c0-5,4-9,9-9h84.8c5,0,9,4,9,9v84.8
						C363.7,372.4,359.7,376.4,354.7,376.4z"/>
					<path class="st8" d="M354.7,376.4h-84.8c-5,0-9-4-9-9v-84.8c0-5,4-9,9-9h84.8c5,0,9,4,9,9v84.8
						C363.7,372.4,359.7,376.4,354.7,376.4z"/>
				</g>
			</g>
			<path class="st6" d="M332.7,303.9h-40.8c-5,0-9,4.1-9,9v24c0,5,4.1,9,9,9h40.8c5,0,9-4.1,9-9v-24
				C341.7,308,337.6,303.9,332.7,303.9z M303.1,337.4v-24.7l24.7,12.4L303.1,337.4z"/>
		</g>
		<g>
			<path class="st10" d="M504,498H340.4c-2.5,0-4.4-2-4.4-4.4V185.2c0-2.5,2-4.4,4.4-4.4H504c2.5,0,4.4,2,4.4,4.4v308.4
				C508.4,496.1,506.4,498,504,498z"/>
			<path class="st11" d="M499.2,478.9H345.2c-2.4,0-4.3-1.9-4.3-4.3V188.8c0-2.4,1.9-4.3,4.3-4.3h154.1c2.4,0,4.3,1.9,4.3,4.3v285.8
				C503.5,477,501.6,478.9,499.2,478.9z"/>
			<path class="st11" d="M439.1,491.8h-33.8c-1.7,0-3-1.4-3-3l0,0c0-1.7,1.4-3,3-3h33.8c1.7,0,3,1.4,3,3l0,0
				C442.1,490.4,440.8,491.8,439.1,491.8z"/>
		</g>
		<path class="st12" d="M494.6,345H354.4c-1.2,0-2.2-1-2.2-2.2v-32.4c0-1.2,1-2.2,2.2-2.2h140.2c1.2,0,2.2,1,2.2,2.2v32.4
			C496.8,344,495.9,345,494.6,345z"/>
		<g id="JjPh74.tif">
			
				<image style="overflow:visible;" width="63" height="42" id="Layer_1_6_" xlink:href="F25C46BD57F46838.png"  transform="matrix(0.6097 0 0 0.6097 445.928 314.0621)">
			</image>
		</g>
		<path class="st13" d="M494.6,395.9H354.4c-1.2,0-2.2-1-2.2-2.2v-32.4c0-1.2,1-2.2,2.2-2.2h140.2c1.2,0,2.2,1,2.2,2.2v32.4
			C496.8,394.9,495.9,395.9,494.6,395.9z"/>
		<g id="_x36_GeIYs.tif">
			
				<image style="overflow:visible;" width="115" height="45" id="Layer_1_5_" xlink:href="F25C46BD57F46837.png"  transform="matrix(0.7035 0 0 0.7035 391.9924 360.4771)">
			</image>
		</g>
		<circle class="st14" cx="373.5" cy="435.3" r="19.2"/>
		<circle class="st13" cx="424.3" cy="435.3" r="19.2"/>
		<circle class="st12" cx="475.1" cy="435.3" r="19.2"/>
		<g>
			<g>
				
					<image style="overflow:visible;opacity:0.3;" width="657" height="658" xlink:href="F25C46BD57F46846.png"  transform="matrix(0.24 0 0 0.24 444.6 149.88)">
				</image>
				<g>
					<path class="st9" d="M564.4,271h-95c-5.6,0-10.1-4.5-10.1-10.1v-95c0-5.6,4.5-10.1,10.1-10.1h95c5.6,0,10.1,4.5,10.1,10.1v95
						C574.5,266.5,570,271,564.4,271z"/>
					<path class="st8" d="M564.4,271h-95c-5.6,0-10.1-4.5-10.1-10.1v-95c0-5.6,4.5-10.1,10.1-10.1h95c5.6,0,10.1,4.5,10.1,10.1v95
						C574.5,266.5,570,271,564.4,271z"/>
				</g>
			</g>
			<g id="BYhif5.tif">
				
					<image style="overflow:visible;" width="38" height="37" id="Layer_1_8_" xlink:href="F25C46BD57F46849.png"  transform="matrix(1.6123 0 0 1.6123 485.5735 180.5852)">
				</image>
			</g>
		</g>
		<g>
			<g>
				
					<image style="overflow:visible;opacity:0.3;" width="582" height="582" xlink:href="F25C46BD57F46848.png"  transform="matrix(0.24 0 0 0.24 178.92 337.32)">
				</image>
				<g>
					<path class="st7" d="M282.1,440.2H202c-4.7,0-8.5-3.8-8.5-8.5v-80.1c0-4.7,3.8-8.5,8.5-8.5h80.1c4.7,0,8.5,3.8,8.5,8.5v80.1
						C290.7,436.4,286.8,440.2,282.1,440.2z"/>
					<path class="st8" d="M282.1,440.2H202c-4.7,0-8.5-3.8-8.5-8.5v-80.1c0-4.7,3.8-8.5,8.5-8.5h80.1c4.7,0,8.5,3.8,8.5,8.5v80.1
						C290.7,436.4,286.8,440.2,282.1,440.2z"/>
				</g>
			</g>
			<g id="JKAXWj.tif">
				
					<image style="overflow:visible;" width="128" height="19" id="Layer_1_7_" xlink:href="F25C46BD57F4684F.png"  transform="matrix(0.5612 0 0 0.5612 405.8849 460.0695)">
				</image>
			</g>
			<g id="Sgwifv.tif">
				
					<image style="overflow:visible;" width="69" height="48" id="Layer_1_11_" xlink:href="F25C46BD57F4684E.png"  transform="matrix(0.9194 0 0 0.9194 210.5728 369.3597)">
				</image>
			</g>
		</g>
		<g>
			<g>
				
					<image style="overflow:visible;opacity:0.3;" width="427" height="427" xlink:href="756395DB65310D7.png"  transform="matrix(0.24 0 0 0.24 524.04 233.16)">
				</image>
				<g>
					<path class="st7" d="M593.5,299h-49.6c-2.9,0-5.3-2.4-5.3-5.3v-49.6c0-2.9,2.4-5.3,5.3-5.3h49.6c2.9,0,5.3,2.4,5.3,5.3v49.6
						C598.8,296.6,596.4,299,593.5,299z"/>
					<path class="st8" d="M593.5,299h-49.6c-2.9,0-5.3-2.4-5.3-5.3v-49.6c0-2.9,2.4-5.3,5.3-5.3h49.6c2.9,0,5.3,2.4,5.3,5.3v49.6
						C598.8,296.6,596.4,299,593.5,299z"/>
				</g>
			</g>
			
				<image style="overflow:visible;" width="56" height="45" id="Layer_1_2_" xlink:href="756395DB65310D3.png"  transform="matrix(0.563 0 0 0.563 552.9819 247.5961)">
			</image>
			<g id="iiRi4H.tif">
				
					<image style="overflow:visible;" width="124" height="35" id="Layer_1_10_" xlink:href="756395DB65310CE.png"  transform="matrix(0.3954 0 0 0.3954 543.9927 278.4851)">
				</image>
			</g>
		</g>
		<g>
			<g>
				
					<image style="overflow:visible;opacity:0.3;" width="477" height="477" xlink:href="756395DB65310CF.png"  transform="matrix(0.24 0 0 0.24 202.92 212.04)">
				</image>
				<g>
					<path class="st15" d="M283.2,289.8H224c-3.5,0-6.3-2.8-6.3-6.3v-59.2c0-3.5,2.8-6.3,6.3-6.3h59.2c3.5,0,6.3,2.8,6.3,6.3v59.2
						C289.5,287,286.6,289.8,283.2,289.8z"/>
					<path class="st8" d="M283.2,289.8H224c-3.5,0-6.3-2.8-6.3-6.3v-59.2c0-3.5,2.8-6.3,6.3-6.3h59.2c3.5,0,6.3,2.8,6.3,6.3v59.2
						C289.5,287,286.6,289.8,283.2,289.8z"/>
				</g>
			</g>
			<g id="_x32_uVhR3.tif">
				
					<image style="overflow:visible;" width="45" height="45" id="Layer_1_1_" xlink:href="756395DB65310EF.png"  transform="matrix(0.8172 0 0 0.8172 234.2717 233.7036)">
				</image>
			</g>
		</g>
		<g>
			<g>
				<path class="st16" d="M429.5,298.7c4.9-1.6,8.1-8.6,5.4-12c-2-2.5-7.2,9.9-9.4,8.5c0.2-0.7,0.2-1.1,0-2.4
					c-0.3-1.6-0.8-3-2.5-1.4c0.3,2.2-0.5,3.2,0,5.9l0,0l-23.5,23.5c0,0-10.2,2.4-27.1,8.5c-6.1,2.2-7.6,9.7-1,10.8
					c10.4,1,28.9-8.6,32.6-10.4C407.5,327.7,429.5,298.7,429.5,298.7"/>
				<g>
					<path class="st17" d="M434.9,286.7C434.8,286.6,434.8,286.6,434.9,286.7c0.5,3.6-2.4,8.4-6.4,9.7c0,0-22,29-25.6,30.8
						c-3.6,1.8-22.2,11.4-32.6,10.4c-1.5-0.3-2.6-0.9-3.3-1.6c0.2,1.9,1.5,3.5,4.3,3.9c10.4,1,28.9-8.6,32.6-10.4
						c3.6-1.8,25.6-30.8,25.6-30.8C434.4,297.1,437.6,290.1,434.9,286.7z"/>
				</g>
				<path class="st18" d="M365.1,336.9c-0.7-3.2,2.7-8.8,20.4-13.1c17.7-4.3,13.6-3.7,13.6-3.7s7.1-7.9,8.1-8.6
					c0.8-0.6,8.8,4.3,7.4,7.3c-1.6,2.1-7.1,9.5-10.1,11c-3.1,1.6-7,6.3-17.2,8.8S366.9,345.5,365.1,336.9z"/>
				<path class="st9" d="M406.2,312.1c0,0,1.3-1.2,1.5-1.5c0.7-0.9,9.3,6.4,8.1,7.7c0,0-0.9,1.6-1.7,1.9c-0.8,0.3-0.8,0.3-0.8,0.3
					s-6.4-8.7-7.7-7.4C405.5,312.9,405.8,312.5,406.2,312.1z"/>
			</g>
			<path class="st14" d="M487.2,308.1l-138.6-20.6c-1.2-0.2-2.1-1.3-1.9-2.5l4.8-32.1c0.2-1.2,1.3-2.1,2.5-1.9l138.6,20.6
				c1.2,0.2,2.1,1.3,1.9,2.5l-4.8,32.1C489.5,307.4,488.4,308.3,487.2,308.1z"/>
			<g id="piOH2Q_1_">
				
					<image style="overflow:visible;" width="140" height="50" id="piOH2Q" xlink:href="756395DB65310F1.jpg"  transform="matrix(0.6801 9.338315e-02 -9.338315e-02 0.6801 374.507 255.9285)">
				</image>
			</g>
			<g>
				<polygon class="st9" points="391,407.7 394,447.3 400.5,517.2 385,517.2 370.9,391.9 				"/>
				<polygon class="st9" points="354.7,402.9 362.7,450.3 346.3,507.5 359.4,514.7 381.5,447.7 381.5,395.4 				"/>
				<g>
					<g>
						<path class="st19" d="M372,332.7c-27.1,5.2-13.9,46-17.4,70.9c0,0,22.1,6.3,36.4,4.1c-0.5-11.5,0.3-44.7,0.7-54.8
							C389.9,344,389,339.6,372,332.7z"/>
					</g>
					<path class="st16" d="M375.3,321.7l-10.1,1.2l1.3,11.9c1.9,1.2,10.6,3,10.1-1.2L375.3,321.7z"/>
					<path class="st16" d="M367.1,323.7c0.6,2.2,2.8,4.6,5.2,5.5c2.4,0.9,6.8,0.4,8.5-0.2c2.2-0.8-1-15.7-1.6-18
						c-0.6-2.3-6.5-5.5-15-3.8c-8.5,1.7-7.2,13.1-4.2,15.1C362.9,324.2,367.1,323.7,367.1,323.7z"/>
					<path class="st16" d="M443.5,319.9c5.2-0.2,10-6.2,8.3-10.2c-1.3-3-9.5,7.7-11.3,5.8c0.3-0.6,0.5-1,0.6-2.4
						c0.2-1.6,0-3.1-2.1-2.1c-0.2,2.2-1.3,2.9-1.5,5.7l0,0l-28.8,16.5c0,0-16.7-0.9-34.6,0.6c-6.4,0.5-9.9,7.4-3.8,10.2
						c9.8,3.7,36.4-0.2,40.3-1.1C414.7,342.1,443.5,319.9,443.5,319.9"/>
					<g>
						<path class="st17" d="M451.8,309.7C451.8,309.6,451.8,309.6,451.8,309.7c-0.5,3.6-4.5,7.5-8.7,7.7c0,0-28.8,22.3-32.7,23.1
							c-4,0.8-30.5,4.7-40.3,1.1c-1.4-0.6-2.3-1.5-2.8-2.4c-0.3,1.8,0.5,3.7,3.1,4.9c9.8,3.7,36.4-0.2,40.3-1.1
							c4-0.8,32.7-23.1,32.7-23.1C448.7,319.6,453.5,313.7,451.8,309.7z"/>
					</g>
					<path class="st20" d="M380.4,309.6c-2.8,1.5-5.6,1.4-6.7,3c-1.1,1.6-1,6-2.4,6.7l-0.9-2.1c0,0-4.8,2.5-3.3,6.4
						c0,0,0.2,4.8-1.2,5.3c0,0-9.1-4.4-10.9-10.5c-2.3-8,6.2-16.5,13.4-17.2c7.2-0.7,12.8-5.4,12.8-5.4S390.2,304.3,380.4,309.6z"/>
					<path class="st18" d="M365.2,339.5c0.2-3.3,4.9-7.8,23.1-7.3c18.2,0.5,20.3,0.5,20.3,0.5s8.9-5.7,10.1-6.2
						c0.9-0.4,7.4,6.4,5.2,8.9c-2.1,1.6-9.3,7.3-12.6,8c-3.4,0.7-14.5,3.7-25.1,3.5C375.6,346.7,364.7,348.3,365.2,339.5z"/>
					<path class="st9" d="M417.5,326.8c0,0,1.5-0.8,1.9-1.1c0.9-0.7,7.3,8.5,5.8,9.5c0,0-1.3,1.3-2.1,1.4c-0.8,0.1-0.8,0.1-0.8,0.1
						s-3.9-10.1-5.5-9.1C416.6,327.4,417,327,417.5,326.8z"/>
				</g>
				<path class="st20" d="M385,517.2c0,0-2.4,3.4-1.6,7.8c0,0,33.7,0,35.5,0s-3.3-7.5-18.4-7.8H385z"/>
				<path class="st20" d="M346.3,507.5c0,0-3.7,2-5,6.3c0,0,30.1,15.2,31.7,16c1.6,0.8,0.4-8.2-12.8-15.3L346.3,507.5z"/>
			</g>
		</g>
		<g>
			<path class="st13" d="M384.4,244.7h-21.8c-5.5,0-9.9-4.4-9.9-9.9V213c0-5.5,4.4-9.9,9.9-9.9h21.8c5.5,0,9.9,4.4,9.9,9.9v21.8
				C394.3,240.3,389.9,244.7,384.4,244.7z"/>
			<path class="st6" d="M361.8,235.6h23.4c-0.4-4.5-3.4-8.3-7.5-9.9c2.5-1.5,4.2-4.2,4.2-7.3c0-4.6-3.8-8.4-8.4-8.4
				c-4.6,0-8.4,3.8-8.4,8.4c0,3.1,1.7,5.8,4.2,7.3C365.2,227.2,362.2,231,361.8,235.6z"/>
		</g>
		<g id="Bg8580.tif">
			
				<image style="overflow:visible;" width="50" height="45" id="Layer_1_4_" xlink:href="756395DB65310F3.png"  transform="matrix(0.6719 0 0 0.6719 407.8825 420.0265)">
			</image>
		</g>
		<g id="_x32_35Hxx.tif">
			<g id="_x36_1aqfi.tif">
				
					<image style="overflow:visible;" width="58" height="45" id="Layer_1_3_" xlink:href="756395DB65310F0.png"  transform="matrix(0.5266 0 0 0.5266 460.8919 421.6609)">
				</image>
			</g>
		</g>
	</g>
	<g>
		<g>
			<path class="st9" d="M312.3,411.6c-12.3,2.2-9.9,33.8-9.9,33.8s-10.1-15.6-17.1-6.2c-7,9.4,9,29.1,9,29.1s-15.8-11.8-15.8,0
				s18.2,22.8,18.2,22.8l15.6,9.4l15.6-9.4c0,0,18.2-11,18.2-22.8s-15.8,0-15.8,0s16-19.7,9-29.1c-7-9.4-17.1,6.2-17.1,6.2
				S324.5,413.8,312.3,411.6"/>
			<line class="st21" x1="312.3" y1="516.8" x2="312.3" y2="427.2"/>
			<line class="st21" x1="312.3" y1="465.7" x2="324" y2="456.1"/>
			<line class="st21" x1="312.3" y1="472" x2="299.9" y2="457"/>
			<line class="st21" x1="312.3" y1="481.2" x2="329.5" y2="473.7"/>
			<line class="st21" x1="312.3" y1="491.2" x2="296.9" y2="481.2"/>
		</g>
		<g>
			<path class="st22" d="M568.7,391.7c-14.6,2.6-11.7,40.3-11.7,40.3s-12-18.6-20.3-7.4s10.7,34.7,10.7,34.7s-18.8-14.1-18.8,0
				c0,14.1,21.6,27.1,21.6,27.1l18.5,11.2l18.5-11.2c0,0,21.6-13.1,21.6-27.1c0-14.1-18.8,0-18.8,0s19-23.4,10.7-34.7
				s-20.3,7.4-20.3,7.4S583.3,394.3,568.7,391.7"/>
			<line class="st23" x1="568.7" y1="516.8" x2="568.7" y2="410.2"/>
			<line class="st23" x1="568.7" y1="456.1" x2="582.7" y2="444.6"/>
			<line class="st23" x1="568.7" y1="463.5" x2="554" y2="445.7"/>
			<line class="st23" x1="568.7" y1="474.4" x2="589.2" y2="465.5"/>
			<line class="st23" x1="568.7" y1="486.3" x2="550.5" y2="474.4"/>
		</g>
		<g>
			<path class="st9" d="M529.8,411.6c-12.3,2.2-9.9,33.8-9.9,33.8s-10.1-15.6-17.1-6.2c-7,9.4,9,29.1,9,29.1s-15.8-11.8-15.8,0
				s18.2,22.8,18.2,22.8l15.6,9.4l15.6-9.4c0,0,18.2-11,18.2-22.8s-15.8,0-15.8,0s16-19.7,9-29.1c-7-9.4-17.1,6.2-17.1,6.2
				S542,413.8,529.8,411.6"/>
			<line class="st21" x1="529.8" y1="516.8" x2="529.8" y2="427.2"/>
			<line class="st21" x1="529.8" y1="465.7" x2="541.5" y2="456.1"/>
			<line class="st21" x1="529.8" y1="472" x2="517.4" y2="457"/>
			<line class="st21" x1="529.8" y1="481.2" x2="547" y2="473.7"/>
			<line class="st21" x1="529.8" y1="491.2" x2="514.4" y2="481.2"/>
		</g>
		<g>
			<path class="st24" d="M278.5,443.6c-7.9,1.4-6.3,21.8-6.3,21.8s-6.5-10.1-11-4c-4.5,6.1,5.8,18.8,5.8,18.8s-10.2-7.6-10.2,0
				c0,7.6,11.7,14.7,11.7,14.7l10,6l10-6c0,0,11.7-7.1,11.7-14.7c0-7.6-10.2,0-10.2,0s10.3-12.7,5.8-18.8s-11,4-11,4
				S286.4,445,278.5,443.6"/>
			<line class="st25" x1="278.5" y1="511.3" x2="278.5" y2="453.6"/>
			<line class="st25" x1="278.5" y1="478.4" x2="286.1" y2="472.2"/>
			<line class="st25" x1="278.5" y1="482.4" x2="270.6" y2="472.8"/>
			<line class="st25" x1="278.5" y1="488.4" x2="289.6" y2="483.5"/>
			<line class="st25" x1="278.5" y1="494.8" x2="268.7" y2="488.4"/>
		</g>
	</g>
</g>
</svg>
